<?xml version="1.0" encoding="UTF-8"?>
<svg id="Layer_1" data-name="Layer 1" xmlns="http://www.w3.org/2000/svg" viewBox="0 0 512 512">
  <defs>
    <style>
      .cls-1 {
        stroke-width: 0px;
      }
    </style>
  </defs>
  <path class="cls-1" d="m218.16,394.22c-.1.39-.1.88-.1,1.27,0,7.04,1.66,13.59,4.69,19.46.2-1.27.3-2.54.3-3.91,0-6.16-1.76-11.93-4.89-16.82Zm0,0c-.1.39-.1.88-.1,1.27,0,7.04,1.66,13.59,4.69,19.46.2-1.27.3-2.54.3-3.91,0-6.16-1.76-11.93-4.89-16.82ZM58.18,247.83v227.26h395.65v-227.26H58.18Zm288.28,163.11c-13.78,0-25.72-7.43-31.49-18.29.2.98.2,1.86.2,2.84,0,25.13-21.81,45.57-48.6,45.57-19.36,0-36.08-10.66-43.81-26.11-1.96,16.43-16.82,29.24-34.91,29.24-19.46,0-35.3-14.86-35.3-33.15,0-8.8,3.52-16.62,9.48-22.49-.68.1-1.27.1-1.96.1-19.46,0-35.2-14.86-35.2-33.05s15.74-33.15,35.2-33.15,35.2,14.86,35.2,33.15c0,8.7-3.52,16.53-9.39,22.49.68-.1,1.27-.1,1.96-.1,12.91,0,24.15,6.45,30.32,16.23.19-10.37,4.3-19.85,10.75-27.48-14.18-5.96-24.06-19.36-24.06-34.91,0-21.22,18.29-38.43,40.78-38.43s40.88,17.21,40.88,38.43c0,7.33-2.25,14.18-6.06,20.05,13.89,3.81,25.23,13.3,30.8,25.72.1-5.18,1.37-10.07,3.62-14.37-12.12-5.18-20.53-16.72-20.53-30.02,0-18.29,15.84-33.05,35.3-33.05s35.2,14.77,35.2,33.05c0,5.28-1.27,10.27-3.62,14.67,12.12,5.18,20.44,16.72,20.44,30.02,0,18.29-15.74,33.05-35.2,33.05Zm-35.2-33.05c0,5.28,1.37,10.37,3.72,14.77-.3-5.28-1.57-10.37-3.72-15.06v.29Zm-93.09,16.33c-.1.39-.1.88-.1,1.27,0,7.04,1.66,13.59,4.69,19.46.2-1.27.3-2.54.3-3.91,0-6.16-1.76-11.93-4.89-16.82Z"/>
  <path class="cls-1" d="m354.57,121.79h-30.9c1.56-5.48,2.34-11.15,2.34-17.01,0-37.45-32.46-67.86-72.56-67.86s-72.56,30.41-72.56,67.86c0,5.87.78,11.54,2.34,17.01h-30.9c-52.02,0-94.17,42.15-94.17,94.27v18.09h390.66v-18.09c0-52.12-42.15-94.27-94.27-94.27Zm-131.52-18.19c0-19.56,13.69-35.3,30.41-35.3s30.51,15.74,30.51,35.3c0,6.65-1.57,12.91-4.4,18.19h-52.12c-2.84-5.28-4.4-11.54-4.4-18.19Z"/>
</svg>