<?xml version="1.0" encoding="UTF-8"?>
<svg id="Layer_1" data-name="Layer 1" xmlns="http://www.w3.org/2000/svg" viewBox="0 0 512 512">
  <defs>
    <style>
      .cls-1, .cls-2 {
        stroke-width: 0px;
      }

      .cls-2 {
        fill: none;
      }
    </style>
  </defs>
  <line class="cls-2" x1="489.79" y1="434.72" x2="489.72" y2="434.95"/>
  <path class="cls-1" d="m181.6,50.25c0,7.6-6.18,13.78-13.78,13.78h-88.18c-8.61,0-15.62,7.01-15.62,15.62v88.18c0,7.6-6.18,13.78-13.78,13.78s-13.78-6.18-13.78-13.78v-88.18c0-23.81,19.36-43.17,43.17-43.17h88.18c7.6,0,13.78,6.18,13.78,13.78Zm293.93,29.39v88.18c0,7.6-6.18,13.78-13.78,13.78s-13.78-6.18-13.78-13.78v-88.18c0-8.61-7.01-15.62-15.62-15.62h-88.18c-7.6,0-13.78-6.18-13.78-13.78s6.18-13.78,13.78-13.78h88.18c23.81,0,43.17,19.36,43.17,43.17Zm0,264.54v88.18c0,23.81-19.36,43.17-43.17,43.17h-88.18c-7.6,0-13.78-6.18-13.78-13.78s6.18-13.78,13.78-13.78h88.18c8.61,0,15.62-7.01,15.62-15.62v-88.18c0-7.6,6.18-13.78,13.78-13.78s13.78,6.18,13.78,13.78Zm-293.93,117.57c0,7.6-6.18,13.78-13.78,13.78h-88.18c-23.81,0-43.17-19.36-43.17-43.17v-88.18c0-7.6,6.18-13.78,13.78-13.78s13.78,6.18,13.78,13.78v88.18c0,8.61,7.01,15.62,15.62,15.62h88.18c7.6,0,13.78,6.18,13.78,13.78Zm280.15-213.1H50.25c-4.04,0-7.35,3.31-7.35,7.35s3.31,7.35,7.35,7.35h411.5c4.04,0,7.35-3.31,7.35-7.35s-3.31-7.35-7.35-7.35Z" vector-effect="non-scaling-stroke"/>
</svg>