<?xml version="1.0" encoding="UTF-8"?>
<svg id="Layer_1" data-name="Layer 1" xmlns="http://www.w3.org/2000/svg" viewBox="0 0 512 512">
  <defs>
    <style>
      .cls-1 {
        stroke-width: 0px;
      }
    </style>
  </defs>
  <g>
    <rect class="cls-1" x="121.98" y="61.81" width="73.96" height="73.96"/>
    <path class="cls-1" d="m297.87,61.8v47.68c-2.41-8.01-7.82-14.83-15.44-19.1-10.26-5.79-22.37-5.68-32.41.25-10.98,6.49-16.83,17.13-16.86,30.74,0,4.8-.03,9.59,0,14.39h-9.26V61.8h73.96Z"/>
    <rect class="cls-1" x="325.84" y="61.81" width="73.96" height="73.96"/>
    <path class="cls-1" d="m195.93,161.27v61.32c-.5.08-1,.17-1.5.25-9.79,1.8-17.24,7.65-22.84,12.39h-49.62v-73.96h73.96Z"/>
    <path class="cls-1" d="m191.47,235.23c1.44-.61,2.91-1.05,4.46-1.36v1.36h-4.46Z"/>
    <path class="cls-1" d="m225.35,235.23h-1.44v-1.08c.47.36.97.72,1.44,1.08Z"/>
    <path class="cls-1" d="m223.91,161.27h9.23c-.03,12-.03,24.01-.03,36.01-.03,12.47-.03,24.92-.03,37.37-2.91-2.86-5.96-5.21-9.18-7.07v-66.31Z"/>
    <path class="cls-1" d="m399.8,161.27v33.27c-6.65-.83-13.44.44-19.43,3.71-4.82-7.82-12.09-13.14-20.62-15.03-8.37-1.86-16.99-.22-24.53,4.6-2.72-3.55-5.85-6.35-9.37-8.37v-18.19h73.96Z"/>
    <path class="cls-1" d="m195.93,312.24v22.43h-73.96v-73.96h47.15l17.19,33.04c3.22,6.15,6.43,12.34,9.62,18.49Z"/>
  </g>
  <g>
    <rect class="cls-1" x="250.21" y="426.43" width="170.69" height="71.74"/>
    <path class="cls-1" d="m418.29,336.69c-.31,23.34-10.23,41.67-29.5,54.47-5.79,3.85-12.7,6.43-22.32,8.32h-85.47c-9.23-1.89-16.8-4.88-23.12-9.07-9.07-6.02-16.24-14.28-21.96-25.25-13.22-25.53-26.5-51.04-39.78-76.54l-.22-.42-14.3-27.5-5.41-10.4c-.94-1.83-1.25-2.69-1.36-3.05.25-.33.92-1.05,2.63-2.52,4.82-4.1,9.12-7.54,13.97-9.51,1.44-.61,2.91-1.05,4.46-1.36.17-.06.33-.08.5-.11,11.84-2.16,21.73,1.14,30.16,10.12,1.66,1.77,3.21,3.69,4.88,5.71.8.97,1.61,1.97,2.44,2.97l5.21,6.21,3.91-7.1c1.39-2.58,1.25-4.96,1.16-6.24-.03-.17-.03-.36-.03-.53v-9.67c0-12.64,0-25.28.03-37.95,0-12,0-24.01.03-36.01-.03-8.51,0-16.99.03-25.5-.03-4.8,0-9.56,0-14.36.03-9.76,3.77-16.72,11.42-21.23,6.57-3.88,14.55-3.94,21.32-.14,6.99,3.94,11.2,11.06,11.28,19.1.05,5.52.11,11.06.11,16.63.03,8.57.03,17.13,0,25.5v.83c0,6.35-.03,12.7-.03,19.04v12.84l7.98-3.88c.53-.25,1.03-.5,1.53-.75,3.66-1.75,6.46-2.88,9.45-3.05,7.93-.44,13.89,1.97,18.52,7.57.61.69,1.16,1.44,1.69,2.22.72,1.08,2.38,3.55,5.54,4.1,3.19.55,5.66-1.28,6.6-1.97,5.41-4.02,11.67-5.52,17.66-4.19,6.04,1.33,11.12,5.38,14.36,11.37.78,1.47,2.25,4.21,5.49,5.05,3.3.83,6.1-.97,7.15-1.66,4.71-3.05,10.17-4.1,15.47-3.08,1.64.31,3.24.8,4.8,1.5,6.98,3.1,11.92,9.54,13.2,17.24.36,2.13.55,3.99.55,5.68,0,9.81.03,19.63.08,29.44.08,25.28.19,51.45-.14,77.12Z"/>
  </g>
</svg>