<?xml version="1.0" encoding="UTF-8"?>
<svg id="Layer_1" data-name="Layer 1" xmlns="http://www.w3.org/2000/svg" viewBox="0 0 512 512">
  <defs>
    <style>
      .cls-1 {
        fill: none;
        stroke: #000;
        stroke-miterlimit: 10;
        stroke-width: 4px;
      }

      .cls-2, .cls-3 {
        stroke-width: 0px;
      }

      .cls-3 {
        fill: #fff;
      }
    </style>
  </defs>
  <g>
    <path class="cls-2" d="m112.43,170.6h357.6c9.33.01,11.94,2.5,11.94,11.75.02,74.87.02,149.73,0,224.6,0,9.39-2.49,11.81-11.81,11.81-59.76.01-119.52.01-179.29.01s-118.87,0-178.31-.01c-10.59,0-12.05-1.46-12.05-12.15v-224.11c0-10.09,1.81-11.89,11.92-11.9Zm329.26,157.43c-.11-.01-.22-.01-.33-.01,0-2.6.03-5.19,0-7.78-.01-.64-.2-1.28-.35-1.91-1.15-4.7-4.59-7.45-9.01-7.22-4.67.25-8.09,3.53-8.28,8.52-.23,5.67-.23,11.36.01,17.02.19,4.81,3.46,8.01,7.89,8.36,4.65.36,8.48-2.42,9.37-7.32.57-3.16.5-6.44.71-9.66Zm-34.04,10.03c.78-3.19.6-6.44.83-9.7-.26-3.38-.28-6.81-.86-10.14-.8-4.66-4.46-7.36-8.98-7.1s-7.87,3.36-8.08,8.12c-.25,5.82-.23,11.66-.02,17.49.18,4.77,3.47,7.97,7.92,8.28,4.51.32,8.06-2.35,9.19-6.95Zm-33.29-.46c.34-6.3.31-12.63.04-18.93-.19-4.43-4.17-7.7-8.53-7.68-4.37.01-8.11,3.27-8.48,7.73-.25,3.06-.05,6.15-.05,9.22h-.03c0,2.92-.01,5.83,0,8.75,0,.32.03.64.07.96.67,4.35,3.97,7.28,8.3,7.38,4.52.1,8.43-2.91,8.68-7.43Zm-49.67-.68c.23-2.9.04-5.83.04-8.75h-.03c0-3.08.23-6.18-.05-9.23-.42-4.46-3.66-7.45-7.96-7.8-4.27-.35-8.15,2.08-9.03,6.46-1.37,6.87-1.33,13.89-.04,20.77.85,4.55,4.93,7.09,9.39,6.63,4.21-.43,7.33-3.55,7.68-8.08Zm-11.93,49.97c7.64-.03,12.04-3.39,11.96-9.07-.08-5.64-4.44-8.84-12.18-8.87-7.31-.02-14.62,0-21.92,0-12.99,0-25.98-.06-38.96.04-6.84.05-11.14,3.73-11.04,9.07.09,5.07,4.21,8.73,10.29,8.79,10.55.11,21.1.03,31.66.04,10.06,0,20.13.02,30.19,0Zm-21.18-58.81c0-2.76.15-5.53-.03-8.27-.34-5.06-3.55-8.35-8.19-8.68-4.86-.35-8.9,2.64-9.34,7.9-.49,5.96-.46,12.01-.04,17.98.35,4.94,4.26,8.07,8.82,8.03,4.76-.05,8.3-3.45,8.72-8.69.22-2.74.04-5.51.04-8.27h.02Zm-33.23,8.05c.21-2.57.03-5.18.03-7.77h-.04c0-2.92.24-5.86-.05-8.75-.52-5.26-4.12-8.55-8.89-8.52-4.76.03-8.42,3.35-8.74,8.65-.33,5.49-.31,11.03-.03,16.52.27,5.21,3.98,8.69,8.66,8.78,4.89.08,8.61-3.47,9.06-8.91Zm-41.75-82.24c.16-8.76.15-17.52,0-26.28-.2-12.85-9.72-23.41-22.56-24.43-15.69-1.24-31.44-1.18-47.13-.02-12.71.94-22.33,11.61-22.5,24.45-.1,8.43-.07,16.87-.01,25.3.09,14.91,10.81,25.63,25.85,25.82,6.81.08,13.63.01,20.44.01v-.02c7.14,0,14.28.19,21.41-.04,13.45-.42,24.25-11.38,24.49-24.79Zm-8.55,84.07c1.15-6.57,1.12-13.28.04-19.86-.78-4.77-4.56-7.3-9.12-6.97-4.49.31-7.75,3.45-8.13,8.19-.24,2.9-.05,5.84-.05,8.76h-.02c0,2.76-.14,5.53.03,8.28.29,4.88,3.28,8.15,7.66,8.63,4.64.51,8.75-2.19,9.59-7.03Zm-1.64,45.34c2.09-2.82,2.66-5.89.99-9.13-2.03-3.96-5.6-5.19-9.73-5.2-20.77-.02-41.54-.05-62.31.01-6.91.01-10.95,3.49-10.92,9.05.03,5.62,3.91,8.8,11.04,8.84,10.22.07,20.45.02,30.67.02s21.09-.02,31.64.01c3.4,0,6.48-.71,8.62-3.6Zm-31.67-44.91c.87-3.33.66-6.76.67-10.59-.1-3.12.34-6.72-.68-10.21-1.25-4.28-4.77-6.77-9.09-6.46-4.31.31-7.7,3.28-7.92,7.77-.3,6.15-.3,12.33.02,18.47.22,4.43,3.75,7.43,8.03,7.65,4.35.23,7.85-2.34,8.97-6.63Zm-33.11-10.38c0-2.92.15-5.84-.03-8.74-.3-4.8-3.92-8.23-8.48-8.28-4.55-.05-8.44,3.37-8.62,8.1-.23,5.98-.25,11.99.01,17.96.21,4.87,3.97,8.06,8.68,7.98,4.53-.07,7.98-3.15,8.36-7.8.25-3.06.05-6.15.05-9.22h.03Z"/>
    <path class="cls-3" d="m441.36,328.02c.11,0,.22,0,.33.01-.21,3.22-.14,6.5-.71,9.66-.89,4.9-4.72,7.68-9.37,7.32-4.43-.35-7.7-3.55-7.89-8.36-.24-5.66-.24-11.35-.01-17.02.19-4.99,3.61-8.27,8.28-8.52,4.42-.23,7.86,2.52,9.01,7.22.15.63.34,1.27.35,1.91.04,2.59,0,5.18,0,7.78Z"/>
    <path class="cls-3" d="m408.48,328.36c-.23,3.26-.05,6.51-.83,9.7-1.13,4.6-4.68,7.27-9.19,6.95-4.45-.31-7.74-3.51-7.92-8.28-.21-5.83-.23-11.67.02-17.49.21-4.76,3.56-7.86,8.08-8.12s8.18,2.44,8.98,7.1c.58,3.33.6,6.76.86,10.14Z"/>
    <path class="cls-2" d="m407.08,139.18c4.38,13.52,4.45,13.5-9.6,13.5h-51.4c-.05-.27-.1-.54-.15-.82,5.53-1.54,11.06-3.09,16.59-4.62,13.11-3.62,26.25-7.12,39.31-10.9,3.11-.9,4.3-.11,5.25,2.84Z"/>
    <path class="cls-2" d="m400.11,113.71c1.15,3.38.22,4.83-3.3,5.77-18.64,4.98-37.22,10.22-55.82,15.36-20.16,5.57-40.32,11.13-60.49,16.68-1.56.42-3.16,1.01-4.74,1.01-25.93.07-51.86.05-77.79.05-.04-.22-.09-.43-.13-.65,9.91-2.78,19.81-5.59,29.74-8.33,54.07-14.94,108.17-29.8,162.2-44.9,4.65-1.3,6.47-.28,7.31,4.25.68,3.65,1.81,7.24,3.02,10.76Z"/>
    <path class="cls-2" d="m389.52,75.56c1.31,3.81.01,5.03-3.6,6-23.81,6.43-47.55,13.1-71.32,19.67-60.21,16.63-120.44,33.2-180.62,49.97-6.28,1.75-12.54,1.56-18.82,1.42-10.66-.23-20.43,1.43-27.5,10.47-1.05,1.34-2.77,1.6-4.33,2.03-18.45,5.12-36.92,10.15-55.33,15.42-3.82,1.1-5.58.41-6.37-3.64-1.12-5.72-3.42-11.17-3.93-15.18-.42-7.14,2.9-9.22,7.39-10.45,21.9-5.99,43.8-12.02,65.69-18.07,93.2-25.77,186.39-51.55,279.59-77.31,1.87-.51,3.76-1.02,5.68-1.28,4.74-.66,7.88,1.42,9.23,5.97,1.48,4.97,2.55,10.08,4.24,14.98Z"/>
    <path class="cls-3" d="m374.4,318.67c.27,6.3.3,12.63-.04,18.93-.25,4.52-4.16,7.53-8.68,7.43-4.33-.1-7.63-3.03-8.3-7.38-.04-.32-.07-.64-.07-.96-.01-2.92,0-5.83,0-8.75h.03c0-3.07-.2-6.16.05-9.22.37-4.46,4.11-7.72,8.48-7.73,4.36-.02,8.34,3.25,8.53,7.68Z"/>
    <path class="cls-3" d="m324.73,328.17c0,2.92.19,5.85-.04,8.75-.35,4.53-3.47,7.65-7.68,8.08-4.46.46-8.54-2.08-9.39-6.63-1.29-6.88-1.33-13.9.04-20.77.88-4.38,4.76-6.81,9.03-6.46,4.3.35,7.54,3.34,7.96,7.8.28,3.05.05,6.15.05,9.23h.03Z"/>
    <path class="cls-3" d="m324.72,377.82c.08,5.68-4.32,9.04-11.96,9.07-10.06.02-20.13,0-30.19,0-10.56-.01-21.11.07-31.66-.04-6.08-.06-10.2-3.72-10.29-8.79-.1-5.34,4.2-9.02,11.04-9.07,12.98-.1,25.97-.04,38.96-.04,7.3,0,14.61-.02,21.92,0,7.74.03,12.1,3.23,12.18,8.87Z"/>
    <path class="cls-3" d="m291.55,319.81c.18,2.74.03,5.51.03,8.27h-.02c0,2.76.18,5.53-.04,8.27-.42,5.24-3.96,8.64-8.72,8.69-4.56.04-8.47-3.09-8.82-8.03-.42-5.97-.45-12.02.04-17.98.44-5.26,4.48-8.25,9.34-7.9,4.64.33,7.85,3.62,8.19,8.68Z"/>
    <path class="cls-3" d="m258.38,328.36c0,2.59.18,5.2-.03,7.77-.45,5.44-4.17,8.99-9.06,8.91-4.68-.09-8.39-3.57-8.66-8.78-.28-5.49-.3-11.03.03-16.52.32-5.3,3.98-8.62,8.74-8.65,4.77-.03,8.37,3.26,8.89,8.52.29,2.89.05,5.83.05,8.75h.04Z"/>
    <path class="cls-3" d="m216.61,227.61c.14,8.76.15,17.52,0,26.28-.24,13.41-11.04,24.37-24.49,24.79-7.13.23-14.27.04-21.41.04v.02c-6.81,0-13.63.07-20.44-.01-15.04-.19-25.76-10.91-25.85-25.82-.06-8.43-.09-16.87.01-25.3.17-12.84,9.79-23.51,22.5-24.45,15.69-1.16,31.44-1.22,47.13.02,12.84,1.02,22.36,11.58,22.56,24.43Zm-17.88,24.89c.14-7.78.14-15.56,0-23.34-.1-5.85-2.85-8.68-8.72-8.75-12.97-.14-25.94-.12-38.91-.01-5.61.05-8.86,2.62-9.13,8.03-.41,8.24-.39,16.53.07,24.77.31,5.34,3.3,7.5,8.83,7.58,6.48.09,12.97.02,19.45.02s13.3.08,19.94-.03c5.84-.09,8.36-2.49,8.47-8.27Z"/>
    <path class="cls-3" d="m208.09,318.1c1.08,6.58,1.11,13.29-.04,19.86-.84,4.84-4.95,7.54-9.59,7.03-4.38-.48-7.37-3.75-7.66-8.63-.17-2.75-.03-5.52-.03-8.28h.02c0-2.92-.19-5.86.05-8.76.38-4.74,3.64-7.88,8.13-8.19,4.56-.33,8.34,2.2,9.12,6.97Z"/>
    <path class="cls-3" d="m207.4,374.17c1.67,3.24,1.1,6.31-.99,9.13-2.14,2.89-5.22,3.6-8.62,3.6-10.55-.03-21.09-.01-31.64-.01s-20.45.05-30.67-.02c-7.13-.04-11.01-3.22-11.04-8.84-.03-5.56,4.01-9.04,10.92-9.05,20.77-.06,41.54-.03,62.31-.01,4.13.01,7.7,1.24,9.73,5.2Z"/>
    <path class="cls-2" d="m198.73,229.16c.14,7.78.14,15.56,0,23.34-.11,5.78-2.63,8.18-8.47,8.27-6.64.11-13.29.03-19.94.03s-12.97.07-19.45-.02c-5.53-.08-8.52-2.24-8.83-7.58-.46-8.24-.48-16.53-.07-24.77.27-5.41,3.52-7.98,9.13-8.03,12.97-.11,25.94-.13,38.91.01,5.87.07,8.62,2.9,8.72,8.75Z"/>
    <path class="cls-3" d="m175.41,327.8c-.01,3.83.2,7.26-.67,10.59-1.12,4.29-4.62,6.86-8.97,6.63-4.28-.22-7.81-3.22-8.03-7.65-.32-6.14-.32-12.32-.02-18.47.22-4.49,3.61-7.46,7.92-7.77,4.32-.31,7.84,2.18,9.09,6.46,1.02,3.49.58,7.09.68,10.21Z"/>
    <path class="cls-3" d="m141.6,319.27c.18,2.9.03,5.82.03,8.74h-.03c0,3.07.2,6.16-.05,9.22-.38,4.65-3.83,7.73-8.36,7.8-4.71.08-8.47-3.11-8.68-7.98-.26-5.97-.24-11.98-.01-17.96.18-4.73,4.07-8.15,8.62-8.1,4.56.05,8.18,3.48,8.48,8.28Z"/>
    <path class="cls-2" d="m78.27,184.86c3.52-1,4.43.31,4.31,3.47-.08,2.27-.01,4.54-.01,6.81-.24,13.01,1.97,10.51-10.68,14.05-11.24,3.15-22.51,6.21-33.72,9.46-3.26.94-5.1.58-5.85-3.19-.85-4.28-2.14-8.49-3.48-12.66-.99-3.06-.03-4.29,3.02-5.1,15.51-4.15,30.98-8.44,46.41-12.84Z"/>
    <path class="cls-2" d="m82.57,351.14c0,11.05.03,22.09-.02,33.13-.01,1.56.45,3.21-.66,5.02-2.26-1.6-2.5-3.78-3.05-5.77-13.07-47.24-26.09-94.48-39.26-141.69-1.06-3.81-.5-5.39,3.57-6.4,11.17-2.78,22.23-6.03,33.33-9.11,5.93-1.65,6.09-1.58,6.09,4.49.01,40.11,0,80.22,0,120.33Z"/>
  </g>
  <g>
    <path class="cls-1" d="m290.87,418.77c59.77,0,119.53,0,179.29-.01,9.32,0,11.81-2.42,11.81-11.81.02-74.87.02-149.73,0-224.6,0-9.25-2.61-11.74-11.94-11.75H112.43c-10.11.01-11.92,1.81-11.92,11.9v224.11c0,10.69,1.46,12.15,12.05,12.15,59.44.01,118.88.01,178.31.01Z"/>
    <path class="cls-1" d="m17.7,161.72c.51,4.01,2.81,9.46,3.93,15.18.79,4.05,2.55,4.74,6.37,3.64,18.41-5.27,36.88-10.3,55.33-15.42,1.56-.43,3.28-.69,4.33-2.03,7.07-9.04,16.84-10.7,27.5-10.47,6.28.14,12.54.33,18.82-1.42,60.18-16.77,120.41-33.34,180.62-49.97,23.77-6.57,47.51-13.24,71.32-19.67,3.61-.97,4.91-2.19,3.6-6-1.69-4.9-2.76-10.01-4.24-14.98-1.35-4.55-4.49-6.63-9.23-5.97-1.92.26-3.81.77-5.68,1.28-93.2,25.76-186.39,51.54-279.59,77.31-21.89,6.05-43.79,12.08-65.69,18.07-4.49,1.23-7.81,3.31-7.39,10.45Z"/>
    <path class="cls-1" d="m81.89,389.29c1.11-1.81.65-3.46.66-5.02.05-11.04.02-22.08.02-33.13,0-40.11.01-80.22,0-120.33,0-6.07-.16-6.14-6.09-4.49-11.1,3.08-22.16,6.33-33.33,9.11-4.07,1.01-4.63,2.59-3.57,6.4,13.17,47.21,26.19,94.45,39.26,141.69.55,1.99.79,4.17,3.05,5.77Z"/>
    <path class="cls-1" d="m197.84,151.93c.04.22.09.43.13.65,25.93,0,51.86.02,77.79-.05,1.58,0,3.18-.59,4.74-1.01,20.17-5.55,40.33-11.11,60.49-16.68,18.6-5.14,37.18-10.38,55.82-15.36,3.52-.94,4.45-2.39,3.3-5.77-1.21-3.52-2.34-7.11-3.02-10.76-.84-4.53-2.66-5.55-7.31-4.25-54.03,15.1-108.13,29.96-162.2,44.9-9.93,2.74-19.83,5.55-29.74,8.33Z"/>
    <path class="cls-1" d="m82.57,195.14c0-2.27-.07-4.54.01-6.81.12-3.16-.79-4.47-4.31-3.47-15.43,4.4-30.9,8.69-46.41,12.84-3.05.81-4.01,2.04-3.02,5.1,1.34,4.17,2.63,8.38,3.48,12.66.75,3.77,2.59,4.13,5.85,3.19,11.21-3.25,22.48-6.31,33.72-9.46,12.65-3.54,10.44-1.04,10.68-14.05Z"/>
    <path class="cls-1" d="m345.93,151.86c.05.28.1.55.15.82h51.4c14.05,0,13.98.02,9.6-13.5-.95-2.95-2.14-3.74-5.25-2.84-13.06,3.78-26.2,7.28-39.31,10.9-5.53,1.53-11.06,3.08-16.59,4.62Z"/>
    <path class="cls-1" d="m170.7,278.74c-6.81,0-13.63.07-20.44-.01-15.04-.19-25.76-10.91-25.85-25.82-.06-8.43-.09-16.87.01-25.3.17-12.84,9.79-23.51,22.5-24.45,15.69-1.16,31.44-1.22,47.13.02,12.84,1.02,22.36,11.58,22.56,24.43.14,8.76.15,17.52,0,26.28-.24,13.41-11.04,24.37-24.49,24.79-7.13.23-14.27.04-21.41.04v.02Z"/>
    <path class="cls-1" d="m170.32,260.8c6.65,0,13.3.08,19.94-.03,5.84-.09,8.36-2.49,8.47-8.27.14-7.78.14-15.56,0-23.34-.1-5.85-2.85-8.68-8.72-8.75-12.97-.14-25.94-.12-38.91-.01-5.61.05-8.86,2.62-9.13,8.03-.41,8.24-.39,16.53.07,24.77.31,5.34,3.3,7.5,8.83,7.58,6.48.09,12.97.02,19.45.02Z"/>
    <path class="cls-1" d="m282.57,386.89c-10.56-.01-21.11.07-31.66-.04-6.08-.06-10.2-3.72-10.29-8.79-.1-5.34,4.2-9.02,11.04-9.07,12.98-.1,25.97-.04,38.96-.04,7.3,0,14.61-.02,21.92,0,7.74.03,12.1,3.23,12.18,8.87.08,5.68-4.32,9.04-11.96,9.07-10.06.02-20.13,0-30.19,0Z"/>
    <path class="cls-1" d="m166.15,386.89c-10.22,0-20.45.05-30.67-.02-7.13-.04-11.01-3.22-11.04-8.84-.03-5.56,4.01-9.04,10.92-9.05,20.77-.06,41.54-.03,62.31-.01,4.13.01,7.7,1.24,9.73,5.2,1.67,3.24,1.1,6.31-.99,9.13-2.14,2.89-5.22,3.6-8.62,3.6-10.55-.03-21.09-.01-31.64-.01Z"/>
    <path class="cls-1" d="m190.79,328.08c0-2.92-.19-5.86.05-8.76.38-4.74,3.64-7.88,8.13-8.19,4.56-.33,8.34,2.2,9.12,6.97,1.08,6.58,1.11,13.29-.04,19.86-.84,4.84-4.95,7.54-9.59,7.03-4.38-.48-7.37-3.75-7.66-8.63-.17-2.75-.03-5.52-.03-8.28h.02Z"/>
    <path class="cls-1" d="m291.56,328.08c0,2.76.18,5.53-.04,8.27-.42,5.24-3.96,8.64-8.72,8.69-4.56.04-8.47-3.09-8.82-8.03-.42-5.97-.45-12.02.04-17.98.44-5.26,4.48-8.25,9.34-7.9,4.64.33,7.85,3.62,8.19,8.68.18,2.74.03,5.51.03,8.27h-.02Z"/>
    <path class="cls-1" d="m175.41,327.8c-.01,3.83.2,7.26-.67,10.59-1.12,4.29-4.62,6.86-8.97,6.63-4.28-.22-7.81-3.22-8.03-7.65-.32-6.14-.32-12.32-.02-18.47.22-4.49,3.61-7.46,7.92-7.77,4.32-.31,7.84,2.18,9.09,6.46,1.02,3.49.58,7.09.68,10.21Z"/>
    <path class="cls-1" d="m324.73,328.17c0,2.92.19,5.85-.04,8.75-.35,4.53-3.47,7.65-7.68,8.08-4.46.46-8.54-2.08-9.39-6.63-1.29-6.88-1.33-13.9.04-20.77.88-4.38,4.76-6.81,9.03-6.46,4.3.35,7.54,3.34,7.96,7.8.28,3.05.05,6.15.05,9.23h.03Z"/>
    <path class="cls-1" d="m441.69,328.03c-.21,3.22-.14,6.5-.71,9.66-.89,4.9-4.72,7.68-9.37,7.32-4.43-.35-7.7-3.55-7.89-8.36-.24-5.66-.24-11.35-.01-17.02.19-4.99,3.61-8.27,8.28-8.52,4.42-.23,7.86,2.52,9.01,7.22.15.63.34,1.27.35,1.91.04,2.59,0,5.18,0,7.78.11,0,.22,0,.33.01Z"/>
    <path class="cls-1" d="m258.38,328.36c0,2.59.18,5.2-.03,7.77-.45,5.44-4.17,8.99-9.06,8.91-4.68-.09-8.39-3.57-8.66-8.78-.28-5.49-.3-11.03.03-16.52.32-5.3,3.98-8.62,8.74-8.65,4.77-.03,8.37,3.26,8.89,8.52.29,2.89.05,5.83.05,8.75h.04Z"/>
    <path class="cls-1" d="m408.48,328.36c-.23,3.26-.05,6.51-.83,9.7-1.13,4.6-4.68,7.27-9.19,6.95-4.45-.31-7.74-3.51-7.92-8.28-.21-5.83-.23-11.67.02-17.49.21-4.76,3.56-7.86,8.08-8.12s8.18,2.44,8.98,7.1c.58,3.33.6,6.76.86,10.14Z"/>
    <path class="cls-1" d="m141.6,328.01c0,3.07.2,6.16-.05,9.22-.38,4.65-3.83,7.73-8.36,7.8-4.71.08-8.47-3.11-8.68-7.98-.26-5.97-.24-11.98-.01-17.96.18-4.73,4.07-8.15,8.62-8.1,4.56.05,8.18,3.48,8.48,8.28.18,2.9.03,5.82.03,8.74h-.03Z"/>
    <path class="cls-1" d="m357.34,327.94c0-3.07-.2-6.16.05-9.22.37-4.46,4.11-7.72,8.48-7.73,4.36-.02,8.34,3.25,8.53,7.68.27,6.3.3,12.63-.04,18.93-.25,4.52-4.16,7.53-8.68,7.43-4.33-.1-7.63-3.03-8.3-7.38-.04-.32-.07-.64-.07-.96-.01-2.92,0-5.83,0-8.75h.03Z"/>
  </g>
</svg>