<?xml version="1.0" encoding="UTF-8"?>
<svg id="Layer_1" data-name="Layer 1" xmlns="http://www.w3.org/2000/svg" viewBox="0 0 512 512">
  <defs>
    <style>
      .cls-1, .cls-2 {
        stroke-width: 0px;
      }

      .cls-2 {
        fill: none;
      }
    </style>
  </defs>
  <line class="cls-2" x1="465.68" y1="419.52" x2="465.61" y2="419.75"/>
  <path class="cls-1" d="m468.89,208.74v-.43h-107.83c-17,0-33.13,8.21-44.24,22.52l-.25.32c-13.06,16.93-20.24,38.72-20.24,61.39s7.18,44.46,20.23,61.37l.23.31c11.11,14.33,27.25,22.56,44.27,22.56h113.48c9.51-3.09,16.39-12.03,16.39-22.58v-121.79c0-12.54-9.72-22.81-22.04-23.67Zm-57.36,113.48c-8,7.93-18.82,12.35-30.08,12.29-23.28-.21-41.99-19.22-41.85-42.5.15-23.29,19.1-42.06,42.38-41.99,23.28.07,42.12,18.96,42.12,42.25-.05,11.25-4.57,22.03-12.57,29.95Zm-102.64,38.13l-.25-.34c-14.39-18.64-22.31-42.61-22.31-67.47s7.92-48.83,22.31-67.48l.29-.37c13.01-16.76,32.02-26.38,52.13-26.38h107.79c-.97-28.82-22.69-52.82-51.44-56.51v-31.18c-.34-32.46-26.73-58.61-59.19-58.65H83.88c-34.14-.13-62.09,27.13-62.8,61.27v288.17c.34,32.46,26.74,58.6,59.2,58.62h329.41c32.46-.03,58.85-26.17,59.2-58.62v-14.63h-107.83c-20.14,0-39.15-9.64-52.17-26.43ZM57.1,114.24c.16-14.67,12.09-26.49,26.76-26.51h273.84c6.14-.03,12.04,2.37,16.4,6.69,4.37,4.31,6.83,10.19,6.8,16.33v30.59H83.88c-14.81-.24-26.71-12.28-26.77-27.1Z"/>
</svg>