<?xml version="1.0" encoding="UTF-8"?>
<svg id="Layer_1" data-name="Layer 1" xmlns="http://www.w3.org/2000/svg" viewBox="0 0 512 512">
  <defs>
    <style>
      .cls-1 {
        stroke-width: 0px;
      }
    </style>
  </defs>
  <path class="cls-1" d="m103.2,355.84c11.73,18.59,26.59,33.8,44.33,45.93,43.82,29.96,91.99,41.21,144.29,30.85,50.47-10,90.56-36.47,119.63-79.16,11.68-17.16,20.12-35.84,25.73-55.84,2.83-10.1,8.77-17.39,19.66-19.35,9.59-1.72,17.41,1.69,23.4,9.13,5.56,6.89,6.03,14.82,3.63,23.02-5.9,20.17-13.57,39.51-24.4,57.7-13.41,22.51-29.49,42.75-49.68,59.31-66.29,54.36-141.01,70.51-223.45,46.42-52.36-15.3-93.49-46.89-124.85-91.36q-3.66-5.19-6.87-.02c-7.67,12.3-21.97,16.73-33.34,10.34-11.67-6.56-15.91-20.7-9.41-33.59,10.27-20.37,20.75-40.64,31.55-60.73,7.06-13.13,20.61-17.52,33.94-10.87,20.58,10.26,40.99,20.88,61.23,31.79,12.66,6.82,17.17,21.23,11.15,33.03-6.09,11.92-20.63,16.25-33.87,9.96-4.29-2.04-8.44-4.35-12.65-6.54Z"/>
  <path class="cls-1" d="m408.73,141.12c-6.46-11.24-14.7-20.73-23.95-29.31-66.2-61.42-163.34-68.34-237.34-16.55-36.65,25.65-60.02,60.94-72.74,103.6-4.11,13.79-17.35,20.82-30.75,16.66-12.53-3.89-19.23-17.35-15.34-30.65,19.52-66.77,60.1-116.5,122.24-147.55,57.79-28.88,118.15-32.92,179.6-12.82,50.24,16.44,90.16,47.17,120.29,90.56,2.66,3.84,3.79,4.42,6.46-.11,8.73-14.85,25.97-18.05,37.94-7.42,8.21,7.29,10.57,18.97,5.12,29.81-10.33,20.54-20.88,40.99-31.79,61.23-7.07,13.11-20.68,17.4-33.98,10.74-20.56-10.3-40.98-20.88-61.22-31.81-12.64-6.82-17.11-21.33-11.01-33.06,6.1-11.73,20.36-16.09,33.41-10.06,4.45,2.05,8.72,4.49,13.08,6.75Z"/>
  <path class="cls-1" d="m239.84,279.38c8.62,0,17.25.07,25.87-.02,7.08-.08,11.38-4.09,11.26-10.22-.12-5.94-4.31-9.59-11.18-9.82-8.78-.29-17.56.4-26.34-.65-25.44-3.02-45.68-22.6-48.53-47.23-3.02-26.03,11.61-50.02,36.36-58.45,5.35-1.82,6.58-4.35,6.41-9.39-.21-6.22-.7-12.51.52-18.71,2.19-11.09,10.66-18.2,21.73-18.21,11.11-.01,19.62,7.05,21.82,18.1,1.3,6.54.56,13.15.6,19.73.02,3.7,1.34,5.2,5.07,5.06,4.9-.18,9.81-.15,14.71,0,13.76.41,23.15,9.57,23.14,22.43-.01,12.74-9.55,22.13-23.25,22.31-17.24.23-34.5.11-51.74.06-4.19-.01-7.67,1.15-9.87,4.94-3.86,6.64.45,14.6,8.26,15.06,9.27.55,18.57-.38,27.86.73,25.46,3.04,45.64,22.56,48.53,47.22,3.05,25.99-11.59,50.01-36.36,58.46-5.35,1.83-6.67,4.35-6.38,9.4.32,5.55.41,11.2-.25,16.71-1.53,12.84-10.97,20.69-23.58,20.2-11.41-.44-20.17-9.61-20.84-22.12-.29-5.4-.18-10.82-.08-16.23.06-3.26-1.33-4.57-4.55-4.5-4.9.11-9.81.1-14.71,0-14.1-.31-23.63-9.42-23.61-22.48.02-13.03,9.59-22.1,23.76-22.32,8.45-.13,16.91-.02,25.36-.02v-.02Z"/>
</svg>