<?xml version="1.0" encoding="UTF-8"?>
<svg id="Layer_1" data-name="Layer 1" xmlns="http://www.w3.org/2000/svg" viewBox="0 0 512 512">
  <defs>
    <style>
      .cls-1, .cls-2 {
        stroke-width: 0px;
      }

      .cls-2 {
        fill: none;
      }
    </style>
  </defs>
  <line class="cls-2" x1="489.79" y1="434.72" x2="489.72" y2="434.95"/>
  <g>
    <path class="cls-1" d="m176.9,177.14H40.62V40.89h136.26v136.26h.01Zm-116.58-19.68h96.9V60.56H60.32v96.9Z"/>
    <rect class="cls-1" x="81.63" y="81.88" width="54.28" height="54.28"/>
    <path class="cls-1" d="m465.34,177.14h-136.27V40.89h136.27v136.26Zm-116.58-19.68h96.9V60.56h-96.9v96.9Z"/>
    <rect class="cls-1" x="370.07" y="81.88" width="54.28" height="54.28"/>
    <path class="cls-1" d="m471.38,471.11h-136.27v-136.27h136.27v136.27Zm-116.58-19.68h96.9v-96.9h-96.9v96.9Z"/>
    <rect class="cls-1" x="376.11" y="375.85" width="54.28" height="54.28"/>
    <path class="cls-1" d="m184.94,471.11H48.68v-136.27h136.26v136.27h0Zm-116.58-19.68h96.9v-96.9h-96.9s0,96.9,0,96.9Z"/>
    <rect class="cls-1" x="89.67" y="375.85" width="54.28" height="54.28"/>
    <polygon class="cls-1" points="351.23 238.21 293.14 238.21 293.14 174.13 204.21 174.13 204.21 45.95 223.88 45.95 223.88 154.45 312.83 154.45 312.83 218.53 351.23 218.53 351.23 238.21"/>
    <polygon class="cls-1" points="312.07 127.4 247.21 127.4 247.21 107.72 292.39 107.72 292.39 45.95 312.07 45.95 312.07 127.4"/>
    <rect class="cls-1" x="43.69" y="218.53" width="123.37" height="19.68"/>
    <rect class="cls-1" x="376.11" y="218.53" width="92.72" height="19.68"/>
    <rect class="cls-1" x="204.23" y="218.53" width="64.08" height="19.68"/>
    <rect class="cls-1" x="50.48" y="268.27" width="17.34" height="19.68"/>
    <polygon class="cls-1" points="271.36 344.7 251.69 344.7 251.69 284.94 97.21 284.94 97.21 265.26 271.36 265.26 271.36 344.7"/>
    <rect class="cls-1" x="289.42" y="261.49" width="24.13" height="19.68"/>
    <rect class="cls-1" x="338.92" y="261.49" width="129.9" height="19.68"/>
    <polygon class="cls-1" points="312.07 465.85 261.52 465.85 261.52 446.16 292.39 446.16 292.39 315.8 312.07 315.8 312.07 465.85"/>
    <polygon class="cls-1" points="223.88 456 204.21 456 204.21 376.06 272.6 376.06 272.6 395.75 223.88 395.75 223.88 456"/>
  </g>
</svg>