<?xml version="1.0" encoding="UTF-8"?>
<svg id="Layer_1" data-name="Layer 1" xmlns="http://www.w3.org/2000/svg" viewBox="0 0 512 512">
  <defs>
    <style>
      .cls-1, .cls-2 {
        stroke-width: 0px;
      }

      .cls-2 {
        fill: #fff;
      }
    </style>
  </defs>
  <path class="cls-1" d="m246.09,391.15c57.12,16.58,114.23,33.16,171.35,49.74,1.78.52,3.57,1.08,5.39,1.43,7.16,1.36,11.23-.72,13.26-6.86,15.69-47.48,31.36-94.96,47.01-142.45,2.3-6.98-1.95-12.47-10.19-13.51-1.79-.23-2.73.36-3.27,1.69-.53,1.31-.98,2.64-1.42,3.98-13.31,40.32-26.68,80.62-39.87,120.97-2.35,7.2-7.02,11.59-15.56,12.41-2.94.28-5.68-.59-8.42-1.38-12.78-3.68-25.54-7.4-38.31-11.1-98.03-28.46-196.07-56.92-294.1-85.37-7.37-2.14-7.97-1.83-9.45,4.73-2.18,9.66-.39,12.33,10.56,15.51,57.66,16.75,115.33,33.48,173,50.23Z"/>
  <path class="cls-1" d="m230.73,359.79c58.06,16.86,116.13,33.71,174.2,50.57,9.96,2.89,13.78,1.1,16.73-7.83,15.27-46.26,30.41-92.56,45.91-138.75,3.18-9.49-1.89-13.56-10.68-15.82-2.34-.6-3.85-.2-4.46,2.07-.56,2.09-1.35,4.13-2.03,6.19-13.02,39.46-26.05,78.92-39.06,118.38-1.7,5.17-4.43,9.57-10.21,11.83-3.59,1.41-7.32,1.92-11.25.84-2.2-.61-4.42-1.2-6.61-1.84-108.86-31.6-217.71-63.2-326.57-94.79-7.84-2.28-8.68-1.81-9.84,5.44-1.3,8.09.35,10.43,9.27,13.02,58.2,16.9,116.4,33.79,174.61,50.69Z"/>
  <path class="cls-1" d="m449.61,233.14c2.95-8.93.75-12.68-9.38-15.62-35.69-10.39-71.39-20.74-107.08-31.1-79.77-23.15-159.53-46.3-239.29-69.48-5.73-1.67-11.24-2.69-15.8,1.81-16.6,50.29-33.19,100.57-49.79,150.86,1.31,4.73,4.71,7.27,9.91,8.77,116.58,33.76,233.13,67.62,349.69,101.45,9.01,2.6,13.08.74,15.69-7.17,15.36-46.5,30.71-93.01,46.05-139.52Zm-225.98,64.72c-26.6-6.73-50.13-34.26-40.11-65.92,8.66-27.4,42.09-42.52,72.8-33.58,30.55,8.89,49.06,38.98,39.89,65.97-10.77,31.71-46.72,41.87-72.58,33.53Z"/>
  <g>
    <path class="cls-2" d="m256.32,198.36c30.55,8.89,49.06,38.98,39.89,65.97-10.77,31.71-46.72,41.87-72.58,33.53-26.6-6.73-50.13-34.26-40.11-65.92,8.66-27.4,42.09-42.52,72.8-33.58Zm-1.9,72.11c.82-1.84,1.14-3.89-1.19-5.15-2.44-1.32-4.03.19-5.31,1.78-2.08,2.58-4.13,5.14-8.06,5.61-2.44.29-4.11-.17-3.24-2.86,1.67-5.11,3.42-10.19,5.01-15.3.71-2.23,2.55-2.35,4.65-2.4,6.79-.14,12.58-2.17,16.36-7.32,5.53-7.55,3.32-17.56-5.29-23.19-2.73-1.77-4.11-3.35-2.88-6.31.77-1.89.09-3.6-2.31-4.33-2.38-.72-4.09.25-4.55,2.24-.78,3.38-3.17,3.76-6.56,3.76-7.35.02-14.1,4.05-15.83,8.97-.67,1.9-1.12,3.83,1.36,5.08,2.51,1.27,4-.1,5.28-1.78,2-2.67,4.25-5.02,8.19-5.44,2.43-.26,3.69.46,2.97,2.78-.82,2.68-1.76,5.35-2.63,8.02h.04c-.27.86-.69,1.7-.82,2.57-.74,5.24-3.38,7.65-9.96,7.55-7.46-.1-12.7,4.92-14.75,12.09-2.06,7.2.48,13.23,7.06,17.75,2.88,2,4.55,3.65,3.13,6.94-.84,1.93.23,3.54,2.61,4.14,2.17.54,3.88-.31,4.24-2.15.73-3.75,3.37-4.05,7.05-4.19,6.92-.27,12.69-2.71,15.44-8.85Z"/>
    <path class="cls-1" d="m253.23,265.32c2.33,1.26,2.01,3.31,1.19,5.15-2.76,6.13-8.52,8.58-15.44,8.85-3.68.14-6.32.45-7.05,4.19-.36,1.85-2.07,2.69-4.24,2.15-2.37-.6-3.44-2.2-2.61-4.14,1.42-3.29-.25-4.94-3.13-6.94-6.58-4.52-9.12-10.55-7.06-17.75,2.05-7.17,7.29-12.19,14.75-12.09,6.58.1,9.22-2.31,9.96-7.55.12-.87.55-1.71.82-2.56h-.04c.88-2.68,1.81-5.34,2.63-8.03.71-2.32-.54-3.04-2.97-2.78-3.94.42-6.19,2.77-8.19,5.44-1.27,1.68-2.76,3.04-5.28,1.78-2.48-1.25-2.03-3.18-1.36-5.08,1.73-4.92,8.49-8.95,15.83-8.97,3.39,0,5.79-.38,6.56-3.76.46-1.99,2.17-2.96,4.55-2.24,2.4.72,3.09,2.44,2.31,4.33-1.23,2.96.15,4.54,2.88,6.31,8.6,5.63,10.82,15.64,5.29,23.19-3.78,5.15-9.56,7.18-16.36,7.32-2.1.05-3.94.17-4.65,2.4-1.6,5.12-3.35,10.2-5.01,15.3-.87,2.69.8,3.15,3.24,2.86,3.94-.47,5.98-3.03,8.06-5.61,1.28-1.59,2.87-3.1,5.31-1.78Z"/>
  </g>
  <path class="cls-2" d="m231.76,260.79c.76-2.3,1.53-4.59,2.27-6.9.69-2.14-.41-2.9-2.66-2.54-4.31.69-7.63,2.52-9.03,6.45-1.37,3.84-.14,7.88,3.09,10.54,2.18,1.79,3.46,1.39,4.2-1,.68-2.19,1.43-4.36,2.15-6.54h-.02Z"/>
  <path class="cls-2" d="m257.39,238.42c1.21-3.84.16-7.36-3.17-10.38-1.78-1.62-3.26-1.55-4.03.72-1.51,4.45-2.96,8.92-4.44,13.38-.85,2.59.57,3.23,3.11,2.87,4.28-.62,7.13-2.73,8.52-6.59Z"/>
</svg>