<?xml version="1.0" encoding="UTF-8"?>
<svg id="Layer_1" data-name="Layer 1" xmlns="http://www.w3.org/2000/svg" viewBox="0 0 512 512">
  <defs>
    <style>
      .cls-1 {
        opacity: .74;
      }

      .cls-2 {
        stroke-width: 0px;
      }
    </style>
  </defs>
  <g class="cls-1">
    <g>
      <polygon class="cls-2" points="354.84 133.87 355.26 137.08 350.45 138.07 349.81 144.91 355.57 144.91 363.23 144.17 367.18 139.47 362.98 137.83 360.68 135.18 357.22 129.59 355.57 121.67 349.07 122.99 347.25 125.78 347.25 128.93 350.38 131.07 354.84 133.87"/>
      <polygon class="cls-2" points="349.3 136.5 349.65 132.22 345.83 130.57 340.5 131.81 336.55 138.15 336.55 142.27 341.16 142.27 349.3 136.5"/>
      <path class="cls-2" d="m239.53,154.69l-1.17,3.02h-5.68v2.93h1.35s.08.62.2,1.44l3.48-.29,2.18-1.35.57-2.73,2.82-.24,1.11-2.29-2.59-.53-2.27.04Z"/>
      <polygon class="cls-2" points="229.21 159.66 228.78 162.54 228.74 162.54 224.67 162.89 224.89 160.02 226.74 157.72 229.17 159.63 229.21 159.66"/>
      <path class="cls-2" d="m287.76,299.64c-.66,4.62-1.33,9.23-2.01,13.85l4.46-5.66,1.49-6.93-3.94-1.26Zm-34.77-154.79l7.24-2.47.2-4.39.12-2.55-.82-.5-6.75-4.11-.5-11.69-10.38,5.1h-3.79l1-8.89-2.46-.58c-.66,1.14-1.11,2.47-1.35,3.97-1.28,7.99-2.54,15.99-3.77,23.98h2.67l1.98.87,1.72,3.47,2.1-.32v-.3l.6.2,6.08-.93.86-2.97,3.47.87v3.22l-3.21,2.21.47,3.53,11.01,3.4s.01.04.03.13l2.53-.21.17-4.78-8.72-3.97-.5-2.29Zm-11.37,201.26c-3.74,3.14-7.67,6.06-11.54,9.04-10.55,8.12-20.76,16.61-30.46,25.65l-1.01,5.63,6.92,9.23-1.28,15.52,9.15,16.08,11.74,10.26,11.8.21,1.16-3.8-8.68-7.3.5-3.63,1.56-4.44.33-4.54-5.87-.17-2.96-3.72,4.87-4.68.66-3.54-5.44-1.56.32-3.28,7.75-1.18,11.79-5.66,3.95-7.25,5.8-7.42c-2.31-9.3-4.58-18.61-6.71-27.95-.75-3.31-1.79-3.65-4.35-1.5Zm-6.97-196.11l.82-.36-3.65-.52-1.02-.34c-.18,1.2-.36,2.4-.54,3.59l1.06,1.33,3.33-3.7Zm-12.16,105.08l-6.43-3.14-.32,3.47-11.7.69-4.29-5.96-12.2-2.48-9.49,10.97c.88.04,1.77.11,2.66.18,15.5,1.25,31.01,2.5,46.51,3.71l-4.74-7.44Zm-68-164.48c4.92-2.97,9.98-5.7,15.16-8.19h-4.19l-10.97,8.19Zm317.56,161.01c-.06-6.32-.38-12.6-.98-18.78-2-20.59-6.92-40.33-14.3-58.84-.55-1.38-1.06-2.77-1.64-4.13-9.83-23.23-23.64-44.37-40.53-62.62-1.11-1.19-2.24-2.36-3.37-3.52-3.19-3.31-6.47-6.55-9.87-9.65-38.41-34.98-89.43-56.33-145.36-56.33s-107.78,21.73-146.3,57.24c-8.98,8.28-17.23,17.31-24.71,26.98-28.23,36.51-45.08,82.25-45.08,131.88,0,119.16,96.94,216.1,216.1,216.1,48.55,0,93.4-16.11,129.5-43.25-7.36-1.73-14.64-3.8-21.8-6.44-31.03,20.18-68.03,31.91-107.72,31.91-30.02,0-58.5-6.71-84.03-18.7-2.6-1.22-5.17-2.5-7.71-3.83-63.29-33.17-106.57-99.52-106.57-175.79,0-27.53,5.65-53.77,15.83-77.62v-6.18l7.1-8.62c2.46-4.64,5.1-9.18,7.91-13.6l.32,3.6-8.23,10c-2.55,4.83-4.93,9.75-7.09,14.8v11.29l2.32,1.12,5.92,2.85v15.68l7.9,13.49,6.43.98.83-4.62-7.59-11.69-1.48-11.37h4.44l1.88,11.69,10.96,15.99-2.83,5.17,6.97,10.66,17.31,4.28v-2.8l6.92.99-.66,4.94,5.44.99,8.4,2.3,11.87,13.52,6.37.48,8.78.66,1.49,12.37-5.38,3.76-5,3.49-.48,11.04-1.49,6.75,15,18.79.05.29,1.1,6.14s5.44,1.48,6.11,1.48,12.19,8.73,12.19,8.73v33.95l4.12,1.15-1.79,10.04-1.01,5.63,6.92,9.23-1.28,15.52,9.15,16.08,11.74,10.26,11.8.21,1.16-3.8-8.68-7.3.5-3.63,1.56-4.44.33-4.54-5.87-.17-2.96-3.72,4.87-4.68.66-3.54-5.44-1.56.32-3.28,7.75-1.18,11.79-5.66,3.95-7.25,5.8-7.42,6.56-8.4-2.8-12.38,3.79-6.58,11.37.34,7.65-6.06,2.47-23.87,4.03-5.12,4.46-5.66,1.49-6.93-3.94-1.26-3.81-1.22-5.11-8.38-17.46-.18-13.85-5.28-.66-9.87-4.62-8.08-12.52-.19-2.5-3.92-4.74-7.44-6.43-3.14-.32,3.47-11.7.69-4.29-5.96-12.2-2.48-9.49,10.97-.56.65-3.78-.64-12.04-2.05-1.15-17.83-11.55-1.97,4.63-8.75-1.32-5.02-15.17,10.14-9.55-1.16-3.4-7.46,2.08-7.69,5.26-9.69,12.11-6.14h23.4s-.06,7.13-.06,7.13l8.4,3.91-.66-12.19,6.06-6.1,12.23-8.04.84-5.65,12.19-12.69,12.97-7.18-1.15-.95,8.78-8.26,3.22.85.42.52,1.06,1.33,3.33-3.7.82-.36-3.65-.52-1.02-.34-2.69-.89v-3.56l1.96-1.61h4.33l1.98.87,1.72,3.47,2.1-.32v-.3l.6.2,6.08-.93.86-2.97,3.47.87v3.22l-3.21,2.21.47,3.53,11.01,3.4s.01.04.03.13l2.53-.21.17-4.78-8.72-3.97-.5-2.29,7.24-2.47.2-4.39.12-2.55-.82-.5-6.75-4.11-.5-11.69-10.38,5.1h-3.79l1-8.89-2.46-.58-11.67-2.76-5.85,4.42v13.48l-10.52,3.33-4.21,8.78-4.57.74v-11.24l-9.88-1.37-4.95-3.21-1.99-7.28,17.68-10.35,8.65-2.63.87,5.81,4.82-.25.37-2.92,5.04-.72.09-1.02-2.17-.9-.5-3.09,6.2-.53,3.74-3.89.21-.28h.04s1.14-1.16,1.14-1.16l13.02-1.64,5.76,4.88-15.1,8.05,8.12,1.91,11.1,2.62.22-.56,2.26-5.87h8.4l2.97-5.59-5.94-1.49v-7.08l-18.62-8.25-12.85,1.48-7.25,3.8.5,9.22-7.59-1.15-1.16-5.1,7.26-6.6-13.18-.66-3.79,1.15-1.64,4.44,4.94.84-.99,4.94-8.4.5-1.31,3.29-12.19.34s-.33-6.92-.82-6.92c.53-.02,9.55-.17,9.55-.17l7.26-7.09-3.96-1.98-5.27,5.12-8.75-.5-5.27-7.25h-11.21l-10.97,8.19-.72.54h10.72l.97,3.14-2.78,2.59,11.87.33,1.81,4.28-13.36-.5-.65-3.29-8.4-1.82-4.18-2.32-.27-.15-10,.08c32.74-23.85,72.99-37.96,116.5-37.96,50.15,0,95.97,18.74,130.93,49.54l-2.36,4.22-9.14,3.58-3.86,4.18.89,4.88,4.72.66,2.84,7.11,8.14-3.28,1.34,9.51h-2.45l-6.68-.98-7.42,1.24-7.17,10.13-10.26,1.61-1.48,8.78,4.33,1.03-1.25,5.64-10.19-2.04-9.34,2.04-1.98,5.2,1.61,10.92.61.28,4.88,2.28,9.2-.05,6.21-.56,1.89-4.94,9.71-12.61,6.39,1.3,6.29-5.69,1.18,4.45,15.48,10.44-1.89,2.54-6.98-.37,2.68,3.81,4.3.94,5.03-2.1-.11-6.06,2.23-1.12-1.79-1.9-10.33-5.76-2.72-7.66h8.58l2.75,2.72,7.4,6.38.31,7.7,7.66,8.16,2.85-11.18,4.51-2.47.8-.43.3,2.74.69,6.41,4.23,4.63.96,1.06,10.33-.18c2,5.15,3.8,10.38,5.37,15.72l-1.07,1h-15.82l-9.63-7.17-10.14.98v6.19h-3.21l-3.47-2.47-17.56-4.46v-11.37l-22.26,1.73-6.9,3.71h-8.83l-4.33-.44-10.73,5.96v11.21l-16.41,11.84-5.52,3.98,1.83,6.75h4.44l-1.16,6.44-3.13,1.14-.14,13.37-.03,3.45,18.95,21.58h8.25l.5-1.31h14.82l4.28-3.96h8.4l4.62,4.62,12.53,1.3-1.66,16.67,13.91,24.56-7.33,13.99.5,6.6,5.77,5.75v15.86l7.57,10.18v13.18h6.55c-1.51,1.85-3.04,3.67-4.61,5.46.5,3.58,1.59,7.29,3.36,11.17,1.18,2.58,2.26,5.21,3.29,7.86,14.55-15.16,26.9-32.44,36.57-51.31,7.66-14.95,13.62-30.89,17.64-47.59,1.02-4.24,1.9-8.5,2.67-12.81,2.17-12.27,3.37-24.89,3.37-37.77,0-.75-.04-1.49-.05-2.23Zm-282.76-83.41l-2.83,2.84h-6.3l.98-4.32,2.98-.26.61-1.48,4.56-.63v3.85Zm1.49-7.8l-2.97,1.91-3.7.69v-6.55h6.67v3.95Zm5.61-4.57l3.04,1.89-2.43,2-2.4-2,1.79-1.89Zm-4,4.95h.5l7.53,2.22v3.84h-6.3l-1.73-2.49v-3.57Zm-4.95-10.64l4.07,3.71-4.07.99v-4.7Zm-17.31.62l5.7-2.36h7.78v2.36h1.71v4.08h-11.86l-4.44-1.24,1.11-2.84Zm-1.1,10.63l4.57-4.94h6.55l-8.4,11.74-3.47-1.86.75-4.94Zm-6.06-27.94l4.69,1.12-1.62,6.3-5.07,1.61-3.2-6.56,5.2-2.47Zm-11.88-16.68l-9.76.61-1.86-2.22,6.92-1.97s4.33-.74,4.7-.74,0,4.32,0,4.32Zm.17-15.08v3.1l-2.04,2.72h-9.76v-3.97s.01-.36.01-.36h4.33l.38-1.49h7.08Zm248.89,25.84l.04-9.65c3.39,3.6,6.66,7.31,9.79,11.15l-3.89,5.79-13.61-.12-.85-2.84,8.52-4.33Zm35.09,45.95l-3.86.53v-8.77l1.25-1.41c1.65,3.19,3.18,6.44,4.65,9.73l-2.04-.08Zm13.12,35.5l.63-.73c.25,1.12.53,2.24.78,3.38l-1.41-2.65Z"/>
      <path class="cls-2" d="m73.52,170.04v6.19c2.16-5.05,4.54-9.97,7.09-14.8l-7.09,8.61Z"/>
    </g>
  </g>
  <path class="cls-2" d="m343.03,228.31c-9.04-4.56-18.08-9.15-27.17-13.63l-5.52,3.98,1.83,6.75h4.44l-1.16,6.44-3.13,1.14-.14,13.37c5.55.38,11.09.76,16.63,1.13,3.18.21,6.38.27,9.58.24,5.31-.06,9.06-2.45,10.3-7.79,1.23-5.29-.87-9.21-5.66-11.63Zm-64.09,38.22c-15.51-1.38-31.06-2.4-46.59-3.61-1.71-.13-3.41-.27-5.12-.4-15.5-1.21-31.01-2.46-46.51-3.71-.89-.07-1.78-.14-2.66-.18-1.45-.08-2.9-.1-4.34,0-.67.05-1.33.12-1.99.23-2.85.48-5.18,1.52-6.81,3.29-1.22,1.32-2.05,3.04-2.4,5.23-.83,5.11,1.55,8.68,6.07,10.95.41.2.81.41,1.22.61,9.67,4.86,19.28,9.83,29.05,14.47,4.23,2.01,4.94,3.15.92,6.64-7.34,6.37-14.68,12.75-21.89,19.25l1.1,6.14s5.44,1.48,6.11,1.48,12.19,8.73,12.19,8.73v33.95l4.12,1.15-1.79,10.04c9.7-9.04,19.91-17.53,30.46-25.65,3.87-2.98,7.8-5.9,11.54-9.04,2.56-2.15,3.6-1.81,4.35,1.5,2.13,9.34,4.4,18.65,6.71,27.95.31,1.27.62,2.54.94,3.81.77,3.08,1.6,6.21,2.89,9.1,1.76,3.95,5.03,6.12,9.48,5.64,4.58-.49,7.74-2.99,8.53-7.67,2.13-12.77,4.21-25.55,6.12-38.36,1.72-11.53,3.44-23.06,5.11-34.59.68-4.62,1.35-9.23,2.01-13.85.88-6.13,1.75-12.26,2.61-18.4,1.37-9.84-1.74-13.85-11.43-14.71Zm-26.43-153.54c-1.95-2.15-4.6-3.3-7.97-2.92-1.23.14-2.35.43-3.35.86l11.1,2.62.22-.56Zm201.85,302.6c-2.57-6.46-4.94-13.05-8.13-19.19-5.31-10.24-4.14-19.56,1.51-29.34,20.32-35.12,31.84-72.88,31.82-113.67-.01-27.86-5.6-54.82-15.05-81-2.53-7.02-3.27-14.04-2.03-21.56,5.36-32.68-14.18-59.39-47.01-64.06-8.14-1.16-14.82-4.13-21.24-9.23-39.59-31.49-84.13-49.72-143.53-49.4-14.37-.29-36.5,2.53-58.15,8.51-40.63,11.22-74.36,33.71-102.59,64.6-47.47,51.95-65.68,112.98-56.06,182.54,7.11,51.41,29.09,95.15,67.2,130.56,6.16,5.73,9.91,12.43,11.64,20.69,2.42,11.64,8.2,21.5,18.57,27.81,12.43,7.57,26.12,10.29,40.57,8.64,9.77-1.12,19.12-4.11,29.41-.97,16.56,5.04,33.87,6.82,51.18,6.94,31.78.22,62.3-6.32,91.58-18.54,6.93-2.89,13.78-3.54,20.84-1.06,29.38,10.33,59.75,12.31,90.53,10.9,7.34-.33,13.2-3.35,16.12-10.34,2.98-7.15,2.34-14.14-3.16-19.92-6.34-6.67-10.66-14.46-14.02-22.91Zm-37.07,17.05c-10.66-1.74-21.3-3.5-31.78-5.95-7.36-1.73-14.64-3.8-21.8-6.44-.56-.21-1.12-.42-1.68-.63-6.22-2.38-12.5-1.41-18.59,1.43-20.73,9.65-42.24,16.65-65.09,19.18-29.81,3.29-58.85.34-87.05-10.09-2.29-.85-4.56-1.75-6.87-2.53-7.47-2.54-10.76-1.16-12.47,5.85-.11.46-.22.94-.32,1.45-.54,2.73-.43,5.6-.51,8.41-.08,2.6-.02,5.2-.02,8.69-4.22-1.97-5-5.27-5.79-8.34-1.27-4.94-1.57-9.6-1.07-14.04,1.03-9.1,5.47-17.25,12.08-24.84,7.36-8.45,15.14-16.42,23.29-23.99,9.7-9.04,19.91-17.53,30.46-25.65,3.87-2.98,7.8-5.9,11.54-9.04,2.56-2.15,3.6-1.81,4.35,1.5,2.13,9.34,4.4,18.65,6.71,27.95.31,1.27.62,2.54.94,3.81.77,3.08,1.6,6.21,2.89,9.1,1.76,3.95,5.03,6.12,9.48,5.64,4.58-.49,7.74-2.99,8.53-7.67,2.13-12.77,4.21-25.55,6.12-38.36,1.72-11.53,3.44-23.06,5.11-34.59.68-4.62,1.35-9.23,2.01-13.85.88-6.13,1.75-12.26,2.61-18.4,1.37-9.84-1.74-13.85-11.43-14.71-15.51-1.38-31.06-2.4-46.59-3.61-1.71-.13-3.41-.27-5.12-.4-15.5-1.21-31.01-2.46-46.51-3.71-.89-.07-1.78-.14-2.66-.18-1.45-.08-2.9-.1-4.34,0-.67.05-1.33.12-1.99.23-2.85.48-5.18,1.52-6.81,3.29-1.22,1.32-2.05,3.04-2.4,5.23-.83,5.11,1.55,8.68,6.07,10.95.41.2.81.41,1.22.61,9.67,4.86,19.28,9.83,29.05,14.47,4.23,2.01,4.94,3.15.92,6.64-7.34,6.37-14.68,12.75-21.89,19.25-19.03,17.12-37.24,35.06-52.7,55.73q-5.82,7.79-12.1.53c-24.05-27.75-41.01-59.12-45.4-95.88-3.84-32.08-1.46-62.64,8.15-91.06,7.43-21.97,19.19-42.65,35.75-61.78,11.49-13.26,24.28-24.3,38.18-33.3,1.56-1.01,3.13-1.99,4.72-2.95,4.92-2.97,9.98-5.7,15.16-8.19,19.35-9.31,40.43-15.31,62.8-18.41,44.17-6.12,85.08,4.15,122.4,28.55,5.65,3.7,5.63,3.97-.31,6.93-29.41,14.61-56.57,32.71-82.36,52.96-.29.24-.59.47-.88.7q-6.27,4.88-8.04-2.82c-.95-4.11-1.89-8.22-2.83-12.33-.23-1.02-.47-2.04-.7-3.05-.84-3.66-1.69-7.31-2.56-10.96-.61-2.54-1.31-5.12-2.4-7.49-.61-1.34-1.36-2.52-2.26-3.5-1.95-2.15-4.6-3.3-7.97-2.92-1.23.14-2.35.43-3.35.86-1.88.8-3.35,2.09-4.34,3.84-.66,1.14-1.11,2.47-1.35,3.97-1.28,7.99-2.54,15.99-3.77,23.98-.31,2.02-.62,4.04-.93,6.06-.18,1.2-.36,2.4-.54,3.59-.37,2.42-.73,4.84-1.09,7.26-.12.84-.25,1.67-.37,2.51-.02.13-.04.27-.06.4-2.88,19.54-5.64,39.1-8.44,58.66-.26,1.85-.55,3.72-.62,5.59-.41,9.78,3.16,13.51,13.07,14.17,26.48,1.77,52.96,3.6,79.43,5.4,5.55.38,11.09.76,16.63,1.13,3.18.21,6.38.27,9.58.24,5.31-.06,9.06-2.45,10.3-7.79,1.23-5.29-.87-9.21-5.66-11.63-9.04-4.56-18.08-9.15-27.17-13.63-2.54-1.26-5.08-2.51-7.63-3.74-3.88-1.87-4.17-3.23-.83-6.15,9.91-8.66,20.01-17.06,30.43-25.02,17.46-13.33,35.8-25.41,55.64-35.36,9.3-4.68,18.72-8.85,29.47-8.24,6.65.37,12.45,2.58,17.56,9.34-7.89-2.6-14.66-3.02-21.51-.79-4.35,1.42-5.49,3.46-3.22,7.88,2.64,5.12,5.27,10.24,7.77,15.42.37.77.74,1.54,1.1,2.31,1.72,3.64,3.38,7.31,4.92,11.04,1.74,4.21,3.33,8.5,4.71,12.89.49,1.57.97,3.14,1.42,4.71,16.02,54.93,9.01,107.05-22.02,155.6-5.29,8.29-8.56,16.06-8.77,24.26-.05,1.79.05,3.61.3,5.46.5,3.58,1.59,7.29,3.36,11.17,1.18,2.58,2.26,5.21,3.29,7.86,3.19,8.18,5.84,16.61,8.98,24.83,1.48,3.88,1.56,5.32-3.54,4.49Z"/>
</svg>