<?xml version="1.0" encoding="UTF-8"?>
<svg id="Layer_1" data-name="Layer 1" xmlns="http://www.w3.org/2000/svg" viewBox="0 0 512 512">
  <defs>
    <style>
      .cls-1, .cls-2, .cls-3 {
        stroke-width: 0px;
      }

      .cls-2 {
        fill: none;
      }

      .cls-3 {
        fill: #fff;
      }
    </style>
  </defs>
  <line class="cls-2" x1="256.04" y1="255.88" x2="255.96" y2="256.12"/>
  <rect class="cls-1" x="24.89" y="24.89" width="462.22" height="462.22" rx="86.05" ry="86.05"/>
  <g>
    <path class="cls-3" d="m196.62,196.8h-102.3v-102.29h102.29v102.29h.01Zm-87.52-14.77h72.75v-72.75h-72.75v72.75Z"/>
    <rect class="cls-3" x="125.1" y="125.28" width="40.75" height="40.75"/>
    <path class="cls-3" d="m413.15,196.8h-102.3v-102.29h102.3v102.29Zm-87.52-14.77h72.75v-72.75h-72.75v72.75Z"/>
    <rect class="cls-3" x="341.63" y="125.28" width="40.75" height="40.75"/>
    <path class="cls-3" d="m417.69,417.49h-102.3v-102.3h102.3v102.3Zm-87.52-14.77h72.75v-72.75h-72.75v72.75Z"/>
    <rect class="cls-3" x="346.17" y="345.97" width="40.75" height="40.75"/>
    <path class="cls-3" d="m202.65,417.49h-102.29v-102.3h102.29v102.3h0Zm-87.52-14.77h72.75v-72.75h-72.75s0,72.75,0,72.75Z"/>
    <rect class="cls-3" x="131.13" y="345.97" width="40.75" height="40.75"/>
    <polygon class="cls-3" points="327.49 242.64 283.88 242.64 283.88 194.54 217.12 194.54 217.12 98.31 231.89 98.31 231.89 179.77 298.67 179.77 298.67 227.87 327.49 227.87 327.49 242.64"/>
    <polygon class="cls-3" points="298.1 159.46 249.4 159.46 249.4 144.68 283.32 144.68 283.32 98.31 298.1 98.31 298.1 159.46"/>
    <rect class="cls-3" x="96.62" y="227.87" width="92.61" height="14.77"/>
    <rect class="cls-3" x="346.17" y="227.87" width="69.61" height="14.77"/>
    <rect class="cls-3" x="217.14" y="227.87" width="48.1" height="14.77"/>
    <rect class="cls-3" x="101.71" y="265.21" width="13.02" height="14.77"/>
    <polygon class="cls-3" points="267.53 322.59 252.76 322.59 252.76 277.73 136.79 277.73 136.79 262.95 267.53 262.95 267.53 322.59"/>
    <rect class="cls-3" x="281.09" y="260.12" width="18.11" height="14.77"/>
    <rect class="cls-3" x="318.25" y="260.12" width="97.52" height="14.77"/>
    <polygon class="cls-3" points="298.1 413.54 260.15 413.54 260.15 398.76 283.32 398.76 283.32 300.89 298.1 300.89 298.1 413.54"/>
    <polygon class="cls-3" points="231.89 406.14 217.12 406.14 217.12 346.13 268.46 346.13 268.46 360.91 231.89 360.91 231.89 406.14"/>
  </g>
</svg>