<svg version="1.2" xmlns="http://www.w3.org/2000/svg" xmlns:xlink="http://www.w3.org/1999/xlink" overflow="visible" preserveAspectRatio="none" viewBox="0 0 27.00001 27.00001" width="27.00001" height="27.00001"><g transform="translate(2, 2)"><g transform="translate(0, 0) rotate(0)"><path style="stroke: rgb(122, 122, 122); stroke-width: 2; stroke-linecap: butt; stroke-linejoin: miter; fill: transparent;" d="M17.88889,0h-15.33333c-1.41833,0 -2.55556,1.15 -2.55556,2.55556v17.88889c0,1.40556 1.13722,2.55556 2.55556,2.55556h17.88889c1.40556,0 2.55556,-1.15 2.55556,-2.55556v-15.33333zM16.1,5.75h-12.65v-5.75h12.65zM11.7875,17.825c-2.06808,0 -3.7375,-1.66942 -3.7375,-3.7375c0,-2.06808 1.66942,-3.7375 3.7375,-3.7375c2.06808,0 3.7375,1.66942 3.7375,3.7375c0,2.06808 -1.66942,3.7375 -3.7375,3.7375z" vector-effect="non-scaling-stroke"/></g><defs><path id="path-1707756762699325" d="M17.88889,0h-15.33333c-1.41833,0 -2.55556,1.15 -2.55556,2.55556v17.88889c0,1.40556 1.13722,2.55556 2.55556,2.55556h17.88889c1.40556,0 2.55556,-1.15 2.55556,-2.55556v-15.33333zM16.1,5.75h-12.65v-5.75h12.65zM11.7875,17.825c-2.06808,0 -3.7375,-1.66942 -3.7375,-3.7375c0,-2.06808 1.66942,-3.7375 3.7375,-3.7375c2.06808,0 3.7375,1.66942 3.7375,3.7375c0,2.06808 -1.66942,3.7375 -3.7375,3.7375z" vector-effect="non-scaling-stroke"/></defs></g></svg>