<svg xmlns="http://www.w3.org/2000/svg" xmlns:xlink="http://www.w3.org/1999/xlink" width="36" height="36" viewBox="0 0 36 36">
  <defs>
    <filter id="Trazado_7394">
      <feOffset dx="1" dy="-2" input="SourceAlpha"/>
      <feGaussianBlur stdDeviation="2" result="blur"/>
      <feFlood flood-color="#9f9f9f" flood-opacity="0.659" result="color"/>
      <feComposite operator="out" in="SourceGraphic" in2="blur"/>
      <feComposite operator="in" in="color"/>
      <feComposite operator="in" in2="SourceGraphic"/>
    </filter>
    <filter id="Línea_402" x="16.749" y="8.042" width="4.5" height="16.615" filterUnits="userSpaceOnUse">
      <feOffset dx="1" dy="1" input="SourceAlpha"/>
      <feGaussianBlur stdDeviation="0.5" result="blur-2"/>
      <feFlood flood-opacity="0.204"/>
      <feComposite operator="in" in2="blur-2"/>
      <feComposite in="SourceGraphic"/>
    </filter>
    <filter id="Línea_403" x="16.525" y="18.692" width="9.264" height="11.552" filterUnits="userSpaceOnUse">
      <feOffset dx="1" dy="1" input="SourceAlpha"/>
      <feGaussianBlur stdDeviation="0.5" result="blur-3"/>
      <feFlood flood-opacity="0.204"/>
      <feComposite operator="in" in2="blur-3"/>
      <feComposite in="SourceGraphic"/>
    </filter>
    <filter id="Línea_404" x="12.209" y="18.692" width="9.264" height="11.552" filterUnits="userSpaceOnUse">
      <feOffset dx="1" dy="1" input="SourceAlpha"/>
      <feGaussianBlur stdDeviation="0.5" result="blur-4"/>
      <feFlood flood-opacity="0.204"/>
      <feComposite operator="in" in2="blur-4"/>
      <feComposite in="SourceGraphic"/>
    </filter>
  </defs>
  <g id="Grupo_58886" data-name="Grupo 58886" transform="translate(-170 -680)">
    <g id="Grupo_58263" data-name="Grupo 58263" transform="translate(-772 -236)">
      <g data-type="innerShadowGroup">
        <g id="Trazado_7394-2" data-name="Trazado 7394" transform="translate(942 916)" fill="#f1f1f1">
          <path d="M 18 35 C 13.45913028717041 35 9.190059661865234 33.231689453125 5.979179859161377 30.02082061767578 C 2.768310070037842 26.80994033813477 1 22.54087066650391 1 18 C 1 13.45913028717041 2.768310070037842 9.190059661865234 5.979179859161377 5.979179859161377 C 9.190059661865234 2.768310070037842 13.45913028717041 1 18 1 C 22.54087066650391 1 26.80994033813477 2.768310070037842 30.02082061767578 5.979179859161377 C 33.231689453125 9.190059661865234 35 13.45913028717041 35 18 C 35 22.54087066650391 33.231689453125 26.80994033813477 30.02082061767578 30.02082061767578 C 26.80994033813477 33.231689453125 22.54087066650391 35 18 35 Z" stroke="none"/>
          <path d="M 18 2 C 13.72624015808105 2 9.708290100097656 3.664291381835938 6.686290740966797 6.686290740966797 C 3.664291381835938 9.708290100097656 2 13.72624015808105 2 18 C 2 22.27375984191895 3.664291381835938 26.29170989990234 6.686290740966797 29.3137092590332 C 9.708290100097656 32.33570861816406 13.72624015808105 34 18 34 C 22.27375984191895 34 26.29170989990234 32.33570861816406 29.3137092590332 29.3137092590332 C 32.33570861816406 26.29170989990234 34 22.27375984191895 34 18 C 34 13.72624015808105 32.33570861816406 9.708290100097656 29.3137092590332 6.686290740966797 C 26.29170989990234 3.664291381835938 22.27375984191895 2 18 2 M 18 0 C 27.94112968444824 0 36 8.058870315551758 36 18 C 36 27.94112968444824 27.94112968444824 36 18 36 C 8.058870315551758 36 0 27.94112968444824 0 18 C 0 8.058870315551758 8.058870315551758 0 18 0 Z" stroke="none"/>
        </g>
        <g transform="matrix(1, 0, 0, 1, 942, 916)" filter="url(#Trazado_7394)">
          <g id="Trazado_7394-3" data-name="Trazado 7394" fill="#fff">
            <path d="M 18 35 C 13.45913028717041 35 9.190059661865234 33.231689453125 5.979179859161377 30.02082061767578 C 2.768310070037842 26.80994033813477 1 22.54087066650391 1 18 C 1 13.45913028717041 2.768310070037842 9.190059661865234 5.979179859161377 5.979179859161377 C 9.190059661865234 2.768310070037842 13.45913028717041 1 18 1 C 22.54087066650391 1 26.80994033813477 2.768310070037842 30.02082061767578 5.979179859161377 C 33.231689453125 9.190059661865234 35 13.45913028717041 35 18 C 35 22.54087066650391 33.231689453125 26.80994033813477 30.02082061767578 30.02082061767578 C 26.80994033813477 33.231689453125 22.54087066650391 35 18 35 Z" stroke="none"/>
            <path d="M 18 2 C 13.72624015808105 2 9.708290100097656 3.664291381835938 6.686290740966797 6.686290740966797 C 3.664291381835938 9.708290100097656 2 13.72624015808105 2 18 C 2 22.27375984191895 3.664291381835938 26.29170989990234 6.686290740966797 29.3137092590332 C 9.708290100097656 32.33570861816406 13.72624015808105 34 18 34 C 22.27375984191895 34 26.29170989990234 32.33570861816406 29.3137092590332 29.3137092590332 C 32.33570861816406 26.29170989990234 34 22.27375984191895 34 18 C 34 13.72624015808105 32.33570861816406 9.708290100097656 29.3137092590332 6.686290740966797 C 26.29170989990234 3.664291381835938 22.27375984191895 2 18 2 M 18 0 C 27.94112968444824 0 36 8.058870315551758 36 18 C 36 27.94112968444824 27.94112968444824 36 18 36 C 8.058870315551758 36 0 27.94112968444824 0 18 C 0 8.058870315551758 8.058870315551758 0 18 0 Z" stroke="none"/>
          </g>
        </g>
        <g id="Trazado_7394-4" data-name="Trazado 7394" transform="translate(942 916)" fill="none">
          <path d="M 18 35 C 13.45913028717041 35 9.190059661865234 33.231689453125 5.979179859161377 30.02082061767578 C 2.768310070037842 26.80994033813477 1 22.54087066650391 1 18 C 1 13.45913028717041 2.768310070037842 9.190059661865234 5.979179859161377 5.979179859161377 C 9.190059661865234 2.768310070037842 13.45913028717041 1 18 1 C 22.54087066650391 1 26.80994033813477 2.768310070037842 30.02082061767578 5.979179859161377 C 33.231689453125 9.190059661865234 35 13.45913028717041 35 18 C 35 22.54087066650391 33.231689453125 26.80994033813477 30.02082061767578 30.02082061767578 C 26.80994033813477 33.231689453125 22.54087066650391 35 18 35 Z" stroke="none"/>
          <path d="M 18 2 C 13.72624015808105 2 9.708290100097656 3.664291381835938 6.686290740966797 6.686290740966797 C 3.664291381835938 9.708290100097656 2 13.72624015808105 2 18 C 2 22.27375984191895 3.664291381835938 26.29170989990234 6.686290740966797 29.3137092590332 C 9.708290100097656 32.33570861816406 13.72624015808105 34 18 34 C 22.27375984191895 34 26.29170989990234 32.33570861816406 29.3137092590332 29.3137092590332 C 32.33570861816406 26.29170989990234 34 22.27375984191895 34 18 C 34 13.72624015808105 32.33570861816406 9.708290100097656 29.3137092590332 6.686290740966797 C 26.29170989990234 3.664291381835938 22.27375984191895 2 18 2 M 18 0 C 27.94112968444824 0 36 8.058870315551758 36 18 C 36 27.94112968444824 27.94112968444824 36 18 36 C 8.058870315551758 36 0 27.94112968444824 0 18 C 0 8.058870315551758 8.058870315551758 0 18 0 Z" stroke="none" fill="#000"/>
        </g>
      </g>
    </g>
    <g id="Grupo_58264" data-name="Grupo 58264" transform="translate(22.105 52.682)">
      <g transform="matrix(1, 0, 0, 1, 147.89, 627.32)" filter="url(#Línea_402)">
        <line id="Línea_402-2" data-name="Línea 402" y2="12.115" transform="translate(18 9.29)" fill="none" stroke="#000" stroke-linecap="round" stroke-width="1.5"/>
      </g>
      <g transform="matrix(1, 0, 0, 1, 147.89, 627.32)" filter="url(#Línea_403)">
        <line id="Línea_403-2" data-name="Línea 403" x2="6.478" y2="4.19" transform="translate(22.25 20.23) rotate(90)" fill="none" stroke="#000" stroke-linecap="round" stroke-width="1.5"/>
      </g>
      <g transform="matrix(1, 0, 0, 1, 147.89, 627.32)" filter="url(#Línea_404)">
        <line id="Línea_404-2" data-name="Línea 404" y1="4.19" x2="6.478" transform="translate(17.94 20.23) rotate(90)" fill="none" stroke="#000" stroke-linecap="round" stroke-width="1.5"/>
      </g>
    </g>
  </g>
</svg>
