<svg version="1.2" xmlns="http://www.w3.org/2000/svg" xmlns:xlink="http://www.w3.org/1999/xlink" overflow="visible" preserveAspectRatio="none" viewBox="0 0 322 244.00003641997242" width="322" height="244.00003641997242"><g transform="translate(0, 0)"><g transform="translate(7.105427357601002e-15, 0.000006419972383960373) rotate(0)"><path style="stroke-width: 0; stroke-linecap: butt; stroke-linejoin: miter; fill: rgb(112, 112, 112);" d="M240.79199,10.47925c-6.68586,-6.86168 -16.0822,-10.65366 -25.65924,-10.47309c-19.87687,0 -36.13977,16.25134 -36.13977,36.11409c0,19.86275 16.2629,36.11409 36.13977,36.11409c19.87687,0 36.13977,-16.25134 36.13977,-36.11409c0.1807,-9.57023 -3.61398,-18.9599 -10.48053,-25.641zM208.13409,125.79837l-96.4198,98.50138l-59.14286,-45.96731l-52.57143,65.66759h322z" vector-effect="non-scaling-stroke"/></g><defs><path id="path-1702316688092264" d="M240.79199,10.47925c-6.68586,-6.86168 -16.0822,-10.65366 -25.65924,-10.47309c-19.87687,0 -36.13977,16.25134 -36.13977,36.11409c0,19.86275 16.2629,36.11409 36.13977,36.11409c19.87687,0 36.13977,-16.25134 36.13977,-36.11409c0.1807,-9.57023 -3.61398,-18.9599 -10.48053,-25.641zM208.13409,125.79837l-96.4198,98.50138l-59.14286,-45.96731l-52.57143,65.66759h322z" vector-effect="non-scaling-stroke"/></defs></g></svg>