<svg xmlns="http://www.w3.org/2000/svg" width="24" height="24" viewBox="0 0 24 24"><defs><style>.a{fill:#3395ff;}</style></defs><path class="a" d="M25.76,6.62,21.2,2.064a.612.612,0,0,0-.867,0L16.461,5.926,4.473,17.894a.629.629,0,0,0-.185.27L1.977,25.071a.62.62,0,0,0,.387.781.6.6,0,0,0,.387,0l6.911-2.313a.629.629,0,0,0,.271-.184L21.9,11.36l3.861-3.874a.613.613,0,0,0,0-.865ZM3.533,24.3l1.6-4.8,3.192,3.192Zm5.934-2.215-3.721-3.72L16.892,7.23l3.7,3.7Zm12-12.018-3.7-3.7,3-3,3.69,3.689Z" transform="translate(-1.945 -1.884)"/></svg>