<svg xmlns="http://www.w3.org/2000/svg" width="35" height="35" viewBox="0 0 35 35"><defs><style>.a{fill:#3395ff;}</style></defs><circle class="a" cx="0.921" cy="0.921" r="0.921" transform="translate(20.263 18.421)"/><path class="a" d="M2.37,218.043a.922.922,0,1,0-.92-.919A.922.922,0,0,0,2.37,218.043Z" transform="translate(-1.449 -197.78)"/><path class="a" d="M11.581,280.78H2.37a.92.92,0,0,0-.92.921v9.211a.92.92,0,0,0,.92.921h9.211a.921.921,0,0,0,.921-.921V281.7A.921.921,0,0,0,11.581,280.78Zm-.921,9.211H3.295v-7.369h7.368Z" transform="translate(-1.449 -256.833)"/><path class="a" d="M2.37,12.053h9.211a.921.921,0,0,0,.921-.921V1.921A.921.921,0,0,0,11.581,1H2.37a.92.92,0,0,0-.92.921v9.211A.92.92,0,0,0,2.37,12.053Zm.924-9.211h7.368v7.369H3.295Z" transform="translate(-1.449 -1)"/><path class="a" d="M291.37,1h-9.209a.921.921,0,0,0-.921.921v9.211a.921.921,0,0,0,.921.921h9.209a.921.921,0,0,0,.921-.921V1.921A.921.921,0,0,0,291.37,1Zm-.921,9.211H283.08V2.842h7.369Z" transform="translate(-257.291 -1)"/><path class="a" d="M291.37,280.78h-9.209a.921.921,0,0,0-.921.921v9.211a.921.921,0,0,0,.921.921h9.209a.921.921,0,0,0,.921-.921V281.7A.921.921,0,0,0,291.37,280.78Zm-.921,9.211H283.08v-7.369h7.369Z" transform="translate(-257.291 -256.833)"/><rect class="a" width="3.684" height="3.684" rx="1.842" transform="translate(3.685 27.631)"/><rect class="a" width="3.684" height="3.684" rx="1.842" transform="translate(3.685 3.684)"/><path class="a" d="M325.179,47.687h1.842a.921.921,0,0,0,.921-.921V44.924a.921.921,0,0,0-.918-.924h-1.845a.922.922,0,0,0-.919.924v1.842A.921.921,0,0,0,325.179,47.687Z" transform="translate(-296.629 -40.32)"/><path class="a" d="M325.152,327.5h1.842a.921.921,0,0,0,.921-.921v-1.843a.921.921,0,0,0-.921-.921h-1.842a.922.922,0,0,0-.922.921v1.843A.922.922,0,0,0,325.152,327.5Z" transform="translate(-296.602 -296.189)"/><path class="a" d="M58.6,223.606a.921.921,0,0,0,.921-.921v-5.524a.921.921,0,0,0-.921-.921H45.7a.922.922,0,0,0,0,1.843H57.675v4.6a.922.922,0,0,0,.922.918Z" transform="translate(-41.096 -197.817)"/><path class="a" d="M2.361,175.012h9.211a.921.921,0,1,0,0-1.842H2.361a.921.921,0,1,0,0,1.842Z" transform="translate(-1.44 -158.433)"/><path class="a" d="M153.011,175.012H156.7a.921.921,0,1,0,0-1.842h-3.685a.921.921,0,0,0,0,1.842Z" transform="translate(-139.195 -158.433)"/><path class="a" d="M153.011,12.053h6.448v4.6a.921.921,0,0,0,.921.921h3.681a.921.921,0,1,0,0-1.842H161.3v-4.6a.92.92,0,0,0-.921-.921h-6.448V1.921a.921.921,0,1,0-1.842,0v9.211A.921.921,0,0,0,153.011,12.053Z" transform="translate(-139.195 -1)"/><path class="a" d="M330.689,173.17h-5.528a.921.921,0,1,0,0,1.842h5.526a.921.921,0,0,0,0-1.842Z" transform="translate(-296.61 -158.433)"/><path class="a" d="M291.661,216.21h-9.209a.922.922,0,0,0,0,1.843h9.209a.922.922,0,0,0,0-1.843Z" transform="translate(-257.582 -197.79)"/><path class="a" d="M157.617,324.741a.921.921,0,0,0-.921-.921h-3.685a.921.921,0,0,0-.921.921v5.527a.921.921,0,0,0,1.842,0v-4.606H156.7A.921.921,0,0,0,157.617,324.741Z" transform="translate(-139.195 -296.189)"/><path class="a" d="M199.745,259.26a.921.921,0,0,0-.921.919v10.133h-2.763a.921.921,0,1,0,0,1.842h3.681a.921.921,0,0,0,.921-.921V260.179A.921.921,0,0,0,199.745,259.26Z" transform="translate(-178.561 -237.155)"/><path class="a" d="M196.061,8.368h3.681a.92.92,0,0,0,.924-.921V1.921a.921.921,0,1,0-1.842,0v4.6h-2.763a.921.921,0,1,0,0,1.842Z" transform="translate(-178.561 -1)"/></svg>