<?xml version="1.0" encoding="UTF-8"?>
<svg id="Layer_1" data-name="Layer 1" xmlns="http://www.w3.org/2000/svg" viewBox="0 0 512 512">
  <defs>
    <style>
      .cls-1 {
        fill: #fff;
        stroke-width: 0px;
      }
    </style>
  </defs>
  <g>
    <path class="cls-1" d="m325.69,294.06h-105.65v-30.48h55.91v-62.85H124.27v62.85h60.9v30.48h-28.87c-28.57,0-47.07,61-47.07,82.11v72.51h263.52v-72.51c0-21.11-18.48-82.11-47.06-82.11h0Zm-57.6,21.52c7.32,0,13.28,5.7,13.28,12.71s-5.96,12.72-13.28,12.72-13.31-5.72-13.31-12.72,5.97-12.71,13.31-12.71Zm-13.8,49.2c0,7.01-5.96,12.71-13.3,12.71s-13.3-5.7-13.3-12.71,5.96-12.72,13.3-12.72,13.3,5.7,13.3,12.72Zm-22.33-36.49c0,7-5.97,12.72-13.31,12.72s-13.3-5.72-13.3-12.72,5.97-12.71,13.3-12.71,13.31,5.7,13.31,12.71Zm-89.41-84.12v-28.25h115.66v28.25h-115.66Zm26.69,96.84c-7.34,0-13.3-5.72-13.3-12.72s5.96-12.71,13.3-12.71,13.3,5.7,13.3,12.71-5.98,12.72-13.3,12.72Zm10.98,23.77c0-7.02,5.96-12.72,13.3-12.72s13.3,5.7,13.3,12.72-5.96,12.71-13.3,12.71-13.3-5.7-13.3-12.71Zm110.69,63.18h-99.84v-18.64h99.84v18.64h0Zm-2.45-50.47c-7.33,0-13.3-5.7-13.3-12.71s5.97-12.72,13.3-12.72,13.31,5.7,13.31,12.72-5.97,12.71-13.31,12.71Zm29.04-36.48c-7.34,0-13.3-5.72-13.3-12.72s5.96-12.71,13.3-12.71,13.3,5.7,13.3,12.71-5.96,12.72-13.3,12.72Z"/>
    <path class="cls-1" d="m400.29,239.57c-1.62-3.28-4.05-5.6-6.99-7.24-3.52-1.95-7.23-3.2-11.04-4.07-1.19-.27-1.32-.48-1.32-1.88-.01-5.83-.01-11.67-.01-17.65,2.09,1.25,3.8,2.85,4.68,5.37.43,1.21.77,2.45.87,3.76.05.62.35.87.86.87,4.12,0,8.23,0,12.35,0,.65,0,.94-.36.87-1.14-.33-3.98-1.01-7.83-2.79-11.34-2.1-4.13-5.11-7.09-8.73-9.32-2.27-1.4-4.7-2.27-7.17-2.99-.71-.2-.95-.57-.94-1.36.02-3.24.02-6.48.02-9.72h-13.04c-.01,3.04-.02,6.08-.04,9.12-.01,1.35-.05,1.28-1.2,1.5-5.06.97-9.71,2.93-13.47,7.21-3.2,3.62-5.31,7.91-5.84,12.99-.65,6.25-.22,12.37,3.43,17.57,1.92,2.74,4.4,4.61,7.22,5.89,2.94,1.33,5.98,2.3,9.05,3.13.59.16.81.53.81,1.19,0,6.31-.01,12.63.01,18.94,0,.71-.26.77-.75.57-3.11-1.25-5.34-3.53-6.38-7.21-.26-.95-.58-1.9-.71-2.88-.13-.97-.57-1.15-1.31-1.14-2.87.03-5.74,0-8.61,0-1.04,0-2.09,0-3.13,0-.61,0-.89.3-.88,1.03.04,6.75,2.06,12.51,6.4,17.1,3.05,3.23,6.65,5.26,10.65,6.45,1.18.35,2.34.74,3.55.92.82.11,1.21.55,1.18,1.57-.04,2.07.01,4.14.02,6.21h13.04c0-2,.02-4-.03-6-.03-.95.26-1.35,1.09-1.52,3.46-.71,6.84-1.76,9.92-3.78,5.15-3.37,8.75-8.22,10.14-14.92,1.24-5.95.91-11.81-1.78-17.25h0Zm-32.41-16.37c0,.73-.06,1.13-.89.79-1.2-.49-2.38-1.04-3.48-1.76-2-1.31-2.87-3.34-2.83-5.98.07-3.55,1.51-5.99,4.3-7.41.66-.33,1.33-.64,1.99-.97.66-.34.91-.05.91.72-.01,2.47-.01,4.94-.01,7.41s0,4.8.01,7.2h0Zm20.65,29.98c-.3,4.06-2.4,6.23-5.43,7.58-2.25,1.01-2.18.89-2.17-1.82.01-2.17,0-4.33,0-6.5h-.02v-7.69c0-.39-.12-.91.52-.59,1.37.69,2.84,1.11,4.13,2.03,2.27,1.61,3.19,3.89,2.97,6.99Z"/>
  </g>
  <g>
    <path class="cls-1" d="m161.29,64.82l12.05,24.42c.39.8,1.15,1.35,2.03,1.48l26.95,3.92c2.21.32,3.1,3.04,1.49,4.6l-19.5,19.01c-.64.62-.93,1.51-.78,2.39l4.6,26.84c.38,2.2-1.93,3.88-3.91,2.84l-24.1-12.67c-.79-.41-1.72-.41-2.51,0l-24.1,12.67c-1.98,1.04-4.29-.64-3.91-2.84l4.6-26.84c.15-.88-.14-1.77-.78-2.39l-19.5-19.01c-1.6-1.56-.72-4.28,1.49-4.6l26.95-3.92c.88-.13,1.64-.68,2.03-1.48l12.05-24.42c.99-2,3.85-2,4.84,0h0Z"/>
    <path class="cls-1" d="m64.34,64.82l12.05,24.42c.39.8,1.15,1.35,2.03,1.48l26.95,3.92c2.21.32,3.1,3.04,1.49,4.6l-19.5,19.01c-.64.62-.93,1.51-.78,2.39l4.6,26.84c.38,2.2-1.93,3.88-3.91,2.84l-24.1-12.67c-.79-.41-1.72-.41-2.51,0l-24.1,12.67c-1.98,1.04-4.29-.64-3.91-2.84l4.6-26.84c.15-.88-.14-1.77-.78-2.39l-19.5-19.01c-1.6-1.56-.72-4.28,1.49-4.6l26.95-3.92c.88-.13,1.64-.68,2.03-1.48l12.05-24.42c.99-2,3.85-2,4.84,0h.01Z"/>
    <path class="cls-1" d="m258.36,64.82l12.05,24.42c.39.8,1.15,1.35,2.03,1.48l26.95,3.92c2.21.32,3.1,3.04,1.49,4.6l-19.5,19.01c-.64.62-.93,1.51-.78,2.39l4.6,26.84c.38,2.2-1.93,3.88-3.91,2.84l-24.1-12.67c-.79-.41-1.72-.41-2.51,0l-24.1,12.67c-1.98,1.04-4.29-.64-3.91-2.84l4.6-26.84c.15-.88-.14-1.77-.78-2.39l-19.5-19.01c-1.6-1.56-.72-4.28,1.49-4.6l26.95-3.92c.88-.13,1.64-.68,2.03-1.48l12.05-24.42c.99-2,3.85-2,4.84,0h.01Z"/>
    <path class="cls-1" d="m355.43,64.82l12.05,24.42c.39.8,1.15,1.35,2.03,1.48l26.95,3.92c2.21.32,3.1,3.04,1.49,4.6l-19.5,19.01c-.64.62-.93,1.51-.78,2.39l4.6,26.84c.38,2.2-1.93,3.88-3.91,2.84l-24.1-12.67c-.79-.41-1.72-.41-2.51,0l-24.1,12.67c-1.98,1.04-4.29-.64-3.91-2.84l4.6-26.84c.15-.88-.14-1.77-.78-2.39l-19.5-19.01c-1.6-1.56-.72-4.28,1.49-4.6l26.95-3.92c.88-.13,1.64-.68,2.03-1.48l12.05-24.42c.99-2,3.85-2,4.84,0h.01Z"/>
    <path class="cls-1" d="m452.5,64.82l12.05,24.42c.39.8,1.15,1.35,2.03,1.48l26.95,3.92c2.21.32,3.1,3.04,1.49,4.6l-19.5,19.01c-.64.62-.93,1.51-.78,2.39l4.6,26.84c.38,2.2-1.93,3.88-3.91,2.84l-24.1-12.67c-.79-.41-1.72-.41-2.51,0l-24.1,12.67c-1.98,1.04-4.29-.64-3.91-2.84l4.6-26.84c.15-.88-.14-1.77-.78-2.39l-19.5-19.01c-1.6-1.56-.72-4.28,1.49-4.6l26.95-3.92c.88-.13,1.64-.68,2.03-1.48l12.05-24.42c.99-2,3.85-2,4.84,0h.01Z"/>
  </g>
</svg>