<?xml version="1.0" encoding="UTF-8"?>
<svg id="Layer_1" data-name="Layer 1" xmlns="http://www.w3.org/2000/svg" viewBox="0 0 512 512">
  <defs>
    <style>
      .cls-1 {
        fill: #fff;
        stroke-width: 0px;
      }
    </style>
  </defs>
  <path class="cls-1" d="m180.25,304.04c-.73,1.33-1.31,2.64-1.74,3.94-1.08,3.3,1.39,6.68,4.91,6.68h237.62c3.35,0,6.07,2.72,6.07,6.07v29.54c0,3.35-2.72,6.07-6.07,6.07H157.09c-5.92,0-11.29-3.44-13.69-8.77h0c-7.22-15.84-14.01-40.3.72-66.96,5.73-10.35,13.23-18.75,20.51-25.49L98.99,96.85c-1.34-2.87-4.27-4.7-7.48-4.66l-33.66.37c-3.39.04-6.14-2.7-6.14-6.1v-26.93c0-4.02,3.26-7.28,7.28-7.28h51.42c4.67,0,8.84,2.93,10.43,7.34l13.39,37.12h310.5c11.69,0,19.17,12.45,13.77,22.82l-70.68,135.22c-4.65,8.89-13.83,14.48-23.84,14.48l-149.37.77c-4.23,3.11-9.7,6.22-13.65,10.03-7.52,7.22-15.22,14.08-20.71,24.02h0Z"/>
  <circle class="cls-1" cx="177.53" cy="416.7" r="43.04"/>
  <circle class="cls-1" cx="383.82" cy="416.7" r="43.04"/>
</svg>