<?xml version="1.0" encoding="UTF-8"?>
<svg id="Layer_1" data-name="Layer 1" xmlns="http://www.w3.org/2000/svg" viewBox="0 0 512 512">
  <defs>
    <style>
      .cls-1 {
        fill: #fff;
        stroke-width: 0px;
      }
    </style>
  </defs>
  <path class="cls-1" d="m259.38,350.74c0-6.8.11-13.6-.05-20.4-.1-4.16,1.45-4.75,5.05-3.32,10.09,4.02,19.07,8.81,20.04,21.46.99,12.79-8.41,25.11-21.07,27.32-3.18.56-4.02-.74-3.99-3.62.08-7.15.03-14.3.02-21.44Z"/>
  <path class="cls-1" d="m246.22,271.03c0,5.92.04,11.85,0,17.77-.02,1.99-.1,3.92-3.14,3.46-13.83-2.11-22.36-18.02-16.65-30.93,3.17-7.15,9.67-9.69,16.23-12.1,3.08-1.13,3.53,1.24,3.55,3.49.05,6.1.02,12.2.02,18.3h0Z"/>
  <path class="cls-1" d="m432.37,351.11c-5.08-27.62-16-53.05-29.96-77.26-24.14-41.83-54.11-78.82-91.37-109.71-5.73-4.76-11.63-9.29-17.92-13.15,1.61-1.96,13.24-16.32,24.16-35.02,11.75-20.15,31.06-57.93,26.01-69.87-5.03-11.94-63.8,6.9-67.15,9.42-3.37,2.52-23.79,9.71-23.79,9.71,0,0-78.63-34.06-90.39-7.19-10.46,23.92,41.68,79.17,53.2,90.94-6.6,3.85-12.58,8.72-18.53,13.51-30.81,24.83-56.86,54.12-79.39,86.55-15.61,22.47-29.02,46.17-38.07,72.06-8.33,23.82-13.16,48.12-8.46,73.53,6.26,33.82,28.05,57.73,59.47,64.84,2.38.53,4.77,1.04,7.17,1.49,37.2,7.22,74.91,8.38,112.61,8.82,20.23.25,40.51-.71,60.72-1.95,21.24-1.31,42.33-4.09,63.31-8.08,20.19-3.85,35.21-14.4,46.12-31.48,15.28-23.96,17.26-50.07,12.28-77.18l-.02.02Zm-148.62,40.02c-6.28,3.33-13.12,4.74-20.01,5.91-3.25.55-4.43,2.01-4.39,5.2.09,5.24.14,10.5-.27,15.7-.32,3.96-1.52,7.94-6.74,7.63-5.11-.31-5.89-4.22-6-8.28-.13-4.89-.18-9.78-.04-14.67.09-3.43-1.26-4.96-4.73-5.48-11.6-1.75-22.35-5.74-31.33-13.53-9.73-8.43-16.28-18.65-16.58-32-.16-7.21,4.26-13.09,10.52-14.31,7.95-1.55,13.62,1.56,16.58,9.15,1.78,4.55,3.37,9.19,5.33,13.64,2.88,6.56,8.02,10.91,14.51,13.68,4.68,1.99,5.52,1.44,5.64-3.57.08-3.66,0-7.34,0-11.01v-11.01c0-6.81-.23-13.63.09-20.43.22-4.63-1.43-6.76-5.98-8.08-11.25-3.26-22.08-7.34-30.98-15.67-17.35-16.22-17.06-56.65,12.2-70.45,6.02-2.83,12.33-5,19.02-5.43,4.18-.27,5.95-2.08,5.69-6.28-.2-3.13-.16-6.3.13-9.42.31-3.43,1.98-6.04,5.78-6.29,4.05-.27,6.24,2.29,6.82,5.85.55,3.24.49,6.63.29,9.91-.27,4.18,1.39,5.74,5.57,6.29,19.53,2.59,33.24,12.89,39.89,31.68,1.86,5.26,1.68,10.56-2.53,15.19-3.9,4.3-8.55,5.17-13.8,3.85-5.51-1.39-8.24-5.52-9.72-10.67-2.29-7.93-6.57-14.16-14.28-17.78-3.48-1.64-5.16-1.21-5.12,3.08.1,13.1.1,26.2.01,39.29-.03,3.13,1.23,4.74,4.24,5.6,5.87,1.69,11.77,3.37,17.44,5.63,18.11,7.26,29.08,20.11,29.96,40.22.94,21.36-8.43,36.89-27.24,46.86h.02Z"/>
</svg>