<?xml version="1.0" encoding="UTF-8"?>
<svg id="Layer_1" data-name="Layer 1" xmlns="http://www.w3.org/2000/svg" viewBox="0 0 512 512">
  <defs>
    <style>
      .cls-1 {
        fill: #fff;
        stroke-width: 0px;
      }
    </style>
  </defs>
  <path class="cls-1" d="m431.49,34.56h-198.39c-17.56,0-31.83,14.3-31.83,31.86v38.39h-58.84l-34.61,43.51h-13.57c-3.29-9.01-11.95-15.46-22.09-15.46-12.98,0-23.52,10.57-23.52,23.55s10.55,23.52,23.52,23.52c10.12,0,18.78-6.45,22.09-15.43h21.37l34.61-43.51h67.23v-54.57c0-8.66,7.01-15.67,15.65-15.67h198.39c8.63,0,15.67,7.01,15.67,15.67v382.26c0,6.93-5.67,12.57-12.57,12.57h-202.51c-6.93,0-12.57-5.64-12.57-12.57v-57.35h-16.19v57.35c0,15.86,12.89,28.76,28.76,28.76h202.51c15.84,0,28.76-12.89,28.76-28.76V66.42c0-17.56-14.3-31.86-31.86-31.86h-.01ZM76.07,162.62c-1.13.73-2.48,1.13-3.91,1.13-4.05,0-7.34-3.29-7.34-7.34s3.29-7.36,7.34-7.36c1.43,0,2.78.43,3.91,1.16,2.05,1.29,3.43,3.59,3.43,6.2s-1.38,4.91-3.43,6.2h0Z"/>
  <path class="cls-1" d="m179.82,144.6l-49.1,56.97h-36.47c-3.32-9.01-11.98-15.43-22.09-15.43-12.98,0-23.52,10.55-23.52,23.52s10.55,23.52,23.52,23.52c10.12,0,18.78-6.42,22.09-15.43h43.92l49.07-56.97h26.76v-16.19h-34.18,0Zm-107.66,72.4c-4.05,0-7.34-3.29-7.34-7.34s3.29-7.34,7.34-7.34,7.34,3.29,7.34,7.34-3.29,7.34-7.34,7.34Z"/>
  <path class="cls-1" d="m200.73,194.24v20.5l-41.73,47.61h-64.74c-3.32-8.98-11.98-15.43-22.09-15.43-12.98,0-23.52,10.57-23.52,23.52s10.55,23.52,23.52,23.52c10.14,0,18.8-6.45,22.09-15.43h72.11l50.55-57.73v-26.57h-16.19Zm-128.57,83.55c-4.05,0-7.34-3.29-7.34-7.34s3.29-7.34,7.34-7.34,7.34,3.29,7.34,7.34-3.29,7.34-7.34,7.34Z"/>
  <path class="cls-1" d="m242.6,319.27c-3.7-16.56-18.53-29-36.2-29-20.45,0-37.09,16.64-37.09,37.09s16.64,37.07,37.09,37.07c17.67,0,32.51-12.41,36.2-28.97h18.59v19.45h16.19v-19.45h6.53v19.45h16.19v-19.45h17.75v-16.19h-75.25Zm-36.2,28.97c-11.52,0-20.91-9.36-20.91-20.88s9.39-20.91,20.91-20.91,20.91,9.39,20.91,20.91-9.39,20.88-20.91,20.88Z"/>
  <rect class="cls-1" x="255.15" y="104.47" width="130.87" height="16.19"/>
  <rect class="cls-1" x="255.15" y="186.14" width="130.87" height="16.19"/>
  <rect class="cls-1" x="255.15" y="148.31" width="59.23" height="16.19"/>
  <rect class="cls-1" x="238.65" y="403.48" width="18.88" height="23.5"/>
  <rect class="cls-1" x="270.94" y="403.48" width="18.88" height="23.5"/>
  <rect class="cls-1" x="302.58" y="403.48" width="18.88" height="23.5"/>
  <rect class="cls-1" x="334.22" y="403.48" width="18.88" height="23.5"/>
  <rect class="cls-1" x="370.64" y="403.48" width="18.88" height="23.5"/>
  <rect class="cls-1" x="403.95" y="403.48" width="18.88" height="23.5"/>
</svg>