<?xml version="1.0" encoding="UTF-8"?>
<svg id="Layer_1" data-name="Layer 1" xmlns="http://www.w3.org/2000/svg" viewBox="0 0 512 512">
  <defs>
    <style>
      .cls-1 {
        fill: #fff;
        stroke-width: 0px;
      }
    </style>
  </defs>
  <path class="cls-1" d="m85.76,44.83v422.35h340.49V44.83H85.76Zm13.05,13.05h41.12l-41.12,38.16v-38.16Zm45.61,13.63v37.08l-35.81-3.86,35.81-33.22Zm268.78,382.62H98.81V116.8l58.66,6.3v-63.7l1.64-1.53h254.09v396.25h0Z"/>
  <g>
    <rect class="cls-1" x="184.86" y="199.36" width="154.2" height="8.21"/>
    <path class="cls-1" d="m340.07,208.58h-156.2v-10.21h156.2v10.21Zm-154.2-2h152.2v-6.21h-152.2v6.21Z"/>
  </g>
  <g>
    <rect class="cls-1" x="156.31" y="230.42" width="154.2" height="8.21"/>
    <path class="cls-1" d="m311.51,239.63h-156.2v-10.21h156.2v10.21Zm-154.2-2h152.2v-6.21h-152.2v6.21Z"/>
  </g>
  <g>
    <rect class="cls-1" x="189.15" y="261.48" width="154.2" height="8.21"/>
    <path class="cls-1" d="m344.35,270.69h-156.2v-10.21h156.2v10.21Zm-154.2-2h152.2v-6.21h-152.2v6.21Z"/>
  </g>
  <path class="cls-1" d="m228.29,421.04c-.22,0-18.21.22-33.37-8.03,2.24-2.33,4.34-4.9,6.24-7.75,10.2-15.19,17.63-42.33,2.26-55.05-6.36-5.26-16.59-9.06-25.13-5.72-5.97,2.35-10.72,8.03-13.38,16.05-4.62,13.89-2.44,31.78,5.44,44.55,1.9,3.08,4.06,5.82,6.45,8.24-12.23,7.59-25.76,9.79-30.89,10.36l1.27,11.11c6.32-.71,23.67-3.58,38.72-14.13,18.45,11.86,41.36,11.58,42.63,11.56l-.24-11.18h0Zm-42.58-14.65c-2.18-2.09-4.18-4.45-5.85-7.18-7.16-11.61-7.27-26.36-4.32-35.16,1.57-4.72,4.06-8.05,6.84-9.15.89-.35,1.86-.5,2.91-.5,3.71,0,8.09,2.01,11,4.42,9.34,7.72,3.32,28.69-4.4,40.23-1.85,2.74-3.93,5.18-6.17,7.34h0Z"/>
  <rect class="cls-1" x="249.16" y="380.67" width="93.42" height="22.37" transform="translate(-188.41 310.85) rotate(-43.45)"/>
  <path class="cls-1" d="m257.45,77.54c-16.59,0-30.09,13.5-30.09,30.07s13.5,30.09,30.09,30.09,30.09-13.5,30.09-30.09-13.5-30.07-30.09-30.07Zm0,47.11c-9.4,0-17.04-7.64-17.04-17.04s7.64-17.02,17.04-17.02,17.04,7.64,17.04,17.02-7.64,17.04-17.04,17.04Z"/>
  <circle class="cls-1" cx="257.44" cy="107.62" r="8.26"/>
  <rect class="cls-1" x="250.92" y="145.11" width="13.05" height="27.6"/>
</svg>