<?xml version="1.0" encoding="UTF-8"?>
<svg id="Layer_1" data-name="Layer 1" xmlns="http://www.w3.org/2000/svg" viewBox="0 0 512 512">
  <defs>
    <style>
      .cls-1 {
        fill: #fff;
        stroke-width: 0px;
      }
    </style>
  </defs>
  <path class="cls-1" d="m461.47,116.11c-.68-4.49-3.6-6.83-8.16-7-4.02-.15-8.03-.25-12.03-.55-3.56-.28-6.3-1.98-7.77-5.39-1.68-3.9-3.36-7.81-5.02-11.71-1.66-3.92-1.24-7.49,1.77-10.69,2.58-2.77,5.05-5.64,7.56-8.48,3.43-3.9,3.34-7.56-.3-11.22-5.84-5.84-11.69-11.67-17.57-17.48-3.87-3.81-7.67-3.85-11.54-.06-2.94,2.87-6.03,5.52-9.13,8.2-2.7,2.32-5.69,2.73-8.9,1.45-4.02-1.6-7.94-3.43-11.97-4.96-4.36-1.66-6.09-4.9-6.26-9.31-.15-3.62-.3-7.26-.51-10.88-.28-4.73-3.47-7.82-8.18-8.09-1.21-.06-2.43-.13-3.62-.26-7.66-.85-15.27-.47-22.85.72-3.68.58-6.11,3.36-6.35,6.98-.28,4.37-.64,8.75-.81,13.14-.13,3.77-1.98,6.28-5.32,7.73-4.24,1.85-8.48,3.68-12.82,5.3-3.13,1.15-6.28.96-8.96-1.38-2.9-2.55-5.81-5.09-8.65-7.69-4.54-4.15-8.13-4.11-12.41.25-5.71,5.84-11.44,11.67-17.16,17.52-3.09,3.17-3.17,7.01-.19,10.35,2.77,3.11,5.54,6.2,8.37,9.26,1.64,1.77,2.38,3.85,2.43,6.2-.02,1.4-.4,2.7-.92,3.96-1.6,3.92-3.28,7.82-4.81,11.78-1.38,3.53-4.09,5.52-7.92,5.73-4.17.23-8.31.47-12.46.85-4.73.41-6.83,2.58-7.56,7.26-1.4,8.99-.92,17.97.11,26.94.26,2.24,1.55,4.15,3.38,5.34H88.47c-21.53,0-38.99,17.46-38.99,38.99v208.68c0,21.53,17.46,38.99,38.99,38.99h49.46l26.72,28.11,26.72,28.09,26.72-28.09,26.72-28.11h49.47c21.53,0,38.99-17.46,38.99-38.99v-160.09c1.19,1.51,3.02,2.43,5.54,2.75,8.6,1.11,17.2,1.32,25.81.08,5.35-.77,7.6-3.04,7.98-8.41.28-3.7.55-7.39.51-11.11-.08-4.17,1.83-7.09,5.68-8.73,4.19-1.77,8.33-3.62,12.58-5.26,3.49-1.36,6.71-.6,9.5,1.87,3.07,2.7,6.07,5.47,9.16,8.15,3.39,2.92,7.41,2.77,10.58-.4,1.83-1.81,3.58-3.68,5.39-5.51,4.32-4.36,8.77-8.58,12.92-13.07,2.88-3.11,2.66-6.94-.15-10.05-2.72-3.04-5.47-6.07-8.22-9.11-2.39-2.64-3.11-5.71-2.04-9.07,1.53-4.85,3.58-9.5,5.75-14.08,1.32-2.83,3.66-4.36,6.81-4.56,4.62-.3,9.24-.51,13.82-.96,3.73-.36,6.3-2.77,6.77-6.32,1.17-9.2,1.19-18.42-.17-27.6h-.02Zm-271.07,86c24.1,0,43.63,19.53,43.63,43.63s-19.53,43.63-43.63,43.63-43.63-19.53-43.63-43.63,19.53-43.63,43.63-43.63Zm-95.37,172.86c0-19.42,7.86-36.99,20.59-49.72,12.73-12.73,30.3-20.59,49.72-20.59h52.06c38.82,0,70.31,31.49,70.31,70.31H95.03Zm257.91-213.19c-18.74.4-32.9-13.31-33.07-31.54-.13-17.03,14.03-31.26,31.05-31.6,18.1-.34,32.71,14.5,32.09,31.94.41,16.46-13.56,30.85-30.07,31.2h0Z"/>
</svg>