<?xml version="1.0" encoding="UTF-8"?>
<svg id="Layer_1" data-name="Layer 1" xmlns="http://www.w3.org/2000/svg" viewBox="0 0 512 512">
  <defs>
    <style>
      .cls-1 {
        fill: #fff;
        stroke-width: 0px;
      }
    </style>
  </defs>
  <path class="cls-1" d="m305.47,205.85h-12.33l-5.33-22.21-34.38,8.84v-20.65l-39.31,3.52v30.51h-11.07l-6.3,94.28h112.92l-4.2-94.28h0Zm-87.23-26.74l31.08-2.78v17.22l-2.14.55,2.08,11.76h-31.02v-26.74h0Zm54.62,59c-.04,6.58-2.76,12.64-8.29,16.43-6.77,4.62-16.2,4.06-22.51-1.12-9.04-7.43-6.93-20.12-6.93-30.49,0-2.65,4.11-2.65,4.11,0,0,4.82-.02,9.65,0,14.47.04,9.17,6.6,17.12,16.42,16.13,8.5-.85,13.08-8.22,13.08-16.16v-14.44c0-2.65,4.11-2.65,4.11,0,0,5.06.03,10.12,0,15.18h.01Zm-19.43-32.26v-.04l-1.54-8.68,1.54-.4,31.36-8.06,4.13,17.18h-35.49Z"/>
  <path class="cls-1" d="m437.39,359.38c0,47.16-38.37,85.54-85.54,85.54h-42.05v8.11h42.05c51.64,0,93.64-42.01,93.64-93.64v-60.73h-8.11v60.73h.01ZM351.85,43.69h-42.05v8.11h42.05c47.16,0,85.54,38.37,85.54,85.54v23.38h8.11v-23.38c0-51.63-42-93.64-93.64-93.64h0ZM69.03,359.38v-60.73h-8.11v60.73c0,51.63,42.01,93.64,93.65,93.64h42.05v-8.11h-42.05c-47.17,0-85.55-38.37-85.55-85.54h0Zm-8.11-222.04v23.38h8.11v-23.38c0-47.16,38.37-85.54,85.55-85.54h42.05v-8.11h-42.05c-51.64,0-93.65,42.01-93.65,93.64h-.01Z"/>
  <g>
    <circle class="cls-1" cx="253.21" cy="30.68" r="20.6"/>
    <path class="cls-1" d="m243.37,65.34h19.68c14.97,0,27.13,12.16,27.13,27.13v15.41h-73.94v-15.41c0-14.97,12.16-27.13,27.13-27.13Z"/>
  </g>
  <g>
    <circle class="cls-1" cx="253.21" cy="424.71" r="20.6" transform="translate(-206.58 606.62) rotate(-80.78)"/>
    <path class="cls-1" d="m243.37,459.38h19.68c14.97,0,27.13,12.16,27.13,27.13v15.41h-73.94v-15.41c0-14.97,12.16-27.13,27.13-27.13Z"/>
  </g>
  <g>
    <circle class="cls-1" cx="442.05" cy="197.73" r="20.6"/>
    <path class="cls-1" d="m432.21,232.39h19.68c14.97,0,27.13,12.16,27.13,27.13v15.41h-73.94v-15.41c0-14.97,12.16-27.13,27.13-27.13h0Z"/>
  </g>
  <g>
    <circle class="cls-1" cx="69.95" cy="197.73" r="20.6"/>
    <path class="cls-1" d="m60.11,232.39h19.68c14.97,0,27.13,12.16,27.13,27.13v15.41H32.98v-15.41c0-14.97,12.16-27.13,27.13-27.13h0Z"/>
  </g>
</svg>