<?xml version="1.0" encoding="UTF-8"?>
<svg id="Layer_1" data-name="Layer 1" xmlns="http://www.w3.org/2000/svg" viewBox="0 0 512 512">
  <defs>
    <style>
      .cls-1 {
        fill: #fff;
        stroke-width: 0px;
      }
    </style>
  </defs>
  <path class="cls-1" d="m139.84,172.78c0-41.43-.78-82.94,0-124.37.05-2.7-1.55-2.11,2.73-1.58,5.97.74,12.53,0,18.54,0h220.59c2.74,0,9.92-1.38,12.38,0-1.39-.78-.35.12-.63,2.61-1.36,12.06,0,25.07,0,37.19v365.16c0,4.23.05,8.47,0,12.71-.04,3.32.79,1.27-.06,1.57-3.8,1.31-10.46,0-14.42,0h-190.93c-15.3,0-31.79,1.76-47.01,0-.45-.05-1.67.26-2.05,0,1.87,1.32.66-1.15.86-3.01,1.03-9.65,0-19.99,0-29.68v-95.85c0-17.39-27.03-17.42-27.03,0,0,42.74-1.92,85.91,0,128.6.69,15.33,11.13,26.17,26.58,26.96,4.4.23,8.87,0,13.26,0h229.04c4.15,0,8.37.22,12.51,0,15.12-.81,25.52-11.65,26.27-26.65.51-10.25,0-20.65,0-30.91V57.27c0-3.5.16-7.04,0-10.54-.67-15.08-10.96-26.1-26.19-26.94-40.42-2.22-81.58,0-122.04,0-44.04,0-88.63-2.07-132.62,0-28.84,1.36-26.81,28.16-26.81,49v103.98c0,17.39,27.03,17.42,27.03,0h0Z"/>
  <path class="cls-1" d="m354.49,269.97h-216.93c30.5,30.27,61,60.52,91.49,90.79,12.37,12.28-6.76,31.38-19.12,19.1-38.25-37.95-76.49-75.91-114.74-113.86-5.16-5.11-5.18-14.01,0-19.1,38.25-37.68,76.49-75.34,114.74-113,12.41-12.23,31.53,6.87,19.12,19.1-30.43,29.98-60.88,59.96-91.31,89.94h216.75c17.41,0,17.39,27.03,0,27.03Z"/>
</svg>