<?xml version="1.0" encoding="UTF-8"?>
<svg id="Layer_1" data-name="Layer 1" xmlns="http://www.w3.org/2000/svg" viewBox="0 0 512 512">
  <defs>
    <style>
      .cls-1 {
        fill: #fff;
        stroke-width: 0px;
      }
    </style>
  </defs>
  <path class="cls-1" d="m480.76,134.87v254.08c0,8.89-7.2,16.06-16.06,16.06h-146.02c4.76-9.08,9.38-18.25,13.88-27.48,11.67-24.01,22.43-48.41,29-74.56,5.87-23.39,2.42-45.9-7-67.54-11.25-25.79-29.71-44.4-54.51-56.27-9.75-4.63-20.07-7.41-30.74-8.91-.71-.13-1.44-.36-2.14-.54h-22.85c-9.9,1.8-19.75,3.77-29.09,7.8-24.46,10.54-43.05,27.82-55.56,52.01-7.82,15.1-11.72,31.34-12.59,48.43-.45,9.32,1.09,18.36,3.41,27.25,5.16,19.64,12.74,38.3,21.12,56.65,6.64,14.63,13.75,28.98,21.21,43.16H47.3c-8.87,0-16.06-7.18-16.06-16.06V105.33c0-6.64,5.38-12.04,12.02-12.04h192.09c4.99,0,9.62,2.68,12.14,7l13.73,23.65c1.18,2.01,3.32,3.26,5.65,3.26h206.25c4.22,0,7.65,3.43,7.65,7.67h0Z"/>
  <path class="cls-1" d="m320.76,241.09c-7.37-16.9-19.47-29.11-35.73-36.86-6.38-3.04-13.15-4.86-20.13-5.87-.47-.06-.94-.21-1.41-.32h-14.97c-6.49,1.18-12.94,2.46-19.06,5.1-16.02,6.9-28.21,18.23-36.41,34.08-5.12,9.9-7.67,20.54-8.25,31.74-.3,6.1.71,12.02,2.23,17.86,3.38,12.85,8.35,25.08,13.84,37.1,11.05,24.27,23.97,47.44,37.48,70.3,4.28,7.22,8.72,14.31,13.07,21.48.36.6.75,1.11,1.2,1.61.84.9,2.1,1.39,3.38,1.39s2.59-.51,3.45-1.46c.47-.51.9-1.09,1.29-1.71,16.41-26.39,31.98-53.29,45.62-81.33,7.65-15.72,14.69-31.72,19-48.86,3.86-15.31,1.59-30.07-4.58-44.25h-.02Zm-65.03,58.24c-20.18,0-36.52-16.34-36.52-36.5s16.34-36.5,36.52-36.5,36.5,16.34,36.5,36.5-16.34,36.5-36.5,36.5Z"/>
</svg>