<?xml version="1.0" encoding="UTF-8"?>
<svg id="Layer_1" data-name="Layer 1" xmlns="http://www.w3.org/2000/svg" viewBox="0 0 512 512">
  <defs>
    <style>
      .cls-1 {
        fill: #fff;
        stroke-width: 0px;
      }
    </style>
  </defs>
  <path class="cls-1" d="m258.11,337.63v13.38h73.49c-.61,2.97-1.43,5.86-2.4,8.71h-71.09v13.35h64.96c-1.76,3.06-3.76,5.98-5.98,8.74h-58.98v13.35h45.18c-4.7,3.52-9.8,6.43-15.17,8.71h-30.01v6.07c-12.47-.03-24.15-2.91-34.41-8.1h6.49v-13.35h-25.12c-2.76-2.7-5.28-5.61-7.59-8.71h32.71v-13.38h-40.54c-1.31-2.82-2.4-5.7-3.31-8.71h43.84v-13.35h-46.73c-.36-2.85-.58-5.76-.58-8.74h47.3v-13.35h-46.33c.45-2.97,1.12-5.89,1.94-8.71h44.39v-13.38h-39.14c1.49-3.03,3.25-5.95,5.19-8.71h33.95v-13.35h-22.03c3.76-3.34,7.83-6.25,12.23-8.74l9.8-4.64c8.59-3.4,17.99-5.25,27.91-5.28,7.71.03,15.11,1.15,22.06,3.25,6.8,2.03,13.14,4.98,18.93,8.71h-40.99v13.38h56.65c2.4,2.73,4.61,5.64,6.58,8.71h-63.23v13.35h70.09c1.09,2.82,2.03,5.73,2.79,8.74h-72.88v13.35h75.03c.15,1.85.21,3.73.21,5.64,0,1.03-.03,2.03-.06,3.06h-75.19.04Z"/>
  <path class="cls-1" d="m308.66,18.17H94.08c-23.51,0-42.6,19.08-42.6,42.63v433.03h312.76l-1.64-1.64c-2.85-2.82-5.76-5.73-8.74-8.71h-95.76v-13.38h82.35c-2.85-2.88-5.76-5.79-8.71-8.71h-34.1c-15.75,5.01-32.22,6.83-49.24,5.52-6.22-.49-12.29-1.33-18.2-2.61v3.76H77.06v-13.35h124.61c-5.37-2.52-10.56-5.43-15.57-8.71h-109.05v-13.38h91.87c-.36-.3-.73-.64-1.09-.97-2.7-2.49-5.25-5.07-7.71-7.74h-83.07v-13.35h72.33c-2.03-2.85-3.88-5.77-5.64-8.74h-66.69v-13.35h59.83c-1.27-2.85-2.43-5.73-3.46-8.71h-56.37v-13.38h52.34c-.67-2.67-1.24-5.37-1.76-8.13-.03-.18-.06-.39-.09-.58h-50.49v-13.35h48.76c-.27-2.91-.39-5.83-.43-8.74h-48.33v-13.35h48.85c.24-2.91.61-5.83,1.09-8.71h-49.94v-13.38h52.91c.79-2.91,1.73-5.83,2.76-8.71h-55.68v-13.35h61.2c1.4-3,2.88-5.92,4.43-8.74h-65.63v-13.35h74.03c2.18-3.03,4.43-5.95,6.83-8.71h-80.86v-13.38h94.12c3.61-3.09,7.43-6.01,11.41-8.71h-105.53v-13.35h130.8c4.79-1.94,9.8-3.64,14.99-5.13,21.85-6.28,43.75-6.8,65.36-1.58h97.33v13.38h-62.9c4.82,2.61,9.41,5.52,13.81,8.71h49.09v13.38h-33.47c2.76,2.76,5.4,5.67,7.92,8.71h25.55v13.35h-15.75c.33.46.64.94.94,1.43,1.52,2.4,2.94,4.82,4.28,7.28h10.53v13.38h-4.19c1.18,2.85,2.21,5.76,3.19,8.71.36,1.06.67,2.12,1,3.22,2.46,8.34,4.1,16.96,4.85,25.85,1.52,17.14-.12,33.71-4.85,49.58-.09.33-.18.64-.27.94-.91,2.94-1.91,5.86-3.03,8.74h3.31v13.35h-9.31c-1.49,2.94-3.12,5.83-4.88,8.71h14.2v13.38h-5.43c8.37,8.31,16.78,16.63,25.15,24.94l11.26,11.17c12.38,12.29,24.79,24.61,37.23,36.93,1.15,1.15,2.31,2.31,3.43,3.55h3.34V179.31L308.66,18.17Zm-78.46,184.96H77.06v-13.35h153.13v13.35h.01Zm0-22.06H77.06v-13.38h153.13v13.38h.01Zm0-22.09H77.06v-13.35h153.13v13.35h.01Zm0-22.09H77.06v-13.35h153.13v13.35h.01Zm0-22.06H77.06v-13.38h153.13v13.38h.01Zm0-22.09H77.06v-13.35h153.13v13.35h.01Zm0-22.09H77.06v-13.35h153.13v13.35h.01Zm155.35,125.79h-127.43v-13.35h127.43v13.35Zm0-22.06h-127.43v-13.38h127.43v13.38Zm0-22.09h-127.43v-13.38h127.43v13.38Z"/>
</svg>