<?xml version="1.0" encoding="UTF-8"?>
<svg id="Layer_1" data-name="Layer 1" xmlns="http://www.w3.org/2000/svg" viewBox="0 0 512 512">
  <defs>
    <style>
      .cls-1 {
        fill: #fff;
        stroke-width: 0px;
      }
    </style>
  </defs>
  <path class="cls-1" d="m256.01,119.81c4.27-6.98,8.77-13.4,13.87-19.4,16.8-19.77,37.17-34.23,62.44-40.94,61.08-16.22,127.1,17.91,141.08,85.95,2.3,11.2,2.49,22.53,2.12,33.9-.56,17.2-2.59,34.18-7.23,50.81-6.54,23.45-18.43,43.98-33.91,62.58-14.27,17.13-30.46,32.35-47.04,47.16-29.78,26.6-60.42,52.23-90.06,78.99-13.45,12.14-26.8,24.4-39.9,36.91-1.1,1.05-1.66,1.05-2.75,0-31.59-30.11-64.41-58.84-97.41-87.38-20.58-17.8-41.27-35.49-60.49-54.8-15-15.07-28.75-31.13-39.17-49.81-9.77-17.51-15.7-36.28-18.63-56.06-2.13-14.38-2.87-28.84-2.5-43.35,1.3-51.37,36.63-94.83,86.83-105.83,41.12-9.01,77.06,1.84,107.84,30.25,9.29,8.58,17.08,18.45,23.72,29.2.32.52.67,1.01,1.2,1.82h0Z"/>
</svg>