<?xml version="1.0" encoding="UTF-8"?>
<svg id="Layer_1" data-name="Layer 1" xmlns="http://www.w3.org/2000/svg" viewBox="0 0 512 512">
  <defs>
    <style>
      .cls-1 {
        fill: #fff;
        stroke-width: 0px;
      }
    </style>
  </defs>
  <path class="cls-1" d="m452.86,115.4l-.06-5.89H106.77v56.98h-48.63l.02,211.95.04.54c1.03,8.69,6.49,23.42,20.31,23.46,8.33.04,42,.06,102.97.06,88.31,0,205.34-.04,238.46-.06,9.22,0,17.87-3.13,24.33-8.85,4.68-4.14,7.56-8.96,8.49-14.3,2.3-13.05.32-238.24.1-263.89ZM106.77,372.58c0,7.26-3.93,13.88-10.01,16.94-1.53.32-6.82.95-8.43,1.03l-9.78-.02c-3.38-.01-5.53-3.37-6.83-6.66-1.16-2.95-1.68-6.12-1.68-9.29v-196.2h36.73s0,194.2,0,194.2Zm334.27,4.64c-.46,2.62-2.02,5.12-4.66,7.44-4.28,3.79-10.11,5.87-16.44,5.87-43,.02-227.45.08-306.86.04,3.59-5.18,5.59-11.46,5.59-17.99V121.41h322.33c1.05,117.98,1.51,247.5.04,255.81Z"/>
  <rect class="cls-1" x="143.85" y="265.6" width="123.04" height="90.64"/>
  <rect class="cls-1" x="290.69" y="281.29" width="125.07" height="6.58"/>
  <rect class="cls-1" x="290.69" y="314.21" width="125.07" height="6.58"/>
  <rect class="cls-1" x="290.69" y="347.12" width="125.07" height="6.58"/>
  <path class="cls-1" d="m188.53,240.34h-11.9v-49.59c0-8.85-6.13-16.46-14.58-18.09-2.97-.58-5.85-.83-8.2-.94v68.62h-11.9v-80.17l5.53-.39c.33-.03,8.16-.56,16.82,1.12,14.04,2.72,24.24,15.28,24.24,29.86v49.59h-.01Z"/>
  <polygon class="cls-1" points="256 228.73 256 240.63 205.23 240.63 205.23 159.38 253.23 159.38 253.23 171.28 217.13 171.28 217.13 194.84 244.86 194.84 244.86 206.74 217.13 206.74 217.13 228.73 256 228.73"/>
  <path class="cls-1" d="m350.31,159.38v42.93c0,8.01-2.52,15.95-7.1,22.39l-8.67,12.2c-1.67,2.33-4.32,3.74-7.12,3.74h-.02c-2.82,0-5.49-1.42-7.14-3.78l-9.06-12.86s-.04-.06-.08-.1c-.18.27-.36.54-.56.8l-8.67,12.2c-1.67,2.33-4.34,3.74-7.14,3.74h-.02c-2.82,0-5.49-1.42-7.14-3.78l-9.06-12.86c-3.57-5.04-5.43-11.02-5.43-17.27v-47.34h11.9v47.34c0,3.61,1.07,7.04,3.13,9.95l6.62,9.41,6.23-8.75c3.07-4.31,4.78-9.66,4.78-15.02v-42.93h11.9v47.34c0,3.61,1.07,7.06,3.11,9.95l6.64,9.41,6.23-8.75c3.07-4.31,4.76-9.66,4.76-15.02v-42.93h11.91Z"/>
  <path class="cls-1" d="m399.45,240.63h-25.21v-12.2h25.21c3.96,0,7.31-3.44,7.79-7.99.4-3.8-.38-7.66-2.3-11.44-1.05-2.07-3.02-3.39-5.08-3.25-16.24.76-23.51-8.25-24.28-9.28l-.21-.3c-5.85-8.86-4.89-16.72-3.04-21.76,3.29-8.98,11.69-15.02,20.92-15.02h20.75v12.2h-20.75c-4.29,0-8.23,2.86-9.78,7.11-1.25,3.43-.75,6.74,1.6,10.4.55.6,4.77,4.96,14.24,4.47,6.64-.29,13,3.53,16.19,9.8,2.99,5.88,4.23,12.23,3.59,18.39-1.13,10.77-9.56,18.9-19.62,18.9l-.02-.03Z"/>
</svg>