<?xml version="1.0" encoding="UTF-8"?>
<svg id="Layer_1" data-name="Layer 1" xmlns="http://www.w3.org/2000/svg" viewBox="0 0 512 512">
  <defs>
    <style>
      .cls-1 {
        fill: #fff;
        stroke-width: 0px;
      }
    </style>
  </defs>
  <g>
    <path class="cls-1" d="m391.49,189.31h94.3c9.3,0,16.85,7.55,16.85,16.85v106.44c0,9.3-7.55,16.85-16.85,16.85h-94.3v-140.14h0Z"/>
    <path class="cls-1" d="m120.51,326.08H26.21c-9.3,0-16.85-7.55-16.85-16.85v-106.44c0-9.3,7.55-16.85,16.85-16.85h94.3v140.14h0Z"/>
  </g>
  <path class="cls-1" d="m352.36,155.48h-192.71c-15.11,0-27.36,12.24-27.36,27.36v146.31c0,15.11,12.24,27.36,27.36,27.36h192.71c15.1,0,27.36-12.24,27.36-27.36v-146.31c0-15.11-12.26-27.36-27.36-27.36h0Zm-156.16,126.33h-7.67l-18.67-29.84c-4.11-6.54-8.03-13.26-11-19.62l-.26.08c.44,7.42.61,14.48.61,24.25v25.12h-7.15v-58.8h8.28l18.84,29.75c4.36,6.89,7.76,13.09,10.56,19.1l.16-.08c-.69-7.86-.87-15.01-.87-24.16v-24.61h7.15v58.8h.02Zm44.93-52.44h-24.08v19.55h22.24v6.28h-22.24v26.61h-7.6v-58.8h31.68v6.36Zm47.63.09h-17.97v52.34h-7.68v-52.34h-17.88v-6.46h43.53v6.46Zm10.73,13.26l-4.89.61c1.92-5.14,4.19-14.22,5.15-20.5l7.94-.79c-2.01,7.33-5.76,16.67-8.2,20.68h0Zm39.86,39.96c-5.67,0-11.87-1.66-15.01-3.75l1.92-6.36c3.4,2.09,8.37,3.83,13.61,3.83,7.76,0,12.3-4.11,12.3-10.03,0-5.49-3.14-8.63-11.08-11.69-9.6-3.4-15.53-8.37-15.53-16.66,0-9.16,7.59-15.97,19.02-15.97,6.01,0,10.37,1.4,13,2.88l-2.09,6.2c-1.92-1.05-5.85-2.8-11.17-2.8-8.02,0-11.08,4.8-11.08,8.82,0,5.49,3.59,8.2,11.69,11.34,9.95,3.83,15.01,8.63,15.01,17.27,0,9.07-6.72,16.93-20.58,16.93h-.01Z"/>
</svg>