<?xml version="1.0" encoding="UTF-8"?>
<svg id="Layer_1" data-name="Layer 1" xmlns="http://www.w3.org/2000/svg" viewBox="0 0 512 512">
  <defs>
    <style>
      .cls-1 {
        fill: #fff;
        stroke-width: 0px;
      }
    </style>
  </defs>
  <path class="cls-1" d="m466.52,140.65c-4.98-3.19-7.73-8.59-7.73-14.14,0-2.69.65-5.42,2-7.94,6.27-11.7-2.73-24.8-14.7-24.8-1.77,0-3.63.29-5.52.93-1.77.6-3.6.9-5.39.9-6.56,0-12.73-3.86-15.44-10.19-2.93-6.82-9.18-10.19-15.43-10.19-6.59,0-13.17,3.74-15.83,11.1-2.46,6.8-8.87,11.1-15.8,11.1-1.46,0-2.98-.19-4.46-.6-11.46-3.14-21.32,5.92-21.32,16.24,0,2.9.78,5.91,2.54,8.77,1.68,2.73,2.49,5.78,2.49,8.79,0,5.21-2.42,10.32-6.92,13.59-4.75,3.47-6.93,8.5-6.93,13.48,0,7.89,5.48,15.65,14.78,16.79,8.46,1.04,14.76,8.22,14.76,16.66,0,.26,0,.5-.02.76-.46,10.45,8.02,17.58,16.91,17.58,4.08,0,8.23-1.5,11.65-4.85,6.27-6.14,16.19-6.43,22.82-.65,11.02,9.6,27.86,1.51,27.86-12.55,0-.6-.03-1.22-.1-1.84-.07-.59-.08-1.16-.08-1.73,0-8.02,5.73-15.05,13.78-16.53,8.82-1.61,13.8-9.08,13.8-16.65,0-5.29-2.44-10.63-7.73-14.03h.01Zm-60.34,27.14c-14.06,0-25.45-11.39-25.45-25.45s11.39-25.45,25.45-25.45,25.45,11.39,25.45,25.45-11.41,25.45-25.45,25.45Z"/>
  <g>
    <path class="cls-1" d="m37.76,258.75c1.42-9.35,2.89-18.68,5.65-27.76,9.28-30.62,26.44-55.88,51.42-75.87,2.16-1.73,3.47-1.97,5.52.22,5.07,5.41,10.36,10.62,15.72,15.75,1.92,1.84,1.58,2.75-.42,4.16-19.13,13.51-32.72,31.34-41.01,53.22-3.93,10.36-6.5,21.04-7.47,32.1-.4,4.58-.46,4.65-5.1,4.65-8.1,0-16.2-.01-24.31-.02,0,0,0-6.45,0-6.45Z"/>
    <path class="cls-1" d="m187.83,393.72h-117.21c-4.75,0-4.29-.06-4.86-4.6-.91-7.29,1.64-12.5,7.13-17.28,6.84-5.95,12.91-12.77,19.4-19.12,1.59-1.56,2.26-3.18,2.25-5.4-.06-23.93,0-47.86-.05-71.79-.03-16.15,2.72-31.67,10.3-46.1,12.1-23.03,30.79-38.2,55.46-46.14,6.6-2.13,5.81-.33,5.69-7.83-.12-7.82,1.76-14.72,7.96-19.91,6.14-5.13,13.07-6.96,20.75-4.12,7.69,2.85,12.56,8.37,14.41,16.42.84,3.66.6,7.39.52,11.09-.05,2.02.68,2.95,2.64,3.48,16.52,4.41,30.85,12.72,42.74,24.94,13.9,14.28,22.27,31.41,25.04,51.21.98,6.98,1.13,14,1.11,21.03-.04,22.46.02,44.93-.06,67.39,0,2.44.68,4.2,2.43,5.92,8.09,7.93,16.03,16.01,24.1,23.97,1.5,1.48,2.26,3.04,2.18,5.16-.12,3.02-.06,6.05-.04,9.08.02,1.84-.79,2.71-2.66,2.6-.97-.06-1.95,0-2.93,0h-116.33.03Z"/>
    <path class="cls-1" d="m323.4,265.22c-3.52,0-7.03.01-10.55,0-3.75-.02-3.99-.17-4.32-4.21-.6-7.32-1.95-14.51-3.92-21.56-7.3-26.13-21.28-47.82-43.19-64.11-2.2-1.63-2.18-2.64-.29-4.46,5.34-5.15,10.62-10.38,15.73-15.75,1.87-1.97,3.14-1.76,5.1-.2,21.55,17.14,37.06,38.62,46.68,64.4,4.98,13.34,7.92,27.13,9.29,41.28.43,4.39.23,4.6-4.28,4.61h-10.25Z"/>
    <path class="cls-1" d="m187.89,407.44c8.58,0,17.16.03,25.75-.02,1.94-.01,3.44.34,2.95,2.71-1.68,8.17-4.49,15.76-11.22,21.27-7.14,5.86-15.45,6.33-23.85,4.3-12.53-3.02-19.79-11.41-22.3-23.97-.75-3.78-.29-4.29,3.5-4.3,8.39-.01,16.77,0,25.16,0h.01Z"/>
  </g>
</svg>