<?xml version="1.0" encoding="UTF-8"?>
<svg id="Layer_1" data-name="Layer 1" xmlns="http://www.w3.org/2000/svg" viewBox="0 0 512 512">
  <defs>
    <style>
      .cls-1 {
        fill: #fff;
        stroke-width: 0px;
      }
    </style>
  </defs>
  <path class="cls-1" d="m414.53,123.23H97.47c-25.43,0-46.12,20.69-46.12,46.12v173.28c0,25.43,20.69,46.13,46.12,46.13h317.06c25.43,0,46.12-20.69,46.12-46.13v-173.28c0-25.43-20.69-46.12-46.12-46.12h0Zm-342.55,46.12c0-14.07,11.43-25.5,25.5-25.5h317.06c14.07,0,25.5,11.43,25.5,25.5v17.91H71.98s0-17.91,0-17.91Zm368.05,173.28c0,14.07-11.43,25.5-25.5,25.5H97.47c-14.07,0-25.5-11.43-25.5-25.5v-86.64h368.05v86.64h.01Z"/>
  <g>
    <polygon class="cls-1" points="152.05 290.59 157.82 302.28 170.72 304.15 161.39 313.26 163.59 326.1 152.05 320.03 140.52 326.1 142.72 313.26 133.39 304.15 146.29 302.28 152.05 290.59"/>
    <polygon class="cls-1" points="189.39 290.59 195.15 302.28 208.05 304.15 198.72 313.26 200.92 326.1 189.39 320.03 177.85 326.1 180.05 313.26 170.72 304.15 183.62 302.28 189.39 290.59"/>
    <polygon class="cls-1" points="226.72 290.59 232.48 302.28 245.38 304.15 236.05 313.26 238.25 326.1 226.72 320.03 215.18 326.1 217.38 313.26 208.05 304.15 220.95 302.28 226.72 290.59"/>
    <polygon class="cls-1" points="264.05 290.59 269.82 302.28 282.71 304.15 273.38 313.26 275.58 326.1 264.05 320.03 252.51 326.1 254.71 313.26 245.38 304.15 258.28 302.28 264.05 290.59"/>
  </g>
  <path class="cls-1" d="m389.86,306.71c1.2-6.64,1.32-16.32-4.99-24.16-2.78-3.51-8.73-9.32-16.73-8.87-5.07.27-12.25,3.12-17.58,15.24-2.95,6.7-2.64,13.24-1.67,17.97-8.25,2.15-14.36,9.67-14.36,18.59v8.95c0,10.58,8.6,19.2,19.2,19.2h32.08c10.58,0,19.2-8.62,19.2-19.2v-8.95c0-9.2-6.52-16.92-15.16-18.77h0Zm-35.52-16.13c4.48-10.19,10.09-12.58,14.03-12.79,6.39-.31,11.43,5.01,13.28,7.34,5.38,6.7,5.14,15.31,4.06,21.14h-31.97c-.25,0-.52,0-.76.02-.89-4.1-1.22-9.84,1.36-15.72h0Zm46.56,43.86c0,8.31-6.77,15.08-15.08,15.08h-32.08c-8.31,0-15.08-6.77-15.08-15.08v-8.95c0-7.01,4.81-12.91,11.3-14.58,1.2-.33,2.48-.49,3.77-.49h32.08c1.07,0,2.12.1,3.14.33,6.81,1.44,11.94,7.51,11.94,14.75v8.95h0Z"/>
  <path class="cls-1" d="m354.19,310.42l-4.23.49c1.2-.33,2.48-.49,3.77-.49h.46Z"/>
</svg>