<?xml version="1.0" encoding="UTF-8"?>
<svg id="Layer_1" data-name="Layer 1" xmlns="http://www.w3.org/2000/svg" viewBox="0 0 512 512">
  <defs>
    <style>
      .cls-1 {
        fill: #fff;
        stroke-width: 0px;
      }
    </style>
  </defs>
  <g>
    <circle class="cls-1" cx="348.79" cy="205.22" r="75.32"/>
    <path class="cls-1" d="m315.87,297.1h65.83c36.97,0,66.99,30.02,66.99,66.99v132.82h-199.81v-132.82c0-36.97,30.02-66.99,66.99-66.99Z"/>
  </g>
  <path class="cls-1" d="m241.77,94.63c-1.75-4.35-4.88-7.47-8.59-10.21-29.13-21.56-58.21-43.17-87.3-64.78-3.22-2.39-6.66-4.24-10.74-4.5-7.1-.44-12.49,2.62-16.64,8.23-9.98,13.49-20.01,26.96-30.01,40.46-6.97,9.38-13.95,18.77-20.92,28.17-3.3,4.46-4.97,9.32-3.97,14.97.95,5.32,4,9.12,8.17,12.22,16.24,12.03,32.46,24.09,48.69,36.12,12.87,9.56,25.78,19.08,38.62,28.69,3.73,2.8,7.68,4.92,12.42,5.33,22.69-3.35,45.37-6.7,68.06-10.07,5.64-2.31,9.65-6.19,11.47-12.14.44-1.46.58-2.95.82-4.42-3.35-22.69-6.72-45.37-10.07-68.06h0Zm-151.76,14.86c16.42-22.3,32.85-44.63,49.27-66.93,4.13-5.61,13.62-.16,9.43,5.52-16.42,22.3-32.85,44.63-49.27,66.93-4.13,5.61-13.6.16-9.43-5.52Zm23.47,15.68c16.44-22.3,32.86-44.63,49.29-66.95,4.13-5.61,13.6-.15,9.43,5.52-16.42,22.32-32.85,44.63-49.29,66.95-4.11,5.61-13.6.15-9.43-5.52Zm78.84-48.58c-16.42,22.32-32.86,44.63-49.29,66.95-4.11,5.61-13.6.15-9.43-5.52,16.42-22.32,32.85-44.63,49.29-66.95,4.11-5.61,13.6-.15,9.43,5.52Zm28.15,87.19c-7.17,1.04-13.66-3.77-14.82-10.94-1.13-7.03,4.06-14.02,11.11-14.93,7.3-.97,13.76,3.95,14.77,11.22,1.02,7.23-3.79,13.6-11.05,14.66h0Z"/>
</svg>