<?xml version="1.0" encoding="UTF-8"?>
<svg id="Layer_1" data-name="Layer 1" xmlns="http://www.w3.org/2000/svg" viewBox="0 0 512 512">
  <defs>
    <style>
      .cls-1 {
        fill: #fff;
        stroke-width: 0px;
      }
    </style>
  </defs>
  <path class="cls-1" d="m256,484.56c-126.03,0-228.56-102.53-228.56-228.56S129.97,27.44,256,27.44s228.56,102.53,228.56,228.56-102.53,228.56-228.56,228.56Zm0-415.52c-103.09,0-186.95,83.87-186.95,186.95s83.87,186.95,186.95,186.95,186.95-83.87,186.95-186.95-83.87-186.95-186.95-186.95Z"/>
  <path class="cls-1" d="m290.27,272.05c4.51-1.41,8.76-3.21,12.78-5.41,11.21-6.1,19.9-14.75,26.12-25.96,6.22-11.19,9.34-24.11,9.34-38.79s-3.1-27.58-9.25-38.79c-6.15-11.19-14.84-19.83-26.03-25.94-11.21-6.1-24.2-9.15-38.98-9.15h-101.51v255.97h35.9v-108.19h53.42l54.58,108.19h42.58l-58.97-111.93h.02Zm-91.61-109.92h67.02c6.91,0,12.99,1.66,18.22,4.95,5.2,3.28,9.25,7.93,12.14,13.99,2.87,6.03,4.3,12.97,4.3,20.83s-1.43,14.82-4.3,20.85c-2.89,6.06-6.96,10.7-12.23,13.99-5.27,3.28-11.33,4.92-18.12,4.92h-67.02v-79.52h-.01Z"/>
</svg>