<?xml version="1.0" encoding="UTF-8"?>
<svg id="Layer_1" data-name="Layer 1" xmlns="http://www.w3.org/2000/svg" viewBox="0 0 512 512">
  <defs>
    <style>
      .cls-1 {
        fill: #fff;
        stroke-width: 0px;
      }
    </style>
  </defs>
  <path class="cls-1" d="m441.78,399c-2.54-10.17-8.75-16.97-14.93-23.07-13.39-13.28-26.79-26.57-40.16-39.85-16.01-15.87-32-31.75-48.03-47.6,16.99-27.67,24.19-57.92,21.36-90.02-2.03-23.11-9.28-44.71-21.56-64.16-15.03-23.78-35.17-41.85-59.89-53.7-33.52-16.03-67.98-19.16-102.47-9.26-46.97,13.47-79.8,43.55-97.54,89.39-9.52,24.53-11.84,50.41-6.92,76.91,5.9,31.73,20.75,58.83,44.14,80.56,24.8,23.05,54.54,36.07,88.39,38.69,27.5,2.14,53.68-3.25,77.95-16.09,18.25,18.27,36.54,36.51,54.84,54.72,11.68,11.64,23.37,23.27,35.03,34.91,6.47,6.47,13.69,13,24.27,15.6l1.14.28h14.02l5.13-1.67c18.65-6.04,29.98-26.51,25.23-45.63h0Zm-149.86-187.36c0,20.95-7.95,40.42-22.36,54.82-14.46,14.46-33.87,22.4-54.7,22.4h-.06c-43.15-.04-77-33.85-77.06-76.96-.06-43.15,33.81-77.08,77.12-77.22,43.21.18,77.04,33.99,77.06,76.96h0Z"/>
  <path class="cls-1" d="m264.46,179.61c-19.92,20.42-39.85,40.83-59.77,61.27-2.1,2.14-6.27,2.38-8.34,0-8.71-10.05-17.41-20.1-26.12-30.13-4.96-5.72,3.36-14.1,8.36-8.34,7.4,8.52,14.79,17.05,22.19,25.59,18.45-18.9,36.9-37.82,55.33-56.72,5.31-5.45,13.65,2.89,8.36,8.34h0Z"/>
</svg>