<?xml version="1.0" encoding="UTF-8"?>
<svg id="Layer_1" data-name="Layer 1" xmlns="http://www.w3.org/2000/svg" viewBox="0 0 512 512">
  <defs>
    <style>
      .cls-1 {
        fill: #fff;
        stroke-width: 0px;
      }
    </style>
  </defs>
  <path class="cls-1" d="m425.91,158.05h-40.09l-17.32-72.21-111.78,28.74V47.42l-127.79,11.44v99.19h-36.01l-20.49,306.53h367.15l-13.67-306.53h0ZM142.3,71.1l101.04-9.05v55.98l-6.96,1.78,6.78,38.24h-100.86v-86.95h0Zm177.6,191.82c-.13,21.4-8.98,41.11-26.95,53.42-22.01,15.03-52.68,13.2-73.17-3.63-29.38-24.15-22.54-65.41-22.54-99.14,0-8.63,13.38-8.63,13.38,0,0,15.67-.07,31.37,0,47.04.13,29.81,21.47,55.65,53.4,52.44,27.65-2.76,42.52-26.73,42.52-52.53v-46.95c0-8.63,13.38-8.63,13.38,0,0,16.45.09,32.91,0,49.36h-.02Zm-63.16-104.87l-.02-.13-4.99-28.22,4.99-1.29,101.95-26.22,13.42,55.87h-115.35Z"/>
</svg>