<?xml version="1.0" encoding="UTF-8"?>
<svg id="Layer_1" data-name="Layer 1" xmlns="http://www.w3.org/2000/svg" viewBox="0 0 512 512">
  <defs>
    <style>
      .cls-1 {
        fill: #fff;
        stroke-width: 0px;
      }
    </style>
  </defs>
  <path class="cls-1" d="m402.52,203.43c-2.21-3.29-1.69-7.71,1.23-10.4l18.49-17.01c2.75-2.53,1.66-6.95-1.98-8.05l-36.98-11.15c-4.21-1.27-6.61-5.68-5.41-9.9l10.71-37.56c.89-3.11-1.62-6.15-4.99-6.07l-38.11.89c-4.13.1-7.66-2.95-8.17-7.05l-4.74-38.21c-.44-3.51-4.55-5.39-7.69-3.51l-31.66,18.93c-3.46,2.07-7.91,1.26-10.42-1.9l-23.6-29.67c-2.06-2.6-6.01-2.58-8.06.02l-22.94,29.2c-2.47,3.15-6.88,4-10.34,1.99l-32.63-18.85c-3.1-1.79-7.11.02-7.61,3.45l-5.52,37.4c-.55,3.73-3.62,6.58-7.38,6.84l-39.58,2.81c-3.15.22-5.31,3.12-4.5,6.03l9.34,33.77c1.1,3.98-.99,8.15-4.84,9.64l-36.19,14.02c-3.36,1.3-4.23,5.46-1.64,7.89l27.94,26.26c3.21,3.02,3.39,8.07.4,11.31l-24.84,26.91c-2.24,2.43-1.38,6.24,1.72,7.57l29.2,12.54c3.14,1.35,5.09,4.54,4.85,7.95l-2.72,39.1c-.2,2.91,2.34,5.32,5.39,5.12l37.23-2.49c4.1-.27,7.75,2.59,8.46,6.65l5.43,31.24c.55,3.17,4.15,4.95,7.18,3.54l30.28-14c3.2-1.48,6.99-.7,9.35,1.92l26.88,29.89c2.11,2.34,5.81,2.26,7.81-.17l24.73-30.1c2.41-2.93,6.53-3.78,9.9-2.04l30.32,15.63c3,1.54,6.7-.13,7.35-3.32l7.3-35.8c.84-4.11,4.7-6.89,8.86-6.37l36.39,4.49c3.29.41,6.09-2.27,5.65-5.41l-5.41-38.8c-.48-3.43,1.29-6.77,4.39-8.31l32.13-15.95c2.63-1.31,3.52-4.48,1.92-6.86l-22.85-34.04h-.03Zm-146.36,108.28c-58.39,0-105.7-45.98-105.7-102.72s47.31-102.72,105.7-102.72,105.68,45.98,105.68,102.72-47.31,102.72-105.68,102.72Z"/>
  <polygon class="cls-1" points="255.08 145.72 275.72 185.61 321.88 192.01 288.48 223.06 296.37 266.9 255.08 246.2 213.8 266.9 221.68 223.06 188.28 192.01 234.44 185.61 255.08 145.72"/>
  <path class="cls-1" d="m205.27,469.01l28.32-79.75c.69-1.94-.69-3.98-2.82-4.19l-62.62-6.06c-1.49-.14-2.91.68-3.45,2.02l-29.23,72.04c-1.01,2.49,1.45,4.98,4.11,4.18l37.39-11.24c1.32-.4,2.77.03,3.62,1.07l18.88,22.88c1.64,1.98,4.93,1.45,5.78-.95h.02Z"/>
  <path class="cls-1" d="m307.62,469.01l-28.32-79.75c-.69-1.94.69-3.98,2.82-4.19l62.62-6.06c1.49-.14,2.91.68,3.45,2.02l29.23,72.04c1.01,2.49-1.45,4.98-4.11,4.18l-37.39-11.24c-1.32-.4-2.77.03-3.62,1.07l-18.88,22.88c-1.64,1.98-4.93,1.45-5.78-.95h-.02Z"/>
</svg>