<?xml version="1.0" encoding="UTF-8"?>
<svg id="Layer_1" data-name="Layer 1" xmlns="http://www.w3.org/2000/svg" viewBox="0 0 512 512">
  <defs>
    <style>
      .cls-1 {
        fill: #fff;
        stroke-width: 0px;
      }
    </style>
  </defs>
  <path class="cls-1" d="m296.41,115.49c-4.86,0-9.61.85-14.2,2.45L46.69,190.55c-3.95,1.2-7.11,4.15-8.63,8-4.9,12.44-13.8,43.42-6.35,91.75,1.23,7.96,6.91,14.49,14.56,16.96l53.21,17.17v62.06c0,5.53,4.5,10.03,10.03,10.03h29.47c5.53,0,10.03-4.5,10.03-10.03v-46.08l132.37,42.69c.24.09.49.18.76.27l2.21.71c.16.04.33.09.47.13,3.79,1.07,7.65,1.63,11.59,1.63,41.2,0,74.57-60.52,74.57-135.18s-33.37-135.18-74.57-135.18h0Zm2.85,248.73c-1.29,0-2.56-.11-3.83-.36-25.26-4.41-45.12-52.25-45.12-110.63,0-54.33,17.23-99.56,39.97-109.12,2.92-1.23,5.91-1.87,8.98-1.87,27.04,0,48.95,49.71,48.95,110.99s-21.91,110.99-48.95,110.99h0Z"/>
  <path class="cls-1" d="m416.16,213.24c17.64-9.3,35.29-18.59,52.93-27.89,11.43-6.02,1.3-23.34-10.13-17.32-17.64,9.3-35.29,18.59-52.93,27.89-11.43,6.02-1.3,23.34,10.13,17.32h0Z"/>
  <path class="cls-1" d="m413.63,263.02c19.94.17,39.88.34,59.83.51,12.91.11,12.93-19.95,0-20.06-19.94-.17-39.88-.34-59.83-.51-12.91-.11-12.93,19.95,0,20.06h0Z"/>
  <path class="cls-1" d="m406.74,311.48c17.17,10.14,34.35,20.27,51.52,30.41,11.14,6.58,21.25-10.76,10.13-17.32-17.17-10.14-34.35-20.27-51.52-30.41-11.14-6.58-21.25,10.76-10.13,17.32h0Z"/>
</svg>