<?xml version="1.0" encoding="UTF-8"?>
<svg id="Layer_1" data-name="Layer 1" xmlns="http://www.w3.org/2000/svg" viewBox="0 0 512 512">
  <defs>
    <style>
      .cls-1 {
        fill: #fff;
        stroke-width: 0px;
      }
    </style>
  </defs>
  <path class="cls-1" d="m361.68,252.78h-158.21v-45.65h83.72v-94.13H60.03v94.13h91.21v45.65h-43.24c-42.78,0-70.48,91.35-70.48,122.96v108.59h394.64v-108.59c0-31.61-27.67-122.96-70.48-122.96Zm-86.26,32.22c10.96,0,19.89,8.54,19.89,19.05s-8.93,19.04-19.89,19.04-19.92-8.56-19.92-19.04,8.93-19.05,19.92-19.05h0Zm-20.66,73.68c0,10.51-8.93,19.05-19.92,19.05s-19.92-8.54-19.92-19.05,8.93-19.04,19.92-19.04,19.92,8.54,19.92,19.04Zm-33.45-54.63c0,10.48-8.93,19.04-19.92,19.04s-19.92-8.56-19.92-19.04,8.93-19.05,19.92-19.05,19.92,8.54,19.92,19.05Zm-136.36-123.78v-48.26h173.58v48.26H84.95Zm42.43,142.82c-10.98,0-19.92-8.56-19.92-19.04s8.94-19.05,19.92-19.05,19.92,8.54,19.92,19.05-8.95,19.04-19.92,19.04Zm16.45,35.59c0-10.5,8.93-19.04,19.92-19.04s19.92,8.54,19.92,19.04-8.93,19.05-19.92,19.05-19.92-8.54-19.92-19.05Zm165.78,94.62h-149.53v-27.91h149.53v27.91Zm-3.67-75.57c-10.99,0-19.93-8.54-19.93-19.05s8.94-19.04,19.93-19.04,19.92,8.54,19.92,19.04-8.94,19.05-19.92,19.05Zm43.48-54.64c-10.99,0-19.92-8.56-19.92-19.04s8.93-19.05,19.92-19.05,19.92,8.54,19.92,19.05-8.93,19.04-19.92,19.04Z"/>
  <g>
    <circle class="cls-1" cx="429.45" cy="58.18" r="30.5"/>
    <path class="cls-1" d="m415.04,99.38h28.81c16.91,0,30.64,13.73,30.64,30.64v26.02c0,8.72-7.08,15.81-15.81,15.81h-58.47c-8.72,0-15.81-7.08-15.81-15.81v-26.02c0-16.91,13.73-30.64,30.64-30.64h0Z"/>
  </g>
</svg>