<svg xmlns="http://www.w3.org/2000/svg" xmlns:xlink="http://www.w3.org/1999/xlink" width="826" height="779" viewBox="0 0 826 779">
  <defs>
    <clipPath id="clip-Web_1920_32">
      <rect width="826" height="779"/>
    </clipPath>
  </defs>
  <g id="Web_1920_32" data-name="Web 1920 – 32" clip-path="url(#clip-Web_1920_32)">
    <rect width="826" height="779" fill="#fff"/>
    <g id="Grupo_75802" data-name="Grupo 75802" transform="translate(15325.26 22368.221)">
      <path id="Trazado_58983" data-name="Trazado 58983" d="M121.854.082,53.112,3.9A56.376,56.376,0,0,0,.082,63.188L6.406,177a11.218,11.218,0,0,0,11.835,10.576h0l158.637-8.817a11.227,11.227,0,0,0,10.588-11.823h0L181.13,53.123A56.356,56.356,0,0,0,121.854.082Z" transform="translate(-15009.666 -21974.332) rotate(3)" fill="#0f1214"/>
      <g id="Grupo_75810" data-name="Grupo 75810">
        <text id="ADMN" transform="translate(-14996.324 -21866.131)" fill="#f8f8fc" font-size="44" font-family="Heebo-Bold, Heebo" font-weight="700" letter-spacing="0.04em"><tspan x="0" y="0">ADMN</tspan></text>
        <g id="Grupo_75800" data-name="Grupo 75800" transform="translate(-15188.17 -22179.164)">
          <path id="Trazado_58979" data-name="Trazado 58979" d="M47.508,74.017A29.508,29.508,0,1,1,77.016,44.508,29.538,29.538,0,0,1,47.508,74.017Z" transform="translate(422.974 185.493)" fill="#0f1214"/>
          <path id="Trazado_58980" data-name="Trazado 58980" d="M122.966,79.017h-95.9A11.07,11.07,0,0,1,16,67.951V60.574A40.607,40.607,0,0,1,56.573,20H93.458a40.607,40.607,0,0,1,40.573,40.574v7.377A11.07,11.07,0,0,1,122.966,79.017Z" transform="translate(395.465 254.267)" fill="#0f1214"/>
          <path id="Trazado_58981" data-name="Trazado 58981" d="M1312.334,368.22h-30.186a78.141,78.141,0,0,1,4.867,26.938v113.99a33.9,33.9,0,0,1-1.992,11.224h49.885a33.675,33.675,0,0,0,33.67-33.674V424.217A56.364,56.364,0,0,0,1312.334,368.22Z" transform="translate(-907.788 -127.493)" fill="#0f1214"/>
          <path id="Trazado_58982" data-name="Trazado 58982" d="M1339.514,395.158a81.135,81.135,0,0,1,4.74-26.937H1314.2a56.489,56.489,0,0,0-56.371,56.245v62.358a33.792,33.792,0,0,0,33.8,33.8h49.883a33.9,33.9,0,0,1-2-11.224Z" transform="translate(-1186.774 -127.493)" fill="#0f1214"/>
          <path id="Trazado_58984" data-name="Trazado 58984" d="M1335.863,353.91a67.72,67.72,0,1,0,67.6,67.845v-.125A67.832,67.832,0,0,0,1335.863,353.91Z" transform="translate(-1069.881 -291.614)" fill="#0f1214"/>
          <path id="Trazado_58985" data-name="Trazado 58985" d="M1308.189,359a50.634,50.634,0,0,0,0,101.143,48.39,48.39,0,0,0,19.951-4.115,50.492,50.492,0,0,0,30.932-46.395A50.638,50.638,0,0,0,1308.438,359Z" transform="translate(-1161.052 -233.246)" fill="#0f1214"/>
          <path id="Trazado_58986" data-name="Trazado 58986" d="M1329.6,359.06a50.511,50.511,0,0,0-19.832,97.029A48.271,48.271,0,0,0,1329.6,460.2a50.634,50.634,0,1,0,5.027-101.144A48.5,48.5,0,0,0,1329.6,359.06Z" transform="translate(-944.63 -233.295)" fill="#0f1214"/>
          <path id="Trazado_58987" data-name="Trazado 58987" d="M122.966,79.017h-95.9A11.07,11.07,0,0,1,16,67.951V60.574A40.607,40.607,0,0,1,56.573,20H93.458a40.607,40.607,0,0,1,40.573,40.574v7.377A11.07,11.07,0,0,1,122.966,79.017Z" transform="translate(-16 254.267)" fill="#0f1214"/>
          <path id="Trazado_58988" data-name="Trazado 58988" d="M47.508,74.017A29.508,29.508,0,1,1,77.016,44.508,29.538,29.538,0,0,1,47.508,74.017Z" transform="translate(11.51 187.614)" fill="#0f1214"/>
          <path id="Unión_155" data-name="Unión 155" d="M52.493,125.9a5.432,5.432,0,0,1-5.426-5.425v-4.914a54.88,54.88,0,0,1-10.108-4.194L33.5,114.839a5.545,5.545,0,0,1-7.657,0l-14.8-14.8a5.427,5.427,0,0,1,0-7.668l3.474-3.462A54.87,54.87,0,0,1,10.317,78.8H5.426A5.439,5.439,0,0,1,0,73.376V52.453a5.417,5.417,0,0,1,5.438-5.414h4.88a54.538,54.538,0,0,1,4.194-10.107L11.061,33.5a5.533,5.533,0,0,1-1.592-3.845,5.39,5.39,0,0,1,1.6-3.834L25.863,11.037a5.414,5.414,0,0,1,7.668,0l3.427,3.427a54.045,54.045,0,0,1,10.108-4.182V5.425A5.432,5.432,0,0,1,52.493,0H73.407a5.439,5.439,0,0,1,5.426,5.425v4.856a54.045,54.045,0,0,1,10.108,4.182l3.427-3.439a5.414,5.414,0,0,1,7.668,0L114.827,25.8a5.4,5.4,0,0,1,0,7.679l-3.439,3.45a53.758,53.758,0,0,1,4.194,10.107h4.891a5.417,5.417,0,0,1,5.438,5.414V73.376a5.422,5.422,0,0,1-5.426,5.414h-4.891A53.1,53.1,0,0,1,111.4,88.908l3.474,3.462a5.448,5.448,0,0,1,0,7.668l-14.779,14.8a5.648,5.648,0,0,1-7.692,0l-3.462-3.474a54.88,54.88,0,0,1-10.108,4.194v4.914a5.439,5.439,0,0,1-5.426,5.425ZM36.761,63.4A26.235,26.235,0,1,0,63,37.176,26.264,26.264,0,0,0,36.761,63.4Z" transform="translate(426.911)" fill="#0f1214"/>
          <path id="Trazado_58990" data-name="Trazado 58990" d="M147.138,117.8a29.312,29.312,0,1,0,29.312,29.311A29.314,29.314,0,0,0,147.138,117.8Zm18.611,29.312A18.614,18.614,0,1,1,147.136,128.5,18.613,18.613,0,0,1,165.749,147.112Z" transform="translate(341.874 -85.024)" fill="#0f1214"/>
        </g>
      </g>
    </g>
  </g>
</svg>
