<svg xmlns="http://www.w3.org/2000/svg" xmlns:xlink="http://www.w3.org/1999/xlink" width="826" height="779" viewBox="0 0 826 779">
  <defs>
    <clipPath id="clip-Web_1920_35">
      <rect width="826" height="779"/>
    </clipPath>
  </defs>
  <g id="Web_1920_35" data-name="Web 1920 – 35" clip-path="url(#clip-Web_1920_35)">
    <rect width="826" height="779" fill="#fff"/>
    <g id="Grupo_75814" data-name="Grupo 75814" transform="translate(6167.875 22277.908)">
      <path id="Trazado_58815" data-name="Trazado 58815" d="M17.438,9.563h165.25V67.4H17.438Z" transform="translate(-5863.481 -22021.861)" fill="#181a21"/>
      <path id="Trazado_58816" data-name="Trazado 58816" d="M17.438,15.75h165.25V48.8H17.438Z" transform="translate(-5863.481 -21937.141)" fill="#181a21"/>
      <path id="Trazado_58817" data-name="Trazado 58817" d="M17.438,20.25h165.25V53.3H17.438Z" transform="translate(-5863.481 -21875.537)" fill="#181a21"/>
      <path id="Trazado_58818" data-name="Trazado 58818" d="M190.387,24.75H25.137s0,33.05-8.262,33.05H170.454C190.387,57.8,190.387,36.111,190.387,24.75Z" transform="translate(-5871.182 -21813.934)" fill="#181a21"/>
      <g id="Grupo_75446" data-name="Grupo 75446" transform="translate(-6069.133 -22086.652)">
        <g id="Layer_x0020_1" transform="translate(628.928 87.262) rotate(91)">
          <path id="Trazado_58813" data-name="Trazado 58813" d="M45.168,35.855l84.666,58.984c-5.08,5.645-22.013,7.9-40.64-1.129-17.78-8.749-31.327-21.449-60.113-48.824a21.682,21.682,0,0,1-10.16-2.54L9.891,36.984A20.13,20.13,0,0,1,2.553,9.891,19.8,19.8,0,0,1,29.364,2.553l9.031,5.362a19.81,19.81,0,0,1,7.338,27.093C45.45,35.29,45.45,35.573,45.168,35.855Zm-15.8,68.862,9.031-5.362a19.81,19.81,0,0,0,7.338-27.093c-.282-.282-.282-.564-.564-.847L49.4,68.592c-4.233-3.669-8.749-7.9-13.829-12.418-1.976,1.975-4.233,3.951-6.491,6.209a21.682,21.682,0,0,0-10.16,2.54L9.891,70.286A20.13,20.13,0,0,0,2.553,97.379,19.8,19.8,0,0,0,29.364,104.717Zm-2.54-9.6,4.8-2.822c5.362-3.1,7.338-9.6,4.516-14.393a10.414,10.414,0,0,0-14.393-3.387l-5.08,2.822c-5.362,3.1-7.338,9.6-4.516,14.393S21.462,98.226,26.824,95.121ZM74.8,50.812,129.834,12.43c-5.08-5.644-22.013-7.9-40.64,1.129C77.906,19.2,68.31,26.259,55.61,37.548ZM26.824,12.148l4.8,2.822c5.362,3.1,7.338,9.6,4.516,14.393A10.414,10.414,0,0,1,21.744,32.75l-5.08-2.822c-5.362-3.1-7.338-9.6-4.516-14.393S21.462,9.044,26.824,12.148ZM60.69,53.635a5.644,5.644,0,1,1-5.644-5.644A5.661,5.661,0,0,1,60.69,53.635Z" transform="translate(107.269 0) rotate(90)" fill="#181a21" fill-rule="evenodd"/>
        </g>
        <path id="Trazado_58814" data-name="Trazado 58814" d="M448.425,4.5H167.5c-9.089,0-16.525,7.953-16.525,17.041V54.075H45.628A43.506,43.506,0,0,0,2.25,97.453V311.762c0,49.162,40.28,89.338,88.822,89.338H379.949c46.58,0,85-38.111,85-84.691V21.025A16.574,16.574,0,0,0,448.425,4.5ZM150.975,87.125v198.3H107.6V106.955c0-7.023-.826-13.736-3.408-19.83Zm-17.558,263.78A61,61,0,0,1,91.588,368.05,56.42,56.42,0,0,1,35.3,311.762V106.955a19.625,19.625,0,1,1,39.247,0V301.95a16.574,16.574,0,0,0,16.525,16.525h59.387C148.909,330.455,143.022,341.816,133.417,350.905Zm298.483-34.5a52.194,52.194,0,0,1-51.95,51.641h-217.3c13.22-15.389,21.379-35.012,21.379-56.288V38.583H431.9Z" transform="translate(-2.25 -4.5)" fill="#181a21"/>
        <path id="Icon_awesome-coins" data-name="Icon awesome-coins" d="M0,110.872v11.681c0,9.657,23.526,17.508,52.523,17.508s52.523-7.851,52.523-17.508V110.872c-11.3,7.96-31.951,11.681-52.523,11.681S11.3,118.833,0,110.872ZM87.538,35.015c29,0,52.523-7.851,52.523-17.508S116.535,0,87.538,0,35.015,7.851,35.015,17.508,58.541,35.015,87.538,35.015ZM0,82.176V96.292C0,105.948,23.526,113.8,52.523,113.8s52.523-7.851,52.523-17.508V82.176c-11.3,9.3-31.979,14.115-52.523,14.115S11.3,91.477,0,82.176Zm113.8,3.009c15.675-3.036,26.261-8.672,26.261-15.155V58.35c-6.346,4.486-15.675,7.55-26.261,9.438ZM52.523,43.769C23.526,43.769,0,53.562,0,65.653S23.526,87.538,52.523,87.538s52.523-9.793,52.523-21.884S81.52,43.769,52.523,43.769Zm59.991,15.4c16.413-2.954,27.547-8.754,27.547-15.4V32.088c-9.711,6.866-26.4,10.559-43.96,11.435C104.17,47.435,110.106,52.687,112.514,59.17Z" transform="translate(462.704 256.538)" fill="#181a21"/>
      </g>
    </g>
  </g>
</svg>
