<svg version="1.2" xmlns="http://www.w3.org/2000/svg" xmlns:xlink="http://www.w3.org/1999/xlink" overflow="visible" preserveAspectRatio="none" viewBox="0 0 20.000050000000005 22.00001" width="20.000050000000005" height="22.00001"><g transform="translate(0, 0)"><g transform="translate(-0.000010000000000880832, -4.440892098500626e-16) rotate(0)"><use xmlns:xlink="http://www.w3.org/1999/xlink" xlink:href="#path-1704210297382310168" filter="url(#filter-1704210298819336344)" vector-effect="non-scaling-stroke"/><path d="M18.89441,4.69671c-0.73107,-1.50256 -1.81762,-2.67333 -3.22978,-3.47966c-1.41371,-0.8078 -3.13962,-1.21705 -5.12881,-1.21705c-1.98918,0 -3.81762,0.48185 -5.36322,1.43289c-1.54663,0.9525 -2.78156,2.28502 -3.66976,3.96151c-0.89026,1.6799 -1.39207,3.61072 -1.49047,5.73935c-0.00824,0.16322 -0.01236,0.40731 -0.01236,0.72594c0,2.08088 0.3864,3.90353 1.14838,5.41876c0.75992,1.51035 1.86966,2.68746 3.29882,3.49817c1.43019,0.81169 3.16023,1.22339 5.14169,1.22339c0.81865,0 1.66409,-0.09062 2.51263,-0.26894c0.80886,-0.17004 1.48429,-0.41315 2.01031,-0.72351l-0.40752,-1.14738c-0.5018,0.2592 -1.11077,0.4687 -1.81247,0.62363c-0.75116,0.16614 -1.50953,0.24994 -2.25297,0.24994c-1.68109,0 -3.14117,-0.35761 -4.34004,-1.06309c-1.1999,-0.70597 -2.12674,-1.7335 -2.75528,-3.05286c-0.62597,-1.31401 -0.94333,-2.89891 -0.94333,-4.71084c0,-0.15883 0.00824,-0.42192 0.02473,-0.78197c0.08346,-1.9201 0.49768,-3.63703 1.23081,-5.10305c0.7357,-1.46992 1.76816,-2.62899 3.06956,-3.44409c1.30294,-0.81608 2.8372,-1.22972 4.56054,-1.22972c2.70119,0 4.7522,0.75274 6.09532,2.23727c1.339,1.48015 2.01803,3.62193 2.01803,6.3659c0,0.18173 -0.00876,0.4799 -0.02524,0.88721c-0.04173,0.90865 -0.19475,1.73837 -0.45389,2.46626c-0.26121,0.73423 -0.6373,1.32229 -1.11695,1.74811c-0.48686,0.43167 -1.07419,0.65043 -1.74601,0.65043c-0.48429,0 -0.8949,-0.16468 -1.22102,-0.48965c-0.32921,-0.32789 -0.48892,-0.89354 -0.48892,-1.72814c0,-0.2665 0.00824,-0.46675 0.02524,-0.61145l0.63009,-6.47114c-0.36682,-0.26358 -0.69809,-0.47844 -0.98455,-0.63825c-0.29418,-0.1637 -0.65018,-0.3011 -1.05925,-0.40828c-0.40855,-0.10719 -0.89593,-0.16127 -1.44874,-0.16127c-0.82844,0 -1.63112,0.27284 -2.38589,0.81072c-0.7594,0.54178 -1.40752,1.32668 -1.9253,2.33277c-0.51932,1.0095 -0.84493,2.18904 -0.96754,3.50597c-0.03297,0.41754 -0.04946,0.72059 -0.04946,0.8989c0,1.29208 0.29057,2.32302 0.8645,3.06407c0.5662,0.73179 1.38485,1.10305 2.43328,1.10305c0.60021,0 1.18959,-0.1676 1.75168,-0.49793c0.56569,-0.33228 1.06595,-0.81949 1.48738,-1.44799l0.11953,-0.17832l0.06595,0.20171c0.1999,0.61242 0.5492,1.09087 1.03916,1.42217c0.49047,0.33179 1.11386,0.50037 1.85214,0.50037c1.10768,0 2.03658,-0.29379 2.76147,-0.87259c0.73004,-0.5827 1.27924,-1.34227 1.63267,-2.25627c0.35549,-0.91985 0.55693,-1.91279 0.59815,-2.95055c0.00824,-0.17199 0.01236,-0.42826 0.01236,-0.762c0,-2.05749 -0.37197,-3.86504 -1.10562,-5.37248zM11.93355,12.89355l-0.01391,0.10865l-0.00412,0.01072c-0.3117,0.79659 -0.71149,1.40268 -1.18702,1.80024c-0.48223,0.40292 -0.97888,0.60755 -1.47605,0.60755c-0.67285,0 -1.19372,-0.24994 -1.54869,-0.74348c-0.34673,-0.48136 -0.52241,-1.17564 -0.52241,-2.06334c0,-0.25384 0.01236,-0.51839 0.03761,-0.78636c0.10819,-1.12692 0.33282,-2.09939 0.66718,-2.89014c0.33694,-0.79708 0.77074,-1.40658 1.288,-1.81194c0.52344,-0.40974 1.10716,-0.6173 1.73519,-0.6173c0.5456,0 1.0644,0.11839 1.54199,0.35225l0.06182,0.03021z" style="stroke-width: 0; stroke-linecap: butt; stroke-linejoin: miter; fill: rgb(0, 0, 0);" vector-effect="non-scaling-stroke"/></g><defs><path id="path-1704210297382310168" d="M18.89441,4.69671c-0.73107,-1.50256 -1.81762,-2.67333 -3.22978,-3.47966c-1.41371,-0.8078 -3.13962,-1.21705 -5.12881,-1.21705c-1.98918,0 -3.81762,0.48185 -5.36322,1.43289c-1.54663,0.9525 -2.78156,2.28502 -3.66976,3.96151c-0.89026,1.6799 -1.39207,3.61072 -1.49047,5.73935c-0.00824,0.16322 -0.01236,0.40731 -0.01236,0.72594c0,2.08088 0.3864,3.90353 1.14838,5.41876c0.75992,1.51035 1.86966,2.68746 3.29882,3.49817c1.43019,0.81169 3.16023,1.22339 5.14169,1.22339c0.81865,0 1.66409,-0.09062 2.51263,-0.26894c0.80886,-0.17004 1.48429,-0.41315 2.01031,-0.72351l-0.40752,-1.14738c-0.5018,0.2592 -1.11077,0.4687 -1.81247,0.62363c-0.75116,0.16614 -1.50953,0.24994 -2.25297,0.24994c-1.68109,0 -3.14117,-0.35761 -4.34004,-1.06309c-1.1999,-0.70597 -2.12674,-1.7335 -2.75528,-3.05286c-0.62597,-1.31401 -0.94333,-2.89891 -0.94333,-4.71084c0,-0.15883 0.00824,-0.42192 0.02473,-0.78197c0.08346,-1.9201 0.49768,-3.63703 1.23081,-5.10305c0.7357,-1.46992 1.76816,-2.62899 3.06956,-3.44409c1.30294,-0.81608 2.8372,-1.22972 4.56054,-1.22972c2.70119,0 4.7522,0.75274 6.09532,2.23727c1.339,1.48015 2.01803,3.62193 2.01803,6.3659c0,0.18173 -0.00876,0.4799 -0.02524,0.88721c-0.04173,0.90865 -0.19475,1.73837 -0.45389,2.46626c-0.26121,0.73423 -0.6373,1.32229 -1.11695,1.74811c-0.48686,0.43167 -1.07419,0.65043 -1.74601,0.65043c-0.48429,0 -0.8949,-0.16468 -1.22102,-0.48965c-0.32921,-0.32789 -0.48892,-0.89354 -0.48892,-1.72814c0,-0.2665 0.00824,-0.46675 0.02524,-0.61145l0.63009,-6.47114c-0.36682,-0.26358 -0.69809,-0.47844 -0.98455,-0.63825c-0.29418,-0.1637 -0.65018,-0.3011 -1.05925,-0.40828c-0.40855,-0.10719 -0.89593,-0.16127 -1.44874,-0.16127c-0.82844,0 -1.63112,0.27284 -2.38589,0.81072c-0.7594,0.54178 -1.40752,1.32668 -1.9253,2.33277c-0.51932,1.0095 -0.84493,2.18904 -0.96754,3.50597c-0.03297,0.41754 -0.04946,0.72059 -0.04946,0.8989c0,1.29208 0.29057,2.32302 0.8645,3.06407c0.5662,0.73179 1.38485,1.10305 2.43328,1.10305c0.60021,0 1.18959,-0.1676 1.75168,-0.49793c0.56569,-0.33228 1.06595,-0.81949 1.48738,-1.44799l0.11953,-0.17832l0.06595,0.20171c0.1999,0.61242 0.5492,1.09087 1.03916,1.42217c0.49047,0.33179 1.11386,0.50037 1.85214,0.50037c1.10768,0 2.03658,-0.29379 2.76147,-0.87259c0.73004,-0.5827 1.27924,-1.34227 1.63267,-2.25627c0.35549,-0.91985 0.55693,-1.91279 0.59815,-2.95055c0.00824,-0.17199 0.01236,-0.42826 0.01236,-0.762c0,-2.05749 -0.37197,-3.86504 -1.10562,-5.37248zM11.93355,12.89355l-0.01391,0.10865l-0.00412,0.01072c-0.3117,0.79659 -0.71149,1.40268 -1.18702,1.80024c-0.48223,0.40292 -0.97888,0.60755 -1.47605,0.60755c-0.67285,0 -1.19372,-0.24994 -1.54869,-0.74348c-0.34673,-0.48136 -0.52241,-1.17564 -0.52241,-2.06334c0,-0.25384 0.01236,-0.51839 0.03761,-0.78636c0.10819,-1.12692 0.33282,-2.09939 0.66718,-2.89014c0.33694,-0.79708 0.77074,-1.40658 1.288,-1.81194c0.52344,-0.40974 1.10716,-0.6173 1.73519,-0.6173c0.5456,0 1.0644,0.11839 1.54199,0.35225l0.06182,0.03021z" vector-effect="non-scaling-stroke"/><filter height="113.63635743801935%" id="filter-1704210298819336344" width="114.99996250009374%" x="-0%" y="-0%" vector-effect="non-scaling-stroke"><feFlood flood-opacity="0" result="backgroundFix" vector-effect="non-scaling-stroke"/><feColorMatrix in="SourceAlpha" result="hardAlpha" type="matrix" values="0 0 0 0 0 0 0 0 0 0 0 0 0 0 0 0 0 0 127 0" vector-effect="non-scaling-stroke"/><feOffset dx="1" dy="1" vector-effect="non-scaling-stroke"/><feGaussianBlur stdDeviation="0.8333333333333333" vector-effect="non-scaling-stroke"/><feColorMatrix in="" result="" type="matrix" values="0 0 0 0 0  0 0 0 0 0  0 0 0 0 0  0 0 0 0.2 0" vector-effect="non-scaling-stroke"/><feBlend in2="backgroundFix" mode="normal" result="shadowOuter_1" vector-effect="non-scaling-stroke"/></filter></defs></g></svg>