<svg xmlns="http://www.w3.org/2000/svg" xmlns:xlink="http://www.w3.org/1999/xlink" width="826" height="779" viewBox="0 0 826 779">
  <defs>
    <clipPath id="clip-Web_1920_44">
      <rect width="826" height="779"/>
    </clipPath>
  </defs>
  <g id="Web_1920_44" data-name="Web 1920 – 44" clip-path="url(#clip-Web_1920_44)">
    <rect width="826" height="779" fill="#fff"/>
    <g id="Grupo_75843" data-name="Grupo 75843" transform="translate(6220.862 21782.313)">
      <path id="Trazado_58763" data-name="Trazado 58763" d="M1329,391.688a70.684,70.684,0,0,1,4.129-23.468h-26.182a49.214,49.214,0,0,0-49.111,49v54.327a29.439,29.439,0,0,0,29.445,29.445h43.459a29.454,29.454,0,0,1-1.74-9.779Z" transform="translate(-7265.227 -21755.406)" fill="#101315"/>
      <path id="Trazado_58764" data-name="Trazado 58764" d="M106.161.071,46.272,3.4A49.116,49.116,0,0,0,.071,55.05l5.51,99.157a9.773,9.773,0,0,0,10.311,9.214h0L154.1,155.739a9.781,9.781,0,0,0,9.225-10.3h0L157.8,46.282A49.1,49.1,0,0,0,106.161.071Z" transform="translate(-5928.123 -21418.459) rotate(3)" fill="#101315"/>
      <path id="Trazado_58765" data-name="Trazado 58765" d="M1327.127,353.91a59,59,0,1,0,58.891,59.107v-.109A59.1,59.1,0,0,0,1327.127,353.91Z" transform="translate(-7179.037 -21896.549)" fill="#101315"/>
      <path id="Trazado_58766" data-name="Trazado 58766" d="M1301.994,359a44.113,44.113,0,0,0,0,88.118,42.166,42.166,0,0,0,17.381-3.585,43.98,43.98,0,0,0,26.947-40.419A44.116,44.116,0,0,0,1302.211,359Z" transform="translate(-7243.105 -21846.354)" fill="#101315"/>
      <path id="Trazado_58767" data-name="Trazado 58767" d="M1308.449,368.22h-26.3a68.078,68.078,0,0,1,4.24,23.468V491a29.55,29.55,0,0,1-1.734,9.779h43.459a29.339,29.339,0,0,0,29.334-29.337V417.005A49.1,49.1,0,0,0,1308.449,368.22Z" transform="translate(-6955.896 -21755.406)" fill="#101315"/>
      <path id="Trazado_58768" data-name="Trazado 58768" d="M1329,391.688a70.684,70.684,0,0,1,4.129-23.468h-26.182a49.214,49.214,0,0,0-49.111,49v54.327a29.439,29.439,0,0,0,29.445,29.445h43.459a29.454,29.454,0,0,1-1.74-9.779Z" transform="translate(-7181.489 -21755.406)" fill="#101315"/>
      <path id="Trazado_58769" data-name="Trazado 58769" d="M106.161.071,46.272,3.4A49.116,49.116,0,0,0,.071,55.05l5.51,99.157a9.773,9.773,0,0,0,10.311,9.214h0L154.1,155.739a9.781,9.781,0,0,0,9.225-10.3h0L157.8,46.282A49.1,49.1,0,0,0,106.161.071Z" transform="translate(-5830.046 -21418.459) rotate(3)" fill="#101315"/>
      <path id="Trazado_58770" data-name="Trazado 58770" d="M1327.127,353.91a59,59,0,1,0,58.891,59.107v-.109A59.1,59.1,0,0,0,1327.127,353.91Z" transform="translate(-7080.961 -21896.549)" fill="#101315"/>
      <path id="Trazado_58771" data-name="Trazado 58771" d="M1323.076,359.052a44.005,44.005,0,0,0-17.277,84.533,42.051,42.051,0,0,0,17.277,3.585,44.113,44.113,0,1,0,4.379-88.118A42.254,42.254,0,0,0,1323.076,359.052Z" transform="translate(-6987.587 -21846.424)" fill="#101315"/>
      <path id="Trazado_59114" data-name="Trazado 59114" d="M44.28,67.558A26.279,26.279,0,1,1,70.56,41.279,26.306,26.306,0,0,1,44.28,67.558Z" transform="translate(-5790.172 -21376.16)" fill="#f8f8fc"/>
      <path id="Trazado_59115" data-name="Trazado 59115" d="M111.265,72.558H25.855A9.858,9.858,0,0,1,16,62.7v-6.57A36.164,36.164,0,0,1,52.135,20h32.85A36.164,36.164,0,0,1,121.12,56.134V62.7A9.858,9.858,0,0,1,111.265,72.558Z" transform="translate(-5814.47 -21315.459)" fill="#f8f8fc"/>
      <path id="Trazado_59116" data-name="Trazado 59116" d="M44.28,67.558A26.279,26.279,0,1,1,70.56,41.279,26.306,26.306,0,0,1,44.28,67.558Z" transform="translate(-5880.939 -21376.16)" fill="#f8f8fc"/>
      <path id="Trazado_59117" data-name="Trazado 59117" d="M111.265,72.558H25.855A9.858,9.858,0,0,1,16,62.7v-6.57A36.164,36.164,0,0,1,52.135,20h32.85A36.164,36.164,0,0,1,121.12,56.134V62.7A9.858,9.858,0,0,1,111.265,72.558Z" transform="translate(-5905.236 -21315.459)" fill="#f8f8fc"/>
      <path id="Trazado_59119" data-name="Trazado 59119" d="M109.19,71.416H25.64A9.644,9.644,0,0,1,16,61.776V55.348A35.378,35.378,0,0,1,51.348,20H83.483a35.378,35.378,0,0,1,35.348,35.348v6.427A9.644,9.644,0,0,1,109.19,71.416Z" transform="translate(-5659.99 -21366.877)" fill="#101315"/>
      <path id="Trazado_59120" data-name="Trazado 59120" d="M43.708,66.416A25.708,25.708,0,1,1,69.415,40.708,25.734,25.734,0,0,1,43.708,66.416Z" transform="translate(-5636.281 -21424.33)" fill="#101315"/>
      <path id="Trazado_59121" data-name="Trazado 59121" d="M109.19,71.416H25.64A9.644,9.644,0,0,1,16,61.776V55.348A35.378,35.378,0,0,1,51.348,20H83.483a35.378,35.378,0,0,1,35.348,35.348v6.427A9.644,9.644,0,0,1,109.19,71.416Z" transform="translate(-6090.158 -21361.387)" fill="#101315"/>
      <path id="Trazado_59122" data-name="Trazado 59122" d="M43.708,66.416A25.708,25.708,0,1,1,69.415,40.708,25.734,25.734,0,0,1,43.708,66.416Z" transform="translate(-6066.449 -21418.84)" fill="#101315"/>
    </g>
  </g>
</svg>
