<svg xmlns="http://www.w3.org/2000/svg" xmlns:xlink="http://www.w3.org/1999/xlink" width="826" height="779" viewBox="0 0 826 779">
  <defs>
    <clipPath id="clip-Web_1920_53">
      <rect width="826" height="779"/>
    </clipPath>
  </defs>
  <g id="Web_1920_53" data-name="Web 1920 – 53" clip-path="url(#clip-Web_1920_53)">
    <rect width="826" height="779" fill="#fff"/>
    <g id="Grupo_75878" data-name="Grupo 75878" transform="translate(231.979 195.756)">
      <path id="path174" d="M1164.158-1237.281h-12.109v127.174h12.109Z" transform="translate(-1130.846 1412.896)" fill="#0f1215"/>
      <path id="path184" d="M1524.2-1110.105h12.111v-127.174H1524.2Z" transform="translate(-1194.157 1412.896)" fill="#0f1215"/>
      <g id="Grupo_75877" data-name="Grupo 75877">
        <path id="path172" d="M1477.732-1073.432H1138.611v-12.111h339.121Zm-311.871-36.336h284.621v12.111H1165.861Zm-.066-199.844c-3.475,0-5.164-.594-5.863-.936.295-.746,1.193-2.387,3.92-4.826l130.092-116.248c7.711-6.887,20.742-6.893,28.449,0l130.094,116.246c2.73,2.438,3.629,4.086,3.924,4.828-.7.344-2.393.938-5.863.938H1205.221v12.111h15.139v175.619h-30.277v-187.73ZM1341.48-1146.1h-66.619a12.113,12.113,0,0,0-12.111,12.1v12.123h-30.275v-151.4h136.252v-12.111H1232.475V-1297.5h151.391v175.619h-30.279V-1134a12.108,12.108,0,0,0-12.105-12.1m0,24.223h-66.613v-12.111h66.613Zm84.781,0h-30.279V-1297.5h30.279Zm51.48,24.223h-15.145v-12.123a12.11,12.11,0,0,0-12.1-12.1h-12.123V-1297.5h12.18c12.264,0,16.156-5.418,17.389-8.641,1.244-3.252,1.928-9.949-7.375-18.264l-130.094-116.252c-12.293-10.984-32.295-10.988-44.594,0l-130.094,116.246c-9.3,8.318-8.615,15.018-7.375,18.27,1.234,3.223,5.127,8.641,17.391,8.641h12.176v175.619h-12.119a12.109,12.109,0,0,0-12.1,12.1v12.123H1138.6a12.106,12.106,0,0,0-12.1,12.1v24.232h363.344v-24.232a12.109,12.109,0,0,0-12.1-12.1" transform="translate(-1126.498 1448.895)" fill="#0f1215"/>
        <g id="g186" transform="translate(154.422 237.092)">
          <path id="path188" d="M-9.932,0H-52.325c-3.331,0-6.053,2.259-6.053,5.038V65.7h54.5V5.038C-3.876,2.259-6.6,0-9.932,0" transform="translate(58.378)" fill="none" stroke="#0f1215" stroke-width="10"/>
        </g>
        <g id="Elipse_1914" data-name="Elipse 1914" transform="translate(166.368 202.123)" fill="#fff" stroke="#0f1215" stroke-width="10">
          <circle cx="16.642" cy="16.642" r="16.642" stroke="none"/>
          <circle cx="16.642" cy="16.642" r="11.642" fill="none"/>
        </g>
      </g>
    </g>
  </g>
</svg>
