<svg xmlns="http://www.w3.org/2000/svg" xmlns:xlink="http://www.w3.org/1999/xlink" width="826" height="779" viewBox="0 0 826 779">
  <defs>
    <clipPath id="clip-Web_1920_49">
      <rect width="826" height="779"/>
    </clipPath>
  </defs>
  <g id="Web_1920_49" data-name="Web 1920 – 49" clip-path="url(#clip-Web_1920_49)">
    <rect width="826" height="779" fill="#fff"/>
    <path id="path5762" d="M228.8,441.575a175.225,175.225,0,0,0,14.053-13.532c7.853-8.341,15.528-18.989,17.37-34.027l7.973-2.139c14.867-3.986,24.194-19.295,20.219-34.133-3.348-12.495-15.057-20.561-27.55-20.409,2.433-47.616-31.053-61.463-70.35-61.787-1.96-.129-3.9-.154-5.836-.154h0c-37.7.484-69.481,29.42-64.966,61.943-12.327.026-23.769,8.048-27.081,20.411-3.974,14.838,5.352,30.147,20.219,34.133l7.973,2.138c1.842,15.04,9.517,25.689,17.37,34.029a175.607,175.607,0,0,0,13.931,13.427l-13.41-2.329a24.064,24.064,0,0,0-27.966,23.5v2.866l-61.387,23.92a8.886,8.886,0,0,0-4.134,3.284C19.717,530.266,4.074,579.47,4.074,627.632c0,18.209,1.988,34.4,10.37,49.055,8.089,14.14,21.691,26.088,42.679,37.537l.191,68.683A26.9,26.9,0,0,0,84.1,809.553H297.53a26.874,26.874,0,0,0,25.152-17.787H368.7a8.892,8.892,0,0,0,8.859-8.929V618.772c0-48.164-16.026-89.071-41.151-126.057a8.954,8.954,0,0,0-4.152-3.284l-61.37-23.915v-2.885a24.063,24.063,0,0,0-27.966-23.5ZM194.75,293.232c28.628.129,54.919,16.914,48.62,43.7l-1.32,4.378a58.651,58.651,0,0,1-25.378-.232,8.883,8.883,0,0,0-11.447-8.5,208.563,208.563,0,0,1-66.876,7.8l-.677-3.456c-4.854-38.173,26.5-43.5,52.858-43.6,1.416-.078,2.813-.1,4.221-.1Zm2.345,59.823a77.6,77.6,0,0,0,37.451,7.1,8.887,8.887,0,0,0,16.832,5.455l4.117-9.31,2.97-.8c5.874-1.576,11.344,1.651,12.75,6.9s-1.749,10.706-7.626,12.281l-14.174,3.8a8.893,8.893,0,0,0-6.566,9.188c-.145,13.377-5.135,19.795-13.01,28.159a95.712,95.712,0,0,1-21.07,17.926A89.013,89.013,0,0,1,190.789,436h-.07a70.069,70.069,0,0,1-18.378-2.171c-8.311-4.414-14.885-11.614-21.209-17.995-7.992-8.488-12.941-14.964-12.941-28.748h-.018a8.9,8.9,0,0,0-6.549-8.6l-14.173-3.8c-5.877-1.576-9.032-7.032-7.626-12.282s6.876-8.471,12.75-6.9l2.953.8,4.134,9.31a8.89,8.89,0,1,0,16.276-7.156c17.345-1.53,35.848-2.185,51.156-5.4Zm-6.305,100.732c.041,0,.08,0,.122,0a17.8,17.8,0,1,1-.122,0Zm-56.159,2.779a5.457,5.457,0,0,1,1.077.1l21.383,3.716a35.273,35.273,0,0,0-.018,22.339l-21.366,3.752a5.978,5.978,0,0,1-7.157-6.045V462.644a5.892,5.892,0,0,1,6.08-6.079Zm112.369,0a5.877,5.877,0,0,1,6.08,6.079v17.787a5.979,5.979,0,0,1-7.157,6.045l-21.366-3.752a35.269,35.269,0,0,0-.018-22.338l21.383-3.717a5.135,5.135,0,0,1,1.077-.1Zm36.27,32.882a330.773,330.773,0,0,0-12.455,30.85c-7.715,22.426-14.786,49.983-8.546,73.269,4.737,11.3,10.506,23.076,18.777,29.6,6.7,5.123,14.645,7.861,23.311,8.807l2.1,10.822.07,140.04a8.869,8.869,0,0,1-9,8.929H84.1a8.868,8.868,0,0,1-9-8.929l-.156-61.37a105.379,105.379,0,0,0,26.942,3.786h8.859v21.992a8.893,8.893,0,0,0,8.928,8.928h26.664v8.876a8.894,8.894,0,0,0,8.928,8.929h80.026a8.892,8.892,0,0,0,8.859-8.929V722l25.743,3.908c13.964,2.1,27.636-8.526,27.636-23.1V676.146a23.7,23.7,0,0,0-28.105-23.033L244.151,656.9V631.644A26.776,26.776,0,0,0,217.5,604.979H137.479a26.851,26.851,0,0,0-26.733,26.664v5.333l-10.492-3.44-16.485-57.7a8.912,8.912,0,0,0-17.127,4.932L84.43,643a8.858,8.858,0,0,0,5.767,6.028c18.672,6,56.141,18.2,56.141,18.2v40.23H101.887c-9.249,0-26.657-3.784-34.133-7.747-20.594-10.92-31.676-21.055-37.885-31.91s-8.008-23.275-8.008-40.177c0-43.457,14.477-88.615,37.086-122.756l22.825-8.929a309.127,309.127,0,0,1,12.246,30.119c7.237,21.035,12.433,46.836,8.129,62.9a8.9,8.9,0,0,0,17.2,4.6c6.239-23.286-.814-50.843-8.529-73.269a331.194,331.194,0,0,0-12.455-30.85l12.733-4.967a24.235,24.235,0,0,0,17.666,19.037,142.735,142.735,0,0,0,6.809,32.8c7.258,21.185,23.008,45.454,53.414,50.688a1.584,1.584,0,0,0,.21.026c.047.007.093.009.137.017a9.476,9.476,0,0,0,2.97,0c30.634-5.106,46.476-29.473,53.762-50.738a142.748,142.748,0,0,0,6.809-32.8,24.232,24.232,0,0,0,17.666-19.057Zm39.414,15.407c22.9,34.311,37.086,70.516,37.086,113.915V738.383H324.351c.08-32.32-.158-63.981-.158-96.44a8.9,8.9,0,0,0-.137-1.7l-8.86-45.826a8.894,8.894,0,0,0-10.44-7.1v.018a8.893,8.893,0,0,0-7.035,10.422l3.023,15.582a24.665,24.665,0,0,1-8.928-4.273c-4.821-3.687-8.931-9.951-12.333-20.289-4.232-16.072.915-41.736,8.129-62.709a308.834,308.834,0,0,1,12.264-30.137Zm-154.632-5.993a35.308,35.308,0,0,0,45.493,0L235.1,502.6a124.439,124.439,0,0,1-5.854,27.931c-6.049,17.655-16.7,34.46-38.423,38.736-21.733-4.271-32.391-21.077-38.441-38.736A124.405,124.405,0,0,1,146.53,502.6Zm22.773,17.2a8.9,8.9,0,1,0,8.859,8.877A8.894,8.894,0,0,0,190.824,516.059Zm0,26.663a8.894,8.894,0,1,0,8.859,8.86A8.894,8.894,0,0,0,190.824,542.723ZM137.48,622.767a8.642,8.642,0,0,1,8.859,8.877v17.005l-17.787-5.837V631.643a8.7,8.7,0,0,1,8.928-8.877Zm25.1,0h54.925a8.642,8.642,0,0,1,8.859,8.877V756.172H164.126V631.643a26.363,26.363,0,0,0-1.546-8.877Zm111.414,47.682a5.451,5.451,0,0,1,5.75,5.7v26.664c0,3.827-2.992,6.143-7.226,5.506l-28.366-4.256V674.9l28.835-4.325a6.978,6.978,0,0,1,1.007-.13Zm-145.443,54.8h17.786v13.132H128.55Zm195.765,30.92h35.453v17.8H324.264Z" transform="translate(222.987 -152.93)" fill="#0f1215"/>
  </g>
</svg>
