<svg xmlns="http://www.w3.org/2000/svg" xmlns:xlink="http://www.w3.org/1999/xlink" width="826" height="779" viewBox="0 0 826 779">
  <defs>
    <clipPath id="clip-Web_1920_59">
      <rect width="826" height="779"/>
    </clipPath>
  </defs>
  <g id="Web_1920_59" data-name="Web 1920 – 59" clip-path="url(#clip-Web_1920_59)">
    <rect width="826" height="779" fill="#fff"/>
    <g id="Grupo_75902" data-name="Grupo 75902" transform="translate(6272.988 20889.453)">
      <path id="Trazado_56674" data-name="Trazado 56674" d="M167.8,77.86v7.581a82.4,82.4,0,1,1-48.863-75.312" transform="translate(-5944.54 -20641.566)" fill="none" stroke="#000" stroke-linecap="round" stroke-linejoin="round" stroke-width="10"/>
      <path id="Trazado_56675" data-name="Trazado 56675" d="M120.619,6,38.22,88.481,13.5,63.761" transform="translate(-5897.359 -20628.098)" fill="none" stroke="#000" stroke-linecap="round" stroke-linejoin="round" stroke-width="10"/>
      <path id="Icon_awesome-star" data-name="Icon awesome-star" d="M35.724,2.557,26.35,21.567,5.375,24.625a4.6,4.6,0,0,0-2.541,7.84L18.009,47.254,14.42,68.145a4.591,4.591,0,0,0,6.661,4.839L39.845,63.12l18.764,9.864a4.6,4.6,0,0,0,6.661-4.839L61.68,47.254,76.855,32.465a4.6,4.6,0,0,0-2.541-7.84L53.339,21.567,43.965,2.557A4.6,4.6,0,0,0,35.724,2.557Z" transform="translate(-6070.992 -20434.77)" stroke="#000" stroke-width="1"/>
      <path id="Icon_awesome-star-2" data-name="Icon awesome-star" d="M35.724,2.557,26.35,21.567,5.375,24.625a4.6,4.6,0,0,0-2.541,7.84L18.009,47.254,14.42,68.145a4.591,4.591,0,0,0,6.661,4.839L39.845,63.12l18.764,9.864a4.6,4.6,0,0,0,6.661-4.839L61.68,47.254,76.855,32.465a4.6,4.6,0,0,0-2.541-7.84L53.339,21.567,43.965,2.557A4.6,4.6,0,0,0,35.724,2.557Z" transform="translate(-5985.08 -20434.77)" stroke="#000" stroke-width="1"/>
      <path id="Icon_awesome-star-3" data-name="Icon awesome-star" d="M35.724,2.557,26.35,21.567,5.375,24.625a4.6,4.6,0,0,0-2.541,7.84L18.009,47.254,14.42,68.145a4.591,4.591,0,0,0,6.661,4.839L39.845,63.12l18.764,9.864a4.6,4.6,0,0,0,6.661-4.839L61.68,47.254,76.855,32.465a4.6,4.6,0,0,0-2.541-7.84L53.339,21.567,43.965,2.557A4.6,4.6,0,0,0,35.724,2.557Z" transform="translate(-5899.152 -20434.77)" stroke="#000" stroke-width="1"/>
      <path id="Icon_awesome-star-4" data-name="Icon awesome-star" d="M35.724,2.557,26.35,21.567,5.375,24.625a4.6,4.6,0,0,0-2.541,7.84L18.009,47.254,14.42,68.145a4.591,4.591,0,0,0,6.661,4.839L39.845,63.12l18.764,9.864a4.6,4.6,0,0,0,6.661-4.839L61.68,47.254,76.855,32.465a4.6,4.6,0,0,0-2.541-7.84L53.339,21.567,43.965,2.557A4.6,4.6,0,0,0,35.724,2.557Z" transform="translate(-5813.255 -20434.77)" stroke="#000" stroke-width="1"/>
      <path id="Icon_awesome-star-5" data-name="Icon awesome-star" d="M35.724,2.557,26.35,21.567,5.375,24.625a4.6,4.6,0,0,0-2.541,7.84L18.009,47.254,14.42,68.145a4.591,4.591,0,0,0,6.661,4.839L39.845,63.12l18.764,9.864a4.6,4.6,0,0,0,6.661-4.839L61.68,47.254,76.855,32.465a4.6,4.6,0,0,0-2.541-7.84L53.339,21.567,43.965,2.557A4.6,4.6,0,0,0,35.724,2.557Z" transform="translate(-5727.375 -20434.77)" stroke="#000" stroke-width="1"/>
    </g>
  </g>
</svg>
