<svg xmlns="http://www.w3.org/2000/svg" xmlns:xlink="http://www.w3.org/1999/xlink" width="826" height="779" viewBox="0 0 826 779">
  <defs>
    <clipPath id="clip-Web_1920_8">
      <rect width="826" height="779"/>
    </clipPath>
  </defs>
  <g id="Web_1920_8" data-name="Web 1920 – 8" clip-path="url(#clip-Web_1920_8)">
    <rect width="826" height="779" fill="#fff"/>
    <g id="Grupo_75704" data-name="Grupo 75704" transform="translate(262.709 221.006)">
      <path id="Trazado_56370" data-name="Trazado 56370" d="M252.768,1759.6a53.275,53.275,0,0,1-53.218-53.219v-33.164a7.97,7.97,0,1,1,15.939,0v33.164a37.278,37.278,0,1,0,74.557,0h0v-30.44a8.262,8.262,0,0,1-.515-2.724,8.022,8.022,0,0,1,8.022-7.971h.462a8.015,8.015,0,0,1,7.97,7.971v33.164A53.272,53.272,0,0,1,252.768,1759.6Zm-45.248-90.5a4.061,4.061,0,0,0-4.062,4.062h0v33.165a49.311,49.311,0,0,0,98.621,0v-33.165a4.111,4.111,0,0,0-4.063-4.062h-.462a4.064,4.064,0,0,0-4.114,4.012v.05a4.166,4.166,0,0,0,.308,1.593v31.622a41.135,41.135,0,1,1-82.269,0v-33.164A4.111,4.111,0,0,0,207.519,1669.107Z" transform="translate(-101.956 -1535.22)" fill="#fff"/>
    </g>
    <g id="Grupo_75713" data-name="Grupo 75713" transform="translate(14193.097 12701.599)">
      <path id="Trazado_477" data-name="Trazado 477" d="M239.64,352.65l-.14.289Z" transform="translate(-13990.051 -12579.421)" fill="#0f1315"/>
      <path id="Trazado_479" data-name="Trazado 479" d="M239.27,353.27l-.14.255Z" transform="translate(-13989.979 -12579.549)" fill="#0f1315"/>
    </g>
    <g id="Grupo_75723" data-name="Grupo 75723" transform="translate(13982.052 23886.699)">
      <path id="Trazado_60105" data-name="Trazado 60105" d="M117.994-206.977c-16.679,9.023-19.96,27.889-7.109,40.739,11.21,10.937,24.881,10.937,36.091,0,4.648-4.648,7.929-10.937,7.929-15.037C154.906-201.782,134.672-216.273,117.994-206.977Z" transform="translate(-13697.146 -23542.848)"/>
      <path id="Trazado_60106" data-name="Trazado 60106" d="M137.524-199.678C93.777-188.741,59.6-156.751,46.476-113.551c-6.562,20.506-7.382,41.286-1.641,41.286,2.461,0,4.648-6.562,6.835-19.96,4.1-25.155,13.124-44.567,28.162-60.973,21.6-23.24,45.661-35.817,75.19-39.1,11.484-1.094,15.858-2.734,15.858-5.742C170.881-203.506,156.117-204.326,137.524-199.678Z" transform="translate(-13807.248 -23530.465)"/>
      <path id="Trazado_60107" data-name="Trazado 60107" d="M137.069-200.33c-3.007,5.195,1.641,8.2,12.578,8.2,14.218,0,41.559,9.3,55.5,19.139,28.435,19.413,45.661,46.755,51.129,81.205,2.187,13.4,4.374,19.96,6.835,19.96,5.742,0,4.922-20.78-1.64-41.287a127,127,0,0,0-95.15-86.947C148.279-203.884,139.256-203.884,137.069-200.33Z" transform="translate(-13637.041 -23530.895)"/>
      <path id="Trazado_60108" data-name="Trazado 60108" d="M121.605-183.388a50.116,50.116,0,0,0-26.8,38.552c-1.367,10.39-.82,13.4,4.1,18.319,5.2,5.195,8.749,5.742,45.388,5.742s40.192-.547,45.387-5.742c12.851-12.851-.547-46.208-22.694-56.871C151.681-190.77,136.644-190.77,121.605-183.388Z" transform="translate(-13712.472 -23506.559)"/>
      <path id="Trazado_60109" data-name="Trazado 60109" d="M47.754-139.38c-15.585,6.835-19.413,25.975-7.929,39.645,5.742,7.109,9.023,8.476,18.319,8.476,12.3-.273,18.319-3.554,23.24-12.851,7.109-13.124,1.641-28.983-12.3-36.092C61.7-144.028,57.87-143.755,47.754-139.38Z" transform="translate(-13820.798 -23434.807)"/>
      <path id="Trazado_60110" data-name="Trazado 60110" d="M187.974-139.91c-13.671,7.382-18.866,22.968-11.757,35.818,4.922,9.3,10.937,12.577,23.241,12.85,27.069,0,35-36.091,10.39-47.848C199.184-144.011,195.356-144.011,187.974-139.91Z" transform="translate(-13573.124 -23434.85)"/>
      <path id="Trazado_60112" data-name="Trazado 60112" d="M51.544-116.388c-21.327,10.663-35,44.567-22.694,56.871,5.195,5.195,8.749,5.742,46.208,5.742,37.185,0,41.013-.547,45.661-5.468,3.828-4.375,4.375-7.929,3.008-18.319-2.187-17.225-12.3-31.717-26.8-38.825C81.62-123.771,66.582-123.771,51.544-116.388Z" transform="translate(-13836.437 -23401.342)"/>
      <path id="Trazado_60113" data-name="Trazado 60113" d="M191.626-116.579c-14.491,7.382-24.607,21.6-26.8,38.825-1.367,10.39-.82,13.945,3.008,18.319,4.648,4.922,8.476,5.468,45.661,5.468,36.911,0,41.013-.547,45.934-5.468,6.288-6.288,6.562-10.663,2.461-25.428A49.728,49.728,0,0,0,191.626-116.579Z" transform="translate(-13588.525 -23401.152)"/>
      <path id="Trazado_60114" data-name="Trazado 60114" d="M41-73.517c.273,39.1,28.436,84.486,64.527,103.9,23.514,12.577,60.972,20.233,65.347,12.85,3.008-4.648-.273-6.015-19.959-8.476-50.036-6.015-91.6-47.848-99.524-100.071C49.476-78.711,47.289-85,44.828-85,42.094-85,41-81.446,41-73.517Z" transform="translate(-13807.241 -23347.582)"/>
      <path id="Trazado_60115" data-name="Trazado 60115" d="M256.346-64.494C251.7-36.878,240.488-15.552,220.528,3.588c-19.412,18.592-39.372,28.436-63.98,31.17-19.412,2.461-22.42,3.828-19.412,9.023,1.367,2.187,7.109,2.734,17.772,1.641,49.215-5.2,91.869-40.739,106.633-88.588C268.1-64.22,268.923-85,263.182-85,260.721-85,258.533-78.438,256.346-64.494Z" transform="translate(-13637.136 -23347.582)"/>
      <path id="Trazado_60116" data-name="Trazado 60116" d="M116.261-56.84c-15.585,8.2-17.772,26.795-5.2,39.646,11.21,10.937,24.881,10.937,36.091,0,12.851-13.124,10.39-31.717-5.742-39.919C131.572-62.309,125.83-62.035,116.261-56.84Z" transform="translate(-13697.29 -23305.768)"/>
      <path id="Trazado_60117" data-name="Trazado 60117" d="M121.605-34.388A50.117,50.117,0,0,0,94.81,4.164c-1.367,10.39-.82,13.4,4.1,18.319,5.2,5.195,8.749,5.742,45.388,5.742s40.192-.547,45.387-5.742c12.851-12.851-.547-46.208-22.694-56.871C151.681-41.771,136.644-41.771,121.605-34.388Z" transform="translate(-13712.472 -23269.426)"/>
      <g id="Grupo_74004" data-name="Grupo 74004" transform="translate(-13618.243 -23590.854)">
        <path id="Unión_133" data-name="Unión 133" d="M122.684,139.9H2.519A2.514,2.514,0,0,1,0,137.279L5.016,39.631a2.5,2.5,0,0,1,2.5-2.366h10.83L14.855,7.742a2.516,2.516,0,0,1,2.132-2.772L58.866.02A2.459,2.459,0,0,1,60.7.53a2.548,2.548,0,0,1,.941,1.685l2.283,19.21.062-.021c0,.022.005.043.006.064l32.928-8.3a2.491,2.491,0,0,1,1.939.3,2.824,2.824,0,0,1,1.155,1.664l5.08,21.988c.018.048.033.1.047.151h12.522a2.515,2.515,0,0,1,2.523,2.366l4.992,97.647c.005.057.005.12.005.177a2.474,2.474,0,0,1-2.472,2.45ZM99.855,37.265,95.642,19.032,59.36,28.107,61.3,36.516a2.646,2.646,0,0,1,.079.749Zm-43.64,0L53.79,26.781a2.677,2.677,0,0,1,1.9-3.219l3.512-.886a2.556,2.556,0,0,1-.185-.7L57.03,5.184l-36.9,4.269,3.223,27.812Z" transform="translate(0 0)"/>
        <path id="Trazado_60130" data-name="Trazado 60130" d="M236.73,1665.629h-.177a2.31,2.31,0,0,0-2.311,2.316,2.264,2.264,0,0,0,.175.876v11.766a14.959,14.959,0,0,1-29.9,1.084c-.013-.359-.013-.725,0-1.084v-12.647a2.294,2.294,0,0,0-4.587,0V1680.6a19.605,19.605,0,0,0,39.094,0v-12.664A2.311,2.311,0,0,0,236.73,1665.629Z" transform="translate(-156.875 -1609.612)" fill="#fcfafb"/>
      </g>
    </g>
  </g>
</svg>
