<svg xmlns="http://www.w3.org/2000/svg" xmlns:xlink="http://www.w3.org/1999/xlink" width="826" height="779" viewBox="0 0 826 779">
  <defs>
    <clipPath id="clip-Web_1920_19">
      <rect width="826" height="779"/>
    </clipPath>
  </defs>
  <g id="Web_1920_19" data-name="Web 1920 – 19" clip-path="url(#clip-Web_1920_19)">
    <rect width="826" height="779" fill="#fff"/>
    <g id="Grupo_75758" data-name="Grupo 75758" transform="translate(284.2 206.002)">
      <path id="Trazado_489" data-name="Trazado 489" d="M25.41,266.238V247.886a10.343,10.343,0,1,1,20.687,0h0v70.536c0,23.827,5.275,28.969,6.236,29.708a9.64,9.64,0,0,1,1.6-.126H236.645a7.846,7.846,0,0,0,7.891-7.8V29.519a7.846,7.846,0,0,0-7.861-7.832H53.965a7.846,7.846,0,0,0-7.839,7.832v95.308a10.343,10.343,0,1,1-20.687,0V29.519A28.555,28.555,0,0,1,53.965,1H236.674a28.555,28.555,0,0,1,28.548,28.519V340.2A28.556,28.556,0,0,1,236.7,368.728H54.992A20.184,20.184,0,0,1,39.92,364.7C30.2,357.439,25.469,342.337,25.44,318.48,25.417,295.88,25.41,278.244,25.41,266.238Zm25.666,82.216Zm0,0Zm0,0Zm0,0Z" transform="translate(-7.372 -1)" fill="#17181b"/>
      <path id="Trazado_490" data-name="Trazado 490" d="M5.107,225.687l83.811,82.733a13.79,13.79,0,1,0,19.364-19.638L48.365,229.677H208.91a13.786,13.786,0,0,0,0-27.573H48.387L108.305,143a13.813,13.813,0,1,0-19.387-19.682L5.107,206.05a13.786,13.786,0,0,0,0,19.638Z" transform="translate(-0.999 -31.921)" fill="#17181b"/>
    </g>
  </g>
</svg>
