<svg xmlns="http://www.w3.org/2000/svg" xmlns:xlink="http://www.w3.org/1999/xlink" width="826" height="779" viewBox="0 0 826 779">
  <defs>
    <clipPath id="clip-Web_1920_60">
      <rect width="826" height="779"/>
    </clipPath>
  </defs>
  <g id="Web_1920_60" data-name="Web 1920 – 60" clip-path="url(#clip-Web_1920_60)">
    <rect width="826" height="779" fill="#fff"/>
    <g id="Grupo_75905" data-name="Grupo 75905" transform="translate(4112.605 20804.184)">
      <g id="pngtree-commision-vector-icon-design-illustration-png-image_8986497" transform="translate(-3903.679 -20617.912)">
        <path id="Trazado_60724" data-name="Trazado 60724" d="M508.306-1122.506a109.406,109.406,0,0,0-85.655,59.135,107.493,107.493,0,0,0-11.083,36.814c-.977,7.965-.639,22.391.714,30.055a108.136,108.136,0,0,0,21.526,49.215,108.612,108.612,0,0,0,133.668,31A94.1,94.1,0,0,0,585.133-927a108.94,108.94,0,0,0,42.414-103.234,109.34,109.34,0,0,0-23.18-52.482,133.166,133.166,0,0,0-18.858-18.223,108.083,108.083,0,0,0-53.159-21.377A161.192,161.192,0,0,0,508.306-1122.506Zm24.344,14.428a94.072,94.072,0,0,1,55.113,28.025,94.006,94.006,0,0,1,24.908,46.92c1.54,7.816,1.728,9.92,1.728,18.975.037,9.881-.413,13.824-2.4,22.166a101.094,101.094,0,0,1-12.66,29.492A95.974,95.974,0,0,1,533.1-920.16c-5.372.822-20.212.936-25.358.186a96.347,96.347,0,0,1-45.232-18.6,117.976,117.976,0,0,1-16.3-15.852,95.1,95.1,0,0,1-18.447-37.008c-2.142-8.641-2.667-13.221-2.63-22.914.038-9.016.451-12.961,2.218-20.889a95.586,95.586,0,0,1,38.319-56.691,96.2,96.2,0,0,1,42.64-16.3c1.953-.227,4.171-.486,4.884-.564C515.9-1109.131,528.931-1108.643,532.65-1108.078Z" transform="translate(-277.637 1122.868)"/>
        <path id="Trazado_60725" data-name="Trazado 60725" d="M653.481-986.23c-1.315.34-7.965,6.838-53.385,52.3-49.665,49.627-51.92,51.957-52.332,53.646a7.238,7.238,0,0,0,7.1,8.941,7.781,7.781,0,0,0,2.441-.715c1.053-.488,17.319-16.529,53.047-52.293,46.923-47,51.581-51.771,51.957-53.273A7.08,7.08,0,0,0,653.481-986.23Z" transform="translate(-362.891 1037.723)"/>
        <path id="Trazado_60726" data-name="Trazado 60726" d="M568.9-984.348a24.372,24.372,0,0,0-18.371,16.342c-4.508,13.674,3.644,28.477,17.47,31.744a32.7,32.7,0,0,0,11.8,0,24.761,24.761,0,0,0,15.892-12.586,22.268,22.268,0,0,0,2.7-11.27c0-7.213-2.065-12.209-7.139-17.318a19.806,19.806,0,0,0-6.386-4.811A24.8,24.8,0,0,0,568.9-984.348Zm9.467,14.576a10.714,10.714,0,0,1,5.6,12.359,10.436,10.436,0,0,1-17.018,5.035,9.619,9.619,0,0,1-3.457-7.74c.037-4.434,1.879-7.477,5.636-9.354a7.587,7.587,0,0,1,5.221-1.09A13.661,13.661,0,0,1,578.365-969.771Z" transform="translate(-363.964 1036.706)"/>
        <path id="Trazado_60727" data-name="Trazado 60727" d="M740.707-812.563a30.087,30.087,0,0,0-8.641,3.57,30,30,0,0,0-8.566,9.656,24.9,24.9,0,0,0,2.7,26.221,24.692,24.692,0,0,0,30.957,6.5,26.16,26.16,0,0,0,10.369-10.631,25.042,25.042,0,0,0,2.667-11.082,24.8,24.8,0,0,0-18.634-23.857A29.453,29.453,0,0,0,740.707-812.563Zm9.241,14.691c8,3.455,8.077,15.064.113,18.971a10.854,10.854,0,0,1-14.352-5.408,12.246,12.246,0,0,1,.263-8.34C738.79-798.136,744.388-800.239,749.948-797.872Z" transform="translate(-471.154 933.438)"/>
        <path id="Trazado_60728" data-name="Trazado 60728" d="M59.682-545.2a8.736,8.736,0,0,0-2.442,2.142l-1.052,1.353-.113,79.156L56-383.433l1.089,1.69a7.379,7.379,0,0,0,2.517,2.441c1.428.677,2.818.714,39.785.828,26.9.074,38.733,0,39.747-.3a8.441,8.441,0,0,0,4.621-4.019c.413-.9.526-3.532.526-10.445v-9.2h17.169l44.293,17.093,44.293,17.094,18.6-.075,18.6-.113,5.447-2.291c3.005-1.278,16.68-6.425,30.43-11.421,47.111-17.131,64.73-23.856,85.092-32.309,21.527-8.979,39.108-17.845,46.284-23.367,7.739-5.937,12.172-17.207,10.669-26.974a25.563,25.563,0,0,0-7.927-15.44c-6.086-6.125-12.66-8.605-22.917-8.605-7.626,0-14.8,1.579-23.48,5.148-2.254.938-6.161,2.4-8.641,3.306-31.858,11.383-68.186,24.232-68.487,24.232-.188,0-.075-.9.225-1.992a32.571,32.571,0,0,0,.6-6.837,25.7,25.7,0,0,0-3.456-14.238,31.423,31.423,0,0,0-16.042-14.126c-5.034-1.841-5.71-1.879-37.568-1.879H247.673l-25.659-13.449-25.7-13.412-26-.112-26.035-.074v-9.055c0-11.046-.338-12.247-3.945-13.9-1.428-.677-3.456-.714-40.386-.677C62.124-545.916,61.034-545.916,59.682-545.2Zm70.328,82.839v69.689H69.9V-462.1c0-38.207.113-69.576.263-69.689.113-.149,13.637-.263,30.055-.263h29.792Zm87.872-32.422,26.148,13.638,32.346.188,32.309.187,2.818,1.391a15.812,15.812,0,0,1,8.415,18.559,16.276,16.276,0,0,1-11.834,11.382c-1.089.265-16.079.414-42.941.414-44.18,0-42.64-.074-44.706,1.8a7.921,7.921,0,0,0-1.728,7.852,8.542,8.542,0,0,0,3.419,3.72c.864.45,8.3.525,48.012.525h47.036l24.833-8.829c13.675-4.883,25.96-9.278,27.312-9.767s5.072-1.841,8.265-2.969c23.1-8.152,35.164-12.472,37.606-13.562,16.3-7.138,30.055-5.785,34.751,3.456,1.014,1.992,1.089,2.518,1.089,6.124,0,3.719-.075,4.132-1.24,6.462-2.292,4.658-7.025,8.039-21.113,14.989-19.047,9.467-46.885,20.625-95.236,38.282-29.3,10.67-44.03,16.116-47.148,17.432l-3.156,1.353H253.271l-44.443-17.169-44.443-17.207-10.031-.111-10.068-.113v-91.63h47.449Z" transform="translate(-56 774.795)"/>
      </g>
    </g>
  </g>
</svg>
