<svg xmlns="http://www.w3.org/2000/svg" xmlns:xlink="http://www.w3.org/1999/xlink" width="826" height="779" viewBox="0 0 826 779">
  <defs>
    <clipPath id="clip-Web_1920_57">
      <rect width="826" height="779"/>
    </clipPath>
  </defs>
  <g id="Web_1920_57" data-name="Web 1920 – 57" clip-path="url(#clip-Web_1920_57)">
    <rect width="826" height="779" fill="#fff"/>
    <g id="Grupo_75894" data-name="Grupo 75894" transform="translate(6203.309 20882.355)">
      <g id="Grupo_75892" data-name="Grupo 75892" transform="translate(-6067.025 -20755)">
        <text id="_" data-name="%" transform="translate(464.734 256)" fill="#0f1215" font-size="244" font-family="Heebo-Bold, Heebo" font-weight="700" letter-spacing="0.04em"><tspan x="-90.249" y="0">%</tspan></text>
        <path id="Trazado_58834" data-name="Trazado 58834" d="M340.038,192.652c26.62,0,49.4-9.332,68.335-28.266s28.266-41.714,28.266-68.335S427.237,47,408.374,28.266C389.369,9.4,366.658,0,340.038,0s-49.056,9.4-68.06,28.266c-18.87,18.729-28.266,41.164-28.266,67.785s9.332,49.4,28.266,68.335S313.417,192.652,340.038,192.652ZM293.657,49.671c12.9-12.9,28.542-19.484,46.381-19.484,18.383,0,33.751,6.586,46.656,19.484s19.483,28.541,19.483,46.381c0,18.389-6.586,34.027-19.483,46.93s-28.272,19.209-46.656,19.209a63.432,63.432,0,0,1-46.381-19.209c-12.9-12.9-19.484-28.541-19.484-46.93C274.174,78.212,280.76,62.568,293.657,49.671Z" transform="translate(-78.823 22.679)" fill="#0f1215"/>
        <path id="Trazado_58835" data-name="Trazado 58835" d="M462.326,462.466V455.6c0-66.151-59.261-124.592-125.413-124.592H272.419c-34.044,0-63.394,13.724-87.813,37.6s-39.25,52.925-39.25,86.994V590.073c0,18.665,14.549,32.933,33.208,32.933h251.1A32.525,32.525,0,0,0,453,613.4a31.261,31.261,0,0,0,9.876-23.331V462.466C462.876,483.32,462.326,483.044,462.326,462.466ZM429.669,592.819h-251.1c-1.921,0-2.74-.819-2.74-2.746V461.916c0-26.346,8.981-49.19,27.166-68.61,18.313-19.549,40.619-30.187,66.69-32.107L291.9,390.566l-24.15,145.446,36.229,41.164,36.5-41.164-24.15-145.446L338.56,361.2c25.244,1.92,46.656,12.078,64.494,30.186s28.811,39.76,28.811,65.314v5.767l.551,127.607C432.42,592,431.589,592.819,429.669,592.819Z" transform="translate(-42.758 -98.634)" fill="#0f1215"/>
        <path id="Icon_awesome-money-bill" data-name="Icon awesome-money-bill" d="M153.645,0H8.087A8.088,8.088,0,0,0,0,8.087V88.953a8.088,8.088,0,0,0,8.087,8.087H153.645a8.088,8.088,0,0,0,8.087-8.087V8.087A8.088,8.088,0,0,0,153.645,0ZM12.13,84.909V68.736A16.172,16.172,0,0,1,28.3,84.909Zm0-56.606V12.13H28.3A16.172,16.172,0,0,1,12.13,28.3ZM80.866,72.779c-11.167,0-20.216-10.864-20.216-24.26S69.7,24.26,80.866,24.26s20.216,10.861,20.216,24.26S92.028,72.779,80.866,72.779ZM149.6,84.909H133.429A16.172,16.172,0,0,1,149.6,68.736Zm0-56.606A16.172,16.172,0,0,1,133.429,12.13H149.6Z" transform="translate(0 271.616) rotate(-90)" fill="#0f1215"/>
      </g>
      <path id="Icon_awesome-coins" data-name="Icon awesome-coins" d="M0,92.866v9.784c0,8.088,19.705,14.664,43.993,14.664s43.993-6.576,43.993-14.664V92.866c-9.463,6.668-26.762,9.784-43.993,9.784S9.463,99.534,0,92.866ZM73.321,29.328c24.288,0,43.993-6.576,43.993-14.664S97.609,0,73.321,0,29.328,6.576,29.328,14.664,49.034,29.328,73.321,29.328ZM0,68.83V80.653c0,8.088,19.705,14.664,43.993,14.664s43.993-6.576,43.993-14.664V68.83C78.522,76.621,61.2,80.653,43.993,80.653S9.463,76.621,0,68.83Zm95.318,2.52c13.129-2.543,22-7.263,22-12.694V48.873c-5.316,3.758-13.129,6.324-22,7.9ZM43.993,36.661C19.705,36.661,0,44.863,0,54.991s19.705,18.33,43.993,18.33,43.993-8.2,43.993-18.33S68.28,36.661,43.993,36.661Zm50.248,12.9c13.748-2.475,23.073-7.332,23.073-12.9V26.877c-8.134,5.751-22.111,8.844-36.821,9.578C87.252,39.731,92.224,44.13,94.241,49.561Z" transform="translate(-5636.568 -20462.123)" fill="#0f1215"/>
    </g>
  </g>
</svg>
