<svg version="1.2" xmlns="http://www.w3.org/2000/svg" xmlns:xlink="http://www.w3.org/1999/xlink" overflow="visible" preserveAspectRatio="none" viewBox="0 0 14 14" width="14" height="14"><g transform="translate(0, 0)"><defs><path id="path-170310662164194445" d="M11.666666666666668 9.333333333333334 C10.870416666666669 9.333333333333334 10.16925 9.734083333333334 9.748083333333334 10.341916666666666 C9.748083333333334 10.341916666666666 4.577416666666665 7.604916666666667 4.577416666666665 7.604916666666667 C4.629916666666667 7.410666666666668 4.666666666666667 7.210583333333334 4.666666666666667 7 C4.666666666666667 6.789416666666667 4.629916666666667 6.589333333333333 4.577416666666667 6.395083333333334 C4.577416666666667 6.395083333333334 9.748083333333335 3.6580833333333342 9.748083333333335 3.6580833333333342 C10.16925 4.266500000000001 10.870416666666669 4.666666666666667 11.666666666666668 4.666666666666667 C12.955250000000001 4.666666666666667 14 3.621916666666667 14 2.3333333333333335 C14 1.0447500000000003 12.955250000000001 0 11.666666666666668 0 C10.378083333333334 0 9.333333333333334 1.04475 9.333333333333334 2.3333333333333335 C9.333333333333334 2.3555 9.339166666666669 2.3765 9.33975 2.3980833333333336 C9.33975 2.3980833333333336 3.8978333333333337 5.279750000000001 3.8978333333333337 5.279750000000001 C3.4830833333333335 4.902333333333334 2.9376666666666664 4.666666666666667 2.3333333333333335 4.666666666666667 C1.04475 4.666666666666667 0 5.7114166666666675 0 7 C0 8.288583333333333 1.04475 9.333333333333334 2.3333333333333335 9.333333333333334 C2.9376666666666664 9.333333333333334 3.4830833333333335 9.097666666666667 3.8978333333333337 8.72025 C3.8978333333333337 8.72025 9.339750000000002 11.601333333333333 9.339750000000002 11.601333333333333 C9.339166666666669 11.624083333333333 9.333333333333334 11.6445 9.333333333333334 11.666666666666668 C9.333333333333334 12.955250000000001 10.378083333333334 14 11.666666666666668 14 C12.955250000000001 14 14 12.955250000000001 14 11.666666666666668 C14 10.378083333333334 12.955250000000001 9.333333333333334 11.666666666666668 9.333333333333334 Z" vector-effect="non-scaling-stroke"/></defs><g transform="translate(0, 0)"><path d="M11.666666666666668 9.333333333333334 C10.870416666666669 9.333333333333334 10.16925 9.734083333333334 9.748083333333334 10.341916666666666 C9.748083333333334 10.341916666666666 4.577416666666665 7.604916666666667 4.577416666666665 7.604916666666667 C4.629916666666667 7.410666666666668 4.666666666666667 7.210583333333334 4.666666666666667 7 C4.666666666666667 6.789416666666667 4.629916666666667 6.589333333333333 4.577416666666667 6.395083333333334 C4.577416666666667 6.395083333333334 9.748083333333335 3.6580833333333342 9.748083333333335 3.6580833333333342 C10.16925 4.266500000000001 10.870416666666669 4.666666666666667 11.666666666666668 4.666666666666667 C12.955250000000001 4.666666666666667 14 3.621916666666667 14 2.3333333333333335 C14 1.0447500000000003 12.955250000000001 0 11.666666666666668 0 C10.378083333333334 0 9.333333333333334 1.04475 9.333333333333334 2.3333333333333335 C9.333333333333334 2.3555 9.339166666666669 2.3765 9.33975 2.3980833333333336 C9.33975 2.3980833333333336 3.8978333333333337 5.279750000000001 3.8978333333333337 5.279750000000001 C3.4830833333333335 4.902333333333334 2.9376666666666664 4.666666666666667 2.3333333333333335 4.666666666666667 C1.04475 4.666666666666667 0 5.7114166666666675 0 7 C0 8.288583333333333 1.04475 9.333333333333334 2.3333333333333335 9.333333333333334 C2.9376666666666664 9.333333333333334 3.4830833333333335 9.097666666666667 3.8978333333333337 8.72025 C3.8978333333333337 8.72025 9.339750000000002 11.601333333333333 9.339750000000002 11.601333333333333 C9.339166666666669 11.624083333333333 9.333333333333334 11.6445 9.333333333333334 11.666666666666668 C9.333333333333334 12.955250000000001 10.378083333333334 14 11.666666666666668 14 C12.955250000000001 14 14 12.955250000000001 14 11.666666666666668 C14 10.378083333333334 12.955250000000001 9.333333333333334 11.666666666666668 9.333333333333334 Z" style="stroke-width: 0; stroke-linecap: butt; stroke-linejoin: miter; fill: rgb(18, 18, 18);" vector-effect="non-scaling-stroke"/></g></g></svg>