<svg xmlns="http://www.w3.org/2000/svg" xmlns:xlink="http://www.w3.org/1999/xlink" width="826" height="779" viewBox="0 0 826 779">
  <defs>
    <clipPath id="clip-Web_1920_48">
      <rect width="826" height="779"/>
    </clipPath>
  </defs>
  <g id="Web_1920_48" data-name="Web 1920 – 48" clip-path="url(#clip-Web_1920_48)">
    <rect width="826" height="779" fill="#fff"/>
    <g id="Grupo_75861" data-name="Grupo 75861" transform="translate(6381.497 21532.096)">
      <g id="Rectángulo_14528" data-name="Rectángulo 14528" transform="translate(-6064.502 -21302)" fill="#101316" stroke="#101316" stroke-width="1">
        <rect width="193.614" height="318.894" rx="16" stroke="none"/>
        <rect x="0.5" y="0.5" width="192.614" height="317.894" rx="15.5" fill="none"/>
      </g>
      <rect id="Rectángulo_14530" data-name="Rectángulo 14530" width="63.994" height="18.213" rx="8" transform="translate(-6036.207 -21116.66)" fill="#f8f8fc"/>
      <ellipse id="Elipse_1921" data-name="Elipse 1921" cx="12.928" cy="12.142" rx="12.928" ry="12.142" transform="translate(-6016.816 -21123.912)" fill="#f8f8fc"/>
      <rect id="Rectángulo_14531" data-name="Rectángulo 14531" width="51.478" height="39.598" transform="translate(-6028.683 -21163.951)" fill="#f8f8fc"/>
      <rect id="Rectángulo_14534" data-name="Rectángulo 14534" width="63.994" height="18.213" rx="7" transform="translate(-6036.207 -21039.83)" fill="#f8f8fc"/>
      <g id="Trazado_60738" data-name="Trazado 60738" transform="translate(-6016.816 -21047.08)" fill="#f8f8fc">
        <path d="M 12.92807865142822 23.78340339660645 C 9.60252857208252 23.78340339660645 6.477568626403809 22.56858444213867 4.128838539123535 20.36272430419922 C 1.788748621940613 18.16496276855469 0.4999986588954926 15.24535369873047 0.4999986588954926 12.14170360565186 C 0.4999986588954926 9.038053512573242 1.788748621940613 6.118443489074707 4.128838539123535 3.920683622360229 C 6.477568626403809 1.714823603630066 9.60252857208252 0.5000035762786865 12.92807865142822 0.5000035762786865 C 16.25362777709961 0.5000035762786865 19.37858772277832 1.714823603630066 21.72731781005859 3.920683622360229 C 24.06740951538086 6.118443489074707 25.35615921020508 9.038053512573242 25.35615921020508 12.14170360565186 C 25.35615921020508 15.24535369873047 24.06740951538086 18.16496276855469 21.72731781005859 20.36272430419922 C 19.37858772277832 22.56858444213867 16.25362777709961 23.78340339660645 12.92807865142822 23.78340339660645 Z" stroke="none"/>
        <path d="M 12.92807865142822 1.000003814697266 C 6.350908279418945 1.000003814697266 0.9999980926513672 5.998153686523438 0.9999980926513672 12.14170360565186 C 0.9999980926513672 18.28525352478027 6.350908279418945 23.28340339660645 12.92807865142822 23.28340339660645 C 19.5052490234375 23.28340339660645 24.85615921020508 18.28525352478027 24.85615921020508 12.14170360565186 C 24.85615921020508 5.998153686523438 19.5052490234375 1.000003814697266 12.92807865142822 1.000003814697266 M 12.92807865142822 3.814697265625e-06 C 20.06805801391602 3.814697265625e-06 25.85615921020508 5.436023712158203 25.85615921020508 12.14170360565186 C 25.85615921020508 18.84738349914551 20.06805801391602 24.28340339660645 12.92807865142822 24.28340339660645 C 5.78809928894043 24.28340339660645 -1.9073486328125e-06 18.84738349914551 -1.9073486328125e-06 12.14170360565186 C -1.9073486328125e-06 5.436023712158203 5.78809928894043 3.814697265625e-06 12.92807865142822 3.814697265625e-06 Z" stroke="none" fill="#f8f8fc"/>
      </g>
      <g id="Trazado_58860" data-name="Trazado 58860" transform="translate(-6013.429 -21045.301)" fill="#f8f8fc">
        <path d="M 9.53831958770752 18.55094337463379 C 4.554569721221924 18.55094337463379 0.4999995827674866 14.50213241577148 0.4999995827674866 9.525472640991211 C 0.4999995827674866 4.548812866210938 4.554569721221924 0.5000026226043701 9.53831958770752 0.5000026226043701 C 14.52206993103027 0.5000026226043701 18.57663917541504 4.548812866210938 18.57663917541504 9.525472640991211 C 18.57663917541504 14.50213241577148 14.52206993103027 18.55094337463379 9.53831958770752 18.55094337463379 Z" stroke="none"/>
        <path d="M 9.53831958770752 1.000001907348633 C 4.830269813537598 1.000001907348633 1 4.824512481689453 1 9.525472640991211 C 1 14.22643280029297 4.830269813537598 18.05094337463379 9.53831958770752 18.05094337463379 C 14.24636936187744 18.05094337463379 18.07663917541504 14.22643280029297 18.07663917541504 9.525472640991211 C 18.07663917541504 4.824512481689453 14.24636936187744 1.000001907348633 9.53831958770752 1.000001907348633 M 9.53831958770752 1.9073486328125e-06 C 14.80618953704834 1.9073486328125e-06 19.07663917541504 4.264702796936035 19.07663917541504 9.525472640991211 C 19.07663917541504 14.78624248504639 14.80618953704834 19.05094337463379 9.53831958770752 19.05094337463379 C 4.270449638366699 19.05094337463379 0 14.78624248504639 0 9.525472640991211 C 0 4.264702796936035 4.270449638366699 1.9073486328125e-06 9.53831958770752 1.9073486328125e-06 Z" stroke="none" fill="#f8f8fc"/>
      </g>
      <rect id="Rectángulo_14535" data-name="Rectángulo 14535" width="51.478" height="39.598" transform="translate(-6028.683 -21087.121)" fill="#f8f8fc"/>
      <rect id="Rectángulo_14538" data-name="Rectángulo 14538" width="63.994" height="18.213" rx="8" transform="translate(-5959.375 -21116.66)" fill="#f8f8fc"/>
      <g id="Elipse_1925" data-name="Elipse 1925" transform="translate(-5939.984 -21123.912)" fill="#f8f8fc" stroke="#f8f8fc" stroke-width="1">
        <ellipse cx="12.928" cy="12.142" rx="12.928" ry="12.142" stroke="none"/>
        <ellipse cx="12.928" cy="12.142" rx="12.428" ry="11.642" fill="none"/>
      </g>
      <rect id="Rectángulo_14539" data-name="Rectángulo 14539" width="51.478" height="39.598" transform="translate(-5951.852 -21163.951)" fill="#f8f8fc"/>
      <rect id="Rectángulo_14542" data-name="Rectángulo 14542" width="63.994" height="18.213" rx="9" transform="translate(-5959.375 -21039.83)" fill="#f8f8fc"/>
      <ellipse id="Elipse_1927" data-name="Elipse 1927" cx="12.928" cy="12.142" rx="12.928" ry="12.142" transform="translate(-5939.984 -21047.08)" fill="#f8f8fc"/>
      <rect id="Rectángulo_14543" data-name="Rectángulo 14543" width="51.478" height="39.598" transform="translate(-5951.852 -21087.121)" fill="#f8f8fc"/>
      <rect id="Rectángulo_14546" data-name="Rectángulo 14546" width="63.996" height="20.786" rx="9" transform="translate(-6036.207 -21201.9)" fill="#f8f8fc"/>
      <rect id="Rectángulo_14548" data-name="Rectángulo 14548" width="137.028" height="20.786" rx="8" transform="translate(-6036.207 -21256.088)" fill="#f8f8fc"/>
      <rect id="Rectángulo_14550" data-name="Rectángulo 14550" width="63.996" height="20.786" rx="10" transform="translate(-5959.375 -21201.9)" fill="#f8f8fc"/>
    </g>
  </g>
</svg>
