<svg xmlns="http://www.w3.org/2000/svg" xmlns:xlink="http://www.w3.org/1999/xlink" width="826" height="779" viewBox="0 0 826 779">
  <defs>
    <clipPath id="clip-Web_1920_17">
      <rect width="826" height="779"/>
    </clipPath>
  </defs>
  <g id="Web_1920_17" data-name="Web 1920 – 17" clip-path="url(#clip-Web_1920_17)">
    <rect width="826" height="779" fill="#fff"/>
    <g id="Grupo_75749" data-name="Grupo 75749" transform="translate(183.105 198.6)">
      <path id="Unión_114" data-name="Unión 114" d="M53.411,128.1a5.527,5.527,0,0,1-5.521-5.52v-5a55.841,55.841,0,0,1-10.285-4.267l-3.523,3.534a5.642,5.642,0,0,1-7.791,0l-15.061-15.06a5.522,5.522,0,0,1,0-7.8l3.535-3.523A55.83,55.83,0,0,1,10.5,80.18H5.521A5.534,5.534,0,0,1,0,74.659V53.37a5.512,5.512,0,0,1,5.533-5.508H10.5a55.492,55.492,0,0,1,4.268-10.284l-3.511-3.487a5.63,5.63,0,0,1-1.62-3.913,5.484,5.484,0,0,1,1.631-3.9L26.315,11.23a5.509,5.509,0,0,1,7.8,0l3.487,3.487A54.991,54.991,0,0,1,47.89,10.461V5.52A5.527,5.527,0,0,1,53.411,0H74.691a5.534,5.534,0,0,1,5.521,5.52v4.941A54.991,54.991,0,0,1,90.5,14.717l3.487-3.5a5.509,5.509,0,0,1,7.8,0l15.049,15.036a5.493,5.493,0,0,1,0,7.813l-3.5,3.511A54.7,54.7,0,0,1,117.6,47.862h4.977a5.512,5.512,0,0,1,5.533,5.508V74.659a5.517,5.517,0,0,1-5.521,5.508h-4.977a54.029,54.029,0,0,1-4.268,10.3l3.535,3.523a5.543,5.543,0,0,1,0,7.8l-15.037,15.06a5.746,5.746,0,0,1-7.826,0L90.5,113.313a55.841,55.841,0,0,1-10.285,4.267v5a5.534,5.534,0,0,1-5.521,5.52ZM37.4,64.505A26.694,26.694,0,1,0,64.1,37.826,26.724,26.724,0,0,0,37.4,64.505Z" transform="translate(319.701 4.4)"/>
      <path id="Trazado_56488" data-name="Trazado 56488" d="M147.651,117.8a29.825,29.825,0,1,0,29.825,29.824A29.827,29.827,0,0,0,147.651,117.8Zm18.937,29.825a18.94,18.94,0,1,1-18.939-18.938A18.939,18.939,0,0,1,166.587,147.625Z" transform="translate(235.238 -80.051)"/>
      <path id="Trazado_56490" data-name="Trazado 56490" d="M70.493,27.257,49.667,6.283C1,54.626,1,89.66,1,134.93H15.77L30.54,134C30.54,90.753,30.54,66.929,70.493,27.257ZM277.259,6.283l-20.8,20.973C296.4,66.929,296.4,90.753,296.4,134.93l29.54-.931C325.941,89.66,325.941,54.626,277.259,6.283ZM163.47,297.4a44.015,44.015,0,0,0,41.622-29.54H121.848A44.015,44.015,0,0,0,163.47,297.4ZM266.86,187.9V120.16a103.481,103.481,0,0,0-75.992-99.58,29.491,29.491,0,0,0-54.8,0A103.464,103.464,0,0,0,60.08,120.16V187.9L34.868,213.108A14.711,14.711,0,0,0,30.54,223.55v14.77a14.77,14.77,0,0,0,14.77,14.77H281.63a14.77,14.77,0,0,0,14.77-14.77V223.55a14.711,14.711,0,0,0-4.328-10.442Z" transform="translate(11.001 80.278)"/>
    </g>
  </g>
</svg>
