<svg xmlns="http://www.w3.org/2000/svg" xmlns:xlink="http://www.w3.org/1999/xlink" width="826" height="779" viewBox="0 0 826 779">
  <defs>
    <clipPath id="clip-Web_1920_42">
      <rect width="826" height="779"/>
    </clipPath>
  </defs>
  <g id="Web_1920_42" data-name="Web 1920 – 42" clip-path="url(#clip-Web_1920_42)">
    <rect width="826" height="779" fill="#fff"/>
    <g id="Grupo_75837" data-name="Grupo 75837" transform="translate(4849 22197)">
      <g id="Layer_9" data-name="Layer 9" transform="translate(-4640.45 -21977.779)">
        <line id="Línea_585" data-name="Línea 585" y1="279.641" transform="translate(242.35 47.368)" fill="none" stroke="#0f1315" stroke-linejoin="round" stroke-width="10"/>
        <line id="Línea_586" data-name="Línea 586" y2="279.641" transform="translate(410.13 47.368)" fill="none" stroke="#0f1315" stroke-linejoin="round" stroke-width="10"/>
        <path id="Trazado_58819" data-name="Trazado 58819" d="M240.6,58.7H32L61.8,14h149Z" transform="translate(191.698 -14)" fill="none" stroke="#0f1315" stroke-linejoin="round" stroke-width="10"/>
        <path id="Trazado_58820" data-name="Trazado 58820" d="M32,92.82V58H240.6V92.82" transform="translate(191.698 269.817)" fill="none" stroke="#0f1315" stroke-linejoin="round" stroke-width="10"/>
        <rect id="Rectángulo_14523" data-name="Rectángulo 14523" width="93.211" height="74.571" transform="translate(279.634 233.796)" fill="none" stroke="#0f1315" stroke-linejoin="round" stroke-width="10"/>
        <line id="Línea_587" data-name="Línea 587" x2="74.569" transform="translate(298.277 271.081)" fill="none" stroke="#0f1315" stroke-linejoin="round" stroke-width="10"/>
        <rect id="Rectángulo_14524" data-name="Rectángulo 14524" width="93.211" height="130.499" transform="translate(279.634 66.011)" fill="none" stroke="#0f1315" stroke-linejoin="round" stroke-width="10"/>
        <path id="Trazado_58821" data-name="Trazado 58821" d="M42,100.053V62.8A29.8,29.8,0,0,1,71.8,33h0a29.8,29.8,0,0,1,29.8,29.8v37.252" transform="translate(256.2 93.644)" fill="none" stroke="#0f1315" stroke-linejoin="round" stroke-width="10"/>
        <path id="Trazado_58822" data-name="Trazado 58822" d="M4,162.215V70.043C4,57.317,14.007,47,26.35,47h0C38.694,47,48.7,57.317,48.7,70.043v92.172" transform="translate(11.095 198.863)" fill="none" stroke="#0f1315" stroke-linejoin="round" stroke-width="10"/>
        <line id="Línea_588" data-name="Línea 588" x2="46.999" transform="translate(18.641 308.362)" fill="none" stroke="#0f1315" stroke-linejoin="round" stroke-width="10"/>
        <line id="Línea_589" data-name="Línea 589" x2="447.415" transform="translate(0 364.295)" fill="none" stroke="#0f1315" stroke-linejoin="round" stroke-width="10"/>
        <path id="Trazado_58823" data-name="Trazado 58823" d="M227.5,81.7H26.35A22.351,22.351,0,0,1,4,59.351H4A22.351,22.351,0,0,1,26.35,37H227.5" transform="translate(11.095 134.359)" fill="none" stroke="#0f1315" stroke-linejoin="round" stroke-width="10"/>
        <line id="Línea_590" data-name="Línea 590" y1="23.138" transform="translate(65.64 182.143)" fill="none" stroke="#0f1315" stroke-linejoin="round" stroke-width="10"/>
        <line id="Línea_591" data-name="Línea 591" y1="23.138" transform="translate(88.778 182.143)" fill="none" stroke="#0f1315" stroke-linejoin="round" stroke-width="10"/>
        <line id="Línea_592" data-name="Línea 592" y1="23.138" transform="translate(111.916 182.143)" fill="none" stroke="#0f1315" stroke-linejoin="round" stroke-width="10"/>
        <line id="Línea_593" data-name="Línea 593" y1="23.138" transform="translate(135.054 182.143)" fill="none" stroke="#0f1315" stroke-linejoin="round" stroke-width="10"/>
        <line id="Línea_594" data-name="Línea 594" y1="23.138" transform="translate(158.191 182.143)" fill="none" stroke="#0f1315" stroke-linejoin="round" stroke-width="10"/>
      </g>
      <path id="Icon_payment-card" data-name="Icon payment-card" d="M56.929,108.715l-11.943-1.639q-17.7-2.426-35.409-4.861c-3.245-.449-3.243-.488-3.243-3.8,0-15.067.017-30.134-.028-45.2a2.716,2.716,0,0,1,1.711-2.9Q41.361,33.583,74.631,16.682a2.273,2.273,0,0,1,2.529.109c13.6,8.191,27.23,16.326,40.814,24.537a9.3,9.3,0,0,0,5.1,1.4c11.49-.063,22.979-.033,34.471-.035,7.791,0,13.181,5.108,13.215,12.9q.127,28.29,0,56.581c-.033,7.514-5.507,12.709-13.085,12.711q-43.957.02-87.913.015a12.656,12.656,0,0,1-12.829-12.551c-.028-1.146,0-2.295,0-3.634ZM69.593,63.69c.478.043.851.106,1.227.106,8.744.009,17.487.05,26.229,0a16.391,16.391,0,0,1,11.04,3.58A15.732,15.732,0,0,1,98.016,95.265c-8.909.022-17.817.031-26.724-.022-1.374-.009-1.973.26-1.908,1.8.128,2.966.006,5.94.067,8.908a6.4,6.4,0,0,0,5.594,6.35,23.123,23.123,0,0,0,3.13.089c24.084,0,48.171-.067,72.255.067,4.433.024,7.992-2.5,7.914-7.857-.206-14.023-.082-28.048-.078-42.072,0-4.844-2.392-7.31-7.279-7.312q-37.2-.023-74.4,0c-4.977.007-7.736,3.315-6.992,8.473Z" transform="translate(-4684.739 -22017.402)" fill="#0f1315"/>
    </g>
  </g>
</svg>
