<svg version="1.2" xmlns="http://www.w3.org/2000/svg" xmlns:xlink="http://www.w3.org/1999/xlink" overflow="visible" preserveAspectRatio="none" viewBox="0 0 17.89781 22.000020149110465" width="17.89781" height="22.000020149110465"><g transform="translate(0, 0)"><g transform="translate(-0.10219000000000023, 0.000010032349013229512) rotate(0)"><path d="M2.35209,18.33333c-1.24218,-0.00061 -2.24907,-0.98519 -2.2499,-2.20004v-13.93325c0,-0.58355 0.23705,-1.1432 0.659,-1.5558c0.42195,-0.4126 0.99422,-0.64435 1.5909,-0.64425h9.7502c1.24218,0.00061 2.24907,0.98519 2.2499,2.20004c-0.01281,0.39599 -0.34474,0.71052 -0.74984,0.71052c-0.4051,0 -0.73703,-0.31453 -0.74984,-0.71052c0,-0.40522 -0.33588,-0.73371 -0.75022,-0.73371l-9.75057,0.00037c-0.41433,0 -0.75022,0.3285 -0.75022,0.73371v13.93251c0,0.40522 0.33588,0.73371 0.75022,0.73371c0.40273,0.01526 0.72117,0.339 0.72117,0.73316c0,0.39417 -0.31844,0.7179 -0.72117,0.73316zM18,19.79996c0,0.58362 -0.22902,1.14332 -0.63666,1.55593c-0.40764,0.41261 -0.96048,0.64431 -1.53687,0.64412h-9.41801c-1.19982,-0.00061 -2.17237,-0.98519 -2.17316,-2.20004v-13.93325c0,-0.58355 0.22897,-1.1432 0.63653,-1.5558c0.40756,-0.4126 0.96031,-0.64435 1.53664,-0.64425h9.41765c1.19982,0.00061 2.17237,0.98519 2.17316,2.20004zM16.55074,19.79996v-13.93325c0,-0.40522 -0.32443,-0.73371 -0.72463,-0.73371l-9.41765,0.00037c-0.4002,0 -0.72463,0.3285 -0.72463,0.73371v13.93251c0,0.40522 0.32443,0.73371 0.72463,0.73371l9.41801,-0.00037c0.4002,0 0.72463,-0.3285 0.72463,-0.73371z" style="stroke-width: 0; stroke-linecap: butt; stroke-linejoin: miter; fill: rgb(135, 141, 150);" vector-effect="non-scaling-stroke"/></g><defs><path id="path-17025679526311835060" d="M2.35209,18.33333c-1.24218,-0.00061 -2.24907,-0.98519 -2.2499,-2.20004v-13.93325c0,-0.58355 0.23705,-1.1432 0.659,-1.5558c0.42195,-0.4126 0.99422,-0.64435 1.5909,-0.64425h9.7502c1.24218,0.00061 2.24907,0.98519 2.2499,2.20004c-0.01281,0.39599 -0.34474,0.71052 -0.74984,0.71052c-0.4051,0 -0.73703,-0.31453 -0.74984,-0.71052c0,-0.40522 -0.33588,-0.73371 -0.75022,-0.73371l-9.75057,0.00037c-0.41433,0 -0.75022,0.3285 -0.75022,0.73371v13.93251c0,0.40522 0.33588,0.73371 0.75022,0.73371c0.40273,0.01526 0.72117,0.339 0.72117,0.73316c0,0.39417 -0.31844,0.7179 -0.72117,0.73316zM18,19.79996c0,0.58362 -0.22902,1.14332 -0.63666,1.55593c-0.40764,0.41261 -0.96048,0.64431 -1.53687,0.64412h-9.41801c-1.19982,-0.00061 -2.17237,-0.98519 -2.17316,-2.20004v-13.93325c0,-0.58355 0.22897,-1.1432 0.63653,-1.5558c0.40756,-0.4126 0.96031,-0.64435 1.53664,-0.64425h9.41765c1.19982,0.00061 2.17237,0.98519 2.17316,2.20004zM16.55074,19.79996v-13.93325c0,-0.40522 -0.32443,-0.73371 -0.72463,-0.73371l-9.41765,0.00037c-0.4002,0 -0.72463,0.3285 -0.72463,0.73371v13.93251c0,0.40522 0.32443,0.73371 0.72463,0.73371l9.41801,-0.00037c0.4002,0 0.72463,-0.3285 0.72463,-0.73371z" vector-effect="non-scaling-stroke"/></defs></g></svg>