<svg xmlns="http://www.w3.org/2000/svg" xmlns:xlink="http://www.w3.org/1999/xlink" width="826" height="779" viewBox="0 0 826 779">
  <defs>
    <clipPath id="clip-Web_1920_58">
      <rect width="826" height="779"/>
    </clipPath>
  </defs>
  <g id="Web_1920_58" data-name="Web 1920 – 58" clip-path="url(#clip-Web_1920_58)">
    <rect width="826" height="779" fill="#fff"/>
    <g id="Grupo_75898" data-name="Grupo 75898" transform="translate(6271.68 20852.262)">
      <g id="Grupo_64017" data-name="Grupo 64017" transform="translate(-6062.502 -20693.121)">
        <path id="Trazado_58836" data-name="Trazado 58836" d="M332.193,176.962c24.452,0,45.373-8.572,62.77-25.964s25.963-38.317,25.963-62.77-8.636-45.061-25.963-62.264C377.506,8.631,356.645,0,332.193,0s-45.061,8.631-62.518,25.964c-17.333,17.2-25.963,37.811-25.963,62.264S252.284,133.6,269.675,151,307.74,176.962,332.193,176.962Zm-42.6-131.337c11.847-11.847,26.217-17.9,42.6-17.9,16.886,0,31,6.05,42.856,17.9s17.9,26.217,17.9,42.6a58.824,58.824,0,0,1-17.9,43.108c-11.854,11.847-25.97,17.644-42.856,17.644a58.265,58.265,0,0,1-42.6-17.644,58.825,58.825,0,0,1-17.9-43.108C271.693,71.842,277.742,57.472,289.589,45.625Z" transform="translate(-186.486 0)" fill="#101516"/>
        <path id="Trazado_58837" data-name="Trazado 58837" d="M436.512,451.76v-6.3c0-60.764-54.435-114.445-115.2-114.445H262.071c-31.272,0-58.231,12.606-80.661,34.537s-36.053,48.615-36.053,79.909V568.975c0,17.145,13.364,30.25,30.5,30.25H406.514a29.875,29.875,0,0,0,21.431-8.819,28.716,28.716,0,0,0,9.072-21.431V451.76C437.016,470.916,436.512,470.663,436.512,451.76Zm-30,119.737H175.859c-1.764,0-2.517-.752-2.517-2.522V451.255c0-24.2,8.25-45.184,24.953-63.022,16.822-17.957,37.311-27.728,61.259-29.492l20.414,26.975-22.183,133.6,33.278,37.811,33.525-37.811L302.4,385.716l20.42-26.975c23.188,1.764,42.856,11.094,59.241,27.728s26.465,36.521,26.465,59.995v5.3l.506,117.215C409.041,570.745,408.277,571.5,406.514,571.5Z" transform="translate(-145.356 -138.422)" fill="#101516"/>
      </g>
      <path id="Icon_awesome-coins" data-name="Icon awesome-coins" d="M0,85.3V94.29c0,7.43,18.1,13.47,40.41,13.47s40.41-6.04,40.41-13.47V85.3c-8.692,6.125-24.583,8.987-40.41,8.987S8.692,91.427,0,85.3ZM67.35,26.94c22.31,0,40.41-6.04,40.41-13.47S89.659,0,67.35,0,26.94,6.04,26.94,13.47,45.04,26.94,67.35,26.94ZM0,63.225v10.86c0,7.43,18.1,13.47,40.41,13.47s40.41-6.04,40.41-13.47V63.225c-8.692,7.156-24.6,10.86-40.41,10.86S8.692,70.381,0,63.225ZM87.555,65.54c12.06-2.336,20.2-6.672,20.2-11.66V44.893c-4.883,3.452-12.06,5.809-20.2,7.261ZM40.41,33.675C18.1,33.675,0,41.21,0,50.512S18.1,67.35,40.41,67.35s40.41-7.535,40.41-16.837S62.72,33.675,40.41,33.675ZM86.566,45.524c12.628-2.273,21.194-6.735,21.194-11.849V24.688c-7.472,5.283-20.31,8.124-33.822,8.8C80.146,36.5,84.713,40.536,86.566,45.524Z" transform="translate(-5761.333 -20379.91)" fill="#101516"/>
      <path id="Trazado_59118" data-name="Trazado 59118" d="M34.751,27.586l65.14,45.381c-3.908,4.343-16.936,6.08-31.267-.869-13.68-6.731-24.1-16.5-46.25-37.564a16.683,16.683,0,0,1-7.817-1.954L7.61,28.454A15.488,15.488,0,0,1,1.964,7.609,15.231,15.231,0,0,1,22.592,1.964L29.54,6.09a15.241,15.241,0,0,1,5.646,20.845C34.969,27.152,34.969,27.369,34.751,27.586ZM22.592,80.567l6.948-4.125A15.242,15.242,0,0,0,35.186,55.6c-.217-.217-.217-.434-.434-.651l3.257-2.171c-3.257-2.823-6.731-6.08-10.64-9.554-1.52,1.52-3.257,3.04-4.994,4.777a16.682,16.682,0,0,0-7.817,1.954L7.61,54.076A15.487,15.487,0,0,0,1.964,74.921,15.231,15.231,0,0,0,22.592,80.567Zm-1.954-7.383,3.691-2.171c4.126-2.389,5.645-7.383,3.474-11.074a8.013,8.013,0,0,0-11.074-2.606L12.821,59.5C8.7,61.893,7.175,66.887,9.347,70.578A8.221,8.221,0,0,0,20.638,73.184ZM57.55,39.094,99.892,9.564c-3.908-4.343-16.936-6.08-31.267.869C59.939,14.775,52.556,20.2,42.785,28.889ZM20.638,9.347l3.691,2.171c4.126,2.388,5.645,7.383,3.474,11.074A8.013,8.013,0,0,1,16.729,25.2l-3.908-2.171C8.7,20.638,7.175,15.644,9.347,11.952A8.221,8.221,0,0,1,20.638,9.347ZM46.694,41.265a4.343,4.343,0,1,1-4.343-4.343A4.356,4.356,0,0,1,46.694,41.265Z" transform="matrix(0.999, 0.035, -0.035, 0.999, -5753.39, -20493.809)" fill="#101516" fill-rule="evenodd"/>
    </g>
  </g>
</svg>
