<svg xmlns="http://www.w3.org/2000/svg" xmlns:xlink="http://www.w3.org/1999/xlink" width="826" height="779" viewBox="0 0 826 779">
  <defs>
    <clipPath id="clip-Web_1920_43">
      <rect width="826" height="779"/>
    </clipPath>
  </defs>
  <g id="Web_1920_43" data-name="Web 1920 – 43" clip-path="url(#clip-Web_1920_43)">
    <rect width="826" height="779" fill="#fff"/>
    <g id="Grupo_75910" data-name="Grupo 75910">
      <g id="Grupo_75839" data-name="Grupo 75839" transform="translate(4817.039 22159.002)">
        <g id="Grupo_75840" data-name="Grupo 75840">
          <path id="Trazado_60737" data-name="Trazado 60737" d="M.918,167.666,0,1.256H.337L212.008.145V.439s1.494,22.9,23.184,23.66S260.164.339,260.164,0h72.888V167.325l-72.741.24v-.336a28.087,28.087,0,0,0-2.555-11.814,23.021,23.021,0,0,0-21.356-12.68s-20.581-.623-23.667,24.118v.275Z" transform="translate(-4484.343 -21736.387)" fill="#0f1214"/>
          <path id="Icon_awesome-money-bill" data-name="Icon awesome-money-bill" d="M307.28,0,16.175,0A16.175,16.175,0,0,0,0,16.178L0,177.905a16.174,16.174,0,0,0,16.172,16.173l291.1,0A16.175,16.175,0,0,0,323.45,177.9l0-161.728A16.174,16.174,0,0,0,307.28,0ZM24.259,169.819V137.473A32.342,32.342,0,0,1,56.6,169.818Zm0-113.209V24.264H56.606A32.344,32.344,0,0,1,24.261,56.609Zm137.465,88.948c-22.333,0-40.431-21.726-40.43-48.518s18.1-48.519,40.432-48.519,40.431,21.721,40.43,48.518S184.048,145.557,161.725,145.557Zm137.466,24.257H266.846a32.344,32.344,0,0,1,32.345-32.346Zm0-113.209A32.342,32.342,0,0,1,266.848,24.26h32.345Z" transform="translate(-4655.708 -21807.629) rotate(-30)" fill="#0f1214"/>
        </g>
      </g>
      <g id="icono_eventos" transform="translate(393.35 452.695)">
        <path id="Trazado_58652" data-name="Trazado 58652" d="M808.027,1623.7a4.488,4.488,0,0,0-8.975,0l-.4,17.41a4.487,4.487,0,0,0,8.974,0Z" transform="translate(-632.414 -1599.781)" fill="#f8f8fc"/>
        <path id="Trazado_58653" data-name="Trazado 58653" d="M803.332,1629.871a4.49,4.49,0,0,0-4.484,4.487l-.406,17.41a4.488,4.488,0,1,0,8.974.224l.4-17.447a4.489,4.489,0,0,0-4.3-4.671Z" transform="translate(-633.147 -1562.611)" fill="#f8f8fc"/>
        <path id="Trazado_58654" data-name="Trazado 58654" d="M779.166,1633.965a2.892,2.892,0,1,0-.093-5.783,2.828,2.828,0,0,0-2.823,2.829v.09a2.862,2.862,0,0,0,2.867,2.864Z" transform="translate(-710.518 -1568.507)" fill="#f8f8fc"/>
        <path id="Trazado_58655" data-name="Trazado 58655" d="M780.008,1635.964a3.99,3.99,0,0,1-3.994-3.983h0a3.731,3.731,0,0,1,1.119-2.834,3.872,3.872,0,0,1,2.826-1.217,4.223,4.223,0,0,1,2.875,1.133,3.992,3.992,0,0,1,1.21,2.824,4.074,4.074,0,0,1-3.992,4.078h-.044Zm0-5.784h0a1.607,1.607,0,0,0-1.257.541,1.476,1.476,0,0,0-.494,1.259,1.793,1.793,0,0,0,3.542.563,1.611,1.611,0,0,0,0-.563,1.766,1.766,0,0,0-.537-1.259,1.824,1.824,0,0,0-1.254-.541Z" transform="translate(-711.357 -1569.374)" fill="#f8f8fc"/>
        <path id="Trazado_58656" data-name="Trazado 58656" d="M764.972,1634.149a2.94,2.94,0,1,0-.042,0Z" transform="translate(-760.167 -1567.97)" fill="#f8f8fc"/>
        <path id="Trazado_58657" data-name="Trazado 58657" d="M765.794,1636.161a4.091,4.091,0,0,1-2.824-1.117,4.224,4.224,0,0,1-1.21-2.832,4.049,4.049,0,0,1,1.166-2.867,3.921,3.921,0,0,1,2.826-1.219h0a4.04,4.04,0,0,1,.85,8.035,3.819,3.819,0,0,1-.85,0Zm0-2.241h0a1.794,1.794,0,0,0,1.8-1.8h0a1.794,1.794,0,0,0-1.84-1.749h0a1.578,1.578,0,0,0-1.206.541,1.734,1.734,0,0,0-.54,1.255,1.782,1.782,0,0,0,.54,1.253A1.866,1.866,0,0,0,765.794,1633.921Z" transform="translate(-761.037 -1568.765)" fill="#f8f8fc"/>
        <path id="Trazado_58658" data-name="Trazado 58658" d="M762.466,1664.474a2.916,2.916,0,0,0,2.919,2.861l29.03-.4a2.875,2.875,0,0,0,2.826-2.92h0l-.362-29.029a2.874,2.874,0,0,0-2.914-2.829h0l-29.029.362a2.922,2.922,0,0,0-2.877,2.917Zm5.43-26.206,23.242-.28.271,23.2-23.2.321Z" transform="translate(-759.993 -1554.626)" fill="#f8f8fc"/>
        <path id="Trazado_58659" data-name="Trazado 58659" d="M766.2,1669.33a4.084,4.084,0,0,1-3.992-3.991l-.4-28.984a4.024,4.024,0,0,1,1.169-2.872,3.883,3.883,0,0,1,2.823-1.216l28.983-.355a4.483,4.483,0,0,1,2.873,1.117,3.991,3.991,0,0,1,1.209,2.829l.36,28.984a3.811,3.811,0,0,1-1.12,2.877,4.01,4.01,0,0,1-2.826,1.212l-28.986.4Zm-1.75-3.991a1.629,1.629,0,0,0,.541,1.208,2,2,0,0,0,1.254.536l28.986-.4a1.588,1.588,0,0,0,1.253-.541,1.456,1.456,0,0,0,.5-1.255l-.362-28.985a1.594,1.594,0,0,0-.537-1.252,1.3,1.3,0,0,0-1.255-.5l-29.03.356a1.844,1.844,0,0,0-1.75,1.8Zm3.549-1.848-.359-25.437,25.438-.362.359,25.447Zm1.931-23.231.266,20.944,20.952-.271-.268-20.947Z" transform="translate(-760.865 -1555.5)" fill="#f8f8fc"/>
        <path id="Trazado_58660" data-name="Trazado 58660" d="M793.742,1615.35l-29.03.362a2.965,2.965,0,0,0-2.872,2.966l.406,28.984a2.917,2.917,0,0,0,2.914,2.872l29.031-.412a2.865,2.865,0,0,0,2.87-2.864v-.05l-.4-28.984a2.875,2.875,0,0,0-2.873-2.874Zm-2.513,29.029-23.241.319-.269-23.2,23.2-.311Z" transform="translate(-760.76 -1613.236)" fill="#f8f8fc"/>
        <path id="Trazado_58661" data-name="Trazado 58661" d="M765.957,1652.523a4.077,4.077,0,0,1-4-3.994l-.358-28.981a3.825,3.825,0,0,1,1.119-2.88,4.094,4.094,0,0,1,2.831-1.209l28.981-.356h0a3.818,3.818,0,0,1,2.875,1.117,4,4,0,0,1,1.209,2.834l.4,29.024a3.933,3.933,0,0,1-1.169,2.829,3.689,3.689,0,0,1-2.826,1.209l-28.982.406Zm28.623-35.175-28.981.359a1.8,1.8,0,0,0-1.259.535,1.575,1.575,0,0,0-.495,1.265l.359,29.023a1.724,1.724,0,0,0,.541,1.249,2.322,2.322,0,0,0,1.251.5l29.032-.406a1.6,1.6,0,0,0,1.212-.53,1.643,1.643,0,0,0,.54-1.262l-.406-28.978a1.632,1.632,0,0,0-.538-1.265,2.218,2.218,0,0,0-1.255-.488Zm-26.92,29.343-.359-25.44,25.438-.314.362,25.437Zm1.931-23.244.269,20.947,20.952-.267-.269-20.954Z" transform="translate(-761.6 -1614.115)" fill="#f8f8fc"/>
        <path id="Trazado_58662" data-name="Trazado 58662" d="M813.465,1618a2.868,2.868,0,0,0-2.872-2.867h-.044l-29.032.359a2.956,2.956,0,0,0-2.867,2.956l.4,28.984a2.869,2.869,0,0,0,2.872,2.872h.045l29.029-.354a2.915,2.915,0,0,0,2.827-2.959Zm-5.474,26.159-23.194.314-.314-23.19,23.241-.321Z" transform="translate(-702.148 -1614.007)" fill="#f8f8fc"/>
        <path id="Trazado_58663" data-name="Trazado 58663" d="M782.8,1652.305a4.022,4.022,0,0,1-2.781-1.124,3.941,3.941,0,0,1-1.21-2.829l-.406-29.026a4.1,4.1,0,0,1,1.164-2.877,4.15,4.15,0,0,1,2.828-1.2l28.983-.362a3.812,3.812,0,0,1,2.873,1.123,3.993,3.993,0,0,1,1.213,2.827l.357,29.028a3.869,3.869,0,0,1-1.119,2.867,4.136,4.136,0,0,1-2.827,1.214l-28.986.363Zm28.627-35.178h0l-29.031.359a1.85,1.85,0,0,0-1.75,1.8l.4,29.027a1.72,1.72,0,0,0,.541,1.259,1.907,1.907,0,0,0,1.256.488l29.208-.4a1.993,1.993,0,0,0,1.255-.535,1.629,1.629,0,0,0,.5-1.3l-.362-28.987a1.654,1.654,0,0,0-.536-1.259A1.783,1.783,0,0,0,811.424,1617.127ZM784.5,1646.47l-.312-25.438,25.438-.314.359,25.438Zm1.975-23.24.271,21,20.948-.314-.266-20.959Z" transform="translate(-703.022 -1614.88)" fill="#f8f8fc"/>
        <path id="Trazado_58664" data-name="Trazado 58664" d="M814.048,1663.8l-.359-29.029a2.922,2.922,0,0,0-2.964-2.827l-28.982.362a2.957,2.957,0,0,0-2.873,2.964l.406,28.978a2.858,2.858,0,0,0,2.87,2.864h.044l29.03-.391a2.829,2.829,0,0,0,2.828-2.829Zm-5.833-2.824-23.2.309-.313-23.19,23.2-.322Z" transform="translate(-701.381 -1555.397)" fill="#f8f8fc"/>
        <path id="Trazado_58665" data-name="Trazado 58665" d="M783.018,1669.111a3.823,3.823,0,0,1-2.781-1.161,3.73,3.73,0,0,1-1.213-2.832l-.4-28.984a4.084,4.084,0,0,1,1.169-2.877,3.918,3.918,0,0,1,2.823-1.206l28.986-.356a3.678,3.678,0,0,1,2.87,1.118,3.966,3.966,0,0,1,1.21,2.829l.363,29.024a3.746,3.746,0,0,1-1.125,2.832,3.81,3.81,0,0,1-2.825,1.209l-29.029.4Zm28.626-35.175h0l-29.032.363a1.76,1.76,0,0,0-1.251.534,1.939,1.939,0,0,0-.5,1.256l.406,29.029a1.737,1.737,0,0,0,.538,1.256,1.938,1.938,0,0,0,1.257.494l28.982-.4a1.567,1.567,0,0,0,1.257-.547,1.708,1.708,0,0,0,.492-1.253l-.355-28.984a1.606,1.606,0,0,0-.541-1.256A1.878,1.878,0,0,0,811.644,1633.936Zm-26.923,29.34-.313-25.44,25.442-.353.315,25.481Zm1.977-23.233.271,20.949,20.951-.268-.267-20.952Z" transform="translate(-702.253 -1556.273)" fill="#f8f8fc"/>
        <path id="Trazado_58666" data-name="Trazado 58666" d="M773.34,1634.77h-5.787a2.96,2.96,0,0,0-2.872,2.964v5.782a2.92,2.92,0,0,0,2.914,2.875h5.834a2.922,2.922,0,0,0,2.872-2.923v-5.828A2.959,2.959,0,0,0,773.34,1634.77Z" transform="translate(-750.86 -1545.527)" fill="#f8f8fc"/>
        <path id="Trazado_58667" data-name="Trazado 58667" d="M768.487,1648.4a4.087,4.087,0,0,1-4.037-3.994v-5.791a4.047,4.047,0,0,1,1.166-2.87,3.914,3.914,0,0,1,2.829-1.208h5.788a4.5,4.5,0,0,1,2.873,1.168,3.968,3.968,0,0,1,1.207,2.822v5.788a4.064,4.064,0,0,1-3.99,4.084h-5.835Zm5.7-11.716h-5.832a1.847,1.847,0,0,0-1.751,1.8v5.833a1.843,1.843,0,0,0,1.8,1.753h5.787a1.589,1.589,0,0,0,1.254-.541,1.685,1.685,0,0,0,.54-1.256v-5.788a1.78,1.78,0,0,0-.54-1.259A1.546,1.546,0,0,0,774.187,1636.687Z" transform="translate(-751.661 -1546.326)" fill="#f8f8fc"/>
        <path id="Trazado_58668" data-name="Trazado 58668" d="M767.441,1629.559h5.791a2.9,2.9,0,0,0,2.87-2.908v-5.831a2.864,2.864,0,0,0-2.918-2.829h-5.831a2.954,2.954,0,0,0-2.874,2.961v5.791A2.948,2.948,0,0,0,767.441,1629.559Z" transform="translate(-751.554 -1604.032)" fill="#f8f8fc"/>
        <path id="Trazado_58669" data-name="Trazado 58669" d="M768.268,1631.6a4.08,4.08,0,0,1-4.038-3.991v-5.794a4.077,4.077,0,0,1,1.169-2.864,4.187,4.187,0,0,1,2.826-1.217h5.786a3.933,3.933,0,0,1,2.873,1.124,3.984,3.984,0,0,1,1.212,2.828v5.791a4.031,4.031,0,0,1-1.166,2.864,3.88,3.88,0,0,1-2.828,1.212h-5.787Zm5.7-11.662h-5.782a1.806,1.806,0,0,0-1.259.531,1.762,1.762,0,0,0-.537,1.259v5.831a1.75,1.75,0,0,0,1.75,1.757h5.874a1.865,1.865,0,0,0,1.75-1.8v-5.791a1.6,1.6,0,0,0-.54-1.259A1.725,1.725,0,0,0,773.965,1619.935Z" transform="translate(-752.426 -1604.94)" fill="#f8f8fc"/>
        <path id="Trazado_58670" data-name="Trazado 58670" d="M784.132,1629.34h5.833a2.915,2.915,0,0,0,2.87-2.914v-5.791a2.911,2.911,0,0,0-2.961-2.864h-5.742a2.955,2.955,0,0,0-2.872,2.956v5.789A2.866,2.866,0,0,0,784.132,1629.34Z" transform="translate(-693.048 -1604.799)" fill="#f8f8fc"/>
        <path id="Trazado_58671" data-name="Trazado 58671" d="M785.037,1631.364a4.038,4.038,0,0,1-4.037-3.953v-5.828a3.965,3.965,0,0,1,1.168-2.825,3.686,3.686,0,0,1,2.826-1.206h5.789a4.033,4.033,0,0,1,4.036,3.936v5.838a4.065,4.065,0,0,1-3.994,4.038Zm5.7-11.666H784.9a1.763,1.763,0,0,0-1.209.491,1.8,1.8,0,0,0-.54,1.3v5.794a1.826,1.826,0,0,0,1.8,1.747h5.786a1.83,1.83,0,0,0,1.794-1.793v-5.788a1.755,1.755,0,0,0-1.6-1.885h-.012Z" transform="translate(-693.955 -1605.57)" fill="#f8f8fc"/>
        <path id="Trazado_58672" data-name="Trazado 58672" d="M784.457,1646.159h5.833a2.872,2.872,0,0,0,2.827-2.921h0v-5.831a2.92,2.92,0,0,0-2.961-2.827h-5.788a2.956,2.956,0,0,0-2.867,2.961v5.788A2.916,2.916,0,0,0,784.457,1646.159Z" transform="translate(-692.213 -1546.187)" fill="#f8f8fc"/>
        <path id="Trazado_58673" data-name="Trazado 58673" d="M785.256,1648.18a4.034,4.034,0,0,1-3.995-3.994V1638.4a4.032,4.032,0,0,1,3.995-4.078h5.833a4.036,4.036,0,0,1,4.034,3.949v5.778a3.786,3.786,0,0,1-1.123,2.874,3.98,3.98,0,0,1-2.826,1.214h-5.787Zm5.74-11.666h-5.833a2.008,2.008,0,0,0-1.255.538,1.906,1.906,0,0,0-.494,1.256v5.834a1.789,1.789,0,0,0,1.748,1.75h5.787a1.6,1.6,0,0,0,1.257-.541,1.714,1.714,0,0,0,.5-1.252v-5.791A1.8,1.8,0,0,0,791,1636.514Z" transform="translate(-693.047 -1547.099)" fill="#f8f8fc"/>
        <path id="Trazado_58674" data-name="Trazado 58674" d="M764.6,1631.626a2.911,2.911,0,0,0,2.915,2.873l37.728-.494v14.5a2.918,2.918,0,0,0,5.792.718,2.859,2.859,0,0,0,0-.718l-.223-17.41a2.875,2.875,0,0,0-2.87-2.872h-.05l-40.377.531a2.838,2.838,0,0,0-2.915,2.745Z" transform="translate(-751.136 -1568.36)" fill="#f8f8fc"/>
        <path id="Trazado_58675" data-name="Trazado 58675" d="M809.077,1653.44a4.084,4.084,0,0,1-2.826-1.123,3.953,3.953,0,0,1-1.212-2.827V1636.03l-36.569.488a3.982,3.982,0,0,1-4.08-3.9v-.089h0a3.99,3.99,0,0,1,3.946-4.037h0l40.38-.541a3.989,3.989,0,0,1,4.082,3.9v.047l.224,17.4a3.8,3.8,0,0,1-1.12,2.873,3.946,3.946,0,0,1-2.825,1.212Zm-2.018-19.609v15.613a1.705,1.705,0,0,0,.536,1.259,2.268,2.268,0,0,0,1.258.491,1.572,1.572,0,0,0,1.255-.538,1.75,1.75,0,0,0,.495-1.253l-.225-17.408a1.836,1.836,0,0,0-1.794-1.754l-40.381.535a1.76,1.76,0,0,0-1.75,1.756v.044h0a1.738,1.738,0,0,0,.54,1.256,1.845,1.845,0,0,0,1.255.5Z" transform="translate(-751.87 -1569.31)" fill="#f8f8fc"/>
        <path id="Trazado_58676" data-name="Trazado 58676" d="M793.961,1631.478a2.874,2.874,0,0,0,2.872-2.864v-.05a2.961,2.961,0,0,0-2.961-2.872l-28.985.365a2.911,2.911,0,1,0,0,5.822h0Z" transform="translate(-760.307 -1577.191)" fill="#f8f8fc"/>
        <path id="Trazado_58677" data-name="Trazado 58677" d="M765.768,1633.877a4.04,4.04,0,0,1-.09-8.079l29.029-.356a3.949,3.949,0,0,1,4.085,3.806v.185a3.99,3.99,0,0,1-1.168,2.829,3.857,3.857,0,0,1-2.823,1.206l-28.985.409Zm28.985-6.2h0l-29.03.366a1.832,1.832,0,0,0-1.748,1.835,1.7,1.7,0,0,0,.54,1.255,2.028,2.028,0,0,0,1.254.5l29.032-.4a1.846,1.846,0,0,0,1.748-1.8,1.8,1.8,0,0,0-1.795-1.753Z" transform="translate(-761.144 -1578.058)" fill="#f8f8fc"/>
        <path id="Trazado_58678" data-name="Trazado 58678" d="M773.632,1631.479h11.621a2.914,2.914,0,1,0,0-5.828H773.677a2.916,2.916,0,0,0,0,5.788Z" transform="translate(-728.402 -1577.323)" fill="#f8f8fc"/>
        <path id="Trazado_58679" data-name="Trazado 58679" d="M774.815,1633.445a3.994,3.994,0,0,1-4.034-3.948v-.04a3.992,3.992,0,0,1,3.95-4.044h11.62a3.739,3.739,0,0,1,2.867,1.17,3.9,3.9,0,0,1,1.214,2.824,4.031,4.031,0,0,1-4,4.081H774.861Zm11.576-5.962H774.775a1.78,1.78,0,0,0-1.724,1.855,1.756,1.756,0,0,0,.51,1.192,2.608,2.608,0,0,0,1.254.491h11.62a1.782,1.782,0,0,0,1.217-3.052,1.712,1.712,0,0,0-1.26-.485Z" transform="translate(-729.589 -1578.165)" fill="#f8f8fc"/>
        <path id="Trazado_58680" data-name="Trazado 58680" d="M773.726,1615.311a2.916,2.916,0,0,0-2.826,2.959l.362,28.984a2.864,2.864,0,0,0,2.87,2.874h.041l20.325-.271v14.5a2.917,2.917,0,0,0,2.961,2.87h11.575a2.917,2.917,0,0,0,2.872-2.957h0A2.86,2.86,0,0,0,809,1661.44h-8.7l-.228-14.5a2.863,2.863,0,0,0-2.872-2.864h-.044l-20.325.27-.312-26.118A2.962,2.962,0,0,0,773.726,1615.311Z" transform="translate(-729.17 -1613.375)" fill="#f8f8fc"/>
        <path id="Trazado_58681" data-name="Trazado 58681" d="M798.341,1669.456a4.036,4.036,0,0,1-4.034-3.946v-13.464H775.15a4.041,4.041,0,0,1-4.041-3.949l-.358-29.026a4.037,4.037,0,0,1,3.948-4.081h0a4.08,4.08,0,0,1,4.039,3.991l.312,24.988,19.206-.261a3.946,3.946,0,0,1,4.039,3.857v13.6h7.577a3.9,3.9,0,0,1,4.08,3.716c0,.073,0,.155,0,.227a3.987,3.987,0,0,1-3.9,4.086H798.388Zm-1.967-19.606v15.613a1.7,1.7,0,0,0,1.654,1.757c.046,0,.09,0,.136,0h11.625a1.752,1.752,0,0,0,1.745-1.753v-.037a1.7,1.7,0,0,0-1.652-1.756.7.7,0,0,0-.143,0h-9.822l-.223-15.614a1.838,1.838,0,0,0-1.8-1.748l-21.4.27-.357-27.191a1.8,1.8,0,0,0-1.793-1.8h0a1.8,1.8,0,0,0-1.751,1.8l.36,29.026a1.831,1.831,0,0,0,1.794,1.75Z" transform="translate(-729.694 -1614.495)" fill="#f8f8fc"/>
        <path id="Trazado_58682" data-name="Trazado 58682" d="M801.657,1625.471l-17.406.232a2.917,2.917,0,0,0,.088,5.832h17.41a3.033,3.033,0,0,0,.052-6.055Z" transform="translate(-692.631 -1577.955)" fill="#f8f8fc"/>
        <path id="Trazado_58683" data-name="Trazado 58683" d="M785.158,1633.526a3.894,3.894,0,0,1-2.828-1.158,4.183,4.183,0,0,1-1.21-2.829,4.077,4.077,0,0,1,3.992-4.081l17.41-.237a4.04,4.04,0,0,1,0,8.079h-17.41Zm17.364-6.049-17.41.227a1.775,1.775,0,0,0-1.21,3.049,2.618,2.618,0,0,0,1.256.535h17.406a1.793,1.793,0,1,0-.042-3.584Z" transform="translate(-693.534 -1578.824)" fill="#f8f8fc"/>
        <path id="Trazado_58684" data-name="Trazado 58684" d="M810.655,1628.079l-28.983.366a2.953,2.953,0,0,0-2.872,2.954,2.919,2.919,0,0,0,2.96,2.829l28.985-.356a2.919,2.919,0,0,0,.719-5.794,2.738,2.738,0,0,0-.719,0Z" transform="translate(-701.628 -1568.935)" fill="#f8f8fc"/>
        <path id="Trazado_58685" data-name="Trazado 58685" d="M782.609,1636.249a4.039,4.039,0,1,1,0-8.078l28.985-.359a4.541,4.541,0,0,1,2.87,1.12,4.03,4.03,0,0,1-2.782,6.91h0l-28.983.406Zm28.985-6.19-29.027.356a1.994,1.994,0,0,0-1.259.538,1.948,1.948,0,0,0-.492,1.255,1.737,1.737,0,0,0,1.706,1.794h.088l29.027-.4a1.755,1.755,0,0,0,1.753-1.757v-.04a1.823,1.823,0,0,0-.54-1.262A1.594,1.594,0,0,0,811.594,1630.059Z" transform="translate(-702.43 -1569.8)" fill="#f8f8fc"/>
        <path id="Trazado_58686" data-name="Trazado 58686" d="M785.611,1634.631H774.037a2.868,2.868,0,0,0-2.868,2.87v17.457a2.915,2.915,0,1,0,5.786.721,3.1,3.1,0,0,0,0-.721v-14.5h8.706a2.915,2.915,0,1,0,0-5.831Z" transform="translate(-728.318 -1546.015)" fill="#f8f8fc"/>
        <path id="Trazado_58687" data-name="Trazado 58687" d="M774.951,1659.905a4.089,4.089,0,0,1-4-3.994v-17.359a3.825,3.825,0,0,1,1.123-2.877,4.031,4.031,0,0,1,2.826-1.214h11.621a4.14,4.14,0,0,1,4.085,4,4.075,4.075,0,0,1-4,4.081h-7.578V1656a4.223,4.223,0,0,1-1.12,2.88,4.018,4.018,0,0,1-2.831,1.209Zm11.347-23.374H774.725a1.606,1.606,0,0,0-1.256.541,1.711,1.711,0,0,0-.5,1.25v17.41a1.761,1.761,0,0,0,.54,1.259,2.083,2.083,0,0,0,1.259.491,1.861,1.861,0,0,0,1.256-.542,1.914,1.914,0,0,0,.492-1.255v-15.612H786.3a1.8,1.8,0,1,0,0-3.592Z" transform="translate(-728.999 -1546.608)" fill="#f8f8fc"/>
        <path id="Trazado_58688" data-name="Trazado 58688" d="M785.354,1665.866h-8.7a2.917,2.917,0,0,0,.088,5.834h11.578a2.874,2.874,0,0,0,2.87-2.87v-.05l-.45-34.817a2.916,2.916,0,1,0-5.787,0Z" transform="translate(-719.127 -1559.755)" fill="#f8f8fc"/>
        <path id="Trazado_58689" data-name="Trazado 58689" d="M777.57,1673.77a4.081,4.081,0,0,1-4.039-3.994,4.061,4.061,0,0,1,3.994-4.085h7.584l-.4-30.771a4.038,4.038,0,1,1,8.03-.863,4.227,4.227,0,0,1,0,.863l.448,34.768a4,4,0,0,1-3.9,4.083H777.57Zm11.125-40.787h0a1.752,1.752,0,0,0-1.748,1.747v.044l.4,33.031H777.57a1.766,1.766,0,0,0-1.255.538,1.783,1.783,0,0,0,1.3,3.04h11.573a1.744,1.744,0,0,0,1.75-1.744v-.047l-.446-34.818a1.8,1.8,0,0,0-1.8-1.792h0Z" transform="translate(-720.002 -1560.613)" fill="#f8f8fc"/>
        <path id="Trazado_58690" data-name="Trazado 58690" d="M788.346,1638.229a2.9,2.9,0,0,0,2.872-2.959h0v-17.41a2.917,2.917,0,0,0-5.787,0v14.5h-8.7a2.915,2.915,0,0,0-.719,5.785,2.738,2.738,0,0,0,.719,0Z" transform="translate(-720.278 -1613.373)" fill="#f8f8fc"/>
        <path id="Trazado_58691" data-name="Trazado 58691" d="M777.65,1640.541a4.039,4.039,0,1,1-.846-8.034,5.563,5.563,0,0,1,.846,0h7.587v-13.461a3.983,3.983,0,0,1,3.945-4.034h0a4.034,4.034,0,0,1,4.039,3.943v17.41a4.18,4.18,0,0,1-1.123,2.873,3.99,3.99,0,0,1-2.826,1.214H777.65ZM789,1617.211h0a1.751,1.751,0,0,0-1.75,1.744v15.663h-9.825a1.753,1.753,0,0,0-1.753,1.747v.04a1.843,1.843,0,0,0,1.8,1.753h11.62a1.844,1.844,0,0,0,1.254-.534,1.927,1.927,0,0,0,.495-1.259v-17.41a1.746,1.746,0,0,0-1.743-1.744Z" transform="translate(-721.204 -1614.423)" fill="#f8f8fc"/>
      </g>
    </g>
  </g>
</svg>
