<svg version="1.2" xmlns="http://www.w3.org/2000/svg" xmlns:xlink="http://www.w3.org/1999/xlink" overflow="visible" preserveAspectRatio="none" viewBox="0 0 20 25" width="20" height="25"><g transform="translate(0, 0)"><g transform="translate(-6.661338147750939e-16, 0) rotate(0)"><path style="stroke-width: 0; stroke-linecap: butt; stroke-linejoin: miter; fill: rgb(122, 122, 122);" d="M6.03571,0.86426c0.24107,-0.53223 0.73661,-0.86426 1.27679,-0.86426h5.375c0.54018,0 1.03571,0.33203 1.27679,0.86426l0.32143,0.69824h4.28571c0.79018,0 1.42857,0.69824 1.42857,1.5625c0,0.86426 -0.63839,1.5625 -1.42857,1.5625h-17.14286c-0.79018,0 -1.42857,-0.69824 -1.42857,-1.5625c0,-0.86426 0.63839,-1.5625 1.42857,-1.5625h4.28571zM1.42857,6.25h17.14286v15.625c0,1.72363 -1.28125,3.125 -2.85714,3.125h-11.42857c-1.57589,0 -2.85714,-1.40137 -2.85714,-3.125zM5.71429,9.375c-0.39286,0 -0.71429,0.35156 -0.71429,0.78125v10.9375c0,0.42969 0.32143,0.78125 0.71429,0.78125c0.39286,0 0.71429,-0.35156 0.71429,-0.78125v-10.9375c0,-0.42969 -0.32143,-0.78125 -0.71429,-0.78125zM10,9.375c-0.39286,0 -0.71429,0.35156 -0.71429,0.78125v10.9375c0,0.42969 0.32143,0.78125 0.71429,0.78125c0.39286,0 0.71429,-0.35156 0.71429,-0.78125v-10.9375c0,-0.42969 -0.32143,-0.78125 -0.71429,-0.78125zM14.28571,9.375c-0.39286,0 -0.71429,0.35156 -0.71429,0.78125v10.9375c0,0.42969 0.32143,0.78125 0.71429,0.78125c0.39286,0 0.71429,-0.35156 0.71429,-0.78125v-10.9375c0,-0.42969 -0.32143,-0.78125 -0.71429,-0.78125z" vector-effect="non-scaling-stroke"/></g><defs><path id="path-169904725061792" d="M6.03571,0.86426c0.24107,-0.53223 0.73661,-0.86426 1.27679,-0.86426h5.375c0.54018,0 1.03571,0.33203 1.27679,0.86426l0.32143,0.69824h4.28571c0.79018,0 1.42857,0.69824 1.42857,1.5625c0,0.86426 -0.63839,1.5625 -1.42857,1.5625h-17.14286c-0.79018,0 -1.42857,-0.69824 -1.42857,-1.5625c0,-0.86426 0.63839,-1.5625 1.42857,-1.5625h4.28571zM1.42857,6.25h17.14286v15.625c0,1.72363 -1.28125,3.125 -2.85714,3.125h-11.42857c-1.57589,0 -2.85714,-1.40137 -2.85714,-3.125zM5.71429,9.375c-0.39286,0 -0.71429,0.35156 -0.71429,0.78125v10.9375c0,0.42969 0.32143,0.78125 0.71429,0.78125c0.39286,0 0.71429,-0.35156 0.71429,-0.78125v-10.9375c0,-0.42969 -0.32143,-0.78125 -0.71429,-0.78125zM10,9.375c-0.39286,0 -0.71429,0.35156 -0.71429,0.78125v10.9375c0,0.42969 0.32143,0.78125 0.71429,0.78125c0.39286,0 0.71429,-0.35156 0.71429,-0.78125v-10.9375c0,-0.42969 -0.32143,-0.78125 -0.71429,-0.78125zM14.28571,9.375c-0.39286,0 -0.71429,0.35156 -0.71429,0.78125v10.9375c0,0.42969 0.32143,0.78125 0.71429,0.78125c0.39286,0 0.71429,-0.35156 0.71429,-0.78125v-10.9375c0,-0.42969 -0.32143,-0.78125 -0.71429,-0.78125z" vector-effect="non-scaling-stroke"/></defs></g></svg>