<svg version="1.2" xmlns="http://www.w3.org/2000/svg" xmlns:xlink="http://www.w3.org/1999/xlink" overflow="visible" preserveAspectRatio="none" viewBox="0 0 12 10" width="12" height="10"><g transform="translate(0, 0)"><defs><path id="path-1704909064078310214" d="M12.605042016806722 7.468712151796528 C12.605042016806722 9.698363947641475 10.723885503490727 11.505853855470328 8.403361344537815 11.505853855470328 C8.403361344537815 11.505853855470328 1.2605042016806722 11.505853855470328 1.2605042016806722 11.505853855470328 C1.2605042016806722 11.505853855470328 1.2605042016806722 10.698425514735566 1.2605042016806722 10.698425514735566 C1.2605042016806722 10.698425514735566 8.403361344537815 10.698425514735566 8.403361344537815 10.698425514735566 C10.259780671700145 10.698425514735566 11.764705882352942 9.252433588472485 11.764705882352942 7.468712151796528 C11.764705882352942 5.684990715120571 10.259780671700145 4.238998788857489 8.403361344537815 4.238998788857489 C8.403361344537815 4.238998788857489 2.4201680672268906 4.238998788857489 2.4201680672268906 4.238998788857489 C2.4201680672268906 4.238998788857489 4.050420168067228 5.542995559144126 4.050420168067228 5.542995559144126 C4.050420168067228 5.542995559144126 3.512605042016807 6.1647153815098905 3.512605042016807 6.1647153815098905 C3.512605042016807 6.1647153815098905 0.6050420168067232 3.835284618490109 0.6050420168067232 3.835284618490109 C0.6050420168067232 3.835284618490109 3.512605042016807 1.5058538554703271 3.512605042016807 1.5058538554703271 C3.512605042016807 1.5058538554703271 4.050420168067228 2.127573677836092 4.050420168067228 2.127573677836092 C4.050420168067228 2.127573677836092 2.420168067226891 3.431570448122729 2.420168067226891 3.431570448122729 C2.420168067226891 3.431570448122729 8.403361344537815 3.431570448122729 8.403361344537815 3.431570448122729 C10.723885503490727 3.431570448122729 12.605042016806722 5.2390603559515805 12.605042016806722 7.468712151796528 Z" vector-effect="non-scaling-stroke"/></defs><g transform="translate(-0.6050420168067232, -1.5058538554703271)"><path d="M12.605042016806722 7.468712151796528 C12.605042016806722 9.698363947641475 10.723885503490727 11.505853855470328 8.403361344537815 11.505853855470328 C8.403361344537815 11.505853855470328 1.2605042016806722 11.505853855470328 1.2605042016806722 11.505853855470328 C1.2605042016806722 11.505853855470328 1.2605042016806722 10.698425514735566 1.2605042016806722 10.698425514735566 C1.2605042016806722 10.698425514735566 8.403361344537815 10.698425514735566 8.403361344537815 10.698425514735566 C10.259780671700145 10.698425514735566 11.764705882352942 9.252433588472485 11.764705882352942 7.468712151796528 C11.764705882352942 5.684990715120571 10.259780671700145 4.238998788857489 8.403361344537815 4.238998788857489 C8.403361344537815 4.238998788857489 2.4201680672268906 4.238998788857489 2.4201680672268906 4.238998788857489 C2.4201680672268906 4.238998788857489 4.050420168067228 5.542995559144126 4.050420168067228 5.542995559144126 C4.050420168067228 5.542995559144126 3.512605042016807 6.1647153815098905 3.512605042016807 6.1647153815098905 C3.512605042016807 6.1647153815098905 0.6050420168067232 3.835284618490109 0.6050420168067232 3.835284618490109 C0.6050420168067232 3.835284618490109 3.512605042016807 1.5058538554703271 3.512605042016807 1.5058538554703271 C3.512605042016807 1.5058538554703271 4.050420168067228 2.127573677836092 4.050420168067228 2.127573677836092 C4.050420168067228 2.127573677836092 2.420168067226891 3.431570448122729 2.420168067226891 3.431570448122729 C2.420168067226891 3.431570448122729 8.403361344537815 3.431570448122729 8.403361344537815 3.431570448122729 C10.723885503490727 3.431570448122729 12.605042016806722 5.2390603559515805 12.605042016806722 7.468712151796528 Z" style="stroke-width: 0; stroke-linecap: butt; stroke-linejoin: miter; fill: rgb(20, 27, 26);" vector-effect="non-scaling-stroke"/></g></g></svg>