<svg xmlns="http://www.w3.org/2000/svg" xmlns:xlink="http://www.w3.org/1999/xlink" width="826" height="779" viewBox="0 0 826 779">
  <defs>
    <clipPath id="clip-Web_1920_21">
      <rect width="826" height="779"/>
    </clipPath>
  </defs>
  <g id="Web_1920_21" data-name="Web 1920 – 21" clip-path="url(#clip-Web_1920_21)">
    <rect width="826" height="779" fill="#fff"/>
    <g id="Grupo_75764" data-name="Grupo 75764" transform="translate(213.351 235.4)">
      <path id="Trazado_56453" data-name="Trazado 56453" d="M1226.746,1429.794H1064.641c-7.8.032-14.763-4.248-17.42-10.676l-2.579-6.224c-2.638-6.4-9.568-10.674-17.324-10.674H863.55c-10.183,0-18.431,7.239-18.431,16.174v244.163c0,8.93,8.247,16.169,18.431,16.169h131.6c-23.317-40.424-50.782-93.386-50.782-119.821-.065-48.8,44.983-88.416,100.609-88.473s100.787,39.463,100.851,88.266v.207c0,26.436-27.648,79.554-50.688,119.821h131.6c10.181,0,18.432-7.239,18.432-16.169V1445.963C1245.178,1437.029,1236.927,1429.794,1226.746,1429.794Z" transform="translate(-845.119 -1402.221)" fill="#060809"/>
      <path id="Trazado_56454" data-name="Trazado 56454" d="M923.927,1413.543a65.169,65.169,0,0,0-65.162,65.172h0c0,23.686,28.213,82.375,47.54,119.812,10.023,19.483,17.622,33.139,17.622,33.139s7.68-13.656,17.706-33.139c19.243-37.437,47.459-96.131,47.459-119.812a65.17,65.17,0,0,0-65.164-65.172Zm0,87.155a29.671,29.671,0,1,1,.163,0Z" transform="translate(-723.897 -1322)" fill="#060809"/>
    </g>
  </g>
</svg>
