<svg version="1.2" xmlns="http://www.w3.org/2000/svg" xmlns:xlink="http://www.w3.org/1999/xlink" overflow="visible" preserveAspectRatio="none" viewBox="0 0 13.999999999999998 14" width="13.999999999999998" height="14"><g transform="translate(0, 0)"><g transform="translate(-1.1102230246251565e-15, 0) rotate(0)"><path d="M14,1.86767v10.42532c0,0.94137 -0.76884,1.70701 -1.71106,1.70701h-10.5804c-0.94221,0 -1.70854,-0.76564 -1.70854,-1.70701v-10.42532c0,-0.94137 0.76633,-1.70701 1.70854,-1.70701h1.57286c0.31407,0 0.57035,0.25605 0.57035,0.56984c0,0.31379 -0.25628,0.56984 -0.57035,0.56984h-1.57286c-0.31156,0 -0.56784,0.25605 -0.56784,0.56733v10.42532c0,0.31128 0.25628,0.56733 0.56784,0.56733h10.5804c0.31407,0 0.56784,-0.25605 0.56784,-0.56733v-10.42532c0,-0.31128 -0.25377,-0.56733 -0.56784,-0.56733h-1.67085c-0.31407,0 -0.57035,-0.25354 -0.57035,-0.56984c0,-0.3163 0.25628,-0.56984 0.57035,-0.56984h1.67085c0.94221,0 1.71106,0.76564 1.71106,1.70701zM7.53769,0.53721v6.10005c0,0.29622 -0.24121,0.53721 -0.53769,0.53721c-0.29648,0 -0.53769,-0.24099 -0.53769,-0.53721v-6.10005c0,-0.29622 0.24121,-0.53721 0.53769,-0.53721c0.29648,0 0.53769,0.24099 0.53769,0.53721zM10.16332,7.3527l-2.40452,2.18397c-0.21608,0.1958 -0.49497,0.30375 -0.78392,0.30375c-0.28894,0 -0.57286,-0.11045 -0.79146,-0.31128l-2.35176,-2.17644c-0.23116,-0.21589 -0.24623,-0.57737 -0.03015,-0.80581c0.21357,-0.23095 0.57538,-0.24601 0.80402,-0.03263l2.35427,2.17895c0,0 0.02261,0.00753 0.03015,0l2.40704,-2.18397c0.11307,-0.10292 0.25879,-0.15564 0.41206,-0.14811c0.15075,0.00753 0.29146,0.0728 0.39447,0.18576c0.21106,0.23346 0.19347,0.59494 -0.0402,0.80581z" style="stroke-width: 0; stroke-linecap: butt; stroke-linejoin: miter; fill: rgb(29, 29, 27);" vector-effect="non-scaling-stroke"/></g><defs><path id="path-170310662164094441" d="M14,1.86767v10.42532c0,0.94137 -0.76884,1.70701 -1.71106,1.70701h-10.5804c-0.94221,0 -1.70854,-0.76564 -1.70854,-1.70701v-10.42532c0,-0.94137 0.76633,-1.70701 1.70854,-1.70701h1.57286c0.31407,0 0.57035,0.25605 0.57035,0.56984c0,0.31379 -0.25628,0.56984 -0.57035,0.56984h-1.57286c-0.31156,0 -0.56784,0.25605 -0.56784,0.56733v10.42532c0,0.31128 0.25628,0.56733 0.56784,0.56733h10.5804c0.31407,0 0.56784,-0.25605 0.56784,-0.56733v-10.42532c0,-0.31128 -0.25377,-0.56733 -0.56784,-0.56733h-1.67085c-0.31407,0 -0.57035,-0.25354 -0.57035,-0.56984c0,-0.3163 0.25628,-0.56984 0.57035,-0.56984h1.67085c0.94221,0 1.71106,0.76564 1.71106,1.70701zM7.53769,0.53721v6.10005c0,0.29622 -0.24121,0.53721 -0.53769,0.53721c-0.29648,0 -0.53769,-0.24099 -0.53769,-0.53721v-6.10005c0,-0.29622 0.24121,-0.53721 0.53769,-0.53721c0.29648,0 0.53769,0.24099 0.53769,0.53721zM10.16332,7.3527l-2.40452,2.18397c-0.21608,0.1958 -0.49497,0.30375 -0.78392,0.30375c-0.28894,0 -0.57286,-0.11045 -0.79146,-0.31128l-2.35176,-2.17644c-0.23116,-0.21589 -0.24623,-0.57737 -0.03015,-0.80581c0.21357,-0.23095 0.57538,-0.24601 0.80402,-0.03263l2.35427,2.17895c0,0 0.02261,0.00753 0.03015,0l2.40704,-2.18397c0.11307,-0.10292 0.25879,-0.15564 0.41206,-0.14811c0.15075,0.00753 0.29146,0.0728 0.39447,0.18576c0.21106,0.23346 0.19347,0.59494 -0.0402,0.80581z" vector-effect="non-scaling-stroke"/></defs></g></svg>