<svg xmlns="http://www.w3.org/2000/svg" xmlns:xlink="http://www.w3.org/1999/xlink" width="826" height="779" viewBox="0 0 826 779">
  <defs>
    <clipPath id="clip-Web_1920_25">
      <rect width="826" height="779"/>
    </clipPath>
  </defs>
  <g id="Web_1920_25" data-name="Web 1920 – 25" clip-path="url(#clip-Web_1920_25)">
    <rect width="826" height="779" fill="#fff"/>
    <g id="Grupo_75777" data-name="Grupo 75777" transform="translate(175.253 -1347.033)">
      <path id="Icon_material-person-pin" data-name="Icon material-person-pin" d="M262.371,3H36.734A32.225,32.225,0,0,0,4.5,35.234V260.87A32.225,32.225,0,0,0,36.734,293.1H101.2l48.351,48.351L197.9,293.1h64.468A32.329,32.329,0,0,0,294.6,260.87V35.234A32.329,32.329,0,0,0,262.371,3ZM149.552,56.186A43.516,43.516,0,1,1,106.037,99.7a43.54,43.54,0,0,1,43.516-43.516Zm96.7,172.451H52.851V214.131c0-32.234,64.468-49.962,96.7-49.962s96.7,17.729,96.7,49.962Z" transform="translate(26.5 1626.579)" fill="#17181b"/>
      <g id="Grupo_60904" data-name="Grupo 60904" transform="translate(241.894 1506.035) rotate(3)">
        <path id="Unión_113" data-name="Unión 113" d="M84.887,203.589a8.784,8.784,0,0,1-8.774-8.773v-7.947a88.75,88.75,0,0,1-16.346-6.782l-5.6,5.617a8.968,8.968,0,0,1-12.382,0L17.849,161.77a8.775,8.775,0,0,1,0-12.4l5.618-5.6a88.728,88.728,0,0,1-6.783-16.344H8.774A8.8,8.8,0,0,1,0,118.655V84.821a8.76,8.76,0,0,1,8.793-8.754h7.891a88.192,88.192,0,0,1,6.783-16.344l-5.58-5.542a8.948,8.948,0,0,1-2.574-6.218,8.716,8.716,0,0,1,2.593-6.2L41.824,17.847a8.755,8.755,0,0,1,12.4,0l5.543,5.542a87.4,87.4,0,0,1,16.346-6.763V8.773A8.784,8.784,0,0,1,84.887,0h33.82a8.8,8.8,0,0,1,8.774,8.773v7.853a87.4,87.4,0,0,1,16.346,6.763l5.543-5.561a8.755,8.755,0,0,1,12.4,0l23.918,23.9a8.73,8.73,0,0,1,0,12.418l-5.561,5.58a86.931,86.931,0,0,1,6.783,16.344h7.91a8.76,8.76,0,0,1,8.793,8.754v33.834a8.768,8.768,0,0,1-8.774,8.754h-7.91a85.869,85.869,0,0,1-6.783,16.363l5.618,5.6a8.81,8.81,0,0,1,0,12.4l-23.9,23.934a9.133,9.133,0,0,1-12.438,0l-5.6-5.617a88.75,88.75,0,0,1-16.346,6.782v7.947a8.8,8.8,0,0,1-8.774,8.773ZM59.447,102.518a42.425,42.425,0,1,0,42.425-42.4A42.472,42.472,0,0,0,59.447,102.518Z" transform="translate(0 0)" fill="#17181b"/>
        <path id="Trazado_56465" data-name="Trazado 56465" d="M47.41,0a47.4,47.4,0,1,0,47.4,47.4A47.4,47.4,0,0,0,47.41,0Zm30.1,47.4a30.1,30.1,0,1,1-30.1-30.1A30.1,30.1,0,0,1,77.507,47.4Z" transform="translate(53.015 53.001)" fill="#17181b"/>
      </g>
    </g>
  </g>
</svg>
