<svg version="1.2" xmlns="http://www.w3.org/2000/svg" xmlns:xlink="http://www.w3.org/1999/xlink" overflow="visible" preserveAspectRatio="none" viewBox="0 0 22.999995 25.0000025" width="22.999995" height="25.0000025"><g transform="translate(0, 0)"><g transform="translate(0, 0.0000024999999995167776) rotate(0)"><path style="stroke-width: 0; stroke-linecap: butt; stroke-linejoin: miter; fill: rgb(122, 122, 122);" d="M0,19.79239v5.20761h4.791l14.13026,-15.35898l-4.791,-5.20761zM22.6263,5.6138c0.49826,-0.54159 0.49826,-1.41647 0,-1.95806l-2.98958,-3.24955c-0.49826,-0.54159 -1.30315,-0.54159 -1.80142,0l-2.33801,2.54131l4.791,5.20761z" vector-effect="non-scaling-stroke"/></g><defs><path id="path-169904725061895" d="M0,19.79239v5.20761h4.791l14.13026,-15.35898l-4.791,-5.20761zM22.6263,5.6138c0.49826,-0.54159 0.49826,-1.41647 0,-1.95806l-2.98958,-3.24955c-0.49826,-0.54159 -1.30315,-0.54159 -1.80142,0l-2.33801,2.54131l4.791,5.20761z" vector-effect="non-scaling-stroke"/></defs></g></svg>