<svg xmlns="http://www.w3.org/2000/svg" xmlns:xlink="http://www.w3.org/1999/xlink" width="826" height="779" viewBox="0 0 826 779">
  <defs>
    <clipPath id="clip-Web_1920_50">
      <rect width="826" height="779"/>
    </clipPath>
  </defs>
  <g id="Web_1920_50" data-name="Web 1920 – 50" clip-path="url(#clip-Web_1920_50)">
    <rect width="826" height="779" fill="#fff"/>
    <g id="Grupo_75911" data-name="Grupo 75911" transform="translate(-3268 22192.547)">
      <g id="Grupo_75869" data-name="Grupo 75869">
        <g id="Grupo_75867" data-name="Grupo 75867" transform="translate(9822.963 -849.258)">
          <path id="Trazado_58842" data-name="Trazado 58842" d="M136.1,53.747h-5.484a61.072,61.072,0,0,0-4.7-11.337l3.857-3.858a6.082,6.082,0,0,0,0-8.615L113.18,13.361a6.062,6.062,0,0,0-4.3-1.78h0a6.033,6.033,0,0,0-4.3,1.784l-3.851,3.861a61.215,61.215,0,0,0-11.339-4.7V7.078A6.084,6.084,0,0,0,83.314,1H59.864a6.085,6.085,0,0,0-6.081,6.078v5.447a61.215,61.215,0,0,0-11.339,4.7L38.6,13.377a6.039,6.039,0,0,0-4.3-1.784h0a6.043,6.043,0,0,0-4.3,1.78L13.411,29.966a6.024,6.024,0,0,0-1.787,4.3,6.13,6.13,0,0,0,1.78,4.3l3.867,3.842a61.071,61.071,0,0,0-4.7,11.337H7.094A6.088,6.088,0,0,0,1,59.825V83.277a6.085,6.085,0,0,0,6.081,6.085h5.484a61.191,61.191,0,0,0,4.706,11.34l-3.892,3.886a6.088,6.088,0,0,0,0,8.6l16.59,16.592a6.227,6.227,0,0,0,8.6,0l3.876-3.89a61.14,61.14,0,0,0,11.339,4.7v5.51a6.088,6.088,0,0,0,6.081,6.082h23.45A6.088,6.088,0,0,0,89.4,136.1v-5.51a61.051,61.051,0,0,0,11.339-4.7l3.889,3.886a6.3,6.3,0,0,0,8.614,0l16.574-16.592a6.088,6.088,0,0,0,0-8.6l-3.886-3.886a60.983,60.983,0,0,0,4.7-11.34h5.481a6.088,6.088,0,0,0,6.084-6.082V59.825a6.088,6.088,0,0,0-6.1-6.078ZM119.96,82a49.017,49.017,0,0,1-6.78,16.369,6.111,6.111,0,0,0,.8,7.6l2.916,2.913-7.976,7.977L106,113.953a6.125,6.125,0,0,0-7.6-.8,49.052,49.052,0,0,1-16.364,6.784,6.113,6.113,0,0,0-4.8,5.944v4.148H65.945v-4.148a6.117,6.117,0,0,0-4.8-5.944,49.131,49.131,0,0,1-16.367-6.784,6.109,6.109,0,0,0-7.6.8l-2.916,2.916-7.976-7.977,2.913-2.916a6.117,6.117,0,0,0,.807-7.6A49.067,49.067,0,0,1,23.218,82,6.116,6.116,0,0,0,17.271,77.2H13.162V65.91h4.109a6.116,6.116,0,0,0,5.944-4.8A49.076,49.076,0,0,1,30,44.739a6.12,6.12,0,0,0-.807-7.6L26.3,34.267,34.28,26.29l2.871,2.872a6.119,6.119,0,0,0,7.6.8,48.939,48.939,0,0,1,16.367-6.78,6.12,6.12,0,0,0,4.8-5.948V13.16H77.208v4.075a6.11,6.11,0,0,0,4.83,5.944,49.012,49.012,0,0,1,16.367,6.784,6.116,6.116,0,0,0,7.6-.807l2.871-2.872,7.976,7.977-2.871,2.872a6.114,6.114,0,0,0-.8,7.6,49,49,0,0,1,6.78,16.369,6.113,6.113,0,0,0,5.947,4.8h4.113V77.2h-4.109A6.116,6.116,0,0,0,119.96,82Z" transform="translate(-6047.958 -21184.824)"/>
          <path id="Sustracción_248" data-name="Sustracción 248" d="M60.311,120.571a60.285,60.285,0,1,1,60.311-60.292A60.37,60.37,0,0,1,60.311,120.571Zm-.3-88.223a29.41,29.41,0,1,0,29.419,29.4A29.445,29.445,0,0,0,60.011,32.348Z" transform="translate(-6036.324 -21174.453)"/>
          <path id="Trazado_58843" data-name="Trazado 58843" d="M150.7,117.8a32.87,32.87,0,1,0,32.87,32.869A32.873,32.873,0,0,0,150.7,117.8Zm20.87,32.87A20.874,20.874,0,1,1,150.694,129.8,20.873,20.873,0,0,1,171.567,150.67Z" transform="translate(-6128.015 -21264.869)"/>
        </g>
        <g id="Grupo_75868" data-name="Grupo 75868" transform="translate(9576.496 -589.905)">
          <g id="Rectángulo_14528" data-name="Rectángulo 14528" transform="translate(-6064.502 -21302)" fill="#101316" stroke="#101316" stroke-width="1">
            <rect width="193.614" height="318.894" rx="16" stroke="none"/>
            <rect x="0.5" y="0.5" width="192.614" height="317.894" rx="15.5" fill="none"/>
          </g>
          <rect id="Rectángulo_14530" data-name="Rectángulo 14530" width="63.994" height="18.213" rx="8" transform="translate(-6036.207 -21116.66)" fill="#f8f8fc"/>
          <ellipse id="Elipse_1921" data-name="Elipse 1921" cx="12.928" cy="12.142" rx="12.928" ry="12.142" transform="translate(-6016.816 -21123.912)" fill="#f8f8fc"/>
          <rect id="Rectángulo_14531" data-name="Rectángulo 14531" width="51.478" height="39.598" transform="translate(-6028.683 -21163.951)" fill="#f8f8fc"/>
          <rect id="Rectángulo_14534" data-name="Rectángulo 14534" width="63.994" height="18.213" rx="7" transform="translate(-6036.207 -21039.83)" fill="#f8f8fc"/>
          <g id="Trazado_60738" data-name="Trazado 60738" transform="translate(-6016.816 -21047.08)" fill="#f8f8fc">
            <path d="M 12.92807865142822 23.78340339660645 C 9.60252857208252 23.78340339660645 6.477568626403809 22.56858444213867 4.128838539123535 20.36272430419922 C 1.788748621940613 18.16496276855469 0.4999986588954926 15.24535369873047 0.4999986588954926 12.14170360565186 C 0.4999986588954926 9.038053512573242 1.788748621940613 6.118443489074707 4.128838539123535 3.920683622360229 C 6.477568626403809 1.714823603630066 9.60252857208252 0.5000035762786865 12.92807865142822 0.5000035762786865 C 16.25362777709961 0.5000035762786865 19.37858772277832 1.714823603630066 21.72731781005859 3.920683622360229 C 24.06740951538086 6.118443489074707 25.35615921020508 9.038053512573242 25.35615921020508 12.14170360565186 C 25.35615921020508 15.24535369873047 24.06740951538086 18.16496276855469 21.72731781005859 20.36272430419922 C 19.37858772277832 22.56858444213867 16.25362777709961 23.78340339660645 12.92807865142822 23.78340339660645 Z" stroke="none"/>
            <path d="M 12.92807865142822 1.000003814697266 C 6.350908279418945 1.000003814697266 0.9999980926513672 5.998153686523438 0.9999980926513672 12.14170360565186 C 0.9999980926513672 18.28525352478027 6.350908279418945 23.28340339660645 12.92807865142822 23.28340339660645 C 19.5052490234375 23.28340339660645 24.85615921020508 18.28525352478027 24.85615921020508 12.14170360565186 C 24.85615921020508 5.998153686523438 19.5052490234375 1.000003814697266 12.92807865142822 1.000003814697266 M 12.92807865142822 3.814697265625e-06 C 20.06805801391602 3.814697265625e-06 25.85615921020508 5.436023712158203 25.85615921020508 12.14170360565186 C 25.85615921020508 18.84738349914551 20.06805801391602 24.28340339660645 12.92807865142822 24.28340339660645 C 5.78809928894043 24.28340339660645 -1.9073486328125e-06 18.84738349914551 -1.9073486328125e-06 12.14170360565186 C -1.9073486328125e-06 5.436023712158203 5.78809928894043 3.814697265625e-06 12.92807865142822 3.814697265625e-06 Z" stroke="none" fill="#f8f8fc"/>
          </g>
          <g id="Trazado_58860" data-name="Trazado 58860" transform="translate(-6013.429 -21045.301)" fill="#f8f8fc">
            <path d="M 9.53831958770752 18.55094337463379 C 4.554569721221924 18.55094337463379 0.4999995827674866 14.50213241577148 0.4999995827674866 9.525472640991211 C 0.4999995827674866 4.548812866210938 4.554569721221924 0.5000026226043701 9.53831958770752 0.5000026226043701 C 14.52206993103027 0.5000026226043701 18.57663917541504 4.548812866210938 18.57663917541504 9.525472640991211 C 18.57663917541504 14.50213241577148 14.52206993103027 18.55094337463379 9.53831958770752 18.55094337463379 Z" stroke="none"/>
            <path d="M 9.53831958770752 1.000001907348633 C 4.830269813537598 1.000001907348633 1 4.824512481689453 1 9.525472640991211 C 1 14.22643280029297 4.830269813537598 18.05094337463379 9.53831958770752 18.05094337463379 C 14.24636936187744 18.05094337463379 18.07663917541504 14.22643280029297 18.07663917541504 9.525472640991211 C 18.07663917541504 4.824512481689453 14.24636936187744 1.000001907348633 9.53831958770752 1.000001907348633 M 9.53831958770752 1.9073486328125e-06 C 14.80618953704834 1.9073486328125e-06 19.07663917541504 4.264702796936035 19.07663917541504 9.525472640991211 C 19.07663917541504 14.78624248504639 14.80618953704834 19.05094337463379 9.53831958770752 19.05094337463379 C 4.270449638366699 19.05094337463379 0 14.78624248504639 0 9.525472640991211 C 0 4.264702796936035 4.270449638366699 1.9073486328125e-06 9.53831958770752 1.9073486328125e-06 Z" stroke="none" fill="#f8f8fc"/>
          </g>
          <rect id="Rectángulo_14535" data-name="Rectángulo 14535" width="51.478" height="39.598" transform="translate(-6028.683 -21087.121)" fill="#f8f8fc"/>
          <rect id="Rectángulo_14538" data-name="Rectángulo 14538" width="63.994" height="18.213" rx="8" transform="translate(-5959.375 -21116.66)" fill="#f8f8fc"/>
          <g id="Elipse_1925" data-name="Elipse 1925" transform="translate(-5939.984 -21123.912)" fill="#f8f8fc" stroke="#f8f8fc" stroke-width="1">
            <ellipse cx="12.928" cy="12.142" rx="12.928" ry="12.142" stroke="none"/>
            <ellipse cx="12.928" cy="12.142" rx="12.428" ry="11.642" fill="none"/>
          </g>
          <rect id="Rectángulo_14539" data-name="Rectángulo 14539" width="51.478" height="39.598" transform="translate(-5951.852 -21163.951)" fill="#f8f8fc"/>
          <rect id="Rectángulo_14542" data-name="Rectángulo 14542" width="63.994" height="18.213" rx="9" transform="translate(-5959.375 -21039.83)" fill="#f8f8fc"/>
          <ellipse id="Elipse_1927" data-name="Elipse 1927" cx="12.928" cy="12.142" rx="12.928" ry="12.142" transform="translate(-5939.984 -21047.08)" fill="#f8f8fc"/>
          <rect id="Rectángulo_14543" data-name="Rectángulo 14543" width="51.478" height="39.598" transform="translate(-5951.852 -21087.121)" fill="#f8f8fc"/>
          <rect id="Rectángulo_14546" data-name="Rectángulo 14546" width="63.996" height="20.786" rx="9" transform="translate(-6036.207 -21201.9)" fill="#f8f8fc"/>
          <rect id="Rectángulo_14548" data-name="Rectángulo 14548" width="137.028" height="20.786" rx="8" transform="translate(-6036.207 -21256.088)" fill="#f8f8fc"/>
          <rect id="Rectángulo_14550" data-name="Rectángulo 14550" width="63.996" height="20.786" rx="10" transform="translate(-5959.375 -21201.9)" fill="#f8f8fc"/>
        </g>
      </g>
    </g>
  </g>
</svg>
