<svg xmlns="http://www.w3.org/2000/svg" xmlns:xlink="http://www.w3.org/1999/xlink" width="826" height="779" viewBox="0 0 826 779">
  <defs>
    <clipPath id="clip-Web_1920_56">
      <rect width="826" height="779"/>
    </clipPath>
  </defs>
  <g id="Web_1920_56" data-name="Web 1920 – 56" clip-path="url(#clip-Web_1920_56)">
    <rect width="826" height="779" fill="#fff"/>
    <g id="Grupo_75889" data-name="Grupo 75889" transform="translate(245.518 123.902)">
      <path id="Trazado_58832" data-name="Trazado 58832" d="M345.725,204.027c28.192,0,52.312-9.883,72.37-29.935s29.935-44.177,29.935-72.37S438.072,49.77,418.1,29.935C397.968,9.951,373.917,0,345.725,0s-51.953,9.951-72.079,29.935c-19.984,19.834-29.935,43.594-29.935,71.787s9.882,52.311,29.935,72.37S317.532,204.027,345.725,204.027ZM296.606,52.6c13.659-13.659,30.227-20.635,49.119-20.635,19.469,0,35.744,6.975,49.411,20.635S415.77,82.83,415.77,101.722c0,19.475-6.975,36.036-20.634,49.7s-29.942,20.343-49.411,20.343a67.176,67.176,0,0,1-49.119-20.343c-13.659-13.666-20.635-30.227-20.635-49.7C275.972,82.83,282.947,66.262,296.606,52.6Z" transform="translate(-177.734 0)" fill="#0f1215"/>
      <path id="Trazado_58833" data-name="Trazado 58833" d="M481.041,470.227V462.96c0-70.058-62.76-131.949-132.817-131.949h-68.3c-36.054,0-67.136,14.534-93,39.818s-41.567,56.05-41.567,92.13V605.369c0,19.767,15.408,34.877,35.168,34.877H446.455a34.444,34.444,0,0,0,24.708-10.169,33.107,33.107,0,0,0,10.459-24.708V470.227C481.623,492.312,481.041,492.021,481.041,470.227ZM446.455,608.276H180.524c-2.034,0-2.9-.867-2.9-2.907V469.645c0-27.9,9.511-52.095,28.77-72.661,19.395-20.7,43.018-31.969,70.628-34l23.536,31.1L274.979,548.115l38.368,43.594L352,548.115,326.424,394.082l23.543-31.1c26.735,2.034,49.41,12.791,68.3,31.968s30.512,42.107,30.512,69.171v6.107l.583,135.142C449.369,607.409,448.489,608.276,446.455,608.276Z" transform="translate(-145.356 -108.967)" fill="#0f1215"/>
    </g>
  </g>
</svg>
