<svg xmlns="http://www.w3.org/2000/svg" xmlns:xlink="http://www.w3.org/1999/xlink" width="826" height="779" viewBox="0 0 826 779">
  <defs>
    <clipPath id="clip-Web_1920_31">
      <rect width="826" height="779"/>
    </clipPath>
  </defs>
  <g id="Web_1920_31" data-name="Web 1920 – 31" clip-path="url(#clip-Web_1920_31)">
    <rect width="826" height="779" fill="#fff"/>
    <g id="Grupo_75797" data-name="Grupo 75797" transform="translate(6266.938 22507.223)">
      <g id="Grupo_75441" data-name="Grupo 75441" transform="translate(-6067.107 -22154.098)">
        <path id="Trazado_58692" data-name="Trazado 58692" d="M782.893,1641.359a6.733,6.733,0,0,0,6.539-6.729,6.66,6.66,0,0,0-6.749-6.449,6.445,6.445,0,0,0-6.433,6.449v.2a6.532,6.532,0,0,0,6.533,6.53Z" transform="translate(-628.719 -1494.846)" fill="#101316"/>
        <path id="Trazado_58694" data-name="Trazado 58694" d="M768.756,1641.579a6.7,6.7,0,1,0-.1,0Z" transform="translate(-759.967 -1493.453)" fill="#101316"/>
        <path id="Trazado_58697" data-name="Trazado 58697" d="M771.818,1717.123a9.3,9.3,0,0,1-9.091-9.1l-.916-66a9.239,9.239,0,0,1,2.66-6.543,8.927,8.927,0,0,1,6.437-2.757l66-.818a10.229,10.229,0,0,1,6.535,2.55,9.1,9.1,0,0,1,2.755,6.447l.824,66a8.73,8.73,0,0,1-2.55,6.548,9.171,9.171,0,0,1-6.442,2.749l-66,.914Zm-3.984-9.1a3.7,3.7,0,0,0,1.233,2.759,4.5,4.5,0,0,0,2.853,1.223l66.007-.909a3.663,3.663,0,0,0,2.85-1.233,3.3,3.3,0,0,0,1.133-2.853l-.821-66a3.64,3.64,0,0,0-1.22-2.862,2.975,2.975,0,0,0-2.866-1.128l-66.1.816a3.729,3.729,0,0,0-2.765,1.229,3.688,3.688,0,0,0-1.226,2.853Zm8.075-4.2-.814-57.922,57.925-.818.822,57.944Zm4.4-52.9.611,47.7,47.708-.612-.611-47.711Z" transform="translate(-761.81 -1460.457)" fill="#101316"/>
        <path id="Trazado_58698" data-name="Trazado 58698" d="M834.484,1615.35l-66.1.821a6.754,6.754,0,0,0-6.542,6.752l.919,66a6.643,6.643,0,0,0,6.641,6.535l66.107-.934a6.515,6.515,0,0,0,6.534-6.516v-.115l-.908-66a6.553,6.553,0,0,0-6.546-6.548Zm-5.72,66.1-52.923.715-.613-52.8,52.819-.717Z" transform="translate(-761.536 -1613.085)" fill="#101316"/>
        <path id="Trazado_58700" data-name="Trazado 58700" d="M857.931,1621.672a6.548,6.548,0,0,0-6.538-6.543h-.108l-66.106.816a6.73,6.73,0,0,0-6.529,6.739l.914,66.005a6.535,6.535,0,0,0,6.538,6.538h.1l66.1-.818a6.638,6.638,0,0,0,6.443-6.737Zm-12.47,59.553-52.819.715-.716-52.814,52.922-.727Z" transform="translate(-606.592 -1615.129)" fill="#101316"/>
        <path id="Trazado_58702" data-name="Trazado 58702" d="M858.975,1704.474l-.815-66.094a6.648,6.648,0,0,0-6.75-6.439l-66,.813a6.755,6.755,0,0,0-6.545,6.754l.924,65.99a6.512,6.512,0,0,0,6.543,6.528h.093l66.109-.9a6.438,6.438,0,0,0,6.436-6.447Zm-13.28-6.427-52.826.7-.716-52.8,52.826-.725Z" transform="translate(-604.562 -1460.204)" fill="#101316"/>
        <path id="Trazado_58704" data-name="Trazado 58704" d="M784.4,1634.771H771.225a6.741,6.741,0,0,0-6.544,6.749v13.169a6.644,6.644,0,0,0,6.634,6.545h13.293a6.649,6.649,0,0,0,6.538-6.648v-13.28A6.744,6.744,0,0,0,784.4,1634.771Z" transform="translate(-735.363 -1434.099)" fill="#101316"/>
        <path id="Trazado_58706" data-name="Trazado 58706" d="M771.226,1644.335h13.185a6.625,6.625,0,0,0,6.537-6.631v-13.272a6.524,6.524,0,0,0-6.647-6.44h-13.28a6.715,6.715,0,0,0-6.54,6.742v13.187A6.716,6.716,0,0,0,771.226,1644.335Z" transform="translate(-737.194 -1588.774)" fill="#101316"/>
        <path id="Trazado_58708" data-name="Trazado 58708" d="M787.8,1644.132h13.283a6.656,6.656,0,0,0,6.538-6.644v-13.184a6.643,6.643,0,0,0-6.744-6.535H787.8a6.751,6.751,0,0,0-6.538,6.742v13.181A6.536,6.536,0,0,0,787.8,1644.132Z" transform="translate(-582.538 -1590.807)" fill="#101316"/>
        <path id="Trazado_58711" data-name="Trazado 58711" d="M790.354,1665.891a9.2,9.2,0,0,1-9.093-9.1V1643.61a9.187,9.187,0,0,1,9.093-9.29H803.64a9.188,9.188,0,0,1,9.186,8.988v13.162a8.63,8.63,0,0,1-2.559,6.548,9.073,9.073,0,0,1-6.43,2.762H790.656Zm13.072-26.576H790.148a4.59,4.59,0,0,0-2.857,1.224,4.36,4.36,0,0,0-1.124,2.865v13.282a4.076,4.076,0,0,0,3.981,3.99h13.18a3.624,3.624,0,0,0,2.855-1.233,3.926,3.926,0,0,0,1.134-2.857V1643.4A4.09,4.09,0,0,0,803.426,1639.315Z" transform="translate(-582.538 -1438.27)" fill="#101316"/>
        <path id="Trazado_58712" data-name="Trazado 58712" d="M764.6,1635.967a6.63,6.63,0,0,0,6.643,6.533l85.916-1.115V1674.4a6.645,6.645,0,1,0,13.19,0l-.51-39.642a6.536,6.536,0,0,0-6.538-6.535h-.114l-91.944,1.2a6.471,6.471,0,0,0-6.643,6.243Z" transform="translate(-736.087 -1494.455)" fill="#101316"/>
        <path id="Trazado_58714" data-name="Trazado 58714" d="M834.815,1638.875a6.541,6.541,0,0,0,6.538-6.528v-.111a6.744,6.744,0,0,0-6.744-6.545l-66,.833a6.634,6.634,0,1,0,0,13.267h0Z" transform="translate(-760.332 -1517.795)" fill="#101316"/>
        <path id="Trazado_58717" data-name="Trazado 58717" d="M779.97,1643.707a9.094,9.094,0,0,1-9.189-8.985v-.1a9.1,9.1,0,0,1,8.991-9.206h26.465a8.6,8.6,0,0,1,6.526,2.661,8.9,8.9,0,0,1,2.762,6.437,9.182,9.182,0,0,1-9.093,9.3H780.075Zm26.355-13.567H779.874a4.084,4.084,0,0,0-2.768,6.931,5.893,5.893,0,0,0,2.864,1.118h26.461a4.059,4.059,0,0,0,2.768-6.953,3.856,3.856,0,0,0-2.873-1.1Z" transform="translate(-679.133 -1520.385)" fill="#101316"/>
        <path id="Trazado_58718" data-name="Trazado 58718" d="M777.333,1615.31a6.646,6.646,0,0,0-6.432,6.737l.822,65.995a6.527,6.527,0,0,0,6.538,6.548h.1l46.282-.624v33.023a6.627,6.627,0,0,0,6.745,6.531h26.355a6.634,6.634,0,0,0,6.538-6.734h0a6.5,6.5,0,0,0-6.634-6.432H837.826l-.518-33.023a6.525,6.525,0,0,0-6.538-6.528h-.1l-46.281.622-.71-59.472A6.752,6.752,0,0,0,777.333,1615.31Z" transform="translate(-678.024 -1613.47)" fill="#101316"/>
        <path id="Trazado_58720" data-name="Trazado 58720" d="M827.559,1625.471l-39.637.518a6.643,6.643,0,0,0,.2,13.284h39.645a6.9,6.9,0,0,0,.113-13.781Z" transform="translate(-581.438 -1519.83)" fill="#101316"/>
        <path id="Trazado_58722" data-name="Trazado 58722" d="M851.343,1628.119l-66,.828a6.728,6.728,0,0,0-6.545,6.737,6.647,6.647,0,0,0,6.742,6.435l66.007-.816a6.643,6.643,0,0,0,1.642-13.184,5.264,5.264,0,0,0-1.642,0Z" transform="translate(-605.215 -1496.001)" fill="#101316"/>
        <path id="Trazado_58724" data-name="Trazado 58724" d="M804.088,1634.631h-26.35a6.528,6.528,0,0,0-6.538,6.528v39.748a6.635,6.635,0,1,0,13.169,1.641,6.327,6.327,0,0,0,0-1.641v-33H804.2a6.639,6.639,0,1,0,0-13.277Z" transform="translate(-675.774 -1435.402)" fill="#101316"/>
        <path id="Trazado_58727" data-name="Trazado 58727" d="M782.735,1729.1a9.17,9.17,0,0,1-6.539-15.634,9.432,9.432,0,0,1,6.433-2.769H799.9l-.924-70.073a9.2,9.2,0,1,1,18.292-1.956,9.814,9.814,0,0,1,0,1.956l1.016,79.167a9.1,9.1,0,0,1-8.884,9.309H782.735Zm25.333-92.876h0a3.981,3.981,0,0,0-3.983,3.975v.1l.92,75.213H782.735a4.006,4.006,0,0,0-2.861,1.226,4.056,4.056,0,0,0,2.962,6.919h26.35a3.967,3.967,0,0,0,3.989-3.97v-.1l-1.015-79.29a4.084,4.084,0,0,0-4.092-4.078h0Z" transform="translate(-653.79 -1473.982)" fill="#101316"/>
        <path id="Trazado_58728" data-name="Trazado 58728" d="M807.371,1667.5a6.61,6.61,0,0,0,6.538-6.739h0v-39.642a6.641,6.641,0,0,0-13.175,0v33H780.907a6.638,6.638,0,0,0-1.636,13.174,6.287,6.287,0,0,0,1.636,0Z" transform="translate(-654.517 -1613.452)" fill="#101316"/>
      </g>
      <path id="Icon_material-crop-landscape" data-name="Icon material-crop-landscape" d="M158.4,7.5H23.738A19.294,19.294,0,0,0,4.5,26.738v96.19a19.294,19.294,0,0,0,19.238,19.238H158.4a19.294,19.294,0,0,0,19.238-19.238V26.738A19.294,19.294,0,0,0,158.4,7.5Zm0,115.428H23.738V26.738H158.4Z" transform="translate(-5818.395 -22344.758)" fill="#101316"/>
      <path id="Icon_material-linear-scale" data-name="Icon material-linear-scale" d="M62.353,0a8.914,8.914,0,0,0-8.159,5.345h-10.4a8.9,8.9,0,0,0-16.319,0h-10.4a8.908,8.908,0,1,0,0,7.126h10.4a8.9,8.9,0,0,0,16.319,0h10.4A8.906,8.906,0,1,0,62.353,0Z" transform="matrix(0.978, -0.208, 0.208, 0.978, -5789.226, -22258.084)" fill="#101316"/>
      <path id="Icon_material-linear-scale-2" data-name="Icon material-linear-scale" d="M62.353,0a8.914,8.914,0,0,0-8.159,5.345h-10.4a8.9,8.9,0,0,0-16.319,0h-10.4a8.908,8.908,0,1,0,0,7.126h10.4a8.9,8.9,0,0,0,16.319,0h10.4A8.906,8.906,0,1,0,62.353,0Z" transform="matrix(0.891, -0.454, 0.454, 0.891, -5737.012, -22266.836)" fill="#101316"/>
    </g>
  </g>
</svg>
