<svg xmlns="http://www.w3.org/2000/svg" xmlns:xlink="http://www.w3.org/1999/xlink" width="826" height="779" viewBox="0 0 826 779">
  <defs>
    <clipPath id="clip-Web_1920_29">
      <rect width="826" height="779"/>
    </clipPath>
  </defs>
  <g id="Web_1920_29" data-name="Web 1920 – 29" clip-path="url(#clip-Web_1920_29)">
    <rect width="826" height="779" fill="#fff"/>
    <g id="Grupo_75791" data-name="Grupo 75791" transform="translate(6243.591 22620.363)">
      <path id="Icon_material-crop-landscape" data-name="Icon material-crop-landscape" d="M178.583,7.5H26.26A21.824,21.824,0,0,0,4.5,29.261v108.8a21.824,21.824,0,0,0,21.76,21.761H178.583a21.824,21.824,0,0,0,21.76-21.761V29.261A21.824,21.824,0,0,0,178.583,7.5Zm0,130.564H26.26V29.261H178.583Z" transform="translate(-5795 -22464.957)" fill="#101216"/>
      <path id="Icon_material-linear-scale" data-name="Icon material-linear-scale" d="M70.529,0A10.083,10.083,0,0,0,61.3,6.045H49.531a10.068,10.068,0,0,0-18.458,0H19.3a10.076,10.076,0,1,0,0,8.061H31.073a10.068,10.068,0,0,0,18.458,0H61.3A10.074,10.074,0,1,0,70.529,0Z" transform="matrix(0.978, -0.208, 0.208, 0.978, -5762.596, -22367.902)" fill="#101216"/>
      <path id="Icon_material-linear-scale-2" data-name="Icon material-linear-scale" d="M70.529,0A10.083,10.083,0,0,0,61.3,6.045H49.531a10.068,10.068,0,0,0-18.458,0H19.3a10.076,10.076,0,1,0,0,8.061H31.073a10.068,10.068,0,0,0,18.458,0H61.3A10.074,10.074,0,1,0,70.529,0Z" transform="matrix(0.891, -0.454, 0.454, 0.891, -5703.535, -22377.801)" fill="#101216"/>
      <path id="Trazado_58895" data-name="Trazado 58895" d="M327.153,166.882c23.059,0,42.788-8.084,59.194-24.485s24.485-36.134,24.485-59.194-8.144-42.494-24.485-58.718C369.885,8.14,350.212,0,327.153,0S284.659,8.14,268.2,24.485C251.851,40.708,243.712,60.143,243.712,83.2S251.8,125.99,268.2,142.4,304.093,166.882,327.153,166.882ZM286.977,43.026c11.172-11.172,24.724-16.878,40.177-16.878,15.924,0,29.236,5.705,40.415,16.878S384.446,67.75,384.446,83.2a55.475,55.475,0,0,1-16.877,40.653C356.39,135.028,343.077,140.5,327.153,140.5a54.947,54.947,0,0,1-40.177-16.639A55.474,55.474,0,0,1,270.1,83.2C270.1,67.75,275.8,54.2,286.977,43.026Z" transform="translate(-6255.268 -22438.732)" fill="#101216"/>
      <path id="Trazado_58896" data-name="Trazado 58896" d="M419.927,444.882v-5.944c0-57.3-51.334-107.927-108.637-107.927H255.423c-29.49,0-54.914,11.888-76.067,32.569s-34,45.846-34,75.357V555.42c0,16.168,12.6,28.527,28.766,28.527H391.638a28.174,28.174,0,0,0,20.21-8.317,27.079,27.079,0,0,0,8.555-20.21V444.882C420.4,462.946,419.927,462.708,419.927,444.882ZM391.638,557.8H174.122c-1.664,0-2.374-.709-2.374-2.378V444.406c0-22.822,7.78-42.61,23.532-59.433,15.863-16.933,35.186-26.148,57.77-27.812L272.3,382.6l-20.92,125.991,31.383,35.657,31.615-35.657L293.459,382.6l19.256-25.438c21.868,1.664,40.415,10.462,55.867,26.148s24.957,34.441,24.957,56.577v5l.477,110.538C394.021,557.089,393.3,557.8,391.638,557.8Z" transform="translate(-6210.88 -22588.133)" fill="#101216"/>
    </g>
  </g>
</svg>
