<svg xmlns="http://www.w3.org/2000/svg" xmlns:xlink="http://www.w3.org/1999/xlink" width="826" height="779" viewBox="0 0 826 779">
  <defs>
    <clipPath id="clip-Web_1920_30">
      <rect width="826" height="779"/>
    </clipPath>
  </defs>
  <g id="Web_1920_30" data-name="Web 1920 – 30" clip-path="url(#clip-Web_1920_30)">
    <rect width="826" height="779" fill="#fff"/>
    <g id="Grupo_75794" data-name="Grupo 75794" transform="translate(6191.342 22534.959)">
      <path id="Icon_awesome-money-bill" data-name="Icon awesome-money-bill" d="M232.452,0H12.234A12.236,12.236,0,0,0,0,12.234V134.577a12.236,12.236,0,0,0,12.234,12.234H232.452a12.236,12.236,0,0,0,12.234-12.234V12.234A12.236,12.236,0,0,0,232.452,0ZM18.351,128.46V103.992A24.467,24.467,0,0,1,42.82,128.46Zm0-85.64V18.351H42.82A24.467,24.467,0,0,1,18.351,42.82Zm103.992,67.289c-16.895,0-30.586-16.436-30.586-36.7s13.695-36.7,30.586-36.7,30.586,16.432,30.586,36.7S139.23,110.109,122.343,110.109ZM226.335,128.46H201.866a24.467,24.467,0,0,1,24.469-24.469Zm0-85.64a24.467,24.467,0,0,1-24.469-24.469h24.469Z" transform="matrix(0.545, -0.839, 0.839, 0.545, -6070.369, -22160.91)" fill="#0f1215"/>
      <ellipse id="Elipse_1913" data-name="Elipse 1913" cx="30.461" cy="40.615" rx="30.461" ry="40.615" transform="matrix(0.574, -0.819, 0.819, 0.574, -5992.919, -22099.982)" fill="#0f1215" stroke="#10072c" stroke-width="1"/>
      <path id="Icon_awesome-money-bill-2" data-name="Icon awesome-money-bill" d="M232.452,0H12.234A12.236,12.236,0,0,0,0,12.234V134.577a12.236,12.236,0,0,0,12.234,12.234H232.452a12.236,12.236,0,0,0,12.234-12.234V12.234A12.236,12.236,0,0,0,232.452,0ZM18.351,128.46V103.992A24.467,24.467,0,0,1,42.82,128.46Zm0-85.64V18.351H42.82A24.467,24.467,0,0,1,18.351,42.82Zm103.992,67.289c-16.895,0-30.586-16.436-30.586-36.7s13.695-36.7,30.586-36.7,30.586,16.432,30.586,36.7S139.23,110.109,122.343,110.109ZM226.335,128.46H201.866a24.467,24.467,0,0,1,24.469-24.469Zm0-85.64a24.467,24.467,0,0,1-24.469-24.469h24.469Z" transform="matrix(0.545, -0.839, 0.839, 0.545, -6070.369, -22038.631)" fill="#0f1215"/>
      <path id="Icon_material-crop-landscape" data-name="Icon material-crop-landscape" d="M184.449,7.5H26.994A22.56,22.56,0,0,0,4.5,29.994v112.47a22.56,22.56,0,0,0,22.494,22.494H184.449a22.56,22.56,0,0,0,22.494-22.494V29.994A22.56,22.56,0,0,0,184.449,7.5Zm0,134.963H26.994V29.994H184.449Z" transform="translate(-5692.175 -22405.072)" fill="#0f1215"/>
      <path id="Icon_material-linear-scale" data-name="Icon material-linear-scale" d="M72.905,0a10.423,10.423,0,0,0-9.54,6.249H51.2a10.407,10.407,0,0,0-19.08,0H19.955a10.415,10.415,0,1,0,0,8.332H32.12a10.407,10.407,0,0,0,19.08,0H63.365A10.413,10.413,0,1,0,72.905,0Z" transform="matrix(0.978, -0.208, 0.208, 0.978, -5658.83, -22305)" fill="#0f1215"/>
      <path id="Icon_material-linear-scale-2" data-name="Icon material-linear-scale" d="M72.906,0a10.423,10.423,0,0,0-9.54,6.249H51.2a10.407,10.407,0,0,0-19.08,0H19.955a10.415,10.415,0,1,0,0,8.332H32.12a10.407,10.407,0,0,0,19.08,0H63.365A10.413,10.413,0,1,0,72.906,0Z" transform="matrix(0.891, -0.454, 0.454, 0.891, -5597.779, -22315.232)" fill="#0f1215"/>
      <path id="Icon_awesome-coins" data-name="Icon awesome-coins" d="M0,242.9v25.591c0,21.156,43.9,38.356,98,38.356s98-17.2,98-38.356V242.9c-21.081,17.44-59.618,25.591-98,25.591S21.081,260.344,0,242.9ZM163.336,76.713c54.105,0,98-17.2,98-38.356S217.441,0,163.336,0s-98,17.2-98,38.356S109.231,76.713,163.336,76.713ZM0,180.035V210.96c0,21.156,43.9,38.356,98,38.356s98-17.2,98-38.356V180.035c-21.081,20.377-59.669,30.925-98,30.925S21.081,200.412,0,180.035Zm212.337,6.593c29.247-6.652,49-19,49-33.2V127.834c-11.842,9.829-29.247,16.541-49,20.676ZM98,95.891c-54.105,0-98,21.456-98,47.945s43.9,47.945,98,47.945,98-21.456,98-47.945S152.107,95.891,98,95.891Zm111.936,33.742c30.626-6.473,51.4-19.178,51.4-33.742V70.3c-18.12,15.043-49.256,23.134-82.025,25.051C194.37,103.922,205.446,115.429,209.938,129.632Z" transform="translate(-5847.753 -22199.496)" fill="#0f1215"/>
    </g>
  </g>
</svg>
