<svg xmlns="http://www.w3.org/2000/svg" xmlns:xlink="http://www.w3.org/1999/xlink" width="826" height="779" viewBox="0 0 826 779">
  <defs>
    <clipPath id="clip-Web_1920_27">
      <rect width="826" height="779"/>
    </clipPath>
  </defs>
  <g id="Web_1920_27" data-name="Web 1920 – 27" clip-path="url(#clip-Web_1920_27)">
    <rect width="826" height="779" fill="#fff"/>
    <g id="Grupo_75785" data-name="Grupo 75785" transform="translate(6210.646 22760.82)">
      <path id="Trazado_58651" data-name="Trazado 58651" d="M659.074,1877.385l-1.265-229.922h.465l292.467-1.541v.412s2.063,31.633,32.031,32.693,34.506-32.83,34.506-33.3h100.71v231.188l-100.51.326v-.463a38.724,38.724,0,0,0-3.529-16.322,31.792,31.792,0,0,0-29.507-17.516s-28.437-.863-32.7,33.316v.383Z" transform="translate(-6727.893 -24040.768)" fill="#101216"/>
      <g id="icono_eventos" transform="translate(-6000.22 -22371.072)">
        <path id="Trazado_58652" data-name="Trazado 58652" d="M812.569,1625.867a6.662,6.662,0,0,0-13.323,0l-.6,25.846a6.661,6.661,0,0,0,13.321,0Z" transform="translate(-551.87 -1590.367)" fill="#f8f8fc"/>
        <path id="Trazado_58653" data-name="Trazado 58653" d="M805.7,1629.871a6.665,6.665,0,0,0-6.657,6.662l-.6,25.844a6.663,6.663,0,1,0,13.321.332l.6-25.9a6.662,6.662,0,0,0-6.384-6.934Z" transform="translate(-553.059 -1530.022)" fill="#f8f8fc"/>
        <path id="Trazado_58654" data-name="Trazado 58654" d="M780.579,1636.768a4.295,4.295,0,1,0-.139-8.588,4.2,4.2,0,0,0-4.19,4.2v.135a4.25,4.25,0,0,0,4.256,4.252Z" transform="translate(-678.668 -1539.591)" fill="#f8f8fc"/>
        <path id="Trazado_58655" data-name="Trazado 58655" d="M781.944,1639.857a5.922,5.922,0,0,1-5.929-5.914h0a5.533,5.533,0,0,1,1.66-4.205,5.75,5.75,0,0,1,4.2-1.809,6.276,6.276,0,0,1,4.269,1.682,5.93,5.93,0,0,1,1.8,4.191,6.05,6.05,0,0,1-5.927,6.055h-.064Zm0-8.588h0a2.392,2.392,0,0,0-1.867.8,2.2,2.2,0,0,0-.733,1.869,2.662,2.662,0,0,0,5.259.836,2.4,2.4,0,0,0,0-.836,2.626,2.626,0,0,0-.8-1.869,2.713,2.713,0,0,0-1.861-.8Z" transform="translate(-680.03 -1541.003)" fill="#f8f8fc"/>
        <path id="Trazado_58656" data-name="Trazado 58656" d="M766.406,1636.967a4.365,4.365,0,1,0-.063,0Z" transform="translate(-759.272 -1538.721)" fill="#f8f8fc"/>
        <path id="Trazado_58657" data-name="Trazado 58657" d="M767.75,1640.066a6.066,6.066,0,0,1-4.193-1.66,6.266,6.266,0,0,1-1.8-4.2,6.012,6.012,0,0,1,1.731-4.256,5.812,5.812,0,0,1,4.2-1.809h0a6,6,0,0,1,1.262,11.928,5.678,5.678,0,0,1-1.262,0Zm0-3.328h0a2.662,2.662,0,0,0,2.667-2.666h0a2.665,2.665,0,0,0-2.73-2.6h0a2.347,2.347,0,0,0-1.792.8,2.579,2.579,0,0,0-.8,1.865,2.656,2.656,0,0,0,.8,1.859A2.782,2.782,0,0,0,767.75,1636.738Z" transform="translate(-760.686 -1540.015)" fill="#f8f8fc"/>
        <path id="Trazado_58658" data-name="Trazado 58658" d="M762.662,1680.131a4.329,4.329,0,0,0,4.333,4.246l43.1-.588a4.271,4.271,0,0,0,4.2-4.336h0l-.537-43.094a4.265,4.265,0,0,0-4.326-4.2h0l-43.094.537a4.337,4.337,0,0,0-4.27,4.33Zm8.062-38.9,34.5-.416.4,34.439-34.44.477Z" transform="translate(-758.991 -1517.059)" fill="#f8f8fc"/>
        <path id="Trazado_58659" data-name="Trazado 58659" d="M768.332,1687.459a6.067,6.067,0,0,1-5.927-5.924l-.6-43.027a5.983,5.983,0,0,1,1.736-4.266,5.767,5.767,0,0,1,4.19-1.8l43.025-.527a6.669,6.669,0,0,1,4.266,1.658,5.928,5.928,0,0,1,1.794,4.2l.535,43.027a5.66,5.66,0,0,1-1.663,4.27,5.951,5.951,0,0,1-4.2,1.8l-43.03.594Zm-2.6-5.924a2.414,2.414,0,0,0,.8,1.793,2.981,2.981,0,0,0,1.861.795l43.03-.594a2.361,2.361,0,0,0,1.859-.8,2.165,2.165,0,0,0,.74-1.865l-.537-43.027a2.37,2.37,0,0,0-.8-1.859,1.929,1.929,0,0,0-1.864-.738l-43.1.527a2.742,2.742,0,0,0-2.6,2.668Zm5.268-2.742-.532-37.764,37.763-.537.532,37.777Zm2.866-34.488.395,31.092,31.1-.4-.4-31.1Z" transform="translate(-760.407 -1518.475)" fill="#f8f8fc"/>
        <path id="Trazado_58660" data-name="Trazado 58660" d="M809.2,1615.35l-43.1.537a4.4,4.4,0,0,0-4.263,4.4l.6,43.027a4.331,4.331,0,0,0,4.326,4.266l43.1-.611a4.254,4.254,0,0,0,4.261-4.252v-.074l-.6-43.029a4.269,4.269,0,0,0-4.266-4.266Zm-3.73,43.094-34.5.473-.4-34.437,34.434-.461Z" transform="translate(-760.237 -1612.212)" fill="#f8f8fc"/>
        <path id="Trazado_58661" data-name="Trazado 58661" d="M768.068,1670.654a6.051,6.051,0,0,1-5.933-5.928l-.53-43.023a5.678,5.678,0,0,1,1.661-4.275,6.081,6.081,0,0,1,4.2-1.793l43.022-.527h0a5.657,5.657,0,0,1,4.269,1.658,5.929,5.929,0,0,1,1.8,4.205l.6,43.088a5.844,5.844,0,0,1-1.735,4.2,5.487,5.487,0,0,1-4.2,1.795l-43.023.6Zm42.491-52.217-43.023.533a2.668,2.668,0,0,0-1.868.793,2.343,2.343,0,0,0-.734,1.879l.533,43.084a2.563,2.563,0,0,0,.8,1.855,3.452,3.452,0,0,0,1.856.738l43.1-.6a2.372,2.372,0,0,0,1.8-.785,2.437,2.437,0,0,0,.8-1.873l-.6-43.02a2.42,2.42,0,0,0-.8-1.877,3.275,3.275,0,0,0-1.864-.725ZM770.6,1662l-.533-37.768,37.763-.467.537,37.762Zm2.866-34.506.4,31.1,31.1-.4-.4-31.105Z" transform="translate(-761.6 -1613.639)" fill="#f8f8fc"/>
        <path id="Trazado_58662" data-name="Trazado 58662" d="M830.333,1619.387a4.258,4.258,0,0,0-4.264-4.258H826l-43.1.533a4.388,4.388,0,0,0-4.256,4.387l.6,43.027a4.26,4.26,0,0,0,4.263,4.266h.068l43.093-.527a4.325,4.325,0,0,0,4.2-4.391Zm-8.127,38.832-34.432.467-.467-34.428,34.5-.477Z" transform="translate(-665.081 -1613.461)" fill="#f8f8fc"/>
        <path id="Trazado_58663" data-name="Trazado 58663" d="M784.926,1670.438a5.965,5.965,0,0,1-4.127-1.668,5.851,5.851,0,0,1-1.8-4.2l-.6-43.088a6.078,6.078,0,0,1,1.729-4.271,6.16,6.16,0,0,1,4.2-1.789l43.025-.537a5.653,5.653,0,0,1,4.266,1.668,5.932,5.932,0,0,1,1.8,4.2l.53,43.094a5.752,5.752,0,0,1-1.661,4.256,6.154,6.154,0,0,1-4.2,1.8l-43.03.537Zm42.5-52.221h0l-43.1.531a2.746,2.746,0,0,0-2.6,2.668l.6,43.094a2.559,2.559,0,0,0,.8,1.869,2.837,2.837,0,0,0,1.864.723l43.359-.6a2.953,2.953,0,0,0,1.864-.793,2.42,2.42,0,0,0,.736-1.93l-.537-43.033a2.46,2.46,0,0,0-.8-1.869A2.643,2.643,0,0,0,827.424,1618.217Zm-39.966,43.559L787,1624.014l37.763-.467.532,37.762Zm2.932-34.5.4,31.174,31.1-.467-.395-31.115Z" transform="translate(-666.499 -1614.879)" fill="#f8f8fc"/>
        <path id="Trazado_58664" data-name="Trazado 58664" d="M831.092,1679.229l-.532-43.092a4.337,4.337,0,0,0-4.4-4.2l-43.022.537a4.388,4.388,0,0,0-4.266,4.4l.6,43.02a4.241,4.241,0,0,0,4.261,4.25h.065l43.1-.578a4.2,4.2,0,0,0,4.2-4.2Zm-8.659-4.189-34.438.457-.465-34.426,34.437-.477Z" transform="translate(-663.836 -1518.31)" fill="#f8f8fc"/>
        <path id="Trazado_58665" data-name="Trazado 58665" d="M785.149,1687.242a5.686,5.686,0,0,1-4.128-1.725,5.538,5.538,0,0,1-1.8-4.205l-.6-43.027a6.062,6.062,0,0,1,1.735-4.27,5.812,5.812,0,0,1,4.19-1.789l43.03-.529a5.458,5.458,0,0,1,4.261,1.658,5.9,5.9,0,0,1,1.8,4.2l.539,43.088a5.562,5.562,0,0,1-1.67,4.205,5.663,5.663,0,0,1-4.193,1.795l-43.093.6Zm42.5-52.219h0l-43.1.539a2.606,2.606,0,0,0-1.856.793,2.865,2.865,0,0,0-.74,1.865l.6,43.092a2.581,2.581,0,0,0,.8,1.865,2.867,2.867,0,0,0,1.866.732l43.023-.594a2.327,2.327,0,0,0,1.866-.812,2.533,2.533,0,0,0,.731-1.859l-.528-43.027a2.381,2.381,0,0,0-.8-1.863A2.774,2.774,0,0,0,827.645,1635.023Zm-39.968,43.557-.465-37.768,37.77-.523.467,37.828Zm2.934-34.492.4,31.1,31.1-.4-.4-31.105Z" transform="translate(-665.253 -1519.731)" fill="#f8f8fc"/>
        <path id="Trazado_58666" data-name="Trazado 58666" d="M777.534,1634.77h-8.592a4.4,4.4,0,0,0-4.263,4.4v8.582a4.337,4.337,0,0,0,4.326,4.27h8.661a4.338,4.338,0,0,0,4.264-4.34v-8.652A4.392,4.392,0,0,0,777.534,1634.77Z" transform="translate(-744.162 -1502.287)" fill="#f8f8fc"/>
        <path id="Trazado_58667" data-name="Trazado 58667" d="M770.444,1655.119a6.068,6.068,0,0,1-5.994-5.928v-8.6a6.006,6.006,0,0,1,1.73-4.262,5.81,5.81,0,0,1,4.2-1.793h8.592a6.692,6.692,0,0,1,4.266,1.732,5.893,5.893,0,0,1,1.791,4.191v8.592a6.031,6.031,0,0,1-5.924,6.063h-8.661Zm8.461-17.393h-8.657a2.739,2.739,0,0,0-2.6,2.672v8.658a2.734,2.734,0,0,0,2.665,2.6h8.592a2.358,2.358,0,0,0,1.861-.8,2.5,2.5,0,0,0,.8-1.863V1640.4a2.645,2.645,0,0,0-.8-1.869A2.293,2.293,0,0,0,778.905,1637.727Z" transform="translate(-745.465 -1503.584)" fill="#f8f8fc"/>
        <path id="Trazado_58668" data-name="Trazado 58668" d="M768.876,1635.164h8.6a4.313,4.313,0,0,0,4.261-4.316v-8.658a4.251,4.251,0,0,0-4.331-4.2h-8.657a4.383,4.383,0,0,0-4.266,4.4v8.6A4.378,4.378,0,0,0,768.876,1635.164Z" transform="translate(-745.291 -1597.27)" fill="#f8f8fc"/>
        <path id="Trazado_58669" data-name="Trazado 58669" d="M770.225,1638.314a6.053,6.053,0,0,1-5.994-5.924v-8.6a6.055,6.055,0,0,1,1.735-4.252,6.211,6.211,0,0,1,4.2-1.809h8.589a5.843,5.843,0,0,1,4.266,1.668,5.923,5.923,0,0,1,1.8,4.2v8.6a5.987,5.987,0,0,1-1.731,4.252,5.761,5.761,0,0,1-4.2,1.8h-8.592ZM778.683,1621H770.1a2.678,2.678,0,0,0-1.868.789,2.62,2.62,0,0,0-.8,1.869v8.656a2.6,2.6,0,0,0,2.6,2.607h8.72a2.765,2.765,0,0,0,2.6-2.668v-8.6a2.385,2.385,0,0,0-.8-1.869A2.559,2.559,0,0,0,778.683,1621Z" transform="translate(-746.709 -1598.741)" fill="#f8f8fc"/>
        <path id="Trazado_58670" data-name="Trazado 58670" d="M785.522,1634.945h8.66a4.329,4.329,0,0,0,4.261-4.326v-8.6a4.32,4.32,0,0,0-4.4-4.25h-8.524a4.387,4.387,0,0,0-4.263,4.387v8.6A4.255,4.255,0,0,0,785.522,1634.945Z" transform="translate(-650.306 -1598.513)" fill="#f8f8fc"/>
        <path id="Trazado_58671" data-name="Trazado 58671" d="M786.994,1638.057a5.994,5.994,0,0,1-5.994-5.867v-8.652a5.885,5.885,0,0,1,1.733-4.2,5.479,5.479,0,0,1,4.2-1.789h8.594a5.985,5.985,0,0,1,5.991,5.844v8.666a5.847,5.847,0,0,1-1.73,4.191,5.908,5.908,0,0,1-4.2,1.8Zm8.458-17.318h-8.659a2.619,2.619,0,0,0-1.794.729,2.666,2.666,0,0,0-.8,1.93v8.6a2.71,2.71,0,0,0,2.666,2.592h8.589a2.718,2.718,0,0,0,2.663-2.662v-8.592a2.607,2.607,0,0,0-2.381-2.8h-.019Z" transform="translate(-651.78 -1599.765)" fill="#f8f8fc"/>
        <path id="Trazado_58672" data-name="Trazado 58672" d="M785.89,1651.768h8.659a4.263,4.263,0,0,0,4.2-4.334h0v-8.658a4.332,4.332,0,0,0-4.4-4.2h-8.592a4.387,4.387,0,0,0-4.256,4.4v8.592A4.326,4.326,0,0,0,785.89,1651.768Z" transform="translate(-648.951 -1503.359)" fill="#f8f8fc"/>
        <path id="Trazado_58673" data-name="Trazado 58673" d="M787.19,1654.9a5.989,5.989,0,0,1-5.931-5.928v-8.592a5.985,5.985,0,0,1,5.931-6.055h8.659a5.991,5.991,0,0,1,5.989,5.863v8.576a5.622,5.622,0,0,1-1.667,4.266,5.9,5.9,0,0,1-4.2,1.8h-8.592Zm8.521-17.318h-8.659a2.98,2.98,0,0,0-1.861.8,2.826,2.826,0,0,0-.733,1.863v8.662a2.657,2.657,0,0,0,2.595,2.6h8.592a2.367,2.367,0,0,0,1.866-.8,2.556,2.556,0,0,0,.736-1.859v-8.6A2.665,2.665,0,0,0,795.712,1637.578Z" transform="translate(-650.306 -1504.842)" fill="#f8f8fc"/>
        <path id="Trazado_58674" data-name="Trazado 58674" d="M764.6,1633.275a4.323,4.323,0,0,0,4.329,4.266l56.008-.732v21.521a4.332,4.332,0,0,0,8.6,1.066,4.235,4.235,0,0,0,0-1.066l-.331-25.844a4.268,4.268,0,0,0-4.261-4.266h-.075l-59.939.789a4.214,4.214,0,0,0-4.329,4.074Z" transform="translate(-744.611 -1539.357)" fill="#f8f8fc"/>
        <path id="Trazado_58675" data-name="Trazado 58675" d="M830.729,1665.791a6.066,6.066,0,0,1-4.2-1.668,5.87,5.87,0,0,1-1.8-4.2v-19.982l-54.287.725a5.912,5.912,0,0,1-6.057-5.789v-.131h0a5.924,5.924,0,0,1,5.858-5.994h0l59.944-.8a5.923,5.923,0,0,1,6.06,5.8v.07l.332,25.836a5.635,5.635,0,0,1-1.663,4.266,5.861,5.861,0,0,1-4.193,1.8Zm-3-29.111v23.178a2.53,2.53,0,0,0,.8,1.867,3.354,3.354,0,0,0,1.866.73,2.337,2.337,0,0,0,1.864-.8,2.6,2.6,0,0,0,.733-1.859l-.334-25.846a2.723,2.723,0,0,0-2.663-2.6l-59.947.793a2.612,2.612,0,0,0-2.6,2.607v.066h0a2.581,2.581,0,0,0,.8,1.863,2.735,2.735,0,0,0,1.864.742Z" transform="translate(-745.804 -1540.896)" fill="#f8f8fc"/>
        <path id="Trazado_58676" data-name="Trazado 58676" d="M809.46,1634.283a4.268,4.268,0,0,0,4.263-4.252v-.074a4.4,4.4,0,0,0-4.4-4.266l-43.027.541a4.322,4.322,0,1,0,0,8.645h0Z" transform="translate(-759.501 -1553.691)" fill="#f8f8fc"/>
        <path id="Trazado_58677" data-name="Trazado 58677" d="M767.725,1637.965a6,6,0,0,1-.134-11.992l43.094-.527a5.86,5.86,0,0,1,6.063,5.648v.275a5.921,5.921,0,0,1-1.735,4.2,5.718,5.718,0,0,1-4.19,1.789l-43.028.607Zm43.027-9.2h0l-43.1.541a2.72,2.72,0,0,0-2.595,2.725,2.529,2.529,0,0,0,.8,1.863,3.013,3.013,0,0,0,1.862.734l43.1-.594a2.738,2.738,0,0,0,2.595-2.668,2.673,2.673,0,0,0-2.665-2.6Z" transform="translate(-760.86 -1555.102)" fill="#f8f8fc"/>
        <path id="Trazado_58678" data-name="Trazado 58678" d="M774.85,1634.3H792.1a4.326,4.326,0,1,0,0-8.652H774.915a4.329,4.329,0,0,0,0,8.592Z" transform="translate(-707.704 -1553.907)" fill="#f8f8fc"/>
        <path id="Trazado_58679" data-name="Trazado 58679" d="M776.77,1637.338a5.928,5.928,0,0,1-5.989-5.859v-.061a5.929,5.929,0,0,1,5.863-6h17.25a5.558,5.558,0,0,1,4.257,1.738,5.789,5.789,0,0,1,1.8,4.191,5.983,5.983,0,0,1-5.931,6.059H776.837Zm17.186-8.85H776.711a2.664,2.664,0,0,0-1.8,4.523,3.877,3.877,0,0,0,1.862.729h17.251a2.646,2.646,0,0,0,1.806-4.531,2.55,2.55,0,0,0-1.871-.721Z" transform="translate(-709.631 -1555.274)" fill="#f8f8fc"/>
        <path id="Trazado_58680" data-name="Trazado 58680" d="M775.1,1615.311a4.329,4.329,0,0,0-4.2,4.391l.537,43.027a4.25,4.25,0,0,0,4.261,4.266h.061l30.173-.4v21.523a4.33,4.33,0,0,0,4.4,4.262h17.184a4.334,4.334,0,0,0,4.263-4.393h0a4.247,4.247,0,0,0-4.321-4.2H814.53l-.339-21.527a4.252,4.252,0,0,0-4.263-4.252h-.065l-30.173.4-.463-38.771A4.4,4.4,0,0,0,775.1,1615.311Z" transform="translate(-708.951 -1612.437)" fill="#f8f8fc"/>
        <path id="Trazado_58681" data-name="Trazado 58681" d="M811.708,1695.846a5.992,5.992,0,0,1-5.989-5.859V1670H777.281a6,6,0,0,1-6-5.863l-.532-43.088a5.992,5.992,0,0,1,5.861-6.059h0a6.057,6.057,0,0,1,6,5.924l.462,37.094,28.513-.387a5.856,5.856,0,0,1,6,5.727v20.184h11.248a5.782,5.782,0,0,1,6.057,5.516c.007.107.007.23.007.338a5.919,5.919,0,0,1-5.793,6.064H811.778Zm-2.92-29.105v23.176a2.523,2.523,0,0,0,2.455,2.607c.068,0,.134,0,.2,0H828.7a2.6,2.6,0,0,0,2.591-2.6v-.055a2.527,2.527,0,0,0-2.453-2.607,1.106,1.106,0,0,0-.213,0h-14.58l-.332-23.178a2.73,2.73,0,0,0-2.67-2.6l-31.773.4-.53-40.365a2.668,2.668,0,0,0-2.66-2.672h0a2.675,2.675,0,0,0-2.6,2.672l.535,43.09a2.717,2.717,0,0,0,2.663,2.6Z" transform="translate(-709.801 -1614.254)" fill="#f8f8fc"/>
        <path id="Trazado_58682" data-name="Trazado 58682" d="M811.481,1625.471l-25.841.346a4.329,4.329,0,0,0,.131,8.656h25.845a4.5,4.5,0,0,0,.077-8.988Z" transform="translate(-649.63 -1554.933)" fill="#f8f8fc"/>
        <path id="Trazado_58683" data-name="Trazado 58683" d="M787.114,1637.549a5.787,5.787,0,0,1-4.2-1.719,6.208,6.208,0,0,1-1.8-4.2,6.055,6.055,0,0,1,5.927-6.059l25.845-.35a6,6,0,0,1,0,11.992H787.047Zm25.777-8.979-25.845.336a2.636,2.636,0,0,0-1.8,4.527,3.9,3.9,0,0,0,1.864.793h25.84a2.661,2.661,0,1,0-.062-5.32Z" transform="translate(-651.098 -1556.344)" fill="#f8f8fc"/>
        <path id="Trazado_58684" data-name="Trazado 58684" d="M826.089,1628.092l-43.025.541a4.385,4.385,0,0,0-4.264,4.387,4.337,4.337,0,0,0,4.395,4.2l43.029-.529a4.333,4.333,0,0,0,1.068-8.6,4.076,4.076,0,0,0-1.068,0Z" transform="translate(-664.235 -1540.291)" fill="#f8f8fc"/>
        <path id="Trazado_58685" data-name="Trazado 58685" d="M784.566,1640.336a6,6,0,0,1,0-11.994l43.027-.531a6.743,6.743,0,0,1,4.261,1.662,5.983,5.983,0,0,1-4.13,10.26h0l-43.025.6Zm43.027-9.189-43.091.527a2.964,2.964,0,0,0-1.868.8,2.9,2.9,0,0,0-.731,1.863,2.58,2.58,0,0,0,2.532,2.664h.131l43.091-.59a2.605,2.605,0,0,0,2.6-2.605v-.061a2.717,2.717,0,0,0-.8-1.875A2.37,2.37,0,0,0,827.594,1631.146Z" transform="translate(-665.538 -1541.689)" fill="#f8f8fc"/>
        <path id="Trazado_58686" data-name="Trazado 58686" d="M792.619,1634.631H775.438a4.258,4.258,0,0,0-4.259,4.26v25.916a4.328,4.328,0,1,0,8.589,1.07,4.562,4.562,0,0,0,0-1.07v-21.52h12.925a4.328,4.328,0,1,0,0-8.656Z" transform="translate(-707.567 -1503.078)" fill="#f8f8fc"/>
        <path id="Trazado_58687" data-name="Trazado 58687" d="M776.89,1672.232a6.072,6.072,0,0,1-5.936-5.93v-25.77a5.677,5.677,0,0,1,1.668-4.27,5.988,5.988,0,0,1,4.2-1.8h17.251a6.147,6.147,0,0,1,6.064,5.934,6.053,6.053,0,0,1-5.934,6.061h-11.25v19.977a6.268,6.268,0,0,1-1.663,4.273,5.955,5.955,0,0,1-4.2,1.795Zm16.845-34.7H776.554a2.39,2.39,0,0,0-1.864.8,2.533,2.533,0,0,0-.738,1.854v25.846a2.612,2.612,0,0,0,.8,1.869,3.086,3.086,0,0,0,1.868.729,2.763,2.763,0,0,0,1.864-.8,2.846,2.846,0,0,0,.731-1.863v-23.178h14.518a2.665,2.665,0,1,0,0-5.33Z" transform="translate(-708.672 -1504.039)" fill="#f8f8fc"/>
        <path id="Trazado_58688" data-name="Trazado 58688" d="M790.961,1682.91H778.044a4.332,4.332,0,0,0,.131,8.662h17.188a4.268,4.268,0,0,0,4.261-4.262v-.074l-.668-51.684a4.329,4.329,0,1,0-8.592,0Z" transform="translate(-692.646 -1525.387)" fill="#f8f8fc"/>
        <path id="Trazado_58689" data-name="Trazado 58689" d="M779.526,1694.762a6.062,6.062,0,0,1-6-5.93,6.031,6.031,0,0,1,5.929-6.064h11.26l-.6-45.682a5.994,5.994,0,1,1,11.92-1.279,6.089,6.089,0,0,1,0,1.279l.666,51.615a5.933,5.933,0,0,1-5.795,6.061H779.526Zm16.515-60.549h0a2.6,2.6,0,0,0-2.595,2.594v.064l.6,49.037H779.526a2.617,2.617,0,0,0-1.864.8,2.645,2.645,0,0,0,1.932,4.512h17.181a2.588,2.588,0,0,0,2.6-2.588v-.07l-.663-51.689a2.665,2.665,0,0,0-2.668-2.658h0Z" transform="translate(-694.064 -1526.779)" fill="#f8f8fc"/>
        <path id="Trazado_58690" data-name="Trazado 58690" d="M795.563,1649.332a4.309,4.309,0,0,0,4.264-4.393h0V1619.1a4.331,4.331,0,0,0-8.592,0v21.518H778.313a4.327,4.327,0,0,0-1.067,8.588,4.068,4.068,0,0,0,1.067,0Z" transform="translate(-694.514 -1612.431)" fill="#f8f8fc"/>
        <path id="Trazado_58691" data-name="Trazado 58691" d="M779.813,1652.908a6,6,0,1,1-1.257-11.928,7.942,7.942,0,0,1,1.257,0h11.262V1621a5.914,5.914,0,0,1,5.856-5.99h0a5.989,5.989,0,0,1,6,5.854v25.846a6.213,6.213,0,0,1-1.668,4.266,5.937,5.937,0,0,1-4.2,1.8H779.813Zm16.852-34.633h0a2.6,2.6,0,0,0-2.6,2.588v23.252H779.481a2.6,2.6,0,0,0-2.6,2.594v.061a2.734,2.734,0,0,0,2.67,2.6H796.8a2.74,2.74,0,0,0,1.861-.793,2.856,2.856,0,0,0,.733-1.869v-25.846a2.591,2.591,0,0,0-2.588-2.588Z" transform="translate(-696.018 -1614.136)" fill="#f8f8fc"/>
      </g>
      <path id="Icon_material-crop-landscape" data-name="Icon material-crop-landscape" d="M174.069,7.5H25.7A21.259,21.259,0,0,0,4.5,28.7V134.678a21.259,21.259,0,0,0,21.2,21.2H174.069a21.259,21.259,0,0,0,21.2-21.2V28.7A21.259,21.259,0,0,0,174.069,7.5Zm0,127.178H25.7V28.7H174.069Z" transform="translate(-5719.474 -22586.676)" fill="#101216"/>
      <path id="Icon_material-linear-scale" data-name="Icon material-linear-scale" d="M68.7,0a9.822,9.822,0,0,0-8.99,5.889H48.247a9.807,9.807,0,0,0-17.98,0H18.8a9.814,9.814,0,1,0,0,7.852H30.267a9.807,9.807,0,0,0,17.98,0H59.71A9.812,9.812,0,1,0,68.7,0Z" transform="matrix(0.978, -0.208, 0.208, 0.978, -5687.803, -22491.943)" fill="#101216"/>
      <path id="Icon_material-linear-scale-2" data-name="Icon material-linear-scale" d="M68.7,0a9.822,9.822,0,0,0-8.99,5.889H48.247a9.807,9.807,0,0,0-17.98,0H18.8a9.814,9.814,0,1,0,0,7.852H30.267a9.807,9.807,0,0,0,17.98,0H59.71A9.812,9.812,0,1,0,68.7,0Z" transform="matrix(0.891, -0.454, 0.454, 0.891, -5630.283, -22501.586)" fill="#101216"/>
    </g>
  </g>
</svg>
