<svg xmlns="http://www.w3.org/2000/svg" xmlns:xlink="http://www.w3.org/1999/xlink" width="826" height="779" viewBox="0 0 826 779">
  <defs>
    <clipPath id="clip-Web_1920_28">
      <rect width="826" height="779"/>
    </clipPath>
  </defs>
  <g id="Web_1920_28" data-name="Web 1920 – 28" clip-path="url(#clip-Web_1920_28)">
    <rect width="826" height="779" fill="#fff"/>
    <g id="Grupo_75788" data-name="Grupo 75788" transform="translate(6208.583 22647.889)">
      <path id="Trazado_58825" data-name="Trazado 58825" d="M6.273,7.273V28.636h8.545V11.545h17.09V3H10.545A4.273,4.273,0,0,0,6.273,7.273ZM83.178,28.636V7.273A4.273,4.273,0,0,0,78.906,3H57.543v8.545h17.09v17.09ZM74.633,71.362H57.543v8.545H78.906a4.273,4.273,0,0,0,4.273-4.273V54.271H74.633ZM31.908,79.907V71.362H14.818V54.271H6.273V75.634a4.273,4.273,0,0,0,4.273,4.273ZM2,37.181H87.451v8.545H2Z" transform="translate(-5913.371 -22186.164)" fill="#0f1215"/>
      <g id="Grupo_75437" data-name="Grupo 75437" transform="translate(-6067.988 -22520.457)">
        <g id="g2756" transform="translate(0 126.439)">
          <path id="path172" d="M1506.361-1063.547H1139.6v-12.426h366.758Zm-337.285-37.291h307.814v12.432H1169.076ZM1169-1305.943c-3.758,0-5.578-.615-6.34-.959.32-.771,1.293-2.449,4.24-4.961l140.693-119.3c8.336-7.068,22.428-7.074,30.768,0l140.7,119.3c2.951,2.5,3.922,4.2,4.24,4.961-.756.348-2.582.959-6.334.959H1211.643v12.432h16.373v180.246h-32.744v-192.678Zm190.01,167.814h-72.055c-7.217,0-13.1,5.561-13.1,12.422v12.441h-32.74v-155.387h147.357v-12.432H1241.117v-12.428h163.729v180.246H1372.1v-12.447c0-6.855-5.871-12.416-13.088-12.416m-.01,24.863h-72.043V-1125.7H1359Zm91.691,0h-32.744v-180.246h32.744Zm55.672,24.859h-16.379v-12.441c0-6.852-5.867-12.418-13.086-12.418h-13.109v-180.246h13.176c13.256,0,17.469-5.561,18.8-8.867,1.348-3.344,2.084-10.209-7.977-18.75l-140.7-119.316c-13.295-11.268-34.926-11.271-48.225,0l-140.7,119.311c-10.061,8.541-9.316,15.412-7.973,18.756,1.334,3.307,5.541,8.867,18.8,8.867h13.168v180.246h-13.105c-7.221,0-13.088,5.566-13.088,12.418v12.441h-16.389c-7.215,0-13.086,5.566-13.086,12.418v24.873h392.959v-24.873c0-6.852-5.867-12.418-13.1-12.418" transform="translate(-1126.5 1448.897)" fill="#0f1215"/>
          <path id="path174" d="M1165.145-1237.283h-13.1v137.543h13.1Z" transform="translate(-1129.118 1412.793)" fill="#0f1215"/>
          <path id="path184" d="M1524.205-1099.746h13.1v-137.535h-13.1Z" transform="translate(-1167.263 1412.792)" fill="#0f1215"/>
        </g>
        <path id="Icon_material-crop-landscape" data-name="Icon material-crop-landscape" d="M187.483,7.5H27.373A22.94,22.94,0,0,0,4.5,30.373V144.739a22.94,22.94,0,0,0,22.873,22.873h160.11a22.94,22.94,0,0,0,22.873-22.873V30.373A22.94,22.94,0,0,0,187.483,7.5Zm0,137.239H27.373V30.373h160.11Z" transform="translate(335.454 -7.5)" fill="#0f1215"/>
        <path id="Icon_material-linear-scale" data-name="Icon material-linear-scale" d="M74.135,0a10.6,10.6,0,0,0-9.7,6.355H52.064a10.582,10.582,0,0,0-19.4,0H20.292a10.591,10.591,0,1,0,0,8.473h12.37a10.582,10.582,0,0,0,19.4,0h12.37A10.589,10.589,0,1,0,74.135,0Z" transform="matrix(0.978, -0.208, 0.208, 0.978, 369.286, 94.134)" fill="#0f1215"/>
        <path id="Icon_material-linear-scale-2" data-name="Icon material-linear-scale" d="M74.135,0a10.6,10.6,0,0,0-9.7,6.355H52.064a10.582,10.582,0,0,0-19.4,0H20.292a10.591,10.591,0,1,0,0,8.473h12.37a10.582,10.582,0,0,0,19.4,0h12.37A10.589,10.589,0,1,0,74.135,0Z" transform="matrix(0.891, -0.454, 0.454, 0.891, 431.366, 83.728)" fill="#0f1215"/>
      </g>
      <text id="Banco_" data-name="Banco  " transform="translate(-5848.55 -22281.691)" fill="#0f1215" font-size="55" font-family="Heebo-Bold, Heebo" font-weight="700" letter-spacing="0.04em"><tspan x="-97.922" y="0" xml:space="preserve">Banco  </tspan></text>
    </g>
  </g>
</svg>
