<svg version="1.2" xmlns="http://www.w3.org/2000/svg" xmlns:xlink="http://www.w3.org/1999/xlink" overflow="visible" preserveAspectRatio="none" viewBox="0 0 23.998815000000004 16" width="23.998815000000004" height="16"><g transform="translate(0, 0)"><g transform="translate(0.000007499999998411555, 0) rotate(0)"><path d="M23.8549,7.392c-2.24675,-4.49814 -6.8281,-7.35453 -11.856,-7.392c-5.02704,0.03868 -9.60722,2.89482 -11.854,7.392c-0.19321,0.38231 -0.19321,0.83369 0,1.216c2.24642,4.4975 6.82682,7.35378 11.854,7.392c5.0274,-0.0383 9.60806,-2.8945 11.855,-7.392c0.19321,-0.38231 0.19321,-0.83369 0,-1.216zM11.9989,14c-3.31371,0 -6,-2.68629 -6,-6c0,-3.31371 2.68629,-6 6,-6c3.31371,0 6,2.68629 6,6c0,3.31371 -2.68629,6 -6,6zM11.9989,4c-0.35717,0.00498 -0.71204,0.05812 -1.055,0.158c0.58448,0.7937 0.50134,1.89537 -0.19565,2.59235c-0.69699,0.69699 -1.79865,0.78013 -2.59235,0.19565c-0.44819,1.65201 0.20699,3.40586 1.62853,4.3594c1.42154,0.95354 3.29284,0.89439 4.65133,-0.14701c1.35849,-1.0414 1.90161,-2.83313 1.34999,-4.45354c-0.55162,-1.62041 -2.07513,-2.70861 -3.78685,-2.70486z" style="stroke-width: 0; stroke-linecap: butt; stroke-linejoin: miter; fill: rgb(0, 0, 0);" vector-effect="non-scaling-stroke"/></g><defs><path id="path-1698963663992492" d="M23.8549,7.392c-2.24675,-4.49814 -6.8281,-7.35453 -11.856,-7.392c-5.02704,0.03868 -9.60722,2.89482 -11.854,7.392c-0.19321,0.38231 -0.19321,0.83369 0,1.216c2.24642,4.4975 6.82682,7.35378 11.854,7.392c5.0274,-0.0383 9.60806,-2.8945 11.855,-7.392c0.19321,-0.38231 0.19321,-0.83369 0,-1.216zM11.9989,14c-3.31371,0 -6,-2.68629 -6,-6c0,-3.31371 2.68629,-6 6,-6c3.31371,0 6,2.68629 6,6c0,3.31371 -2.68629,6 -6,6zM11.9989,4c-0.35717,0.00498 -0.71204,0.05812 -1.055,0.158c0.58448,0.7937 0.50134,1.89537 -0.19565,2.59235c-0.69699,0.69699 -1.79865,0.78013 -2.59235,0.19565c-0.44819,1.65201 0.20699,3.40586 1.62853,4.3594c1.42154,0.95354 3.29284,0.89439 4.65133,-0.14701c1.35849,-1.0414 1.90161,-2.83313 1.34999,-4.45354c-0.55162,-1.62041 -2.07513,-2.70861 -3.78685,-2.70486z" vector-effect="non-scaling-stroke"/></defs></g></svg>