<?xml version="1.0" encoding="UTF-8"?>
<svg id="Capa_1" data-name="Capa 1" xmlns="http://www.w3.org/2000/svg" viewBox="0 0 826 779">
  <defs>
    <style>
      .cls-1 {
        fill: #475993;
        stroke-width: 0px;
      }
    </style>
  </defs>
  <path class="cls-1" d="m593.3,28.87H232.68c-99.55,0-180.3,80.72-180.3,180.3v360.64c0,99.55,80.75,180.3,180.3,180.3h360.63c99.61,0,180.32-80.75,180.32-180.3V209.18c0-99.59-80.72-180.3-180.32-180.3Zm-12.92,326.74l-9.39,79.42c-.86,7.64-7.36,13.39-15,13.32h-85.14l-.44,240.17c-9.94,1.46-20.1,2.21-30.46,2.21h-5.13c-25.18,0-49.31-4.42-71.65-12.53l.37-229.98h-64.13c-8.28,0-15.02-6.69-15.02-15.02l-.31-79.4c0-8.33,6.72-15.07,15-15.07h64.05v-76.81c0-89.08,54.39-137.55,133.81-137.55h65.19c1.81,0,3.54.31,5.12.91,3.12,1.13,5.76,3.27,7.55,5.99,1.5,2.32,2.36,5.12,2.36,8.11v67.2c0,8.31-6.74,15.02-15.02,15.02h-40.12c-43.24,0-51.59,20.54-51.59,50.68v66.45h94.95c4.33-.04,8.48,1.79,11.35,5.06,2.89,3.22,4.22,7.53,3.67,11.82Z"/>
  <path class="cls-1" d="m574.8,131.28c-2.45-2.06-4.97-4.07-7.55-5.99,3.12,1.13,5.76,3.27,7.55,5.99Z"/>
</svg>