<svg xmlns="http://www.w3.org/2000/svg" xmlns:xlink="http://www.w3.org/1999/xlink" width="826" height="779" viewBox="0 0 826 779">
  <defs>
    <filter id="Trazado_478" x="239.059" y="178.082" width="355.367" height="430.23" filterUnits="userSpaceOnUse">
      <feOffset dx="3" dy="3" input="SourceAlpha"/>
      <feGaussianBlur stdDeviation="3" result="blur"/>
      <feFlood flood-opacity="0.161"/>
      <feComposite operator="in" in2="blur"/>
      <feComposite in="SourceGraphic"/>
    </filter>
    <filter id="Trazado_478-2" x="239.059" y="178.082" width="355.367" height="430.23" filterUnits="userSpaceOnUse">
      <feOffset dx="3" dy="3" input="SourceAlpha"/>
      <feGaussianBlur stdDeviation="3" result="blur-2"/>
      <feFlood flood-opacity="0.161" result="color"/>
      <feComposite operator="out" in="SourceGraphic" in2="blur-2"/>
      <feComposite operator="in" in="color"/>
      <feComposite operator="in" in2="SourceGraphic"/>
    </filter>
    <clipPath id="clip-Web_1920_5">
      <rect width="826" height="779"/>
    </clipPath>
  </defs>
  <g id="Web_1920_5" data-name="Web 1920 – 5" clip-path="url(#clip-Web_1920_5)">
    <rect width="826" height="779" fill="#fff"/>
    <g id="Grupo_75704" data-name="Grupo 75704" transform="translate(262.709 221.006)">
      <path id="Trazado_56370" data-name="Trazado 56370" d="M252.768,1759.6a53.275,53.275,0,0,1-53.218-53.219v-33.164a7.97,7.97,0,1,1,15.939,0v33.164a37.278,37.278,0,1,0,74.557,0h0v-30.44a8.262,8.262,0,0,1-.515-2.724,8.022,8.022,0,0,1,8.022-7.971h.462a8.015,8.015,0,0,1,7.97,7.971v33.164A53.272,53.272,0,0,1,252.768,1759.6Zm-45.248-90.5a4.061,4.061,0,0,0-4.062,4.062h0v33.165a49.311,49.311,0,0,0,98.621,0v-33.165a4.111,4.111,0,0,0-4.063-4.062h-.462a4.064,4.064,0,0,0-4.114,4.012v.05a4.166,4.166,0,0,0,.308,1.593v31.622a41.135,41.135,0,1,1-82.269,0v-33.164A4.111,4.111,0,0,0,207.519,1669.107Z" transform="translate(-101.956 -1535.22)" fill="#fff"/>
    </g>
    <g id="Grupo_75713" data-name="Grupo 75713" transform="translate(14193.097 12701.599)">
      <path id="Trazado_475" data-name="Trazado 475" d="M233.919,330.367a19.435,19.435,0,0,0-5.434-4,64.841,64.841,0,0,0-13.755-4.948v36.81a24.479,24.479,0,0,0,20.384-10.884h0a16.491,16.491,0,0,0,1.517-11.4A11.44,11.44,0,0,0,233.919,330.367Z" transform="translate(-13985.705 -12573.951)" fill="#0f1315"/>
      <path id="Trazado_476" data-name="Trazado 476" d="M170.884,258.865a13.764,13.764,0,0,0-2.358,6.5,15.276,15.276,0,0,0,.825,7.15,11.068,11.068,0,0,0,4.411,4.906,33.941,33.941,0,0,0,6.555,3.414c1.913.766,4.049,1.509,6.383,2.25V249.72a24.247,24.247,0,0,0-15.783,9.145Z" transform="translate(-13977.581 -12561.381)" fill="#0f1315"/>
      <path id="Trazado_477" data-name="Trazado 477" d="M239.64,352.65l-.14.289Z" transform="translate(-13990.051 -12579.421)" fill="#0f1315"/>
      <g data-type="innerShadowGroup">
        <g transform="matrix(1, 0, 0, 1, -14193.1, -12701.6)" filter="url(#Trazado_478)">
          <path id="Trazado_478-3" data-name="Trazado 478" d="M219.258,287.58a34.98,34.98,0,0,1-13.8,24.622,51.248,51.248,0,0,1-28.127,10.118v10.827a10.015,10.015,0,1,1-20.029,0V321.3c-1.715-.346-3.43-.717-5.121-1.2a48.008,48.008,0,0,1-24.49-15.272,44.3,44.3,0,0,1-7.545-12.625c-.478-1.2-.866-2.416-1.237-3.669a18.2,18.2,0,0,1-.825-3.422q-.9-9.071,7.858-10.934t11.594,6.712c.4,1.171.651,2.367,1.072,3.538a22.266,22.266,0,0,0,1.55,3.3,25.431,25.431,0,0,0,4.387,5.7,29.108,29.108,0,0,0,12.74,7.034V260.352a70.157,70.157,0,0,1-26.173-11.4,30.42,30.42,0,0,1-8.856-10.769,33.7,33.7,0,0,1-3.1-14.5,34.7,34.7,0,0,1,3.01-14.7,35.458,35.458,0,0,1,8.246-11.4,48.791,48.791,0,0,1,27-12.113V174a9.983,9.983,0,1,1,19.964,0v11.4c1.311.173,2.614.371,3.9.594A48.14,48.14,0,0,1,207.4,198.845a38.444,38.444,0,0,1,7.99,11.652,39.257,39.257,0,0,1,1.4,3.7,22.874,22.874,0,0,1,.932,3.62q1.262,8.955-7.364,11.247t-11.866-6.11c-.429-1.113-.627-2.284-1.072-3.4a18.594,18.594,0,0,0-6.358-8.246,31.78,31.78,0,0,0-13.779-5.409V244.2a123.9,123.9,0,0,1,17.1,5.121,38.987,38.987,0,0,1,20.871,16.55c-.7-1.253-1.41-2.474,0,0s.734,1.311,0,0a35.713,35.713,0,0,1,3.851,21.712ZM190.018,89.891C220.99,63.5,241.6,4.2,228.906,1.544A303.164,303.164,0,0,0,157.5,15.8C132.189,18.886,104.9-11.855,89.525,5.3c-12.517,13.936,8.98,64.591,42.59,86.665-100.263,49.962-241.194,300.656,4.766,318.805C476.92,436.082,306.567,138.543,190.018,89.891Z" transform="translate(245.07 184.02)" fill="#0f1315"/>
        </g>
        <g transform="matrix(1, 0, 0, 1, -14193.1, -12701.6)" filter="url(#Trazado_478-2)">
          <path id="Trazado_478-4" data-name="Trazado 478" d="M219.258,287.58a34.98,34.98,0,0,1-13.8,24.622,51.248,51.248,0,0,1-28.127,10.118v10.827a10.015,10.015,0,1,1-20.029,0V321.3c-1.715-.346-3.43-.717-5.121-1.2a48.008,48.008,0,0,1-24.49-15.272,44.3,44.3,0,0,1-7.545-12.625c-.478-1.2-.866-2.416-1.237-3.669a18.2,18.2,0,0,1-.825-3.422q-.9-9.071,7.858-10.934t11.594,6.712c.4,1.171.651,2.367,1.072,3.538a22.266,22.266,0,0,0,1.55,3.3,25.431,25.431,0,0,0,4.387,5.7,29.108,29.108,0,0,0,12.74,7.034V260.352a70.157,70.157,0,0,1-26.173-11.4,30.42,30.42,0,0,1-8.856-10.769,33.7,33.7,0,0,1-3.1-14.5,34.7,34.7,0,0,1,3.01-14.7,35.458,35.458,0,0,1,8.246-11.4,48.791,48.791,0,0,1,27-12.113V174a9.983,9.983,0,1,1,19.964,0v11.4c1.311.173,2.614.371,3.9.594A48.14,48.14,0,0,1,207.4,198.845a38.444,38.444,0,0,1,7.99,11.652,39.257,39.257,0,0,1,1.4,3.7,22.874,22.874,0,0,1,.932,3.62q1.262,8.955-7.364,11.247t-11.866-6.11c-.429-1.113-.627-2.284-1.072-3.4a18.594,18.594,0,0,0-6.358-8.246,31.78,31.78,0,0,0-13.779-5.409V244.2a123.9,123.9,0,0,1,17.1,5.121,38.987,38.987,0,0,1,20.871,16.55c-.7-1.253-1.41-2.474,0,0s.734,1.311,0,0a35.713,35.713,0,0,1,3.851,21.712ZM190.018,89.891C220.99,63.5,241.6,4.2,228.906,1.544A303.164,303.164,0,0,0,157.5,15.8C132.189,18.886,104.9-11.855,89.525,5.3c-12.517,13.936,8.98,64.591,42.59,86.665-100.263,49.962-241.194,300.656,4.766,318.805C476.92,436.082,306.567,138.543,190.018,89.891Z" transform="translate(245.07 184.02)" fill="#fff"/>
        </g>
      </g>
      <path id="Trazado_479" data-name="Trazado 479" d="M239.27,353.27l-.14.255Z" transform="translate(-13989.979 -12579.549)" fill="#0f1315"/>
    </g>
  </g>
</svg>
