<?xml version="1.0" encoding="UTF-8"?>
<svg id="Capa_1" data-name="Capa 1" xmlns="http://www.w3.org/2000/svg" viewBox="0 0 826 779">
  <defs>
    <style>
      .cls-1 {
        fill: #f14336;
      }

      .cls-1, .cls-2, .cls-3, .cls-4 {
        stroke-width: 0px;
      }

      .cls-2 {
        fill: #fbbb00;
      }

      .cls-3 {
        fill: #28b446;
      }

      .cls-4 {
        fill: #518ef8;
      }
    </style>
  </defs>
  <path class="cls-2" d="m212.65,464.44l-116.47,95.46h-.09c-56.18-104.69-57.18-230.33-2.67-335.87l.05.02s-.02.02-.02.02l117.16,95.9c-16.04,46.95-15.31,98,2.03,144.48Z"/>
  <path class="cls-4" d="m638.17,670.05h-.04l.04-.04-117.27-95.92c42.39-24.87,74.94-63.49,92.24-109.47h-192.27v-142.36h345.55c24.85,130.72-24.48,264.49-128.25,347.78Z"/>
  <path class="cls-3" d="m638.17,670.01l-.04.04c-83.33,66.89-192.09,93.3-296.81,72.06-104.74-21.27-194.61-88.01-245.25-182.11l.11-.09,116.47-95.46c22.16,59.05,69.22,105.32,128.64,126.44,59.41,21.14,125.13,14.98,179.59-16.81l.02.02,117.27,95.92Z"/>
  <path class="cls-1" d="m642.61,112.57l-116.56,95.39c-55.32-34.44-123.3-41.78-184.71-19.99-61.39,21.81-109.51,70.41-130.68,132.04l-.04-.04-117.16-95.9s0-.02.02-.02c25.01-48.34,60.31-89.69,102.69-121.69,42.39-31.99,91.82-54.61,145.17-65.44,106.7-21.67,217.46,6.16,301.27,75.65Z"/>
</svg>