<svg xmlns="http://www.w3.org/2000/svg" xmlns:xlink="http://www.w3.org/1999/xlink" width="826" height="779" viewBox="0 0 826 779">
  <defs>
    <clipPath id="clip-Web_1920_45">
      <rect width="826" height="779"/>
    </clipPath>
  </defs>
  <g id="Web_1920_45" data-name="Web 1920 – 45" clip-path="url(#clip-Web_1920_45)">
    <rect width="826" height="779" fill="#fff"/>
    <g id="Grupo_75847" data-name="Grupo 75847" transform="translate(6264.283 21661.672)">
      <path id="Trazado_58648" data-name="Trazado 58648" d="M151.5,35.758H131.833a49.267,49.267,0,0,0-94.757,0H17.409A13.507,13.507,0,0,0,4,49.167V75.986a31.438,31.438,0,0,0,31.288,31.288h98.333a31.438,31.438,0,0,0,31.288-31.288V49.167A13.507,13.507,0,0,0,151.5,35.758Z" transform="translate(-5997.35 -21486.672)" fill="#0f1215"/>
      <path id="Trazado_58649" data-name="Trazado 58649" d="M254.772,3H250.3V25.349a49.139,49.139,0,0,1-49.166,49.167H102.8A49.139,49.139,0,0,1,53.636,25.349V3h-4.47A49.139,49.139,0,0,0,0,52.167V275.654a49.139,49.139,0,0,0,49.166,49.167H181.111l3.933-21.991a49.787,49.787,0,0,1,13.588-26.282l14.3-14.3H67.045a13.409,13.409,0,0,1,0-26.818H236.893a6.086,6.086,0,0,1,2.5.358h.179l64.363-64.364V52.167A49.139,49.139,0,0,0,254.772,3ZM236.893,204.138H67.045a13.409,13.409,0,0,1,0-26.818H236.893a13.409,13.409,0,0,1,0,26.818Zm0-58.107H67.045a13.409,13.409,0,0,1,0-26.818H236.893a13.409,13.409,0,0,1,0,26.818Z" transform="translate(-6064.868 -21436.018)" fill="#0f1215"/>
      <path id="Trazado_58650" data-name="Trazado 58650" d="M25.179,232.039a13.414,13.414,0,0,1-13.194-15.751l9.476-53.726a13.458,13.458,0,0,1,3.719-7.152L157.929,22.676c16.305-16.341,32.325-11.925,41.085-3.165L221.13,41.628a31.3,31.3,0,0,1,0,44.25L88.381,218.63a13.21,13.21,0,0,1-7.151,3.719L27.5,231.824a12.777,12.777,0,0,1-2.324.215Zm53.726-22.885h0Z" transform="translate(-5866.082 -21289.627)" fill="#0f1215"/>
    </g>
  </g>
</svg>
