<svg xmlns="http://www.w3.org/2000/svg" xmlns:xlink="http://www.w3.org/1999/xlink" width="826" height="779" viewBox="0 0 826 779">
  <defs>
    <clipPath id="clip-Web_1920_11">
      <rect width="826" height="779"/>
    </clipPath>
  </defs>
  <g id="Web_1920_11" data-name="Web 1920 – 11" clip-path="url(#clip-Web_1920_11)">
    <rect width="826" height="779" fill="#fff"/>
    <g id="Grupo_75731" data-name="Grupo 75731" transform="translate(11610.218 23728.072)">
      <path id="Icon_awesome-star" data-name="Icon awesome-star" d="M42.016,3.026l-11.1,22.5L6.1,29.145A5.441,5.441,0,0,0,3.09,38.423l17.959,17.5L16.8,80.652a5.434,5.434,0,0,0,7.884,5.727L46.892,74.7,69.1,86.379a5.438,5.438,0,0,0,7.884-5.727L72.735,55.927l17.959-17.5a5.441,5.441,0,0,0-3.007-9.278l-24.824-3.62-11.1-22.5A5.441,5.441,0,0,0,42.016,3.026Z" transform="translate(-11447.215 -23535.127)"/>
      <path id="Icon_awesome-star-2" data-name="Icon awesome-star" d="M42.016,3.026l-11.1,22.5L6.1,29.145A5.441,5.441,0,0,0,3.09,38.423l17.959,17.5L16.8,80.652a5.434,5.434,0,0,0,7.884,5.727L46.892,74.7,69.1,86.379a5.438,5.438,0,0,0,7.884-5.727L72.735,55.927l17.959-17.5a5.441,5.441,0,0,0-3.007-9.278l-24.824-3.62-11.1-22.5A5.441,5.441,0,0,0,42.016,3.026Z" transform="translate(-11345.572 -23535.127)"/>
      <path id="Icon_awesome-star-3" data-name="Icon awesome-star" d="M42.016,3.026l-11.1,22.5L6.1,29.145A5.441,5.441,0,0,0,3.09,38.423l17.959,17.5L16.8,80.652a5.434,5.434,0,0,0,7.884,5.727L46.892,74.7,69.1,86.379a5.438,5.438,0,0,0,7.884-5.727L72.735,55.927l17.959-17.5a5.441,5.441,0,0,0-3.007-9.278l-24.824-3.62-11.1-22.5A5.441,5.441,0,0,0,42.016,3.026Z" transform="translate(-11243.869 -23535.127)"/>
      <path id="Icon_awesome-star-4" data-name="Icon awesome-star" d="M42.016,3.026l-11.1,22.5L6.1,29.145A5.441,5.441,0,0,0,3.09,38.423l17.959,17.5L16.8,80.652a5.434,5.434,0,0,0,7.884,5.727L46.892,74.7,69.1,86.379a5.438,5.438,0,0,0,7.884-5.727L72.735,55.927l17.959-17.5a5.441,5.441,0,0,0-3.007-9.278l-24.824-3.62-11.1-22.5A5.441,5.441,0,0,0,42.016,3.026Z" transform="translate(-11142.195 -23535.127)"/>
      <path id="Icon_awesome-star-5" data-name="Icon awesome-star" d="M42.016,3.026l-11.1,22.5L6.1,29.145A5.441,5.441,0,0,0,3.09,38.423l17.959,17.5L16.8,80.652a5.434,5.434,0,0,0,7.884,5.727L46.892,74.7,69.1,86.379a5.438,5.438,0,0,0,7.884-5.727L72.735,55.927l17.959-17.5a5.441,5.441,0,0,0-3.007-9.278l-24.824-3.62-11.1-22.5A5.441,5.441,0,0,0,42.016,3.026Z" transform="translate(-11040.553 -23535.127)"/>
      <path id="Icon_awesome-cash-register" data-name="Icon awesome-cash-register" d="M259.536,192.322,245.98,111.088a16.251,16.251,0,0,0-16.044-13.556H105.648V65.038h48.74a8.147,8.147,0,0,0,8.123-8.123V8.123A8.147,8.147,0,0,0,154.388,0H24.414a8.147,8.147,0,0,0-8.123,8.123v48.74a8.147,8.147,0,0,0,8.123,8.123h48.74V97.481H30.05a16.29,16.29,0,0,0-16.044,13.556L.45,192.271A31.5,31.5,0,0,0-.007,197.6v46.1A16.229,16.229,0,0,0,16.24,259.949H243.7A16.229,16.229,0,0,0,259.942,243.7v-46.05A26.958,26.958,0,0,0,259.536,192.322ZM142.2,125.913a8.147,8.147,0,0,1,8.123-8.123h8.123a8.147,8.147,0,0,1,8.123,8.123v8.123a8.147,8.147,0,0,1-8.123,8.123h-8.123a8.147,8.147,0,0,1-8.123-8.123Zm-16.247,32.494h8.123a8.147,8.147,0,0,1,8.123,8.123v8.123a8.147,8.147,0,0,1-8.123,8.123h-8.123a8.147,8.147,0,0,1-8.123-8.123V166.53A8.147,8.147,0,0,1,125.957,158.406ZM109.71,117.789a8.147,8.147,0,0,1,8.123,8.123v8.123a8.147,8.147,0,0,1-8.123,8.123h-8.123a8.147,8.147,0,0,1-8.123-8.123v-8.123a8.147,8.147,0,0,1,8.123-8.123ZM40.661,40.617V24.37h97.481V40.617ZM60.969,142.16H52.846a8.147,8.147,0,0,1-8.123-8.123v-8.123a8.147,8.147,0,0,1,8.123-8.123h8.123a8.147,8.147,0,0,1,8.123,8.123v8.123A8.147,8.147,0,0,1,60.969,142.16Zm8.123,32.494V166.53a8.147,8.147,0,0,1,8.123-8.123H85.34a8.147,8.147,0,0,1,8.123,8.123v8.123a8.147,8.147,0,0,1-8.123,8.123H77.216A8.147,8.147,0,0,1,69.093,174.653Zm109.666,56.864a4.074,4.074,0,0,1-4.062,4.062H85.34a4.074,4.074,0,0,1-4.062-4.062v-8.123a4.074,4.074,0,0,1,4.062-4.062H174.7a4.074,4.074,0,0,1,4.062,4.062Zm12.185-56.864a8.147,8.147,0,0,1-8.123,8.123H174.7a8.147,8.147,0,0,1-8.123-8.123V166.53a8.147,8.147,0,0,1,8.123-8.123h8.123a8.147,8.147,0,0,1,8.123,8.123Zm24.37-40.617a8.147,8.147,0,0,1-8.123,8.123h-8.123a8.147,8.147,0,0,1-8.123-8.123v-8.123a8.147,8.147,0,0,1,8.123-8.123h8.123a8.147,8.147,0,0,1,8.123,8.123Z" transform="translate(-11326.94 -23401.021)"/>
      <path id="Trazado_60137" data-name="Trazado 60137" d="M208.125,147.262a25.777,25.777,0,0,1,8.084,7.844,21.412,21.412,0,0,1,3.11,11.962,21.714,21.714,0,0,1-2.758,11.058,20.324,20.324,0,0,1-7.783,7.629,29.906,29.906,0,0,1-11.688,3.529v11.141h-8.7V189.284a34.372,34.372,0,0,1-12.558-3.686,22.908,22.908,0,0,1-9.149-8.793q-3.467-5.8-3.467-14.554h19.6q0,6.337,2.787,9.149a9.7,9.7,0,0,0,7.206,2.812,6.4,6.4,0,0,0,5.16-2.021,7.479,7.479,0,0,0,1.723-5.024,11.415,11.415,0,0,0-.828-4.7,7.577,7.577,0,0,0-2.593-3.057,30.232,30.232,0,0,0-5.16-2.734,123.984,123.984,0,0,1-14.037-6.879,24.171,24.171,0,0,1-7.948-7.617q-3.027-4.672-3.027-12.011a21,21,0,0,1,2.92-11.03,21.447,21.447,0,0,1,8.217-7.782,30.483,30.483,0,0,1,12.234-3.521V96.5h8.7v11.6a27.644,27.644,0,0,1,11.423,4.266,22.2,22.2,0,0,1,7.592,8.7,27.368,27.368,0,0,1,2.676,12.367H200.26q0-10.429-7.7-10.429a6.154,6.154,0,0,0-5.132,2.129,8.155,8.155,0,0,0-1.694,5.244,8.735,8.735,0,0,0,.766,3.823,8.473,8.473,0,0,0,2.593,2.978,29.54,29.54,0,0,0,5.214,2.974A128.238,128.238,0,0,1,208.125,147.262Z" transform="translate(-11258.968 -23510.996)"/>
    </g>
  </g>
</svg>
