<svg xmlns="http://www.w3.org/2000/svg" xmlns:xlink="http://www.w3.org/1999/xlink" width="826" height="779" viewBox="0 0 826 779">
  <defs>
    <clipPath id="clip-Web_1920_6">
      <rect width="826" height="779"/>
    </clipPath>
  </defs>
  <g id="Web_1920_6" data-name="Web 1920 – 6" clip-path="url(#clip-Web_1920_6)">
    <rect width="826" height="779" fill="#fff"/>
    <g id="Grupo_75704" data-name="Grupo 75704" transform="translate(262.709 221.006)">
      <path id="Trazado_56370" data-name="Trazado 56370" d="M252.768,1759.6a53.275,53.275,0,0,1-53.218-53.219v-33.164a7.97,7.97,0,1,1,15.939,0v33.164a37.278,37.278,0,1,0,74.557,0h0v-30.44a8.262,8.262,0,0,1-.515-2.724,8.022,8.022,0,0,1,8.022-7.971h.462a8.015,8.015,0,0,1,7.97,7.971v33.164A53.272,53.272,0,0,1,252.768,1759.6Zm-45.248-90.5a4.061,4.061,0,0,0-4.062,4.062h0v33.165a49.311,49.311,0,0,0,98.621,0v-33.165a4.111,4.111,0,0,0-4.063-4.062h-.462a4.064,4.064,0,0,0-4.114,4.012v.05a4.166,4.166,0,0,0,.308,1.593v31.622a41.135,41.135,0,1,1-82.269,0v-33.164A4.111,4.111,0,0,0,207.519,1669.107Z" transform="translate(-101.956 -1535.22)" fill="#fff"/>
    </g>
    <g id="Grupo_75713" data-name="Grupo 75713" transform="translate(14193.097 12701.599)">
      <path id="Trazado_477" data-name="Trazado 477" d="M239.64,352.65l-.14.289Z" transform="translate(-13990.051 -12579.421)" fill="#0f1315"/>
      <path id="Trazado_479" data-name="Trazado 479" d="M239.27,353.27l-.14.255Z" transform="translate(-13989.979 -12579.549)" fill="#0f1315"/>
    </g>
    <path id="Icon_material-shopping-cart" data-name="Icon material-shopping-cart" d="M130.234,346.291A42.911,42.911,0,1,0,173.145,389.2,42.854,42.854,0,0,0,130.234,346.291ZM1.5,3V45.911H44.411l77.24,162.849L92.687,261.326a41.483,41.483,0,0,0-5.364,20.6,43.037,43.037,0,0,0,42.911,42.911H387.7V281.924H139.245a5.312,5.312,0,0,1-5.364-5.364l.644-2.575,19.31-34.973H313.68a42.708,42.708,0,0,0,37.547-22.1L428.039,77.666a20.962,20.962,0,0,0,2.575-10.3,21.519,21.519,0,0,0-21.456-21.456H91.828L71.66,3ZM344.791,346.291A42.911,42.911,0,1,0,387.7,389.2,42.854,42.854,0,0,0,344.791,346.291Z" transform="translate(197.1 172.641)"/>
  </g>
</svg>
