<svg xmlns="http://www.w3.org/2000/svg" xmlns:xlink="http://www.w3.org/1999/xlink" width="826" height="779" viewBox="0 0 826 779">
  <defs>
    <clipPath id="clip-Web_1920_7">
      <rect width="826" height="779"/>
    </clipPath>
  </defs>
  <g id="Web_1920_7" data-name="Web 1920 – 7" clip-path="url(#clip-Web_1920_7)">
    <rect width="826" height="779" fill="#fff"/>
    <g id="Grupo_75704" data-name="Grupo 75704" transform="translate(262.709 221.006)">
      <path id="Trazado_56370" data-name="Trazado 56370" d="M252.768,1759.6a53.275,53.275,0,0,1-53.218-53.219v-33.164a7.97,7.97,0,1,1,15.939,0v33.164a37.278,37.278,0,1,0,74.557,0h0v-30.44a8.262,8.262,0,0,1-.515-2.724,8.022,8.022,0,0,1,8.022-7.971h.462a8.015,8.015,0,0,1,7.97,7.971v33.164A53.272,53.272,0,0,1,252.768,1759.6Zm-45.248-90.5a4.061,4.061,0,0,0-4.062,4.062h0v33.165a49.311,49.311,0,0,0,98.621,0v-33.165a4.111,4.111,0,0,0-4.063-4.062h-.462a4.064,4.064,0,0,0-4.114,4.012v.05a4.166,4.166,0,0,0,.308,1.593v31.622a41.135,41.135,0,1,1-82.269,0v-33.164A4.111,4.111,0,0,0,207.519,1669.107Z" transform="translate(-101.956 -1535.22)" fill="#fff"/>
    </g>
    <g id="Grupo_75713" data-name="Grupo 75713" transform="translate(14193.097 12701.599)">
      <path id="Trazado_477" data-name="Trazado 477" d="M239.64,352.65l-.14.289Z" transform="translate(-13990.051 -12579.421)" fill="#0f1315"/>
      <path id="Trazado_479" data-name="Trazado 479" d="M239.27,353.27l-.14.255Z" transform="translate(-13989.979 -12579.549)" fill="#0f1315"/>
    </g>
    <g id="Grupo_75719" data-name="Grupo 75719" transform="translate(21657.41 23762.807)">
      <path id="Trazado_60132" data-name="Trazado 60132" d="M137.437-315.8C130-312.525,119-295.575,119-287.249c0,11.3,1.189,12.34,61.108,50.4,30.926,19.774,60.216,38.21,64.825,41.035,14.422,8.624,25.871,6.1,34.643-7.88,8.177-12.786,8.475-22.6,1.041-30.777-1.784-1.933-31.074-21.113-64.974-42.672-53.823-34.047-62.595-39.1-68.393-39.549C143.533-316.837,139.221-316.539,137.437-315.8Z" transform="translate(-21444.828 -23268.287)"/>
      <path id="Trazado_60133" data-name="Trazado 60133" d="M105.872-224.916C88.923-198.3,74.8-175.7,74.5-174.662c-.595,1.488,112.849,74.936,119.837,77.612,1.933.744,5.353-3.568,14.719-18.437,6.691-10.7,12.935-19.477,13.679-19.477.892,0,5.5,3.42,10.259,7.583,7.285,6.244,8.475,8.028,7.285,10.258a10.844,10.844,0,0,0-1.487,4.163c0,1.488,42.077,33.157,70.624,53.377C352.832-29.1,401.3,1.674,428.956,16.245c12.489,6.541,12.935,6.691,24.681,6.1,8.326-.446,14.273-1.636,19.923-4.164l8.029-3.568L480.7,4.945c-1.19-14.124-4.907-23.491-12.043-30.479-12.34-12.192-69.583-49.66-121.77-79.545-40.739-23.342-84.9-46.685-85.492-45.049a13.36,13.36,0,0,1-2.23,3.716c-1.636,2.082-2.974,1.784-12.787-2.825-6.1-2.825-11.3-5.353-11.6-5.65s5.2-9.367,12.192-20.22,12.638-20.221,12.638-20.667c-.149-.892-117.161-75.382-120.729-76.72C137.393-273.089,127.728-259.112,105.872-224.916Z" transform="translate(-21466.496 -23246.775)"/>
      <path id="Trazado_60134" data-name="Trazado 60134" d="M56.866-191.564C50.175-186.955,41.7-172.682,41.7-165.545c0,9.813,3.866,14.571,20.221,25.127C167.038-73.363,174.918-68.6,181.906-68.6a21.792,21.792,0,0,0,11.151-2.973c6.245-4.015,15.612-20.072,15.612-26.466,0-6.245-3.42-13.678-7.88-16.8-4.014-2.825-107.2-68.393-118.35-75.232C72.477-196.173,64.3-196.62,56.866-191.564Z" transform="translate(-21482.48 -23209.035)"/>
      <path id="Trazado_60135" data-name="Trazado 60135" d="M35.832-74.324a18.8,18.8,0,0,0-9.962,19.18l.892,6.393H0V-8.607H234.916V-48.751H208.154l.892-5.8a17.97,17.97,0,0,0-10.408-19.626C192.988-76.7,187.338-77,116.715-77S40.441-76.851,35.832-74.324Z" transform="translate(-21502.773 -23151.598)"/>
    </g>
  </g>
</svg>
