<?xml version="1.0" standalone="no"?>
<!DOCTYPE svg PUBLIC "-//W3C//DTD SVG 20010904//EN"
 "http://www.w3.org/TR/2001/REC-SVG-20010904/DTD/svg10.dtd">
<svg version="1.0" xmlns="http://www.w3.org/2000/svg"
 width="826.000000pt" height="779.000000pt" viewBox="0 0 826.000000 779.000000"
 preserveAspectRatio="xMidYMid meet">

<g transform="translate(0.000000,779.000000) scale(0.100000,-0.100000)"
fill="#000000" stroke="none">
<path d="M3525 5519 c-263 -32 -489 -60 -500 -63 -44 -11 -44 -34 -4 -371 21
-176 40 -339 43 -362 l6 -43 -144 0 c-127 0 -145 -2 -160 -19 -15 -17 -24
-154 -78 -1215 -60 -1162 -61 -1196 -43 -1216 18 -20 23 -20 1490 -20 1467 0
1472 0 1490 20 18 20 17 54 -42 1216 -55 1068 -63 1198 -79 1215 -16 17 -32
19 -180 19 -146 0 -163 2 -168 18 -2 9 -30 130 -62 267 -31 138 -63 260 -70
273 -10 15 -24 22 -47 22 -17 0 -206 -45 -420 -99 -379 -97 -387 -99 -392 -78
-2 12 -16 121 -30 242 -28 243 -33 256 -94 254 -20 -1 -252 -28 -516 -60z
m480 -101 c5 -31 45 -365 45 -380 0 -3 -23 -11 -51 -18 -33 -8 -55 -20 -66
-36 -15 -24 -7 -74 44 -281 l5 -23 -396 0 c-218 0 -396 3 -396 8 -1 4 -18 153
-39 332 -21 179 -37 327 -35 329 5 6 785 98 841 100 40 1 42 -1 48 -31z m976
-508 c26 -113 48 -211 48 -218 1 -10 -94 -12 -461 -10 l-461 3 -23 100 c-13
55 -22 104 -21 109 3 10 833 226 856 223 10 -1 29 -65 62 -207z m-1250 -649
c24 -19 24 -23 29 -249 l6 -229 37 -76 c95 -192 308 -263 503 -167 75 37 126
91 168 179 l31 66 2 225 1 225 27 22 c36 31 70 29 107 -7 l30 -30 -4 -228 c-4
-197 -7 -234 -25 -282 -37 -100 -65 -144 -137 -216 -108 -107 -220 -154 -371
-154 -151 0 -263 47 -371 154 -133 133 -164 232 -164 528 l0 200 29 29 c34 34
69 37 102 10z"/>
<path d="M4456 3510 c-181 -150 -441 -153 -634 -8 -37 28 -56 38 -42 23 43
-46 139 -104 209 -125 173 -54 381 -1 505 129 41 43 31 38 -38 -19z"/>
</g>
</svg>
