<svg xmlns="http://www.w3.org/2000/svg" xmlns:xlink="http://www.w3.org/1999/xlink" width="826" height="779" viewBox="0 0 826 779">
  <defs>
    <clipPath id="clip-Web_1920_3">
      <rect width="826" height="779"/>
    </clipPath>
  </defs>
  <g id="Web_1920_3" data-name="Web 1920 – 3" clip-path="url(#clip-Web_1920_3)">
    <rect width="826" height="779" fill="#fff"/>
    <g id="Grupo_75704" data-name="Grupo 75704" transform="translate(262.709 221.006)">
      <path id="Trazado_56370" data-name="Trazado 56370" d="M252.768,1759.6a53.275,53.275,0,0,1-53.218-53.219v-33.164a7.97,7.97,0,1,1,15.939,0v33.164a37.278,37.278,0,1,0,74.557,0h0v-30.44a8.262,8.262,0,0,1-.515-2.724,8.022,8.022,0,0,1,8.022-7.971h.462a8.015,8.015,0,0,1,7.97,7.971v33.164A53.272,53.272,0,0,1,252.768,1759.6Zm-45.248-90.5a4.061,4.061,0,0,0-4.062,4.062h0v33.165a49.311,49.311,0,0,0,98.621,0v-33.165a4.111,4.111,0,0,0-4.063-4.062h-.462a4.064,4.064,0,0,0-4.114,4.012v.05a4.166,4.166,0,0,0,.308,1.593v31.622a41.135,41.135,0,1,1-82.269,0v-33.164A4.111,4.111,0,0,0,207.519,1669.107Z" transform="translate(-101.956 -1535.22)" fill="#fff"/>
    </g>
    <g id="Grupo_75707" data-name="Grupo 75707" transform="translate(149.518 256.445)">
      <path id="Trazado_1185" data-name="Trazado 1185" d="M659.265,1911.926l-1.454-264.211h.536l336.073-1.758v.457s2.372,36.359,36.813,37.582,39.646-37.73,39.646-38.266H1186.6v265.656l-115.493.383v-.531a44.457,44.457,0,0,0-4.056-18.754,36.525,36.525,0,0,0-33.908-20.129s-32.681-1-37.578,38.27v.457Z" transform="translate(-657.811 -1645.73)" stroke="#000" stroke-width="1"/>
      <g id="icono_eventos" transform="translate(80.283 27.547)">
        <path id="Trazado_1144" data-name="Trazado 1144" d="M814.643,1626.867a7.653,7.653,0,1,0-15.307,0l-.686,29.7a7.653,7.653,0,0,0,15.307,0Z" transform="translate(-515.076 -1586.065)" fill="#fff"/>
        <path id="Trazado_1145" data-name="Trazado 1145" d="M806.785,1629.871a7.662,7.662,0,0,0-7.654,7.66l-.689,29.7a7.656,7.656,0,0,0,15.307.383l.689-29.773a7.649,7.649,0,0,0-7.34-7.953Z" transform="translate(-516.473 -1515.136)" fill="#fff"/>
        <path id="Trazado_1146" data-name="Trazado 1146" d="M781.226,1638.051a5.049,5.049,0,0,0,4.9-5.047,4.978,4.978,0,0,0-5.053-4.824,4.822,4.822,0,0,0-4.82,4.824v.145a4.9,4.9,0,0,0,4.9,4.9Z" transform="translate(-664.118 -1526.381)" fill="#fff"/>
        <path id="Trazado_1147" data-name="Trazado 1147" d="M782.826,1641.633a6.816,6.816,0,0,1-6.811-6.812h0a6.364,6.364,0,0,1,1.914-4.82,6.54,6.54,0,0,1,4.822-2.07,7.164,7.164,0,0,1,4.9,1.918,6.788,6.788,0,0,1,2.066,4.824,6.963,6.963,0,0,1-6.811,6.961h-.078Zm0-9.871h0a2.777,2.777,0,0,0-2.143.914,2.527,2.527,0,0,0-.84,2.145,3.061,3.061,0,0,0,6.045.965,2.858,2.858,0,0,0,0-.965,3.06,3.06,0,0,0-.92-2.145,3.158,3.158,0,0,0-2.143-.914Z" transform="translate(-665.72 -1528.044)" fill="#fff"/>
        <path id="Trazado_1148" data-name="Trazado 1148" d="M767.062,1638.262a5.013,5.013,0,1,0-.076,0Z" transform="translate(-758.867 -1525.365)" fill="#fff"/>
        <path id="Trazado_1149" data-name="Trazado 1149" d="M768.647,1641.844a6.955,6.955,0,0,1-4.822-1.91,7.133,7.133,0,0,1-2.064-4.824,6.905,6.905,0,0,1,1.988-4.9,6.671,6.671,0,0,1,4.822-2.066h0a6.888,6.888,0,1,1,1.447,13.7,6.4,6.4,0,0,1-1.447,0Zm0-3.824h0a3.063,3.063,0,0,0,3.063-3.066h0a3.057,3.057,0,0,0-3.139-2.98h0a2.769,2.769,0,0,0-2.066.914,3,3,0,0,0-.918,2.145,3.086,3.086,0,0,0,.918,2.145A3.285,3.285,0,0,0,768.647,1638.02Z" transform="translate(-760.53 -1526.881)" fill="#fff"/>
        <path id="Trazado_1150" data-name="Trazado 1150" d="M762.751,1687.266a4.969,4.969,0,0,0,4.973,4.9l49.52-.687a4.9,4.9,0,0,0,4.824-4.977h0l-.613-49.52a4.9,4.9,0,0,0-4.975-4.82h0l-49.52.613a4.978,4.978,0,0,0-4.9,4.973Zm9.258-44.7,39.648-.461.457,39.57-39.566.535Z" transform="translate(-758.534 -1499.9)" fill="#fff"/>
        <path id="Trazado_1151" data-name="Trazado 1151" d="M769.31,1695.742a6.966,6.966,0,0,1-6.811-6.812l-.689-49.441a6.916,6.916,0,0,1,1.99-4.9,6.668,6.668,0,0,1,4.822-2.066l49.443-.613a7.665,7.665,0,0,1,4.9,1.914,6.793,6.793,0,0,1,2.064,4.824l.613,49.441a6.483,6.483,0,0,1-1.912,4.9,6.8,6.8,0,0,1-4.824,2.066l-49.441.688Zm-2.984-6.812a2.73,2.73,0,0,0,.92,2.063,3.385,3.385,0,0,0,2.143.922l49.441-.687a2.728,2.728,0,0,0,2.143-.918,2.5,2.5,0,0,0,.844-2.145l-.613-49.437a2.748,2.748,0,0,0-.918-2.145,2.219,2.219,0,0,0-2.143-.844l-49.52.613a3.135,3.135,0,0,0-2.986,3.059Zm6.047-3.141-.611-43.395,43.4-.613.611,43.4Zm3.293-39.641.457,35.742,35.742-.461-.459-35.742Z" transform="translate(-760.197 -1501.562)" fill="#fff"/>
        <path id="Trazado_1152" data-name="Trazado 1152" d="M816.258,1615.352l-49.52.613a5.053,5.053,0,0,0-4.9,5.051l.689,49.445a4.974,4.974,0,0,0,4.975,4.9l49.518-.691a4.89,4.89,0,0,0,4.9-4.895v-.078l-.687-49.445a4.9,4.9,0,0,0-4.9-4.9Zm-4.287,49.52-39.645.539-.459-39.57,39.568-.539Z" transform="translate(-759.997 -1611.75)" fill="#fff"/>
        <path id="Trazado_1153" data-name="Trazado 1153" d="M769.031,1678.938a6.961,6.961,0,0,1-6.814-6.809l-.611-49.445a6.516,6.516,0,0,1,1.912-4.9,6.84,6.84,0,0,1,4.822-2.062l49.443-.617h0a6.558,6.558,0,0,1,4.9,1.914,6.813,6.813,0,0,1,2.068,4.824l.688,49.516a6.713,6.713,0,0,1-1.99,4.824,6.335,6.335,0,0,1-4.822,2.066l-49.443.688Zm48.828-60-49.441.613a3.086,3.086,0,0,0-2.145.918,2.7,2.7,0,0,0-.844,2.145l.613,49.52a2.975,2.975,0,0,0,.92,2.141,4.065,4.065,0,0,0,2.143.844l49.52-.687a2.748,2.748,0,0,0,2.066-.918,2.791,2.791,0,0,0,.92-2.148l-.691-49.441a2.769,2.769,0,0,0-.916-2.141,3.832,3.832,0,0,0-2.145-.844Zm-45.922,50.055-.611-43.395,43.395-.535.613,43.391Zm3.291-39.648.461,35.742,35.742-.457-.459-35.742Z" transform="translate(-761.6 -1613.416)" fill="#fff"/>
        <path id="Trazado_1154" data-name="Trazado 1154" d="M838.041,1620.031a4.9,4.9,0,0,0-4.9-4.9h-.078l-49.52.617a5.046,5.046,0,0,0-4.9,5.051l.689,49.438a4.894,4.894,0,0,0,4.9,4.9h.078l49.52-.613a4.971,4.971,0,0,0,4.82-5.051Zm-9.336,44.617-39.57.539-.535-39.57,39.646-.535Z" transform="translate(-648.149 -1613.211)" fill="#fff"/>
        <path id="Trazado_1155" data-name="Trazado 1155" d="M785.9,1678.723a6.866,6.866,0,0,1-4.744-1.914,6.776,6.776,0,0,1-2.068-4.824l-.689-49.52a6.908,6.908,0,0,1,1.99-4.895,7.02,7.02,0,0,1,4.822-2.066l49.441-.617a6.474,6.474,0,0,1,4.9,1.914,6.8,6.8,0,0,1,2.066,4.824l.611,49.52a6.633,6.633,0,0,1-1.914,4.895,7.083,7.083,0,0,1-4.822,2.07l-49.439.613Zm48.83-60.008h0l-49.52.613a3.139,3.139,0,0,0-2.984,3.063l.688,49.52a2.93,2.93,0,0,0,.918,2.145,3.36,3.36,0,0,0,2.145.84l49.826-.687a3.439,3.439,0,0,0,2.143-.922,2.743,2.743,0,0,0,.842-2.219l-.611-49.441a2.793,2.793,0,0,0-.92-2.145A2.977,2.977,0,0,0,834.731,1618.715ZM788.81,1668.77l-.535-43.395,43.4-.535.611,43.395Zm3.367-39.645.457,35.816,35.744-.535-.459-35.742Z" transform="translate(-649.812 -1614.88)" fill="#fff"/>
        <path id="Trazado_1156" data-name="Trazado 1156" d="M838.875,1686.281l-.611-49.523a4.978,4.978,0,0,0-5.053-4.816l-49.443.609a5.049,5.049,0,0,0-4.9,5.055l.688,49.438a4.893,4.893,0,0,0,4.9,4.9h.076l49.52-.687a4.812,4.812,0,0,0,4.82-4.812Zm-9.949-4.824-39.57.535-.535-39.57,39.57-.535Z" transform="translate(-646.686 -1501.365)" fill="#fff"/>
        <path id="Trazado_1157" data-name="Trazado 1157" d="M786.121,1695.535a6.524,6.524,0,0,1-4.744-1.988,6.357,6.357,0,0,1-2.066-4.828l-.689-49.437a6.925,6.925,0,0,1,1.99-4.9,6.682,6.682,0,0,1,4.822-2.062l49.441-.617a6.284,6.284,0,0,1,4.9,1.918,6.786,6.786,0,0,1,2.066,4.82l.613,49.52a6.357,6.357,0,0,1-1.914,4.82,6.463,6.463,0,0,1-4.82,2.066l-49.52.691Zm48.832-60.008h0l-49.52.613a3.01,3.01,0,0,0-2.145.918,3.343,3.343,0,0,0-.842,2.145l.691,49.516a2.982,2.982,0,0,0,.916,2.145,3.322,3.322,0,0,0,2.145.844l49.441-.687a2.732,2.732,0,0,0,2.145-.918,2.99,2.99,0,0,0,.842-2.145l-.611-49.441a2.734,2.734,0,0,0-.92-2.141A3.126,3.126,0,0,0,834.953,1635.527Zm-45.924,50.055-.533-43.395,43.395-.613.537,43.477Zm3.367-39.645.461,35.742,35.742-.457-.459-35.746Z" transform="translate(-648.35 -1503.038)" fill="#fff"/>
        <path id="Trazado_1158" data-name="Trazado 1158" d="M779.454,1634.77h-9.873a5.052,5.052,0,0,0-4.9,5.051v9.871a4.975,4.975,0,0,0,4.975,4.9h9.951a4.976,4.976,0,0,0,4.9-4.98v-9.945A5.054,5.054,0,0,0,779.454,1634.77Z" transform="translate(-741.102 -1482.531)" fill="#fff"/>
        <path id="Trazado_1159" data-name="Trazado 1159" d="M771.34,1658.191a6.971,6.971,0,0,1-6.891-6.812V1641.5a6.9,6.9,0,0,1,1.992-4.9,6.668,6.668,0,0,1,4.822-2.066h9.873a7.672,7.672,0,0,1,4.9,1.992,6.8,6.8,0,0,1,2.064,4.82v9.875a6.923,6.923,0,0,1-6.811,6.965H771.34Zm9.721-19.98h-9.951a3.142,3.142,0,0,0-2.984,3.063v9.953a3.128,3.128,0,0,0,3.061,2.98h9.875a2.684,2.684,0,0,0,2.141-.918,2.882,2.882,0,0,0,.92-2.141v-9.875a3.06,3.06,0,0,0-.92-2.141A2.622,2.622,0,0,0,781.061,1638.211Z" transform="translate(-742.631 -1484.062)" fill="#fff"/>
        <path id="Trazado_1160" data-name="Trazado 1160" d="M769.531,1637.734h9.875a4.97,4.97,0,0,0,4.9-4.973v-9.949a4.895,4.895,0,0,0-4.977-4.82h-9.949a5.047,5.047,0,0,0-4.9,5.051v9.871A5.046,5.046,0,0,0,769.531,1637.734Z" transform="translate(-742.433 -1594.183)" fill="#fff"/>
        <path id="Trazado_1161" data-name="Trazado 1161" d="M771.118,1641.383a6.958,6.958,0,0,1-6.887-6.809V1624.7a7.022,7.022,0,0,1,1.99-4.9,7.128,7.128,0,0,1,4.82-2.066h9.873a6.689,6.689,0,0,1,4.9,1.91,6.8,6.8,0,0,1,2.064,4.828v9.867a6.883,6.883,0,0,1-1.99,4.9,6.633,6.633,0,0,1-4.82,2.066H771.2Zm9.721-19.9h-9.871a3.081,3.081,0,0,0-2.145.922,2.988,2.988,0,0,0-.918,2.141v9.949a2.981,2.981,0,0,0,2.984,2.988h10.025a3.15,3.15,0,0,0,2.986-3.066v-9.871a2.746,2.746,0,0,0-.918-2.141A3.018,3.018,0,0,0,780.839,1621.484Z" transform="translate(-744.097 -1595.916)" fill="#fff"/>
        <path id="Trazado_1162" data-name="Trazado 1162" d="M786.158,1637.516h9.949a4.971,4.971,0,0,0,4.9-4.973v-9.875a4.97,4.97,0,0,0-5.051-4.895h-9.8a5.049,5.049,0,0,0-4.9,5.047v9.875A4.89,4.89,0,0,0,786.158,1637.516Z" transform="translate(-630.782 -1595.648)" fill="#fff"/>
        <path id="Trazado_1163" data-name="Trazado 1163" d="M787.889,1641.121a6.888,6.888,0,0,1-6.889-6.73v-9.953a6.746,6.746,0,0,1,1.99-4.82,6.362,6.362,0,0,1,4.822-2.066h9.873a6.89,6.89,0,0,1,6.887,6.73v9.953a6.719,6.719,0,0,1-1.988,4.82,6.8,6.8,0,0,1-4.822,2.066Zm9.721-19.9h-9.951a3,3,0,0,0-2.064.84,3.084,3.084,0,0,0-.92,2.219v9.875a3.132,3.132,0,0,0,3.063,2.984h9.873a3.131,3.131,0,0,0,3.061-3.062v-9.871a3,3,0,0,0-2.74-3.215h-.014Z" transform="translate(-632.512 -1597.109)" fill="#fff"/>
        <path id="Trazado_1164" data-name="Trazado 1164" d="M786.551,1654.328H796.5a4.9,4.9,0,0,0,4.822-4.973h0V1639.4a4.978,4.978,0,0,0-5.053-4.82H786.4a5.048,5.048,0,0,0-4.9,5.051v9.871A4.973,4.973,0,0,0,786.551,1654.328Z" transform="translate(-629.185 -1483.801)" fill="#fff"/>
        <path id="Trazado_1165" data-name="Trazado 1165" d="M788.072,1657.969a6.883,6.883,0,0,1-6.812-6.812v-9.875a6.885,6.885,0,0,1,6.813-6.961h9.949a6.891,6.891,0,0,1,6.889,6.734v9.871a6.513,6.513,0,0,1-1.914,4.9,6.807,6.807,0,0,1-4.822,2.066H788.3Zm9.8-19.9h-9.951a3.4,3.4,0,0,0-2.143.922,3.3,3.3,0,0,0-.842,2.145v9.945a3.058,3.058,0,0,0,2.984,2.988h9.873a2.726,2.726,0,0,0,2.143-.922,2.938,2.938,0,0,0,.842-2.141v-9.871A3.07,3.07,0,0,0,797.869,1638.066Z" transform="translate(-630.783 -1485.527)" fill="#fff"/>
        <path id="Trazado_1166" data-name="Trazado 1166" d="M764.6,1634.035a4.973,4.973,0,0,0,4.975,4.9l64.367-.84v24.723a4.974,4.974,0,1,0,9.873,1.227,4.774,4.774,0,0,0,0-1.227l-.383-29.7a4.9,4.9,0,0,0-4.9-4.9h-.078l-68.883.922a4.821,4.821,0,0,0-4.975,4.668Z" transform="translate(-741.634 -1526.112)" fill="#fff"/>
        <path id="Trazado_1167" data-name="Trazado 1167" d="M840.62,1671.43a6.955,6.955,0,0,1-4.822-1.914,6.773,6.773,0,0,1-2.064-4.824V1641.73l-62.379.844a6.813,6.813,0,0,1-6.965-6.656v-.156h0a6.819,6.819,0,0,1,6.734-6.891h0l68.883-.918a6.813,6.813,0,0,1,6.965,6.66v.078l.385,29.7a6.514,6.514,0,0,1-1.916,4.9,6.8,6.8,0,0,1-4.82,2.07Zm-3.441-33.449v26.633a2.887,2.887,0,0,0,.916,2.145,3.739,3.739,0,0,0,2.145.84,2.7,2.7,0,0,0,2.141-.914,2.988,2.988,0,0,0,.842-2.145l-.381-29.7a3.129,3.129,0,0,0-3.062-2.984l-68.883.914a2.994,2.994,0,0,0-2.986,2.988v.078h0a2.981,2.981,0,0,0,.918,2.141,3.141,3.141,0,0,0,2.145.844Z" transform="translate(-743.03 -1527.915)" fill="#fff"/>
        <path id="Trazado_1168" data-name="Trazado 1168" d="M816.541,1635.563a4.9,4.9,0,0,0,4.9-4.9v-.074a5.058,5.058,0,0,0-5.053-4.9l-49.441.613a4.975,4.975,0,1,0,0,9.949h0Z" transform="translate(-759.133 -1542.952)" fill="#fff"/>
        <path id="Trazado_1169" data-name="Trazado 1169" d="M768.618,1639.832a6.89,6.89,0,0,1-.152-13.777l49.52-.613a6.749,6.749,0,0,1,6.965,6.508v.309a6.8,6.8,0,0,1-1.99,4.816,6.614,6.614,0,0,1-4.822,2.07l-49.441.688Zm49.443-10.562h0l-49.52.613a3.138,3.138,0,0,0-2.984,3.137,2.97,2.97,0,0,0,.92,2.145,3.477,3.477,0,0,0,2.141.84l49.52-.687a3.146,3.146,0,0,0,2.986-3.059,3.065,3.065,0,0,0-3.062-2.988Z" transform="translate(-760.73 -1544.613)" fill="#fff"/>
        <path id="Trazado_1170" data-name="Trazado 1170" d="M775.405,1635.6h19.824a4.975,4.975,0,1,0,0-9.949H775.483a4.973,4.973,0,0,0,0,9.871Z" transform="translate(-698.251 -1543.213)" fill="#fff"/>
        <path id="Trazado_1171" data-name="Trazado 1171" d="M777.668,1639.113a6.807,6.807,0,0,1-6.887-6.734v-.074a6.811,6.811,0,0,1,6.732-6.891h19.824a6.431,6.431,0,0,1,4.9,1.992,6.662,6.662,0,0,1,2.068,4.82,6.885,6.885,0,0,1-6.812,6.965H777.744Zm19.746-10.18H777.59a3.057,3.057,0,0,0-2.937,3.18,3,3,0,0,0,.873,2.023,4.389,4.389,0,0,0,2.143.844H797.49a3.133,3.133,0,0,0,2.984-3.137,3.06,3.06,0,0,0-.918-2.066,2.932,2.932,0,0,0-2.143-.844Z" transform="translate(-700.515 -1544.816)" fill="#fff"/>
        <path id="Trazado_1172" data-name="Trazado 1172" d="M775.725,1615.309a4.982,4.982,0,0,0-4.824,5.051l.613,49.445a4.893,4.893,0,0,0,4.9,4.9h.074l34.67-.461v24.723a4.98,4.98,0,0,0,5.053,4.9h19.746a4.971,4.971,0,0,0,4.9-5.051h0a4.9,4.9,0,0,0-4.975-4.824H821.033l-.385-24.719a4.9,4.9,0,0,0-4.9-4.9h-.078l-34.67.461-.535-44.543A5.061,5.061,0,0,0,775.725,1615.309Z" transform="translate(-699.715 -1612.011)" fill="#fff"/>
        <path id="Trazado_1173" data-name="Trazado 1173" d="M817.819,1707.906a6.889,6.889,0,0,1-6.889-6.734v-22.961h-32.68a6.893,6.893,0,0,1-6.889-6.738l-.611-49.516a6.885,6.885,0,0,1,6.732-6.965h0a6.962,6.962,0,0,1,6.891,6.809l.535,42.633,32.758-.457a6.734,6.734,0,0,1,6.889,6.578v23.2h12.934a6.653,6.653,0,0,1,6.959,6.344c.006.125.006.262.006.387a6.806,6.806,0,0,1-6.658,6.965H817.9Zm-3.365-33.445V1701.1a2.907,2.907,0,0,0,2.824,2.988,2.33,2.33,0,0,0,.236-.008h19.822a2.982,2.982,0,0,0,2.984-2.98v-.078a2.9,2.9,0,0,0-2.824-2.988c-.074-.008-.16,0-.236,0H820.5l-.383-26.633a3.131,3.131,0,0,0-3.062-2.984l-36.508.461-.611-46.387a3.062,3.062,0,0,0-3.062-3.059h0a3.066,3.066,0,0,0-2.984,3.059l.611,49.52a3.131,3.131,0,0,0,3.063,2.984Z" transform="translate(-700.714 -1614.145)" fill="#fff"/>
        <path id="Trazado_1174" data-name="Trazado 1174" d="M815.975,1625.473l-29.7.383a4.975,4.975,0,1,0,.152,9.949h29.7a5.174,5.174,0,0,0,.086-10.328Z" transform="translate(-629.986 -1544.417)" fill="#fff"/>
        <path id="Trazado_1175" data-name="Trazado 1175" d="M788.008,1639.379a6.7,6.7,0,0,1-4.824-1.988,7.113,7.113,0,0,1-2.062-4.82,6.961,6.961,0,0,1,6.809-6.965l29.7-.383a6.887,6.887,0,1,1,0,13.773h-29.7Zm29.617-10.328-29.7.379a3.144,3.144,0,0,0-2.984,3.063,3.055,3.055,0,0,0,.92,2.145,4.354,4.354,0,0,0,2.143.918h29.7a3.063,3.063,0,1,0-.078-6.125Z" transform="translate(-631.715 -1546.079)" fill="#fff"/>
        <path id="Trazado_1176" data-name="Trazado 1176" d="M833.141,1628.094l-49.443.609a5.049,5.049,0,0,0-4.9,5.055,4.971,4.971,0,0,0,5.049,4.82l49.443-.613a4.974,4.974,0,0,0,1.234-9.871,5.02,5.02,0,0,0-1.234,0Z" transform="translate(-647.153 -1527.21)" fill="#fff"/>
        <path id="Trazado_1177" data-name="Trazado 1177" d="M785.458,1642.2a6.889,6.889,0,0,1,0-13.777l49.445-.609a7.652,7.652,0,0,1,4.9,1.91,6.808,6.808,0,0,1,2.066,4.82,6.883,6.883,0,0,1-6.812,6.965h0l-49.441.691Zm49.445-10.562-49.52.617a3.371,3.371,0,0,0-2.145.914,3.323,3.323,0,0,0-.842,2.141,2.974,2.974,0,0,0,2.908,3.063h.152l49.52-.687a2.985,2.985,0,0,0,2.986-2.984v-.078a3.076,3.076,0,0,0-.92-2.145A2.766,2.766,0,0,0,834.9,1631.637Z" transform="translate(-648.682 -1528.847)" fill="#fff"/>
        <path id="Trazado_1178" data-name="Trazado 1178" d="M795.829,1634.629H776.083a4.9,4.9,0,0,0-4.9,4.9V1669.3a4.975,4.975,0,1,0,9.873,1.234,4.835,4.835,0,0,0,0-1.234v-24.719h14.848a4.977,4.977,0,0,0,0-9.953Z" transform="translate(-698.087 -1483.464)" fill="#fff"/>
        <path id="Trazado_1179" data-name="Trazado 1179" d="M777.769,1677.859a6.969,6.969,0,0,1-6.812-6.816v-29.617a6.518,6.518,0,0,1,1.914-4.9,6.848,6.848,0,0,1,4.82-2.066h19.822a7.044,7.044,0,0,1,6.967,6.809,6.958,6.958,0,0,1-6.812,6.965H784.733V1671.2a7.126,7.126,0,0,1-1.914,4.9,6.792,6.792,0,0,1-4.822,2.066Zm19.363-39.875H777.384a2.773,2.773,0,0,0-2.141.914,2.98,2.98,0,0,0-.842,2.145v29.7a2.982,2.982,0,0,0,.916,2.145,3.5,3.5,0,0,0,2.143.84,3.164,3.164,0,0,0,2.145-.918,3.283,3.283,0,0,0,.842-2.145v-26.633h16.686a3.061,3.061,0,1,0,0-6.121Z" transform="translate(-699.387 -1484.598)" fill="#fff"/>
        <path id="Trazado_1180" data-name="Trazado 1180" d="M793.526,1690.7H778.679a4.973,4.973,0,1,0,.152,9.945h19.746a4.9,4.9,0,0,0,4.9-4.9v-.074l-.766-59.391a4.975,4.975,0,0,0-9.873-1.234,4.835,4.835,0,0,0,0,1.234Z" transform="translate(-680.551 -1509.684)" fill="#fff"/>
        <path id="Trazado_1181" data-name="Trazado 1181" d="M780.419,1704.34a6.959,6.959,0,0,1-6.889-6.809,6.926,6.926,0,0,1,6.811-6.965h12.936l-.689-52.5a6.889,6.889,0,0,1,13.7-1.457,6.729,6.729,0,0,1,0,1.457l.764,59.313a6.806,6.806,0,0,1-6.658,6.965H780.419Zm18.98-69.57h0a2.989,2.989,0,0,0-2.984,2.984v.078l.688,56.332H780.419a3.061,3.061,0,0,0-2.1,5.25,3.01,3.01,0,0,0,2.176.867h19.744a2.981,2.981,0,0,0,2.984-2.98v-.078l-.764-59.391a3.061,3.061,0,0,0-3.062-3.062h0Z" transform="translate(-682.216 -1511.314)" fill="#fff"/>
        <path id="Trazado_1182" data-name="Trazado 1182" d="M798.861,1654.414a4.966,4.966,0,0,0,4.9-5.051h0v-29.7a4.974,4.974,0,0,0-9.871,0v24.723H779.039a4.974,4.974,0,0,0-1.234,9.871,4.664,4.664,0,0,0,1.234,0Z" transform="translate(-682.748 -1612.009)" fill="#fff"/>
        <path id="Trazado_1183" data-name="Trazado 1183" d="M780.8,1658.559a6.888,6.888,0,1,1-1.445-13.7,7.445,7.445,0,0,1,1.445,0h12.936V1621.9a6.811,6.811,0,0,1,6.734-6.887h0a6.89,6.89,0,0,1,6.889,6.73v29.7a7.126,7.126,0,0,1-1.914,4.9,6.786,6.786,0,0,1-4.82,2.063H780.8Zm19.363-39.8h0a2.989,2.989,0,0,0-2.984,2.984v26.711H780.418a2.988,2.988,0,0,0-2.984,2.984v.078a3.134,3.134,0,0,0,3.063,2.984h19.82a3.178,3.178,0,0,0,2.145-.914,3.3,3.3,0,0,0,.842-2.148v-29.7a2.981,2.981,0,0,0-2.977-2.984Z" transform="translate(-684.51 -1614.011)" fill="#fff"/>
      </g>
    </g>
  </g>
</svg>
