<svg xmlns="http://www.w3.org/2000/svg" xmlns:xlink="http://www.w3.org/1999/xlink" width="826" height="779" viewBox="0 0 826 779">
  <defs>
    <clipPath id="clip-Web_1920_16">
      <rect width="826" height="779"/>
    </clipPath>
  </defs>
  <g id="Web_1920_16" data-name="Web 1920 – 16" clip-path="url(#clip-Web_1920_16)">
    <rect width="826" height="779" fill="#fff"/>
    <g id="Grupo_75745" data-name="Grupo 75745" transform="translate(169.196 206.707)">
      <path id="Trazado_56624" data-name="Trazado 56624" d="M478.03,3H71.2A10.165,10.165,0,0,0,61.025,13.171V64.025H10.171A10.165,10.165,0,0,0,0,74.2V328.467A40.73,40.73,0,0,0,40.683,369.15H447.517A40.73,40.73,0,0,0,488.2,328.467V13.171A10.165,10.165,0,0,0,478.03,3Z" transform="translate(0 -3)" fill="#02080a"/>
      <path id="Trazado_56625" data-name="Trazado 56625" d="M41.683,251.1A20.342,20.342,0,1,1,1,251.1V7H41.683Z" transform="translate(19.342 74.367)" fill="#f8f8fc"/>
      <path id="Trazado_56627" data-name="Trazado 56627" d="M395.686,309.125a20.362,20.362,0,0,1-20.342,20.342H3.731a40.4,40.4,0,0,0,5.463-20.342V4H395.686Z" transform="translate(72.173 16.342)" fill="#fcfcff"/>
      <path id="Trazado_56628" data-name="Trazado 56628" d="M15.171,107.708A10.165,10.165,0,0,0,25.342,97.538v-71.2H35.513A10.184,10.184,0,0,1,45.683,36.513V97.538a10.171,10.171,0,1,0,20.342,0V36.513A30.546,30.546,0,0,0,35.513,6H15.171A10.165,10.165,0,0,0,5,16.171V97.538A10.165,10.165,0,0,0,15.171,107.708Z" transform="translate(96.708 55.025)" fill="#02080a"/>
      <path id="Trazado_56629" data-name="Trazado 56629" d="M19.171,107.708H59.854a10.171,10.171,0,0,0,0-20.342H29.342V67.025H49.683a10.171,10.171,0,0,0,0-20.342H29.342V26.342H59.854A10.171,10.171,0,0,0,59.854,6H19.171A10.165,10.165,0,0,0,9,16.171V97.538A10.165,10.165,0,0,0,19.171,107.708Z" transform="translate(174.075 55.025)" fill="#02080a"/>
      <path id="Trazado_56630" data-name="Trazado 56630" d="M35.05,103.178a10.169,10.169,0,0,0,16.925,0L63.854,85.36l11.879,17.819a10.17,10.17,0,0,0,16.925,0L113,72.667a10.182,10.182,0,0,0,1.708-5.642V16.171a10.171,10.171,0,1,0-20.342,0V63.946L84.2,79.2,74.025,63.946V16.171a10.171,10.171,0,1,0-20.342,0V63.946L43.513,79.2,33.342,63.946V16.171a10.171,10.171,0,1,0-20.342,0V67.025a10.181,10.181,0,0,0,1.708,5.642Z" transform="translate(251.442 55.025)" fill="#02080a"/>
      <path id="Trazado_56631" data-name="Trazado 56631" d="M49.513,87.367H29.171a10.171,10.171,0,1,0,0,20.342H49.513a30.513,30.513,0,1,0,0-61.025,10.171,10.171,0,0,1,0-20.342H69.854A10.171,10.171,0,1,0,69.854,6H49.513a30.513,30.513,0,1,0,0,61.025,10.171,10.171,0,0,1,0,20.342Z" transform="translate(367.492 55.025)" fill="#02080a"/>
      <path id="Trazado_56632" data-name="Trazado 56632" d="M15.171,134.05H157.563a10.165,10.165,0,0,0,10.171-10.171V22.171A10.165,10.165,0,0,0,157.563,12H15.171A10.165,10.165,0,0,0,5,22.171V123.879A10.165,10.165,0,0,0,15.171,134.05Z" transform="translate(96.708 171.075)" fill="#02080a"/>
      <path id="Trazado_56633" data-name="Trazado 56633" d="M166.563,13H24.171a10.171,10.171,0,0,0,0,20.342H166.563a10.171,10.171,0,1,0,0-20.342Z" transform="translate(270.784 190.417)" fill="#02080a"/>
      <path id="Trazado_56634" data-name="Trazado 56634" d="M166.563,15H24.171a10.171,10.171,0,0,0,0,20.342H166.563a10.171,10.171,0,1,0,0-20.342Z" transform="translate(270.784 229.1)" fill="#02080a"/>
      <path id="Trazado_56635" data-name="Trazado 56635" d="M166.563,17H24.171a10.171,10.171,0,0,0,0,20.342H166.563a10.171,10.171,0,1,0,0-20.342Z" transform="translate(270.784 267.784)" fill="#02080a"/>
    </g>
  </g>
</svg>
