<svg version="1.2" xmlns="http://www.w3.org/2000/svg" xmlns:xlink="http://www.w3.org/1999/xlink" overflow="visible" preserveAspectRatio="none" viewBox="0 0 3.66666 14.66665" width="3.66666" height="14.66665"><g transform="translate(0, 0)"><g transform="translate(0, -0.000010000000000065512) rotate(0)"><path d="M1.83333,3.66667c1.00833,0 1.83333,-0.825 1.83333,-1.83333c0,-1.00833 -0.825,-1.83333 -1.83333,-1.83333c-1.00833,0 -1.83333,0.825 -1.83333,1.83333c0,1.00833 0.825,1.83333 1.83333,1.83333zM1.83333,5.5c-1.00833,0 -1.83333,0.825 -1.83333,1.83333c0,1.00833 0.825,1.83333 1.83333,1.83333c1.00833,0 1.83333,-0.825 1.83333,-1.83333c0,-1.00833 -0.825,-1.83333 -1.83333,-1.83333zM1.83333,11c-1.00833,0 -1.83333,0.825 -1.83333,1.83333c0,1.00833 0.825,1.83333 1.83333,1.83333c1.00833,0 1.83333,-0.825 1.83333,-1.83333c0,-1.00833 -0.825,-1.83333 -1.83333,-1.83333z" style="stroke-width: 0; stroke-linecap: butt; stroke-linejoin: miter; fill: rgb(18, 18, 18);" vector-effect="non-scaling-stroke"/></g><defs><path id="path-170266402227993546" d="M1.83333,3.66667c1.00833,0 1.83333,-0.825 1.83333,-1.83333c0,-1.00833 -0.825,-1.83333 -1.83333,-1.83333c-1.00833,0 -1.83333,0.825 -1.83333,1.83333c0,1.00833 0.825,1.83333 1.83333,1.83333zM1.83333,5.5c-1.00833,0 -1.83333,0.825 -1.83333,1.83333c0,1.00833 0.825,1.83333 1.83333,1.83333c1.00833,0 1.83333,-0.825 1.83333,-1.83333c0,-1.00833 -0.825,-1.83333 -1.83333,-1.83333zM1.83333,11c-1.00833,0 -1.83333,0.825 -1.83333,1.83333c0,1.00833 0.825,1.83333 1.83333,1.83333c1.00833,0 1.83333,-0.825 1.83333,-1.83333c0,-1.00833 -0.825,-1.83333 -1.83333,-1.83333z" vector-effect="non-scaling-stroke"/></defs></g></svg>