<svg xmlns="http://www.w3.org/2000/svg" xmlns:xlink="http://www.w3.org/1999/xlink" width="826" height="779" viewBox="0 0 826 779">
  <defs>
    <clipPath id="clip-Web_1920_34">
      <rect width="826" height="779"/>
    </clipPath>
  </defs>
  <g id="Web_1920_34" data-name="Web 1920 – 34" clip-path="url(#clip-Web_1920_34)">
    <rect width="826" height="779" fill="#fff"/>
    <g id="Grupo_75909" data-name="Grupo 75909" transform="translate(13014.5 22170)">
      <g id="Grupo_75812" data-name="Grupo 75812" transform="translate(0 -18.041)">
        <g id="Grupo_75809" data-name="Grupo 75809" transform="translate(1026 0.001)">
          <g id="Grupo_75811" data-name="Grupo 75811" transform="translate(-7774.903 196.129)">
            <g id="Grupo_63971" data-name="Grupo 63971" transform="translate(-6069.864 -22147.949)">
              <path id="Trazado_58736" data-name="Trazado 58736" d="M1315.8,368.22h-33.654a87.12,87.12,0,0,1,5.426,30.033V525.346a37.825,37.825,0,0,1-2.22,12.514h55.618a37.546,37.546,0,0,0,37.54-37.545V430.652A62.842,62.842,0,0,0,1315.8,368.22Z" transform="translate(-943.978 -169.239)" fill="#101517"/>
              <path id="Trazado_58737" data-name="Trazado 58737" d="M1348.9,398.253a90.434,90.434,0,0,1,5.284-30.033h-33.507a62.983,62.983,0,0,0-62.851,62.71v69.526a37.675,37.675,0,0,0,37.685,37.681h55.615a37.787,37.787,0,0,1-2.226-12.514Z" transform="translate(-1257.828 -169.239)" fill="#101517"/>
              <path id="Trazado_58738" data-name="Trazado 58738" d="M135.86.091,59.217,4.346A62.856,62.856,0,0,0,.091,70.45l7.051,126.9a12.507,12.507,0,0,0,13.2,11.791h0l176.87-9.831a12.518,12.518,0,0,0,11.805-13.182h0l-7.065-126.9A62.834,62.834,0,0,0,135.86.091Z" transform="translate(119.796 158.911) rotate(3)" fill="#101517"/>
              <path id="Trazado_58739" data-name="Trazado 58739" d="M1343.659,353.91a75.5,75.5,0,1,0,75.366,75.643v-.14A75.628,75.628,0,0,0,1343.659,353.91Z" transform="translate(-1126.329 -353.91)" fill="#101517"/>
              <path id="Trazado_58740" data-name="Trazado 58740" d="M1313.718,359a56.454,56.454,0,0,0,0,112.769,53.959,53.959,0,0,0,22.244-4.588,56.289,56.289,0,0,0,34.487-51.728A56.457,56.457,0,0,0,1314,359Z" transform="translate(-1228.894 -288.225)" fill="#101517"/>
              <path id="Trazado_58741" data-name="Trazado 58741" d="M1335.421,359.067a56.316,56.316,0,0,0-22.112,108.181,53.815,53.815,0,0,0,22.112,4.588,56.454,56.454,0,1,0,5.6-112.77A53.836,53.836,0,0,0,1335.421,359.067Z" transform="translate(-985.424 -288.291)" fill="#101517"/>
            </g>
          </g>
        </g>
        <path id="Trazado_60730" data-name="Trazado 60730" d="M198.268,136.121a20.118,20.118,0,0,1,6.31,6.123,16.713,16.713,0,0,1,2.428,9.337,16.95,16.95,0,0,1-2.153,8.631,15.862,15.862,0,0,1-6.074,5.955,23.337,23.337,0,0,1-9.123,2.754v8.7h-6.788v-8.7a26.825,26.825,0,0,1-9.8-2.877,17.881,17.881,0,0,1-7.141-6.863,21.829,21.829,0,0,1-2.705-11.36h15.3q0,4.946,2.175,7.141a7.575,7.575,0,0,0,5.625,2.2,5,5,0,0,0,4.028-1.578,5.838,5.838,0,0,0,1.345-3.921,8.92,8.92,0,0,0-.646-3.666,5.914,5.914,0,0,0-2.024-2.386,23.583,23.583,0,0,0-4.028-2.134,96.772,96.772,0,0,1-10.955-5.37,18.864,18.864,0,0,1-6.2-5.945,16.956,16.956,0,0,1-2.363-9.375,16.388,16.388,0,0,1,2.279-8.609,16.738,16.738,0,0,1,6.413-6.074,23.789,23.789,0,0,1,9.549-2.748V96.5H190.5v9.052a21.573,21.573,0,0,1,8.916,3.33,17.326,17.326,0,0,1,5.926,6.789,21.36,21.36,0,0,1,2.088,9.653h-15.3q0-8.14-6.009-8.14a4.8,4.8,0,0,0-4.006,1.662,6.365,6.365,0,0,0-1.322,4.093,6.821,6.821,0,0,0,.6,2.984,6.617,6.617,0,0,0,2.024,2.324,23.056,23.056,0,0,0,4.07,2.321A100.055,100.055,0,0,1,198.268,136.121Z" transform="translate(-12661.406 -21815.082)" fill="#f8f8fc"/>
        <path id="Trazado_60731" data-name="Trazado 60731" d="M198.268,136.121a20.118,20.118,0,0,1,6.31,6.123,16.713,16.713,0,0,1,2.428,9.337,16.95,16.95,0,0,1-2.153,8.631,15.862,15.862,0,0,1-6.074,5.955,23.337,23.337,0,0,1-9.123,2.754v8.7h-6.788v-8.7a26.825,26.825,0,0,1-9.8-2.877,17.881,17.881,0,0,1-7.141-6.863,21.829,21.829,0,0,1-2.705-11.36h15.3q0,4.946,2.175,7.141a7.575,7.575,0,0,0,5.625,2.2,5,5,0,0,0,4.028-1.578,5.838,5.838,0,0,0,1.345-3.921,8.92,8.92,0,0,0-.646-3.666,5.914,5.914,0,0,0-2.024-2.386,23.583,23.583,0,0,0-4.028-2.134,96.772,96.772,0,0,1-10.955-5.37,18.864,18.864,0,0,1-6.2-5.945,16.956,16.956,0,0,1-2.363-9.375,16.388,16.388,0,0,1,2.279-8.609,16.738,16.738,0,0,1,6.413-6.074,23.789,23.789,0,0,1,9.549-2.748V96.5H190.5v9.052a21.573,21.573,0,0,1,8.916,3.33,17.326,17.326,0,0,1,5.926,6.789,21.36,21.36,0,0,1,2.088,9.653h-15.3q0-8.14-6.009-8.14a4.8,4.8,0,0,0-4.006,1.662,6.365,6.365,0,0,0-1.322,4.093,6.821,6.821,0,0,0,.6,2.984,6.617,6.617,0,0,0,2.024,2.324,23.056,23.056,0,0,0,4.07,2.321A100.055,100.055,0,0,1,198.268,136.121Z" transform="translate(-12917.248 -21815.082)" fill="#f8f8fc"/>
        <path id="Icon_awesome-file-invoice-dollar" data-name="Icon awesome-file-invoice-dollar" d="M87.439,24.354,64.732,1.624A5.562,5.562,0,0,0,60.79,0H59.375V29.689H89.062V28.274A5.549,5.549,0,0,0,87.439,24.354Zm-35.486,7.19V0H5.566A5.553,5.553,0,0,0,0,5.567V113.189a5.553,5.553,0,0,0,5.566,5.567H83.5a5.553,5.553,0,0,0,5.566-5.567V37.111H57.519A5.583,5.583,0,0,1,51.953,31.544ZM14.844,16.7A1.855,1.855,0,0,1,16.7,14.844H35.254A1.855,1.855,0,0,1,37.109,16.7v3.711a1.855,1.855,0,0,1-1.855,1.856H16.7a1.855,1.855,0,0,1-1.855-1.856Zm0,18.556V31.544A1.855,1.855,0,0,1,16.7,29.689H35.254a1.855,1.855,0,0,1,1.855,1.856v3.711a1.855,1.855,0,0,1-1.855,1.856H16.7A1.855,1.855,0,0,1,14.844,35.256Zm33.4,61.206v5.595a1.855,1.855,0,0,1-1.855,1.856H42.676a1.855,1.855,0,0,1-1.855-1.856V96.422a13.28,13.28,0,0,1-7.276-2.633,1.858,1.858,0,0,1-.132-2.816l2.725-2.6a1.9,1.9,0,0,1,2.349-.169,5.583,5.583,0,0,0,2.973.863h6.52a2.916,2.916,0,0,0,2.737-3.059,3.028,3.028,0,0,0-2.034-2.953L38.246,79.923a10.5,10.5,0,0,1-7.324-10.064,10.329,10.329,0,0,1,9.9-10.454V53.811a1.855,1.855,0,0,1,1.855-1.856h3.711a1.855,1.855,0,0,1,1.855,1.856v5.634a13.262,13.262,0,0,1,7.276,2.633,1.858,1.858,0,0,1,.132,2.816l-2.725,2.6a1.9,1.9,0,0,1-2.349.169A5.563,5.563,0,0,0,47.6,66.8H41.08a2.916,2.916,0,0,0-2.737,3.059,3.028,3.028,0,0,0,2.034,2.953l10.437,3.131a10.5,10.5,0,0,1,7.324,10.064A10.327,10.327,0,0,1,48.242,96.461Z" transform="translate(-12639.737 -21739.17)" fill="#f8f8fc"/>
      </g>
    </g>
  </g>
</svg>
