<svg xmlns="http://www.w3.org/2000/svg" xmlns:xlink="http://www.w3.org/1999/xlink" width="251.289" height="69.698" viewBox="0 0 251.289 69.698">
  <defs>
    <linearGradient id="linear-gradient" x1="0.207" y1="-1.576" x2="0.212" y2="1.175" gradientUnits="objectBoundingBox">
      <stop offset="0" stop-color="#afafaf"/>
      <stop offset="1"/>
    </linearGradient>
    <filter id="Uni贸n_24" x="0" y="0" width="251.289" height="69.698" filterUnits="userSpaceOnUse">
      <feOffset dx="3" dy="3" input="SourceAlpha"/>
      <feGaussianBlur stdDeviation="6" result="blur"/>
      <feFlood flood-opacity="0.161"/>
      <feComposite operator="in" in2="blur"/>
      <feComposite in="SourceGraphic"/>
    </filter>
  </defs>
  <g id="Grupo_8343" data-name="Grupo 8343" transform="translate(9.998 15)">
    <path id="Trazado_1882" data-name="Trazado 1882" d="M392.779-55.131l-2.747-3.506a3.523,3.523,0,0,0-2.881-1.349,3.523,3.523,0,0,0-2.793,1.522l-2.3,3.333Z" transform="translate(-167.486 59.995)" fill-rule="evenodd"/>
    <path id="Trazado_1881" data-name="Trazado 1881" d="M0-55.131l2.747-3.506a3.523,3.523,0,0,1,2.881-1.349A3.523,3.523,0,0,1,8.42-58.464l2.3,3.333Z" transform="translate(0 59.995)" fill-rule="evenodd"/>
    <g transform="matrix(1, 0, 0, 1, -10, -15)" filter="url(#Uni贸n_24)">
      <path id="Uni贸n_24-2" data-name="Uni贸n 24" d="M67.454,33.7H32.114a13.478,13.478,0,0,1-11.1-5.83L2.848,1.511A3.522,3.522,0,0,0,.068.009L0,.007v0H1.81l0-.005H213.483l0,.005h1.81v0l-.068,0a3.522,3.522,0,0,0-2.78,1.5L194.273,27.868a13.477,13.477,0,0,1-11.1,5.83Z" transform="translate(15 15)" fill="url(#linear-gradient)"/>
    </g>
  </g>
</svg>
