<svg version="1.2" xmlns="http://www.w3.org/2000/svg" xmlns:xlink="http://www.w3.org/1999/xlink" overflow="visible" preserveAspectRatio="none" viewBox="0 0 23 13" width="23" height="13"><g transform="translate(0, 0)"><defs><path id="path-1699916201740567599" d="M12.853592941751206 14.989083501066784 C13.598573738919596 14.307178881233018 14.807026322916473 14.3065225984171 15.55274733387219 14.987617652370265 C15.55274733387219 14.987617652370265 23 21.789473684210527 23 21.789473684210527 C23 21.789473684210527 30.447252666127813 14.987617652370266 30.447252666127813 14.987617652370266 C31.192973677083533 14.306522598417102 32.40142626108041 14.307178881233018 33.1464070582488 14.989083501066785 C33.1464070582488 14.989083501066785 33.14875 14.991228070175438 33.14875 14.991228070175438 C33.89502476816725 15.674317102822807 33.89502476816725 16.781823248054387 33.14875 17.464912280701753 C33.14875 17.464912280701753 24.350378789540066 25.51834130629437 24.350378789540066 25.51834130629437 C23.604585177623704 26.20098992132079 22.395414822376296 26.20098992132079 21.649621210459934 25.51834130629437 C21.649621210459934 25.51834130629437 12.85125 17.464912280701753 12.85125 17.464912280701753 C12.10497523183275 16.781823248054387 12.10497523183275 15.674317102822807 12.85125 14.991228070175438 C12.85125 14.991228070175438 12.853592941751206 14.989083501066784 12.853592941751206 14.989083501066784 Z" vector-effect="non-scaling-stroke"/></defs><g transform="translate(-11.5, -13.75438596491228)"><path d="M12.853592941751206 14.989083501066784 C13.598573738919596 14.307178881233018 14.807026322916473 14.3065225984171 15.55274733387219 14.987617652370265 C15.55274733387219 14.987617652370265 23 21.789473684210527 23 21.789473684210527 C23 21.789473684210527 30.447252666127813 14.987617652370266 30.447252666127813 14.987617652370266 C31.192973677083533 14.306522598417102 32.40142626108041 14.307178881233018 33.1464070582488 14.989083501066785 C33.1464070582488 14.989083501066785 33.14875 14.991228070175438 33.14875 14.991228070175438 C33.89502476816725 15.674317102822807 33.89502476816725 16.781823248054387 33.14875 17.464912280701753 C33.14875 17.464912280701753 24.350378789540066 25.51834130629437 24.350378789540066 25.51834130629437 C23.604585177623704 26.20098992132079 22.395414822376296 26.20098992132079 21.649621210459934 25.51834130629437 C21.649621210459934 25.51834130629437 12.85125 17.464912280701753 12.85125 17.464912280701753 C12.10497523183275 16.781823248054387 12.10497523183275 15.674317102822807 12.85125 14.991228070175438 C12.85125 14.991228070175438 12.853592941751206 14.989083501066784 12.853592941751206 14.989083501066784 Z" style="stroke-width: 0; stroke-linecap: butt; stroke-linejoin: miter; fill: rgb(122, 122, 122);" vector-effect="non-scaling-stroke"/></g></g></svg>