<svg xmlns="http://www.w3.org/2000/svg" xmlns:xlink="http://www.w3.org/1999/xlink" width="826" height="779" viewBox="0 0 826 779">
  <defs>
    <clipPath id="clip-Web_1920_52">
      <rect width="826" height="779"/>
    </clipPath>
  </defs>
  <g id="Web_1920_52" data-name="Web 1920 – 52" clip-path="url(#clip-Web_1920_52)">
    <rect width="826" height="779" fill="#fff"/>
    <g id="Grupo_75874" data-name="Grupo 75874" transform="translate(6219.867 21218.939)">
      <path id="Trazado_58850" data-name="Trazado 58850" d="M1316.994,368.22h-34.844a90.2,90.2,0,0,1,5.618,31.1V530.9a39.125,39.125,0,0,1-2.3,12.957h57.584a38.873,38.873,0,0,0,38.868-38.872V432.861A65.064,65.064,0,0,0,1316.994,368.22Z" transform="translate(-6999.517 -21151.854)" fill="#0f1215"/>
      <path id="Trazado_58851" data-name="Trazado 58851" d="M1352.124,399.316a93.7,93.7,0,0,1,5.471-31.1H1322.9a65.211,65.211,0,0,0-65.074,64.928v71.985a39.009,39.009,0,0,0,39.018,39.015h57.582a39.129,39.129,0,0,1-2.306-12.957Z" transform="translate(-7325.332 -21151.854)" fill="#0f1215"/>
      <path id="Trazado_58852" data-name="Trazado 58852" d="M140.665.095,61.311,4.5A65.079,65.079,0,0,0,.094,72.942L7.4,204.327a12.95,12.95,0,0,0,13.662,12.208h0l183.126-10.178a12.96,12.96,0,0,0,12.223-13.648h0L209.092,61.324A65.056,65.056,0,0,0,140.665.095Z" transform="translate(-5943.467 -20825.145) rotate(3)" fill="#0f1215"/>
      <path id="Trazado_58853" data-name="Trazado 58853" d="M1346.337,353.91a78.174,78.174,0,1,0,78.031,78.318v-.144A78.3,78.3,0,0,0,1346.337,353.91Z" transform="translate(-7188.823 -21343.594)" fill="#0f1215"/>
      <path id="Trazado_58854" data-name="Trazado 58854" d="M1315.618,359a58.451,58.451,0,0,0,0,116.757,55.863,55.863,0,0,0,23.031-4.75,58.28,58.28,0,0,0,35.708-53.557,58.455,58.455,0,0,0-58.45-58.45Z" transform="translate(-7295.295 -21275.355)" fill="#0f1215"/>
      <path id="Trazado_58855" data-name="Trazado 58855" d="M1337.42,359.07a58.309,58.309,0,0,0-22.894,112.008,55.722,55.722,0,0,0,22.894,4.75,58.451,58.451,0,1,0,5.8-116.758A56.1,56.1,0,0,0,1337.42,359.07Z" transform="translate(-7042.552 -21275.453)" fill="#0f1215"/>
      <path id="Trazado_58881" data-name="Trazado 58881" d="M140.072,55.3h-5.646a62.867,62.867,0,0,0-4.838-11.67l3.971-3.971a6.261,6.261,0,0,0,0-8.869L116.48,13.725a6.24,6.24,0,0,0-4.424-1.833h0a6.21,6.21,0,0,0-4.424,1.836L103.668,17.7A63.017,63.017,0,0,0,92,12.864V7.257A6.263,6.263,0,0,0,85.736,1H61.6a6.264,6.264,0,0,0-6.26,6.257v5.607A63.016,63.016,0,0,0,43.663,17.7L39.7,13.741A6.217,6.217,0,0,0,35.279,11.9h0a6.22,6.22,0,0,0-4.424,1.833L13.776,30.818a6.2,6.2,0,0,0-1.839,4.428,6.31,6.31,0,0,0,1.833,4.428l3.981,3.955A62.868,62.868,0,0,0,12.912,55.3H7.273A6.267,6.267,0,0,0,1,61.555V85.7a6.264,6.264,0,0,0,6.26,6.264h5.646a62.99,62.99,0,0,0,4.844,11.674l-4.007,4a6.267,6.267,0,0,0,0,8.849l17.078,17.08a6.411,6.411,0,0,0,8.851,0l3.99-4A62.938,62.938,0,0,0,55.336,134.4v5.673a6.267,6.267,0,0,0,6.26,6.261h24.14A6.267,6.267,0,0,0,92,140.071V134.4a62.846,62.846,0,0,0,11.673-4.838l4,4a6.488,6.488,0,0,0,8.868,0l17.062-17.08a6.267,6.267,0,0,0,0-8.849l-4-4a62.777,62.777,0,0,0,4.841-11.674h5.642a6.267,6.267,0,0,0,6.263-6.261V61.555A6.267,6.267,0,0,0,140.072,55.3ZM123.459,84.387a50.459,50.459,0,0,1-6.979,16.85,6.291,6.291,0,0,0,.828,7.827l3,3-8.211,8.212-3.008-3a6.306,6.306,0,0,0-7.823-.828,50.494,50.494,0,0,1-16.845,6.983,6.293,6.293,0,0,0-4.943,6.119v4.27H67.856v-4.27a6.3,6.3,0,0,0-4.946-6.119,50.576,50.576,0,0,1-16.849-6.983,6.289,6.289,0,0,0-7.823.828l-3,3-8.211-8.212,3-3a6.3,6.3,0,0,0,.831-7.824,50.51,50.51,0,0,1-6.982-16.853A6.3,6.3,0,0,0,17.75,79.44H13.52V67.819h4.23a6.3,6.3,0,0,0,6.119-4.943,50.52,50.52,0,0,1,6.982-16.85A6.3,6.3,0,0,0,30.02,38.2l-2.972-2.956,8.211-8.212,2.956,2.956a6.3,6.3,0,0,0,7.823.828,50.379,50.379,0,0,1,16.849-6.98,6.3,6.3,0,0,0,4.943-6.123v-4.2h11.62v4.194a6.29,6.29,0,0,0,4.972,6.119,50.454,50.454,0,0,1,16.849,6.983,6.3,6.3,0,0,0,7.823-.831l2.956-2.956,8.211,8.212L117.3,38.2a6.294,6.294,0,0,0-.828,7.827,50.441,50.441,0,0,1,6.979,16.85,6.293,6.293,0,0,0,6.122,4.943h4.234V79.437h-4.23a6.3,6.3,0,0,0-6.122,4.95Z" transform="translate(-5691.279 -21062.078)" fill="#0f1215"/>
      <path id="Sustracción_261" data-name="Sustracción 261" d="M62.085,124.118A62.059,62.059,0,1,1,124.17,62.052,62.146,62.146,0,0,1,62.085,124.118ZM61.777,33.3A30.275,30.275,0,1,0,92.062,63.568,30.311,30.311,0,0,0,61.777,33.3Z" transform="translate(-5679.332 -21051.432)" fill="#0f1215"/>
      <path id="Trazado_58882" data-name="Trazado 58882" d="M151.664,117.8A33.837,33.837,0,1,0,185.5,151.636,33.84,33.84,0,0,0,151.664,117.8Zm21.484,33.838a21.488,21.488,0,1,1-21.487-21.486A21.487,21.487,0,0,1,173.148,151.637Z" transform="translate(-5770.254 -21141.041)" fill="#0f1215"/>
      <path id="Trazado_59252" data-name="Trazado 59252" d="M9.695,10.7V49.17h15.39V18.39h30.78V3H17.39A7.7,7.7,0,0,0,9.695,10.7ZM148.2,49.17V10.7A7.7,7.7,0,0,0,140.508,3H102.034V18.39h30.78V49.17Zm-15.39,76.951h-30.78v15.39h38.475a7.7,7.7,0,0,0,7.695-7.7V95.341h-15.39Zm-76.949,15.39v-15.39H25.085V95.341H9.695v38.475a7.7,7.7,0,0,0,7.695,7.7ZM2,64.561H155.9v15.39H2Z" transform="translate(-5921.495 -20782.947)" fill="#f8f8fc"/>
    </g>
  </g>
</svg>
