<svg xmlns="http://www.w3.org/2000/svg" xmlns:xlink="http://www.w3.org/1999/xlink" width="826" height="779" viewBox="0 0 826 779">
  <defs>
    <clipPath id="clip-Web_1920_40">
      <rect width="826" height="779"/>
    </clipPath>
  </defs>
  <g id="Web_1920_40" data-name="Web 1920 – 40" clip-path="url(#clip-Web_1920_40)">
    <rect width="826" height="779" fill="#fff"/>
    <g id="Grupo_75831" data-name="Grupo 75831" transform="translate(6274.92 21999.861)">
      <path id="Trazado_58756" data-name="Trazado 58756" d="M1309.625,368.22h-27.477a71.1,71.1,0,0,1,4.43,24.521V496.5a30.842,30.842,0,0,1-1.812,10.217h45.408a30.655,30.655,0,0,0,30.65-30.653V419.192A51.307,51.307,0,0,0,1309.625,368.22Z" transform="translate(-7075.887 -21945.764)" fill="#101416"/>
      <path id="Trazado_58757" data-name="Trazado 58757" d="M1332.186,392.741a73.853,73.853,0,0,1,4.314-24.521h-27.355a51.421,51.421,0,0,0-51.314,51.2v56.763a30.76,30.76,0,0,0,30.768,30.765H1334a30.846,30.846,0,0,1-1.818-10.217Z" transform="translate(-7327.674 -21945.764)" fill="#101416"/>
      <path id="Trazado_58758" data-name="Trazado 58758" d="M110.921.075,48.347,3.549A51.318,51.318,0,0,0,.074,57.518l5.757,103.6A10.211,10.211,0,0,0,16.6,170.748h0l144.4-8.026a10.22,10.22,0,0,0,9.638-10.762h0l-5.768-103.6A51.3,51.3,0,0,0,110.921.075Z" transform="translate(-5972.029 -21610.275) rotate(3)" fill="#101416"/>
      <path id="Trazado_58759" data-name="Trazado 58759" d="M1329.775,353.91a61.644,61.644,0,1,0,61.531,61.758v-.114A61.745,61.745,0,0,0,1329.775,353.91Z" transform="translate(-7222.184 -22093.934)" fill="#101416"/>
      <path id="Trazado_58760" data-name="Trazado 58760" d="M1303.871,359a46.091,46.091,0,0,0,0,92.068,44.054,44.054,0,0,0,18.162-3.746,45.963,45.963,0,0,0,28.156-42.232A46.094,46.094,0,0,0,1304.1,359Z" transform="translate(-7304.46 -22041.201)" fill="#101416"/>
      <path id="Trazado_58761" data-name="Trazado 58761" d="M1325.055,359.055A45.979,45.979,0,0,0,1307,447.378a43.932,43.932,0,0,0,18.053,3.745,46.091,46.091,0,1,0,4.576-92.068A44.153,44.153,0,0,0,1325.055,359.055Z" transform="translate(-7109.152 -22041.275)" fill="#101416"/>
      <text id="Taquilla" transform="translate(-5944.889 -21506.766)" fill="#f8f8fc" font-size="30" font-family="Heebo-Bold, Heebo" font-weight="700" letter-spacing="0.04em"><tspan x="0" y="0">Taquilla</tspan></text>
      <path id="Trazado_58891" data-name="Trazado 58891" d="M110.664,43.817h-4.452a49.576,49.576,0,0,0-3.815-9.2l3.131-3.131a4.937,4.937,0,0,0,0-6.993L92.061,11.034a4.921,4.921,0,0,0-3.489-1.445h0a4.9,4.9,0,0,0-3.489,1.448l-3.126,3.134a49.691,49.691,0,0,0-9.2-3.815V5.934A4.939,4.939,0,0,0,67.818,1H48.783a4.939,4.939,0,0,0-4.936,4.934v4.421a49.69,49.69,0,0,0-9.2,3.815l-3.123-3.124A4.9,4.9,0,0,0,28.03,9.6h0a4.9,4.9,0,0,0-3.489,1.445L11.074,24.513A4.89,4.89,0,0,0,9.624,28,4.976,4.976,0,0,0,11.069,31.5l3.139,3.118a49.574,49.574,0,0,0-3.815,9.2H5.947A4.942,4.942,0,0,0,1,48.751V67.788a4.939,4.939,0,0,0,4.936,4.939h4.452a49.671,49.671,0,0,0,3.82,9.205l-3.16,3.155a4.942,4.942,0,0,0,0,6.978l13.467,13.468a5.055,5.055,0,0,0,6.98,0l3.147-3.157a49.63,49.63,0,0,0,9.2,3.815v4.473a4.942,4.942,0,0,0,4.936,4.937H67.818a4.942,4.942,0,0,0,4.936-4.937v-4.473a49.558,49.558,0,0,0,9.2-3.815l3.157,3.155a5.116,5.116,0,0,0,6.993,0l13.454-13.468a4.942,4.942,0,0,0,0-6.978l-3.154-3.155a49.5,49.5,0,0,0,3.817-9.205h4.449a4.942,4.942,0,0,0,4.939-4.937V48.751a4.942,4.942,0,0,0-4.949-4.934Zm-13.1,22.938a39.79,39.79,0,0,1-5.5,13.287,4.96,4.96,0,0,0,.653,6.172l2.367,2.365-6.475,6.475-2.372-2.365a4.972,4.972,0,0,0-6.169-.653,39.817,39.817,0,0,1-13.283,5.507,4.962,4.962,0,0,0-3.9,4.825v3.367H53.719v-3.367a4.965,4.965,0,0,0-3.9-4.825,39.882,39.882,0,0,1-13.286-5.507,4.959,4.959,0,0,0-6.169.653L28,95.056l-6.475-6.475,2.365-2.367a4.966,4.966,0,0,0,.655-6.17,39.83,39.83,0,0,1-5.506-13.29,4.965,4.965,0,0,0-4.827-3.9H10.872V53.69h3.336a4.965,4.965,0,0,0,4.825-3.9A39.837,39.837,0,0,1,24.539,36.5a4.968,4.968,0,0,0-.655-6.17L21.54,28l6.475-6.475,2.331,2.331a4.967,4.967,0,0,0,6.169.653,39.726,39.726,0,0,1,13.286-5.5,4.968,4.968,0,0,0,3.9-4.828v-3.31h9.163v3.308A4.96,4.96,0,0,0,66.782,19,39.785,39.785,0,0,1,80.068,24.51a4.964,4.964,0,0,0,6.169-.655l2.331-2.331L95.042,28,92.712,30.33a4.963,4.963,0,0,0-.653,6.172,39.775,39.775,0,0,1,5.5,13.287,4.962,4.962,0,0,0,4.827,3.9h3.338v9.164h-3.336a4.965,4.965,0,0,0-4.827,3.9Z" transform="translate(-5768.608 -21790.824)" fill="#101416"/>
      <path id="Sustracción_263" data-name="Sustracción 263" d="M48.957,97.873A48.936,48.936,0,1,1,97.914,48.931,49,49,0,0,1,48.957,97.873Zm-.243-71.615A23.873,23.873,0,1,0,72.595,50.126,23.9,23.9,0,0,0,48.714,26.258Z" transform="translate(-5758.976 -21782.217)" fill="#101416"/>
      <path id="Trazado_58892" data-name="Trazado 58892" d="M144.507,117.8a26.682,26.682,0,1,0,26.682,26.681A26.684,26.684,0,0,0,144.507,117.8Zm16.941,26.682a16.944,16.944,0,1,1-16.943-16.943A16.943,16.943,0,0,1,161.449,144.482Z" transform="translate(-5855.586 -21877.789)" fill="#101416"/>
    </g>
  </g>
</svg>
