<svg xmlns="http://www.w3.org/2000/svg" xmlns:xlink="http://www.w3.org/1999/xlink" width="826" height="779" viewBox="0 0 826 779">
  <defs>
    <clipPath id="clip-Web_1920_47">
      <rect width="826" height="779"/>
    </clipPath>
  </defs>
  <g id="Web_1920_47" data-name="Web 1920 – 47" clip-path="url(#clip-Web_1920_47)">
    <rect width="826" height="779" fill="#fff"/>
    <g id="Grupo_75856" data-name="Grupo 75856" transform="translate(6274.608 21548.289)">
      <path id="Trazado_58840" data-name="Trazado 58840" d="M116.52,46.1h-4.69a52.223,52.223,0,0,0-4.019-9.694l3.3-3.3a5.2,5.2,0,0,0,0-7.367L96.924,11.57a5.183,5.183,0,0,0-3.675-1.522h0a5.159,5.159,0,0,0-3.675,1.525l-3.293,3.3a52.345,52.345,0,0,0-9.7-4.019V6.2a5.2,5.2,0,0,0-5.2-5.2H51.334a5.2,5.2,0,0,0-5.2,5.2v4.657a52.344,52.344,0,0,0-9.7,4.019l-3.29-3.29a5.164,5.164,0,0,0-3.675-1.525h0A5.167,5.167,0,0,0,25.8,11.581L11.612,25.768a5.151,5.151,0,0,0-1.528,3.678,5.242,5.242,0,0,0,1.522,3.678l3.307,3.285A52.221,52.221,0,0,0,10.895,46.1H6.211A5.206,5.206,0,0,0,1,51.3V71.354a5.2,5.2,0,0,0,5.2,5.2h4.69a52.323,52.323,0,0,0,4.024,9.7l-3.328,3.323a5.206,5.206,0,0,0,0,7.35l14.186,14.188a5.325,5.325,0,0,0,7.352,0l3.315-3.326a52.28,52.28,0,0,0,9.7,4.019v4.712a5.206,5.206,0,0,0,5.2,5.2H71.386a5.206,5.206,0,0,0,5.2-5.2v-4.712a52.2,52.2,0,0,0,9.7-4.019l3.326,3.323a5.389,5.389,0,0,0,7.366,0l14.173-14.188a5.206,5.206,0,0,0,0-7.35l-3.323-3.323a52.146,52.146,0,0,0,4.021-9.7h4.687a5.206,5.206,0,0,0,5.2-5.2V51.3a5.205,5.205,0,0,0-5.213-5.2Zm-13.8,24.163a41.914,41.914,0,0,1-5.8,14,5.225,5.225,0,0,0,.688,6.5l2.493,2.491-6.82,6.821-2.5-2.491a5.238,5.238,0,0,0-6.5-.688,41.944,41.944,0,0,1-13.993,5.8,5.227,5.227,0,0,0-4.106,5.083v3.547H56.534v-3.547a5.23,5.23,0,0,0-4.109-5.083,42.011,42.011,0,0,1-14-5.8,5.224,5.224,0,0,0-6.5.688l-2.494,2.494-6.82-6.821,2.491-2.494a5.231,5.231,0,0,0,.69-6.5,41.956,41.956,0,0,1-5.8-14,5.23,5.23,0,0,0-5.085-4.109H11.4V56.5h3.514A5.23,5.23,0,0,0,20,52.4a41.965,41.965,0,0,1,5.8-14,5.233,5.233,0,0,0-.69-6.5l-2.469-2.456,6.82-6.821,2.455,2.456a5.232,5.232,0,0,0,6.5.688,41.848,41.848,0,0,1,14-5.8,5.233,5.233,0,0,0,4.106-5.086V11.4h9.652v3.484a5.225,5.225,0,0,0,4.13,5.083,41.91,41.91,0,0,1,14,5.8,5.229,5.229,0,0,0,6.5-.69l2.455-2.456,6.82,6.821L97.609,31.9a5.228,5.228,0,0,0-.687,6.5,41.9,41.9,0,0,1,5.8,14A5.227,5.227,0,0,0,107.8,56.5h3.517v9.653h-3.514a5.23,5.23,0,0,0-5.085,4.112Z" transform="translate(-5775.844 -21364.648)" fill="#101315"/>
      <path id="Sustracción_247" data-name="Sustracción 247" d="M51.571,103.1a51.549,51.549,0,1,1,51.571-51.555A51.622,51.622,0,0,1,51.571,103.1ZM51.315,27.66A25.148,25.148,0,1,0,76.471,52.8,25.178,25.178,0,0,0,51.315,27.66Z" transform="translate(-5765.75 -21355.635)" fill="#101315"/>
      <path id="Trazado_58841" data-name="Trazado 58841" d="M145.932,117.8a28.107,28.107,0,1,0,28.107,28.106A28.109,28.109,0,0,0,145.932,117.8Zm17.846,28.107a17.849,17.849,0,1,1-17.848-17.847A17.848,17.848,0,0,1,163.778,145.907Z" transform="translate(-5861.229 -21450.02)" fill="#101315"/>
      <g id="Grupo_75854" data-name="Grupo 75854" transform="translate(-6067.502 -21279.561)">
        <path id="Trazado_58844" data-name="Trazado 58844" d="M1311.094,368.22H1282.15a74.94,74.94,0,0,1,4.666,25.83v109.3a32.515,32.515,0,0,1-1.908,10.763h47.832a32.292,32.292,0,0,0,32.287-32.29V421.914A54.048,54.048,0,0,0,1311.094,368.22Z" transform="translate(-991.311 -197.065)" fill="#101315"/>
        <path id="Trazado_58845" data-name="Trazado 58845" d="M1336.156,394.05a77.79,77.79,0,0,1,4.545-25.83h-28.816a54.167,54.167,0,0,0-54.055,53.933v59.794a32.4,32.4,0,0,0,32.41,32.408h47.83a32.522,32.522,0,0,1-1.914-10.763Z" transform="translate(-1257.832 -197.065)" fill="#101315"/>
        <path id="Trazado_58846" data-name="Trazado 58846" d="M116.844.079,50.928,3.738A54.058,54.058,0,0,0,.078,60.59L6.143,169.725a10.757,10.757,0,0,0,11.349,10.141h0l152.114-8.455a10.765,10.765,0,0,0,10.153-11.337h0L173.683,50.939A54.039,54.039,0,0,0,116.844.079Z" transform="translate(103.029 136.673) rotate(3)" fill="#101315"/>
        <path id="Trazado_58847" data-name="Trazado 58847" d="M1333.074,353.91a64.936,64.936,0,1,0,64.816,65.055v-.12A65.043,65.043,0,0,0,1333.074,353.91Z" transform="translate(-1146.165 -353.912)" fill="#101315"/>
        <path id="Trazado_58848" data-name="Trazado 58848" d="M1306.211,359a48.552,48.552,0,0,0,0,96.985,46.4,46.4,0,0,0,19.131-3.946A48.408,48.408,0,0,0,1355,407.552,48.555,48.555,0,0,0,1306.451,359Z" transform="translate(-1233.26 -298.092)" fill="#101315"/>
        <path id="Trazado_58849" data-name="Trazado 58849" d="M1327.516,359.057A48.434,48.434,0,0,0,1308.5,452.1a46.272,46.272,0,0,0,19.016,3.945,48.553,48.553,0,1,0,4.82-96.985A46.684,46.684,0,0,0,1327.516,359.057Z" transform="translate(-1026.512 -298.17)" fill="#101315"/>
        <g id="Rectángulo_14553" data-name="Rectángulo 14553" transform="translate(142.052 162.874)" fill="#101315" stroke="#f8f8fc" stroke-width="0.2">
          <rect width="94.691" height="142.037" rx="1" stroke="none"/>
          <rect x="-0.1" y="-0.1" width="94.891" height="142.237" rx="1.1" fill="none"/>
        </g>
        <path id="Sustracción_257" data-name="Sustracción 257" d="M24.767,7.333H1a1,1,0,0,1-1-1V1A1,1,0,0,1,1,0H8.242a4.6,4.6,0,0,0-.433,1.956,5.06,5.06,0,0,0,5.206,4.889A5.06,5.06,0,0,0,18.22,1.956,4.6,4.6,0,0,0,17.786,0h6.981a1,1,0,0,1,1,1V6.333A1,1,0,0,1,24.767,7.333Z" transform="translate(161.04 243.879)" fill="#f8f8fc"/>
        <path id="Trazado_58873" data-name="Trazado 58873" d="M3.841,0A3.835,3.835,0,1,1,0,3.835,3.838,3.838,0,0,1,3.841,0Z" transform="translate(170.21 241.66)" fill="#f8f8fc"/>
        <rect id="Rectángulo_14555" data-name="Rectángulo 14555" width="20.728" height="15.944" transform="translate(164.068 224.83)" fill="#f8f8fc"/>
        <path id="Sustracción_258" data-name="Sustracción 258" d="M24.767,7.333H1a1,1,0,0,1-1-1V1A1,1,0,0,1,1,0H8.242a4.6,4.6,0,0,0-.433,1.956,5.06,5.06,0,0,0,5.206,4.889A5.06,5.06,0,0,0,18.22,1.956,4.6,4.6,0,0,0,17.786,0h6.981a1,1,0,0,1,1,1V6.333A1,1,0,0,1,24.767,7.333Z" transform="translate(161.04 284.444)" fill="#f8f8fc"/>
        <path id="Trazado_58875" data-name="Trazado 58875" d="M3.841,0A3.835,3.835,0,1,1,0,3.835,3.838,3.838,0,0,1,3.841,0Z" transform="translate(170.21 282.224)" fill="#f8f8fc"/>
        <rect id="Rectángulo_14557" data-name="Rectángulo 14557" width="20.728" height="15.944" transform="translate(164.068 265.394)" fill="#f8f8fc"/>
        <path id="Sustracción_259" data-name="Sustracción 259" d="M24.767,7.333H1a1,1,0,0,1-1-1V1A1,1,0,0,1,1,0H8.242a4.6,4.6,0,0,0-.433,1.956,5.06,5.06,0,0,0,5.206,4.889A5.06,5.06,0,0,0,18.22,1.956,4.6,4.6,0,0,0,17.786,0h6.981a1,1,0,0,1,1,1V6.333A1,1,0,0,1,24.767,7.333Z" transform="translate(191.956 243.879)" fill="#f8f8fc"/>
        <path id="Trazado_58877" data-name="Trazado 58877" d="M3.841,0A3.835,3.835,0,1,1,0,3.835,3.838,3.838,0,0,1,3.841,0Z" transform="translate(201.126 241.66)" fill="#f8f8fc"/>
        <rect id="Rectángulo_14559" data-name="Rectángulo 14559" width="20.728" height="15.944" transform="translate(194.985 224.83)" fill="#f8f8fc"/>
        <path id="Sustracción_260" data-name="Sustracción 260" d="M24.767,7.333H1a1,1,0,0,1-1-1V1A1,1,0,0,1,1,0H8.242a4.6,4.6,0,0,0-.433,1.956,5.06,5.06,0,0,0,5.206,4.889A5.06,5.06,0,0,0,18.22,1.956,4.6,4.6,0,0,0,17.786,0h6.981a1,1,0,0,1,1,1V6.333A1,1,0,0,1,24.767,7.333Z" transform="translate(191.956 284.444)" fill="#f8f8fc"/>
        <path id="Trazado_58879" data-name="Trazado 58879" d="M3.841,0A3.835,3.835,0,1,1,0,3.835,3.838,3.838,0,0,1,3.841,0Z" transform="translate(201.126 282.224)" fill="#f8f8fc"/>
        <rect id="Rectángulo_14561" data-name="Rectángulo 14561" width="20.728" height="15.944" transform="translate(194.985 265.394)" fill="#f8f8fc"/>
        <rect id="Rectángulo_14562" data-name="Rectángulo 14562" width="25.768" height="8.369" rx="1" transform="translate(161.024 203.438)" fill="#f8f8fc"/>
        <rect id="Rectángulo_14563" data-name="Rectángulo 14563" width="55.165" height="5.044" rx="1" transform="translate(162.612 186.053)" fill="#f8f8fc"/>
        <rect id="Rectángulo_14564" data-name="Rectángulo 14564" width="25.768" height="8.369" rx="1" transform="translate(191.956 203.438)" fill="#f8f8fc"/>
        <rect id="Rectángulo_14565" data-name="Rectángulo 14565" width="55.165" height="5.044" rx="1" transform="translate(162.566 176.436)" fill="#f8f8fc"/>
      </g>
    </g>
  </g>
</svg>
