<svg xmlns="http://www.w3.org/2000/svg" xmlns:xlink="http://www.w3.org/1999/xlink" width="826" height="779" viewBox="0 0 826 779">
  <defs>
    <clipPath id="clip-Web_1920_38">
      <rect width="826" height="779"/>
    </clipPath>
  </defs>
  <g id="Web_1920_38" data-name="Web 1920 – 38" clip-path="url(#clip-Web_1920_38)">
    <rect width="826" height="779" fill="#fff"/>
    <g id="Grupo_75823" data-name="Grupo 75823" transform="translate(6204.559 22070.254)">
      <path id="Trazado_58885" data-name="Trazado 58885" d="M1317.111,368.22H1282.15a90.5,90.5,0,0,1,5.635,31.2v132.03a39.243,39.243,0,0,1-2.3,13h57.777a39.006,39.006,0,0,0,39-39v-72.37A65.284,65.284,0,0,0,1317.111,368.22Z" transform="translate(-7000.711 -22004.281)" fill="#0f1215"/>
      <path id="Trazado_58886" data-name="Trazado 58886" d="M1352.441,399.42a93.98,93.98,0,0,1,5.488-31.2h-34.807a65.429,65.429,0,0,0-65.293,65.147v72.227a39.139,39.139,0,0,0,39.148,39.146h57.775a39.247,39.247,0,0,1-2.312-13Z" transform="translate(-7327.697 -22004.281)" fill="#0f1215"/>
      <path id="Trazado_58887" data-name="Trazado 58887" d="M141.139.095,61.518,4.515A65.3,65.3,0,0,0,.095,73.188L7.42,205.015a12.993,12.993,0,0,0,13.708,12.249h0l183.743-10.213a13,13,0,0,0,12.264-13.694h0L209.8,61.53A65.275,65.275,0,0,0,141.139.095Z" transform="translate(-5945.413 -21677.713) rotate(3)" fill="#0f1215"/>
      <path id="Trazado_58888" data-name="Trazado 58888" d="M1346.6,353.91a78.438,78.438,0,1,0,78.295,78.583v-.145A78.568,78.568,0,0,0,1346.6,353.91Z" transform="translate(-7190.692 -22196.717)" fill="#0f1215"/>
      <path id="Trazado_58889" data-name="Trazado 58889" d="M1315.8,359a58.648,58.648,0,0,0,0,117.15,56.061,56.061,0,0,0,23.109-4.767,58.473,58.473,0,0,0,35.826-53.737A58.651,58.651,0,0,0,1316.094,359Z" transform="translate(-7297.55 -22128.232)" fill="#0f1215"/>
      <path id="Trazado_58890" data-name="Trazado 58890" d="M1337.617,359.07a58.5,58.5,0,0,0-22.971,112.385,55.905,55.905,0,0,0,22.971,4.766,58.648,58.648,0,1,0,5.822-117.151A56.207,56.207,0,0,0,1337.617,359.07Z" transform="translate(-7043.891 -22128.326)" fill="#0f1215"/>
      <text id="Rp" transform="translate(-5891.815 -21532.555)" fill="#f8f8fc" font-size="76" font-family="Heebo-Bold, Heebo" font-weight="700" letter-spacing="0.04em"><tspan x="0" y="0">Rp</tspan></text>
      <path id="Trazado_58893" data-name="Trazado 58893" d="M140.54,55.481h-5.665a63.081,63.081,0,0,0-4.854-11.71l3.984-3.984a6.282,6.282,0,0,0,0-8.9L116.869,13.768a6.261,6.261,0,0,0-4.439-1.839h0a6.231,6.231,0,0,0-4.439,1.842l-3.978,3.988A63.228,63.228,0,0,0,92.3,12.9V7.278A6.285,6.285,0,0,0,86.021,1H61.8a6.285,6.285,0,0,0-6.281,6.278V12.9a63.228,63.228,0,0,0-11.712,4.855l-3.974-3.975a6.238,6.238,0,0,0-4.439-1.842h0a6.241,6.241,0,0,0-4.439,1.839L13.819,30.918a6.223,6.223,0,0,0-1.845,4.443A6.331,6.331,0,0,0,13.812,39.8l3.994,3.968a63.079,63.079,0,0,0-4.854,11.71H7.294A6.288,6.288,0,0,0,1,61.759V85.983a6.285,6.285,0,0,0,6.281,6.285h5.665a63.2,63.2,0,0,0,4.861,11.713l-4.02,4.014a6.289,6.289,0,0,0,0,8.879l17.136,17.138a6.432,6.432,0,0,0,8.881,0l4-4.017a63.152,63.152,0,0,0,11.712,4.855v5.692a6.288,6.288,0,0,0,6.281,6.282H86.021A6.288,6.288,0,0,0,92.3,140.54v-5.692a63.059,63.059,0,0,0,11.712-4.855l4.017,4.014a6.509,6.509,0,0,0,8.9,0l17.12-17.138a6.289,6.289,0,0,0,0-8.879l-4.014-4.014a62.99,62.99,0,0,0,4.857-11.713h5.661a6.288,6.288,0,0,0,6.284-6.282V61.759a6.288,6.288,0,0,0-6.3-6.278ZM123.872,84.668a50.629,50.629,0,0,1-7,16.907,6.312,6.312,0,0,0,.83,7.854l3.012,3.009-8.238,8.239-3.019-3.009a6.327,6.327,0,0,0-7.85-.831,50.665,50.665,0,0,1-16.9,7.007,6.314,6.314,0,0,0-4.96,6.14v4.284H68.081v-4.284a6.318,6.318,0,0,0-4.963-6.14,50.746,50.746,0,0,1-16.905-7.007,6.31,6.31,0,0,0-7.85.831l-3.012,3.012-8.238-8.239,3.009-3.012a6.318,6.318,0,0,0,.834-7.85,50.68,50.68,0,0,1-7.006-16.91A6.317,6.317,0,0,0,17.806,79.7H13.562V68.044h4.244a6.317,6.317,0,0,0,6.139-4.96,50.69,50.69,0,0,1,7.006-16.907,6.322,6.322,0,0,0-.834-7.85l-2.982-2.966,8.238-8.239,2.966,2.966a6.32,6.32,0,0,0,7.85.831,50.549,50.549,0,0,1,16.905-7,6.321,6.321,0,0,0,4.96-6.143V13.56H79.714v4.209a6.311,6.311,0,0,0,4.989,6.14,50.624,50.624,0,0,1,16.905,7.007,6.317,6.317,0,0,0,7.85-.834l2.966-2.966,8.238,8.239L117.7,38.32a6.315,6.315,0,0,0-.83,7.854,50.612,50.612,0,0,1,7,16.907,6.314,6.314,0,0,0,6.143,4.96h4.248V79.7h-4.244a6.317,6.317,0,0,0-6.143,4.967Z" transform="translate(-5658.247 -21912.164)" fill="#0f1215"/>
      <path id="Sustracción_264" data-name="Sustracción 264" d="M62.294,124.536a62.268,62.268,0,1,1,62.294-62.275A62.355,62.355,0,0,1,62.294,124.536Zm-.31-91.124a30.377,30.377,0,1,0,30.387,30.37A30.413,30.413,0,0,0,61.985,33.411Z" transform="translate(-5646.264 -21901.559)" fill="#0f1215"/>
      <path id="Trazado_58894" data-name="Trazado 58894" d="M151.778,117.8a33.951,33.951,0,1,0,33.951,33.95A33.953,33.953,0,0,0,151.778,117.8Zm21.557,33.951a21.56,21.56,0,1,1-21.559-21.558A21.559,21.559,0,0,1,173.334,151.751Z" transform="translate(-5737.096 -21991)" fill="#0f1215"/>
    </g>
  </g>
</svg>
