<svg xmlns="http://www.w3.org/2000/svg" xmlns:xlink="http://www.w3.org/1999/xlink" width="826" height="779" viewBox="0 0 826 779">
  <defs>
    <clipPath id="clip-Web_1920_36">
      <rect width="826" height="779"/>
    </clipPath>
  </defs>
  <g id="Web_1920_36" data-name="Web 1920 – 36" clip-path="url(#clip-Web_1920_36)">
    <rect width="826" height="779" fill="#fff"/>
    <g id="Grupo_75817" data-name="Grupo 75817" transform="translate(6229.714 22221.596)">
      <path id="Trazado_58744" data-name="Trazado 58744" d="M1313.91,368.22h-31.76a82.2,82.2,0,0,1,5.119,28.343V516.5a35.607,35.607,0,0,1-2.1,11.81h52.488a35.432,35.432,0,0,0,35.426-35.431V427.138A59.3,59.3,0,0,0,1313.91,368.22Z" transform="translate(-7032.88 -22168.797)" fill="#101616"/>
      <path id="Trazado_58745" data-name="Trazado 58745" d="M1343.775,396.563a85.392,85.392,0,0,1,4.986-28.343h-31.619a59.436,59.436,0,0,0-59.312,59.18v65.611a35.555,35.555,0,0,0,35.563,35.561h52.484a35.659,35.659,0,0,1-2.1-11.81Z" transform="translate(-7327.696 -22168.797)" fill="#101616"/>
      <path id="Trazado_58746" data-name="Trazado 58746" d="M128.211.086,55.883,4.1A59.317,59.317,0,0,0,.086,66.484L6.741,186.237a11.8,11.8,0,0,0,12.453,11.127h0l166.913-9.277a11.813,11.813,0,0,0,11.141-12.44h0L190.58,55.894A59.3,59.3,0,0,0,128.211.086Z" transform="translate(-5956.812 -21838.379) rotate(3)" fill="#101616"/>
      <path id="Trazado_58747" data-name="Trazado 58747" d="M1339.4,353.91a71.253,71.253,0,1,0,71.123,71.384v-.132A71.369,71.369,0,0,0,1339.4,353.91Z" transform="translate(-7204.174 -22342.262)" fill="#101616"/>
      <path id="Trazado_58748" data-name="Trazado 58748" d="M1310.7,359a53.276,53.276,0,0,0,0,106.42,50.908,50.908,0,0,0,20.99-4.33,53.125,53.125,0,0,0,32.547-48.815A53.279,53.279,0,0,0,1310.963,359Z" transform="translate(-7300.518 -22280.549)" fill="#101616"/>
      <path id="Trazado_58749" data-name="Trazado 58749" d="M1332.24,359.063a53.146,53.146,0,0,0-20.865,102.091,50.776,50.776,0,0,0,20.865,4.329,53.276,53.276,0,1,0,5.289-106.42A51.1,51.1,0,0,0,1332.24,359.063Z" transform="translate(-7071.819 -22280.635)" fill="#101616"/>
      <path id="Icon_payment-card" data-name="Icon payment-card" d="M34.539,67.857l-6.661-.914Q18,65.59,8.129,64.232c-1.81-.251-1.809-.272-1.809-2.118,0-8.4.01-16.8-.016-25.206a1.515,1.515,0,0,1,.954-1.616q18.6-9.332,37.152-18.757a1.268,1.268,0,0,1,1.41.061c7.584,4.568,15.186,9.1,22.763,13.683a5.186,5.186,0,0,0,2.846.781c6.408-.035,12.816-.018,19.225-.019,4.345,0,7.351,2.849,7.371,7.193q.071,15.776,0,31.553a6.924,6.924,0,0,1-7.3,7.088q-24.516.011-49.031.009a7.058,7.058,0,0,1-7.155-7c-.016-.639,0-1.28,0-2.027ZM41.6,42.749c.266.024.475.059.684.059,4.876,0,9.753.028,14.628,0a9.142,9.142,0,0,1,6.157,2,8.773,8.773,0,0,1-5.618,15.555c-4.969.012-9.937.017-14.9-.012-.766,0-1.1.145-1.064,1,.071,1.654,0,3.312.037,4.967a3.572,3.572,0,0,0,3.12,3.541,12.892,12.892,0,0,0,1.746.05c13.432,0,26.866-.038,40.3.037,2.472.013,4.458-1.4,4.414-4.381-.115-7.82-.046-15.641-.044-23.462,0-2.7-1.334-4.076-4.059-4.078q-20.748-.013-41.5,0c-2.776,0-4.315,1.849-3.9,4.725Z" transform="translate(-5943.936 -21757.928)" fill="#f8f8fc"/>
      <path id="Icon_payment-card-2" data-name="Icon payment-card" d="M21.166,43.462l-3.506-.481q-5.2-.712-10.4-1.427c-.953-.132-.952-.143-.952-1.115,0-4.423.005-8.845-.008-13.268a.8.8,0,0,1,.5-.851q9.789-4.912,19.556-9.873a.667.667,0,0,1,.742.032c3.992,2.4,7.994,4.792,11.982,7.2a2.729,2.729,0,0,0,1.5.411c3.373-.018,6.746-.01,10.12-.01a3.64,3.64,0,0,1,3.88,3.786q.037,8.3,0,16.608a3.645,3.645,0,0,1-3.841,3.731q-12.9.006-25.808,0a3.715,3.715,0,0,1-3.766-3.684c-.008-.336,0-.674,0-1.067Zm3.718-13.216c.14.013.25.031.36.031,2.567,0,5.134.015,7.7,0a4.812,4.812,0,0,1,3.241,1.051,4.618,4.618,0,0,1-2.957,8.188c-2.615.006-5.231.009-7.845-.006-.4,0-.579.076-.56.529.038.87,0,1.744.02,2.615a1.88,1.88,0,0,0,1.642,1.864,6.781,6.781,0,0,0,.919.026c7.07,0,14.141-.02,21.212.02a2.123,2.123,0,0,0,2.323-2.306c-.061-4.116-.024-8.233-.023-12.35a1.893,1.893,0,0,0-2.137-2.146q-10.921-.007-21.843,0a1.958,1.958,0,0,0-2.053,2.487Z" transform="translate(-5749.033 -21746.598)" fill="#f8f8fc"/>
      <path id="Icon_payment-card-3" data-name="Icon payment-card" d="M21.166,43.462l-3.506-.481q-5.2-.712-10.4-1.427c-.953-.132-.952-.143-.952-1.115,0-4.423.005-8.845-.008-13.268a.8.8,0,0,1,.5-.851q9.789-4.912,19.556-9.873a.667.667,0,0,1,.742.032c3.992,2.4,7.994,4.792,11.982,7.2a2.729,2.729,0,0,0,1.5.411c3.373-.018,6.746-.01,10.12-.01a3.64,3.64,0,0,1,3.88,3.786q.037,8.3,0,16.608a3.645,3.645,0,0,1-3.841,3.731q-12.9.006-25.808,0a3.715,3.715,0,0,1-3.766-3.684c-.008-.336,0-.674,0-1.067Zm3.718-13.216c.14.013.25.031.36.031,2.567,0,5.134.015,7.7,0a4.812,4.812,0,0,1,3.241,1.051,4.618,4.618,0,0,1-2.957,8.188c-2.615.006-5.231.009-7.845-.006-.4,0-.579.076-.56.529.038.87,0,1.744.02,2.615a1.88,1.88,0,0,0,1.642,1.864,6.781,6.781,0,0,0,.919.026c7.07,0,14.141-.02,21.212.02a2.123,2.123,0,0,0,2.323-2.306c-.061-4.116-.024-8.233-.023-12.35a1.893,1.893,0,0,0-2.137-2.146q-10.921-.007-21.843,0a1.958,1.958,0,0,0-2.053,2.487Z" transform="translate(-6060.743 -21746.598)" fill="#f8f8fc"/>
      <path id="Trazado_58883" data-name="Trazado 58883" d="M127.759,50.491h-5.146A57.3,57.3,0,0,0,118.2,39.854l3.619-3.62a5.707,5.707,0,0,0,0-8.083L106.256,12.6a5.688,5.688,0,0,0-4.032-1.671h0A5.661,5.661,0,0,0,98.191,12.6l-3.613,3.623a57.437,57.437,0,0,0-10.639-4.41V6.7A5.709,5.709,0,0,0,78.234,1h-22a5.709,5.709,0,0,0-5.706,5.7v5.11a57.436,57.436,0,0,0-10.639,4.41l-3.61-3.611a5.667,5.667,0,0,0-4.032-1.674h0a5.67,5.67,0,0,0-4.032,1.671L12.645,28.178a5.653,5.653,0,0,0-1.676,4.036,5.751,5.751,0,0,0,1.67,4.036l3.628,3.6a57.3,57.3,0,0,0-4.409,10.637H6.718A5.712,5.712,0,0,0,1,56.194v22a5.709,5.709,0,0,0,5.706,5.709h5.146a57.413,57.413,0,0,0,4.415,10.64l-3.652,3.646a5.713,5.713,0,0,0,0,8.065l15.566,15.568a5.843,5.843,0,0,0,8.068,0l3.637-3.649a57.366,57.366,0,0,0,10.639,4.41v5.17a5.712,5.712,0,0,0,5.706,5.706h22a5.712,5.712,0,0,0,5.706-5.706v-5.17a57.282,57.282,0,0,0,10.639-4.41l3.649,3.646a5.913,5.913,0,0,0,8.083,0l15.551-15.568a5.713,5.713,0,0,0,0-8.065l-3.646-3.646a57.219,57.219,0,0,0,4.413-10.64h5.143a5.712,5.712,0,0,0,5.709-5.706v-22A5.712,5.712,0,0,0,127.759,50.491ZM112.617,77a45.992,45.992,0,0,1-6.361,15.358,5.734,5.734,0,0,0,.754,7.134l2.736,2.733-7.484,7.485-2.742-2.733a5.747,5.747,0,0,0-7.131-.754,46.024,46.024,0,0,1-15.354,6.365,5.736,5.736,0,0,0-4.505,5.577v3.892H61.937v-3.892a5.739,5.739,0,0,0-4.508-5.577,46.1,46.1,0,0,1-15.357-6.365,5.732,5.732,0,0,0-7.131.754L32.2,109.718l-7.484-7.485L27.454,99.5a5.74,5.74,0,0,0,.757-7.131A46.038,46.038,0,0,1,21.847,77a5.739,5.739,0,0,0-5.58-4.509H12.411V61.9h3.856A5.739,5.739,0,0,0,21.844,57.4a46.047,46.047,0,0,1,6.364-15.358,5.743,5.743,0,0,0-.757-7.131l-2.709-2.694,7.484-7.485,2.694,2.694a5.741,5.741,0,0,0,7.131.754,45.919,45.919,0,0,1,15.357-6.362,5.742,5.742,0,0,0,4.505-5.58V12.409H72.5v3.823a5.733,5.733,0,0,0,4.532,5.577,45.987,45.987,0,0,1,15.357,6.365,5.738,5.738,0,0,0,7.131-.757l2.694-2.694,7.484,7.485L107.007,34.9a5.737,5.737,0,0,0-.754,7.134,45.976,45.976,0,0,1,6.361,15.358,5.736,5.736,0,0,0,5.58,4.506h3.859V72.493H118.2A5.739,5.739,0,0,0,112.617,77Z" transform="translate(-5696.041 -22034.164)" fill="#101616"/>
      <path id="Sustracción_262" data-name="Sustracción 262" d="M56.588,113.129a56.564,56.564,0,1,1,56.588-56.571A56.644,56.644,0,0,1,56.588,113.129Zm-.281-82.778a27.595,27.595,0,1,0,27.6,27.589A27.627,27.627,0,0,0,56.307,30.351Z" transform="translate(-5685.063 -22024.404)" fill="#101616"/>
      <path id="Trazado_58884" data-name="Trazado 58884" d="M148.667,117.8a30.841,30.841,0,1,0,30.841,30.84A30.844,30.844,0,0,0,148.667,117.8Zm19.582,30.842a19.585,19.585,0,1,1-19.584-19.584A19.584,19.584,0,0,1,168.249,148.642Z" transform="translate(-5778.367 -22116.479)" fill="#101616"/>
      <path id="Trazado_58991" data-name="Trazado 58991" d="M.14,25.648,0,.191H.051L32.436.02V.066s.229,3.5,3.547,3.619S39.8.051,39.8,0h11.15V25.6l-11.129.037v-.051a4.29,4.29,0,0,0-.39-1.811,3.52,3.52,0,0,0-3.269-1.937s-3.148-.1-3.621,3.688v.043Z" transform="translate(-5874.929 -21691.865)" fill="#f8f8fc"/>
      <path id="Trazado_59032" data-name="Trazado 59032" d="M.061,11.262,0,.084H.022L14.242.01V.027A1.672,1.672,0,0,0,15.8,1.617C17.258,1.67,17.478.021,17.478,0h4.9v11.24l-4.887.018v-.021a1.875,1.875,0,0,0-.171-.795,1.547,1.547,0,0,0-1.436-.852,1.63,1.63,0,0,0-1.589,1.619v.02Z" transform="translate(-6013.298 -21684.662)" fill="#f8f8fc"/>
      <path id="Trazado_59073" data-name="Trazado 59073" d="M.061,11.262,0,.084H.022L14.242.01V.027A1.672,1.672,0,0,0,15.8,1.617C17.258,1.67,17.478.021,17.478,0h4.9v11.24l-4.887.018v-.021a1.875,1.875,0,0,0-.171-.795,1.547,1.547,0,0,0-1.436-.852,1.63,1.63,0,0,0-1.589,1.619v.02Z" transform="translate(-5701.587 -21684.662)" fill="#f8f8fc"/>
    </g>
  </g>
</svg>
