<svg version="1.2" xmlns="http://www.w3.org/2000/svg" xmlns:xlink="http://www.w3.org/1999/xlink" overflow="visible" preserveAspectRatio="none" viewBox="0 0 14.000009999999998 14.000010000000001" width="14.000009999999998" height="14.000010000000001"><g transform="translate(0, 0)"><g transform="translate(0.000019999999999575913, 0.000010000000000306693) rotate(0)"><path d="M13.17969,4.99242v-1.30102c0,-0.67848 -0.55199,-1.23047 -1.23047,-1.23047h-0.65043l-2.34052,-2.34052c-0.00049,-0.00049 -0.00107,-0.00096 -0.00156,-0.00148c-0.07271,-0.07213 -0.17369,-0.11695 -0.28241,-0.11864c-0.00213,-0.00003 -0.00418,-0.0003 -0.00632,-0.0003h-5.7969c-0.22652,0 -0.41016,0.18364 -0.41016,0.41016v2.05078h-0.41016c-0.67848,0 -1.23047,0.55199 -1.23047,1.23047v1.30102c-0.47739,0.16931 -0.82031,0.62521 -0.82031,1.15992v4.97656c0,0.67848 0.55199,1.23047 1.23047,1.23047h1.23047v1.23047c0,0.22652 0.18364,0.41016 0.41016,0.41016h8.25781c0.22652,0 0.41016,-0.18364 0.41016,-0.41016v-1.23047h1.23047c0.67848,0 1.23047,-0.55199 1.23047,-1.23047v-4.97656c0,-0.53471 -0.34292,-0.99061 -0.82031,-1.15992zM11.53906,3.28125h0.41016c0.22616,0 0.41016,0.184 0.41016,0.41016v1.23047h-0.82031zM9.07813,1.40036l1.06058,1.06058h-1.06058zM3.28125,0.82031h4.97656v2.05078c0,0.22652 0.18364,0.41016 0.41016,0.41016h2.05078v1.64063h-7.4375zM1.64063,3.69141c0,-0.22616 0.184,-0.41016 0.41016,-0.41016h0.41016v1.64063h-0.82031zM10.71875,13.17969h-7.4375v-4.10156h7.4375zM13.17969,11.12891c0,0.22616 -0.184,0.41016 -0.41016,0.41016h-1.23047v-2.46094h0.41016c0.22652,0 0.41016,-0.18364 0.41016,-0.41016c0,-0.22652 -0.18364,-0.41016 -0.41016,-0.41016c-0.33485,0 -9.42736,0 -9.89844,0c-0.22652,0 -0.41016,0.18364 -0.41016,0.41016c0,0.22652 0.18364,0.41016 0.41016,0.41016h0.41016v2.46094h-1.23047c-0.22616,0 -0.41016,-0.184 -0.41016,-0.41016v-4.97656c0,-0.22616 0.184,-0.41016 0.41016,-0.41016c0.49607,0 10.9739,0 11.53906,0c0.22616,0 0.41016,0.184 0.41016,0.41016z" style="stroke-width: 0; stroke-linecap: butt; stroke-linejoin: miter; fill: rgb(0, 0, 0);" vector-effect="non-scaling-stroke"/></g><defs><path id="path-170310662164094443" d="M13.17969,4.99242v-1.30102c0,-0.67848 -0.55199,-1.23047 -1.23047,-1.23047h-0.65043l-2.34052,-2.34052c-0.00049,-0.00049 -0.00107,-0.00096 -0.00156,-0.00148c-0.07271,-0.07213 -0.17369,-0.11695 -0.28241,-0.11864c-0.00213,-0.00003 -0.00418,-0.0003 -0.00632,-0.0003h-5.7969c-0.22652,0 -0.41016,0.18364 -0.41016,0.41016v2.05078h-0.41016c-0.67848,0 -1.23047,0.55199 -1.23047,1.23047v1.30102c-0.47739,0.16931 -0.82031,0.62521 -0.82031,1.15992v4.97656c0,0.67848 0.55199,1.23047 1.23047,1.23047h1.23047v1.23047c0,0.22652 0.18364,0.41016 0.41016,0.41016h8.25781c0.22652,0 0.41016,-0.18364 0.41016,-0.41016v-1.23047h1.23047c0.67848,0 1.23047,-0.55199 1.23047,-1.23047v-4.97656c0,-0.53471 -0.34292,-0.99061 -0.82031,-1.15992zM11.53906,3.28125h0.41016c0.22616,0 0.41016,0.184 0.41016,0.41016v1.23047h-0.82031zM9.07813,1.40036l1.06058,1.06058h-1.06058zM3.28125,0.82031h4.97656v2.05078c0,0.22652 0.18364,0.41016 0.41016,0.41016h2.05078v1.64063h-7.4375zM1.64063,3.69141c0,-0.22616 0.184,-0.41016 0.41016,-0.41016h0.41016v1.64063h-0.82031zM10.71875,13.17969h-7.4375v-4.10156h7.4375zM13.17969,11.12891c0,0.22616 -0.184,0.41016 -0.41016,0.41016h-1.23047v-2.46094h0.41016c0.22652,0 0.41016,-0.18364 0.41016,-0.41016c0,-0.22652 -0.18364,-0.41016 -0.41016,-0.41016c-0.33485,0 -9.42736,0 -9.89844,0c-0.22652,0 -0.41016,0.18364 -0.41016,0.41016c0,0.22652 0.18364,0.41016 0.41016,0.41016h0.41016v2.46094h-1.23047c-0.22616,0 -0.41016,-0.184 -0.41016,-0.41016v-4.97656c0,-0.22616 0.184,-0.41016 0.41016,-0.41016c0.49607,0 10.9739,0 11.53906,0c0.22616,0 0.41016,0.184 0.41016,0.41016z" vector-effect="non-scaling-stroke"/></defs></g></svg>