<svg xmlns="http://www.w3.org/2000/svg" xmlns:xlink="http://www.w3.org/1999/xlink" width="826" height="779" viewBox="0 0 826 779">
  <defs>
    <clipPath id="clip-Web_1920_51">
      <rect width="826" height="779"/>
    </clipPath>
  </defs>
  <g id="Web_1920_51" data-name="Web 1920 – 51" clip-path="url(#clip-Web_1920_51)">
    <rect width="826" height="779" fill="#fff"/>
    <path id="Icon_metro-qrcode" data-name="Icon metro-qrcode" d="M92.8,19.975H20.617V92.162H92.8ZM110.851,1.928V110.209H2.571V1.928ZM38.664,38.022H74.757V74.115H38.664ZM273.271,19.975H201.084V92.162h72.187ZM291.318,1.928V110.209H183.038V1.928h108.28ZM219.131,38.022h36.093V74.115H219.131ZM92.8,200.444H20.617v72.187H92.8ZM110.851,182.4V290.678H2.571V182.4ZM38.664,218.49H74.758v36.094H38.664ZM128.9,1.928h18.047V19.975H128.9Zm18.047,18.047h18.047V38.022H146.944ZM128.9,38.022h18.047V56.069H128.9Zm18.047,18.047h18.047V74.115H146.944ZM128.9,74.115h18.047V92.162H128.9Zm18.047,18.047h18.047v18.047H146.944ZM128.9,110.209h18.047v18.047H128.9Zm0,36.094h18.047V164.35H128.9Zm18.047,18.047h18.047V182.4H146.944ZM128.9,182.4h18.047v18.047H128.9Zm18.047,18.047h18.047V218.49H146.944ZM128.9,218.49h18.047v18.047H128.9Zm18.047,18.047h18.047v18.047H146.944ZM128.9,254.584h18.047v18.047H128.9Zm18.047,18.047h18.047v18.047H146.944ZM273.271,146.3h18.047V164.35H273.271Zm-252.654,0H38.664V164.35H20.617Zm18.047-18.047H56.711V146.3H38.664Zm-36.093,0H20.617V146.3H2.571Zm72.187,0H92.8V146.3H74.758ZM92.8,146.3h18.047V164.35H92.8Zm18.047-18.047H128.9V146.3H110.851Zm54.14,18.047h18.047V164.35H164.991Zm18.047-18.047h18.047V146.3H183.038ZM201.084,146.3h18.047V164.35H201.084Zm18.047-18.047h18.047V146.3H219.131ZM237.178,146.3h18.047V164.35H237.178Zm18.047-18.047h18.047V146.3H255.224ZM273.271,182.4h18.047v18.047H273.271Zm-108.28,0h18.047v18.047H164.991Zm18.047-18.047h18.047V182.4H183.038ZM201.084,182.4h18.047v18.047H201.084Zm36.093,0h18.047v18.047H237.178Zm18.047-18.047h18.047V182.4H255.225Zm18.047,54.141h18.047v18.047H273.271Zm-108.28,0h18.047v18.047H164.991Zm18.047-18.047h18.047V218.49H183.038Zm36.093,0h18.047V218.49H219.131Zm18.047,18.047h18.047v18.047H237.178Zm18.047-18.047h18.047V218.49H255.225Zm18.047,54.141h18.047v18.047H273.271Zm-90.233-18.047h18.047v18.047H183.038Zm18.047,18.047h18.047v18.047H201.084Zm18.047-18.047h18.047v18.047H219.131Zm18.047,18.047h18.047v18.047H237.178Zm-54.14,18.047h18.047v18.047H183.038Zm36.093,0h18.047v18.047H219.131Zm36.093,0h18.047v18.047H255.225Z" transform="translate(266.706 243.238)"/>
  </g>
</svg>
