<svg xmlns="http://www.w3.org/2000/svg" xmlns:xlink="http://www.w3.org/1999/xlink" width="826" height="779" viewBox="0 0 826 779">
  <defs>
    <clipPath id="clip-Web_1920_23">
      <rect width="826" height="779"/>
    </clipPath>
  </defs>
  <g id="Web_1920_23" data-name="Web 1920 – 23" clip-path="url(#clip-Web_1920_23)">
    <rect width="826" height="779" fill="#fff"/>
    <path id="Trazado_60138" data-name="Trazado 60138" d="M1014.728,264.6c.048-.111.083-.216.121-.327A47.406,47.406,0,0,0,1017.065,253c.836-10.3-2.607-21.845-9.255-29.063a38.9,38.9,0,0,0-28.686-12.884c-1.138.006-2.28.063-3.408.137A158.346,158.346,0,0,0,869.58,170.475c-87.674,0-159,71.324-159,159a158.69,158.69,0,0,0,55.771,120.831c.128,8.745,4.229,17.991,9.847,24.13,7.108,7.781,20.113,10.467,30.291,9.809,1.315-.01,2.58-.063,3.747-.179a34.539,34.539,0,0,0,4.884-.864,25.267,25.267,0,0,0,6.922-2,158.332,158.332,0,0,0,47.538,7.266c22.256,0,48.154-6.018,70.346-16.227a171.283,171.283,0,0,0,58.949,10.293h0a124.5,124.5,0,0,0,14.579-.726A12.223,12.223,0,0,0,1019,459.733c-4.623-3.427-13.288-24-18.176-40.5a158.941,158.941,0,0,0,13.9-154.627Zm-8.818-6.329c-.091-.158-.182-.353-.308-.574s-.3-.463-.476-.732a12.121,12.121,0,0,0-1.528-1.748,13.419,13.419,0,0,0-2.355-1.764,14.29,14.29,0,0,0-3.1-1.427,12.644,12.644,0,0,0-1.818-.5c-4.1-.774-11.776.842-14.861,3.333a134.342,134.342,0,0,1-3.782,154.727,12.237,12.237,0,0,0-2.026,10.33c.077.31,5.34,20.533,13.628,37.871a141.625,141.625,0,0,1-45.155-10.156,12.229,12.229,0,0,0-10.177.358c-19.69,9.893-44.354,16.032-64.371,16.032a133.69,133.69,0,0,1-56.146-12.294l-.049.047a17.8,17.8,0,0,0-5.116,10.941,17.078,17.078,0,0,0,.047,2.137,16.543,16.543,0,0,0,.71,3.78,15.474,15.474,0,0,0,1.274,3.069c.286.5.576.927.856,1.327-.582-.332-2.754-1.543-3.272-1.827l-.1-.053a17.1,17.1,0,0,1-1.05-1.406,20.865,20.865,0,0,1-1.367-2.427c-.248-.51-.5-1.016-.712-1.574a22.169,22.169,0,0,1-1.333-5c-.052-.458-.089-.916-.142-1.39s-.024-1.027-.024-1.548c-.008-.29,0-.479.01-.689l.024-.627.012-.221.031-.148.006-.089.052-.364.11-.742c.834-5.765,4.045-11.009,7.561-15.542,1.66-2.122,6.882-7.834,10.227-11.325q1.334-1.343,2.62-2.643l.043-.026c10.525-9.292,20.912-17.727,32.3-26.351,2.222-1.685,4.313-3.243,6.276-4.7l7.212,30.879a6.992,6.992,0,0,0,13.63-.052c.033-.158.07-.311.095-.474L895.12,348.1a6.866,6.866,0,0,0-1.437-5.4,6.962,6.962,0,0,0-4.944-2.628L811.5,334.1a7,7,0,0,0-7.286,5.123,5.711,5.711,0,0,0-.2,1.053,7.017,7.017,0,0,0,3.847,7.076l27.092,13.378c-1.8,1.5-3.689,3.091-5.707,4.792-8.124,6.918-15.31,13.347-21.979,19.675-9.145,8.7-24.356,25.214-25.366,26.909a92.139,92.139,0,0,0-8.129,11.725,134.1,134.1,0,0,1-38.743-94.354c0-74.189,60.359-134.552,134.552-134.552a133.724,133.724,0,0,1,77.132,24.4c-3.189,1.417-6.458,2.98-9.879,4.744a314.772,314.772,0,0,0-30.183,18c-7.718,5.16-15.673,10.814-24.3,17.29-2.134,1.6-4.126,3.117-6,4.554l-7.162-29.705a7.075,7.075,0,0,0-6.11-5.375,6.255,6.255,0,0,0-1.087-.032,7.075,7.075,0,0,0-6.675,6.034L843.96,312.366a7.121,7.121,0,0,0,1.485,5.46,6.961,6.961,0,0,0,5.02,2.616l78.157,5.5c.168.01.333.015.5.015a7.07,7.07,0,0,0,3.085-13.431l-28.842-14q2.811-2.424,6.034-5.155c7.646-6.439,14.651-12.052,21.448-17.164a272.19,272.19,0,0,1,25.266-17.122c2.46-1.443,4.8-2.743,7.054-3.917q1.189-.656,2.652-1.421l.172-.084c3.156-1.748,6.446-3.443,9.711-4.876a44.2,44.2,0,0,1,4.59-1.748c.816-.258,1.635-.506,2.485-.7.826-.22,1.718-.363,2.584-.516a22.017,22.017,0,0,1,5.319-.163l.663.058.321.037.079.006.142.011.186.042.542.115c.189.037.354.069.6.132.446.121.924.221,1.318.363s.787.279,1.165.421a19.185,19.185,0,0,1,4.007,2.227,17.831,17.831,0,0,1,2.98,2.653,15.015,15.015,0,0,1,1.958,2.675,13.131,13.131,0,0,1,1.036,2.285c.1.332.183.621.254.875s.095.484.122.668c.062.342.1.537.1.537Z" transform="translate(-455.626 60.525)" fill="#000001"/>
  </g>
</svg>
