<svg xmlns="http://www.w3.org/2000/svg" xmlns:xlink="http://www.w3.org/1999/xlink" width="826" height="779" viewBox="0 0 826 779">
  <defs>
    <clipPath id="clip-Web_1920_22">
      <rect width="826" height="779"/>
    </clipPath>
  </defs>
  <g id="Web_1920_22" data-name="Web 1920 – 22" clip-path="url(#clip-Web_1920_22)">
    <rect width="826" height="779" fill="#fff"/>
    <path id="Icon_metro-registered" data-name="Icon metro-registered" d="M186.9,126.562q0-15.567-10.614-21.4-5.837-3.184-20.7-3.184H133.826v49.708h28.657q11.675,0,18.043-6.545t6.368-18.574Zm9.2,50.416,36.264,65.983a5.352,5.352,0,0,1-.176,5.484,4.924,4.924,0,0,1-4.777,2.83H200.516a5.029,5.029,0,0,1-4.953-3.007L161.245,183.7H133.827v61.914a5.451,5.451,0,0,1-5.661,5.661h-23.7a5.45,5.45,0,0,1-5.661-5.661V75.793a5.45,5.45,0,0,1,5.661-5.661h52.007q22.643,0,33.61,4.245a45.9,45.9,0,0,1,23.7,19.282q8.668,13.8,8.668,31.841a57.413,57.413,0,0,1-7.518,29.276,47.544,47.544,0,0,1-20.431,19.37q1.062,1.769,1.592,2.83ZM161.068,30.507a126.7,126.7,0,0,0-50.592,10.349,128.536,128.536,0,0,0-69.254,69.255,128.844,128.844,0,0,0,0,101.185,128.534,128.534,0,0,0,69.254,69.255,128.842,128.842,0,0,0,101.184,0A128.536,128.536,0,0,0,280.915,211.3a128.842,128.842,0,0,0,0-101.185A128.536,128.536,0,0,0,211.66,40.856a126.7,126.7,0,0,0-50.592-10.349Zm158.5,130.2a154.948,154.948,0,0,1-12.559,61.56,155.737,155.737,0,0,1-84.379,84.38,157.143,157.143,0,0,1-123.119,0,155.733,155.733,0,0,1-84.379-84.38,157.152,157.152,0,0,1,0-123.12,155.732,155.732,0,0,1,84.379-84.38,157.142,157.142,0,0,1,123.118,0,155.73,155.73,0,0,1,84.379,84.38A154.929,154.929,0,0,1,319.566,160.7Z" transform="translate(252.471 229.297)" fill="#000001"/>
  </g>
</svg>
