<svg version="1.2" xmlns="http://www.w3.org/2000/svg" xmlns:xlink="http://www.w3.org/1999/xlink" overflow="visible" preserveAspectRatio="none" viewBox="0 0 12 10" width="12" height="10"><g transform="translate(0, 0)"><defs><path id="path-1704909064078310212" d="M0.6050420168067241 7.468712151796528 C0.6050420168067241 9.698363947641475 2.4861985301227207 11.505853855470328 4.806722689075632 11.505853855470328 C4.806722689075632 11.505853855470328 11.949579831932775 11.505853855470328 11.949579831932775 11.505853855470328 C11.949579831932775 11.505853855470328 11.949579831932775 10.698425514735566 11.949579831932775 10.698425514735566 C11.949579831932775 10.698425514735566 4.806722689075632 10.698425514735566 4.806722689075632 10.698425514735566 C2.950303361913303 10.698425514735566 1.4453781512605062 9.252433588472485 1.4453781512605062 7.468712151796528 C1.4453781512605062 5.684990715120571 2.950303361913303 4.238998788857489 4.806722689075632 4.238998788857489 C4.806722689075632 4.238998788857489 10.789915966386557 4.238998788857489 10.789915966386557 4.238998788857489 C10.789915966386557 4.238998788857489 9.15966386554622 5.542995559144126 9.15966386554622 5.542995559144126 C9.15966386554622 5.542995559144126 9.69747899159664 6.1647153815098905 9.69747899159664 6.1647153815098905 C9.69747899159664 6.1647153815098905 12.605042016806724 3.835284618490109 12.605042016806724 3.835284618490109 C12.605042016806724 3.835284618490109 9.69747899159664 1.5058538554703271 9.69747899159664 1.5058538554703271 C9.69747899159664 1.5058538554703271 9.15966386554622 2.127573677836092 9.15966386554622 2.127573677836092 C9.15966386554622 2.127573677836092 10.789915966386555 3.431570448122729 10.789915966386555 3.431570448122729 C10.789915966386555 3.431570448122729 4.806722689075632 3.431570448122729 4.806722689075632 3.431570448122729 C2.4861985301227207 3.431570448122729 0.6050420168067241 5.2390603559515805 0.6050420168067241 7.468712151796528 Z" vector-effect="non-scaling-stroke"/></defs><g transform="translate(-0.6050420168067232, -1.5058538554703271)"><path d="M0.6050420168067241 7.468712151796528 C0.6050420168067241 9.698363947641475 2.4861985301227207 11.505853855470328 4.806722689075632 11.505853855470328 C4.806722689075632 11.505853855470328 11.949579831932775 11.505853855470328 11.949579831932775 11.505853855470328 C11.949579831932775 11.505853855470328 11.949579831932775 10.698425514735566 11.949579831932775 10.698425514735566 C11.949579831932775 10.698425514735566 4.806722689075632 10.698425514735566 4.806722689075632 10.698425514735566 C2.950303361913303 10.698425514735566 1.4453781512605062 9.252433588472485 1.4453781512605062 7.468712151796528 C1.4453781512605062 5.684990715120571 2.950303361913303 4.238998788857489 4.806722689075632 4.238998788857489 C4.806722689075632 4.238998788857489 10.789915966386557 4.238998788857489 10.789915966386557 4.238998788857489 C10.789915966386557 4.238998788857489 9.15966386554622 5.542995559144126 9.15966386554622 5.542995559144126 C9.15966386554622 5.542995559144126 9.69747899159664 6.1647153815098905 9.69747899159664 6.1647153815098905 C9.69747899159664 6.1647153815098905 12.605042016806724 3.835284618490109 12.605042016806724 3.835284618490109 C12.605042016806724 3.835284618490109 9.69747899159664 1.5058538554703271 9.69747899159664 1.5058538554703271 C9.69747899159664 1.5058538554703271 9.15966386554622 2.127573677836092 9.15966386554622 2.127573677836092 C9.15966386554622 2.127573677836092 10.789915966386555 3.431570448122729 10.789915966386555 3.431570448122729 C10.789915966386555 3.431570448122729 4.806722689075632 3.431570448122729 4.806722689075632 3.431570448122729 C2.4861985301227207 3.431570448122729 0.6050420168067241 5.2390603559515805 0.6050420168067241 7.468712151796528 Z" style="stroke-width: 0; stroke-linecap: butt; stroke-linejoin: miter; fill: rgb(20, 27, 26);" vector-effect="non-scaling-stroke"/></g></g></svg>