<svg xmlns="http://www.w3.org/2000/svg" xmlns:xlink="http://www.w3.org/1999/xlink" width="826" height="779" viewBox="0 0 826 779">
  <defs>
    <clipPath id="clip-Web_1920_9">
      <rect width="826" height="779"/>
    </clipPath>
  </defs>
  <g id="Web_1920_9" data-name="Web 1920 – 9" clip-path="url(#clip-Web_1920_9)">
    <rect width="826" height="779" fill="#fff"/>
    <g id="INACTIVOS_ICONOS-48" data-name="INACTIVOS ICONOS-48" transform="translate(225.931 203)">
      <path id="Sustracción_107" data-name="Sustracción 107" d="M363.466,311.779,270.788,219.1c32.726-55.683,25.375-128.641-22.364-176.338A145.422,145.422,0,1,0,219.274,270.7l92.636,92.622a36.45,36.45,0,0,0,51.556-51.541ZM94.436,196.722A72.436,72.436,0,1,1,196.882,94.29h0A72.433,72.433,0,1,1,94.447,196.725Z"/>
      <path id="Trazado_56374" data-name="Trazado 56374" d="M211.885,15.036,151.255,75.673h0a2.511,2.511,0,0,1-3.43,0L118.422,46.3a5.036,5.036,0,0,1,0-7.114L122.1,35.5a5.043,5.043,0,0,1,7.12,0l20.317,20.324L201.1,4.268a5.163,5.163,0,0,1,7.121,0l3.669,3.646a5.021,5.021,0,0,1,0,7.121Z" transform="translate(-17.811 97.741)"/>
    </g>
  </g>
</svg>
