<svg version="1.2" xmlns="http://www.w3.org/2000/svg" xmlns:xlink="http://www.w3.org/1999/xlink" overflow="visible" preserveAspectRatio="none" viewBox="0 0 14.99999 14.99999" width="14.99999" height="14.99999"><g transform="translate(1, 1)"><g transform="translate(-2.220446049250313e-16, 0) rotate(0)"><path d="M10.11111,0h-8.66667c-0.80167,0 -1.44444,0.65 -1.44444,1.44444v10.11111c0,0.79444 0.64278,1.44444 1.44444,1.44444h10.11111c0.79444,0 1.44444,-0.65 1.44444,-1.44444v-8.66667zM9.1,3.25h-7.15v-3.25h7.15zM6.6625,10.075c-1.16892,0 -2.1125,-0.94358 -2.1125,-2.1125c0,-1.16892 0.94358,-2.1125 2.1125,-2.1125c1.16892,0 2.1125,0.94358 2.1125,2.1125c0,1.16892 -0.94358,2.1125 -2.1125,2.1125z" style="stroke: rgb(9, 11, 12); stroke-width: 1; stroke-linecap: butt; stroke-linejoin: miter; fill: transparent;" vector-effect="non-scaling-stroke"/></g><defs><path id="path-1704909064080310220" d="M10.11111,0h-8.66667c-0.80167,0 -1.44444,0.65 -1.44444,1.44444v10.11111c0,0.79444 0.64278,1.44444 1.44444,1.44444h10.11111c0.79444,0 1.44444,-0.65 1.44444,-1.44444v-8.66667zM9.1,3.25h-7.15v-3.25h7.15zM6.6625,10.075c-1.16892,0 -2.1125,-0.94358 -2.1125,-2.1125c0,-1.16892 0.94358,-2.1125 2.1125,-2.1125c1.16892,0 2.1125,0.94358 2.1125,2.1125c0,1.16892 -0.94358,2.1125 -2.1125,2.1125z" vector-effect="non-scaling-stroke"/></defs></g></svg>