<svg version="1.2" xmlns="http://www.w3.org/2000/svg" xmlns:xlink="http://www.w3.org/1999/xlink" overflow="visible" preserveAspectRatio="none" viewBox="0 0 26.00001 26.00001" width="26.00001" height="26.00001"><g transform="translate(0, 0)"><g transform="translate(0.000010000000000509601, 8.881784197001252e-16) rotate(0)"><path d="M8.59414,0.8159c0,0.44983 -0.36607,0.8159 -0.8159,0.8159h-5.22176c-0.50967,0 -0.92469,0.41502 -0.92469,0.92469v5.22176c0,0.44983 -0.36607,0.8159 -0.8159,0.8159c-0.44983,0 -0.8159,-0.36607 -0.8159,-0.8159v-5.22176c0,-1.40987 1.14661,-2.55649 2.55649,-2.55649h5.22176c0.44983,0 0.8159,0.36607 0.8159,0.8159zM26,2.55649v5.22176c0,0.44983 -0.36607,0.8159 -0.8159,0.8159c-0.44983,0 -0.8159,-0.36607 -0.8159,-0.8159v-5.22176c0,-0.50967 -0.41502,-0.92469 -0.92469,-0.92469h-5.22176c-0.44983,0 -0.8159,-0.36607 -0.8159,-0.8159c0,-0.44983 0.36607,-0.8159 0.8159,-0.8159h5.22176c1.40987,0 2.55649,1.14661 2.55649,2.55649zM26,18.22176v5.22176c0,1.40987 -1.14661,2.55649 -2.55649,2.55649h-5.22176c-0.44983,0 -0.8159,-0.36607 -0.8159,-0.8159c0,-0.44983 0.36607,-0.8159 0.8159,-0.8159h5.22176c0.50967,0 0.92469,-0.41502 0.92469,-0.92469v-5.22176c0,-0.44983 0.36607,-0.8159 0.8159,-0.8159c0.44983,0 0.8159,0.36607 0.8159,0.8159zM8.59414,25.1841c0,0.44983 -0.36607,0.8159 -0.8159,0.8159h-5.22176c-1.40987,0 -2.55649,-1.14661 -2.55649,-2.55649v-5.22176c0,-0.44983 0.36607,-0.8159 0.8159,-0.8159c0.44983,0 0.8159,0.36607 0.8159,0.8159v5.22176c0,0.50967 0.41502,0.92469 0.92469,0.92469h5.22176c0.44983,0 0.8159,0.36607 0.8159,0.8159zM25.1841,12.56485h-24.3682c-0.23933,0 -0.43515,0.19582 -0.43515,0.43515c0,0.23933 0.19582,0.43515 0.43515,0.43515h24.3682c0.23933,0 0.43515,-0.19582 0.43515,-0.43515c0,-0.23933 -0.19582,-0.43515 -0.43515,-0.43515z" style="stroke-width: 0; stroke-linecap: butt; stroke-linejoin: miter; fill: rgb(0, 0, 0);" vector-effect="non-scaling-stroke"/></g><defs><path id="path-1704210297383310174" d="M8.59414,0.8159c0,0.44983 -0.36607,0.8159 -0.8159,0.8159h-5.22176c-0.50967,0 -0.92469,0.41502 -0.92469,0.92469v5.22176c0,0.44983 -0.36607,0.8159 -0.8159,0.8159c-0.44983,0 -0.8159,-0.36607 -0.8159,-0.8159v-5.22176c0,-1.40987 1.14661,-2.55649 2.55649,-2.55649h5.22176c0.44983,0 0.8159,0.36607 0.8159,0.8159zM26,2.55649v5.22176c0,0.44983 -0.36607,0.8159 -0.8159,0.8159c-0.44983,0 -0.8159,-0.36607 -0.8159,-0.8159v-5.22176c0,-0.50967 -0.41502,-0.92469 -0.92469,-0.92469h-5.22176c-0.44983,0 -0.8159,-0.36607 -0.8159,-0.8159c0,-0.44983 0.36607,-0.8159 0.8159,-0.8159h5.22176c1.40987,0 2.55649,1.14661 2.55649,2.55649zM26,18.22176v5.22176c0,1.40987 -1.14661,2.55649 -2.55649,2.55649h-5.22176c-0.44983,0 -0.8159,-0.36607 -0.8159,-0.8159c0,-0.44983 0.36607,-0.8159 0.8159,-0.8159h5.22176c0.50967,0 0.92469,-0.41502 0.92469,-0.92469v-5.22176c0,-0.44983 0.36607,-0.8159 0.8159,-0.8159c0.44983,0 0.8159,0.36607 0.8159,0.8159zM8.59414,25.1841c0,0.44983 -0.36607,0.8159 -0.8159,0.8159h-5.22176c-1.40987,0 -2.55649,-1.14661 -2.55649,-2.55649v-5.22176c0,-0.44983 0.36607,-0.8159 0.8159,-0.8159c0.44983,0 0.8159,0.36607 0.8159,0.8159v5.22176c0,0.50967 0.41502,0.92469 0.92469,0.92469h5.22176c0.44983,0 0.8159,0.36607 0.8159,0.8159zM25.1841,12.56485h-24.3682c-0.23933,0 -0.43515,0.19582 -0.43515,0.43515c0,0.23933 0.19582,0.43515 0.43515,0.43515h24.3682c0.23933,0 0.43515,-0.19582 0.43515,-0.43515c0,-0.23933 -0.19582,-0.43515 -0.43515,-0.43515z" vector-effect="non-scaling-stroke"/></defs></g></svg>