<?xml version="1.0" standalone="no"?>
<!DOCTYPE svg PUBLIC "-//W3C//DTD SVG 20010904//EN"
 "http://www.w3.org/TR/2001/REC-SVG-20010904/DTD/svg10.dtd">
<svg version="1.0" xmlns="http://www.w3.org/2000/svg"
 width="826.000000pt" height="779.000000pt" viewBox="0 0 826.000000 779.000000"
 preserveAspectRatio="xMidYMid meet">

<g transform="translate(0.000000,779.000000) scale(0.100000,-0.100000)"
fill="#000000" stroke="none">
<path d="M3225 5604 c-465 -83 -818 -443 -885 -903 -19 -124 -8 -313 24 -429
112 -407 451 -716 858 -782 81 -13 275 -13 356 0 122 20 268 74 382 142 l45
27 739 -784 c424 -450 750 -789 767 -795 62 -26 129 21 129 89 0 31 -7 49 -32
78 -31 35 -1292 1376 -1401 1490 l-51 52 45 48 c181 194 278 472 266 758 -19
447 -309 830 -732 968 -169 55 -348 70 -510 41z m410 -219 c250 -73 458 -252
560 -482 85 -191 98 -437 33 -626 -103 -303 -347 -520 -655 -583 -58 -12 -112
-15 -213 -12 -119 4 -147 9 -232 38 -277 93 -489 315 -570 597 -33 114 -33
343 0 458 95 333 374 581 715 636 94 15 263 3 362 -26z"/>
</g>
</svg>
