<?xml version="1.0" encoding="UTF-8"?>
<svg id="Capa_1" data-name="Capa 1" xmlns="http://www.w3.org/2000/svg" viewBox="0 0 826 779">
  <defs>
    <style>
      .cls-1, .cls-2 {
        stroke-width: 0px;
      }

      .cls-2 {
        fill: #4e545a;
      }
    </style>
  </defs>
  <g id="Grupo_2001" data-name="Grupo 2001">
    <path id="cuerpo" class="cls-1" d="m501.67,497.44h-186.4c-83.89,0-152.11,56.55-152.11,126.07v109.57c1.55,15.29,15.08,26.51,30.4,25.21h429.93c15.3,1.24,28.79-9.95,30.4-25.21v-109.57c0-69.52-68.34-126.07-152.23-126.07Z"/>
    <path id="cabeza" class="cls-1" d="m408.47,63.5c-101.06.06-182.93,82.04-182.86,183.09.06,101.06,82.04,182.93,183.1,182.86,100.96-.06,182.8-81.9,182.86-182.86.06-101.06-81.81-183.03-182.86-183.09h-.23Z"/>
    <path id="audifonos" class="cls-2" d="m613.83,202.41c-8.36,0-8.6-4.59-8.95-10.13-2.08-38.39-16.88-74.99-42.06-104.04-49.13-57.39-130.66-80.83-210.79-60.33-72.58,18.62-129.01,80-137.38,149.28.06.71.06,1.42,0,2.12,0,0-1.06,16.85-2.01,39.94h-14.5v95.08h12.37c-.43,10.39,1.05,20.77,4.36,30.63,1.77,2.71,4.24,4.83,12.84,4.12,5.31.04,9.87-3.73,10.84-8.95.94-5.05,1.41-10.18,1.41-15.32v-127.13c-.33-9.24.34-18.48,2-27.57,16.38-75.52,84.95-126.07,169.78-125.24,89.54.83,163.18,65.63,164.95,146.57,1.18,49.96.58,99.79,0,149.75-.7,25.88-14.8,49.53-37.23,62.44-22.26,14.96-47.83,14.73-73.64,14.26-5.56.41-10.97-1.92-14.5-6.24-5.79-7.8-14.91-12.42-24.62-12.49h-36.29c-13.17-.23-25.12,7.69-30.04,19.91-5.01,11.18-2.14,24.32,7.07,32.4,16.15,16.15,67.98,14.85,83.3-2,.55-.45.99-1.01,1.29-1.65,2.83-5.54,7.89-6.36,14.02-6.36,14.3,1.01,28.66.62,42.89-1.18,48.78-9.66,79.77-36.52,92.14-80.47,1.53-5.42,1.89-10.96,10.6-10.49,22.25,2.38,43.3-10.61,51.14-31.57v-82.48c-7.3-20.56-27.21-33.92-49.01-32.87Z"/>
  </g>
</svg>