<svg xmlns="http://www.w3.org/2000/svg" xmlns:xlink="http://www.w3.org/1999/xlink" width="826" height="779" viewBox="0 0 826 779">
  <defs>
    <clipPath id="clip-Web_1920_41">
      <rect width="826" height="779"/>
    </clipPath>
  </defs>
  <g id="Web_1920_41" data-name="Web 1920 – 41" clip-path="url(#clip-Web_1920_41)">
    <rect width="826" height="779" fill="#fff"/>
    <g id="Grupo_75834" data-name="Grupo 75834" transform="translate(6219.114 21979.623)">
      <path id="Icon_payment-card" data-name="Icon payment-card" d="M130.559,243.028c-10.107-1.386-19.713-2.707-29.314-4.023q-43.453-5.954-86.91-11.93c-7.965-1.1-7.96-1.2-7.96-9.319,0-36.977.043-73.953-.069-110.93-.01-3.485.831-5.424,4.2-7.113q81.844-41.071,163.5-82.548a5.578,5.578,0,0,1,6.207.266c33.374,20.1,66.834,40.067,100.176,60.218a22.824,22.824,0,0,0,12.526,3.437c28.2-.155,56.4-.08,84.608-.085,19.122-.005,32.352,12.537,32.437,31.654q.312,69.427-.01,138.86c-.08,18.44-13.517,31.19-32.117,31.2q-107.892.048-215.778.037a31.061,31.061,0,0,1-31.489-30.8c-.069-2.813-.01-5.631-.01-8.919Zm31.083-110.5c1.172.107,2.089.261,3.011.261,21.461.021,42.922.123,64.378-.01,10.075-.064,19.271,2.275,27.1,8.786a38.609,38.609,0,0,1-24.722,68.455c-21.866.053-43.732.075-65.593-.054-3.373-.021-4.843.639-4.683,4.422.314,7.278.016,14.578.164,21.861a15.719,15.719,0,0,0,13.731,15.584,56.737,56.737,0,0,0,7.682.219c59.114.01,118.233-.165,177.347.165,10.88.058,19.617-6.143,19.426-19.282-.506-34.414-.2-68.833-.192-103.252.005-11.887-5.871-17.939-17.865-17.945q-91.308-.056-182.622-.005c-12.217.016-18.989,8.136-17.161,20.795Z" transform="translate(-6078.985 -21739.629)" fill="#101315"/>
      <path id="Trazado_58897" data-name="Trazado 58897" d="M658.886,1842.693,657.81,1647.2h.4l248.671-1.311v.348s1.752,26.9,27.233,27.8,29.338-27.918,29.338-28.314h85.63v196.564l-85.46.281v-.391a32.912,32.912,0,0,0-3-13.881,27.032,27.032,0,0,0-25.089-14.9s-24.179-.732-27.8,28.334v.324Z" transform="translate(-6587.625 -23299.576)" fill="#0f1215"/>
      <g id="icono_eventos" transform="translate(-5870.417 -21633.467)">
        <path id="Trazado_58898" data-name="Trazado 58898" d="M810.485,1624.871a5.664,5.664,0,0,0-11.327,0l-.509,21.971a5.665,5.665,0,0,0,11.329,0Z" transform="translate(-588.823 -1594.685)" fill="#fff"/>
        <path id="Trazado_58899" data-name="Trazado 58899" d="M804.614,1629.867a5.671,5.671,0,0,0-5.662,5.666l-.511,21.977a5.664,5.664,0,1,0,11.325.281l.51-22.025a5.665,5.665,0,0,0-5.43-5.893Z" transform="translate(-589.803 -1544.97)" fill="#fff"/>
        <path id="Trazado_58900" data-name="Trazado 58900" d="M779.931,1635.48a3.729,3.729,0,0,0,3.622-3.73,3.691,3.691,0,0,0-3.738-3.572,3.568,3.568,0,0,0-3.564,3.572v.111a3.616,3.616,0,0,0,3.619,3.619Z" transform="translate(-693.281 -1552.855)" fill="#fff"/>
        <path id="Trazado_58901" data-name="Trazado 58901" d="M781.054,1638.07a5.035,5.035,0,0,1-5.041-5.027h0a4.719,4.719,0,0,1,1.413-3.576,4.9,4.9,0,0,1,3.568-1.537,5.328,5.328,0,0,1,3.625,1.43,5.055,5.055,0,0,1,1.531,3.564,5.142,5.142,0,0,1-5.04,5.146h-.057Zm0-7.3h0a2.056,2.056,0,0,0-1.587.686,1.855,1.855,0,0,0-.623,1.588,2.263,2.263,0,0,0,4.47.711,1.977,1.977,0,0,0,0-.711,2.22,2.22,0,0,0-.677-1.588,2.319,2.319,0,0,0-1.583-.686Z" transform="translate(-694.4 -1554.019)" fill="#fff"/>
        <path id="Trazado_58902" data-name="Trazado 58902" d="M765.749,1635.668a3.713,3.713,0,1,0-.054,0Z" transform="translate(-759.683 -1552.142)" fill="#fff"/>
        <path id="Trazado_58903" data-name="Trazado 58903" d="M766.854,1638.273a5.172,5.172,0,0,1-3.565-1.414,5.325,5.325,0,0,1-1.528-3.576,5.119,5.119,0,0,1,1.473-3.613,4.959,4.959,0,0,1,3.568-1.537h0a5.1,5.1,0,0,1,1.071,10.141,4.679,4.679,0,0,1-1.071,0Zm0-2.832h0a2.262,2.262,0,0,0,2.269-2.264h0a2.267,2.267,0,0,0-2.321-2.209h0a2,2,0,0,0-1.525.682,2.186,2.186,0,0,0-.68,1.582,2.244,2.244,0,0,0,.68,1.584A2.344,2.344,0,0,0,766.854,1635.441Z" transform="translate(-760.846 -1553.206)" fill="#fff"/>
        <path id="Trazado_58904" data-name="Trazado 58904" d="M762.57,1672.949a3.678,3.678,0,0,0,3.686,3.605l36.639-.5a3.631,3.631,0,0,0,3.568-3.687h0l-.456-36.641a3.631,3.631,0,0,0-3.677-3.572h0l-36.643.461a3.685,3.685,0,0,0-3.628,3.682Zm6.853-33.076,29.339-.354.343,29.283-29.284.4Z" transform="translate(-759.451 -1534.292)" fill="#fff"/>
        <path id="Trazado_58905" data-name="Trazado 58905" d="M767.355,1679.143a5.164,5.164,0,0,1-5.039-5.043l-.507-36.586a5.112,5.112,0,0,1,1.476-3.627,4.928,4.928,0,0,1,3.565-1.533l36.578-.445a5.664,5.664,0,0,1,3.63,1.41,5.035,5.035,0,0,1,1.524,3.57l.457,36.582a4.837,4.837,0,0,1-1.415,3.637,5.051,5.051,0,0,1-3.568,1.521l-36.588.514Zm-2.209-5.043a2.053,2.053,0,0,0,.684,1.523,2.534,2.534,0,0,0,1.583.68l36.587-.508a1.978,1.978,0,0,0,1.58-.686,1.827,1.827,0,0,0,.629-1.578l-.455-36.584a2.038,2.038,0,0,0-.677-1.588,1.647,1.647,0,0,0-1.587-.625l-36.64.451a2.068,2.068,0,0,0-1.533.684,2.047,2.047,0,0,0-.676,1.586Zm4.478-2.332-.45-32.105,32.107-.453.453,32.117Zm2.438-29.322.338,26.439,26.445-.344-.34-26.445Z" transform="translate(-760.618 -1535.461)" fill="#fff"/>
        <path id="Trazado_58906" data-name="Trazado 58906" d="M802.1,1615.348l-36.641.459a3.739,3.739,0,0,0-3.623,3.742l.511,36.58a3.68,3.68,0,0,0,3.678,3.627l36.644-.516a3.616,3.616,0,0,0,3.622-3.617v-.064l-.506-36.584a3.631,3.631,0,0,0-3.628-3.627Zm-3.172,36.645-29.335.4-.339-29.277,29.278-.395Z" transform="translate(-760.478 -1612.679)" fill="#fff"/>
        <path id="Trazado_58907" data-name="Trazado 58907" d="M767.1,1662.336a5.146,5.146,0,0,1-5.045-5.041l-.449-36.58a4.815,4.815,0,0,1,1.412-3.635,5.158,5.158,0,0,1,3.573-1.525l36.581-.453h0a4.8,4.8,0,0,1,3.626,1.416,5.043,5.043,0,0,1,1.53,3.576l.509,36.633a4.963,4.963,0,0,1-1.475,3.57,4.67,4.67,0,0,1-3.568,1.525l-36.579.514Zm36.129-44.4-36.582.449a2.255,2.255,0,0,0-1.588.676,1.992,1.992,0,0,0-.624,1.6l.453,36.633a2.167,2.167,0,0,0,.684,1.576,2.927,2.927,0,0,0,1.578.629l36.645-.514a2.022,2.022,0,0,0,1.529-.664,2.061,2.061,0,0,0,.68-1.6l-.512-36.576a2.049,2.049,0,0,0-.677-1.594,2.766,2.766,0,0,0-1.586-.617Zm-33.979,37.031-.451-32.1,32.108-.4.454,32.105Zm2.438-29.336.339,26.443,26.444-.338-.338-26.447Z" transform="translate(-761.599 -1613.852)" fill="#fff"/>
        <path id="Trazado_58908" data-name="Trazado 58908" d="M822.594,1618.752a3.623,3.623,0,0,0-3.624-3.623h-.058l-36.644.455a3.73,3.73,0,0,0-3.619,3.73l.509,36.586a3.622,3.622,0,0,0,3.622,3.627h.058l36.642-.451a3.681,3.681,0,0,0,3.566-3.736Zm-6.911,33.012-29.275.4-.4-29.271,29.335-.4Z" transform="translate(-682.087 -1613.711)" fill="#fff"/>
        <path id="Trazado_58909" data-name="Trazado 58909" d="M783.948,1662.109a5.075,5.075,0,0,1-3.511-1.414,4.969,4.969,0,0,1-1.527-3.568l-.511-36.635a5.157,5.157,0,0,1,1.467-3.635,5.255,5.255,0,0,1,3.571-1.521l36.581-.455a4.791,4.791,0,0,1,3.628,1.418,5.032,5.032,0,0,1,1.531,3.564l.449,36.643a4.883,4.883,0,0,1-1.413,3.623,5.238,5.238,0,0,1-3.566,1.533l-36.586.447Zm36.133-44.4h0l-36.644.459a2.33,2.33,0,0,0-2.209,2.264l.51,36.641a2.181,2.181,0,0,0,.683,1.592,2.419,2.419,0,0,0,1.587.613l36.863-.506a2.516,2.516,0,0,0,1.589-.678,2.051,2.051,0,0,0,.625-1.639l-.458-36.592a2.078,2.078,0,0,0-.679-1.586A2.251,2.251,0,0,0,820.081,1617.709ZM786.1,1654.752l-.393-32.109,32.109-.4.451,32.107Zm2.494-29.332.343,26.5,26.438-.4-.334-26.455Z" transform="translate(-683.256 -1614.876)" fill="#fff"/>
        <path id="Trazado_58910" data-name="Trazado 58910" d="M823.272,1672.145l-.453-36.641a3.687,3.687,0,0,0-3.741-3.564l-36.581.455a3.732,3.732,0,0,0-3.627,3.74l.513,36.578a3.607,3.607,0,0,0,3.625,3.615h.053l36.645-.5a3.568,3.568,0,0,0,3.567-3.568Zm-7.364-3.568-29.279.4-.4-29.275,29.279-.4Z" transform="translate(-681.062 -1535.326)" fill="#fff"/>
        <path id="Trazado_58911" data-name="Trazado 58911" d="M784.172,1678.922a4.83,4.83,0,0,1-3.512-1.461,4.728,4.728,0,0,1-1.532-3.576l-.508-36.588a5.142,5.142,0,0,1,1.475-3.629,4.953,4.953,0,0,1,3.563-1.523l36.588-.447a4.613,4.613,0,0,1,3.621,1.414,4.984,4.984,0,0,1,1.528,3.566l.457,36.639a4.722,4.722,0,0,1-1.42,3.574,4.82,4.82,0,0,1-3.562,1.527l-36.643.5Zm36.129-44.393h0l-36.643.451a2.244,2.244,0,0,0-1.58.68,2.447,2.447,0,0,0-.629,1.582l.513,36.643a2.187,2.187,0,0,0,.681,1.584,2.446,2.446,0,0,0,1.585.623l36.583-.5a1.971,1.971,0,0,0,1.585-.693,2.166,2.166,0,0,0,.624-1.578l-.452-36.586a2.019,2.019,0,0,0-.683-1.584A2.344,2.344,0,0,0,820.3,1634.529Zm-33.98,37.029-.4-32.113,32.114-.445.4,32.166Zm2.494-29.33.341,26.445,26.446-.336-.338-26.449Z" transform="translate(-682.231 -1536.496)" fill="#fff"/>
        <path id="Trazado_58912" data-name="Trazado 58912" d="M775.609,1634.77H768.3a3.74,3.74,0,0,0-3.623,3.74v7.3a3.684,3.684,0,0,0,3.679,3.627h7.365a3.681,3.681,0,0,0,3.623-3.689v-7.355A3.734,3.734,0,0,0,775.609,1634.77Z" transform="translate(-747.235 -1522.126)" fill="#fff"/>
        <path id="Trazado_58913" data-name="Trazado 58913" d="M769.547,1652.035a5.151,5.151,0,0,1-5.1-5.041v-7.309a5.077,5.077,0,0,1,1.473-3.617,4.923,4.923,0,0,1,3.569-1.529h7.3a5.713,5.713,0,0,1,3.627,1.473,5.015,5.015,0,0,1,1.523,3.564v7.309a5.132,5.132,0,0,1-5.035,5.15h-7.364Zm7.193-14.787h-7.362a2.331,2.331,0,0,0-2.21,2.273v7.363a2.324,2.324,0,0,0,2.265,2.209h7.308a1.99,1.99,0,0,0,1.582-.686,2.124,2.124,0,0,0,.68-1.584v-7.3a2.254,2.254,0,0,0-.68-1.592A1.958,1.958,0,0,0,776.74,1637.248Z" transform="translate(-748.305 -1523.193)" fill="#fff"/>
        <path id="Trazado_58914" data-name="Trazado 58914" d="M768.218,1632.59h7.309a3.665,3.665,0,0,0,3.624-3.67v-7.359a3.614,3.614,0,0,0-3.684-3.572h-7.36a3.728,3.728,0,0,0-3.628,3.736v7.309A3.725,3.725,0,0,0,768.218,1632.59Z" transform="translate(-748.164 -1600.371)" fill="#fff"/>
        <path id="Trazado_58915" data-name="Trazado 58915" d="M769.324,1635.232a5.148,5.148,0,0,1-5.095-5.037v-7.312a5.156,5.156,0,0,1,1.475-3.619,5.287,5.287,0,0,1,3.566-1.533h7.3a4.975,4.975,0,0,1,3.628,1.414,5.026,5.026,0,0,1,1.528,3.572v7.314a5.075,5.075,0,0,1-1.473,3.613,4.888,4.888,0,0,1-3.565,1.527h-7.307Zm7.191-14.723h-7.3a2.3,2.3,0,0,0-1.588.67,2.236,2.236,0,0,0-.676,1.588v7.365a2.206,2.206,0,0,0,2.208,2.213h7.413a2.344,2.344,0,0,0,2.209-2.266v-7.312a2.036,2.036,0,0,0-.681-1.588A2.185,2.185,0,0,0,776.516,1620.51Z" transform="translate(-749.332 -1601.587)" fill="#fff"/>
        <path id="Trazado_58916" data-name="Trazado 58916" d="M784.884,1632.373h7.361a3.678,3.678,0,0,0,3.624-3.68v-7.307a3.671,3.671,0,0,0-3.736-3.617h-7.249a3.731,3.731,0,0,0-3.624,3.73v7.309A3.621,3.621,0,0,0,784.884,1632.373Z" transform="translate(-669.917 -1601.397)" fill="#fff"/>
        <path id="Trazado_58917" data-name="Trazado 58917" d="M786.1,1634.984a5.094,5.094,0,0,1-5.1-4.99v-7.355a5,5,0,0,1,1.473-3.568,4.644,4.644,0,0,1,3.567-1.52h7.307a5.09,5.09,0,0,1,5.095,4.969v7.367a5.124,5.124,0,0,1-5.04,5.1Zm7.189-14.725h-7.361a2.227,2.227,0,0,0-1.527.621,2.257,2.257,0,0,0-.68,1.639v7.313a2.3,2.3,0,0,0,2.267,2.205h7.3a2.31,2.31,0,0,0,2.264-2.264v-7.3a2.207,2.207,0,0,0-2.023-2.377h-.013Z" transform="translate(-671.13 -1602.424)" fill="#fff"/>
        <path id="Trazado_58918" data-name="Trazado 58918" d="M785.232,1649.188h7.361a3.624,3.624,0,0,0,3.569-3.684h0v-7.363a3.683,3.683,0,0,0-3.738-3.562h-7.3a3.726,3.726,0,0,0-3.62,3.73v7.311A3.676,3.676,0,0,0,785.232,1649.188Z" transform="translate(-668.798 -1523.006)" fill="#fff"/>
        <path id="Trazado_58919" data-name="Trazado 58919" d="M786.3,1651.818a5.094,5.094,0,0,1-5.042-5.039v-7.307a5.093,5.093,0,0,1,5.042-5.154h7.361a5.1,5.1,0,0,1,5.094,4.988v7.293a4.782,4.782,0,0,1-1.418,3.629,5,5,0,0,1-3.567,1.529h-7.3Zm7.245-14.73h-7.361a2.573,2.573,0,0,0-1.582.68,2.413,2.413,0,0,0-.625,1.59v7.365a2.264,2.264,0,0,0,2.207,2.209h7.306a2,2,0,0,0,1.584-.686,2.17,2.17,0,0,0,.626-1.586v-7.3A2.269,2.269,0,0,0,793.547,1637.088Z" transform="translate(-669.916 -1524.227)" fill="#fff"/>
        <path id="Trazado_58920" data-name="Trazado 58920" d="M764.6,1632.521a3.681,3.681,0,0,0,3.682,3.627l47.62-.629v18.3a3.684,3.684,0,0,0,7.312.91,3.549,3.549,0,0,0,0-.91l-.28-21.973a3.63,3.63,0,0,0-3.624-3.625h-.064l-50.963.668a3.585,3.585,0,0,0-3.682,3.461Z" transform="translate(-747.605 -1552.664)" fill="#fff"/>
        <path id="Trazado_58921" data-name="Trazado 58921" d="M820.794,1660.121a5.136,5.136,0,0,1-3.567-1.414,4.993,4.993,0,0,1-1.529-3.566v-16.992l-46.156.617a5.027,5.027,0,0,1-5.151-4.918v-.115h0a5.036,5.036,0,0,1,4.982-5.1h0l50.967-.686a5.039,5.039,0,0,1,5.153,4.934v.055l.28,21.969a4.8,4.8,0,0,1-1.413,3.627,5,5,0,0,1-3.565,1.533Zm-2.549-24.75v19.709a2.131,2.131,0,0,0,.679,1.584,2.813,2.813,0,0,0,1.584.625,2,2,0,0,0,1.588-.68,2.208,2.208,0,0,0,.623-1.582l-.285-21.975a2.318,2.318,0,0,0-2.264-2.213l-50.969.676a2.223,2.223,0,0,0-2.21,2.217v.055h0a2.195,2.195,0,0,0,.681,1.584,2.319,2.319,0,0,0,1.587.633Z" transform="translate(-748.587 -1553.93)" fill="#fff"/>
        <path id="Trazado_58922" data-name="Trazado 58922" d="M802.35,1632.994a3.627,3.627,0,0,0,3.623-3.619v-.061a3.737,3.737,0,0,0-3.735-3.625l-36.585.461a3.677,3.677,0,1,0,0,7.354h0Z" transform="translate(-759.87 -1564.47)" fill="#fff"/>
        <path id="Trazado_58923" data-name="Trazado 58923" d="M766.825,1636.1a5.1,5.1,0,0,1-.113-10.2l36.642-.455a4.99,4.99,0,0,1,5.156,4.809v.232a5.029,5.029,0,0,1-1.476,3.57,4.864,4.864,0,0,1-3.565,1.527l-36.585.518Zm36.585-7.826h0l-36.64.463a2.309,2.309,0,0,0-2.207,2.318,2.149,2.149,0,0,0,.68,1.58,2.625,2.625,0,0,0,1.582.627l36.644-.508a2.331,2.331,0,0,0,2.208-2.27,2.274,2.274,0,0,0-2.267-2.211Z" transform="translate(-760.988 -1565.631)" fill="#fff"/>
        <path id="Trazado_58924" data-name="Trazado 58924" d="M774.29,1633.006h14.668a3.679,3.679,0,1,0,0-7.357h-14.61a3.681,3.681,0,0,0,0,7.307Z" transform="translate(-717.2 -1564.648)" fill="#fff"/>
        <path id="Trazado_58925" data-name="Trazado 58925" d="M775.871,1635.545a5.037,5.037,0,0,1-5.092-4.982v-.051a5.031,5.031,0,0,1,4.984-5.1h14.668a4.691,4.691,0,0,1,3.618,1.473,4.921,4.921,0,0,1,1.53,3.564,5.092,5.092,0,0,1-5.041,5.154h-14.61Zm14.611-7.52H775.82a2.239,2.239,0,0,0-2.175,2.338,2.2,2.2,0,0,0,.644,1.5,3.32,3.32,0,0,0,1.582.621h14.668a2.25,2.25,0,0,0,1.534-3.855,2.151,2.151,0,0,0-1.591-.607Z" transform="translate(-718.786 -1565.776)" fill="#fff"/>
        <path id="Trazado_58926" data-name="Trazado 58926" d="M774.466,1615.309a3.687,3.687,0,0,0-3.566,3.738l.454,36.586a3.617,3.617,0,0,0,3.624,3.625h.053l25.654-.344v18.3a3.675,3.675,0,0,0,3.736,3.621h14.611a3.68,3.68,0,0,0,3.625-3.732h0a3.611,3.611,0,0,0-3.675-3.566H808l-.289-18.3a3.612,3.612,0,0,0-3.624-3.615h-.055l-25.656.34L777.979,1619A3.75,3.75,0,0,0,774.466,1615.309Z" transform="translate(-718.227 -1612.868)" fill="#fff"/>
        <path id="Trazado_58927" data-name="Trazado 58927" d="M805.575,1683.736a5.1,5.1,0,0,1-5.094-4.979v-16.99H776.3a5.1,5.1,0,0,1-5.1-4.988l-.453-36.633a5.1,5.1,0,0,1,4.982-5.156h0a5.157,5.157,0,0,1,5.1,5.041l.393,31.537,24.242-.328a4.978,4.978,0,0,1,5.1,4.867v17.16h9.563a4.922,4.922,0,0,1,5.15,4.693c.007.09.007.191.007.285a5.039,5.039,0,0,1-4.927,5.16H805.635Zm-2.484-24.742V1678.7a2.149,2.149,0,0,0,2.088,2.217c.057,0,.115,0,.169,0h14.675a2.214,2.214,0,0,0,2.205-2.213v-.049a2.148,2.148,0,0,0-2.087-2.215.92.92,0,0,0-.18,0h-12.4l-.281-19.707a2.32,2.32,0,0,0-2.27-2.209l-27.017.338-.451-34.316a2.266,2.266,0,0,0-2.262-2.27h0a2.273,2.273,0,0,0-2.21,2.27l.454,36.635a2.313,2.313,0,0,0,2.263,2.211Z" transform="translate(-718.926 -1614.363)" fill="#fff"/>
        <path id="Trazado_58928" data-name="Trazado 58928" d="M806.975,1625.469l-21.971.289a3.681,3.681,0,0,0,.111,7.361h21.973a3.828,3.828,0,0,0,.065-7.641Z" transform="translate(-669.359 -1565.493)" fill="#fff"/>
        <path id="Trazado_58929" data-name="Trazado 58929" d="M786.216,1635.7a4.933,4.933,0,0,1-3.57-1.459,5.272,5.272,0,0,1-1.525-3.572,5.15,5.15,0,0,1,5.038-5.154l21.973-.3a5.1,5.1,0,0,1,0,10.2H786.158Zm21.915-7.635-21.973.285a2.309,2.309,0,0,0-2.208,2.254,2.273,2.273,0,0,0,.68,1.592,3.3,3.3,0,0,0,1.586.682h21.971a2.264,2.264,0,1,0-.056-4.527Z" transform="translate(-670.568 -1566.655)" fill="#fff"/>
        <path id="Trazado_58930" data-name="Trazado 58930" d="M819.01,1628.082l-36.585.463a3.73,3.73,0,0,0-3.625,3.73,3.69,3.69,0,0,0,3.736,3.572l36.588-.451a3.685,3.685,0,0,0,.908-7.314,3.923,3.923,0,0,0-.908,0Z" transform="translate(-681.391 -1553.437)" fill="#fff"/>
        <path id="Trazado_58931" data-name="Trazado 58931" d="M783.667,1638.461a5.1,5.1,0,0,1,0-10.2l36.585-.455a5.735,5.735,0,0,1,3.624,1.416,5.086,5.086,0,0,1-3.514,8.721h0l-36.58.516Zm36.585-7.812-36.637.451a2.215,2.215,0,0,0-2.212,2.258,2.2,2.2,0,0,0,2.153,2.268h.11l36.639-.5a2.213,2.213,0,0,0,2.212-2.211v-.057a2.3,2.3,0,0,0-.68-1.594A2,2,0,0,0,820.252,1630.648Z" transform="translate(-682.463 -1554.582)" fill="#fff"/>
        <path id="Trazado_58932" data-name="Trazado 58932" d="M789.4,1634.629H774.795a3.619,3.619,0,0,0-3.621,3.619v22.039a3.68,3.68,0,1,0,7.3.91,3.94,3.94,0,0,0,0-.91v-18.3h10.99a3.681,3.681,0,0,0,0-7.361Z" transform="translate(-717.087 -1522.777)" fill="#fff"/>
        <path id="Trazado_58933" data-name="Trazado 58933" d="M776,1666.57a5.153,5.153,0,0,1-5.042-5.037v-21.912a4.829,4.829,0,0,1,1.415-3.637,5.121,5.121,0,0,1,3.567-1.525h14.67a5.224,5.224,0,0,1,5.154,5.045,5.145,5.145,0,0,1-5.043,5.15h-9.567v16.986a5.34,5.34,0,0,1-1.414,3.633,5.026,5.026,0,0,1-3.573,1.523Zm14.324-29.5H775.714a2.032,2.032,0,0,0-1.587.684,2.147,2.147,0,0,0-.627,1.58V1661.3a2.207,2.207,0,0,0,.68,1.59,2.578,2.578,0,0,0,1.591.617,2.321,2.321,0,0,0,1.585-.68,2.413,2.413,0,0,0,.621-1.582v-19.705h12.343a2.267,2.267,0,1,0,0-4.533Z" transform="translate(-717.997 -1523.57)" fill="#fff"/>
        <path id="Trazado_58934" data-name="Trazado 58934" d="M788.387,1675.094H777.4a3.682,3.682,0,0,0,.11,7.363h14.614a3.629,3.629,0,0,0,3.625-3.623v-.062l-.57-43.947a3.681,3.681,0,1,0-7.3,0Z" transform="translate(-704.794 -1541.155)" fill="#fff"/>
        <path id="Trazado_58935" data-name="Trazado 58935" d="M778.628,1685.127a5.15,5.15,0,0,1-5.1-5.041,5.131,5.131,0,0,1,5.041-5.156h9.569l-.508-38.836A5.1,5.1,0,1,1,797.768,1635a5.512,5.512,0,0,1,0,1.092l.566,43.881a5.044,5.044,0,0,1-4.929,5.152H778.628Zm14.04-51.479h0a2.208,2.208,0,0,0-2.205,2.205v.053l.508,41.7H778.628a2.236,2.236,0,0,0-1.587.674,2.27,2.27,0,0,0,.029,3.207,2.221,2.221,0,0,0,1.614.629h14.607a2.2,2.2,0,0,0,2.21-2.2v-.064l-.564-43.945a2.265,2.265,0,0,0-2.27-2.258h0Z" transform="translate(-705.964 -1542.302)" fill="#fff"/>
        <path id="Trazado_58936" data-name="Trazado 58936" d="M792.251,1644.234a3.666,3.666,0,0,0,3.625-3.736h0v-21.973a3.683,3.683,0,0,0-7.307,0v18.3H777.584a3.678,3.678,0,0,0-.909,7.3,3.541,3.541,0,0,0,.909,0Z" transform="translate(-706.335 -1612.859)" fill="#fff"/>
        <path id="Trazado_58937" data-name="Trazado 58937" d="M778.818,1647.229a5.1,5.1,0,1,1-1.067-10.141,6.492,6.492,0,0,1,1.067,0h9.575V1620.1a5.023,5.023,0,0,1,4.979-5.086h0a5.088,5.088,0,0,1,5.1,4.973v21.971a5.266,5.266,0,0,1-1.417,3.627,5.029,5.029,0,0,1-3.566,1.533H778.818Zm14.33-29.453h0a2.215,2.215,0,0,0-2.21,2.207v19.768h-12.4a2.214,2.214,0,0,0-2.211,2.2v.053a2.33,2.33,0,0,0,2.27,2.217h14.668a2.321,2.321,0,0,0,1.582-.68,2.416,2.416,0,0,0,.625-1.59v-21.971a2.207,2.207,0,0,0-2.2-2.207Z" transform="translate(-707.574 -1614.266)" fill="#fff"/>
      </g>
      <g id="Trazado_60723" data-name="Trazado 60723" transform="translate(-5930.156 -21613.904)" fill="#101315">
        <path d="M 87.09181213378906 104.0101699829102 C 75.37594604492188 104.0101699829102 64.01168060302734 102.6337356567383 53.31474685668945 99.91905975341797 C 48.17618179321289 98.61502075195312 43.22066116333008 97.00119018554688 38.58578872680664 95.12245178222656 C 33.99805068969727 93.26280212402344 29.68478965759277 91.12763214111328 25.76585578918457 88.77626037597656 C 21.85126876831055 86.42752075195312 18.29839897155762 83.84401702880859 15.20594215393066 81.09756469726562 C 12.08920383453369 78.32952117919922 9.41337776184082 75.37197875976562 7.252768516540527 72.30704498291016 C 5.057159900665283 69.19241333007812 3.371507883071899 65.93489074707031 2.242638111114502 62.62491226196289 C 1.086312174797058 59.23440933227539 0.5000078082084656 55.74549865722656 0.5000078082084656 52.25508499145508 C 0.5000078082084656 48.76467132568359 1.086312174797058 45.27576065063477 2.242638111114502 41.88525772094727 C 3.371507883071899 38.57530212402344 5.057159900665283 35.3177604675293 7.252768516540527 32.20312881469727 C 9.41337776184082 29.13821601867676 12.08920383453369 26.18065071105957 15.20594215393066 23.41262817382812 C 18.29839897155762 20.66615104675293 21.85126876831055 18.08265113830566 25.76585578918457 15.73391151428223 C 29.68478965759277 13.38254165649414 33.99805068969727 11.24736785888672 38.58578872680664 9.387737274169922 C 43.22066116333008 7.508976459503174 48.17618179321289 5.895150184631348 53.31474685668945 4.59110689163208 C 64.01168060302734 1.876454591751099 75.37594604492188 0.4999980330467224 87.09181213378906 0.4999980330467224 C 98.80767822265625 0.4999980330467224 110.1719436645508 1.876454591751099 120.8688735961914 4.59110689163208 C 126.0074462890625 5.895150184631348 130.9629669189453 7.508976459503174 135.5978393554688 9.387737274169922 C 140.1855773925781 11.24736785888672 144.4988403320312 13.38254165649414 148.4177703857422 15.73391151428223 C 152.3323516845703 18.08265113830566 155.8852233886719 20.66615104675293 158.9776763916016 23.41262817382812 C 162.0944213867188 26.18065071105957 164.7702484130859 29.13821601867676 166.9308624267578 32.20312881469727 C 169.12646484375 35.3177604675293 170.8121185302734 38.57530212402344 171.9409790039062 41.88525772094727 C 173.0973052978516 45.27576065063477 173.6836090087891 48.76467132568359 173.6836090087891 52.25508499145508 C 173.6836090087891 55.74549865722656 173.0973052978516 59.23440933227539 171.9409790039062 62.62491226196289 C 170.8121185302734 65.93489074707031 169.12646484375 69.19241333007812 166.9308624267578 72.30704498291016 C 164.7702484130859 75.37197875976562 162.0944213867188 78.32952117919922 158.9776763916016 81.09756469726562 C 155.8852233886719 83.84401702880859 152.3323516845703 86.42752075195312 148.4177703857422 88.77626037597656 C 144.4988403320312 91.12763214111328 140.1855773925781 93.26280212402344 135.5978393554688 95.12245178222656 C 130.9629669189453 97.00119018554688 126.0074462890625 98.61502075195312 120.8688735961914 99.91905975341797 C 110.1719436645508 102.6337356567383 98.80767822265625 104.0101699829102 87.09181213378906 104.0101699829102 Z" stroke="none"/>
        <path d="M 87.09181213378906 0.9999923706054688 C 39.62063598632812 0.9999923706054688 1 23.99292755126953 1 52.25508499145508 C 1 80.51724243164062 39.62063598632812 103.5101776123047 87.09181213378906 103.5101776123047 C 134.56298828125 103.5101776123047 173.1836242675781 80.51724243164062 173.1836242675781 52.25508499145508 C 173.1836242675781 23.99292755126953 134.56298828125 0.9999923706054688 87.09181213378906 0.9999923706054688 M 87.09181213378906 -7.62939453125e-06 C 135.1912841796875 -7.62939453125e-06 174.1836242675781 23.39540100097656 174.1836242675781 52.25508499145508 C 174.1836242675781 81.11476898193359 135.1912841796875 104.5101776123047 87.09181213378906 104.5101776123047 C 38.9923095703125 104.5101776123047 0 81.11476898193359 0 52.25508499145508 C 0 23.39540100097656 38.9923095703125 -7.62939453125e-06 87.09181213378906 -7.62939453125e-06 Z" stroke="none" fill="#101315"/>
      </g>
    </g>
  </g>
</svg>
