<svg xmlns="http://www.w3.org/2000/svg" xmlns:xlink="http://www.w3.org/1999/xlink" width="826" height="779" viewBox="0 0 826 779">
  <defs>
    <clipPath id="clip-Web_1920_24">
      <rect width="826" height="779"/>
    </clipPath>
  </defs>
  <g id="Web_1920_24" data-name="Web 1920 – 24" clip-path="url(#clip-Web_1920_24)">
    <rect width="826" height="779" fill="#fff"/>
    <g id="Grupo_75774" data-name="Grupo 75774" transform="translate(-1726.846 21644.725)">
      <g id="Rectángulo_14143" data-name="Rectángulo 14143" transform="translate(1946.138 -21496.049)" fill="#f8f8fc" stroke="#000" stroke-width="5">
        <rect width="389.323" height="482.65" stroke="none"/>
        <rect x="2.5" y="2.5" width="384.323" height="477.65" fill="none"/>
      </g>
      <g id="Grupo_75773" data-name="Grupo 75773" transform="translate(1945.56 -21496.449)">
        <g id="Grupo_75771" data-name="Grupo 75771" transform="translate(16.996 8.496)">
          <path id="Trazado_56610" data-name="Trazado 56610" d="M5,469.441H5V59.295L61.295,3H358.852V115.589C358.852,311.016,200.427,469.441,5,469.441Z" transform="translate(-5 -3)" fill="#f8f8fc"/>
          <rect id="Rectángulo_14138" data-name="Rectángulo 14138" width="185.919" height="16.902" transform="translate(58.615 199.416)"/>
          <path id="Trazado_56613" data-name="Trazado 56613" d="M45.566,12V45.849L34.283,38.327,23,45.849V12Z" transform="translate(142.641 95.716)"/>
          <path id="Trazado_56617" data-name="Trazado 56617" d="M14.681,130.463H13v16.084h1.681a61.861,61.861,0,0,0,44.006-18.223l1.858-1.858a62.077,62.077,0,0,0,45.784,20.081h11.219V130.463H106.328A45.928,45.928,0,0,1,73.7,116.791,48.679,48.679,0,0,0,85.379,82.21C85.379,59.282,75,42,61.252,42S37.126,59.282,37.126,82.21A49.861,49.861,0,0,0,48.08,116.188l-.764.764A45.888,45.888,0,0,1,14.681,130.463ZM61.252,58.084c2,0,8.042,8.557,8.042,24.126s-6.04,24.126-8.042,24.126S53.21,97.78,53.21,82.21,59.25,58.084,61.252,58.084Z" transform="translate(34.466 288.538)"/>
          <rect id="Rectángulo_14141" data-name="Rectángulo 14141" width="185.919" height="16.902" transform="translate(92.426 165.605)"/>
          <rect id="Rectángulo_14142" data-name="Rectángulo 14142" width="185.919" height="16.902" transform="translate(92.426 233.209)"/>
          <g id="Grupo_61168" data-name="Grupo 61168" transform="translate(140.801 28.164)">
            <path id="Trazado_3" data-name="Trazado 3" d="M384.083,600.17a21.305,21.305,0,0,1-8.352-1.69,21.559,21.559,0,0,1-7.077-4.8,22.382,22.382,0,0,1,0-31.34,21.565,21.565,0,0,1,7.077-4.8,21.529,21.529,0,0,1,16.7,0,21.553,21.553,0,0,1,7.077,4.8,22.013,22.013,0,0,1,4.734,7.188,22.5,22.5,0,0,1,0,16.964,22.079,22.079,0,0,1-4.734,7.189,21.68,21.68,0,0,1-15.424,6.491Zm35.8-15.061-4.724-6.573a1.083,1.083,0,0,1,0-1.446l4.662-6.574a1.169,1.169,0,0,0-.452-1.844l-7.057-3.81a1.226,1.226,0,0,1-.65-1.318l1.359-8.02a1.16,1.16,0,0,0-1.165-1.45l-8.027-.328a1.067,1.067,0,0,1-1.1-.918l-2.265-7.824a1.165,1.165,0,0,0-1.62-.794l-7.383,3.224a1.233,1.233,0,0,1-1.42,0l-5.311-6.052a1.2,1.2,0,0,0-1.877.007l-5.244,6.176a1.128,1.128,0,0,1-1.363,0l-7.445-3.089a1.091,1.091,0,0,0-.989.006,1.133,1.133,0,0,0-.626.784l-2.139,7.823a1.058,1.058,0,0,1-1.1.918l-8.028.463a1.093,1.093,0,0,0-1.1,1.446l1.425,8.025a1.081,1.081,0,0,1-.587,1.311l-6.991,3.948a1.107,1.107,0,0,0-.456,1.777L353,577.553a1.1,1.1,0,0,1,0,1.38l-4.662,6.574a1.1,1.1,0,0,0,.456,1.773l7.057,3.818a1.226,1.226,0,0,1,.645,1.315l-1.359,8.019c-.15.93.239,1.409,1.165,1.448h8.027a1.131,1.131,0,0,1,1.1.917l2.265,7.83a1.138,1.138,0,0,0,.626.778,1.1,1.1,0,0,0,.995.01l7.382-3.222a1.253,1.253,0,0,1,1.426.332l5.307,6.045a1.192,1.192,0,0,0,1.877,0l5.243-6.182a1.136,1.136,0,0,1,1.364-.326l7.445,3.088a1.092,1.092,0,0,0,.989-.005,1.142,1.142,0,0,0,.631-.784l2.135-7.823a1.063,1.063,0,0,1,1.1-.92l8.027-.462a1.093,1.093,0,0,0,1.1-1.446l-1.422-8.018a1.078,1.078,0,0,1,.582-1.317l7.057-3.946a1.1,1.1,0,0,0,.321-1.317Z" transform="translate(-347.939 -540.933)"/>
            <path id="Trazado_6" data-name="Trazado 6" d="M379.9,553.468l-8.221-.585-3.11-6.865a1.747,1.747,0,0,0-3.172,0l-3.109,6.865-8.221.585a1.529,1.529,0,0,0-1.582,1.06,1.333,1.333,0,0,0,.612,1.7l6.474,4.809-2.009,7.214a1.406,1.406,0,0,0,.685,1.616,1.747,1.747,0,0,0,1.907.088l6.994-3.931,6.99,3.931a1.67,1.67,0,0,0,1.975,0,1.336,1.336,0,0,0,.615-1.7l-1.941-7.214,6.474-4.809a1.362,1.362,0,0,0,.432-1.83,1.625,1.625,0,0,0-1.794-.928Z" transform="translate(-330.816 -520.747)"/>
          </g>
          <path id="Trazado_56620" data-name="Trazado 56620" d="M17.725,109.475a5.953,5.953,0,0,1-5.856-6.991L16.075,78.64a5.972,5.972,0,0,1,1.65-3.174L76.641,16.557c7.237-7.252,14.346-5.293,18.234-1.4l9.815,9.815a13.893,13.893,0,0,1,0,19.639L45.775,103.523a5.863,5.863,0,0,1-3.174,1.65l-23.844,4.205A5.67,5.67,0,0,1,17.725,109.475ZM41.569,99.318h0Z" transform="translate(165.159 322.257)"/>
        </g>
        <g id="Trazado_60139" data-name="Trazado 60139" transform="translate(0 0)" fill="none">
          <path d="M0,0H390.479V483.45H0Z" stroke="none"/>
          <path d="M 1 0.999969482421875 L 1 482.4501647949219 L 389.47900390625 482.4501647949219 L 389.47900390625 0.999969482421875 L 1 0.999969482421875 M 0 -3.0517578125e-05 L 390.47900390625 -3.0517578125e-05 L 390.47900390625 483.4501647949219 L 0 483.4501647949219 L 0 -3.0517578125e-05 Z" stroke="none" fill="#000"/>
        </g>
      </g>
    </g>
  </g>
</svg>
