<svg xmlns="http://www.w3.org/2000/svg" xmlns:xlink="http://www.w3.org/1999/xlink" width="826" height="779" viewBox="0 0 826 779">
  <defs>
    <clipPath id="clip-Web_1920_12">
      <rect width="826" height="779"/>
    </clipPath>
  </defs>
  <g id="Web_1920_12" data-name="Web 1920 – 12" clip-path="url(#clip-Web_1920_12)">
    <rect width="826" height="779" fill="#fff"/>
    <g id="Grupo_75734" data-name="Grupo 75734" transform="translate(250.537 172.52)">
      <path id="Trazado_3" data-name="Trazado 3" d="M511.342,808.736a96.355,96.355,0,0,1-37.76-7.645,97.54,97.54,0,0,1-31.994-21.7,101.18,101.18,0,0,1,0-141.682A97.462,97.462,0,0,1,473.582,616a97.29,97.29,0,0,1,75.5,0,97.473,97.473,0,0,1,31.993,21.7,99.569,99.569,0,0,1,21.4,32.5,101.148,101.148,0,0,1-21.4,109.185,98.019,98.019,0,0,1-69.731,29.348Zm161.851-68.087-21.358-29.717a4.9,4.9,0,0,1,0-6.539l21.073-29.716q3.256-5.238-2.04-8.335l-31.906-17.231a5.529,5.529,0,0,1-2.937-5.946l6.14-36.257q.625-5.971-5.262-6.562l-36.291-1.477a4.83,4.83,0,0,1-4.978-4.154l-10.242-35.369a5.265,5.265,0,0,0-7.324-3.589l-33.374,14.576a5.6,5.6,0,0,1-6.425,0l-24.011-27.357q-4.244-4.093-8.486.023l-23.7,27.923a5.112,5.112,0,0,1-6.162,0l-33.658-13.962a4.956,4.956,0,0,0-4.472.025,5.127,5.127,0,0,0-2.831,3.54L425.275,595.9a4.793,4.793,0,0,1-4.978,4.152l-36.292,2.089c-3.967.369-5.613,2.558-4.976,6.539l6.447,36.28a4.881,4.881,0,0,1-2.654,5.924l-31.6,17.847q-5.3,2.874-2.062,8.034l21.665,29.719a4.972,4.972,0,0,1,0,6.243l-21.072,29.718c-2.172,3.417-1.469,6.095,2.06,8.014l31.906,17.254a5.551,5.551,0,0,1,2.917,5.948L380.5,809.914c-.681,4.207,1.074,6.367,5.263,6.541h36.291a5.126,5.126,0,0,1,4.978,4.152L437.27,856a5.141,5.141,0,0,0,2.829,3.518,5.006,5.006,0,0,0,4.495.05l33.375-14.576a5.661,5.661,0,0,1,6.446,1.5l23.99,27.331q4.242,4.131,8.485,0l23.7-27.949a5.127,5.127,0,0,1,6.163-1.475l33.657,13.963a4.95,4.95,0,0,0,4.475-.025,5.156,5.156,0,0,0,2.85-3.538l9.649-35.373a4.808,4.808,0,0,1,4.977-4.152l36.291-2.09c3.969-.368,5.613-2.555,4.978-6.539l-6.425-36.256a4.866,4.866,0,0,1,2.631-5.948L671.745,746.6a4.974,4.974,0,0,0,1.448-5.949Z" transform="translate(-347.939 -540.933)"/>
      <path id="Trazado_4" data-name="Trazado 4" d="M427.285,554.464a29.821,29.821,0,0,1-20.2,7.7,42.608,42.608,0,0,1-8.2,0L375.776,555.8l-17.85,14.583-1.776,1.6,29.274,79.542a4.311,4.311,0,0,0,7.039,0l21.074-24.386a3.513,3.513,0,0,1,4.1,0l32.783,8.484a4.127,4.127,0,0,0,3.9-.964,3.3,3.3,0,0,0,1.073-3.529Z" transform="translate(-176.068 -218.443)"/>
      <path id="Trazado_5" data-name="Trazado 5" d="M429.475,555.73l-23.42,6.359a39.708,39.708,0,0,1-7.916,0,29.757,29.757,0,0,1-20.48-7.674L350.424,631.04a3.009,3.009,0,0,0,.833,3.771,3.8,3.8,0,0,0,4.145.747l32.5-8.488a3.5,3.5,0,0,1,4.385,0l20.789,24.123a4.305,4.305,0,0,0,7.323,0l29.273-79.562-1.754-1.316Z" transform="translate(-302.954 -219.471)"/>
      <path id="Trazado_6" data-name="Trazado 6" d="M476.784,583.272l-37.169-2.654L425.56,549.587c-1.184-3.048-3.573-4.584-7.17-4.584-3.574,0-5.964,1.536-7.17,4.584l-14.056,31.031L360,583.272c-3.662.044-6.029,1.623-7.149,4.779s-.2,5.725,2.763,7.678l29.274,21.754-9.078,32.61q-1.085,4.573,3.092,7.3a7.887,7.887,0,0,0,8.617.394l31.62-17.764,31.6,17.764a7.529,7.529,0,0,0,8.924,0c2.983-1.951,3.9-4.518,2.785-7.7l-8.771-32.61,29.273-21.754c2.874-2.327,3.53-5.067,1.952-8.269s-4.277-4.584-8.112-4.188Z" transform="translate(-254.853 -435.343)"/>
    </g>
  </g>
</svg>
