<svg height="143" overflow="visible" viewBox="-5 -5 143 143" width="143" xmlns="http://www.w3.org/2000/svg"><g><defs><path id="path-169954833306988" d="M66.49999999999996 0 C103.20234912885077 0 132.99999999999991 29.797650871148996 132.99999999999991 66.49999999999996 C132.99999999999991 103.20234912885077 103.20234912885077 132.99999999999991 66.49999999999996 132.99999999999991 C29.797650871148996 132.99999999999991 0 103.20234912885077 0 66.49999999999996 C0 29.797650871148996 29.797650871148996 0 66.49999999999996 0 Z" vector-effect="non-scaling-stroke"/></defs> <path style="stroke: rgb(0, 0, 0); stroke-width: 5; stroke-linecap: butt; stroke-linejoin: miter; fill: transparent;" d="M66.5 0 C103.20234912885076 0 133 29.797650871149017 133 66.49999999999994 C133 103.20234912885076 103.20234912885076 132.9999999999999 66.5 132.9999999999999 C29.797650871149017 132.9999999999999 0 103.20234912885076 0 66.49999999999994 C0 29.797650871149017 29.797650871149017 0 66.5 0 Z" vector-effect="non-scaling-stroke"/></g><g><defs><path id="path-169954833306886" d="M2061.500000000005 1102.791666666666 C2061.500000000005 1102.791666666666 2035.1770833333392 1088.9374999999998 2035.1770833333392 1088.9374999999998 C2035.1770833333392 1088.9374999999998 2035.1770833333392 1048.7604166666656 2035.1770833333392 1048.7604166666656" vector-effect="non-scaling-stroke"/></defs> <path style="stroke: rgb(0, 0, 0); stroke-width: 4; stroke-linecap: round; stroke-linejoin: miter; fill: none;" d="M92.82291666666583 83.12500000000045 C92.82291666666583 83.12500000000045 66.5 69.27083333333417 66.5 69.27083333333417 C66.5 69.27083333333417 66.5 29.09375 66.5 29.09375" vector-effect="non-scaling-stroke"/></g></svg>