<svg xmlns="http://www.w3.org/2000/svg" xmlns:xlink="http://www.w3.org/1999/xlink" width="826" height="779" viewBox="0 0 826 779">
  <defs>
    <filter id="Trazado_21306" x="405.289" y="405.097" width="78.922" height="67.354" filterUnits="userSpaceOnUse">
      <feOffset dx="3" dy="3" input="SourceAlpha"/>
      <feGaussianBlur stdDeviation="3" result="blur"/>
      <feFlood flood-opacity="0.322"/>
      <feComposite operator="in" in2="blur"/>
      <feComposite in="SourceGraphic"/>
    </filter>
    <filter id="Trazado_21307" x="453.246" y="425.443" width="38.896" height="39.83" filterUnits="userSpaceOnUse">
      <feOffset dx="3" dy="3" input="SourceAlpha"/>
      <feGaussianBlur stdDeviation="3" result="blur-2"/>
      <feFlood flood-opacity="0.322"/>
      <feComposite operator="in" in2="blur-2"/>
      <feComposite in="SourceGraphic"/>
    </filter>
    <filter id="Trazado_21308" x="460.57" y="430.461" width="52.723" height="49.649" filterUnits="userSpaceOnUse">
      <feOffset dx="3" dy="3" input="SourceAlpha"/>
      <feGaussianBlur stdDeviation="3" result="blur-3"/>
      <feFlood flood-opacity="0.322"/>
      <feComposite operator="in" in2="blur-3"/>
      <feComposite in="SourceGraphic"/>
    </filter>
    <filter id="Trazado_21309" x="492.971" y="425.443" width="38.896" height="39.83" filterUnits="userSpaceOnUse">
      <feOffset dx="3" dy="3" input="SourceAlpha"/>
      <feGaussianBlur stdDeviation="3" result="blur-4"/>
      <feFlood flood-opacity="0.322"/>
      <feComposite operator="in" in2="blur-4"/>
      <feComposite in="SourceGraphic"/>
    </filter>
    <filter id="Trazado_21310" x="498.703" y="411.705" width="89.934" height="57.427" filterUnits="userSpaceOnUse">
      <feOffset dx="3" dy="3" input="SourceAlpha"/>
      <feGaussianBlur stdDeviation="3" result="blur-5"/>
      <feFlood flood-opacity="0.322"/>
      <feComposite operator="in" in2="blur-5"/>
      <feComposite in="SourceGraphic"/>
    </filter>
    <filter id="Trazado_21311" x="527.711" y="431.762" width="48.021" height="31.215" filterUnits="userSpaceOnUse">
      <feOffset dx="3" dy="3" input="SourceAlpha"/>
      <feGaussianBlur stdDeviation="3" result="blur-6"/>
      <feFlood flood-opacity="0.322"/>
      <feComposite operator="in" in2="blur-6"/>
      <feComposite in="SourceGraphic"/>
    </filter>
    <filter id="Trazado_21312" x="554.65" y="403.446" width="61.182" height="61.211" filterUnits="userSpaceOnUse">
      <feOffset dx="3" dy="3" input="SourceAlpha"/>
      <feGaussianBlur stdDeviation="3" result="blur-7"/>
      <feFlood flood-opacity="0.322"/>
      <feComposite operator="in" in2="blur-7"/>
      <feComposite in="SourceGraphic"/>
    </filter>
    <filter id="Trazado_21313" x="585.984" y="402.48" width="88.654" height="68.479" filterUnits="userSpaceOnUse">
      <feOffset dx="3" dy="3" input="SourceAlpha"/>
      <feGaussianBlur stdDeviation="3" result="blur-8"/>
      <feFlood flood-opacity="0.322"/>
      <feComposite operator="in" in2="blur-8"/>
      <feComposite in="SourceGraphic"/>
    </filter>
    <filter id="Trazado_21314" x="606.895" y="425.443" width="38.896" height="39.83" filterUnits="userSpaceOnUse">
      <feOffset dx="3" dy="3" input="SourceAlpha"/>
      <feGaussianBlur stdDeviation="3" result="blur-9"/>
      <feFlood flood-opacity="0.322"/>
      <feComposite operator="in" in2="blur-9"/>
      <feComposite in="SourceGraphic"/>
    </filter>
    <filter id="Trazado_21315" x="623.502" y="429.92" width="42.951" height="35.118" filterUnits="userSpaceOnUse">
      <feOffset dx="3" dy="3" input="SourceAlpha"/>
      <feGaussianBlur stdDeviation="3" result="blur-10"/>
      <feFlood flood-opacity="0.322"/>
      <feComposite operator="in" in2="blur-10"/>
      <feComposite in="SourceGraphic"/>
    </filter>
    <filter id="Trazado_21316" x="640.041" y="402.803" width="67.951" height="63.917" filterUnits="userSpaceOnUse">
      <feOffset dx="3" dy="3" input="SourceAlpha"/>
      <feGaussianBlur stdDeviation="3" result="blur-11"/>
      <feFlood flood-opacity="0.322"/>
      <feComposite operator="in" in2="blur-11"/>
      <feComposite in="SourceGraphic"/>
    </filter>
    <filter id="Trazado_21317" x="672.148" y="431.455" width="41.592" height="33.043" filterUnits="userSpaceOnUse">
      <feOffset dx="3" dy="3" input="SourceAlpha"/>
      <feGaussianBlur stdDeviation="3" result="blur-12"/>
      <feFlood flood-opacity="0.322"/>
      <feComposite operator="in" in2="blur-12"/>
      <feComposite in="SourceGraphic"/>
    </filter>
    <filter id="Trazado_21318" x="680.346" y="411.705" width="89.939" height="57.427" filterUnits="userSpaceOnUse">
      <feOffset dx="3" dy="3" input="SourceAlpha"/>
      <feGaussianBlur stdDeviation="3" result="blur-13"/>
      <feFlood flood-opacity="0.322"/>
      <feComposite operator="in" in2="blur-13"/>
      <feComposite in="SourceGraphic"/>
    </filter>
    <filter id="Trazado_21319" x="703.807" y="428.006" width="48.049" height="47.383" filterUnits="userSpaceOnUse">
      <feOffset dx="3" dy="3" input="SourceAlpha"/>
      <feGaussianBlur stdDeviation="3" result="blur-14"/>
      <feFlood flood-opacity="0.322"/>
      <feComposite operator="in" in2="blur-14"/>
      <feComposite in="SourceGraphic"/>
    </filter>
    <filter id="Unión_85" x="249.703" y="309.524" width="480.818" height="90.382" filterUnits="userSpaceOnUse">
      <feOffset dx="3" dy="3" input="SourceAlpha"/>
      <feGaussianBlur stdDeviation="3" result="blur-15"/>
      <feFlood flood-opacity="0.322"/>
      <feComposite operator="in" in2="blur-15"/>
      <feComposite in="SourceGraphic"/>
    </filter>
    <filter id="Trazado_21353" x="381.539" y="309.523" width="38.176" height="36.789" filterUnits="userSpaceOnUse">
      <feOffset dx="3" dy="3" input="SourceAlpha"/>
      <feGaussianBlur stdDeviation="3" result="blur-16"/>
      <feFlood flood-opacity="0.322"/>
      <feComposite operator="in" in2="blur-16"/>
      <feComposite in="SourceGraphic"/>
    </filter>
    <filter id="Trazado_21354" x="382.584" y="331.102" width="35.938" height="66.305" filterUnits="userSpaceOnUse">
      <feOffset dx="3" dy="3" input="SourceAlpha"/>
      <feGaussianBlur stdDeviation="3" result="blur-17"/>
      <feFlood flood-opacity="0.322"/>
      <feComposite operator="in" in2="blur-17"/>
      <feComposite in="SourceGraphic"/>
    </filter>
    <filter id="Trazado_21354-2" x="382.584" y="331.102" width="35.938" height="66.305" filterUnits="userSpaceOnUse">
      <feOffset dx="3" dy="3" input="SourceAlpha"/>
      <feGaussianBlur stdDeviation="3" result="blur-18"/>
      <feFlood flood-color="#afbac4" flood-opacity="0.012" result="color"/>
      <feComposite operator="out" in="SourceGraphic" in2="blur-18"/>
      <feComposite operator="in" in="color"/>
      <feComposite operator="in" in2="SourceGraphic"/>
    </filter>
    <filter id="Trazado_21355" x="406.203" y="330.537" width="66.574" height="66.718" filterUnits="userSpaceOnUse">
      <feOffset dx="3" dy="3" input="SourceAlpha"/>
      <feGaussianBlur stdDeviation="3" result="blur-19"/>
      <feFlood flood-opacity="0.322"/>
      <feComposite operator="in" in2="blur-19"/>
      <feComposite in="SourceGraphic"/>
    </filter>
    <filter id="Trazado_21355-2" x="406.203" y="330.537" width="66.574" height="66.718" filterUnits="userSpaceOnUse">
      <feOffset dx="3" dy="3" input="SourceAlpha"/>
      <feGaussianBlur stdDeviation="3" result="blur-20"/>
      <feFlood flood-color="#afbac4" flood-opacity="0.012" result="color-2"/>
      <feComposite operator="out" in="SourceGraphic" in2="blur-20"/>
      <feComposite operator="in" in="color-2"/>
      <feComposite operator="in" in2="SourceGraphic"/>
    </filter>
    <filter id="Trazado_21356" x="249.703" y="318.757" width="63.959" height="81.15" filterUnits="userSpaceOnUse">
      <feOffset dx="3" dy="3" input="SourceAlpha"/>
      <feGaussianBlur stdDeviation="3" result="blur-21"/>
      <feFlood flood-opacity="0.322"/>
      <feComposite operator="in" in2="blur-21"/>
      <feComposite in="SourceGraphic"/>
    </filter>
    <filter id="Trazado_21356-2" x="249.703" y="318.757" width="63.959" height="81.15" filterUnits="userSpaceOnUse">
      <feOffset dx="3" dy="3" input="SourceAlpha"/>
      <feGaussianBlur stdDeviation="3" result="blur-22"/>
      <feFlood flood-color="#afbac4" flood-opacity="0.012" result="color-3"/>
      <feComposite operator="out" in="SourceGraphic" in2="blur-22"/>
      <feComposite operator="in" in="color-3"/>
      <feComposite operator="in" in2="SourceGraphic"/>
    </filter>
    <filter id="Trazado_21357" x="293.348" y="330.957" width="102.963" height="66.442" filterUnits="userSpaceOnUse">
      <feOffset dx="3" dy="3" input="SourceAlpha"/>
      <feGaussianBlur stdDeviation="3" result="blur-23"/>
      <feFlood flood-opacity="0.322"/>
      <feComposite operator="in" in2="blur-23"/>
      <feComposite in="SourceGraphic"/>
    </filter>
    <filter id="Trazado_21357-2" x="293.348" y="330.957" width="102.963" height="66.442" filterUnits="userSpaceOnUse">
      <feOffset dx="3" dy="3" input="SourceAlpha"/>
      <feGaussianBlur stdDeviation="3" result="blur-24"/>
      <feFlood flood-color="#afbac4" flood-opacity="0.012" result="color-4"/>
      <feComposite operator="out" in="SourceGraphic" in2="blur-24"/>
      <feComposite operator="in" in="color-4"/>
      <feComposite operator="in" in2="SourceGraphic"/>
    </filter>
    <filter id="Trazado_21358" x="548.822" y="331.573" width="56.883" height="64.924" filterUnits="userSpaceOnUse">
      <feOffset dx="3" dy="3" input="SourceAlpha"/>
      <feGaussianBlur stdDeviation="3" result="blur-25"/>
      <feFlood flood-opacity="0.322"/>
      <feComposite operator="in" in2="blur-25"/>
      <feComposite in="SourceGraphic"/>
    </filter>
    <filter id="Trazado_21358-2" x="548.822" y="331.573" width="56.883" height="64.924" filterUnits="userSpaceOnUse">
      <feOffset dx="3" dy="3" input="SourceAlpha"/>
      <feGaussianBlur stdDeviation="3" result="blur-26"/>
      <feFlood flood-color="#afbac4" flood-opacity="0.012" result="color-5"/>
      <feComposite operator="out" in="SourceGraphic" in2="blur-26"/>
      <feComposite operator="in" in="color-5"/>
      <feComposite operator="in" in2="SourceGraphic"/>
    </filter>
    <filter id="Trazado_21359" x="463.215" y="331.573" width="56.883" height="64.924" filterUnits="userSpaceOnUse">
      <feOffset dx="3" dy="3" input="SourceAlpha"/>
      <feGaussianBlur stdDeviation="3" result="blur-27"/>
      <feFlood flood-opacity="0.322"/>
      <feComposite operator="in" in2="blur-27"/>
      <feComposite in="SourceGraphic"/>
    </filter>
    <filter id="Trazado_21359-2" x="463.215" y="331.573" width="56.883" height="64.924" filterUnits="userSpaceOnUse">
      <feOffset dx="3" dy="3" input="SourceAlpha"/>
      <feGaussianBlur stdDeviation="3" result="blur-28"/>
      <feFlood flood-color="#afbac4" flood-opacity="0.012" result="color-6"/>
      <feComposite operator="out" in="SourceGraphic" in2="blur-28"/>
      <feComposite operator="in" in="color-6"/>
      <feComposite operator="in" in2="SourceGraphic"/>
    </filter>
    <filter id="Trazado_21360" x="595.408" y="332.676" width="57.217" height="64.536" filterUnits="userSpaceOnUse">
      <feOffset dx="3" dy="3" input="SourceAlpha"/>
      <feGaussianBlur stdDeviation="3" result="blur-29"/>
      <feFlood flood-opacity="0.322"/>
      <feComposite operator="in" in2="blur-29"/>
      <feComposite in="SourceGraphic"/>
    </filter>
    <filter id="Trazado_21360-2" x="595.408" y="332.676" width="57.217" height="64.536" filterUnits="userSpaceOnUse">
      <feOffset dx="3" dy="3" input="SourceAlpha"/>
      <feGaussianBlur stdDeviation="3" result="blur-30"/>
      <feFlood flood-color="#afbac4" flood-opacity="0.012" result="color-7"/>
      <feComposite operator="out" in="SourceGraphic" in2="blur-30"/>
      <feComposite operator="in" in="color-7"/>
      <feComposite operator="in" in2="SourceGraphic"/>
    </filter>
    <filter id="Trazado_21361" x="641.256" y="325.705" width="46.764" height="71.519" filterUnits="userSpaceOnUse">
      <feOffset dx="3" dy="3" input="SourceAlpha"/>
      <feGaussianBlur stdDeviation="3" result="blur-31"/>
      <feFlood flood-opacity="0.322"/>
      <feComposite operator="in" in2="blur-31"/>
      <feComposite in="SourceGraphic"/>
    </filter>
    <filter id="Trazado_21361-2" x="641.256" y="325.705" width="46.764" height="71.519" filterUnits="userSpaceOnUse">
      <feOffset dx="3" dy="3" input="SourceAlpha"/>
      <feGaussianBlur stdDeviation="3" result="blur-32"/>
      <feFlood flood-color="#afbac4" flood-opacity="0.012" result="color-8"/>
      <feComposite operator="out" in="SourceGraphic" in2="blur-32"/>
      <feComposite operator="in" in="color-8"/>
      <feComposite operator="in" in2="SourceGraphic"/>
    </filter>
    <filter id="Trazado_21362" x="505.205" y="332.28" width="59.457" height="63.863" filterUnits="userSpaceOnUse">
      <feOffset dx="3" dy="3" input="SourceAlpha"/>
      <feGaussianBlur stdDeviation="3" result="blur-33"/>
      <feFlood flood-opacity="0.322"/>
      <feComposite operator="in" in2="blur-33"/>
      <feComposite in="SourceGraphic"/>
    </filter>
    <filter id="Trazado_21362-2" x="505.205" y="332.28" width="59.457" height="63.863" filterUnits="userSpaceOnUse">
      <feOffset dx="3" dy="3" input="SourceAlpha"/>
      <feGaussianBlur stdDeviation="3" result="blur-34"/>
      <feFlood flood-color="#afbac4" flood-opacity="0.012" result="color-9"/>
      <feComposite operator="out" in="SourceGraphic" in2="blur-34"/>
      <feComposite operator="in" in="color-9"/>
      <feComposite operator="in" in2="SourceGraphic"/>
    </filter>
    <filter id="Trazado_21363" x="679.227" y="331.822" width="51.295" height="64.747" filterUnits="userSpaceOnUse">
      <feOffset dx="3" dy="3" input="SourceAlpha"/>
      <feGaussianBlur stdDeviation="3" result="blur-35"/>
      <feFlood flood-opacity="0.322"/>
      <feComposite operator="in" in2="blur-35"/>
      <feComposite in="SourceGraphic"/>
    </filter>
    <filter id="Trazado_21363-2" x="679.227" y="331.822" width="51.295" height="64.747" filterUnits="userSpaceOnUse">
      <feOffset dx="3" dy="3" input="SourceAlpha"/>
      <feGaussianBlur stdDeviation="3" result="blur-36"/>
      <feFlood flood-color="#afbac4" flood-opacity="0.012" result="color-10"/>
      <feComposite operator="out" in="SourceGraphic" in2="blur-36"/>
      <feComposite operator="in" in="color-10"/>
      <feComposite operator="in" in2="SourceGraphic"/>
    </filter>
    <filter id="Sustracción_1" x="61.715" y="304.89" width="181.053" height="99.652" filterUnits="userSpaceOnUse">
      <feOffset dx="3" dy="3" input="SourceAlpha"/>
      <feGaussianBlur stdDeviation="3" result="blur-37"/>
      <feFlood flood-opacity="0.322"/>
      <feComposite operator="in" in2="blur-37"/>
      <feComposite in="SourceGraphic"/>
    </filter>
    <filter id="Sustracción_1-2" x="61.715" y="304.89" width="181.053" height="99.652" filterUnits="userSpaceOnUse">
      <feOffset dx="3" dy="3" input="SourceAlpha"/>
      <feGaussianBlur stdDeviation="3" result="blur-38"/>
      <feFlood flood-color="#071c2e" flood-opacity="0.294" result="color-11"/>
      <feComposite operator="out" in="SourceGraphic" in2="blur-38"/>
      <feComposite operator="in" in="color-11"/>
      <feComposite operator="in" in2="SourceGraphic"/>
    </filter>
    <clipPath id="clip-Web_1920_98">
      <rect width="826" height="779"/>
    </clipPath>
  </defs>
  <g id="Web_1920_98" data-name="Web 1920 – 98" clip-path="url(#clip-Web_1920_98)">
    <rect width="826" height="779" fill="#fff"/>
    <g id="Grupo_23037" data-name="Grupo 23037" transform="translate(855.57 274.657)">
      <g transform="matrix(1, 0, 0, 1, -855.57, -274.66)" filter="url(#Trazado_21306)">
        <path id="Trazado_21306-2" data-name="Trazado 21306" d="M758.264-89.145c-.385,0-.873-.373-1.457-1.125a2.454,2.454,0,0,1-.671-1.491,2.347,2.347,0,0,1,.478-1.4,17.474,17.474,0,0,1,1.339-1.521q7.041-7.484,14.2-14.34,1.073-1.066,2.01-2.178a25.907,25.907,0,0,1,3.749-3.713,5.414,5.414,0,0,1,2.994-1.419,1.842,1.842,0,0,1,.519.072,2.136,2.136,0,0,1,1.282.993,3,3,0,0,1,.194.835,2.118,2.118,0,0,1-.506,1.272,14.214,14.214,0,0,1-2.026,1.812c-.4.311-.757.615-1.085.906q-7.042,6.171-13.5,12.925a62.51,62.51,0,0,0-4.823,5.657c-.428.556-.857,1.107-1.3,1.653q-.817,1.066-1.4,1.065m6.1,10.746a14.838,14.838,0,0,1-1.889-.119,4.535,4.535,0,0,1-4.241-3.537,3.917,3.917,0,0,1-.1-.906,4.028,4.028,0,0,1,.238-1.36,5.331,5.331,0,0,1,1.029-1.8c.434-.489.762-.741.983-.762.118-.008.207-.018.266-.028h.09q.519,0,.714.8a2.642,2.642,0,0,1,.015.294,3.832,3.832,0,0,1-.432,1.475,3.17,3.17,0,0,0-.4,1.331c0,.361.255.677.761.95a4.643,4.643,0,0,0,1.784.307,10.73,10.73,0,0,0,2.025-.219,42.311,42.311,0,0,0,8.825-2.747,102.049,102.049,0,0,0,14.2-7.471,130.279,130.279,0,0,0,16.359-12.059,41.78,41.78,0,0,0,7.337-8.012,11.583,11.583,0,0,0,1.8-3.653,11.49,11.49,0,0,0,.3-2.062,5.79,5.79,0,0,0-.715-2.778,6.189,6.189,0,0,0-1.951-1.929,10.883,10.883,0,0,0-2.53-1.184,15.237,15.237,0,0,0-3.378-.688c-1.022-.077-1.9-.118-2.634-.118-.578,0-1.146.021-1.713.059a49.487,49.487,0,0,0-8.991,1.535,90.726,90.726,0,0,0-14.362,5.234,109.736,109.736,0,0,0-13.4,7.353,5.977,5.977,0,0,0-1.489,1.244,4.542,4.542,0,0,0-.79,1.725c-.177.623-.376.955-.594.993a2.867,2.867,0,0,1-.433.072,2.051,2.051,0,0,1-1.162-.482,2.853,2.853,0,0,1-1.368-2.294,2.263,2.263,0,0,1,.462-1.315,19.458,19.458,0,0,1,5.03-3.759,114.224,114.224,0,0,1,11.237-6.1q13.263-6.3,24.47-7.278,1.011-.073,2.053-.075a30.191,30.191,0,0,1,4.167.294q7.146.98,10.121,6.228a7.977,7.977,0,0,1,1,3.859c0,.175-.021.53-.06,1.066q-1.427,9.913-19.468,22.455a125.008,125.008,0,0,1-19.453,11.184,49.373,49.373,0,0,1-9.764,3.772,18.412,18.412,0,0,1-3.946.5" transform="translate(-344.85 538.85)"/>
      </g>
      <g transform="matrix(1, 0, 0, 1, -855.57, -274.66)" filter="url(#Trazado_21307)">
        <path id="Trazado_21307-2" data-name="Trazado 21307" d="M866.146-60.331a4.061,4.061,0,0,1-4.094-2.749,4.832,4.832,0,0,1-.372-1.782,3.912,3.912,0,0,1,.209-1.271,7.87,7.87,0,0,1,1.324-2.356q.714-.876,2.322-2.556,2.662-2.97,4.286-3.29a2.654,2.654,0,0,1,1.489.716,2.007,2.007,0,0,1,.773,1.477,1.333,1.333,0,0,1-.357.863q-.551.54-1.74,1.491-4.644,3.8-4.645,5.381l.016.2a1.061,1.061,0,0,0,1.027.469,10.684,10.684,0,0,0,3.646-.922l.147-.044q2.8-1.112,5.494-2.484a57.266,57.266,0,0,1,5.88-2.618,1.671,1.671,0,0,1,.519-.116c.3,0,.468.239.506.715a2.144,2.144,0,0,1-.847,1.61,13.5,13.5,0,0,1-1.667,1.228l-.211.145a70.905,70.905,0,0,1-7.053,3.846,15.618,15.618,0,0,1-6.653,2.047m9.154-18.2a2.391,2.391,0,0,1-2.2-1.622,1.79,1.79,0,0,1-.206-.819,1.668,1.668,0,0,1,.206-.788,1.21,1.21,0,0,1,.59-.353,1.933,1.933,0,0,1,.482-.044h.046a4.847,4.847,0,0,1,1.623.353q2.29.876,2.293,1.695c0,.507-.588.97-1.757,1.39a3.469,3.469,0,0,1-1.071.188" transform="translate(-402.43 513.6)"/>
      </g>
      <g transform="matrix(1, 0, 0, 1, -855.57, -274.66)" filter="url(#Trazado_21308)">
        <path id="Trazado_21308-2" data-name="Trazado 21308" d="M880.581-39.269a3.052,3.052,0,0,1-1.489-.365,2.775,2.775,0,0,1-1.027-1.009,2.187,2.187,0,0,1-.267-.875q0-1.082,1.562-1.259c.376-.038.7-.062.966-.072h.107a5.342,5.342,0,0,0,1.072-.1q1.875-.363,7.47-4.794a90.381,90.381,0,0,0,7.845-6.93,73.35,73.35,0,0,0,6.86-7.865,2.557,2.557,0,0,0,.537-.978c0-.05-.032-.072-.09-.072a4.537,4.537,0,0,0-1.577.994l-1.594,1.081a93.814,93.814,0,0,1-8.1,5.028,9.724,9.724,0,0,1-4,1.434,3.764,3.764,0,0,1-1.979-.512,2.562,2.562,0,0,1-1.282-1.344,4.594,4.594,0,0,1-.207-1.112,3.79,3.79,0,0,1,.49-1.753,16.674,16.674,0,0,1,3.662-3.831,39.552,39.552,0,0,1,5.552-3.771q3.619-2.016,5.729-2.018a3.349,3.349,0,0,1,1.178.191,4.118,4.118,0,0,1,1.486,1.171,1.845,1.845,0,0,0,1.132.657,2.34,2.34,0,0,0,1.356-.716q3.48-2.808,4.524-2.822a1.9,1.9,0,0,1,1.206.438,1.873,1.873,0,0,1,.684.906,2.8,2.8,0,0,1,.134.718,2.089,2.089,0,0,1-.238.934,14.078,14.078,0,0,1-1.489,1.872q-.894,1.023-2.412,3.084a96.941,96.941,0,0,1-11.266,12.66,82.161,82.161,0,0,1-9.72,8.068q-.951.66-2.485,1.506a9.393,9.393,0,0,1-4.331,1.462M890.4-59.15a1.973,1.973,0,0,0,.478-.1,40.937,40.937,0,0,0,6.236-3.319,25.583,25.583,0,0,0,3.005-1.828c.785-.564,1.178-.993,1.178-1.284,0-.167-.15-.294-.448-.381l-.192-.015q-1.313,0-4.539,2.034-1.534.961-2.456,1.665-3.425,2.588-3.424,3.113c0,.07.056.108.162.118" transform="translate(-411.23 507.38)"/>
      </g>
      <g transform="matrix(1, 0, 0, 1, -855.57, -274.66)" filter="url(#Trazado_21309)">
        <path id="Trazado_21309-2" data-name="Trazado 21309" d="M953.572-60.331a4.062,4.062,0,0,1-4.094-2.749,4.849,4.849,0,0,1-.373-1.782,3.913,3.913,0,0,1,.21-1.271,7.874,7.874,0,0,1,1.324-2.356q.717-.876,2.323-2.556,2.661-2.97,4.286-3.29a2.66,2.66,0,0,1,1.489.716,2.01,2.01,0,0,1,.773,1.477,1.336,1.336,0,0,1-.356.863c-.366.36-.948.857-1.74,1.491q-4.644,3.8-4.644,5.381l.015.2a1.059,1.059,0,0,0,1.028.469,10.7,10.7,0,0,0,3.646-.922l.147-.044q2.8-1.112,5.493-2.484a57.207,57.207,0,0,1,5.88-2.618,1.674,1.674,0,0,1,.519-.116c.3,0,.467.239.506.715a2.142,2.142,0,0,1-.846,1.61,13.51,13.51,0,0,1-1.667,1.228l-.211.145a70.709,70.709,0,0,1-7.054,3.846,15.612,15.612,0,0,1-6.653,2.047m9.154-18.2a2.391,2.391,0,0,1-2.2-1.622,1.783,1.783,0,0,1-.208-.819,1.662,1.662,0,0,1,.208-.788,1.21,1.21,0,0,1,.589-.353,1.944,1.944,0,0,1,.483-.044h.044a4.842,4.842,0,0,1,1.624.353q2.291.876,2.292,1.695c0,.507-.587.97-1.755,1.39a3.48,3.48,0,0,1-1.073.188" transform="translate(-450.13 513.6)"/>
      </g>
      <g transform="matrix(1, 0, 0, 1, -855.57, -274.66)" filter="url(#Trazado_21310)">
        <path id="Trazado_21310-2" data-name="Trazado 21310" d="M973.687-73.517a6.035,6.035,0,0,1-1.892-.294,4.3,4.3,0,0,1-2.291-1.944,4.444,4.444,0,0,1-.55-2.163,5.563,5.563,0,0,1,.729-2.809,25.951,25.951,0,0,1,2.858-3.434q.788-.819,1.444-1.563a107.438,107.438,0,0,1,8.483-8.524q1.983-1.842,4.14-3.494l1.6-1.256c.691-.585,1.359-1.174,2.013-1.769h.013v-.016c.082-.059.119-.108.119-.146,0-.106-.2-.16-.623-.16q-1.738,0-7.5.147-4.587.116-11.625.116-1.219,0-2.65-.072-3.928-.2-5.505-1.784a2.807,2.807,0,0,1-.731-1.844,3.181,3.181,0,0,1,.166-.978,1.3,1.3,0,0,1,1.189-.878,3.665,3.665,0,0,1,1.816.631l.612.422a7.108,7.108,0,0,0,2.246,1.213q.849.146,3.111.265c.336.007.645.023.923.044q4.046.216,8.081.219,8.514,0,13.068-.118a4.306,4.306,0,0,0,1.728-.335,12.206,12.206,0,0,0,1.844-1.228l.764-.512q2.079-1.46,5.221-3.434,1.7-1.113,3.585-2.179a10.363,10.363,0,0,1,4.426-1.549,2.727,2.727,0,0,1,1.486.438,1.614,1.614,0,0,1,.786,1.271,1.8,1.8,0,0,1-.381,1.025,19.772,19.772,0,0,1-3.754,3.054,23.059,23.059,0,0,0-3.317,2.588c-.1.09-.136.157-.136.206s.136.087.413.087c1,.069,1.981.1,2.936.1q2.263,0,5.461-.175,5.309-.277,11.092-.278,2.263,0,4.285.1a20.028,20.028,0,0,1,3.172.381c.745.175,1.113.394,1.113.659q0,1.024-8.5,1.022-4.675.015-21.76.834a1.535,1.535,0,0,1-.222.013,13.485,13.485,0,0,0-2.354.25,18.236,18.236,0,0,0-2.427,1.637l-3.48,2.572q-3.142,2.367-6.475,4.443-2.74,1.668-5.761,3.684a50.305,50.305,0,0,0-5.657,4.415,22.238,22.238,0,0,0-4.3,5.175,3.921,3.921,0,0,0-.73,1.975,2.347,2.347,0,0,0,.016.278c.068.4.467.6,1.19.6a11.906,11.906,0,0,0,4.257-1.2,28.468,28.468,0,0,0,3.661-2.019q1.424-.92,2.9-1.753,2.011-1.154,4.612-2.881,1.922-1.286,3.84-2.469a4.957,4.957,0,0,1,2.576-.805,3.977,3.977,0,0,1,1.059.146q.49.2.49.512a.8.8,0,0,1-.2.453,9.786,9.786,0,0,1-3.049,2.325q-1.486.935-5.075,3.376-1.561,1.054-3.157,2.105-6.264,4.283-10.27,5.19a8.127,8.127,0,0,1-1.158.088m27.046-30.977h.054a.285.285,0,0,0,.168-.044.352.352,0,0,0,.086-.1.154.154,0,0,0,.031-.079c0-.03-.014-.044-.045-.044a.522.522,0,0,0-.3.1.126.126,0,0,0-.046.088.087.087,0,0,0,.046.075m-.509.453c.109-.031.164-.119.164-.263,0-.049-.014-.069-.046-.059-.128,0-.191.077-.191.234.018.057.041.088.073.088m-5.893,3.975a1.505,1.505,0,0,0,.459-.307c.259-.2.386-.317.373-.365a1.434,1.434,0,0,0-.191.087,2.356,2.356,0,0,0-.568.453c-.018.032-.032.054-.045.075a.076.076,0,0,0-.027.044Zm-.328.309c.05,0,.078-.037.086-.1a.093.093,0,0,0-.013-.051c-.009-.016-.027-.023-.06-.023s-.036.02-.05.031a.047.047,0,0,0-.027.044c0,.067.023.1.063.1m-.8.51.013-.087v-.021s0-.008-.013-.008a.025.025,0,0,0-.023.016.09.09,0,0,0-.009.044.1.1,0,0,0,.009.029.131.131,0,0,0,.023.028" transform="translate(-457.02 530.65)"/>
      </g>
      <g transform="matrix(1, 0, 0, 1, -855.57, -274.66)" filter="url(#Trazado_21311)">
        <path id="Trazado_21311-2" data-name="Trazado 21311" d="M1030.876-58.97a2.529,2.529,0,0,0,.876-.247,44.685,44.685,0,0,0,5-2.647q3.033-1.653,3.035-2.063c-.018-.095-.132-.144-.332-.144q-1.349,0-4.907,2.09a27.771,27.771,0,0,0-3.394,2.294c-.31.283-.464.479-.464.585,0,.088.063.131.182.131m-2.3,4.181a2.738,2.738,0,0,1-2.289-1.1,3.647,3.647,0,0,1-.732-2q0-1.348,3.172-4.037a43.922,43.922,0,0,1,4.2-3.128,20.684,20.684,0,0,1,3.735-2.016,7,7,0,0,1,2.609-.556,3.177,3.177,0,0,1,2.54,1.462q.553.8.967.8a1.009,1.009,0,0,0,.51-.175,9.127,9.127,0,0,0,.876-.862,9.074,9.074,0,0,1,.655-.687,2.969,2.969,0,0,1,1.263-.847,4.817,4.817,0,0,1,.6-.075,3.739,3.739,0,0,1,1.949.659.159.159,0,0,1,.077.044q.688.51.687.993a.7.7,0,0,1-.091.337,3.893,3.893,0,0,1-1.087,1.242c-.486.409-.94.769-1.354,1.081a.58.58,0,0,1-.091.075,14.863,14.863,0,0,0-1.649,1.344,8.962,8.962,0,0,0-1.536,1.974,2.652,2.652,0,0,0-.445,1.184.539.539,0,0,0,.045.232.762.762,0,0,0,.727.337,5.585,5.585,0,0,0,1.577-.278,26.028,26.028,0,0,0,4.375-1.841,24.212,24.212,0,0,1,3.23-1.462,4.027,4.027,0,0,1,1.414-.294c.686,0,1.045.317,1.073.95a2.51,2.51,0,0,1-1.159,1.712,17.154,17.154,0,0,1-2.767,1.784c-1.086.564-2.123,1.061-3.131,1.491a21.139,21.139,0,0,1-2.244.831,9.423,9.423,0,0,1-1.609.309,6.642,6.642,0,0,1-.777.029h-.042a3.316,3.316,0,0,1-3.393-2.032,5.33,5.33,0,0,1-.146-.731,5.669,5.669,0,0,0-.509-1.769.5.5,0,0,0-.431-.278,5.3,5.3,0,0,0-2,1.213,32.033,32.033,0,0,1-4.539,2.662,10.356,10.356,0,0,1-4.258,1.416" transform="translate(-491.85 505.77)"/>
      </g>
      <g transform="matrix(1, 0, 0, 1, -855.57, -274.66)" filter="url(#Trazado_21312)">
        <path id="Trazado_21312-2" data-name="Trazado 21312" d="M1090.761-88.24a7.908,7.908,0,0,1-1.79-.2,5.8,5.8,0,0,1-3.3-2.384,4.355,4.355,0,0,1-.808-1.928c-.01-.489-.014-.736-.014-.747a7.25,7.25,0,0,1,.491-2.631,20.18,20.18,0,0,1,1.89-3.239q1.118-1.556,2.368-3.046c.658-.8,1.281-1.594,1.877-2.384a59.994,59.994,0,0,1,6.311-6.828,128.958,128.958,0,0,1,20.943-16.679q2.024-1.362,3.449-2.134a7.556,7.556,0,0,1,3.2-1.009,2.584,2.584,0,0,1,2.426,1.475,2.883,2.883,0,0,1,.224,1.053,3.654,3.654,0,0,1-1.355,2.34c-.1.116-.2.226-.313.335a102.612,102.612,0,0,1-11.087,10.028c-.927.713-1.84,1.483-2.754,2.309q-4.524,4.036-9.347,7.75-2.234,1.8-4.334,3.187a32.63,32.63,0,0,1-4.73,2.588,10.865,10.865,0,0,0-2.857,1.738,9.8,9.8,0,0,0-2.086,2.633,6.418,6.418,0,0,0-.786,1.913,7.224,7.224,0,0,0-.122.965,1.974,1.974,0,0,0,.517,1.411,2.147,2.147,0,0,0,1.64.548,7.34,7.34,0,0,0,.882-.059,16.071,16.071,0,0,0,3.925-1.3q2.352-1.14,4.571-2.485,4.526-2.691,5.521-2.69c.231,0,.34.108.34.322a1.084,1.084,0,0,1-.163.5,6.029,6.029,0,0,1-.918,1.241,28.244,28.244,0,0,1-3.648,3.174,27.034,27.034,0,0,1-4.123,2.572,18.458,18.458,0,0,1-3.453,1.287,11.292,11.292,0,0,1-2.59.378m7.8-18.768q.669,0,5.626-3.978,4.471-3.275,8.723-6.8a108.141,108.141,0,0,0,8.125-7.456c.468-.486.7-.78.7-.877a.027.027,0,0,0-.009-.021.055.055,0,0,0-.036-.008q-.688,0-9.869,6.915-10.033,7.365-13.1,11.665a1.15,1.15,0,0,0-.237.482c0,.038.023.064.072.074" transform="translate(-524.2 540.9)"/>
      </g>
      <g transform="matrix(1, 0, 0, 1, -855.57, -274.66)" filter="url(#Trazado_21313)">
        <path id="Trazado_21313-2" data-name="Trazado 21313" d="M1167.742-124.858a8.858,8.858,0,0,1-2.713-.366,2.465,2.465,0,0,1-1.368-1.2,3.184,3.184,0,0,1-.354-1.287,1.292,1.292,0,0,1,1.322-1.478,5.855,5.855,0,0,1,1.608.265,6.772,6.772,0,0,0,1.932.306,38.036,38.036,0,0,0,5.943-.643c.923-.146,2.576-.381,4.971-.7q8.867-1.287,17.9-2.338t17.922-1.3q.551-.016,1.131-.016c.886,0,1.84.028,2.872.087a12.368,12.368,0,0,1,3.857.8,2.842,2.842,0,0,1,1.295,1.419,4.3,4.3,0,0,1,.4,1.578,1.847,1.847,0,0,1-.5,1.4,2.346,2.346,0,0,1-.464.353,4.794,4.794,0,0,1-2.277.569,2.823,2.823,0,0,1-2.349-1.125,4.568,4.568,0,0,0-1.4-1.462,3.052,3.052,0,0,0-1.191-.219c-.2,0-.422.011-.668.029-.273.021-.582.036-.941.044q-5.908.22-11.922.878-9.87,1.066-28.74,3.728-2.113.367-3.844.512c-1.136.106-1.95.16-2.422.16m-11.923,41.692-.509.031q-.858,0-1.441-1.668a5.23,5.23,0,0,1-.059-.788q0-2.765,3.141-5.965,1.486-1.522,3.021-2.838,2.884-2.541,12.95-12.966,2.793-2.9,5.607-5.759,5.117-5.175,9.987-10.556a8.3,8.3,0,0,1,1.232-1.192,2.075,2.075,0,0,1,1.285-.473,2.26,2.26,0,0,1,1.546.8,1.81,1.81,0,0,1,.554,1.243,1.617,1.617,0,0,1-.072.453,4.049,4.049,0,0,1-.969,1.563q-2.187,2.325-4.584,4.606-9.466,9.106-15.343,14.968-4.8,4.8-9.307,9.853a52.64,52.64,0,0,0-3.257,4.241q-3.054,4.387-3.781,4.443" transform="translate(-561.82 542.1)"/>
      </g>
      <g transform="matrix(1, 0, 0, 1, -855.57, -274.66)" filter="url(#Trazado_21314)">
        <path id="Trazado_21314-2" data-name="Trazado 21314" d="M1204.3-60.331a4.062,4.062,0,0,1-4.094-2.749,4.783,4.783,0,0,1-.373-1.782,3.864,3.864,0,0,1,.209-1.271,7.773,7.773,0,0,1,1.326-2.356c.473-.584,1.25-1.437,2.319-2.556q2.664-2.97,4.289-3.29a2.654,2.654,0,0,1,1.485.716,2.005,2.005,0,0,1,.777,1.477,1.352,1.352,0,0,1-.358.863q-.553.54-1.745,1.491-4.641,3.8-4.639,5.381l.013.2a1.059,1.059,0,0,0,1.028.469,10.647,10.647,0,0,0,3.644-.922l.15-.044q2.8-1.112,5.493-2.484a57.531,57.531,0,0,1,5.88-2.618,1.7,1.7,0,0,1,.523-.116c.3,0,.464.239.5.715a2.148,2.148,0,0,1-.849,1.61,13.071,13.071,0,0,1-1.667,1.228l-.2.145a71.614,71.614,0,0,1-7.058,3.846,15.614,15.614,0,0,1-6.652,2.047m9.152-18.2a2.384,2.384,0,0,1-2.2-1.622,1.77,1.77,0,0,1-.213-.819,1.65,1.65,0,0,1,.213-.788,1.174,1.174,0,0,1,.586-.353,1.954,1.954,0,0,1,.482-.044h.045a4.856,4.856,0,0,1,1.623.353q2.3.876,2.294,1.695,0,.76-1.758,1.39a3.471,3.471,0,0,1-1.072.188" transform="translate(-586.93 513.6)"/>
      </g>
      <g transform="matrix(1, 0, 0, 1, -855.57, -274.66)" filter="url(#Trazado_21315)">
        <path id="Trazado_21315-2" data-name="Trazado 21315" d="M1241.932-55.026l-.577.016a5.741,5.741,0,0,1-2.754-.628,4.544,4.544,0,0,1-2.04-2.646,5.624,5.624,0,0,1-.182-1.359,4.4,4.4,0,0,1,.45-1.959,9.6,9.6,0,0,1,2.054-2.747c.89-.819,1.945-1.681,3.153-2.587a49.263,49.263,0,0,1,4.08-2.984,13.52,13.52,0,0,1,3.676-1.784,10.054,10.054,0,0,1,2.426-.422,6.144,6.144,0,0,1,2.6.584,3.4,3.4,0,0,1,1.04,1.1,3.872,3.872,0,0,1,.568,1.2,4.845,4.845,0,0,1,.072.631,1.014,1.014,0,0,1-.354.8,1.061,1.061,0,0,1-.659.175,4.355,4.355,0,0,1-1.1-.191,10.215,10.215,0,0,0-2.545-.628,2.588,2.588,0,0,0-.922.175,33.768,33.768,0,0,0-4.408,2.353,23.01,23.01,0,0,0-5.579,4.372,3.574,3.574,0,0,0-1.027,2.309v.031c.15.574.682.863,1.6.863h.095a22.936,22.936,0,0,0,5.775-1.3,58.011,58.011,0,0,0,5.357-2.266q2.139-1.008,4.389-1.9a10.113,10.113,0,0,1,1.622-.54,6.053,6.053,0,0,1,1.309-.206,2.694,2.694,0,0,1,.954.162c.2.1.313.2.313.321q0,.41-1.268,1.038a80.6,80.6,0,0,1-12.1,6.374,21.17,21.17,0,0,1-6.03,1.651" transform="translate(-606.88 508.05)"/>
      </g>
      <g transform="matrix(1, 0, 0, 1, -855.57, -274.66)" filter="url(#Trazado_21316)">
        <path id="Trazado_21316-2" data-name="Trazado 21316" d="M1274.534-86.976a1.357,1.357,0,0,1-.831-.35l-.354-.366a2.344,2.344,0,0,1-.569-1.478,3.982,3.982,0,0,1,.791-2.206,20.96,20.96,0,0,1,1.591-2.048q2.277-2.822,4.775-5.468c.718-.769,1.417-1.539,2.113-2.31q6.987-7.876,14.276-14.749a134.668,134.668,0,0,1,16.031-12.865q.7-.483,1.445-1.038c.731-.574,1.495-1.117,2.277-1.622a8.934,8.934,0,0,1,2.231-1.1,6.28,6.28,0,0,1,1.845-.322,5.8,5.8,0,0,1,1,.088,2.346,2.346,0,0,1,1.041.656,1.669,1.669,0,0,1,.535,1.228,1.592,1.592,0,0,1-.163.674,5.534,5.534,0,0,1-1.1,1.562q-3.277,3.379-7,6.653-2.051,1.827-4.107,3.435-1.37,1.1-2.708,2.222-10.558,8.89-15.449,12.4-1.684,1.169-3.513,2.209a36.155,36.155,0,0,0-4.3,2.821c-.418.263-.627.492-.627.685,0,.07.064.114.2.132a13.887,13.887,0,0,0,3.631-1.447c.664-.322,1.272-.618,1.813-.891.818-.4,1.436-.7,1.863-.89a13.3,13.3,0,0,1,5.493-1.8,3.473,3.473,0,0,1,1.444.294,1.6,1.6,0,0,1,1.146,1.462,1.692,1.692,0,0,1-.045.378,2.255,2.255,0,0,1-1.368,1.14,15.823,15.823,0,0,1-2.19.688c-.454.115-.836.229-1.145.337q-3.408,1.313-6.789,2.938-2.173,1.023-4.344,1.972-1.8.746-1.8,1.272,0,.5,1.5,1.025a16.524,16.524,0,0,0,4.781.731,25.563,25.563,0,0,0,11.877-3.656c.15-.087.3-.175.444-.263q.955-.54,1.846-1.065c1.094-.644,1.881-1.092,2.367-1.347a5.11,5.11,0,0,1,2.009-.656,1.167,1.167,0,0,1,.268.028c.29.039.431.245.431.616,0,.525-.444,1.186-1.34,1.987a35.959,35.959,0,0,1-6.293,4.3,22.423,22.423,0,0,1-8.115,3,33.458,33.458,0,0,1-3.407.278,16.661,16.661,0,0,1-5.088-.79,7.187,7.187,0,0,1-1.382-.628,10.873,10.873,0,0,1-1.059-.716,4.661,4.661,0,0,0-2.367-1.228q-.729,0-1.268,1.4a10.89,10.89,0,0,1-.977,1.756,1.777,1.777,0,0,1-1.359.935m19.8-22.368q.435,0,4.552-3.157a159.93,159.93,0,0,0,15.495-12.806c1.263-1.189,1.89-1.892,1.89-2.106,0-.029-.018-.044-.059-.044q-.463,0-3.839,2.384c-.456.33-.8.579-1.028.745a152.933,152.933,0,0,0-15.849,13.537c-.8.8-1.208,1.267-1.208,1.4,0,.031.018.044.046.044" transform="translate(-626.74 541.7)"/>
      </g>
      <g transform="matrix(1, 0, 0, 1, -855.57, -274.66)" filter="url(#Trazado_21317)">
        <path id="Trazado_21317-2" data-name="Trazado 21317" d="M1349.988-53.648a6.182,6.182,0,0,1-6.1-3.977,6.208,6.208,0,0,1-.446-2.235,5.279,5.279,0,0,1,.191-1.419,8.081,8.081,0,0,1,1.773-3.172,15.262,15.262,0,0,1,2.813-2.5,8.566,8.566,0,0,1,4.853-1.741,5.375,5.375,0,0,1,2.726.7q1.349.9,1.414,1.519c.027.41.039.644.039.7a3.806,3.806,0,0,1-.858,2.234,10.433,10.433,0,0,1-2.949,2.268,8.746,8.746,0,0,1-3.99,1.284,5.849,5.849,0,0,1-1.372-.159,4.493,4.493,0,0,0-.949-.119h-.151c-.386.088-.582.24-.595.453a2.15,2.15,0,0,0-.014.234,1.279,1.279,0,0,0-.014.191,2.817,2.817,0,0,0,.25,1.112,2.551,2.551,0,0,0,.772,1.007,4.493,4.493,0,0,0,2.34.584,14.128,14.128,0,0,0,4.462-.89,59.543,59.543,0,0,0,7.5-3.231c.091-.049.182-.093.268-.132.341-.175.66-.326.955-.453a15.961,15.961,0,0,1,1.486-.7,5.728,5.728,0,0,1,2.026-.556c.381,0,.582.155.613.466q-.047,1-3.617,3.218a45.143,45.143,0,0,1-9.437,4.691,13.706,13.706,0,0,1-3.989.615m-.391-9.78a4.3,4.3,0,0,0,1.55-.5c.359-.165.618-.291.777-.382q1.738-.934,1.74-1.125c0-.029-.031-.044-.091-.044a3.521,3.521,0,0,0-.889.219q-2.879,1-3.35,1.77a.562.562,0,0,0,.263.059" transform="translate(-665.29 506.15)"/>
      </g>
      <g transform="matrix(1, 0, 0, 1, -855.57, -274.66)" filter="url(#Trazado_21318)">
        <path id="Trazado_21318-2" data-name="Trazado 21318" d="M1373.448-73.517a6.011,6.011,0,0,1-1.89-.294,4.291,4.291,0,0,1-2.29-1.944,4.435,4.435,0,0,1-.554-2.163,5.56,5.56,0,0,1,.731-2.809,25.957,25.957,0,0,1,2.858-3.434c.527-.546,1.009-1.066,1.44-1.563a107.5,107.5,0,0,1,8.488-8.524q1.978-1.842,4.135-3.494L1387.975-99c.686-.585,1.354-1.174,2.009-1.769H1390v-.016c.078-.059.118-.108.118-.146,0-.106-.208-.16-.623-.16q-1.744,0-7.5.147-4.587.116-11.627.116-1.219,0-2.649-.072-3.933-.2-5.506-1.784a2.809,2.809,0,0,1-.733-1.844,3.143,3.143,0,0,1,.168-.978,1.3,1.3,0,0,1,1.191-.878,3.668,3.668,0,0,1,1.813.631l.614.422a7.1,7.1,0,0,0,2.245,1.213c.568.1,1.6.185,3.113.265.335.007.645.023.923.044,2.694.144,5.393.219,8.083.219q8.512,0,13.063-.118a4.3,4.3,0,0,0,1.727-.335,12.192,12.192,0,0,0,1.849-1.228l.759-.512q2.087-1.46,5.226-3.434,1.69-1.113,3.585-2.179a10.347,10.347,0,0,1,4.421-1.549,2.7,2.7,0,0,1,1.487.438,1.621,1.621,0,0,1,.79,1.271,1.775,1.775,0,0,1-.386,1.025,19.873,19.873,0,0,1-3.749,3.054,23.052,23.052,0,0,0-3.321,2.588c-.086.09-.136.157-.136.206s.14.087.418.087q1.507.1,2.931.1,2.263,0,5.466-.175,5.309-.277,11.087-.278c1.508,0,2.94.034,4.283.1a20.02,20.02,0,0,1,3.173.381c.745.175,1.118.394,1.118.659q0,1.024-8.5,1.022-4.675.015-21.765.834a1.5,1.5,0,0,1-.222.013,13.394,13.394,0,0,0-2.349.25,17.583,17.583,0,0,0-2.426,1.637l-3.486,2.572q-3.141,2.367-6.47,4.443-2.747,1.668-5.763,3.684a49.724,49.724,0,0,0-5.656,4.415,22.179,22.179,0,0,0-4.3,5.175,3.9,3.9,0,0,0-.727,1.975,2.558,2.558,0,0,0,.014.278c.068.4.468.6,1.189.6a11.925,11.925,0,0,0,4.258-1.2,29,29,0,0,0,3.662-2.019q1.425-.92,2.9-1.753,2.01-1.154,4.611-2.881c1.286-.857,2.563-1.681,3.844-2.469a4.938,4.938,0,0,1,2.576-.805,3.967,3.967,0,0,1,1.054.146c.332.136.491.307.491.512a.823.823,0,0,1-.191.453,9.833,9.833,0,0,1-3.054,2.325q-1.486.935-5.076,3.376c-1.04.7-2.094,1.4-3.153,2.105q-6.264,4.283-10.273,5.19a8.107,8.107,0,0,1-1.159.088m27.046-30.977h.059a.269.269,0,0,0,.163-.044.4.4,0,0,0,.092-.1.142.142,0,0,0,.027-.079c0-.03-.013-.044-.045-.044a.53.53,0,0,0-.295.1.123.123,0,0,0-.046.088.085.085,0,0,0,.046.075m-.5.453a.241.241,0,0,0,.164-.263c0-.049-.019-.069-.045-.059-.132,0-.2.077-.2.234.022.057.045.088.077.088m-5.9,3.975a1.563,1.563,0,0,0,.463-.307c.26-.2.382-.317.373-.365a1.537,1.537,0,0,0-.2.087,2.358,2.358,0,0,0-.564.453c-.018.032-.036.054-.046.075s-.031.034-.031.044Zm-.328.309c.05,0,.083-.037.091-.1a.1.1,0,0,0-.014-.051.066.066,0,0,0-.059-.023c-.023.011-.037.02-.054.031a.052.052,0,0,0-.022.044c0,.067.022.1.059.1m-.8.51.013-.087v-.021s-.009-.008-.013-.008-.019.006-.028.016a.138.138,0,0,0,0,.044.093.093,0,0,0,0,.029.231.231,0,0,0,.028.028" transform="translate(-675.13 530.65)"/>
      </g>
      <g transform="matrix(1, 0, 0, 1, -855.57, -274.66)" filter="url(#Trazado_21319)">
        <path id="Trazado_21319-2" data-name="Trazado 21319" d="M1416.328-47.037a6.055,6.055,0,0,1-.718-.044,2.922,2.922,0,0,1-2.2-1.681,3.887,3.887,0,0,1-.3-1.462,3.718,3.718,0,0,1,.119-.922,8.969,8.969,0,0,1,2.649-4.078,18.71,18.71,0,0,1,3.217-2.556,35.651,35.651,0,0,1,3.631-1.99l.2-.1c.854-.546,1.276-1.014,1.276-1.4a2.287,2.287,0,0,0-.654-1.391,11.73,11.73,0,0,1-.732-1.14,7.041,7.041,0,0,1-1.067-2.835c-.01-.644-.014-.986-.014-1.025a5.031,5.031,0,0,1,1.426-3.419,19.763,19.763,0,0,1,3.9-2.952,27.362,27.362,0,0,1,4.421-2.15,3.988,3.988,0,0,1,1.249-.234,2.931,2.931,0,0,1,2.486,1.653,1.936,1.936,0,0,1,.286.934,1.2,1.2,0,0,1-.15.584,2.541,2.541,0,0,1-1.208,1.038,3.742,3.742,0,0,1-1.127.191,4.479,4.479,0,0,1-.523-.029,4.031,4.031,0,0,0-.508-.031,6.1,6.1,0,0,0-.7.044,7.569,7.569,0,0,0-1.967.674,13.332,13.332,0,0,0-2.989,1.769,3.557,3.557,0,0,0-1.374,1.8,6.919,6.919,0,0,0-.176,1.2,6.592,6.592,0,0,0,.713,2.688,4.834,4.834,0,0,0,.478.775,3.3,3.3,0,0,0,.686.747,1.134,1.134,0,0,0,.655.278.587.587,0,0,0,.177-.029h.032q1.545-.528,2.944-1.156a30.648,30.648,0,0,1,3.72-1.388c1.022-.314,2-.638,2.936-.981.445-.175,1.019-.36,1.713-.556a11.76,11.76,0,0,1,2.99-.525,3.26,3.26,0,0,1,.786.087.606.606,0,0,1,.549.613,1.038,1.038,0,0,1-.027.234v.044q-.552,1.711-5.062,2.836-2.01.5-3.6,1.054h-.018a.045.045,0,0,0-.023.013q-5.363,1.815-6.325,2.968a1.056,1.056,0,0,0-.045.337,2.3,2.3,0,0,0,.06.5,6.066,6.066,0,0,1,.072,1.009,3.2,3.2,0,0,1-.268,1.344l-.117.278a15,15,0,0,1-3.912,4.824,19.8,19.8,0,0,1-5.4,3.141,5.912,5.912,0,0,1-2.158.424m.385-3.39a4.346,4.346,0,0,0,1.65-.644,23.631,23.631,0,0,0,3.244-2.15q2.9-2.22,3.29-3.7v-.059c0-.283-.1-.42-.327-.409a1.609,1.609,0,0,0-.681.234,22.576,22.576,0,0,0-3.454,2.265,25.276,25.276,0,0,0-3.094,2.7,4.838,4.838,0,0,0-.822,1.215.875.875,0,0,0-.074.322c0,.144.087.219.269.219" transform="translate(-703.3 510.43)"/>
      </g>
      <g transform="matrix(1, 0, 0, 1, -855.57, -274.66)" filter="url(#Unión_85)">
        <path id="Unión_85-2" data-name="Unión 85" d="M23.774,71.492A20.336,20.336,0,0,1,9.128,53.147V35.659H.757a.78.78,0,0,1-.6-.294A.88.88,0,0,1,0,34.779L1.2,22.3v-.082a.7.7,0,0,1,.747-.652H9.119l1.049-9.4a.674.674,0,0,1,.595-.734l15.4-2.2a.9.9,0,0,1,.6.156,1.072,1.072,0,0,1,.3.584v11.45H39.909a.8.8,0,0,1,.6.294.876.876,0,0,1,.155.587l-1.2,12.477a.379.379,0,0,1,0,.082.7.7,0,0,1-.747.652H27.062V51.227A3.162,3.162,0,0,0,29,54.453a4.169,4.169,0,0,0,1.345.156,25.135,25.135,0,0,0,8.069-2.055h.6l.448.44,6.425,15.122a.357.357,0,0,0,.021.05.768.768,0,0,1-.469.98A40.837,40.837,0,0,1,30.5,72.372q-.326.01-.651.01A21.182,21.182,0,0,1,23.774,71.492ZM150.069,69.88H133.63a.7.7,0,0,1-.747-.652.353.353,0,0,1,0-.079V22.322a.7.7,0,0,1,.657-.743.457.457,0,0,1,.09,0h16.439a.7.7,0,0,1,.747.652V69.149a.7.7,0,0,1-.666.731l-.039,0Zm-40.807-.006H94.021a.831.831,0,0,1-.75-.437L86.1,49.763,78.923,69.437a.823.823,0,0,1-.747.437H62.938a.834.834,0,0,1-.75-.437L43.654,22.607a1.093,1.093,0,0,1,.155-.734.786.786,0,0,1,.6-.294H62.5a.828.828,0,0,1,.747.437l8.072,20.555,7.468-20.555a.762.762,0,0,1,.747-.584H92.685a1.465,1.465,0,0,1,.741.584L100.9,42.571l8.066-20.555a.836.836,0,0,1,.75-.437H127.8a.806.806,0,0,1,.589.294c.152.294.308.44.152.734l-18.534,46.83a.821.821,0,0,1-.729.437Zm95.063-.147H187.8a.7.7,0,0,1-.666-.731V40.077a2.6,2.6,0,0,0-1.942-2.788,5.865,5.865,0,0,0-2.241-.294,23.971,23.971,0,0,0-8.52,1.908V69a.379.379,0,0,1,0,.082.7.7,0,0,1-.747.649H157.164A.693.693,0,0,1,156.5,69V22.084a.7.7,0,0,1,.747-.652h11.807a.988.988,0,0,1,.747.584l.6,2.351a37.506,37.506,0,0,1,20.029-3.082c9.563,1.468,14.643,8.075,14.643,18.941V69.079a.7.7,0,0,1-.7.65ZM403.875,68.2a11.691,11.691,0,0,1-4.109-3.367,11.519,11.519,0,0,1-1.862-4.488,18.141,18.141,0,0,1-.377-4.491v-23.2h-5.977V25.163h5.977V18.054l10.086-1.873v8.982H418.07v7.109H407.614v23.2a7.527,7.527,0,0,0,1.124,4.118,4.036,4.036,0,0,0,3.356,1.494h2.241l2.238-.376c.75,0,1.868-.373,2.618-.373l1.124,6.36c-1.5.751-3.362,1.5-4.859,2.245a18.516,18.516,0,0,1-4.483.748q-.262.009-.524.009A15.126,15.126,0,0,1,403.875,68.2Zm-54.435,1.494V32.909c0-.748-.373-1.5-1.118-1.5h-2.618V24.277a11.8,11.8,0,0,1,2.989-.751c.747,0,1.868-.373,2.615-.373a9.884,9.884,0,0,1,4.483,1.124,6.667,6.667,0,0,1,2.618,3,23.583,23.583,0,0,1,5.227-3,22.911,22.911,0,0,1,6.718-1.124,21.656,21.656,0,0,1,7.1,1.124,9.543,9.543,0,0,1,4.486,3,11.773,11.773,0,0,1,2.241,4.881,42.019,42.019,0,0,1,.744,6.754V68.938H374.84V40.414a17.564,17.564,0,0,0-1.124-6.378,4.523,4.523,0,0,0-4.48-1.876,7.869,7.869,0,0,0-4.856,1.876,25.8,25.8,0,0,0-4.853,4.13V69.689Zm96.518-.646a35.592,35.592,0,0,1-8.559-.966,38.4,38.4,0,0,1-7.875-2.909l2.627-7.6a58.333,58.333,0,0,0,6.631,1.658,40.652,40.652,0,0,0,7.181.693,8.705,8.705,0,0,0,4.56-1.244,3.369,3.369,0,0,0,1.8-3.32,3.5,3.5,0,0,0-1.246-2.768,11.416,11.416,0,0,0-2.761-1.658l-8.153-2.489a16.769,16.769,0,0,1-4.979-2.492,12.176,12.176,0,0,1-3.042-2.9,9.7,9.7,0,0,1-1.515-3.461,18.651,18.651,0,0,1-.418-4.012,15.243,15.243,0,0,1,1.1-5.533,12.26,12.26,0,0,1,3.317-4.144,14.341,14.341,0,0,1,4.982-2.63,19.457,19.457,0,0,1,6.219-.969,27.507,27.507,0,0,1,4.835.414c1.518.276,3.039.555,4.56.969,1.384.414,2.486.831,3.592,1.245s1.656.693,2.071.831l-2.764,7.473a10.344,10.344,0,0,0-2.489-.693,24.228,24.228,0,0,1-3.039-.7,27.509,27.509,0,0,0-3.317-.549,26.037,26.037,0,0,0-3.311-.138A6.449,6.449,0,0,0,442.1,32.4a3.606,3.606,0,0,0-1.387,2.768,4.089,4.089,0,0,0,.69,2.072,7.359,7.359,0,0,0,2.071,1.529,14.7,14.7,0,0,0,3.455,1.247c1.381.414,2.9.828,4.7,1.374a18.8,18.8,0,0,1,5.388,2.351,11.793,11.793,0,0,1,3.455,2.9,9.979,9.979,0,0,1,1.8,3.877,20.217,20.217,0,0,1,.553,4.975,12.457,12.457,0,0,1-1.246,5.533,13.12,13.12,0,0,1-3.452,4.282,16.75,16.75,0,0,1-5.388,2.771,22.394,22.394,0,0,1-6.514.967ZM311.117,67.077a22.232,22.232,0,0,1-6.724-4.878,24.19,24.19,0,0,1-4.106-7.5,24.874,24.874,0,0,1-1.124-9.008,27.45,27.45,0,0,1,1.494-9.381,20.277,20.277,0,0,1,3.736-7.505,16.107,16.107,0,0,1,6.353-4.878,22.035,22.035,0,0,1,8.586-1.876,23.354,23.354,0,0,1,7.1,1.124,18.884,18.884,0,0,1,5.968,3.381,17.066,17.066,0,0,1,4.106,6A21.464,21.464,0,0,1,338,40.81v5.633l-28.381,1.124a22.294,22.294,0,0,0,.75,4.878,7.769,7.769,0,0,0,2.241,3.751,8.531,8.531,0,0,0,3.736,2.627,13.031,13.031,0,0,0,5.23,1.124,32.994,32.994,0,0,0,6.348-.748,26.057,26.057,0,0,0,7.474-3l1.868,7.127a29.047,29.047,0,0,1-7.471,4.127,27.721,27.721,0,0,1-9.713,1.5q-.418.019-.835.019A18.355,18.355,0,0,1,311.117,67.077Zm8.215-36.02a13.34,13.34,0,0,0-3.739.751,6.72,6.72,0,0,0-2.612,1.876,11.328,11.328,0,0,0-1.868,2.627c-.374,1.127-.747,1.879-1.118,3l17.925.376a16.616,16.616,0,0,0-2.241-6.005,8.166,8.166,0,0,0-6.017-2.634C319.553,31.05,319.443,31.052,319.332,31.057Zm-93.825,36.02a22.159,22.159,0,0,1-6.724-4.878,24.258,24.258,0,0,1-4.109-7.5,24.807,24.807,0,0,1-1.118-9.008,27.235,27.235,0,0,1,1.491-9.381,20.232,20.232,0,0,1,3.736-7.505,16.1,16.1,0,0,1,6.35-4.878,22.05,22.05,0,0,1,8.589-1.876,23.382,23.382,0,0,1,7.1,1.124,18.886,18.886,0,0,1,5.968,3.381,17.152,17.152,0,0,1,4.109,6,21.515,21.515,0,0,1,1.491,8.254v5.633L224.01,47.567a21.933,21.933,0,0,0,.747,4.878A7.769,7.769,0,0,0,227,56.2a8.531,8.531,0,0,0,3.736,2.627,13.031,13.031,0,0,0,5.23,1.124,32.937,32.937,0,0,0,6.347-.748,26.09,26.09,0,0,0,7.474-3l1.865,7.127a28.9,28.9,0,0,1-7.471,4.127,27.693,27.693,0,0,1-9.709,1.5q-.418.019-.836.019A18.346,18.346,0,0,1,225.507,67.077Zm8.212-36.02a13.258,13.258,0,0,0-3.733.751,6.686,6.686,0,0,0-2.615,1.876,11.416,11.416,0,0,0-1.868,2.627c-.377,1.127-.744,1.879-1.121,3l17.928.376a16.617,16.617,0,0,0-2.241-6.005,8.167,8.167,0,0,0-6.019-2.634C233.94,31.05,233.83,31.052,233.719,31.057Zm35.5,37.564L255.5,22.756h11.64l5.182,18.521,3.906,16.6h.637l3.909-16.6L285.8,22.756h11.159L283.247,68.621ZM131.837,9.4c0-5.574,4.184-9.4,10.011-9.4,5.98,0,10.164,3.822,10.164,9.4s-4.187,9.392-10.164,9.392S131.837,14.969,131.837,9.4Z" transform="translate(255.7 315.52)"/>
      </g>
      <g transform="matrix(1, 0, 0, 1, -855.57, -274.66)" filter="url(#Trazado_21353)">
        <path id="Trazado_21353-2" data-name="Trazado 21353" d="M713.883-341.909c-5.829,0-10.013,3.823-10.013,9.395s4.036,9.394,10.013,9.394,10.162-3.82,10.162-9.394-4.183-9.395-10.162-9.395" transform="translate(-316.33 657.43)"/>
      </g>
      <g data-type="innerShadowGroup">
        <g transform="matrix(1, 0, 0, 1, -855.57, -274.66)" filter="url(#Trazado_21354)">
          <path id="Trazado_21354-3" data-name="Trazado 21354" d="M706.915-293.555h16.441a.7.7,0,0,1,.747.652v46.918a.7.7,0,0,1-.666.731.436.436,0,0,1-.081,0H706.915a.7.7,0,0,1-.747-.651.49.49,0,0,1,0-.08v-46.828a.7.7,0,0,1,.658-.742.466.466,0,0,1,.089,0" transform="translate(-317.58 630.66)"/>
        </g>
        <g transform="matrix(1, 0, 0, 1, -855.57, -274.66)" filter="url(#Trazado_21354-2)">
          <path id="Trazado_21354-4" data-name="Trazado 21354" d="M706.915-293.555h16.441a.7.7,0,0,1,.747.652v46.918a.7.7,0,0,1-.666.731.436.436,0,0,1-.081,0H706.915a.7.7,0,0,1-.747-.651.49.49,0,0,1,0-.08v-46.828a.7.7,0,0,1,.658-.742.466.466,0,0,1,.089,0" transform="translate(-317.58 630.66)" fill="#fff"/>
        </g>
      </g>
      <g data-type="innerShadowGroup">
        <g transform="matrix(1, 0, 0, 1, -855.57, -274.66)" filter="url(#Trazado_21355)">
          <path id="Trazado_21355-3" data-name="Trazado 21355" d="M792.075-294.55a37.485,37.485,0,0,0-20.028,3.082l-.6-2.351a.99.99,0,0,0-.747-.584H758.9a.7.7,0,0,0-.748.651v46.911a.7.7,0,0,0,.663.733h16.525a.7.7,0,0,0,.747-.651.405.405,0,0,0,0-.083v-30.094a24.069,24.069,0,0,1,8.519-1.908,5.933,5.933,0,0,1,2.241.294,2.6,2.6,0,0,1,1.943,2.788v28.92a.7.7,0,0,0,.666.733h16.52a.7.7,0,0,0,.749-.651v-28.853c0-10.865-5.082-17.471-14.645-18.938" transform="translate(-345.94 631.36)"/>
        </g>
        <g transform="matrix(1, 0, 0, 1, -855.57, -274.66)" filter="url(#Trazado_21355-2)">
          <path id="Trazado_21355-4" data-name="Trazado 21355" d="M792.075-294.55a37.485,37.485,0,0,0-20.028,3.082l-.6-2.351a.99.99,0,0,0-.747-.584H758.9a.7.7,0,0,0-.748.651v46.911a.7.7,0,0,0,.663.733h16.525a.7.7,0,0,0,.747-.651.405.405,0,0,0,0-.083v-30.094a24.069,24.069,0,0,1,8.519-1.908,5.933,5.933,0,0,1,2.241.294,2.6,2.6,0,0,1,1.943,2.788v28.92a.7.7,0,0,0,.666.733h16.52a.7.7,0,0,0,.749-.651v-28.853c0-10.865-5.082-17.471-14.645-18.938" transform="translate(-345.94 631.36)" fill="#fff"/>
        </g>
      </g>
      <g data-type="innerShadowGroup">
        <g transform="matrix(1, 0, 0, 1, -855.57, -274.66)" filter="url(#Trazado_21356)">
          <path id="Trazado_21356-3" data-name="Trazado 21356" d="M453.192-277.458l-.449-.44h-.6a25.118,25.118,0,0,1-8.068,2.055A4.169,4.169,0,0,1,442.73-276a3.167,3.167,0,0,1-1.945-3.226v-15.71h11.66a.7.7,0,0,0,.747-.652.443.443,0,0,0,0-.083l1.2-12.476a.871.871,0,0,0-.155-.587.793.793,0,0,0-.6-.294H440.78v-11.451a1.068,1.068,0,0,0-.3-.584.9.9,0,0,0-.6-.155l-15.4,2.2a.671.671,0,0,0-.594.734l-1.048,9.395h-7.173a.7.7,0,0,0-.747.651.692.692,0,0,0,0,.083l-1.2,12.479a.859.859,0,0,0,.156.587.791.791,0,0,0,.6.294h8.37v17.486A20.338,20.338,0,0,0,437.5-258.959a21.222,21.222,0,0,0,6.726.88,40.836,40.836,0,0,0,14.944-3.228.765.765,0,0,0,.469-.979c-.008-.018-.014-.034-.021-.049Z" transform="translate(-158.02 645.98)"/>
        </g>
        <g transform="matrix(1, 0, 0, 1, -855.57, -274.66)" filter="url(#Trazado_21356-2)">
          <path id="Trazado_21356-4" data-name="Trazado 21356" d="M453.192-277.458l-.449-.44h-.6a25.118,25.118,0,0,1-8.068,2.055A4.169,4.169,0,0,1,442.73-276a3.167,3.167,0,0,1-1.945-3.226v-15.71h11.66a.7.7,0,0,0,.747-.652.443.443,0,0,0,0-.083l1.2-12.476a.871.871,0,0,0-.155-.587.793.793,0,0,0-.6-.294H440.78v-11.451a1.068,1.068,0,0,0-.3-.584.9.9,0,0,0-.6-.155l-15.4,2.2a.671.671,0,0,0-.594.734l-1.048,9.395h-7.173a.7.7,0,0,0-.747.651.692.692,0,0,0,0,.083l-1.2,12.479a.859.859,0,0,0,.156.587.791.791,0,0,0,.6.294h8.37v17.486A20.338,20.338,0,0,0,437.5-258.959a21.222,21.222,0,0,0,6.726.88,40.836,40.836,0,0,0,14.944-3.228.765.765,0,0,0,.469-.979c-.008-.018-.014-.034-.021-.049Z" transform="translate(-158.02 645.98)" fill="#fff"/>
        </g>
      </g>
      <g data-type="innerShadowGroup">
        <g transform="matrix(1, 0, 0, 1, -855.57, -274.66)" filter="url(#Trazado_21357)">
          <path id="Trazado_21357-3" data-name="Trazado 21357" d="M593.93-293.735H575.848a.83.83,0,0,0-.75.437l-8.067,20.553L559.558-293.3a1.469,1.469,0,0,0-.743-.584H545.659a.762.762,0,0,0-.747.584l-7.467,20.553-8.07-20.553a.828.828,0,0,0-.749-.437H510.54a.781.781,0,0,0-.6.294,1.1,1.1,0,0,0-.157.734l18.536,46.828a.834.834,0,0,0,.749.44h15.239a.828.828,0,0,0,.748-.44l7.176-19.672L559.4-245.88a.834.834,0,0,0,.75.44h15.241a.822.822,0,0,0,.745-.44l18.536-46.828c.155-.294,0-.441-.155-.734a.787.787,0,0,0-.587-.294" transform="translate(-210.43 630.84)"/>
        </g>
        <g transform="matrix(1, 0, 0, 1, -855.57, -274.66)" filter="url(#Trazado_21357-2)">
          <path id="Trazado_21357-4" data-name="Trazado 21357" d="M593.93-293.735H575.848a.83.83,0,0,0-.75.437l-8.067,20.553L559.558-293.3a1.469,1.469,0,0,0-.743-.584H545.659a.762.762,0,0,0-.747.584l-7.467,20.553-8.07-20.553a.828.828,0,0,0-.749-.437H510.54a.781.781,0,0,0-.6.294,1.1,1.1,0,0,0-.157.734l18.536,46.828a.834.834,0,0,0,.749.44h15.239a.828.828,0,0,0,.748-.44l7.176-19.672L559.4-245.88a.834.834,0,0,0,.75.44h15.241a.822.822,0,0,0,.745-.44l18.536-46.828c.155-.294,0-.441-.155-.734a.787.787,0,0,0-.587-.294" transform="translate(-210.43 630.84)" fill="#fff"/>
        </g>
      </g>
      <g data-type="innerShadowGroup">
        <g transform="matrix(1, 0, 0, 1, -855.57, -274.66)" filter="url(#Trazado_21358)">
          <path id="Trazado_21358-3" data-name="Trazado 21358" d="M1100.826-274.862a16.631,16.631,0,0,0-2.241-6,8.164,8.164,0,0,0-6.348-2.629,13.249,13.249,0,0,0-3.74.753,6.727,6.727,0,0,0-2.614,1.876,11.4,11.4,0,0,0-1.866,2.626c-.373,1.125-.747,1.876-1.118,3Zm-18.3,7.878a22.206,22.206,0,0,0,.748,4.879,7.763,7.763,0,0,0,2.241,3.751,8.542,8.542,0,0,0,3.735,2.627,13.068,13.068,0,0,0,5.23,1.125,32.823,32.823,0,0,0,6.348-.749,26.07,26.07,0,0,0,7.474-3l1.867,7.127a29.109,29.109,0,0,1-7.47,4.127,27.8,27.8,0,0,1-9.714,1.5,18.381,18.381,0,0,1-8.96-1.877,22.212,22.212,0,0,1-6.726-4.879,24.182,24.182,0,0,1-4.107-7.5,24.9,24.9,0,0,1-1.123-9.008,27.482,27.482,0,0,1,1.495-9.382,20.251,20.251,0,0,1,3.735-7.505,16.127,16.127,0,0,1,6.353-4.876,22.033,22.033,0,0,1,8.588-1.876,23.333,23.333,0,0,1,7.1,1.125A18.866,18.866,0,0,1,1105.3-288a17.089,17.089,0,0,1,4.107,6,21.456,21.456,0,0,1,1.495,8.254v5.631Z" transform="translate(-517.2 630.08)"/>
        </g>
        <g transform="matrix(1, 0, 0, 1, -855.57, -274.66)" filter="url(#Trazado_21358-2)">
          <path id="Trazado_21358-4" data-name="Trazado 21358" d="M1100.826-274.862a16.631,16.631,0,0,0-2.241-6,8.164,8.164,0,0,0-6.348-2.629,13.249,13.249,0,0,0-3.74.753,6.727,6.727,0,0,0-2.614,1.876,11.4,11.4,0,0,0-1.866,2.626c-.373,1.125-.747,1.876-1.118,3Zm-18.3,7.878a22.206,22.206,0,0,0,.748,4.879,7.763,7.763,0,0,0,2.241,3.751,8.542,8.542,0,0,0,3.735,2.627,13.068,13.068,0,0,0,5.23,1.125,32.823,32.823,0,0,0,6.348-.749,26.07,26.07,0,0,0,7.474-3l1.867,7.127a29.109,29.109,0,0,1-7.47,4.127,27.8,27.8,0,0,1-9.714,1.5,18.381,18.381,0,0,1-8.96-1.877,22.212,22.212,0,0,1-6.726-4.879,24.182,24.182,0,0,1-4.107-7.5,24.9,24.9,0,0,1-1.123-9.008,27.482,27.482,0,0,1,1.495-9.382,20.251,20.251,0,0,1,3.735-7.505,16.127,16.127,0,0,1,6.353-4.876,22.033,22.033,0,0,1,8.588-1.876,23.333,23.333,0,0,1,7.1,1.125A18.866,18.866,0,0,1,1105.3-288a17.089,17.089,0,0,1,4.107,6,21.456,21.456,0,0,1,1.495,8.254v5.631Z" transform="translate(-517.2 630.08)" fill="#fff"/>
        </g>
      </g>
      <g data-type="innerShadowGroup">
        <g transform="matrix(1, 0, 0, 1, -855.57, -274.66)" filter="url(#Trazado_21359)">
          <path id="Trazado_21359-3" data-name="Trazado 21359" d="M912.418-274.862a16.583,16.583,0,0,0-2.241-6,8.167,8.167,0,0,0-6.351-2.629,13.208,13.208,0,0,0-3.734.753,6.669,6.669,0,0,0-2.613,1.876,11.34,11.34,0,0,0-1.869,2.626c-.375,1.125-.745,1.876-1.119,3Zm-18.3,7.878a21.917,21.917,0,0,0,.746,4.879,7.8,7.8,0,0,0,2.241,3.751,8.54,8.54,0,0,0,3.738,2.627,13.045,13.045,0,0,0,5.228,1.125,32.807,32.807,0,0,0,6.348-.749,26.091,26.091,0,0,0,7.474-3l1.865,7.127a29,29,0,0,1-7.469,4.127,27.777,27.777,0,0,1-9.71,1.5,18.4,18.4,0,0,1-8.964-1.877,22.2,22.2,0,0,1-6.724-4.879,24.2,24.2,0,0,1-4.108-7.5,24.883,24.883,0,0,1-1.12-9.008,27.352,27.352,0,0,1,1.491-9.382,20.274,20.274,0,0,1,3.736-7.505,16.115,16.115,0,0,1,6.352-4.876,22.05,22.05,0,0,1,8.589-1.876,23.34,23.34,0,0,1,7.1,1.125A18.893,18.893,0,0,1,916.9-288a17.157,17.157,0,0,1,4.107,6,21.487,21.487,0,0,1,1.494,8.254v5.631Z" transform="translate(-414.4 630.08)"/>
        </g>
        <g transform="matrix(1, 0, 0, 1, -855.57, -274.66)" filter="url(#Trazado_21359-2)">
          <path id="Trazado_21359-4" data-name="Trazado 21359" d="M912.418-274.862a16.583,16.583,0,0,0-2.241-6,8.167,8.167,0,0,0-6.351-2.629,13.208,13.208,0,0,0-3.734.753,6.669,6.669,0,0,0-2.613,1.876,11.34,11.34,0,0,0-1.869,2.626c-.375,1.125-.745,1.876-1.119,3Zm-18.3,7.878a21.917,21.917,0,0,0,.746,4.879,7.8,7.8,0,0,0,2.241,3.751,8.54,8.54,0,0,0,3.738,2.627,13.045,13.045,0,0,0,5.228,1.125,32.807,32.807,0,0,0,6.348-.749,26.091,26.091,0,0,0,7.474-3l1.865,7.127a29,29,0,0,1-7.469,4.127,27.777,27.777,0,0,1-9.71,1.5,18.4,18.4,0,0,1-8.964-1.877,22.2,22.2,0,0,1-6.724-4.879,24.2,24.2,0,0,1-4.108-7.5,24.883,24.883,0,0,1-1.12-9.008,27.352,27.352,0,0,1,1.491-9.382,20.274,20.274,0,0,1,3.736-7.505,16.115,16.115,0,0,1,6.352-4.876,22.05,22.05,0,0,1,8.589-1.876,23.34,23.34,0,0,1,7.1,1.125A18.893,18.893,0,0,1,916.9-288a17.157,17.157,0,0,1,4.107,6,21.487,21.487,0,0,1,1.494,8.254v5.631Z" transform="translate(-414.4 630.08)" fill="#fff"/>
        </g>
      </g>
      <g data-type="innerShadowGroup">
        <g transform="matrix(1, 0, 0, 1, -855.57, -274.66)" filter="url(#Trazado_21360)">
          <path id="Trazado_21360-3" data-name="Trazado 21360" d="M1199.2-290.029a21.7,21.7,0,0,1,7.1,1.123,9.561,9.561,0,0,1,4.484,3,11.734,11.734,0,0,1,2.24,4.879,41.7,41.7,0,0,1,.746,6.756v30.022h-10.083v-28.521a17.605,17.605,0,0,0-1.122-6.38,4.53,4.53,0,0,0-4.48-1.875,7.868,7.868,0,0,0-4.858,1.875,25.727,25.727,0,0,0-4.852,4.129v31.523h-10.087v-36.78c0-.749-.373-1.5-1.119-1.5h-2.617v-7.131a11.692,11.692,0,0,1,2.991-.749c.746,0,1.867-.374,2.613-.374a9.918,9.918,0,0,1,4.485,1.123,6.674,6.674,0,0,1,2.618,3,23.663,23.663,0,0,1,5.225-3,23,23,0,0,1,6.72-1.123" transform="translate(-573.14 628.71)"/>
        </g>
        <g transform="matrix(1, 0, 0, 1, -855.57, -274.66)" filter="url(#Trazado_21360-2)">
          <path id="Trazado_21360-4" data-name="Trazado 21360" d="M1199.2-290.029a21.7,21.7,0,0,1,7.1,1.123,9.561,9.561,0,0,1,4.484,3,11.734,11.734,0,0,1,2.24,4.879,41.7,41.7,0,0,1,.746,6.756v30.022h-10.083v-28.521a17.605,17.605,0,0,0-1.122-6.38,4.53,4.53,0,0,0-4.48-1.875,7.868,7.868,0,0,0-4.858,1.875,25.727,25.727,0,0,0-4.852,4.129v31.523h-10.087v-36.78c0-.749-.373-1.5-1.119-1.5h-2.617v-7.131a11.692,11.692,0,0,1,2.991-.749c.746,0,1.867-.374,2.613-.374a9.918,9.918,0,0,1,4.485,1.123,6.674,6.674,0,0,1,2.618,3,23.663,23.663,0,0,1,5.225-3,23,23,0,0,1,6.72-1.123" transform="translate(-573.14 628.71)" fill="#fff"/>
        </g>
      </g>
      <g data-type="innerShadowGroup">
        <g transform="matrix(1, 0, 0, 1, -855.57, -274.66)" filter="url(#Trazado_21361)">
          <path id="Trazado_21361-3" data-name="Trazado 21361" d="M1275.45-296.667h5.975v-7.111l10.088-1.872v8.983h10.455v7.108h-10.455v23.2a7.54,7.54,0,0,0,1.122,4.117,4.04,4.04,0,0,0,3.357,1.5h2.24l2.24-.376c.75,0,1.867-.373,2.617-.373l1.122,6.361c-1.495.75-3.362,1.5-4.856,2.246a18.767,18.767,0,0,1-4.485.749,15.12,15.12,0,0,1-7.1-1.5,11.709,11.709,0,0,1-4.108-3.366,11.522,11.522,0,0,1-1.863-4.487,18.273,18.273,0,0,1-.378-4.493v-23.2h-5.975Z" transform="translate(-628.19 637.36)"/>
        </g>
        <g transform="matrix(1, 0, 0, 1, -855.57, -274.66)" filter="url(#Trazado_21361-2)">
          <path id="Trazado_21361-4" data-name="Trazado 21361" d="M1275.45-296.667h5.975v-7.111l10.088-1.872v8.983h10.455v7.108h-10.455v23.2a7.54,7.54,0,0,0,1.122,4.117,4.04,4.04,0,0,0,3.357,1.5h2.24l2.24-.376c.75,0,1.867-.373,2.617-.373l1.122,6.361c-1.495.75-3.362,1.5-4.856,2.246a18.767,18.767,0,0,1-4.485.749,15.12,15.12,0,0,1-7.1-1.5,11.709,11.709,0,0,1-4.108-3.366,11.522,11.522,0,0,1-1.863-4.487,18.273,18.273,0,0,1-.378-4.493v-23.2h-5.975Z" transform="translate(-628.19 637.36)" fill="#fff"/>
        </g>
      </g>
      <g data-type="innerShadowGroup">
        <g transform="matrix(1, 0, 0, 1, -855.57, -274.66)" filter="url(#Trazado_21362)">
          <path id="Trazado_21362-3" data-name="Trazado 21362" d="M1003.775-245.053l13.713-45.864H1006.33L1001.3-272.4,997.4-255.8h-.636l-3.907-16.6-5.181-18.52h-11.64l13.713,45.864Z" transform="translate(-464.83 629.2)"/>
        </g>
        <g transform="matrix(1, 0, 0, 1, -855.57, -274.66)" filter="url(#Trazado_21362-2)">
          <path id="Trazado_21362-4" data-name="Trazado 21362" d="M1003.775-245.053l13.713-45.864H1006.33L1001.3-272.4,997.4-255.8h-.636l-3.907-16.6-5.181-18.52h-11.64l13.713,45.864Z" transform="translate(-464.83 629.2)" fill="#fff"/>
        </g>
      </g>
      <g data-type="innerShadowGroup">
        <g transform="matrix(1, 0, 0, 1, -855.57, -274.66)" filter="url(#Trazado_21363)">
          <path id="Trazado_21363-3" data-name="Trazado 21363" d="M1361.647-256.672a58.365,58.365,0,0,0,6.634,1.66,40.941,40.941,0,0,0,7.179.691,8.714,8.714,0,0,0,4.562-1.244,3.365,3.365,0,0,0,1.794-3.318,3.5,3.5,0,0,0-1.244-2.768,11.33,11.33,0,0,0-2.762-1.66l-8.152-2.49a16.835,16.835,0,0,1-4.98-2.49,12.172,12.172,0,0,1-3.039-2.9,9.707,9.707,0,0,1-1.518-3.46,18.917,18.917,0,0,1-.418-4.011,15.212,15.212,0,0,1,1.1-5.533,12.25,12.25,0,0,1,3.317-4.147,14.389,14.389,0,0,1,4.98-2.63,19.482,19.482,0,0,1,6.22-.967,27.58,27.58,0,0,1,4.835.414c1.517.275,3.04.553,4.563.967,1.381.415,2.485.832,3.589,1.244s1.658.693,2.072.831l-2.763,7.472a10.645,10.645,0,0,0-2.49-.693,23.782,23.782,0,0,1-3.04-.693,27.783,27.783,0,0,0-3.317-.551,26.384,26.384,0,0,0-3.312-.138,6.456,6.456,0,0,0-3.867,1.243,3.606,3.606,0,0,0-1.386,2.768,4.1,4.1,0,0,0,.69,2.072,7.339,7.339,0,0,0,2.072,1.53,14.742,14.742,0,0,0,3.454,1.246c1.381.414,2.9.829,4.7,1.375a18.817,18.817,0,0,1,5.388,2.351,11.8,11.8,0,0,1,3.454,2.9,9.971,9.971,0,0,1,1.794,3.875,20.206,20.206,0,0,1,.554,4.976,12.464,12.464,0,0,1-1.245,5.533,13.086,13.086,0,0,1-3.453,4.282,16.706,16.706,0,0,1-5.388,2.771,22.393,22.393,0,0,1-6.77.967,35.612,35.612,0,0,1-8.561-.967,38.336,38.336,0,0,1-7.874-2.907Z" transform="translate(-673.79 629.77)"/>
        </g>
        <g transform="matrix(1, 0, 0, 1, -855.57, -274.66)" filter="url(#Trazado_21363-2)">
          <path id="Trazado_21363-4" data-name="Trazado 21363" d="M1361.647-256.672a58.365,58.365,0,0,0,6.634,1.66,40.941,40.941,0,0,0,7.179.691,8.714,8.714,0,0,0,4.562-1.244,3.365,3.365,0,0,0,1.794-3.318,3.5,3.5,0,0,0-1.244-2.768,11.33,11.33,0,0,0-2.762-1.66l-8.152-2.49a16.835,16.835,0,0,1-4.98-2.49,12.172,12.172,0,0,1-3.039-2.9,9.707,9.707,0,0,1-1.518-3.46,18.917,18.917,0,0,1-.418-4.011,15.212,15.212,0,0,1,1.1-5.533,12.25,12.25,0,0,1,3.317-4.147,14.389,14.389,0,0,1,4.98-2.63,19.482,19.482,0,0,1,6.22-.967,27.58,27.58,0,0,1,4.835.414c1.517.275,3.04.553,4.563.967,1.381.415,2.485.832,3.589,1.244s1.658.693,2.072.831l-2.763,7.472a10.645,10.645,0,0,0-2.49-.693,23.782,23.782,0,0,1-3.04-.693,27.783,27.783,0,0,0-3.317-.551,26.384,26.384,0,0,0-3.312-.138,6.456,6.456,0,0,0-3.867,1.243,3.606,3.606,0,0,0-1.386,2.768,4.1,4.1,0,0,0,.69,2.072,7.339,7.339,0,0,0,2.072,1.53,14.742,14.742,0,0,0,3.454,1.246c1.381.414,2.9.829,4.7,1.375a18.817,18.817,0,0,1,5.388,2.351,11.8,11.8,0,0,1,3.454,2.9,9.971,9.971,0,0,1,1.794,3.875,20.206,20.206,0,0,1,.554,4.976,12.464,12.464,0,0,1-1.245,5.533,13.086,13.086,0,0,1-3.453,4.282,16.706,16.706,0,0,1-5.388,2.771,22.393,22.393,0,0,1-6.77.967,35.612,35.612,0,0,1-8.561-.967,38.336,38.336,0,0,1-7.874-2.907Z" transform="translate(-673.79 629.77)" fill="#fff"/>
        </g>
      </g>
      <g data-type="innerShadowGroup">
        <g transform="matrix(1, 0, 0, 1, -855.57, -274.66)" filter="url(#Sustracción_1)">
          <path id="Sustracción_1-3" data-name="Sustracción 1" d="M161.826,81.652l-35.564-.09a1.209,1.209,0,0,1-.857-.332,1.105,1.105,0,0,1-.307-.841,11.586,11.586,0,0,0-1.1-5.205,9.806,9.806,0,0,0-3.674-3.938,10.078,10.078,0,0,0-5.216-1.454c-.13,0-.26,0-.389.007a1.921,1.921,0,0,0-.242-.01c-.881,0-8.646.294-9.989,10.481a1.294,1.294,0,0,1-1.164,1.141L1.193,81.23A1.155,1.155,0,0,1,.029,80.087L0,1.205A1.07,1.07,0,0,1,.335.451V.392A1.189,1.189,0,0,1,1.164.06H103.473a1.141,1.141,0,0,1,1.135,1.084,10.469,10.469,0,0,0,2.973,7.078,10.765,10.765,0,0,0,7.043,3.242c.147.005.295.008.439.008a9.545,9.545,0,0,0,5.415-1.555,10.455,10.455,0,0,0,3.163-3.453,15.6,15.6,0,0,0,1.888-5.32A1.345,1.345,0,0,1,126.724,0l35.165.06c.03,0,.06,0,.09,0a.875.875,0,0,1,.735.367l.031.091a1.162,1.162,0,0,1,.307.752l-.06,79.244A1.156,1.156,0,0,1,161.826,81.652ZM66.654,51.174a1.491,1.491,0,0,0-1.5,1.477v14.77a1.491,1.491,0,0,0,1.5,1.477H81.7a1.491,1.491,0,0,0,1.5-1.477V52.651a1.491,1.491,0,0,0-1.5-1.477ZM54.647,65.947a1.476,1.476,0,1,0,0,2.951v-.03h5.971a1.506,1.506,0,0,0,1.532-1.474V49.7a1.5,1.5,0,0,0-3,0V65.947ZM27.539,51.174a1.491,1.491,0,0,0-1.5,1.477v14.77a1.491,1.491,0,0,0,1.5,1.477H42.579a1.488,1.488,0,0,0,1.5-1.477V52.651a1.456,1.456,0,0,0-1.466-1.477Zm21.1,5.894a1.475,1.475,0,0,0-1.5,1.479v8.845a1.5,1.5,0,0,0,3,0V60.017h4.505a1.529,1.529,0,0,0,1.5-1.469,1.492,1.492,0,0,0-1.5-1.48Zm65.433-10.449a2.435,2.435,0,0,0-1.718.691,2.338,2.338,0,0,0-.7,1.682v8.664a2.42,2.42,0,0,0,4.839,0V48.993a2.34,2.34,0,0,0-.7-1.682A2.427,2.427,0,0,0,114.074,46.619ZM33.57,42.3a1.475,1.475,0,1,0,0,2.95H53.145l-.029,7.369a1.49,1.49,0,0,0,1.5,1.474,1.469,1.469,0,0,0,1.495-1.474V43.775a1.372,1.372,0,0,0-.4-1.027,1.5,1.5,0,0,0-1.07-.447Zm33.084,0a1.475,1.475,0,1,0,0,2.95H81.7a1.5,1.5,0,0,0,1.5-1.5A1.476,1.476,0,0,0,81.7,42.3Zm-5.977,0a1.489,1.489,0,0,0-1.526,1.446v.028a1.5,1.5,0,0,0,3,0A1.457,1.457,0,0,0,60.678,42.3Zm-33.109,0a1.49,1.49,0,0,0-1.5,1.474,1.459,1.459,0,0,0,1.5,1.476,1.475,1.475,0,1,0,0-2.95Zm0-5.9a1.489,1.489,0,1,0,0,2.979L42.6,39.35a1.488,1.488,0,0,0,1.071-.442,1.384,1.384,0,0,0,.4-1.029,1.471,1.471,0,0,0-1.5-1.477ZM81.7,36.373l-9.04.028a1.474,1.474,0,1,0,0,2.948H81.7a1.489,1.489,0,0,0,1.5-1.472A1.505,1.505,0,0,0,81.7,36.373ZM48.61,12.755a1.488,1.488,0,0,0-1.495,1.477V29a1.486,1.486,0,0,0,1.495,1.474H59.152v7.369a1.49,1.49,0,0,0,1.5,1.474h5.97a1.474,1.474,0,0,0,1.532-1.443v-.031a1.49,1.49,0,0,0-1.5-1.474H62.149V29a1.484,1.484,0,0,0-1.495-1.5l-10.542.028v-13.3A1.491,1.491,0,0,0,48.61,12.755Zm0,23.618a1.474,1.474,0,1,0,0,2.948h6.007a1.474,1.474,0,1,0,0-2.948Zm65.463-14.4a2.431,2.431,0,0,0-1.718.693,2.35,2.35,0,0,0-.7,1.688v8.666a2.42,2.42,0,0,0,4.839,0V24.357a2.351,2.351,0,0,0-.7-1.688A2.424,2.424,0,0,0,114.074,21.976ZM66.654,12.92a1.49,1.49,0,0,0-1.5,1.474V29.167a1.491,1.491,0,0,0,1.5,1.477H81.7a1.491,1.491,0,0,0,1.5-1.477V14.394a1.49,1.49,0,0,0-1.5-1.474Zm-39.116-.165a1.491,1.491,0,0,0-1.5,1.477V29a1.49,1.49,0,0,0,1.5,1.474H42.579A1.487,1.487,0,0,0,44.076,29V14.232a1.456,1.456,0,0,0-1.466-1.477ZM54.647,21.6a1.505,1.505,0,0,0-1.531,1.474,1.49,1.49,0,0,0,1.5,1.474l6,.028a1.486,1.486,0,0,0,1.5-1.466V14.232a1.5,1.5,0,0,0-3,0v7.4ZM80.163,65.947H68.186l-.03-11.824H80.193l-.03,11.823Zm-7.508-8.873a1.486,1.486,0,0,0-1.495,1.474v2.974A1.486,1.486,0,0,0,72.655,63h3.033a1.49,1.49,0,0,0,1.5-1.474V58.578a1.542,1.542,0,0,0-1.5-1.5ZM41.042,65.947H29.07V54.123H41.078l-.035,11.823Zm-7.5-8.873a1.49,1.49,0,0,0-1.5,1.474v2.974A1.49,1.49,0,0,0,33.539,63h3.033a1.49,1.49,0,0,0,1.5-1.474V58.578a1.542,1.542,0,0,0-1.5-1.5ZM80.163,27.693H68.186l-.03-11.821H80.193l-.03,11.821ZM72.655,18.82a1.486,1.486,0,0,0-1.495,1.474v2.951a1.484,1.484,0,0,0,1.495,1.469h3.033a1.456,1.456,0,0,0,1.5-1.439V20.294a1.49,1.49,0,0,0-1.5-1.474ZM41.042,27.528H29.07V15.707H41.078l-.035,11.821Zm-7.5-8.873a1.491,1.491,0,0,0-1.5,1.477V23.08a1.487,1.487,0,0,0,1.5,1.469h3.033a1.456,1.456,0,0,0,1.5-1.439V20.132a1.491,1.491,0,0,0-1.5-1.477Z" transform="translate(67.71 310.89)"/>
        </g>
        <g transform="matrix(1, 0, 0, 1, -855.57, -274.66)" filter="url(#Sustracción_1-2)">
          <path id="Sustracción_1-4" data-name="Sustracción 1" d="M161.826,81.652l-35.564-.09a1.209,1.209,0,0,1-.857-.332,1.105,1.105,0,0,1-.307-.841,11.586,11.586,0,0,0-1.1-5.205,9.806,9.806,0,0,0-3.674-3.938,10.078,10.078,0,0,0-5.216-1.454c-.13,0-.26,0-.389.007a1.921,1.921,0,0,0-.242-.01c-.881,0-8.646.294-9.989,10.481a1.294,1.294,0,0,1-1.164,1.141L1.193,81.23A1.155,1.155,0,0,1,.029,80.087L0,1.205A1.07,1.07,0,0,1,.335.451V.392A1.189,1.189,0,0,1,1.164.06H103.473a1.141,1.141,0,0,1,1.135,1.084,10.469,10.469,0,0,0,2.973,7.078,10.765,10.765,0,0,0,7.043,3.242c.147.005.295.008.439.008a9.545,9.545,0,0,0,5.415-1.555,10.455,10.455,0,0,0,3.163-3.453,15.6,15.6,0,0,0,1.888-5.32A1.345,1.345,0,0,1,126.724,0l35.165.06c.03,0,.06,0,.09,0a.875.875,0,0,1,.735.367l.031.091a1.162,1.162,0,0,1,.307.752l-.06,79.244A1.156,1.156,0,0,1,161.826,81.652ZM66.654,51.174a1.491,1.491,0,0,0-1.5,1.477v14.77a1.491,1.491,0,0,0,1.5,1.477H81.7a1.491,1.491,0,0,0,1.5-1.477V52.651a1.491,1.491,0,0,0-1.5-1.477ZM54.647,65.947a1.476,1.476,0,1,0,0,2.951v-.03h5.971a1.506,1.506,0,0,0,1.532-1.474V49.7a1.5,1.5,0,0,0-3,0V65.947ZM27.539,51.174a1.491,1.491,0,0,0-1.5,1.477v14.77a1.491,1.491,0,0,0,1.5,1.477H42.579a1.488,1.488,0,0,0,1.5-1.477V52.651a1.456,1.456,0,0,0-1.466-1.477Zm21.1,5.894a1.475,1.475,0,0,0-1.5,1.479v8.845a1.5,1.5,0,0,0,3,0V60.017h4.505a1.529,1.529,0,0,0,1.5-1.469,1.492,1.492,0,0,0-1.5-1.48Zm65.433-10.449a2.435,2.435,0,0,0-1.718.691,2.338,2.338,0,0,0-.7,1.682v8.664a2.42,2.42,0,0,0,4.839,0V48.993a2.34,2.34,0,0,0-.7-1.682A2.427,2.427,0,0,0,114.074,46.619ZM33.57,42.3a1.475,1.475,0,1,0,0,2.95H53.145l-.029,7.369a1.49,1.49,0,0,0,1.5,1.474,1.469,1.469,0,0,0,1.495-1.474V43.775a1.372,1.372,0,0,0-.4-1.027,1.5,1.5,0,0,0-1.07-.447Zm33.084,0a1.475,1.475,0,1,0,0,2.95H81.7a1.5,1.5,0,0,0,1.5-1.5A1.476,1.476,0,0,0,81.7,42.3Zm-5.977,0a1.489,1.489,0,0,0-1.526,1.446v.028a1.5,1.5,0,0,0,3,0A1.457,1.457,0,0,0,60.678,42.3Zm-33.109,0a1.49,1.49,0,0,0-1.5,1.474,1.459,1.459,0,0,0,1.5,1.476,1.475,1.475,0,1,0,0-2.95Zm0-5.9a1.489,1.489,0,1,0,0,2.979L42.6,39.35a1.488,1.488,0,0,0,1.071-.442,1.384,1.384,0,0,0,.4-1.029,1.471,1.471,0,0,0-1.5-1.477ZM81.7,36.373l-9.04.028a1.474,1.474,0,1,0,0,2.948H81.7a1.489,1.489,0,0,0,1.5-1.472A1.505,1.505,0,0,0,81.7,36.373ZM48.61,12.755a1.488,1.488,0,0,0-1.495,1.477V29a1.486,1.486,0,0,0,1.495,1.474H59.152v7.369a1.49,1.49,0,0,0,1.5,1.474h5.97a1.474,1.474,0,0,0,1.532-1.443v-.031a1.49,1.49,0,0,0-1.5-1.474H62.149V29a1.484,1.484,0,0,0-1.495-1.5l-10.542.028v-13.3A1.491,1.491,0,0,0,48.61,12.755Zm0,23.618a1.474,1.474,0,1,0,0,2.948h6.007a1.474,1.474,0,1,0,0-2.948Zm65.463-14.4a2.431,2.431,0,0,0-1.718.693,2.35,2.35,0,0,0-.7,1.688v8.666a2.42,2.42,0,0,0,4.839,0V24.357a2.351,2.351,0,0,0-.7-1.688A2.424,2.424,0,0,0,114.074,21.976ZM66.654,12.92a1.49,1.49,0,0,0-1.5,1.474V29.167a1.491,1.491,0,0,0,1.5,1.477H81.7a1.491,1.491,0,0,0,1.5-1.477V14.394a1.49,1.49,0,0,0-1.5-1.474Zm-39.116-.165a1.491,1.491,0,0,0-1.5,1.477V29a1.49,1.49,0,0,0,1.5,1.474H42.579A1.487,1.487,0,0,0,44.076,29V14.232a1.456,1.456,0,0,0-1.466-1.477ZM54.647,21.6a1.505,1.505,0,0,0-1.531,1.474,1.49,1.49,0,0,0,1.5,1.474l6,.028a1.486,1.486,0,0,0,1.5-1.466V14.232a1.5,1.5,0,0,0-3,0v7.4ZM80.163,65.947H68.186l-.03-11.824H80.193l-.03,11.823Zm-7.508-8.873a1.486,1.486,0,0,0-1.495,1.474v2.974A1.486,1.486,0,0,0,72.655,63h3.033a1.49,1.49,0,0,0,1.5-1.474V58.578a1.542,1.542,0,0,0-1.5-1.5ZM41.042,65.947H29.07V54.123H41.078l-.035,11.823Zm-7.5-8.873a1.49,1.49,0,0,0-1.5,1.474v2.974A1.49,1.49,0,0,0,33.539,63h3.033a1.49,1.49,0,0,0,1.5-1.474V58.578a1.542,1.542,0,0,0-1.5-1.5ZM80.163,27.693H68.186l-.03-11.821H80.193l-.03,11.821ZM72.655,18.82a1.486,1.486,0,0,0-1.495,1.474v2.951a1.484,1.484,0,0,0,1.495,1.469h3.033a1.456,1.456,0,0,0,1.5-1.439V20.294a1.49,1.49,0,0,0-1.5-1.474ZM41.042,27.528H29.07V15.707H41.078l-.035,11.821Zm-7.5-8.873a1.491,1.491,0,0,0-1.5,1.477V23.08a1.487,1.487,0,0,0,1.5,1.469h3.033a1.456,1.456,0,0,0,1.5-1.439V20.132a1.491,1.491,0,0,0-1.5-1.477Z" transform="translate(67.71 310.89)" fill="#fff"/>
        </g>
      </g>
    </g>
  </g>
</svg>
