<svg xmlns="http://www.w3.org/2000/svg" xmlns:xlink="http://www.w3.org/1999/xlink" width="826" height="779" viewBox="0 0 826 779">
  <defs>
    <filter id="Trazado_21418" x="459.764" y="424.848" width="66.521" height="86.646" filterUnits="userSpaceOnUse">
      <feOffset dx="3" dy="3" input="SourceAlpha"/>
      <feGaussianBlur stdDeviation="3" result="blur"/>
      <feFlood flood-opacity="0.322"/>
      <feComposite operator="in" in2="blur"/>
      <feComposite in="SourceGraphic"/>
    </filter>
    <filter id="Trazado_21419" x="407.6" y="382.467" width="170.58" height="170.58" filterUnits="userSpaceOnUse">
      <feOffset dx="3" dy="3" input="SourceAlpha"/>
      <feGaussianBlur stdDeviation="3" result="blur-2"/>
      <feFlood flood-opacity="0.322"/>
      <feComposite operator="in" in2="blur-2"/>
      <feComposite in="SourceGraphic"/>
    </filter>
    <filter id="Trazado_55537" x="255.938" y="231.869" width="170.58" height="170.58" filterUnits="userSpaceOnUse">
      <feOffset dx="3" dy="3" input="SourceAlpha"/>
      <feGaussianBlur stdDeviation="3" result="blur-3"/>
      <feFlood flood-opacity="0.322"/>
      <feComposite operator="in" in2="blur-3"/>
      <feComposite in="SourceGraphic"/>
    </filter>
    <clipPath id="clip-Web_1920_96">
      <rect width="826" height="779"/>
    </clipPath>
  </defs>
  <g id="Web_1920_96" data-name="Web 1920 – 96" clip-path="url(#clip-Web_1920_96)">
    <rect width="826" height="779" fill="#fff"/>
    <g id="Grupo_75621" data-name="Grupo 75621" transform="translate(-1265.382 167.618)">
      <g id="Grupo_2180" data-name="Grupo 2180" transform="translate(1481.856 25)">
        <g id="Grupo_58550" data-name="Grupo 58550">
          <g id="Componente_276_2" data-name="Componente 276 – 2">
            <path id="Trazado_5154" data-name="Trazado 5154" d="M71.44,0H323.326a71.44,71.44,0,0,1,71.44,71.44V323.326a71.44,71.44,0,0,1-71.44,71.44H71.44A71.44,71.44,0,0,1,0,323.326V71.44A71.44,71.44,0,0,1,71.44,0Z" transform="translate(0 0)"/>
          </g>
        </g>
      </g>
      <g id="Grupo_75620" data-name="Grupo 75620" transform="translate(1526.83 69.777)">
        <g id="Grupo_58556" data-name="Grupo 58556" transform="translate(33.602 34.968)">
          <path id="Trazado_1319" data-name="Trazado 1319" d="M658.188,125.968v-10.5h9.022v-9.853h-8.79V97.236l-11.8,1.592v7.02h-6.725V115.7H646.5v12.51a12.858,12.858,0,0,0,7.492,11.8,25.261,25.261,0,0,0,16.934-1.947l-5.307-10.856c-6.965,4.128-7.615-1.417-7.615-1.417" transform="translate(-614.468 -78.008)" fill="#fff"/>
          <path id="Trazado_1320" data-name="Trazado 1320" d="M709.835,155.131v-.414l.708-1.236h0A40.945,40.945,0,1,0,674.735,174.6h1.53A39.6,39.6,0,0,0,691.9,171.06l1.356-.589a43.949,43.949,0,0,0,15.161,2.657H712.2a3.137,3.137,0,0,0,2.655-2.361,3.193,3.193,0,0,0-1.24-3.364,31.462,31.462,0,0,1-4.66-10.384h0a11.165,11.165,0,0,0,.938-1.358M706.354,149c-.295.648-.646,1.237-.941,1.826v.355l-.771,1.358c-.474.707-.94,1.475-1.477,2.123a3.2,3.2,0,0,0-.528,2.716,57.942,57.942,0,0,0,3.537,9.732,36.859,36.859,0,0,1-11.8-2.595,3.062,3.062,0,0,0-2.594,0,40.482,40.482,0,0,1-14.567,4.07h-2.006a34.692,34.692,0,1,1,34.629-34.749v.117a34,34,0,0,1-3.363,14.926" transform="translate(-633.762 -92.701)" fill="#fff"/>
        </g>
        <rect id="Rectángulo_13694" data-name="Rectángulo 13694" width="430.266" height="3.127" transform="translate(0 304.244) rotate(-45)" fill="#fff"/>
        <g transform="matrix(1, 0, 0, 1, -261.45, -237.4)" filter="url(#Trazado_21418)">
          <path id="Trazado_21418-2" data-name="Trazado 21418" d="M107.98-268.827a21.877,21.877,0,0,1-6.136-2.959,22.307,22.307,0,0,1-9.53-17.058v-5.176h1.729v1.373a1.2,1.2,0,0,0,.347.843l1.121,1.115v1.279a2.572,2.572,0,0,0-1.4,2.288,2.584,2.584,0,0,0,2.573,2.573,2.584,2.584,0,0,0,2.572-2.573,2.571,2.571,0,0,0-1.366-2.272v-1.788a1.187,1.187,0,0,0-.349-.841l-1.12-1.121v-.876a1.729,1.729,0,0,0,1.64-1.58h.892l1.119,1.116a1.192,1.192,0,0,0,.841.353h1.826a2.57,2.57,0,0,0,2.231,1.29,2.586,2.586,0,0,0,2.573-2.574,2.585,2.585,0,0,0-2.573-2.571,2.579,2.579,0,0,0-2.322,1.465H101.4l-1.109-1.118a1.2,1.2,0,0,0-.842-.347H98.064v-1.75h1.382a1.188,1.188,0,0,0,.841-.35l1.028-1.032h1.375a2.58,2.58,0,0,0,2.281,1.382,2.569,2.569,0,0,0,1.192-.292,2.578,2.578,0,0,0,1.391-2.285,2.527,2.527,0,0,0-.3-1.2,2.566,2.566,0,0,0-2.279-1.38,2.561,2.561,0,0,0-1.192.292,2.574,2.574,0,0,0-1.088,1.089h-1.861a1.2,1.2,0,0,0-.846.349l-1.031,1.032h-.892v-1.749h1.382a1.183,1.183,0,0,0,.841-.35l2.338-2.34h.1a2.586,2.586,0,0,0,3.5.979,2.588,2.588,0,0,0,.978-3.5,2.586,2.586,0,0,0-3.5-.978,2.6,2.6,0,0,0-1.051,1.123h-.513a1.19,1.19,0,0,0-.841.35l-2.341,2.337h-.892a1.721,1.721,0,0,0-1.567-1.564v-.9l2.341-2.342a1.189,1.189,0,0,0,.349-.841v-.528a2.575,2.575,0,0,0,1.454-2.318,2.6,2.6,0,0,0-.255-1.12,2.582,2.582,0,0,0-2.318-1.458,2.568,2.568,0,0,0-1.121.258,2.582,2.582,0,0,0-1.457,2.319,2.593,2.593,0,0,0,.258,1.12,2.592,2.592,0,0,0,1.061,1.122v.1l-2.337,2.34a1.183,1.183,0,0,0-.353.842v1.382H92.377v-.889l1.009-1.028a1.2,1.2,0,0,0,.348-.843v-1.863a2.577,2.577,0,0,0,1.379-2.281,2.6,2.6,0,0,0-.3-1.2,2.575,2.575,0,0,0-2.281-1.382,2.546,2.546,0,0,0-1.191.293,2.571,2.571,0,0,0-1.381,2.279,2.559,2.559,0,0,0,.293,1.192,2.548,2.548,0,0,0,1.089,1.089v1.375l-1.025,1.031a1.191,1.191,0,0,0-.348.842v1.366h-1.75v-1.366a1.193,1.193,0,0,0-.35-.842l-1.135-1.12v-1.248a2.59,2.59,0,0,0,1.222-3.423,2.577,2.577,0,0,0-2.325-1.469,2.576,2.576,0,0,0-2.391,1.625l.672-6.8a.773.773,0,0,1,.842-.671H92.5l1-10.266a.725.725,0,0,1,.672-.672l16.487-2.357a1.056,1.056,0,0,1,.672.167,1.282,1.282,0,0,1,.337.676v12.451h13.8a.88.88,0,0,1,.673.337,1.033,1.033,0,0,1,.169.672l-1.346,13.629a.77.77,0,0,1-.842.671h-12.61v16.989a3.34,3.34,0,0,0,.445,2.085,3.753,3.753,0,0,0,1.578,1.452,4.64,4.64,0,0,0,1.513.166,24.621,24.621,0,0,0,8.584-2.185.5.5,0,0,1,.672,0c.333.166.5.338.5.5l6.9,16.488a.669.669,0,0,1,0,.553.833.833,0,0,1-.513.461,43.429,43.429,0,0,1-15.986,3.531,26.769,26.769,0,0,1-7.249-1" transform="translate(382.52 767.32)" fill="#fff"/>
        </g>
        <g transform="matrix(1, 0, 0, 1, -261.45, -237.4)" filter="url(#Trazado_21419)">
          <path id="Trazado_21419-2" data-name="Trazado 21419" d="M76.287-404.1C34.444-404.086.019-369.659,0-327.815c.019,41.843,34.444,76.271,76.287,76.292,41.848-.021,76.274-34.449,76.292-76.292-.022-41.844-34.447-76.271-76.292-76.289m0,145.427c-37.92-.015-69.124-31.214-69.139-69.138h0c.014-37.92,31.215-69.121,69.135-69.139,37.925.018,69.125,31.219,69.144,69.139-.019,37.924-31.219,69.124-69.144,69.138" transform="translate(413.6 792.57)" fill="#fff"/>
        </g>
        <g transform="matrix(1, 0, 0, 1, -261.45, -237.4)" filter="url(#Trazado_55537)">
          <path id="Trazado_55537-2" data-name="Trazado 55537" d="M76.287-404.1C34.444-404.086.019-369.659,0-327.815c.019,41.843,34.444,76.271,76.287,76.292,41.848-.021,76.274-34.449,76.292-76.292-.022-41.844-34.447-76.271-76.292-76.289m0,145.427c-37.92-.015-69.124-31.214-69.139-69.138h0c.014-37.92,31.215-69.121,69.135-69.139,37.925.018,69.125,31.219,69.144,69.139-.019,37.924-31.219,69.124-69.144,69.138" transform="translate(261.94 641.97)" fill="#fff"/>
        </g>
      </g>
    </g>
  </g>
</svg>
