<?xml version="1.0" encoding="UTF-8"?>
<svg id="Capa_1" data-name="Capa 1" xmlns="http://www.w3.org/2000/svg" viewBox="0 0 826 779">
  <defs>
    <style>
      .cls-1 {
        stroke-width: 0px;
      }
    </style>
  </defs>
  <g id="Grupo_75621" data-name="Grupo 75621">
    <g id="Grupo_2180" data-name="Grupo 2180">
      <g id="Grupo_58550" data-name="Grupo 58550">
        <g id="Componente_276_2" data-name="Componente 276 2">
          <path class="cls-1" d="m271.44,186.45c-35,.07-63.34,28.5-63.27,63.49.05,35.02,28.48,63.34,63.49,63.27h3.67c9.26-.77,18.29-3.29,26.62-7.44,1.5-.68,3.23-.68,4.73,0,6.89,2.78,14.16,4.35,21.56,4.77-2.69-5.74-4.84-11.67-6.47-17.79-.44-1.72-.09-3.53.97-4.95.99-1.21,1.85-2.59,2.7-3.89l1.41-2.47v-.68c.55-1.06,1.19-2.16,1.72-3.31l.22-.24c4.09-8.5,6.19-17.83,6.14-27.28v-.22c-.05-34.99-28.48-63.32-63.49-63.27Zm-3.29,101.4c-8.4-3.87-13.76-12.3-13.68-21.54v-22.87h-12.06v-17.98h12.28v-12.83l21.56-2.92v15.31h16.06v18.01h-16.48v19.18l-.33-.33s1.19,10.12,13.9,2.56l9.7,19.86c-9.59,4.73-20.54,5.99-30.95,3.54Z"/>
          <path class="cls-1" d="m274.82,124.61c-34.64.02-66.21,14.29-89.12,37.18-22.91,22.93-37.16,54.5-37.18,89.14.02,69.3,57.02,126.3,126.3,126.32,69.3-.02,126.3-57.02,126.32-126.32-.02-69.28-57.02-126.28-126.32-126.32Zm60.22,165.01c-.51.86-1.08,1.7-1.72,2.45,1.66,6.81,4.55,13.25,8.51,19,1.95,1.39,2.85,3.82,2.27,6.12-.57,2.32-2.48,4.04-4.84,4.33h-6.92c-9.45.02-18.82-1.61-27.7-4.84l-2.47,1.08c-8.99,4.07-18.71,6.27-28.57,6.47h-2.8c-12.68,0-25.16-3.22-36.25-9.37-36.16-19.99-49.24-65.52-29.23-101.69,20.01-36.12,65.53-49.2,101.67-29.21,24.68,13.67,38.6,39.19,38.6,65.53,0,12.22-3.01,24.66-9.37,36.16l-1.3,2.25v.77l.11.97Z"/>
          <path class="cls-1" d="m551.9,399.75c-34.64,0-66.21,14.27-89.12,37.2-22.91,22.91-37.16,54.48-37.18,89.1.02,69.3,57.02,126.32,126.3,126.34,69.3-.02,126.3-57.04,126.32-126.34-.02-69.26-57.02-126.26-126.32-126.3Zm44.47,182.46c-.16.42-.51.73-.93.86-9.24,3.98-19.15,6.18-29.21,6.45-4.48,0-8.93-.6-13.25-1.83h.05c-4-1.19-7.78-3.01-11.22-5.39-10.29-7.16-16.7-18.65-17.41-31.17v-9.45h3.16v2.5c0,.57.24,1.13.64,1.53l2.05,2.05v2.34c-1.57.8-2.56,2.41-2.56,4.18,0,2.58,2.1,4.68,4.7,4.7,2.59-.02,4.7-2.12,4.7-4.7,0-1.77-.95-3.36-2.48-4.17v-3.25c0-.58-.24-1.13-.64-1.55l-2.05-2.05v-1.59c1.57-.07,2.85-1.32,3-2.89h1.63l2.05,2.03c.4.4.95.66,1.53.66h3.34c.84,1.44,2.39,2.36,4.07,2.36,2.59-.02,4.68-2.12,4.69-4.71-.02-2.59-2.1-4.68-4.69-4.7-1.81,0-3.47,1.04-4.24,2.69h-2.28l-2.03-2.06c-.42-.38-.97-.62-1.53-.62h-2.54v-3.2h2.52c.58,0,1.13-.22,1.53-.64l1.88-1.88h2.52c.8,1.55,2.41,2.52,4.17,2.52.75,0,1.5-.18,2.17-.53,1.55-.8,2.54-2.41,2.54-4.2,0-.73-.18-1.5-.55-2.17-.8-1.53-2.41-2.52-4.17-2.52-.75,0-1.5.18-2.17.55-.84.44-1.53,1.13-1.99,1.97h-3.4c-.58,0-1.13.22-1.53.64l-1.9,1.9h-1.63v-3.2h2.52c.58,0,1.13-.26,1.55-.64l4.26-4.29h.18c1.3,2.27,4.15,3.05,6.39,1.81,2.25-1.3,3.05-4.15,1.79-6.39-1.28-2.27-4.13-3.07-6.39-1.81-.82.49-1.5,1.21-1.92,2.05h-.93c-.58,0-1.13.24-1.53.66l-4.27,4.26h-1.64c-.13-1.5-1.33-2.7-2.85-2.87v-1.63l4.28-4.29c.4-.38.64-.93.64-1.52v-.97c1.63-.79,2.65-2.43,2.65-4.22,0-.73-.16-1.41-.46-2.05-.79-1.64-2.43-2.69-4.24-2.69-.71,0-1.41.18-2.05.48-1.63.79-2.67,2.45-2.67,4.22,0,.73.16,1.44.48,2.05.42.9,1.1,1.61,1.94,2.06v.2l-4.27,4.26c-.4.42-.64.97-.64,1.55v2.52h-3.2v-1.63l1.85-1.88c.42-.4.64-.95.64-1.53v-3.4c1.55-.82,2.52-2.43,2.52-4.17,0-.77-.18-1.53-.55-2.21-.8-1.53-2.41-2.52-4.17-2.52-.77,0-1.5.18-2.17.55-1.55.8-2.52,2.41-2.52,4.15,0,.77.18,1.52.53,2.17.44.88,1.13,1.57,1.99,2.01v2.5l-1.88,1.86c-.4.44-.62.99-.62,1.57v2.48h-3.2v-2.48c0-.58-.24-1.13-.64-1.57l-2.08-2.05v-2.25c2.34-1.13,3.32-3.93,2.23-6.27-.77-1.64-2.43-2.69-4.24-2.69-1.94,0-3.65,1.19-4.37,2.98l1.22-12.44c.09-.75.79-1.28,1.53-1.21h14.16l1.83-18.78c.04-.64.57-1.15,1.22-1.21l30.13-4.31c.42-.04.86.07,1.22.31.33.35.53.75.62,1.24v22.75h25.21c.47,0,.93.24,1.22.6.24.37.35.8.31,1.24l-2.47,24.88c-.09.77-.77,1.3-1.53,1.24h-23.04v31c-.15,1.35.13,2.69.8,3.84.69,1.15,1.7,2.06,2.89,2.65.9.26,1.85.37,2.78.31,5.43-.4,10.72-1.74,15.68-4,.35-.31.88-.31,1.22,0,.6.29.91.62.91.91l12.61,30.13c.15.31.15.69,0,.99Zm-44.47-182.46c-34.64,0-66.21,14.27-89.12,37.2-22.91,22.91-37.16,54.48-37.18,89.1.02,69.3,57.02,126.32,126.3,126.34,69.3-.02,126.3-57.04,126.32-126.34-.02-69.26-57.02-126.26-126.32-126.3Zm44.47,182.46c-.16.42-.51.73-.93.86-9.24,3.98-19.15,6.18-29.21,6.45-4.48,0-8.93-.6-13.25-1.83h.05c-4-1.19-7.78-3.01-11.22-5.39-10.29-7.16-16.7-18.65-17.41-31.17v-9.45h3.16v2.5c0,.57.24,1.13.64,1.53l2.05,2.05v2.34c-1.57.8-2.56,2.41-2.56,4.18,0,2.58,2.1,4.68,4.7,4.7,2.59-.02,4.7-2.12,4.7-4.7,0-1.77-.95-3.36-2.48-4.17v-3.25c0-.58-.24-1.13-.64-1.55l-2.05-2.05v-1.59c1.57-.07,2.85-1.32,3-2.89h1.63l2.05,2.03c.4.4.95.66,1.53.66h3.34c.84,1.44,2.39,2.36,4.07,2.36,2.59-.02,4.68-2.12,4.69-4.71-.02-2.59-2.1-4.68-4.69-4.7-1.81,0-3.47,1.04-4.24,2.69h-2.28l-2.03-2.06c-.42-.38-.97-.62-1.53-.62h-2.54v-3.2h2.52c.58,0,1.13-.22,1.53-.64l1.88-1.88h2.52c.8,1.55,2.41,2.52,4.17,2.52.75,0,1.5-.18,2.17-.53,1.55-.8,2.54-2.41,2.54-4.2,0-.73-.18-1.5-.55-2.17-.8-1.53-2.41-2.52-4.17-2.52-.75,0-1.5.18-2.17.55-.84.44-1.53,1.13-1.99,1.97h-3.4c-.58,0-1.13.22-1.53.64l-1.9,1.9h-1.63v-3.2h2.52c.58,0,1.13-.26,1.55-.64l4.26-4.29h.18c1.3,2.27,4.15,3.05,6.39,1.81,2.25-1.3,3.05-4.15,1.79-6.39-1.28-2.27-4.13-3.07-6.39-1.81-.82.49-1.5,1.21-1.92,2.05h-.93c-.58,0-1.13.24-1.53.66l-4.27,4.26h-1.64c-.13-1.5-1.33-2.7-2.85-2.87v-1.63l4.28-4.29c.4-.38.64-.93.64-1.52v-.97c1.63-.79,2.65-2.43,2.65-4.22,0-.73-.16-1.41-.46-2.05-.79-1.64-2.43-2.69-4.24-2.69-.71,0-1.41.18-2.05.48-1.63.79-2.67,2.45-2.67,4.22,0,.73.16,1.44.48,2.05.42.9,1.1,1.61,1.94,2.06v.2l-4.27,4.26c-.4.42-.64.97-.64,1.55v2.52h-3.2v-1.63l1.85-1.88c.42-.4.64-.95.64-1.53v-3.4c1.55-.82,2.52-2.43,2.52-4.17,0-.77-.18-1.53-.55-2.21-.8-1.53-2.41-2.52-4.17-2.52-.77,0-1.5.18-2.17.55-1.55.8-2.52,2.41-2.52,4.15,0,.77.18,1.52.53,2.17.44.88,1.13,1.57,1.99,2.01v2.5l-1.88,1.86c-.4.44-.62.99-.62,1.57v2.48h-3.2v-2.48c0-.58-.24-1.13-.64-1.57l-2.08-2.05v-2.25c2.34-1.13,3.32-3.93,2.23-6.27-.77-1.64-2.43-2.69-4.24-2.69-1.94,0-3.65,1.19-4.37,2.98l1.22-12.44c.09-.75.79-1.28,1.53-1.21h14.16l1.83-18.78c.04-.64.57-1.15,1.22-1.21l30.13-4.31c.42-.04.86.07,1.22.31.33.35.53.75.62,1.24v22.75h25.21c.47,0,.93.24,1.22.6.24.37.35.8.31,1.24l-2.47,24.88c-.09.77-.77,1.3-1.53,1.24h-23.04v31c-.15,1.35.13,2.69.8,3.84.69,1.15,1.7,2.06,2.89,2.65.9.26,1.85.37,2.78.31,5.43-.4,10.72-1.74,15.68-4,.35-.31.88-.31,1.22,0,.6.29.91.62.91.91l12.61,30.13c.15.31.15.69,0,.99ZM643.1,28.87H182.9c-72.07,0-130.52,58.46-130.52,130.52v460.21c0,72.07,58.44,130.52,130.52,130.52h460.2c72.07,0,130.52-58.44,130.52-130.52V159.39c0-72.06-58.45-130.52-130.52-130.52Zm-368.28,82.67c76.46.04,139.34,62.92,139.4,139.38-.04,76.44-62.94,139.34-139.4,139.38-76.44-.04-139.32-62.94-139.36-139.38.04-76.46,62.92-139.34,139.36-139.38Zm277.08,553.92c-76.44-.05-139.32-62.94-139.36-139.42.04-76.42,62.92-139.32,139.36-139.34v-.02c76.46.04,139.34,62.94,139.4,139.36-.04,76.48-62.94,139.36-139.4,139.42Zm-413.32,5.12l-4.04-4.04L690.4,110.69l4.04,4.04L138.58,670.58Zm413.32-270.83c-34.64,0-66.21,14.27-89.12,37.2-22.91,22.91-37.16,54.48-37.18,89.1.02,69.3,57.02,126.32,126.3,126.34,69.3-.02,126.3-57.04,126.32-126.34-.02-69.26-57.02-126.26-126.32-126.3Zm44.47,182.46c-.16.42-.51.73-.93.86-9.24,3.98-19.15,6.18-29.21,6.45-4.48,0-8.93-.6-13.25-1.83h.05c-4-1.19-7.78-3.01-11.22-5.39-10.29-7.16-16.7-18.65-17.41-31.17v-9.45h3.16v2.5c0,.57.24,1.13.64,1.53l2.05,2.05v2.34c-1.57.8-2.56,2.41-2.56,4.18,0,2.58,2.1,4.68,4.7,4.7,2.59-.02,4.7-2.12,4.7-4.7,0-1.77-.95-3.36-2.48-4.17v-3.25c0-.58-.24-1.13-.64-1.55l-2.05-2.05v-1.59c1.57-.07,2.85-1.32,3-2.89h1.63l2.05,2.03c.4.4.95.66,1.53.66h3.34c.84,1.44,2.39,2.36,4.07,2.36,2.59-.02,4.68-2.12,4.69-4.71-.02-2.59-2.1-4.68-4.69-4.7-1.81,0-3.47,1.04-4.24,2.69h-2.28l-2.03-2.06c-.42-.38-.97-.62-1.53-.62h-2.54v-3.2h2.52c.58,0,1.13-.22,1.53-.64l1.88-1.88h2.52c.8,1.55,2.41,2.52,4.17,2.52.75,0,1.5-.18,2.17-.53,1.55-.8,2.54-2.41,2.54-4.2,0-.73-.18-1.5-.55-2.17-.8-1.53-2.41-2.52-4.17-2.52-.75,0-1.5.18-2.17.55-.84.44-1.53,1.13-1.99,1.97h-3.4c-.58,0-1.13.22-1.53.64l-1.9,1.9h-1.63v-3.2h2.52c.58,0,1.13-.26,1.55-.64l4.26-4.29h.18c1.3,2.27,4.15,3.05,6.39,1.81,2.25-1.3,3.05-4.15,1.79-6.39-1.28-2.27-4.13-3.07-6.39-1.81-.82.49-1.5,1.21-1.92,2.05h-.93c-.58,0-1.13.24-1.53.66l-4.27,4.26h-1.64c-.13-1.5-1.33-2.7-2.85-2.87v-1.63l4.28-4.29c.4-.38.64-.93.64-1.52v-.97c1.63-.79,2.65-2.43,2.65-4.22,0-.73-.16-1.41-.46-2.05-.79-1.64-2.43-2.69-4.24-2.69-.71,0-1.41.18-2.05.48-1.63.79-2.67,2.45-2.67,4.22,0,.73.16,1.44.48,2.05.42.9,1.1,1.61,1.94,2.06v.2l-4.27,4.26c-.4.42-.64.97-.64,1.55v2.52h-3.2v-1.63l1.85-1.88c.42-.4.64-.95.64-1.53v-3.4c1.55-.82,2.52-2.43,2.52-4.17,0-.77-.18-1.53-.55-2.21-.8-1.53-2.41-2.52-4.17-2.52-.77,0-1.5.18-2.17.55-1.55.8-2.52,2.41-2.52,4.15,0,.77.18,1.52.53,2.17.44.88,1.13,1.57,1.99,2.01v2.5l-1.88,1.86c-.4.44-.62.99-.62,1.57v2.48h-3.2v-2.48c0-.58-.24-1.13-.64-1.57l-2.08-2.05v-2.25c2.34-1.13,3.32-3.93,2.23-6.27-.77-1.64-2.43-2.69-4.24-2.69-1.94,0-3.65,1.19-4.37,2.98l1.22-12.44c.09-.75.79-1.28,1.53-1.21h14.16l1.83-18.78c.04-.64.57-1.15,1.22-1.21l30.13-4.31c.42-.04.86.07,1.22.31.33.35.53.75.62,1.24v22.75h25.21c.47,0,.93.24,1.22.6.24.37.35.8.31,1.24l-2.47,24.88c-.09.77-.77,1.3-1.53,1.24h-23.04v31c-.15,1.35.13,2.69.8,3.84.69,1.15,1.7,2.06,2.89,2.65.9.26,1.85.37,2.78.31,5.43-.4,10.72-1.74,15.68-4,.35-.31.88-.31,1.22,0,.6.29.91.62.91.91l12.61,30.13c.15.31.15.69,0,.99Z"/>
        </g>
      </g>
    </g>
  </g>
</svg>