<svg xmlns="http://www.w3.org/2000/svg" xmlns:xlink="http://www.w3.org/1999/xlink" width="826" height="779" viewBox="0 0 826 779">
  <defs>
    <clipPath id="clip-Web_1920_39">
      <rect width="826" height="779"/>
    </clipPath>
  </defs>
  <g id="Web_1920_39" data-name="Web 1920 – 39" clip-path="url(#clip-Web_1920_39)">
    <rect width="826" height="779" fill="#fff"/>
    <g id="Grupo_75827" data-name="Grupo 75827" transform="translate(7952.849 22612.805)">
      <g id="gratis-png-marco-del-telefono-celular-thumbnail" transform="translate(-7645.449 -22440.504)">
        <path id="Trazado_60732" data-name="Trazado 60732" d="M99.555-449.934c-5.7,1.354-13.824,6.574-17.4,11.214a42.316,42.316,0,0,0-5.124,9.474L75-423.832l.193,192.091.29,192.092,3.287,6.09c3.867,7.154,8.121,11.118,15.564,14.6l5.317,2.513H263.031l5.414-2.707c6.67-3.19,12.761-9.571,16.145-16.918l2.61-5.51v-383.8l-2.8-6.09a32.577,32.577,0,0,0-19.625-17.595c-6.09-1.837-8.6-1.934-83.816-1.837C137.741-450.8,101.779-450.418,99.555-449.934Zm96.287,25.522V-422h-29v-4.833h29Zm82.173,190.931V-64.3H84.667V-402.661H278.016ZM185.4-56.567a16.491,16.491,0,0,1,12.374,15.951c0,5.7-1.837,10.054-5.7,13.341-11.311,9.474-27.649,1.837-27.649-12.858,0-8.314,4.834-14.694,12.568-16.531C181.148-57.631,181.438-57.631,185.4-56.567Z" transform="translate(-75 450.926)"/>
        <path id="Trazado_60733" data-name="Trazado 60733" d="M179.936-34.73c-9.281,5.317-3.867,19.915,6.477,17.595a9.161,9.161,0,0,0,6.574-12.374,12.073,12.073,0,0,0-2.8-4.35C187.96-35.794,182.546-36.18,179.936-34.73Z" transform="translate(-78.332 437.113)"/>
      </g>
      <path id="Trazado_60734" data-name="Trazado 60734" d="M.687,131.9,0,.987H.253L158.211.112V.345s1.114,18.011,17.3,18.613S194.147.267,194.147,0H248.54V131.632l-54.283.189v-.265a23.11,23.11,0,0,0-1.907-9.294,17.072,17.072,0,0,0-15.936-9.975s-15.36-.49-17.663,18.972v.219Z" transform="translate(-7605.295 -22099) rotate(-90)"/>
      <g id="Grupo_75826" data-name="Grupo 75826" transform="translate(-7584.225 -22281.221)">
        <path id="Trazado_59171" data-name="Trazado 59171" d="M7.254,3.468a3.472,3.472,0,0,0-6.943,0L0,16.943a3.472,3.472,0,0,0,6.943,0Z" transform="matrix(-0.035, -0.999, 0.999, -0.035, 15.998, 7.964)" fill="#fafcfb"/>
        <path id="Trazado_59172" data-name="Trazado 59172" d="M7.254,3.468a3.472,3.472,0,0,0-6.943,0L0,16.943a3.472,3.472,0,0,0,6.943,0Z" transform="matrix(-0.035, -0.999, 0.999, -0.035, 53.27, 7.964)" fill="#fafcfb"/>
        <g id="Grupo_64061" data-name="Grupo 64061" transform="matrix(0.017, -1, 1, 0.017, 0, 114.378)">
          <path id="Trazado_59173" data-name="Trazado 59173" d="M2.117,4.486A2.226,2.226,0,0,0,4.2,2.193,2.187,2.187,0,0,0,2.05,0,2.123,2.123,0,0,0,0,2.193v.068A2.156,2.156,0,0,0,2.081,4.486Z" transform="translate(47.717 46.327)" fill="#fafcfb"/>
          <path id="Trazado_59174" data-name="Trazado 59174" d="M2.9,6.231A2.994,2.994,0,0,1,0,3.147H0A3.017,3.017,0,0,1,.817.943,2.73,2.73,0,0,1,2.869,0,2.962,2.962,0,0,1,4.952.881a3.205,3.205,0,0,1,.88,2.19,3.061,3.061,0,0,1-2.9,3.16H2.9Zm0-4.483h0a1.152,1.152,0,0,0-.915.422,1.181,1.181,0,0,0-.356.977,1.365,1.365,0,0,0,1.083,1.58A1.3,1.3,0,0,0,4.2,3.578a1.32,1.32,0,0,0,0-.431,1.4,1.4,0,0,0-.39-.977A1.282,1.282,0,0,0,2.9,1.748Z" transform="translate(46.919 45.448)" fill="#fafcfb"/>
          <path id="Trazado_59175" data-name="Trazado 59175" d="M2.152,4.517A2.186,2.186,0,0,0,4.237,2.259,2.2,2.2,0,0,0,2.108,0,2.205,2.205,0,0,0,0,2.259,2.2,2.2,0,0,0,2.12,4.517Z" transform="translate(1.348 46.841)" fill="#fafcfb"/>
          <path id="Trazado_59176" data-name="Trazado 59176" d="M2.93,6.244A2.873,2.873,0,0,1,.878,5.38,3.375,3.375,0,0,1,0,3.176,3.248,3.248,0,0,1,.848.958,2.752,2.752,0,0,1,2.9.019h0A2.988,2.988,0,0,1,6.122,2.806,3.082,3.082,0,0,1,3.513,6.244a2.092,2.092,0,0,1-.615,0Zm0-1.742h0a1.346,1.346,0,0,0,1.3-1.384h0A1.343,1.343,0,0,0,2.9,1.76h0a1.122,1.122,0,0,0-.877.415,1.389,1.389,0,0,0-.393.973,1.424,1.424,0,0,0,.393.973A1.3,1.3,0,0,0,2.93,4.5Z" transform="translate(0.521 46.051)" fill="#fafcfb"/>
          <path id="Trazado_59177" data-name="Trazado 59177" d="M.3,25.073a2.186,2.186,0,0,0,2.118,2.214l21.068-.3a2.181,2.181,0,0,0,2.056-2.269h0L25.274,2.194A2.16,2.16,0,0,0,23.158,0h0L2.086.288A2.191,2.191,0,0,0,0,2.547ZM4.234,4.741l16.874-.214.2,17.992-16.843.246Z" transform="translate(1.496 60.153)" fill="#fafcfb"/>
          <path id="Trazado_59178" data-name="Trazado 59178" d="M3.189,29.033a3.074,3.074,0,0,1-2.9-3.1L0,3.442A3.243,3.243,0,0,1,.849,1.217,2.757,2.757,0,0,1,2.9.272L23.936,0a3.18,3.18,0,0,1,2.086.867A3.207,3.207,0,0,1,26.9,3.061l.264,22.489a3.108,3.108,0,0,1-.816,2.235,2.82,2.82,0,0,1-2.051.932l-21.041.316Zm-1.27-3.1a1.314,1.314,0,0,0,.393.939,1.388,1.388,0,0,0,.911.415l21.041-.311a1.125,1.125,0,0,0,.909-.418,1.183,1.183,0,0,0,.363-.973L25.272,3.1a1.279,1.279,0,0,0-.389-.969.925.925,0,0,0-.914-.388L2.9,2.016a1.162,1.162,0,0,0-.881.421,1.308,1.308,0,0,0-.39.974ZM4.5,24.5,4.234,4.771,22.7,4.491l.259,19.736ZM5.9,6.479l.192,16.25L21.3,22.517,21.1,6.259Z" transform="translate(0.686 59.3)" fill="#fafcfb"/>
          <path id="Trazado_59179" data-name="Trazado 59179" d="M23.154,0,2.084.294A2.219,2.219,0,0,0,0,2.585L.291,25.073A2.19,2.19,0,0,0,2.408,27.3l21.076-.312a2.154,2.154,0,0,0,2.081-2.228v-.034L25.274,2.242A2.17,2.17,0,0,0,23.187,0ZM21.332,22.53l-16.871.244-.195-18L21.1,4.531Z" transform="translate(0.782 1.628)" fill="#fafcfb"/>
          <path id="Trazado_59180" data-name="Trazado 59180" d="M3.162,29.035a3.063,3.063,0,0,1-2.9-3.1L0,3.455A3.087,3.087,0,0,1,.817,1.22,2.9,2.9,0,0,1,2.871.281L23.91,0h0A2.687,2.687,0,0,1,26,.871a3.22,3.22,0,0,1,.877,2.2l.294,22.52a3.163,3.163,0,0,1-.849,2.193,2.629,2.629,0,0,1-2.05.939l-21.037.312ZM23.94,1.745,2.9,2.025a1.265,1.265,0,0,0-.911.416,1.292,1.292,0,0,0-.362.983l.263,22.512a1.367,1.367,0,0,0,.394.967,1.583,1.583,0,0,0,.906.388l21.075-.312a1.155,1.155,0,0,0,.878-.4,1.316,1.316,0,0,0,.391-.983L25.244,3.106a1.318,1.318,0,0,0-.391-.981,1.628,1.628,0,0,0-.913-.38ZM4.4,24.508,4.141,4.778l18.465-.243.263,19.729ZM5.8,6.482,6,22.736l15.208-.214-.2-16.257Z" transform="translate(0 0.792)" fill="#fafcfb"/>
          <path id="Trazado_59181" data-name="Trazado 59181" d="M25.271,2.231A2.163,2.163,0,0,0,23.187,0h-.033L2.081.287A2.222,2.222,0,0,0,0,2.573L.291,25.059A2.156,2.156,0,0,0,2.374,27.29h.033l21.071-.273a2.2,2.2,0,0,0,2.054-2.3ZM21.3,22.53l-16.835.233L4.234,4.768,21.1,4.521Z" transform="translate(55.541 0.889)" fill="#fafcfb"/>
          <path id="Trazado_59182" data-name="Trazado 59182" d="M3.193,29.022a2.8,2.8,0,0,1-2.022-.865,3.156,3.156,0,0,1-.88-2.189L0,3.449A3.288,3.288,0,0,1,.842,1.213,2.94,2.94,0,0,1,2.9.281L23.934,0A2.668,2.668,0,0,1,26.021.87,3.208,3.208,0,0,1,26.9,3.064l.257,22.52a3.1,3.1,0,0,1-.811,2.225,2.924,2.924,0,0,1-2.051.945l-21.041.268ZM23.969,1.735h0L2.9,2.022A1.4,1.4,0,0,0,1.626,3.413L1.92,25.926a1.345,1.345,0,0,0,.4.977,1.32,1.32,0,0,0,.909.38l21.2-.308a1.422,1.422,0,0,0,.912-.412,1.315,1.315,0,0,0,.36-1.014L25.434,3.064a1.315,1.315,0,0,0-.39-.981A1.255,1.255,0,0,0,23.969,1.735ZM4.427,24.5,4.2,4.771l18.47-.246.258,19.736ZM5.861,6.478l.2,16.288,15.2-.244-.19-16.261Z" transform="translate(54.705 0)" fill="#fafcfb"/>
          <path id="Trazado_59183" data-name="Trazado 59183" d="M25.537,24.7,25.274,2.187A2.178,2.178,0,0,0,23.124,0L2.085.277A2.228,2.228,0,0,0,0,2.574L.3,25.056a2.146,2.146,0,0,0,2.082,2.218H2.41l21.074-.308a2.125,2.125,0,0,0,2.053-2.187ZM21.3,22.516l-16.842.24-.227-18,16.839-.243Z" transform="translate(56.257 59.371)" fill="#fafcfb"/>
          <path id="Trazado_59184" data-name="Trazado 59184" d="M3.193,29.031a2.687,2.687,0,0,1-2.02-.9,2.983,2.983,0,0,1-.879-2.19L0,3.451A3.289,3.289,0,0,1,.848,1.217,2.77,2.77,0,0,1,2.9.284L23.94.006a2.547,2.547,0,0,1,2.082.871,3.176,3.176,0,0,1,.881,2.19l.26,22.523a3,3,0,0,1-.817,2.193,2.665,2.665,0,0,1-2.049.937l-21.072.311ZM23.973,1.748h0L2.9,2.022a1.27,1.27,0,0,0-.907.421,1.556,1.556,0,0,0-.364.971l.3,22.526a1.391,1.391,0,0,0,.391.967,1.332,1.332,0,0,0,.912.387l21.038-.315a1.091,1.091,0,0,0,.912-.418,1.385,1.385,0,0,0,.359-.969L25.275,3.1a1.316,1.316,0,0,0-1.3-1.35ZM4.429,24.5,4.2,4.771l18.473-.278.224,19.77ZM5.863,6.481l.2,16.247,15.21-.2-.2-16.257Z" transform="translate(55.428 58.517)" fill="#fafcfb"/>
          <path id="Trazado_59185" data-name="Trazado 59185" d="M6.283,0h-4.2A2.227,2.227,0,0,0,0,2.293V6.786A2.191,2.191,0,0,0,2.116,9.014H6.353A2.2,2.2,0,0,0,8.435,6.742V2.221A2.217,2.217,0,0,0,6.283,0Z" transform="translate(10.024 69.234)" fill="#fafcfb"/>
          <path id="Trazado_59186" data-name="Trazado 59186" d="M2.933,10.755A3.068,3.068,0,0,1,0,7.663V3.16A3.238,3.238,0,0,1,.847.942,2.773,2.773,0,0,1,2.9,0H7.1A3.193,3.193,0,0,1,9.188.908a3.173,3.173,0,0,1,.876,2.187v4.5a3.213,3.213,0,0,1-.845,2.218,2.788,2.788,0,0,1-2.05.942H2.933ZM7.07,1.668H2.835A1.39,1.39,0,0,0,1.563,3.06V7.595a1.384,1.384,0,0,0,1.3,1.354h4.2a1.137,1.137,0,0,0,.908-.421,1.335,1.335,0,0,0,.392-.973V3.06a1.4,1.4,0,0,0-.392-.973A1.084,1.084,0,0,0,7.07,1.668Z" transform="translate(9.29 68.43)" fill="#fafcfb"/>
          <path id="Trazado_59187" data-name="Trazado 59187" d="M2.149,8.971h4.2A2.184,2.184,0,0,0,8.439,6.72V2.195A2.147,2.147,0,0,0,6.318,0H2.087A2.217,2.217,0,0,0,0,2.295V6.788A2.21,2.21,0,0,0,2.149,8.971Z" transform="translate(9.38 10.835)" fill="#fafcfb"/>
          <path id="Trazado_59188" data-name="Trazado 59188" d="M2.929,10.755A3.06,3.06,0,0,1,0,7.661V3.17A3.281,3.281,0,0,1,.846.942,2.917,2.917,0,0,1,2.9,0H7.1A2.737,2.737,0,0,1,9.184.867a3.2,3.2,0,0,1,.88,2.2V7.557a3.2,3.2,0,0,1-.849,2.214,2.7,2.7,0,0,1-2.05.947h-4.2ZM7.062,1.71h-4.2a1.268,1.268,0,0,0-.915.411,1.425,1.425,0,0,0-.386.977V7.623A1.318,1.318,0,0,0,2.833,8.987H7.1a1.113,1.113,0,0,0,.881-.432,1.248,1.248,0,0,0,.39-.966V3.1a1.31,1.31,0,0,0-.39-.977A1.212,1.212,0,0,0,7.062,1.71Z" transform="translate(8.574 9.944)" fill="#fafcfb"/>
          <path id="Trazado_59189" data-name="Trazado 59189" d="M2.084,8.974H6.317A2.19,2.19,0,0,0,8.4,6.719v-4.5A2.181,2.181,0,0,0,6.252,0H2.084A2.232,2.232,0,0,0,0,2.3V6.78A2.154,2.154,0,0,0,2.084,8.974Z" transform="translate(64.037 10.088)" fill="#fafcfb"/>
          <path id="Trazado_59190" data-name="Trazado 59190" d="M2.93,10.713A3.03,3.03,0,0,1,0,7.645V3.124A3.158,3.158,0,0,1,.846.937,2.56,2.56,0,0,1,2.9,0H7.1a3.023,3.023,0,0,1,2.931,3.047V7.581a3.182,3.182,0,0,1-.846,2.19,2.793,2.793,0,0,1-2.054.942ZM7.068,1.664H2.831a1.214,1.214,0,0,0-.876.387,1.384,1.384,0,0,0-.39,1v4.5a1.37,1.37,0,0,0,1.3,1.357h4.2a1.383,1.383,0,0,0,1.3-1.4V3.028A1.345,1.345,0,0,0,7.2,1.554H7.2Z" transform="translate(63.194 9.296)" fill="#fafcfb"/>
          <path id="Trazado_59191" data-name="Trazado 59191" d="M2.149,8.98H6.381A2.163,2.163,0,0,0,8.434,6.719h0V2.194A2.2,2.2,0,0,0,6.284,0h-4.2A2.226,2.226,0,0,0,0,2.294v4.5A2.18,2.18,0,0,0,2.149,8.98Z" transform="translate(64.814 68.602)" fill="#fafcfb"/>
          <path id="Trazado_59192" data-name="Trazado 59192" d="M2.9,10.752A3.023,3.023,0,0,1,0,7.661v-4.5A3.042,3.042,0,0,1,2.9,0H7.134a3.032,3.032,0,0,1,2.93,3.068V7.548a3.048,3.048,0,0,1-.816,2.228,2.808,2.808,0,0,1-2.051.945H3ZM7.067,1.7H2.833a1.427,1.427,0,0,0-.909.416,1.543,1.543,0,0,0-.359.98V7.62A1.338,1.338,0,0,0,2.833,8.974h4.2a1.1,1.1,0,0,0,.909-.415,1.369,1.369,0,0,0,.362-.973V3.1A1.364,1.364,0,0,0,7.067,1.7Z" transform="translate(64.037 67.696)" fill="#fafcfb"/>
          <path id="Trazado_59193" data-name="Trazado 59193" d="M0,2.639A2.193,2.193,0,0,0,2.117,4.87L29.5,4.479V15.728a2.251,2.251,0,0,0,1.839,2.53,2.16,2.16,0,0,0,2.368-1.968,2.242,2.242,0,0,0,0-.562L33.547,2.221A2.16,2.16,0,0,0,31.462,0h-.035L2.117.411A2.124,2.124,0,0,0,0,2.533Z" transform="translate(9.763 46.461)" fill="#fafcfb"/>
          <path id="Trazado_59194" data-name="Trazado 59194" d="M32.438,19.771a2.849,2.849,0,0,1-2.051-.87,3.162,3.162,0,0,1-.878-2.19V6.267L2.96,6.644A2.986,2.986,0,0,1,0,3.624V3.552H0A3.006,3.006,0,0,1,2.865.419h0L32.177,0A2.992,2.992,0,0,1,35.14,3.028v.038l.163,13.5a3.067,3.067,0,0,1-.814,2.231,2.782,2.782,0,0,1-2.05.947ZM30.972,4.56V16.677a1.369,1.369,0,0,0,.39.973,1.589,1.589,0,0,0,.911.38,1.122,1.122,0,0,0,.916-.422,1.394,1.394,0,0,0,.356-.967L33.382,3.13a1.377,1.377,0,0,0-1.3-1.357L2.766,2.189A1.325,1.325,0,0,0,1.5,3.552v.03h0a1.4,1.4,0,0,0,.39.977A1.286,1.286,0,0,0,2.8,4.95Z" transform="translate(9.098 45.515)" fill="#fafcfb"/>
          <path id="Trazado_59195" data-name="Trazado 59195" d="M23.219,4.487A2.155,2.155,0,0,0,25.3,2.269V2.225A2.221,2.221,0,0,0,23.154,0L2.116.284A2.183,2.183,0,0,0,0,2.539,2.191,2.191,0,0,0,2.116,4.805h0Z" transform="translate(1.21 37.626)" fill="#fafcfb"/>
          <path id="Trazado_59196" data-name="Trazado 59196" d="M2.929,6.548A3.041,3.041,0,0,1,0,3.45,3.045,3.045,0,0,1,2.865.279L23.938,0A2.945,2.945,0,0,1,26.9,2.954V3.1a3.228,3.228,0,0,1-.846,2.194A2.722,2.722,0,0,1,24,6.23L2.965,6.548ZM23.97,1.74h0L2.9,2.025A1.378,1.378,0,0,0,1.63,3.45a1.375,1.375,0,0,0,.39.969,1.476,1.476,0,0,0,.909.384L24,4.5a1.152,1.152,0,0,0,.878-.425,1.306,1.306,0,0,0,.393-.971,1.352,1.352,0,0,0-1.3-1.36Z" transform="translate(0.427 36.792)" fill="#fafcfb"/>
          <path id="Trazado_59197" data-name="Trazado 59197" d="M1.823,4.525H10.26a2.19,2.19,0,0,0,2.114-2.262A2.192,2.192,0,0,0,10.26,0H1.854A2.238,2.238,0,0,0,.016,2.523,2.2,2.2,0,0,0,1.854,4.487Z" transform="translate(31.014 37.499)" fill="#fafcfb"/>
          <path id="Trazado_59198" data-name="Trazado 59198" d="M2.93,6.23A2.993,2.993,0,0,1,0,3.167V3.143A3.01,3.01,0,0,1,2.866,0H11.3a2.593,2.593,0,0,1,2.078.909,3.118,3.118,0,0,1,.879,2.183,3.037,3.037,0,0,1-2.9,3.174h-8.4Zm8.4-4.623H2.9A1.343,1.343,0,0,0,1.649,3.05a1.394,1.394,0,0,0,.367.919,1.752,1.752,0,0,0,.913.377h8.432A1.377,1.377,0,0,0,12.633,2.93a1.449,1.449,0,0,0-.39-.953,1.22,1.22,0,0,0-.913-.37Z" transform="translate(29.897 36.677)" fill="#fafcfb"/>
          <path id="Trazado_59199" data-name="Trazado 59199" d="M2.05,0A2.208,2.208,0,0,0,0,2.3L.262,24.786a2.155,2.155,0,0,0,2.084,2.231h.029L17.13,26.8V38.053a2.178,2.178,0,0,0,2.146,2.218h8.406a2.191,2.191,0,0,0,2.084-2.29h0a2.15,2.15,0,0,0-2.113-2.193H21.335l-.168-11.249a2.146,2.146,0,0,0-2.084-2.218h-.032L4.3,22.53,4.07,2.262A2.24,2.24,0,0,0,2.05,0Z" transform="translate(30.298 1.498)" fill="#fafcfb"/>
          <path id="Trazado_59200" data-name="Trazado 59200" d="M20.029,42.256A3.034,3.034,0,0,1,17.1,39.195V28.751H3.193a3.028,3.028,0,0,1-2.93-3.064L0,3.174A3.047,3.047,0,0,1,2.865,0h0A3.072,3.072,0,0,1,5.8,3.1l.225,19.386,13.939-.206A2.96,2.96,0,0,1,22.9,25.272v10.55h5.5A2.914,2.914,0,0,1,31.362,38.7c0,.056,0,.12,0,.172a3.015,3.015,0,0,1-2.833,3.178H20.063ZM18.6,27.044V39.157a1.29,1.29,0,0,0,1.2,1.368.493.493,0,0,0,.1-.006H28.34A1.314,1.314,0,0,0,29.6,39.157V39.13a1.282,1.282,0,0,0-1.2-1.365.342.342,0,0,0-.1,0H21.169l-.161-12.11A1.375,1.375,0,0,0,19.7,24.3l-15.536.21L3.908,3.414a1.349,1.349,0,0,0-1.3-1.4h0a1.363,1.363,0,0,0-1.271,1.4L1.6,25.927a1.375,1.375,0,0,0,1.3,1.36Z" transform="translate(29.806 0.391)" fill="#fafcfb"/>
          <path id="Trazado_59201" data-name="Trazado 59201" d="M14.721,0,2.085.185A2.214,2.214,0,0,0,0,2.467,2.225,2.225,0,0,0,2.149,4.7H14.784A2.235,2.235,0,0,0,16.87,2.4a2.239,2.239,0,0,0-2.049-2.4Z" transform="translate(64.409 36.879)" fill="#fafcfb"/>
          <path id="Trazado_59202" data-name="Trazado 59202" d="M2.933,6.44a2.708,2.708,0,0,1-2.053-.9A3.351,3.351,0,0,1,0,3.348,3.077,3.077,0,0,1,2.9.181L15.537,0a3.051,3.051,0,0,1,2.93,3.146,3.036,3.036,0,0,1-2.93,3.123H2.9Zm12.6-4.692L2.9,1.926A1.376,1.376,0,0,0,1.629,3.308a1.454,1.454,0,0,0,.393.98,1.881,1.881,0,0,0,.912.425H15.566A1.432,1.432,0,0,0,16.872,3.28a1.41,1.41,0,0,0-1.335-1.354Z" transform="translate(63.573 36.005)" fill="#fafcfb"/>
          <path id="Trazado_59203" data-name="Trazado 59203" d="M23.126.01,2.085.3A2.229,2.229,0,0,0,0,2.6,2.193,2.193,0,0,0,2.147,4.788l21.045-.274a2.152,2.152,0,0,0,2.359-1.96A2.252,2.252,0,0,0,23.715.01a3.271,3.271,0,0,0-.522,0Z" transform="translate(56.029 45.878)" fill="#fafcfb"/>
          <path id="Trazado_59204" data-name="Trazado 59204" d="M2.933,6.543A3.031,3.031,0,0,1,0,3.41,3.033,3.033,0,0,1,2.933.284L23.969,0a3.227,3.227,0,0,1,2.084.873,3.2,3.2,0,0,1,.878,2.19,3.041,3.041,0,0,1-2.9,3.167h0L3,6.543Zm21.037-4.8L2.9,2.022a1.372,1.372,0,0,0-.913.418,1.562,1.562,0,0,0-.359.969,1.313,1.313,0,0,0,1.239,1.4h.067L24,4.493a1.319,1.319,0,0,0,1.272-1.357v-.03a1.436,1.436,0,0,0-.388-.977A1.1,1.1,0,0,0,23.969,1.748Z" transform="translate(55.257 45.031)" fill="#fafcfb"/>
          <path id="Trazado_59205" data-name="Trazado 59205" d="M10.5,0H2.1A2.153,2.153,0,0,0,.017,2.225V15.768A2.244,2.244,0,0,0,1.853,18.3a2.155,2.155,0,0,0,2.366-1.964,2.968,2.968,0,0,0,0-.565V4.525h6.319a2.2,2.2,0,0,0,2.119-2.269A2.195,2.195,0,0,0,10.538,0Z" transform="translate(31.075 68.744)" fill="#fafcfb"/>
          <path id="Trazado_59206" data-name="Trazado 59206" d="M2.9,19.733a3.06,3.06,0,0,1-2.9-3.1V3.174A3.1,3.1,0,0,1,.815.939,2.882,2.882,0,0,1,2.868,0H11.3a3.1,3.1,0,0,1,2.965,3.1,3.075,3.075,0,0,1-2.9,3.17h-5.5V16.707a3.371,3.371,0,0,1-.812,2.227A2.835,2.835,0,0,1,3,19.88ZM11.141,1.6h-8.4a1.146,1.146,0,0,0-.917.422,1.37,1.37,0,0,0-.358.969V16.5a1.413,1.413,0,0,0,.391.977,1.391,1.391,0,0,0,.914.373,1.3,1.3,0,0,0,.911-.407,1.59,1.59,0,0,0,.359-.977V4.349h7.1a1.345,1.345,0,0,0,1.3-1.394,1.351,1.351,0,0,0-1.3-1.389Z" transform="translate(30.445 68.175)" fill="#fafcfb"/>
          <path id="Trazado_59207" data-name="Trazado 59207" d="M8.4,27.288H2.084a2.27,2.27,0,0,0,.064,4.529h8.407a2.168,2.168,0,0,0,2.087-2.228v-.044L12.31,2.537A2.228,2.228,0,0,0,10.477.018a2.148,2.148,0,0,0-2.369,1.96,2.365,2.365,0,0,0,0,.559Z" transform="translate(39.659 55.033)" fill="#fafcfb"/>
          <path id="Trazado_59208" data-name="Trazado 59208" d="M2.933,33.613A3.074,3.074,0,0,1,0,30.514a3.342,3.342,0,0,1,.847-2.235A2.935,2.935,0,0,1,2.9,27.344H8.4L8.111,3.473A3.106,3.106,0,0,1,10.717.015,3,3,0,0,1,13.939,2.8a3.575,3.575,0,0,1,0,.671l.326,26.972a3.024,3.024,0,0,1-2.834,3.167h-8.5ZM11.008,1.969h0A1.317,1.317,0,0,0,9.739,3.326v.028l.292,25.635h-7.1a1.247,1.247,0,0,0-.913.408,1.467,1.467,0,0,0,.018,1.974,1.21,1.21,0,0,0,.928.384h8.4a1.3,1.3,0,0,0,1.272-1.347v-.042L12.312,3.353a1.35,1.35,0,0,0-1.3-1.384h0Z" transform="translate(38.85 54.198)" fill="#fafcfb"/>
          <path id="Trazado_59209" data-name="Trazado 59209" d="M10.81,17.781a2.2,2.2,0,0,0,2.086-2.3h0V1.979A2.142,2.142,0,0,0,10.532.019a2.179,2.179,0,0,0-1.837,1.96V13.222H2.377A2.144,2.144,0,0,0,.018,15.19a2.212,2.212,0,0,0,1.836,2.515,1.653,1.653,0,0,0,.524,0Z" transform="translate(38.604 1.537)" fill="#fafcfb"/>
          <path id="Trazado_59210" data-name="Trazado 59210" d="M3.24,19.8A2.989,2.989,0,0,1,.017,17.018a3.091,3.091,0,0,1,2.608-3.444,3.574,3.574,0,0,1,.615,0h5.5V3.129A3.012,3.012,0,0,1,11.612,0h0a3.03,3.03,0,0,1,2.931,3.061v13.5a3.378,3.378,0,0,1-.816,2.228,2.785,2.785,0,0,1-2.053.935H3.24ZM11.48,1.7h0a1.315,1.315,0,0,0-1.268,1.357V15.215H3.076a1.312,1.312,0,0,0-1.269,1.35V16.6a1.379,1.379,0,0,0,1.3,1.36h8.437a1.307,1.307,0,0,0,.909-.415,1.549,1.549,0,0,0,.358-.977V3.061A1.312,1.312,0,0,0,11.551,1.7Z" transform="translate(37.723 0.465)" fill="#fafcfb"/>
        </g>
      </g>
    </g>
  </g>
</svg>
