<svg xmlns="http://www.w3.org/2000/svg" xmlns:xlink="http://www.w3.org/1999/xlink" width="826" height="779" viewBox="0 0 826 779">
  <defs>
    <clipPath id="clip-Web_1920_15">
      <rect width="826" height="779"/>
    </clipPath>
  </defs>
  <g id="Web_1920_15" data-name="Web 1920 – 15" clip-path="url(#clip-Web_1920_15)">
    <rect width="826" height="779" fill="#fff"/>
    <g id="Grupo_75742" data-name="Grupo 75742" transform="translate(8013.128 23848.27)">
      <path id="Icon_awesome-cash-register" data-name="Icon awesome-cash-register" d="M320.433,237.447,303.7,137.152a20.064,20.064,0,0,0-19.808-16.737H130.438V80.3h60.177a10.059,10.059,0,0,0,10.029-10.029V10.029A10.059,10.059,0,0,0,190.615,0H30.144A10.059,10.059,0,0,0,20.115,10.029V70.206A10.059,10.059,0,0,0,30.144,80.235H90.32v40.118H37.1A20.113,20.113,0,0,0,17.294,137.09L.557,237.384a38.887,38.887,0,0,0-.564,6.582v56.917a20.037,20.037,0,0,0,20.059,20.059H300.876a20.037,20.037,0,0,0,20.059-20.059V244.028A33.28,33.28,0,0,0,320.433,237.447ZM175.571,155.456A10.059,10.059,0,0,1,185.6,145.427h10.029a10.059,10.059,0,0,1,10.029,10.029v10.029a10.059,10.059,0,0,1-10.029,10.029H185.6a10.059,10.059,0,0,1-10.029-10.029Zm-20.059,40.118h10.029A10.059,10.059,0,0,1,175.571,205.6v10.029a10.059,10.059,0,0,1-10.029,10.029H155.512a10.059,10.059,0,0,1-10.029-10.029V205.6A10.059,10.059,0,0,1,155.512,195.574Zm-20.059-50.147a10.059,10.059,0,0,1,10.029,10.029v10.029a10.059,10.059,0,0,1-10.029,10.029H125.423a10.059,10.059,0,0,1-10.029-10.029V155.456a10.059,10.059,0,0,1,10.029-10.029ZM50.2,50.147V30.088H170.556V50.147ZM75.276,175.515H65.247a10.059,10.059,0,0,1-10.029-10.029V155.456a10.059,10.059,0,0,1,10.029-10.029H75.276a10.059,10.059,0,0,1,10.029,10.029v10.029A10.059,10.059,0,0,1,75.276,175.515Zm10.029,40.118V205.6a10.059,10.059,0,0,1,10.029-10.029h10.029A10.059,10.059,0,0,1,115.394,205.6v10.029a10.059,10.059,0,0,1-10.029,10.029H95.335A10.059,10.059,0,0,1,85.306,215.633Zm135.4,70.206a5.029,5.029,0,0,1-5.015,5.015H105.365a5.029,5.029,0,0,1-5.015-5.015V275.809a5.029,5.029,0,0,1,5.015-5.015H215.688a5.029,5.029,0,0,1,5.015,5.015Zm15.044-70.206a10.059,10.059,0,0,1-10.029,10.029H215.688a10.059,10.059,0,0,1-10.029-10.029V205.6a10.059,10.059,0,0,1,10.029-10.029h10.029A10.059,10.059,0,0,1,235.747,205.6Zm30.088-50.147a10.059,10.059,0,0,1-10.029,10.029H245.777a10.059,10.059,0,0,1-10.029-10.029V155.456a10.059,10.059,0,0,1,10.029-10.029h10.029a10.059,10.059,0,0,1,10.029,10.029Z" transform="translate(-7798.996 -23580.711)" fill="#02080a"/>
      <g id="Grupo_61188" data-name="Grupo 61188" transform="translate(-7512.362 -23656.117)">
        <path id="Unión_124" data-name="Unión 124" d="M54.83,104.182H23.107A23.1,23.1,0,0,1,0,81.076V38.447A38.621,38.621,0,0,1,38.528,0H73.492a38.614,38.614,0,0,1,38.528,38.447V81.076a23.1,23.1,0,0,1-23.1,23.107Z" transform="translate(0 78.609)" fill="#02080a" stroke="rgba(0,0,0,0)" stroke-miterlimit="10" stroke-width="1"/>
        <path id="Trazado_56583" data-name="Trazado 56583" d="M1292.967,359a34.612,34.612,0,0,0,0,69.139,33.049,33.049,0,0,0,13.637-2.813,34.51,34.51,0,0,0,21.145-31.714A34.614,34.614,0,0,0,1293.137,359Z" transform="translate(-1237.894 -359)" fill="#02080a"/>
      </g>
    </g>
  </g>
</svg>
