<svg xmlns="http://www.w3.org/2000/svg" xmlns:xlink="http://www.w3.org/1999/xlink" width="826" height="779" viewBox="0 0 826 779">
  <defs>
    <clipPath id="clip-Web_1920_26">
      <rect width="826" height="779"/>
    </clipPath>
  </defs>
  <g id="Web_1920_26" data-name="Web 1920 – 26" clip-path="url(#clip-Web_1920_26)">
    <rect width="826" height="779" fill="#fff"/>
    <g id="Grupo_75781" data-name="Grupo 75781" transform="translate(6254.178 22799.686)">
      <path id="Icon_material-crop-landscape" data-name="Icon material-crop-landscape" d="M155.646,7.5H23.393A18.949,18.949,0,0,0,4.5,26.393v94.467a18.949,18.949,0,0,0,18.893,18.893H155.646a18.949,18.949,0,0,0,18.893-18.893V26.393A18.949,18.949,0,0,0,155.646,7.5Zm0,113.361H23.393V26.393H155.646Z" transform="translate(-5786.52 -22648.674)" fill="#101216"/>
      <path id="Icon_material-linear-scale" data-name="Icon material-linear-scale" d="M61.236,0a8.755,8.755,0,0,0-8.013,5.249H43.005a8.741,8.741,0,0,0-16.026,0H16.761a8.748,8.748,0,1,0,0,7H26.979a8.741,8.741,0,0,0,16.026,0H53.223A8.746,8.746,0,1,0,61.236,0Z" transform="matrix(0.978, -0.208, 0.208, 0.978, -5757.767, -22563.418)"/>
      <path id="Icon_material-linear-scale-2" data-name="Icon material-linear-scale" d="M61.236,0a8.755,8.755,0,0,0-8.013,5.249H43.005a8.741,8.741,0,0,0-16.026,0H16.761a8.748,8.748,0,1,0,0,7H26.979a8.741,8.741,0,0,0,16.026,0H53.223A8.746,8.746,0,1,0,61.236,0Z" transform="matrix(0.891, -0.454, 0.454, 0.891, -5706.496, -22572.014)"/>
      <path id="Icon_awesome-cash-register" data-name="Icon awesome-cash-register" d="M388.786,288.1,368.48,166.408A24.343,24.343,0,0,0,344.446,146.1H158.264V97.427h73.013a12.2,12.2,0,0,0,12.169-12.169V12.169A12.2,12.2,0,0,0,231.276,0H36.575A12.2,12.2,0,0,0,24.407,12.169V85.182A12.2,12.2,0,0,0,36.575,97.35h73.013v48.675H45.018a24.4,24.4,0,0,0-24.033,20.307L.677,288.021a47.182,47.182,0,0,0-.684,7.986v69.058A24.311,24.311,0,0,0,24.331,389.4H365.057a24.311,24.311,0,0,0,24.338-24.338V296.082A40.377,40.377,0,0,0,388.786,288.1Zm-175.763-99.48a12.2,12.2,0,0,1,12.169-12.169h12.169a12.2,12.2,0,0,1,12.169,12.169v12.169a12.2,12.2,0,0,1-12.169,12.169H225.192a12.2,12.2,0,0,1-12.169-12.169Zm-24.338,48.675h12.169a12.2,12.2,0,0,1,12.169,12.169v12.169A12.2,12.2,0,0,1,200.854,273.8H188.686a12.2,12.2,0,0,1-12.169-12.169V249.461A12.2,12.2,0,0,1,188.686,237.292Zm-24.338-60.844a12.2,12.2,0,0,1,12.169,12.169v12.169a12.2,12.2,0,0,1-12.169,12.169H152.179a12.2,12.2,0,0,1-12.169-12.169V188.617a12.2,12.2,0,0,1,12.169-12.169ZM60.913,60.844V36.506H206.939V60.844Zm30.422,152.11H79.166A12.2,12.2,0,0,1,67,200.785V188.617a12.2,12.2,0,0,1,12.169-12.169H91.335A12.2,12.2,0,0,1,103.5,188.617v12.169A12.2,12.2,0,0,1,91.335,212.954ZM103.5,261.629V249.461a12.2,12.2,0,0,1,12.169-12.169h12.169a12.2,12.2,0,0,1,12.169,12.169v12.169A12.2,12.2,0,0,1,127.842,273.8H115.673A12.2,12.2,0,0,1,103.5,261.629Zm164.279,85.182A6.1,6.1,0,0,1,261.7,352.9H127.842a6.1,6.1,0,0,1-6.084-6.084V334.642a6.1,6.1,0,0,1,6.084-6.084H261.7a6.1,6.1,0,0,1,6.084,6.084Zm18.253-85.182A12.2,12.2,0,0,1,273.867,273.8H261.7a12.2,12.2,0,0,1-12.169-12.169V249.461A12.2,12.2,0,0,1,261.7,237.292h12.169a12.2,12.2,0,0,1,12.169,12.169Zm36.506-60.844a12.2,12.2,0,0,1-12.169,12.169H298.2a12.2,12.2,0,0,1-12.169-12.169V188.617A12.2,12.2,0,0,1,298.2,176.448h12.169a12.2,12.2,0,0,1,12.169,12.169Z" transform="translate(-6069.368 -22568.516)" fill="#101216"/>
    </g>
  </g>
</svg>
