<svg xmlns="http://www.w3.org/2000/svg" xmlns:xlink="http://www.w3.org/1999/xlink" width="826" height="779" viewBox="0 0 826 779">
  <defs>
    <clipPath id="clip-Web_1920_37">
      <rect width="826" height="779"/>
    </clipPath>
  </defs>
  <g id="Web_1920_37" data-name="Web 1920 – 37" clip-path="url(#clip-Web_1920_37)">
    <rect width="826" height="779" fill="#fff"/>
    <path id="punto_de_venta" data-name="punto de venta" d="M356.457,59.756c-12.475,0-20.792,9.626-20.792,21.177V271.527c0,11.551,8.317,19.252,20.792,21.177,12.475,0,20.792-9.626,20.792-21.177V80.933c0-11.551-8.317-21.177-20.792-21.177M281.608,2H36.267C17.554,2,3,15.476,3,32.8V298.48c0,17.327,14.554,30.8,33.267,30.8H65.375v38.5c0,11.551,8.317,19.252,20.792,19.252h124.75c12.475,0,20.792-7.7,20.792-19.252v-38.5h49.9c18.712,0,33.267-13.476,33.267-30.8V32.8c0-17.327-14.554-30.8-33.267-30.8M44.583,117.512h62.375v38.5H44.583v-38.5m145.541,57.756v38.5H127.75v-38.5h62.375M127.75,156.015v-38.5h62.375v38.5H127.75m62.375,77.008v38.5H127.75v-38.5h62.375M44.583,175.267h62.375v38.5H44.583v-38.5m0,96.26v-38.5h62.375v38.5H44.583m62.375,96.26H86.166v-38.5h20.792v38.5m103.958,0H148.541v-38.5h62.375v38.5m62.375-96.26H210.916v-38.5h62.375v38.5m0-57.756H210.916v-38.5h62.375v38.5m0-57.756H210.916v-38.5h62.375v38.5m0-77.008H44.583V40.5H273.291Z" transform="translate(223.375 195.021)" fill="#111418"/>
  </g>
</svg>
