<?xml version="1.0" encoding="UTF-8"?>
<svg id="Capa_1" data-name="Capa 1" xmlns="http://www.w3.org/2000/svg" viewBox="0 0 433.96 395.43">
  <defs>
    <style>
      .cls-1 {
        stroke-width: 0px;
      }
    </style>
  </defs>
  <path id="Trazado_55544" data-name="Trazado 55544" class="cls-1" d="m384.07,87.04v-30.2c-.18-31.31-25.75-56.65-57.35-56.84H60.85C27.63.05.57,26.45,0,59.36v279.24c.18,31.32,25.76,56.66,57.37,56.83h319.22c31.6-.18,57.18-25.52,57.37-56.83v-195.22c-.19-28.62-21.5-52.7-49.89-56.34h0ZM34.92,60.35c.14-14.23,11.71-25.69,25.93-25.7h265.36c5.95-.03,11.67,2.3,15.9,6.49,4.21,4.16,6.57,9.84,6.55,15.75v29.65H60.85c-13.97,0-25.93-11.85-25.93-26.19Zm314.31,213.46c-22.61-.21-40.77-18.71-40.56-41.32s18.71-40.77,41.32-40.56c22.46.21,40.57,18.48,40.57,40.94-.1,22.72-18.6,41.05-41.32,40.94h0Z"/>
</svg>