<?xml version="1.0" encoding="UTF-8"?>
<svg id="Layer_1" data-name="Layer 1" xmlns="http://www.w3.org/2000/svg" viewBox="0 0 512 512">
  <defs>
    <style>
      .cls-1 {
        stroke-width: 0px;
      }
    </style>
  </defs>
  <path class="cls-1" d="m426.49,404.01H85.51c-21.1,0-38.2-17.1-38.2-38.2V116.72c0-21.1,17.1-38.2,38.2-38.2h340.98c21.1,0,38.2,17.1,38.2,38.2v249.08c0,21.1-17.1,38.2-38.2,38.2Zm-345.5-33.68h350.02V112.2H80.99v258.13Z"/>
  <g>
    <rect class="cls-1" x="152.01" y="146.15" width="207.97" height="25.79" rx="12.9" ry="12.9"/>
    <rect class="cls-1" x="152.01" y="200.96" width="207.97" height="25.79" rx="12.9" ry="12.9"/>
    <rect class="cls-1" x="152.01" y="255.77" width="207.97" height="25.79" rx="12.9" ry="12.9"/>
    <rect class="cls-1" x="152.01" y="310.59" width="207.97" height="25.79" rx="12.9" ry="12.9"/>
  </g>
</svg>