<?xml version="1.0" encoding="UTF-8"?>
<svg id="Layer_1" data-name="Layer 1" xmlns="http://www.w3.org/2000/svg" viewBox="0 0 512 512">
  <defs>
    <style>
      .cls-1, .cls-2 {
        stroke-width: 0px;
      }

      .cls-2 {
        fill: #fff;
      }
    </style>
  </defs>
  <g>
    <path class="cls-1" d="m239.61,206c-41.03,0-74.41-33.38-74.41-74.41s33.38-74.41,74.41-74.41,74.41,33.38,74.41,74.41-33.38,74.41-74.41,74.41Zm0-135.72c-33.81,0-61.31,27.5-61.31,61.31s27.5,61.31,61.31,61.31,61.31-27.5,61.31-61.31-27.5-61.31-61.31-61.31Z"/>
    <path class="cls-1" d="m264.69,232.98h-54.84c-55.26,0-100.23,44.97-100.23,100.23v121.61h255.3v-121.61c0-55.26-44.97-100.23-100.23-100.23Zm87.13,208.74H122.72v-108.51c0-48.03,39.07-87.13,87.13-87.13h11.11l5.66,7.44,7.94,10.46-25.23,82.49,25.6,50.39,2.33,4.59,2.33-4.59,25.6-50.39-25.23-82.49,7.97-10.46,5.66-7.44h11.11c48.03,0,87.13,39.1,87.13,87.13v108.51Z"/>
  </g>
  <path class="cls-1" d="m437.74,151.94l-53.87,78.66c-2.86,4.18-8.56,5.25-12.74,2.4h0s0,0,0,0c-4.18-2.86-5.25-8.57-2.39-12.75l53.86-78.67c2.86-4.18,8.58-5.25,12.76-2.39h0s0,0,0,0c4.18,2.86,5.25,8.57,2.38,12.76Z"/>
  <path class="cls-1" d="m368.61,169.82c-15.88,0-28.8-12.92-28.8-28.8s12.92-28.8,28.8-28.8,28.8,12.92,28.8,28.8-12.92,28.8-28.8,28.8Zm0-44.49c-8.65,0-15.7,7.04-15.7,15.7s7.04,15.69,15.7,15.69,15.69-7.04,15.69-15.69-7.04-15.7-15.69-15.7Z"/>
  <path class="cls-1" d="m437.45,248.98c-15.88,0-28.8-12.92-28.8-28.8s12.92-28.8,28.8-28.8,28.8,12.92,28.8,28.8-12.92,28.8-28.8,28.8Zm0-44.49c-8.65,0-15.69,7.04-15.69,15.7s7.04,15.69,15.69,15.69,15.69-7.04,15.69-15.69-7.04-15.7-15.69-15.7Z"/>
  <g>
    <path class="cls-1" d="m110.24,117.48v142.1H18.55V117.14h91.4c.1.1.21.24.29.34Zm-2.62,139.48V119.76H21.17v137.2h86.45Z"/>
    <path class="cls-1" d="m110.24,117.14v.34c-.08-.1-.18-.24-.29-.34h.29Z"/>
    <path class="cls-1" d="m107.62,256.49v.47h-.52c.18-.13.37-.29.52-.47Z"/>
    <path class="cls-1" d="m107.62,119.76v136.73c-.16.18-.34.34-.52.47H21.17V119.76h86.45Zm-3.46,132.41v-127.61H24.63v127.61h79.53Z"/>
    <path class="cls-2" d="m104.16,124.56v127.61H24.63v-127.61h79.53Zm-2.62,124.99v-17.22c-1.15-.34-2.36-.5-3.62-.5-7.86,0-14.25,6.39-14.25,14.25,0,1.21.16,2.36.45,3.46h17.43Zm0-19.94v-84.19c-1.15.26-2.38.39-3.62.39-9.3,0-16.88-7.57-16.88-16.88,0-.58.03-1.18.08-1.76h-34.62c.05.58.08,1.18.08,1.76,0,9.3-7.57,16.88-16.88,16.88-.84,0-1.65-.05-2.46-.18v83.77c.81-.13,1.62-.18,2.46-.18,9.3,0,16.88,7.57,16.88,16.88,0,1.18-.13,2.36-.37,3.46h35.19c-.24-1.1-.37-2.28-.37-3.46,0-9.3,7.57-16.88,16.88-16.88,1.23,0,2.46.13,3.62.39Zm0-86.89v-15.54h-17.74c-.1.58-.13,1.15-.13,1.76,0,7.86,6.39,14.25,14.25,14.25,1.26,0,2.46-.16,3.62-.47Zm-57.57-13.78c0-.6-.03-1.18-.13-1.76h-16.59v15.77c.81.16,1.62.24,2.46.24,7.86,0,14.25-6.39,14.25-14.25Zm-.45,120.62c.29-1.1.45-2.25.45-3.46,0-7.86-6.39-14.25-14.25-14.25-.84,0-1.65.08-2.46.24v17.48h16.27Z"/>
    <path class="cls-2" d="m101.54,232.33v17.22h-17.43c-.29-1.1-.45-2.25-.45-3.46,0-7.86,6.39-14.25,14.25-14.25,1.26,0,2.46.16,3.62.5Z"/>
    <path class="cls-1" d="m101.54,145.42v84.19c-1.15-.26-2.38-.39-3.62-.39-9.3,0-16.88,7.57-16.88,16.88,0,1.18.13,2.36.37,3.46h-35.19c.24-1.1.37-2.28.37-3.46,0-9.3-7.57-16.88-16.88-16.88-.84,0-1.65.05-2.46.18v-83.77c.81.13,1.62.18,2.46.18,9.3,0,16.88-7.57,16.88-16.88,0-.58-.03-1.18-.08-1.76h34.62c-.05.58-.08,1.18-.08,1.76,0,9.3,7.57,16.88,16.88,16.88,1.23,0,2.46-.13,3.62-.39Zm-13.86,45.2c0-11.53-9.38-20.88-20.88-20.88s-20.88,9.35-20.88,20.88,9.35,20.88,20.88,20.88,20.88-9.38,20.88-20.88Z"/>
    <path class="cls-2" d="m101.54,127.18v15.54c-1.15.31-2.36.47-3.62.47-7.86,0-14.25-6.39-14.25-14.25,0-.6.03-1.18.13-1.76h17.74Z"/>
    <path class="cls-1" d="m66.79,169.73c11.5,0,20.88,9.35,20.88,20.88s-9.38,20.88-20.88,20.88-20.88-9.38-20.88-20.88,9.35-20.88,20.88-20.88Zm18.26,20.88c0-10.06-8.2-18.26-18.26-18.26s-18.26,8.2-18.26,18.26,8.2,18.26,18.26,18.26,18.26-8.2,18.26-18.26Z"/>
    <circle class="cls-2" cx="66.79" cy="190.62" r="18.26"/>
    <path class="cls-2" d="m43.84,127.18c.1.58.13,1.15.13,1.76,0,7.86-6.39,14.25-14.25,14.25-.84,0-1.65-.08-2.46-.24v-15.77h16.59Z"/>
    <path class="cls-2" d="m43.97,246.09c0,1.21-.16,2.36-.45,3.46h-16.27v-17.48c.81-.16,1.62-.24,2.46-.24,7.86,0,14.25,6.39,14.25,14.25Z"/>
  </g>
  <g>
    <path class="cls-1" d="m492.9,299.62c-1.71-3.77-5.7-6.87-10-6.87-30.31,0-60.62-.01-90.93,0-5.05,0-9.71,4.13-10.38,9.1-.05.36.08.74-.14,1.07v60.82c.25,1.2.07,2.53.65,3.6,2.28,4.2,5.73,6.57,10.64,6.57,27.42,0,54.84,0,82.26,0,2.74,0,5.48.13,8.2-.03,4.42-.26,7.72-2.37,9.65-6.43.49-1.04.33-2.19.61-3.27v-61.03c-.22-1.17-.06-2.43-.55-3.51Zm-6.91,61.16c0,.33,0,.66-.01.98-.13,2.97-1.59,4.37-4.56,4.38-16.22,0-32.45,0-48.67,0h-39.04c-.84,0-1.67,0-2.46-.37-1.14-.53-1.85-1.39-2.14-2.6-.18-.75-.2-1.52-.2-2.28,0-11.37,0-22.75,0-34.12,0-1.93.04-1.97,1.95-1.97,15.53,0,31.06,0,46.59,0s30.99,0,46.48,0c2.06,0,2.06,0,2.06,2.08,0,11.3,0,22.6,0,33.9Zm-.01-51.1c0,.78-.4,1.12-1.16,1.1-.44-.01-.88,0-1.31,0h-92.53q-2.05,0-2.05-2.09c0-1.28-.04-2.55.03-3.83.16-2.7,1.66-4.13,4.36-4.13,29.42,0,58.85,0,88.27,0,2.65,0,4.19,1.4,4.36,4.02.11,1.63.03,3.28.04,4.92Zm-13.11,33.71c-2.75-1.95-5.81-2.14-8.75-.39-1.15.68-1.9.6-3.02-.04-2.91-1.67-5.92-1.51-8.66.4-2.7,1.87-3.95,4.58-3.44,7.86.95,6.18,7.39,9.04,12.72,5.69.72-.45,1.19-.4,1.84.03,1.36.91,2.86,1.43,4.53,1.38.61-.06,1.25-.04,1.84-.19,3.39-.86,5.53-3.01,6.24-6.43.71-3.45-.5-6.32-3.31-8.32Zm-49.1-8.96c-.44-.03-.87-.04-1.31-.04-3.57,0-7.13,0-10.7,0-3.82,0-7.64-.01-11.46,0-.85,0-1.88-.16-1.95,1.16-.04.86.62,1.25,2.02,1.26.04,0,.07,0,.11,0,7.42,0,14.85,0,22.27,0,.36,0,.73,0,1.09-.06.69-.14,1.11-.56,1.08-1.29-.02-.72-.5-1-1.16-1.05Z"/>
    <path class="cls-1" d="m424.92,335.47c.02.73-.39,1.15-1.08,1.29-.35.07-.72.06-1.09.06-7.43,0-14.85,0-22.27,0-.04,0-.07,0-.11,0-1.41-.02-2.07-.4-2.02-1.26.07-1.31,1.1-1.15,1.95-1.16,3.82-.02,7.64,0,11.46,0,3.57,0,7.13,0,10.7,0,.44,0,.87,0,1.31.04.65.04,1.13.32,1.16,1.05Z"/>
    <path class="cls-1" d="m476.18,351.7c-.7,3.42-2.85,5.57-6.24,6.43-.59.15-1.23.13-1.84.19-1.67.05-3.17-.46-4.53-1.38-.65-.44-1.13-.48-1.84-.03-5.33,3.35-11.77.48-12.72-5.69-.51-3.28.74-5.99,3.44-7.86,2.74-1.9,5.75-2.06,8.66-.4,1.12.64,1.87.72,3.02.04,2.94-1.74,6-1.56,8.75.39,2.82,2,4.02,4.87,3.31,8.32Z"/>
    <path class="cls-1" d="m476.18,351.7c-.7,3.42-2.85,5.57-6.24,6.43-.59.15-1.23.13-1.84.19-1.67.05-3.17-.46-4.53-1.38-.65-.44-1.13-.48-1.84-.03-5.33,3.35-11.77.48-12.72-5.69-.51-3.28.74-5.99,3.44-7.86,2.74-1.9,5.75-2.06,8.66-.4,1.12.64,1.87.72,3.02.04,2.94-1.74,6-1.56,8.75.39,2.82,2,4.02,4.87,3.31,8.32Z"/>
    <path class="cls-1" d="m424.92,335.47c.02.73-.39,1.15-1.08,1.29-.35.07-.72.06-1.09.06-7.43,0-14.85,0-22.27,0-.04,0-.07,0-.11,0-1.41-.02-2.07-.4-2.02-1.26.07-1.31,1.1-1.15,1.95-1.16,3.82-.02,7.64,0,11.46,0,3.57,0,7.13,0,10.7,0,.44,0,.87,0,1.31.04.65.04,1.13.32,1.16,1.05Z"/>
  </g>
</svg>