<?xml version="1.0" encoding="UTF-8"?>
<svg id="Layer_1" data-name="Layer 1" xmlns="http://www.w3.org/2000/svg" viewBox="0 0 512 512">
  <defs>
    <style>
      .cls-1, .cls-2 {
        stroke-width: 0px;
      }

      .cls-2 {
        fill: #fff;
      }
    </style>
  </defs>
  <g>
    <circle class="cls-1" cx="252.51" cy="156.6" r="69.77"/>
    <circle class="cls-1" cx="371.4" cy="205.72" r="49.12"/>
    <circle class="cls-1" cx="133.61" cy="205.72" r="49.12"/>
    <path class="cls-1" d="m207.39,243.95h91.87c23.39,0,42.38,18.99,42.38,42.38v138.84h-176.63v-138.84c0-23.39,18.99-42.38,42.38-42.38Z"/>
    <path class="cls-1" d="m145.89,269.95h0v155.22h-57.55c-16.77,0-30.38-13.61-30.38-30.38v-36.91c0-48.53,39.4-87.93,87.93-87.93Z"/>
    <path class="cls-1" d="m396.49,269.95h57.55v155.22h0c-48.53,0-87.93-39.4-87.93-87.93v-36.91c0-16.77,13.61-30.38,30.38-30.38Z" transform="translate(820.15 695.12) rotate(-180)"/>
  </g>
  <g>
    <path class="cls-2" d="m191.63,347.39c2.05,1.05,5.2,2.1,8.45,2.1,3.5,0,5.35-1.45,5.35-3.65s-1.6-3.3-5.65-4.75c-5.6-1.95-9.25-5.05-9.25-9.95,0-5.75,4.8-10.15,12.75-10.15,3.8,0,6.6.8,8.6,1.7l-1.7,6.15c-1.35-.65-3.75-1.6-7.05-1.6s-4.9,1.5-4.9,3.25c0,2.15,1.9,3.1,6.25,4.75,5.95,2.2,8.75,5.3,8.75,10.05,0,5.65-4.35,10.45-13.6,10.45-3.85,0-7.65-1-9.55-2.05l1.55-6.3Z"/>
    <path class="cls-2" d="m224.88,327.94h-9.05v-6.4h25.9v6.4h-9.2v27.3h-7.65v-27.3Z"/>
    <path class="cls-2" d="m250.03,346.59l-2.4,8.65h-7.9l10.3-33.7h10l10.45,33.7h-8.2l-2.6-8.65h-9.65Zm8.55-5.7l-2.1-7.15c-.6-2-1.2-4.5-1.7-6.5h-.1c-.5,2-1,4.55-1.55,6.5l-2,7.15h7.45Z"/>
    <path class="cls-2" d="m274.97,321.54h20.6v6.25h-12.95v7.7h12.1v6.2h-12.1v13.55h-7.65v-33.7Z"/>
    <path class="cls-2" d="m301.32,321.54h20.6v6.25h-12.95v7.7h12.1v6.2h-12.1v13.55h-7.65v-33.7Z"/>
  </g>
</svg>