<?xml version="1.0" encoding="UTF-8"?>
<svg id="Layer_1" data-name="Layer 1" xmlns="http://www.w3.org/2000/svg" viewBox="0 0 512 512">
  <defs>
    <style>
      .cls-1 {
        stroke-width: 0px;
      }
    </style>
  </defs>
  <g>
    <path class="cls-1" d="m173.37,212.45c-40,0-72.54-32.54-72.54-72.54s32.54-72.54,72.54-72.54,72.54,32.54,72.54,72.54-32.54,72.54-72.54,72.54Zm0-132.31c-32.96,0-59.77,26.81-59.77,59.77s26.81,59.77,59.77,59.77,59.77-26.81,59.77-59.77-26.81-59.77-59.77-59.77Z"/>
    <path class="cls-1" d="m197.82,238.75h-53.47c-53.87,0-97.71,43.84-97.71,97.71v118.56h248.89v-118.56c0-53.87-43.84-97.71-97.71-97.71Zm84.94,203.49H59.42v-105.78c0-46.82,38.09-84.94,84.94-84.94h10.83l5.52,7.25,7.74,10.19-24.6,80.42,24.96,49.12,2.27,4.47,2.27-4.47,24.96-49.12-24.6-80.42,7.77-10.19,5.52-7.25h10.83c46.82,0,84.94,38.11,84.94,84.94v105.78Z"/>
  </g>
  <g>
    <path class="cls-1" d="m318.32,56.99v103.69h147.04V56.99h-147.04Zm136.18,93.3h-125.32v-82.92h125.32v82.92Z"/>
    <polygon class="cls-1" points="345.57 132.71 341.44 123.11 438.46 84.94 442.59 94.54 345.57 132.71"/>
  </g>
</svg>