<?xml version="1.0" encoding="UTF-8"?>
<svg id="Layer_1" data-name="Layer 1" xmlns="http://www.w3.org/2000/svg" viewBox="0 0 512 512">
  <defs>
    <style>
      .cls-1 {
        stroke-width: 0px;
      }
    </style>
  </defs>
  <g>
    <path class="cls-1" d="m187.66,202.27c-44.09,0-79.96-35.87-79.96-79.96s35.87-79.96,79.96-79.96,79.96,35.87,79.96,79.96-35.87,79.96-79.96,79.96Zm0-145.85c-36.33,0-65.88,29.56-65.88,65.88s29.56,65.88,65.88,65.88,65.88-29.56,65.88-65.88-29.56-65.88-65.88-65.88Z"/>
    <path class="cls-1" d="m214.62,231.26h-58.94c-59.39,0-107.71,48.32-107.71,107.71v130.69h274.36v-130.69c0-59.39-48.32-107.71-107.71-107.71Zm93.63,224.32H62.05v-116.61c0-51.62,41.99-93.63,93.63-93.63h11.94l6.08,8,8.53,11.24-27.12,88.65,27.51,54.15,2.51,4.93,2.51-4.93,27.51-54.15-27.12-88.65,8.56-11.24,6.08-8h11.94c51.62,0,93.63,42.01,93.63,93.63v116.61Z"/>
  </g>
  <path class="cls-1" d="m337.39,238.64c.58-3.39,1.87-6.46,4.01-9.19,6.83-8.68,20.79-9,27.87-.53,5.19,6.21,6.01,13.07,2.57,20.4-.29.62-.17.91.36,1.28,3.65,2.53,7.3,5.07,10.92,7.64.59.42,1,.4,1.58-.01,11.07-7.78,22.16-15.52,33.23-23.3,6.61-4.64,14.88-3.79,20.35,2.15.16.17.29.36.45.53.61.61.54,1.03-.21,1.55-11.42,7.96-22.83,15.96-34.24,23.94-2.09,1.46-4.17,2.95-6.28,4.38-.68.46-.68.71,0,1.18,8.11,5.65,16.2,11.32,24.29,16.99,5.35,3.75,10.7,7.49,16.06,11.23,1.1.77,1.11.79.2,1.88-5.08,6.07-13.83,7.18-20.45,2.56-11.09-7.75-22.17-15.51-33.23-23.29-.72-.5-1.19-.53-1.91-.02-3.53,2.53-7.1,5.01-10.67,7.47-.6.41-.75.72-.4,1.43,5.58,11.25-1.26,24.44-13.64,26.34-9.7,1.49-18.93-5.18-20.69-14.96-.05-.26-.11-.52-.17-.77,0-1.59,0-3.18,0-4.78.05-.22.11-.45.16-.67.7-3.79,2.34-7.11,5.08-9.83,5.36-5.34,13.11-6.82,20.12-3.9.55.23.99.36,1.56-.04,4.6-3.25,9.22-6.48,13.84-9.7.59-.41.58-.66,0-1.07-4.63-3.22-9.24-6.45-13.85-9.7-.46-.33-.86-.36-1.37-.12-1.48.69-3.04,1.14-4.66,1.34-7.2.9-13-1.57-17.43-7.28-1.91-2.46-2.87-5.35-3.43-8.38v-4.78Zm18.21,11.69c4.99,0,9.3-3.83,9.3-9.28,0-5.17-3.92-9.22-9.3-9.3-5.09-.07-9.21,4.13-9.23,9.25-.03,5.17,4.08,9.32,9.23,9.33Zm-9.24,44.72c-.03,5.16,4.09,9.42,9.22,9.36,5.35-.06,9.31-4.09,9.32-9.28.01-5.39-4.22-9.24-9.19-9.29-5.17-.05-9.32,4.05-9.35,9.21Z"/>
  <g>
    <path class="cls-1" d="m463.44,351.75c-1.84-4.05-6.13-7.38-10.75-7.38-32.57,0-65.15-.01-97.72,0-5.43,0-10.43,4.44-11.16,9.78-.05.38.09.79-.15,1.15v65.36c.27,1.29.07,2.71.7,3.87,2.45,4.51,6.16,7.06,11.43,7.06,29.46,0,58.93,0,88.39,0,2.94,0,5.89.14,8.81-.03,4.75-.28,8.29-2.55,10.37-6.91.53-1.11.35-2.36.65-3.52v-65.59c-.23-1.26-.07-2.61-.59-3.78Zm-7.43,65.72c0,.35,0,.71-.01,1.06-.14,3.19-1.71,4.7-4.9,4.7-17.43,0-34.87,0-52.3,0h-41.96c-.9,0-1.79,0-2.65-.39-1.23-.56-1.98-1.49-2.3-2.79-.19-.81-.21-1.63-.21-2.45,0-12.22,0-24.45,0-36.67,0-2.08.04-2.12,2.09-2.12,16.69,0,33.38,0,50.07,0s33.3,0,49.95,0c2.21,0,2.22,0,2.22,2.23,0,12.14,0,24.29,0,36.43Zm-.01-54.91c0,.83-.43,1.21-1.25,1.19-.47-.01-.94,0-1.41,0h-99.44q-2.21,0-2.21-2.25c0-1.37-.04-2.74.04-4.11.17-2.9,1.79-4.44,4.69-4.44,31.62,0,63.24,0,94.86,0,2.85,0,4.51,1.51,4.69,4.32.11,1.76.04,3.53.04,5.29Zm-14.09,36.23c-2.95-2.09-6.24-2.3-9.4-.42-1.24.73-2.04.65-3.25-.04-3.13-1.79-6.36-1.62-9.31.43-2.9,2.01-4.24,4.92-3.7,8.45,1.03,6.64,7.94,9.71,13.67,6.12.77-.48,1.28-.44,1.98.04,1.46.98,3.08,1.54,4.87,1.48.66-.06,1.34-.04,1.98-.2,3.64-.92,5.95-3.23,6.7-6.91.76-3.71-.53-6.79-3.56-8.94Zm-52.76-9.63c-.47-.03-.94-.04-1.41-.04-3.83,0-7.67,0-11.5,0-4.11,0-8.21-.01-12.32,0-.91,0-2.02-.17-2.09,1.24-.04.92.66,1.34,2.18,1.36.04,0,.08,0,.12,0,7.98,0,15.96,0,23.94,0,.39,0,.79,0,1.17-.06.74-.15,1.19-.6,1.16-1.39-.02-.78-.54-1.08-1.24-1.12Z"/>
    <path class="cls-1" d="m390.39,390.28c.03.79-.42,1.24-1.16,1.39-.38.07-.78.06-1.17.06-7.98,0-15.96,0-23.94,0-.04,0-.08,0-.12,0-1.51-.02-2.22-.44-2.18-1.36.07-1.41,1.18-1.24,2.09-1.24,4.11-.02,8.21,0,12.32,0,3.83,0,7.67,0,11.5,0,.47,0,.94,0,1.41.04.7.04,1.22.35,1.24,1.12Z"/>
    <path class="cls-1" d="m445.47,407.73c-.76,3.68-3.06,5.99-6.7,6.91-.64.16-1.32.14-1.98.2-1.79.05-3.41-.5-4.87-1.48-.7-.47-1.21-.52-1.98-.04-5.73,3.6-12.65.52-13.67-6.12-.54-3.53.79-6.43,3.7-8.45,2.95-2.04,6.18-2.22,9.31-.43,1.2.69,2.01.77,3.25.04,3.16-1.87,6.45-1.67,9.4.42,3.03,2.15,4.32,5.23,3.56,8.94Z"/>
    <path class="cls-1" d="m445.47,407.73c-.76,3.68-3.06,5.99-6.7,6.91-.64.16-1.32.14-1.98.2-1.79.05-3.41-.5-4.87-1.48-.7-.47-1.21-.52-1.98-.04-5.73,3.6-12.65.52-13.67-6.12-.54-3.53.79-6.43,3.7-8.45,2.95-2.04,6.18-2.22,9.31-.43,1.2.69,2.01.77,3.25.04,3.16-1.87,6.45-1.67,9.4.42,3.03,2.15,4.32,5.23,3.56,8.94Z"/>
    <path class="cls-1" d="m390.39,390.28c.03.79-.42,1.24-1.16,1.39-.38.07-.78.06-1.17.06-7.98,0-15.96,0-23.94,0-.04,0-.08,0-.12,0-1.51-.02-2.22-.44-2.18-1.36.07-1.41,1.18-1.24,2.09-1.24,4.11-.02,8.21,0,12.32,0,3.83,0,7.67,0,11.5,0,.47,0,.94,0,1.41.04.7.04,1.22.35,1.24,1.12Z"/>
  </g>
</svg>