<?xml version="1.0" encoding="UTF-8"?>
<svg id="Layer_1" data-name="Layer 1" xmlns="http://www.w3.org/2000/svg" viewBox="0 0 512 512">
  <defs>
    <style>
      .cls-1 {
        stroke-width: 0px;
      }
    </style>
  </defs>
  <path class="cls-1" d="m426.56,326.06c-1.27-8.9-6.55-16.72-14.49-21.46-8.06-4.8-17.62-5.73-26.22-2.54-5.12,1.89-9.45,4.95-13.64,7.91-1.39.98-2.83,1.99-4.26,2.94-13.61,8.99-27.36,18.26-40.66,27.22l-8.31,5.6c-3.3-13.88-15.98-23.47-31.15-23.47-.07,0-.15.01-.22.01-17.24.1-34.77.09-51.73.07-9.46-.01-18.92-.02-28.38-.01h-.01c-1.54,0-2.7-.31-3.86-1.04-9.62-6.03-20.06-9.79-31.05-11.18-20.61-2.61-39.59,2.23-56.41,14.36-7.7,5.56-14.32,12.66-19.66,21.12-2.65-3.25-6.1-3.73-10.04-1.35-3.12,1.88-6.23,3.78-9.34,5.67-6.71,4.09-13.65,8.31-20.53,12.33-2.22,1.29-3.6,2.96-4.11,4.96-.53,2.11-.05,4.4,1.42,6.82,9.08,14.92,18.26,30.12,27.14,44.82l4.64,7.69c3.12,5.17,6.24,10.34,9.36,15.52,4.03,6.68,8.05,13.37,12.1,20.04,1.64,2.73,3.79,4.11,6.25,4.11,1.49,0,3.1-.51,4.79-1.52,9.77-5.9,19.54-11.77,29.32-17.64,1.87-1.12,4.1-2.74,4.72-5.26.47-1.91,0-3.94-1.58-6.56,5.15-2.29,11.26-4.6,17.75-4.66,14.5-.12,29.26-.1,43.53-.08,5.64.01,11.29.02,16.94.02l1.96-.02h15.12c14.25.01,28.49.01,42.73-.01,8.44-.02,16.19-2.09,23.04-6.15,7.94-4.72,15.67-10.01,23.14-15.13,3.23-2.21,6.57-4.49,9.87-6.69,9.56-6.38,19.11-12.78,28.65-19.18,12.41-8.32,25.25-16.92,37.91-25.33,12.01-7.98,17.14-18.72,15.27-31.93Zm-290.72,111.6c-1.95,1.18-3.9,2.35-5.85,3.52-4.6,2.77-9.36,5.62-14.02,8.49-.02-.04-.05-.08-.07-.12-9.45-15.7-18.91-31.39-28.38-47.09l-3.52-5.84c-4.87-8.07-9.9-16.43-14.91-24.61-.23-.36-.33-.58-.38-.71.1-.09.28-.23.59-.41,7.05-4.08,13.86-8.26,19-11.45.11-.07.2-.12.27-.15.06.07.13.18.22.32,12.35,20.6,24.89,41.41,36.68,60.97,2.2,3.66,4.42,7.3,6.64,10.95,1.22,2,2.44,4.01,3.66,6.01.03.04.05.08.07.12Zm269.73-92.84c-7.89,5.45-16,10.87-23.84,16.12-2.33,1.55-4.65,3.11-6.97,4.67-15.35,10.29-30.71,20.56-46.07,30.82l-3.31,2.21c-6.43,4.3-13.09,8.75-19.69,13.02-4.9,3.16-10.51,4.7-17.14,4.7-14.18.02-28.36.01-42.54.01h-16.36c-5.35,0-10.7.01-16.04.03-12.77.03-25.97.07-38.95-.09-10.68-.08-21,2.1-30.7,6.62-.27.12-.44.19-.55.22-.07-.09-.17-.23-.31-.45-13.56-22.62-25.79-42.89-37.38-61.95-.72-1.18-.73-1.83-.08-3,11.28-20.36,28.51-31.82,51.21-34.09,2.09-.21,4.16-.31,6.21-.31,12.44,0,24.34,3.8,35.45,11.35,2.28,1.54,4.67,1.74,6.5,1.74h.03c26.45-.02,54.9-.03,83.77,0,8.75.01,15.22,5.37,16.87,13.99.89,4.58-.4,9.41-3.53,13.24-3.11,3.82-7.55,6.03-12.19,6.09-7.09.09-14.3.07-21.28.05-3.09-.01-6.19-.01-9.28-.01h-9.4c-6.84,0-13.67,0-20.51.01-5.07,0-6.86,2.98-7.48,4.75-.64,1.83-.53,3.75.29,5.41.83,1.67,2.3,2.93,4.14,3.53,1.3.43,2.54.42,3.63.42h.39c5.56-.01,11.12,0,16.68.01,13.39.02,27.24.03,40.86-.04,14.3-.08,24.33-6.71,29.81-19.72.33-.77.84-1.34,1.78-1.96,18.07-12.11,36.15-24.22,54.22-36.34,1.51-1.01,3.01-2.04,4.51-3.07,2.89-1.98,5.89-4.03,8.89-5.92,4.89-3.07,10.66-3.52,15.84-1.25,5.06,2.21,8.55,6.63,9.57,12.12,1.33,7.17-1.04,12.92-7.05,17.07Z"/>
  <path class="cls-1" d="m268.37,263.9c-60.13,0-109.05-48.92-109.05-109.05s48.92-109.05,109.05-109.05,109.05,48.92,109.05,109.05-48.92,109.05-109.05,109.05Zm0-204.22c-52.47,0-95.17,42.69-95.17,95.17s42.69,95.16,95.17,95.16,95.17-42.69,95.17-95.16-42.69-95.17-95.17-95.17Z"/>
  <g>
    <path class="cls-1" d="m300.56,123l-50.25,73.38c-2.67,3.89-7.98,4.9-11.88,2.24h0s0,0,0,0c-3.9-2.67-4.9-8-2.23-11.9l50.24-73.38c2.67-3.9,8-4.9,11.9-2.23h0s0,0,0,0c3.9,2.67,4.9,8,2.22,11.9Z"/>
    <path class="cls-1" d="m237.04,144.43c-14.81,0-26.86-12.05-26.86-26.86s12.05-26.86,26.86-26.86,26.86,12.05,26.86,26.86-12.05,26.86-26.86,26.86Zm0-41.51c-8.07,0-14.64,6.57-14.64,14.64s6.57,14.64,14.64,14.64,14.64-6.57,14.64-14.64-6.57-14.64-14.64-14.64Z"/>
    <path class="cls-1" d="m301.26,218.27c-14.81,0-26.86-12.05-26.86-26.86s12.05-26.86,26.86-26.86,26.86,12.05,26.86,26.86-12.05,26.86-26.86,26.86Zm0-41.51c-8.07,0-14.64,6.57-14.64,14.64s6.57,14.64,14.64,14.64,14.64-6.57,14.64-14.64-6.57-14.64-14.64-14.64Z"/>
  </g>
</svg>