<?xml version="1.0" encoding="UTF-8"?>
<svg id="Layer_1" data-name="Layer 1" xmlns="http://www.w3.org/2000/svg" viewBox="0 0 512 512">
  <defs>
    <style>
      .cls-1 {
        stroke-width: 0px;
      }
    </style>
  </defs>
  <rect class="cls-1" x="440.27" y="236.08" width="8" height="148.64"/>
  <g>
    <g>
      <path class="cls-1" d="m247.21,165.94c0,2.18-1.77,3.95-3.94,3.95h-15.67c-5.06,0-9.17-4.12-9.17-9.18v-15.66c0-2.18,1.77-3.95,3.94-3.95s3.95,1.77,3.95,3.95v15.66c0,.71.57,1.28,1.28,1.28h15.67c2.17,0,3.94,1.77,3.94,3.95Z"/>
      <path class="cls-1" d="m299.44,145.05v15.67c0,5.05-4.11,9.17-9.17,9.17h-15.67c-2.17,0-3.95-1.77-3.95-3.95s1.78-3.95,3.95-3.95h15.67c.7,0,1.28-.57,1.28-1.27v-15.67c0-2.18,1.77-3.95,3.94-3.95s3.95,1.77,3.95,3.95Z"/>
      <path class="cls-1" d="m298.3,129.38c0,1.54-1.26,2.8-2.81,2.8h-73.12c-1.54,0-2.8-1.26-2.8-2.8s1.26-2.81,2.8-2.81h73.12c1.55,0,2.81,1.26,2.81,2.81Z"/>
      <path class="cls-1" d="m299.44,98.04v15.67c0,2.18-1.77,3.95-3.95,3.95s-3.94-1.77-3.94-3.95v-15.67c0-.7-.58-1.27-1.28-1.27h-15.67c-2.17,0-3.95-1.78-3.95-3.95s1.78-3.95,3.95-3.95h15.67c5.06,0,9.17,4.11,9.17,9.17Z"/>
      <path class="cls-1" d="m247.21,92.82c0,2.17-1.77,3.95-3.94,3.95h-15.67c-.71,0-1.28.57-1.28,1.27v15.67c0,2.18-1.77,3.95-3.95,3.95s-3.94-1.77-3.94-3.95v-15.67c0-5.06,4.11-9.17,9.17-9.17h15.67c2.17,0,3.94,1.77,3.94,3.95Z"/>
    </g>
    <rect class="cls-1" x="81.83" y="236.08" width="8" height="148.64"/>
    <path class="cls-1" d="m441.15,429.79v-19.2h-25.6v-213.18h11.44c4.32,0,8.11-2.61,9.66-6.65,1.55-4.03.47-8.51-2.75-11.4L268.41,30.67c-3.95-3.54-9.89-3.54-13.84,0L89.08,179.36c-3.22,2.89-4.3,7.37-2.75,11.4,1.55,4.04,5.34,6.65,9.66,6.65h17.84v213.18h-28.2v19.2h-37.23v49.96h419.07v-49.96h-26.32ZM95.99,189.41c-1.46,0-2.02-1.06-2.19-1.51-.17-.45-.46-1.61.62-2.59L259.92,36.62c.45-.4,1.01-.6,1.57-.6s1.12.2,1.57.6l165.5,148.69c1.08.98.79,2.14.62,2.59-.17.45-.73,1.51-2.19,1.51H95.99Zm311.56,8v213.18h-42.49v-213.18h42.49Zm-104.37,183.31v-76.63h-17.87v-32.81h-11.2v-12.62h-18.66v12.62h-11.21v32.81h-18.4v76.63h-18.67v29.87h-34.84v-176.2h184.73v176.2h-35.74v-29.87h-18.14Zm10.14,8v21.87h-98.15v-21.87h98.15Zm-79.48-8v-68.63h61.34v68.63h-61.34Zm-61.51-154.33v-28.98h184.73v28.98h-184.73Zm-50.5-28.98h42.5v213.18h-42.5v-213.18Zm-28.2,221.18h339.52v11.2H93.63v-11.2Zm365.84,53.16H56.4v-33.96h403.07v33.96Z"/>
  </g>
</svg>