<?xml version="1.0" encoding="UTF-8"?>
<svg id="Layer_1" data-name="Layer 1" xmlns="http://www.w3.org/2000/svg" viewBox="0 0 512 512">
  <defs>
    <style>
      .cls-1 {
        stroke-width: 0px;
      }
    </style>
  </defs>
  <path class="cls-1" d="m276.72,89.1v35.61c0,13.09-10.61,23.73-23.73,23.73h-109.57c-13.12,0-23.73-10.64-23.73-23.73v-35.61c0-6.93,5.61-12.58,12.54-12.58h25.77c8.64-19.61,26.75-31.35,45.09-29.27,15.35,1.75,28.9,12.98,35.87,29.27h25.19c6.96,0,12.58,5.65,12.58,12.58Z"/>
  <path class="cls-1" d="m292.61,97.84v33.21c0,20.89-12.65,37.87-28.29,37.87h-130.53c-15.64,0-28.25-16.99-28.25-37.87v-33.32c-32.77,0-59.34,26.57-59.34,59.3v198.94c0,32.77,26.57,59.34,59.34,59.34h118.28l-.33-11.12c-.07-1.93.66-3.79,1.93-5.18l42.17-44.69H113.57c-8.86,0-16.04-7.18-16.04-16.04,0-4.41,1.79-8.46,4.7-11.37,2.92-2.88,6.93-4.7,11.34-4.7h163.81c5.69,0,10.68,2.99,13.52,7.44l57.55-60.94v-111.68c0-31.57-24.71-57.41-55.84-59.19Zm-2.04,195.96c-2.88,2.92-6.89,4.7-11.34,4.7H115.43c-8.86,0-16.04-7.18-16.04-16.04,0-4.41,1.79-8.46,4.7-11.37,2.88-2.88,6.89-4.7,11.34-4.7h163.81c8.86,0,16.04,7.22,16.04,16.07,0,4.41-1.79,8.42-4.7,11.34Zm.8-58.14c-2.88,2.88-6.89,4.7-11.34,4.7H116.23c-8.86,0-16.04-7.22-16.04-16.07,0-4.41,1.79-8.42,4.7-11.34,2.88-2.92,6.89-4.7,11.34-4.7h163.81c8.86,0,16.04,7.18,16.04,16.04,0,4.41-1.79,8.46-4.7,11.37Z"/>
  <path class="cls-1" d="m456.9,321.2l-128.64,137.98c-2.15,2.3-5.12,3.66-8.27,3.77l-56.88,2.02c-2.06.07-3.78-1.58-3.78-3.64v-59.31c0-1.62.64-3.17,1.79-4.31l135.84-135.84c12.52-12.52,32.83-12.52,45.36,0l6.85,6.85,6.08,5.67c13.39,12.47,14.13,33.43,1.65,46.81Z"/>
</svg>