<?xml version="1.0" encoding="UTF-8"?>
<svg id="Layer_1" data-name="Layer 1" xmlns="http://www.w3.org/2000/svg" viewBox="0 0 512 512">
  <defs>
    <style>
      .cls-1 {
        stroke-width: 0px;
      }
    </style>
  </defs>
  <circle class="cls-1" cx="253.62" cy="245.54" r="54.46"/>
  <circle class="cls-1" cx="400.94" cy="241.53" r="45.98"/>
  <circle class="cls-1" cx="106.3" cy="245.54" r="45.98"/>
  <path class="cls-1" d="m253.62,337.21h0c53.96,0,97.76,43.81,97.76,97.76v14.73h-195.53v-14.73c0-53.96,43.81-97.76,97.76-97.76Z"/>
  <path class="cls-1" d="m401.53,304.47h0c44.1,0,79.91,35.81,79.91,79.91v17.86h-159.82v-17.86c0-44.1,35.81-79.91,79.91-79.91Z"/>
  <path class="cls-1" d="m110.47,304.47h0c44.1,0,79.91,35.81,79.91,79.91v17.86H30.56v-17.86c0-44.1,35.81-79.91,79.91-79.91Z"/>
  <g>
    <path class="cls-1" d="m255.96,142.27h-.02c-3.21,0-5.82-2.61-5.82-5.82v-26.92l5.34-.45c4.11-.35,14.54-2.06,22.44-10.43,1.37-1.45,13.25-14.63,7.71-29.5-4.5-12.08-17.37-18.03-27.7-17.77-11.58.35-25.45,6.29-29.25,21.57-.7,2.81-3.32,4.71-6.2,4.44h0c-3.52-.33-5.98-3.71-5.12-7.14,4.48-17.92,19.92-29.91,40.23-30.52,17.14-.52,33.21,9.91,38.97,25.35,8.01,21.48-8.27,39.59-10.15,41.58-8.06,8.53-17.91,11.92-24.6,13.27v16.53c0,3.21-2.61,5.82-5.82,5.82Z"/>
    <rect class="cls-1" x="250.1" y="157.15" width="14.73" height="14.73" rx="4.94" ry="4.94"/>
  </g>
  <g>
    <path class="cls-1" d="m404.89,126.73h0c-1.69,0-3.06-1.37-3.06-3.06v-14.13l2.8-.24c2.16-.18,7.63-1.08,11.78-5.47.72-.76,6.96-7.68,4.04-15.49-2.36-6.34-9.12-9.46-14.54-9.33-6.08.18-13.36,3.3-15.36,11.33-.37,1.47-1.74,2.47-3.25,2.33h0c-1.83-.17-3.14-1.93-2.7-3.72,2.34-9.42,10.45-15.73,21.12-16.05,9-.27,17.43,5.2,20.45,13.31,4.21,11.27-4.34,20.78-5.33,21.83-4.23,4.48-9.4,6.26-12.91,6.97v8.67c0,1.69-1.37,3.06-3.06,3.06Z"/>
    <rect class="cls-1" x="401.82" y="134.54" width="7.73" height="7.73" rx="2.38" ry="2.38"/>
  </g>
  <g>
    <path class="cls-1" d="m109.67,126.73h0c-1.69,0-3.06-1.37-3.06-3.06v-14.13l2.8-.24c2.16-.18,7.63-1.08,11.78-5.47.72-.76,6.96-7.68,4.04-15.49-2.36-6.34-9.12-9.46-14.54-9.33-6.08.18-13.36,3.3-15.36,11.33-.37,1.47-1.74,2.47-3.25,2.33h0c-1.83-.17-3.14-1.93-2.7-3.72,2.34-9.42,10.45-15.73,21.12-16.05,9-.27,17.43,5.2,20.45,13.31,4.21,11.27-4.34,20.78-5.33,21.83-4.23,4.48-9.4,6.26-12.91,6.97v8.67c0,1.69-1.37,3.06-3.06,3.06Z"/>
    <rect class="cls-1" x="106.6" y="134.54" width="7.73" height="7.73" rx="2.98" ry="2.98"/>
  </g>
</svg>