<?xml version="1.0" encoding="UTF-8"?>
<svg id="Layer_1" data-name="Layer 1" xmlns="http://www.w3.org/2000/svg" viewBox="0 0 512 512">
  <defs>
    <style>
      .cls-1 {
        fill: #1d1d1b;
        stroke-width: 0px;
      }
    </style>
  </defs>
  <g>
    <path class="cls-1" d="m282.88,487.32H86.75c-22.68,0-41.13-18.45-41.13-41.13V76.52c0-22.68,18.45-41.13,41.13-41.13h196.12c22.68,0,41.13,18.45,41.13,41.13v369.67c0,22.68-18.45,41.13-41.13,41.13ZM86.75,46.05c-16.8,0-30.47,13.67-30.47,30.47v369.67c0,16.8,13.67,30.47,30.47,30.47h196.12c16.8,0,30.47-13.67,30.47-30.47V76.52c0-16.8-13.67-30.47-30.47-30.47H86.75Z"/>
    <rect class="cls-1" x="85.98" y="86.83" width="197.68" height="14.59"/>
    <rect class="cls-1" x="85.98" y="123.3" width="197.68" height="14.59"/>
    <g>
      <rect class="cls-1" x="82.86" y="166.21" width="95.73" height="26.27" rx="8.62" ry="8.62"/>
      <rect class="cls-1" x="191.04" y="166.21" width="95.73" height="26.27" rx="8.62" ry="8.62"/>
    </g>
    <g>
      <path class="cls-1" d="m149.95,290.47v5.81h13.34c3.81,0,6.92,3.54,6.92,7.92,0,2.18-.78,4.18-2.03,5.6-1.25,1.44-2.97,2.33-4.88,2.33h-69.07c-3.81,0-6.9-3.56-6.9-7.93,0-2.18.77-4.16,2.02-5.6,1.25-1.42,2.97-2.32,4.88-2.32h13.34v-5.81h-20.24v-69.68h82.89v69.68h-20.26Z"/>
      <path class="cls-1" d="m262.05,290.47v5.81h13.34c3.81,0,6.92,3.54,6.92,7.92,0,2.18-.78,4.18-2.03,5.6-1.25,1.44-2.97,2.33-4.88,2.33h-69.07c-3.81,0-6.9-3.56-6.9-7.93,0-2.18.77-4.16,2.02-5.6,1.25-1.42,2.97-2.32,4.88-2.32h13.34v-5.81h-20.24v-69.68h82.89v69.68h-20.26Z"/>
    </g>
    <g>
      <path class="cls-1" d="m149.95,407.79v5.81h13.34c3.81,0,6.92,3.54,6.92,7.92,0,2.18-.78,4.18-2.03,5.6-1.25,1.44-2.97,2.33-4.88,2.33h-69.07c-3.81,0-6.9-3.56-6.9-7.93,0-2.18.77-4.16,2.02-5.6,1.25-1.42,2.97-2.32,4.88-2.32h13.34v-5.81h-20.24v-69.68h82.89v69.68h-20.26Z"/>
      <path class="cls-1" d="m262.05,407.79v5.81h13.34c3.81,0,6.92,3.54,6.92,7.92,0,2.18-.78,4.18-2.03,5.6-1.25,1.44-2.97,2.33-4.88,2.33h-69.07c-3.81,0-6.9-3.56-6.9-7.93,0-2.18.77-4.16,2.02-5.6,1.25-1.42,2.97-2.32,4.88-2.32h13.34v-5.81h-20.24v-69.68h82.89v69.68h-20.26Z"/>
    </g>
  </g>
  <path class="cls-1" d="m459.6,82.09c-4.37-2.8-6.78-7.54-6.78-12.41,0-2.36.57-4.75,1.76-6.97,5.5-10.27-2.4-21.76-12.89-21.76-1.56,0-3.18.26-4.84.81-1.56.53-3.16.79-4.73.79-5.75,0-11.17-3.38-13.55-8.94-2.57-5.98-8.05-8.94-13.54-8.94-5.78,0-11.55,3.28-13.89,9.74-2.16,5.97-7.78,9.74-13.86,9.74-1.29,0-2.61-.17-3.91-.53-10.05-2.76-18.7,5.2-18.7,14.25,0,2.54.69,5.18,2.23,7.7,1.47,2.4,2.18,5.07,2.18,7.71,0,4.57-2.13,9.05-6.07,11.92-4.17,3.04-6.08,7.45-6.08,11.82,0,6.92,4.81,13.73,12.96,14.73,7.42.91,12.95,7.21,12.95,14.62,0,.23,0,.44-.01.67-.4,9.17,7.04,15.42,14.83,15.42,3.58,0,7.22-1.31,10.22-4.25,5.5-5.38,14.21-5.64,20.02-.57,9.67,8.42,24.44,1.33,24.44-11.01,0-.53-.03-1.07-.09-1.61-.06-.51-.07-1.01-.07-1.51,0-7.04,5.03-13.21,12.09-14.51,7.74-1.41,12.11-7.97,12.11-14.61,0-4.64-2.14-9.32-6.78-12.31Zm-52.94,23.81c-12.34,0-22.33-9.99-22.33-22.33s9.99-22.33,22.33-22.33,22.33,9.99,22.33,22.33-10.01,22.33-22.33,22.33Z"/>
</svg>