<?xml version="1.0" encoding="UTF-8"?>
<svg id="Layer_1" data-name="Layer 1" xmlns="http://www.w3.org/2000/svg" viewBox="0 0 512 512">
  <defs>
    <style>
      .cls-1 {
        stroke-width: 0px;
      }
    </style>
  </defs>
  <circle class="cls-1" cx="235.16" cy="197.94" r="69.77"/>
  <circle class="cls-1" cx="354.05" cy="247.06" r="49.12"/>
  <circle class="cls-1" cx="116.27" cy="247.06" r="49.12"/>
  <path class="cls-1" d="m190.05,280.71h91.87c23.39,0,42.38,18.99,42.38,42.38v138.84h-176.63v-138.84c0-23.39,18.99-42.38,42.38-42.38h0Z"/>
  <path class="cls-1" d="m79.68,311.29h48.87v155.22h-57.55c-16.77,0-30.38-13.61-30.38-30.38v-85.77c0-21.56,17.5-39.06,39.06-39.06h0Z"/>
  <path class="cls-1" d="m406.31,466.51h-57.55v-155.22h48.87c21.56,0,39.06,17.5,39.06,39.06v85.77c0,16.77-13.61,30.38-30.38,30.38h0Z"/>
  <path class="cls-1" d="m464.27,105.7c-4.58-2.94-7.11-7.91-7.11-13.01,0-2.47.6-4.99,1.84-7.31,5.77-10.77-2.52-22.82-13.52-22.82-1.63,0-3.34.27-5.08.85-1.63.55-3.31.82-4.96.82-6.03,0-11.71-3.55-14.21-9.37-2.7-6.27-8.45-9.37-14.2-9.37-6.06,0-12.11,3.44-14.57,10.21-2.26,6.26-8.16,10.21-14.54,10.21-1.35,0-2.74-.18-4.1-.55-10.54-2.89-19.62,5.45-19.62,14.94,0,2.67.72,5.44,2.34,8.07,1.54,2.52,2.29,5.32,2.29,8.09,0,4.79-2.23,9.49-6.36,12.5-4.37,3.19-6.38,7.82-6.38,12.4,0,7.26,5.05,14.4,13.6,15.45,7.79.96,13.58,7.56,13.58,15.33,0,.24,0,.46-.01.7-.42,9.61,7.38,16.17,15.56,16.17,3.76,0,7.58-1.38,10.72-4.46,5.77-5.65,14.9-5.92,20.99-.6,10.14,8.84,25.64,1.39,25.64-11.55,0-.55-.03-1.12-.09-1.69-.06-.54-.07-1.06-.07-1.59,0-7.38,5.27-13.85,12.68-15.21,8.12-1.48,12.7-8.36,12.7-15.32,0-4.87-2.25-9.78-7.11-12.91v.02Zm-55.52,24.98c-12.94,0-23.42-10.48-23.42-23.42s10.48-23.42,23.42-23.42,23.42,10.48,23.42,23.42-10.5,23.42-23.42,23.42Z"/>
</svg>