<?xml version="1.0" encoding="UTF-8"?>
<svg id="Layer_1" data-name="Layer 1" xmlns="http://www.w3.org/2000/svg" viewBox="0 0 512 512">
  <defs>
    <style>
      .cls-1, .cls-2 {
        stroke-width: 0px;
      }

      .cls-2 {
        fill: #fff;
      }
    </style>
  </defs>
  <circle class="cls-1" cx="235.16" cy="197.94" r="69.77"/>
  <circle class="cls-1" cx="354.05" cy="247.06" r="49.12"/>
  <circle class="cls-1" cx="116.27" cy="247.06" r="49.12"/>
  <path class="cls-1" d="m190.05,280.71h91.87c23.39,0,42.38,18.99,42.38,42.38v138.84h-176.63v-138.84c0-23.39,18.99-42.38,42.38-42.38Z"/>
  <path class="cls-1" d="m128.55,311.29h0v155.22h-57.55c-16.77,0-30.38-13.61-30.38-30.38v-36.91c0-48.53,39.4-87.93,87.93-87.93Z"/>
  <path class="cls-1" d="m379.15,311.29h57.55v155.22h0c-48.53,0-87.93-39.4-87.93-87.93v-36.91c0-16.77,13.61-30.38,30.38-30.38Z" transform="translate(785.46 777.8) rotate(-180)"/>
  <path class="cls-1" d="m464.27,105.7c-4.58-2.94-7.11-7.91-7.11-13.01,0-2.47.6-4.99,1.84-7.31,5.77-10.77-2.52-22.82-13.52-22.82-1.63,0-3.34.27-5.08.85-1.63.55-3.31.82-4.96.82-6.03,0-11.71-3.55-14.21-9.37-2.7-6.27-8.45-9.37-14.2-9.37-6.06,0-12.11,3.44-14.57,10.21-2.26,6.26-8.16,10.21-14.54,10.21-1.35,0-2.74-.18-4.1-.55-10.54-2.89-19.62,5.45-19.62,14.94,0,2.67.72,5.44,2.34,8.07,1.54,2.52,2.29,5.32,2.29,8.09,0,4.79-2.23,9.49-6.36,12.5-4.37,3.19-6.38,7.82-6.38,12.4,0,7.26,5.05,14.4,13.6,15.45,7.79.96,13.58,7.56,13.58,15.33,0,.24,0,.46-.01.7-.42,9.61,7.38,16.17,15.56,16.17,3.76,0,7.58-1.38,10.72-4.46,5.77-5.65,14.9-5.92,20.99-.6,10.14,8.84,25.64,1.39,25.64-11.55,0-.55-.03-1.12-.09-1.69-.06-.54-.07-1.06-.07-1.59,0-7.38,5.27-13.85,12.68-15.21,8.12-1.48,12.7-8.36,12.7-15.32,0-4.87-2.25-9.78-7.11-12.91Zm-55.52,24.98c-12.94,0-23.42-10.48-23.42-23.42s10.48-23.42,23.42-23.42,23.42,10.48,23.42,23.42-10.5,23.42-23.42,23.42Z"/>
  <g>
    <path class="cls-2" d="m200.28,345.53h7.17v51.15h-7.17v-51.15Zm3.13,22.71h17.44c1.36,0,2.57-.33,3.62-.98,1.05-.66,1.87-1.59,2.44-2.79.57-1.21.86-2.6.86-4.17s-.29-2.96-.86-4.17c-.57-1.21-1.38-2.14-2.43-2.79-1.04-.66-2.26-.98-3.64-.98h-17.44v-6.82h17.16c2.95,0,5.55.61,7.79,1.83,2.24,1.22,3.97,2.95,5.2,5.19,1.23,2.24,1.85,4.82,1.85,7.75s-.62,5.51-1.86,7.75c-1.24,2.24-2.98,3.97-5.22,5.19-2.24,1.22-4.82,1.83-7.75,1.83h-17.16v-6.82Zm13.92,5.24l7.14-1.62,13.08,24.82h-8.51l-11.71-23.2Z"/>
    <path class="cls-2" d="m245.45,360.19h7.17v51.33h-7.17v-51.33Zm10.41,35.38c-1.69-1.09-2.93-2.63-3.73-4.62l.49-7.63c0,1.57.28,2.91.84,4.01.56,1.1,1.38,1.95,2.44,2.53,1.07.59,2.36.88,3.88.88,2.37,0,4.2-.72,5.5-2.16s1.95-3.47,1.95-6.1v-7.91c0-2.67-.65-4.75-1.95-6.22s-3.13-2.21-5.5-2.21c-1.52,0-2.82.28-3.88.84-1.07.56-1.88,1.39-2.44,2.48s-.84,2.4-.84,3.92l-.74-7.03c1.1-2.13,2.54-3.78,4.32-4.94,1.78-1.16,3.76-1.74,5.94-1.74,2.58,0,4.79.58,6.63,1.74,1.84,1.16,3.24,2.85,4.2,5.08.96,2.23,1.44,4.91,1.44,8.05v7.95c0,3.09-.49,5.74-1.48,7.95-.98,2.2-2.43,3.88-4.32,5.04s-4.17,1.74-6.82,1.74c-2.27,0-4.25-.54-5.94-1.63Z"/>
  </g>
</svg>