<?xml version="1.0" encoding="UTF-8"?>
<svg id="Layer_1" data-name="Layer 1" xmlns="http://www.w3.org/2000/svg" viewBox="0 0 512 512">
  <defs>
    <style>
      .cls-1, .cls-2 {
        stroke-width: 0px;
      }

      .cls-2 {
        fill: #fff;
      }
    </style>
  </defs>
  <rect class="cls-1" x="119.98" y="30.14" width="272.04" height="451.72" rx="52.28" ry="52.28"/>
  <g>
    <rect class="cls-2" x="161.21" y="95.63" width="189.57" height="30.6" rx="10.47" ry="10.47"/>
    <g>
      <rect class="cls-2" x="158.23" y="170.26" width="91.8" height="30.6" rx="10.47" ry="10.47"/>
      <rect class="cls-2" x="261.97" y="170.26" width="91.8" height="30.6" rx="10.47" ry="10.47"/>
    </g>
    <g>
      <path class="cls-2" d="m226.97,292.67v5.61h14.78c4.22,0,7.66,3.42,7.66,7.64,0,2.1-.86,4.03-2.25,5.41-1.39,1.39-3.29,2.25-5.41,2.25h-76.5c-4.22,0-7.64-3.43-7.64-7.66,0-2.1.85-4.02,2.24-5.41,1.39-1.37,3.29-2.24,5.41-2.24h14.78v-5.61h-22.42v-67.26h91.8v67.26h-22.44Z"/>
      <path class="cls-2" d="m331.97,292.67v5.61h14.78c4.22,0,7.64,3.42,7.64,7.64,0,2.1-.85,4.03-2.24,5.41-1.39,1.39-3.29,2.25-5.41,2.25h-76.5c-4.22,0-7.64-3.43-7.64-7.66,0-2.1.85-4.02,2.24-5.41,1.39-1.37,3.29-2.24,5.41-2.24h14.78v-5.61h-22.42v-67.26h91.79v67.26h-22.42Z"/>
    </g>
    <g>
      <path class="cls-2" d="m226.97,405.38v5.61h14.78c4.22,0,7.66,3.42,7.66,7.64,0,2.1-.86,4.02-2.25,5.41-1.39,1.37-3.29,2.24-5.41,2.24h-76.5c-4.22,0-7.64-3.42-7.64-7.64,0-2.1.85-4.02,2.24-5.41,1.39-1.37,3.29-2.24,5.41-2.24h14.78v-5.61h-22.42v-67.28h91.8v67.28h-22.44Z"/>
      <path class="cls-2" d="m331.97,405.38v5.61h14.78c4.22,0,7.64,3.42,7.64,7.64,0,2.1-.85,4.02-2.24,5.41-1.39,1.37-3.29,2.24-5.41,2.24h-76.5c-4.22,0-7.64-3.42-7.64-7.64,0-2.1.85-4.02,2.24-5.41,1.39-1.37,3.29-2.24,5.41-2.24h14.78v-5.61h-22.42v-67.28h91.79v67.28h-22.42Z"/>
    </g>
  </g>
</svg>