<?xml version="1.0" encoding="UTF-8"?>
<svg id="Layer_1" data-name="Layer 1" xmlns="http://www.w3.org/2000/svg" viewBox="0 0 512 512">
  <defs>
    <style>
      .cls-1 {
        stroke-width: 0px;
      }
    </style>
  </defs>
  <g>
    <path class="cls-1" d="m248.91,304.42c-50.64-3.54-91.67-44.57-95.2-95.21-4.19-60,43.43-110.15,102.55-110.15,14.32,0,28.47,2.99,41.47,8.71,5.34,2.35,7.39,8.89,4.48,13.96h0c-2.52,4.38-7.92,6.16-12.55,4.12-10.47-4.6-21.86-7-33.4-7-47.73,0-86.19,40.5-82.8,88.94,2.86,40.89,35.98,74.02,76.87,76.88,45.4,3.17,83.82-30.4,88.47-73.92.54-5.04,4.76-8.88,9.83-8.88h0c5.87,0,10.48,5.09,9.87,10.92-5.72,53.94-53.33,95.56-109.58,91.63Z"/>
    <path class="cls-1" d="m251.26,230.1l-26.82-30.08c-3.64-4.08-3.28-10.34.8-13.98h0c4.08-3.64,10.34-3.28,13.98.8l19.9,22.32,77.87-85.64c3.68-4.04,9.94-4.34,13.98-.66h0c4.04,3.68,4.34,9.94.66,13.98l-84.87,93.33c-4.17,4.58-11.38,4.55-15.5-.08Z"/>
  </g>
  <g>
    <path class="cls-1" d="m74.95,400.84l-21.42,11.71c-2.37,1.29-5.17-.75-4.68-3.4l4.51-23.99c.2-1.07-.16-2.17-.95-2.92l-17.75-16.76c-1.96-1.85-.89-5.15,1.79-5.5l24.21-3.12c1.08-.14,2.01-.82,2.48-1.8l10.45-22.06c1.15-2.44,4.62-2.44,5.78,0l10.45,22.06c.47.98,1.4,1.66,2.48,1.8l24.21,3.12c2.68.34,3.75,3.64,1.79,5.5l-17.75,16.76c-.79.75-1.15,1.85-.95,2.92l4.51,23.99c.5,2.65-2.31,4.69-4.68,3.4l-21.42-11.71c-.96-.52-2.11-.52-3.07,0Z"/>
    <path class="cls-1" d="m164.71,400.84l-21.42,11.71c-2.37,1.29-5.17-.75-4.68-3.4l4.51-23.99c.2-1.07-.16-2.17-.95-2.92l-17.75-16.76c-1.96-1.85-.89-5.15,1.79-5.5l24.21-3.12c1.08-.14,2.01-.82,2.48-1.8l10.45-22.06c1.15-2.44,4.62-2.44,5.78,0l10.45,22.06c.47.98,1.4,1.66,2.48,1.8l24.21,3.12c2.68.34,3.75,3.64,1.79,5.5l-17.75,16.76c-.79.75-1.15,1.85-.95,2.92l4.51,23.99c.5,2.65-2.31,4.69-4.68,3.4l-21.42-11.71c-.96-.52-2.11-.52-3.07,0Z"/>
    <path class="cls-1" d="m254.47,400.84l-21.42,11.71c-2.37,1.29-5.17-.75-4.68-3.4l4.51-23.99c.2-1.07-.16-2.17-.95-2.92l-17.75-16.76c-1.96-1.85-.89-5.15,1.79-5.5l24.21-3.12c1.08-.14,2.01-.82,2.48-1.8l10.45-22.06c1.15-2.44,4.62-2.44,5.78,0l10.45,22.06c.47.98,1.4,1.66,2.48,1.8l24.21,3.12c2.68.34,3.75,3.64,1.79,5.5l-17.75,16.76c-.79.75-1.15,1.85-.95,2.92l4.51,23.99c.5,2.65-2.31,4.69-4.68,3.4l-21.42-11.71c-.96-.52-2.11-.52-3.07,0Z"/>
    <path class="cls-1" d="m344.23,400.84l-21.42,11.71c-2.37,1.29-5.17-.75-4.68-3.4l4.51-23.99c.2-1.07-.16-2.17-.95-2.92l-17.75-16.76c-1.96-1.85-.89-5.15,1.79-5.5l24.21-3.12c1.08-.14,2.01-.82,2.48-1.8l10.45-22.06c1.15-2.44,4.62-2.44,5.78,0l10.45,22.06c.47.98,1.4,1.66,2.48,1.8l24.21,3.12c2.68.34,3.75,3.64,1.79,5.5l-17.75,16.76c-.79.75-1.15,1.85-.95,2.92l4.51,23.99c.5,2.65-2.31,4.69-4.68,3.4l-21.42-11.71c-.96-.52-2.11-.52-3.07,0Z"/>
    <path class="cls-1" d="m433.99,400.84l-21.42,11.71c-2.37,1.29-5.17-.75-4.68-3.4l4.51-23.99c.2-1.07-.16-2.17-.95-2.92l-17.75-16.76c-1.96-1.85-.89-5.15,1.79-5.5l24.21-3.12c1.08-.14,2.01-.82,2.48-1.8l10.45-22.06c1.15-2.44,4.62-2.44,5.78,0l10.45,22.06c.47.98,1.4,1.66,2.48,1.8l24.21,3.12c2.68.34,3.75,3.64,1.79,5.5l-17.75,16.76c-.79.75-1.15,1.85-.95,2.92l4.51,23.99c.5,2.65-2.31,4.69-4.68,3.4l-21.42-11.71c-.96-.52-2.11-.52-3.07,0Z"/>
  </g>
</svg>