<?xml version="1.0" encoding="UTF-8"?>
<svg id="Layer_1" data-name="Layer 1" xmlns="http://www.w3.org/2000/svg" viewBox="0 0 512 512">
  <defs>
    <style>
      .cls-1 {
        fill: #1d1d1b;
        stroke-width: 0px;
      }
    </style>
  </defs>
  <path class="cls-1" d="m191.53,103.69h-.07l3.25,5.99c.09-.04,1.52-.8,4.14-1.93,0-.37,0-.73.01-1.08-1.9-1.84-4.49-2.97-7.34-2.97Zm126.53,0c-1.92,0-3.73.52-5.29,1.43.04.94.07,1.89.09,2.85,1.66.62,3.34,1.28,5.02,1.96l2.44-5.99c-.73-.16-1.49-.25-2.26-.25Zm-126.53,0h-.07l3.25,5.99c.09-.04,1.52-.8,4.14-1.93,0-.37,0-.73.01-1.08-1.9-1.84-4.49-2.97-7.34-2.97Zm126.53,0c-1.92,0-3.73.52-5.29,1.43.04.94.07,1.89.09,2.85,1.66.62,3.34,1.28,5.02,1.96l2.44-5.99c-.73-.16-1.49-.25-2.26-.25Zm-.18,6.24l2.44-5.99c-.73-.16-1.49-.25-2.26-.25-1.92,0-3.73.52-5.29,1.43.04.94.07,1.89.09,2.85,1.66.62,3.34,1.28,5.02,1.96Zm.18,14.99c-2.47,0-4.75-.85-6.55-2.29-.7,3.58-1.65,7.09-2.84,10.46-4.9,13.95-13.77,25.88-24.74,33.57-4.66,3.3-9.72,5.81-15,7.38-4.17,1.25-8.5,1.92-12.89,1.92-2.5,0-4.96-.21-7.4-.62-8.97-1.5-17.43-5.66-24.73-11.75-9.42-7.86-16.94-18.88-21.18-31.51-1.23-3.62-2.18-7.38-2.84-11.25-1.93,2.48-4.96,4.09-8.35,4.09-.51,0-1-.03-1.47-.12.71,3.58,1.65,7.07,2.81,10.47,3.92,11.57,10.28,22,18.24,30.37,2.97,3.1,6.15,5.94,9.52,8.44,5.53,4.09,11.54,7.29,17.89,9.39,1.29.45,2.6.83,3.92,1.17,3.82.97,7.74,1.55,11.74,1.68.61.03,1.23.04,1.86.04,1.52,0,3.02-.06,4.52-.19,4.44-.34,8.81-1.23,13.06-2.63.21-.06.4-.13.61-.19,4.81-1.65,9.48-3.94,13.89-6.83,4.07-2.67,7.93-5.85,11.54-9.54,1.46-1.49,2.88-3.08,4.26-4.72,6.55-7.87,11.62-17.11,14.92-26.95,1.22-3.61,2.2-7.31,2.91-11.05-1.14.43-2.39.67-3.68.67Zm-119.2-17.17c0-.37,0-.73.01-1.08-1.9-1.84-4.49-2.97-7.34-2.97h-.07l3.25,5.99c.09-.04,1.52-.8,4.14-1.93Zm-7.32-4.06h-.07l3.25,5.99c.09-.04,1.52-.8,4.14-1.93,0-.37,0-.73.01-1.08-1.9-1.84-4.49-2.97-7.34-2.97Zm126.53,0c-1.92,0-3.73.52-5.29,1.43.04.94.07,1.89.09,2.85,1.66.62,3.34,1.28,5.02,1.96l2.44-5.99c-.73-.16-1.49-.25-2.26-.25Zm-126.53,0h-.07l3.25,5.99c.09-.04,1.52-.8,4.14-1.93,0-.37,0-.73.01-1.08-1.9-1.84-4.49-2.97-7.34-2.97Zm126.53,0c-1.92,0-3.73.52-5.29,1.43.04.94.07,1.89.09,2.85,1.66.62,3.34,1.28,5.02,1.96l2.44-5.99c-.73-.16-1.49-.25-2.26-.25Zm3.77-10.06c-6.42-33.02-33.57-57.89-65.99-57.89s-59.39,24.72-65.91,57.61c-.68,3.51-1.14,7.1-1.35,10.77.91-.28,1.89-.43,2.88-.43l3.25,5.99c.09-.04,1.52-.8,4.14-1.93,0-.37,0-.73.01-1.08.1-3.64.49-7.19,1.13-10.64.06-.28.12-.58.18-.86,5.63-28,28.45-49.02,55.66-49.02s49.62,20.63,55.53,48.25c.15.7.28,1.41.4,2.12.52,2.81.85,5.67,1,8.6.04.94.07,1.89.09,2.85,1.66.62,3.34,1.28,5.02,1.96l2.44-5.99c1.01.21,1.96.58,2.85,1.07-.16-3.88-.62-7.68-1.34-11.38Zm-73.19,81.71c.37.48.74.97,1.08,1.46,2.01-.53,4.13-.83,6.31-.83-2.5,0-4.96-.21-7.4-.62Z"/>
  <path class="cls-1" d="m191.53,124.92c-.51,0-1-.03-1.47-.12-5.14-.7-9.14-5.16-9.14-10.5,0-4.81,3.24-8.9,7.65-10.18.91-.28,1.89-.43,2.88-.43h.07c2.85,0,5.44,1.13,7.34,2.97.27.24.52.49.73.77,2.5-1.04,5.9-2.35,10.12-3.65-2.02-3.48-5.01-6.33-8.6-8.17-.31-.16-.61-.31-.94-.45-2.63-1.2-5.57-1.87-8.65-1.87-.53,0-1.07.01-1.6.06-10.83.83-19.4,9.91-19.4,20.95,0,11.59,9.43,21.02,21.01,21.02.45,0,.89-.01,1.34-.04,3.61-.22,6.97-1.37,9.85-3.19-1.23-3.62-2.18-7.38-2.84-11.25-1.93,2.48-4.96,4.09-8.35,4.09Z"/>
  <path class="cls-1" d="m256.03,186.37c1.47,0,2.9.24,4.23.67.07-.3.18-.58.28-.86-1.5.13-3,.19-4.52.19Zm-1.86-.04s.03.1.04.16c.59-.07,1.2-.12,1.81-.12-.62,0-1.25-.01-1.86-.04Zm1.86.04c1.47,0,2.9.24,4.23.67.07-.3.18-.58.28-.86-1.5.13-3,.19-4.52.19Zm-1.86-.04s.03.1.04.16c.59-.07,1.2-.12,1.81-.12-.62,0-1.25-.01-1.86-.04Zm1.86.04c1.47,0,2.9.24,4.23.67.07-.3.18-.58.28-.86-1.5.13-3,.19-4.52.19Zm-1.86-.04s.03.1.04.16c.59-.07,1.2-.12,1.81-.12-.62,0-1.25-.01-1.86-.04Zm1.86.04c1.47,0,2.9.24,4.23.67.07-.3.18-.58.28-.86-1.5.13-3,.19-4.52.19Zm-1.81.12c.59-.07,1.2-.12,1.81-.12-.62,0-1.25-.01-1.86-.04.01.04.03.1.04.16Zm19.61-2.72l-.22-.22c-2.32-2.45-5.15-4.43-8.33-5.75-2.85-1.17-5.97-1.83-9.24-1.83-2.18,0-4.31.3-6.31.83-3.48.94-6.66,2.63-9.31,4.9-.67.55-1.29,1.14-1.89,1.77-4.16,4.35-6.71,10.24-6.71,16.73,0,3.19.62,6.24,1.75,9.03,1.32,3.3,3.36,6.24,5.91,8.63,4.34,4.07,10.16,6.57,16.56,6.57,6.02,0,11.54-2.21,15.79-5.88,2.64-2.26,4.78-5.1,6.24-8.29,1.41-3.06,2.2-6.46,2.2-10.06,0-6.34-2.45-12.11-6.43-16.43Zm-17.8,30.26c-3.1,0-5.97-1.03-8.27-2.75-3.09-2.32-5.18-5.9-5.51-9.97-.03-.37-.04-.74-.04-1.11,0-2.85.86-5.51,2.36-7.73,2.17-3.21,5.65-5.47,9.66-5.99.59-.07,1.2-.12,1.81-.12,1.47,0,2.9.24,4.23.67,4.58,1.47,8.13,5.29,9.24,10.03-.01.01-.01.03,0,.04.13.52.22,1.05.27,1.59,0,.03.01.06.01.09.04.46.07.94.07,1.41,0,4.53-2.18,8.56-5.56,11.08-2.32,1.72-5.17,2.75-8.27,2.75Zm-1.86-27.71s.03.1.04.16c.59-.07,1.2-.12,1.81-.12-.62,0-1.25-.01-1.86-.04Zm1.86.04c1.47,0,2.9.24,4.23.67.07-.3.18-.58.28-.86-1.5.13-3,.19-4.52.19Zm-1.86-.04s.03.1.04.16c.59-.07,1.2-.12,1.81-.12-.62,0-1.25-.01-1.86-.04Zm1.86.04c1.47,0,2.9.24,4.23.67.07-.3.18-.58.28-.86-1.5.13-3,.19-4.52.19Zm-1.86-.04s.03.1.04.16c.59-.07,1.2-.12,1.81-.12-.62,0-1.25-.01-1.86-.04Zm1.86.04c1.47,0,2.9.24,4.23.67.07-.3.18-.58.28-.86-1.5.13-3,.19-4.52.19Z"/>
  <path class="cls-1" d="m274.22,183.35c-.21.06-.4.13-.61.19-4.25,1.4-8.62,2.29-13.06,2.63-.1.28-.21.56-.28.86,4.58,1.47,8.13,5.29,9.24,10.03-.09-.62-.12-1.25-.12-1.89,0-4.28,1.65-8.25,4.44-11.41.12-.13.25-.28.39-.42Zm0,0c-.21.06-.4.13-.61.19-4.25,1.4-8.62,2.29-13.06,2.63-.1.28-.21.56-.28.86,4.58,1.47,8.13,5.29,9.24,10.03-.09-.62-.12-1.25-.12-1.89,0-4.28,1.65-8.25,4.44-11.41.12-.13.25-.28.39-.42Zm0,0c-.21.06-.4.13-.61.19-4.25,1.4-8.62,2.29-13.06,2.63-.1.28-.21.56-.28.86,4.58,1.47,8.13,5.29,9.24,10.03-.09-.62-.12-1.25-.12-1.89,0-4.28,1.65-8.25,4.44-11.41.12-.13.25-.28.39-.42Zm25.43-16.37c-2.72-.68-5.57-1.05-8.53-1.05-2.47,0-4.89.25-7.19.74-4.66,3.3-9.72,5.81-15,7.38-1.34,1.14-2.56,2.41-3.65,3.74-2.04,2.53-3.65,5.33-4.72,8.38-.1.28-.21.56-.28.86,4.58,1.47,8.13,5.29,9.24,10.03-.09-.62-.12-1.25-.12-1.89,0-4.28,1.65-8.25,4.44-11.41.12-.13.25-.28.39-.42,3.37-3.64,8.29-6.16,13.89-6.83.98-.13,1.99-.19,3.02-.19,11.97,0,21.73,8.45,21.73,18.85,0,.74-.04,1.49-.16,2.21-.28,2.15-1,4.22-2.06,6.09-3.55,6.24-10.96,10.55-19.51,10.55-4.89,0-9.42-1.41-13.06-3.77-4.2-2.76-7.23-6.8-8.27-11.47.04.46.07.94.07,1.41,0,4.53-2.18,8.56-5.56,11.08,2.04,2.81,4.58,5.26,7.52,7.26,5.38,3.7,12.05,5.88,19.3,5.88,2.69,0,5.29-.31,7.78-.88.36-.09.71-.18,1.07-.27,4.22-1.08,8.08-2.96,11.39-5.42.24-.18.48-.36.7-.55l.03-.03c3.15-2.44,5.75-5.45,7.62-8.84.55-.94,1.01-1.9,1.43-2.88v-.04c.97-2.27,1.62-4.63,1.9-7.13.04-.33.07-.67.1-1,.07-.73.1-1.47.1-2.21,0-13.44-10.01-24.79-23.61-28.2Zm-25.43,16.37c-.21.06-.4.13-.61.19-4.25,1.4-8.62,2.29-13.06,2.63-.1.28-.21.56-.28.86,4.58,1.47,8.13,5.29,9.24,10.03-.09-.62-.12-1.25-.12-1.89,0-4.28,1.65-8.25,4.44-11.41.12-.13.25-.28.39-.42Zm0,0c-.21.06-.4.13-.61.19-4.25,1.4-8.62,2.29-13.06,2.63-.1.28-.21.56-.28.86,4.58,1.47,8.13,5.29,9.24,10.03-.09-.62-.12-1.25-.12-1.89,0-4.28,1.65-8.25,4.44-11.41.12-.13.25-.28.39-.42Zm0,0c-.21.06-.4.13-.61.19-4.25,1.4-8.62,2.29-13.06,2.63-.1.28-.21.56-.28.86,4.58,1.47,8.13,5.29,9.24,10.03-.09-.62-.12-1.25-.12-1.89,0-4.28,1.65-8.25,4.44-11.41.12-.13.25-.28.39-.42Zm0,0c-.21.06-.4.13-.61.19-4.25,1.4-8.62,2.29-13.06,2.63-.1.28-.21.56-.28.86,4.58,1.47,8.13,5.29,9.24,10.03-.09-.62-.12-1.25-.12-1.89,0-4.28,1.65-8.25,4.44-11.41.12-.13.25-.28.39-.42Z"/>
  <path class="cls-1" d="m242.25,201.31c-1.93,3.33-4.98,6.09-8.69,7.92-3.15,1.56-6.77,2.44-10.62,2.44-11.93,0-21.63-8.45-21.63-18.85,0-9.72,8.48-17.74,19.33-18.73.76-.09,1.53-.12,2.3-.12,7.16,0,13.53,3.05,17.47,7.74.77.92,1.46,1.9,2.04,2.94,1.31,2.38,2.08,5.02,2.12,7.83,2.17-3.21,5.65-5.47,9.66-5.99-.01-.06-.03-.12-.04-.16-.85-3.45-2.38-6.66-4.46-9.52-.34-.49-.71-.98-1.08-1.46-8.97-1.5-17.43-5.66-24.73-11.75-.33-.03-.64-.03-.97-.03-4.17,0-8.17.73-11.83,2.08-11.83,4.29-20.2,14.86-20.2,27.17,0,1.78.18,3.54.52,5.23.7,3.55,2.11,6.88,4.09,9.86.95,1.44,2.05,2.81,3.27,4.07.67.73,1.4,1.41,2.15,2.06h.01c2.91,2.53,6.33,4.56,10.12,5.93.33.12.67.24,1.01.34,3.39,1.14,7.04,1.75,10.86,1.75,6.05,0,11.71-1.53,16.53-4.2,3.16-1.74,5.97-3.98,8.29-6.58-3.09-2.32-5.18-5.9-5.51-9.97Z"/>
  <path class="cls-1" d="m321.83,93.64c-1.22-.22-2.48-.34-3.77-.34-2.33,0-4.59.39-6.69,1.1-.92.3-1.8.67-2.64,1.1-3.67,1.81-6.73,4.68-8.79,8.19,3.42,1,6.89,2.11,10.41,3.37.68-.76,1.52-1.43,2.42-1.93,1.56-.91,3.37-1.43,5.29-1.43.77,0,1.53.09,2.26.25,1.01.21,1.96.58,2.85,1.07,3.27,1.81,5.5,5.3,5.5,9.28,0,4.55-2.88,8.45-6.92,9.95-1.14.43-2.39.67-3.68.67-2.47,0-4.75-.85-6.55-2.29-.7,3.58-1.65,7.09-2.84,10.46,2.82,1.43,6.02,2.23,9.39,2.23.25,0,.52,0,.77-.01,11.22-.4,20.23-9.67,20.23-21.01,0-10.28-7.46-18.88-17.23-20.66Z"/>
  <path class="cls-1" d="m255.65,297.26s-.09,0-.14,0c-15.09-.09-29.31-14.88-42.26-43.99-9.18-20.62-14.37-40.89-14.59-41.74l10.06-2.75c.05.2,5.2,20.24,13.98,39.97,10.8,24.26,22.47,37.66,32.87,37.72.02,0,.05,0,.07,0,10.42,0,21.9-13.06,33.22-37.77,4.69-10.24,9.41-22.62,14.03-36.82l9.85,3.45c-4.75,14.59-9.62,27.37-14.49,37.99-13.53,29.56-27.47,43.94-42.6,43.94Z"/>
  <rect class="cls-1" x="250.55" y="224.89" width="10.4" height="25.79"/>
  <rect class="cls-1" x="250.55" y="260.55" width="10.4" height="25.79"/>
  <path class="cls-1" d="m231.8,351.5v56.21l-3.82,1.16c-.15.04-.31.09-.52.16-1.69.49-5.35,1.49-10.4,2.5-4.34.86-9.72,1.72-15.76,2.27-3.28.3-6.77.5-10.4.56-.71.01-1.43.01-2.15.01-9.86,0-20.65-1.11-31.26-4.32-3.3-1-6.58-2.2-9.82-3.64-6.24-2.76-12.3-6.4-17.92-11.13-32.79-27.51-28.23-72.15-25.2-101.69,1.72-16.98,3.7-36.2,17.74-55.37,20.41-27.87,52.68-37.17,69.12-40.2,1.49-.27,2.85-.49,4.06-.67l1.69,10.28c-.52.07-1.08.16-1.66.25-5.3.88-12.97,2.54-21.51,5.65-3.25,1.19-6.63,2.58-10.04,4.23-11.51,5.53-23.47,13.86-32.65,26.38-12.4,16.94-14.16,33.98-15.84,50.45-2.81,27.42-7.04,68.89,21.56,92.89,16.16,13.56,36.69,16.83,53.88,16.5,3.64-.06,7.13-.28,10.4-.61,6.24-.64,11.66-1.62,15.76-2.51,1.43-.31,2.7-.62,3.79-.89v-38.3c-1.13-.06-2.39-.15-3.79-.27-4.4-.34-9.95-1-15.76-2.2-3.45-.68-6.97-1.57-10.4-2.7-1.75-.56-3.49-1.2-5.17-1.92-19.46-8.2-30.32-50.79-26.56-72.17l10.8,1.71c-1.37,7.78-.37,18.6,2.17,29.01,1.01,4.13,2.27,8.2,3.73,11.99,3.74,9.75,8.79,17.62,14.31,19.95.24.1.48.21.73.3,3.28,1.34,6.85,2.38,10.4,3.18,5.66,1.29,11.28,2.01,15.76,2.42.58.04,1.13.09,1.66.13,1.66.12,3.13.21,4.32.27.55.01,1.05.04,1.47.04.51.01.92.03,1.23.03.36.01.55.01.56.01h5.48Z"/>
  <path class="cls-1" d="m409.54,280.46v188.4h-58.18v-163.03h11.65v152.63h34.88v-177.72c-1.28-10.4-7.01-35.97-32.92-54.86-5.27-3.85-10.68-6.89-16-9.3-3.34-1.52-6.64-2.78-9.85-3.82-11.54-3.77-21.94-4.83-28.66-5.05l.42-10.4c13.04.43,38.36,3.65,61.46,20.52,29.47,21.5,35.8,50.58,37.17,62.08l.03.55Z"/>
  <path class="cls-1" d="m359.82,305.88v157.34c0,2.02-.48,3.94-1.34,5.64-2.18,4.37-6.83,7.4-12.21,7.4h-185.62c-7.47,0-13.55-5.85-13.55-13.04v-56.79h10.4v56.79c0,1.68,1.41,3.03,3.15,3.03h185.62c1.74,0,3.15-1.35,3.15-3.03v-141.29c.7.22,1.35.42,1.95.55v-16.59h8.45Z"/>
  <path class="cls-1" d="m354.87,323.05l-.46,10.4c-.06,0-1.19-.06-3.05-.4-.58-.12-1.23-.25-1.95-.42-9.39-2.27-29.06-10.62-32.85-41-3.76-30.22,14.57-65.31,22.55-78.87,1.95-3.31,3.27-5.35,3.52-5.72l8.68,5.73c-.04.07-.94,1.43-2.35,3.8-6.76,11.32-25.55,45.84-22.08,73.76,2.75,22.03,15.18,29.25,22.52,31.58.7.22,1.35.42,1.95.55,1.96.48,3.28.56,3.51.58Z"/>
  <path class="cls-1" d="m193.79,289.78c-3.43,15.96-11.17,27.71-17.92,35.39-.95,1.08-1.89,2.09-2.78,3.02l-7.46-7.25c2.05-2.11,4.29-4.68,6.51-7.76,4.65-6.4,9.17-14.91,11.48-25.6,5.13-23.74-2.39-50.11-19.67-69.79-.94-1.05-1.9-2.09-2.88-3.12l7.47-7.23c1.92,1.98,3.73,4.01,5.45,6.12,17.83,21.82,25.39,50.35,19.79,76.22Z"/>
  <path class="cls-1" d="m217.07,329.75v21.26c.58.04,1.13.09,1.66.13,1.66.12,3.13.21,4.32.27.55.01,1.05.04,1.47.04.51.01.92.03,1.23.03.36.01.55.01.56.01h1.14v-21.75h-10.4Zm70.15-10.38c-.18-.01-.36-.01-.53-.01h-69.61v135.28h87.16v-117.73c0-9.49-7.59-17.25-17.01-17.53Zm6.61,124.86h-66.36v-114.48h59.21c.18,0,.36,0,.53.01,3.68.28,6.61,3.37,6.61,7.13v107.33Zm-76.76-114.48v21.26c.58.04,1.13.09,1.66.13,1.68.13,3.13.21,4.32.27.55.01,1.05.04,1.47.04.52.03.94.03,1.23.03.36.01.55.01.56.01h1.14v-21.75h-10.4Z"/>
  <path class="cls-1" d="m216.78,319.35c-14.28,0-25.88,10.31-25.88,22.98v14.2c3.43,1.13,6.95,2.02,10.4,2.7v-16.91c0-6.94,6.94-12.58,15.48-12.58h69.9c.18,0,.36,0,.53.01v-10.41h-70.43Zm-15.48,112.93v-28.88c-3.27.33-6.76.55-10.4.61v38.67h36.56v-10.4h-26.16Z"/>
  <path class="cls-1" d="m328.19,354.34h-25.79c-3.13,0-6.06.86-8.57,2.36v54.82c2.51,1.49,5.44,2.35,8.57,2.35h25.79c9.3,0,16.86-7.56,16.86-16.86v-25.79c0-9.3-7.56-16.88-16.86-16.88Zm6.46,42.67c0,3.57-2.9,6.46-6.46,6.46h-25.79c-3.57,0-6.46-2.9-6.46-6.46v-25.79c0-3.57,2.9-6.48,6.46-6.48h25.79c3.57,0,6.46,2.91,6.46,6.48v25.79Z"/>
  <rect class="cls-1" x="362.81" y="426.3" width="41.54" height="7.96"/>
  <path class="cls-1" d="m321.82,100.29l-1.5,3.65-2.44,5.99c-1.68-.68-3.36-1.34-5.02-1.96-.83-.31-1.68-.62-2.51-.92-3.52-1.26-7-2.38-10.41-3.37-39.77-11.5-72.32-5.5-90.22.1-4.22,1.31-7.62,2.61-10.12,3.65-.27.1-.51.21-.74.31-2.63,1.13-4.06,1.89-4.14,1.93l-3.25-5.99-1.72-3.15c.55-.3,4.13-2.2,10.27-4.52.36-.13.73-.27,1.11-.42,18.53-6.76,58.07-16.33,107.61-.12,1.01.33,2.02.67,3.05,1.02,3.31,1.13,6.66,2.39,10.04,3.77Z"/>
</svg>