<?xml version="1.0" encoding="UTF-8"?>
<svg id="Layer_1" data-name="Layer 1" xmlns="http://www.w3.org/2000/svg" viewBox="0 0 512 512">
  <defs>
    <style>
      .cls-1, .cls-2 {
        stroke-width: 0px;
      }

      .cls-2 {
        fill: #fff;
      }
    </style>
  </defs>
  <circle class="cls-1" cx="243.96" cy="198.13" r="57.8"/>
  <circle class="cls-1" cx="348.08" cy="240.23" r="40.69"/>
  <circle class="cls-1" cx="415.49" cy="283.6" r="23.41"/>
  <circle class="cls-1" cx="70.08" cy="286.43" r="23.41"/>
  <circle class="cls-1" cx="146.85" cy="238.83" r="40.69"/>
  <path class="cls-1" d="m213.27,272.86h80.6c18.14,0,32.86,14.72,32.86,32.86v117.26h-146.32v-117.26c0-18.14,14.72-32.86,32.86-32.86Z"/>
  <path class="cls-1" d="m114.04,294.39h40.36v128.59h-47.58c-13.95,0-25.27-11.32-25.27-25.27v-70.83c0-17.93,14.56-32.49,32.49-32.49Z"/>
  <path class="cls-1" d="m364.25,294.39h47.58v128.59h-40.36c-17.93,0-32.49-14.56-32.49-32.49v-70.83c0-13.95,11.32-25.27,25.27-25.27Z" transform="translate(750.8 717.38) rotate(-180)"/>
  <g>
    <path class="cls-2" d="m202.46,358.54c1.7.87,4.31,1.74,7,1.74,2.9,0,4.43-1.2,4.43-3.02s-1.33-2.73-4.68-3.94c-4.64-1.62-7.66-4.18-7.66-8.24,0-4.76,3.98-8.41,10.56-8.41,3.15,0,5.47.66,7.12,1.41l-1.41,5.09c-1.12-.54-3.11-1.33-5.84-1.33s-4.06,1.24-4.06,2.69c0,1.78,1.57,2.57,5.18,3.93,4.93,1.82,7.25,4.39,7.25,8.33,0,4.68-3.6,8.66-11.27,8.66-3.19,0-6.34-.83-7.91-1.7l1.28-5.22Z"/>
    <path class="cls-2" d="m230,342.43h-7.5v-5.3h21.46v5.3h-7.62v22.62h-6.34v-22.62Z"/>
    <path class="cls-2" d="m250.84,357.88l-1.99,7.17h-6.54l8.53-27.92h8.28l8.66,27.92h-6.79l-2.15-7.17h-7.99Zm7.08-4.72l-1.74-5.92c-.5-1.66-.99-3.73-1.41-5.38h-.08c-.41,1.66-.83,3.77-1.28,5.38l-1.66,5.92h6.17Z"/>
    <path class="cls-2" d="m271.51,337.13h17.07v5.18h-10.73v6.38h10.02v5.14h-10.02v11.23h-6.34v-27.92Z"/>
    <path class="cls-2" d="m293.33,337.13h17.07v5.18h-10.73v6.38h10.02v5.14h-10.02v11.23h-6.34v-27.92Z"/>
  </g>
  <path class="cls-1" d="m392.08,321.06h24.48c25.78,0,46.71,20.93,46.71,46.71h-71.19v-46.71h0Z"/>
  <path class="cls-1" d="m27.33,321.06h79.68v10.95c0,19.74-16.03,35.76-35.76,35.76H27.33v-46.71h0Z" transform="translate(134.34 688.83) rotate(-180)"/>
  <path class="cls-1" d="m478.76,139.04c-3.81-2.44-5.91-6.57-5.91-10.81,0-2.05.5-4.14,1.53-6.07,4.79-8.94-2.09-18.96-11.23-18.96-1.36,0-2.77.22-4.22.71-1.36.46-2.75.68-4.12.68-5.01,0-9.73-2.95-11.81-7.79-2.24-5.21-7.02-7.79-11.79-7.79-5.04,0-10.06,2.86-12.1,8.48-1.88,5.2-6.78,8.48-12.08,8.48-1.12,0-2.28-.15-3.41-.46-8.76-2.4-16.3,4.53-16.3,12.41,0,2.21.6,4.52,1.94,6.71,1.28,2.09,1.9,4.42,1.9,6.72,0,3.98-1.85,7.89-5.29,10.39-3.63,2.65-5.3,6.49-5.3,10.3,0,6.03,4.19,11.97,11.3,12.84,6.47.8,11.28,6.28,11.28,12.74,0,.2,0,.39-.01.58-.35,7.99,6.13,13.44,12.93,13.44,3.12,0,6.29-1.14,8.91-3.71,4.79-4.69,12.38-4.91,17.44-.5,8.42,7.34,21.3,1.16,21.3-9.59,0-.46-.02-.93-.07-1.41-.05-.45-.06-.88-.06-1.32,0-6.13,4.38-11.51,10.54-12.64,6.74-1.23,10.55-6.94,10.55-12.73,0-4.04-1.87-8.12-5.91-10.72Zm-46.13,20.75c-10.75,0-19.46-8.71-19.46-19.46s8.71-19.46,19.46-19.46,19.46,8.71,19.46,19.46-8.72,19.46-19.46,19.46Z"/>
</svg>