<?xml version="1.0" encoding="UTF-8"?>
<svg id="Layer_1" data-name="Layer 1" xmlns="http://www.w3.org/2000/svg" viewBox="0 0 512 512">
  <defs>
    <style>
      .cls-1, .cls-2 {
        stroke-width: 0px;
      }

      .cls-2 {
        fill: #fff;
      }
    </style>
  </defs>
  <g>
    <path class="cls-1" d="m259.24,97.73l-115.37,153.65-99.14-74.44L160.39,22.92l98.82,74.2c.03.2.04.43.04.6Zm-116.08,148.69l.38-.51,111.01-147.84L161.09,27.88,49.7,176.23l92.9,69.76.57.43Z"/>
    <path class="cls-1" d="m259.52,97.36l-.28.37c0-.18,0-.4-.04-.6l.31.23Z"/>
    <path class="cls-1" d="m143.55,245.9l-.38.51-.57-.43c.3,0,.63-.01.95-.08Z"/>
    <path class="cls-1" d="m254.56,98.06l-111.01,147.84c-.32.07-.64.09-.95.08l-92.9-69.76L161.09,27.88l93.47,70.18Zm-111.24,140.36l86.67-115.43,16.93-22.55-62.33-46.8-23.66-17.76-17.1,22.78-86.5,115.2,23.35,17.53,62.64,47.04Z"/>
    <path class="cls-2" d="m229.99,122.99l-86.67,115.43-62.64-47.04,2.13-2.83,38.05,28.57c.64-1.38,1.45-2.76,2.41-4.04,7.55-10.06,21.89-12.1,31.95-4.55,1.33,1,2.56,2.14,3.59,3.36l68.35-91.03,2.83,2.13Z"/>
    <path class="cls-2" d="m246.93,100.44l-16.93,22.55-2.83-2.13c-1.46-.65-2.9-1.51-4.23-2.51-10.06-7.55-12.1-21.89-4.55-31.95.47-.62.99-1.25,1.51-1.83l-37.43-28.1,2.13-2.83,62.33,46.8Z"/>
    <path class="cls-1" d="m227.16,120.87l-68.35,91.03c-1.03-1.22-2.26-2.36-3.59-3.36-10.06-7.55-24.39-5.51-31.95,4.55-.96,1.27-1.77,2.66-2.41,4.04l-38.05-28.57c1.15-1,2.25-2.17,3.2-3.44,7.55-10.06,5.51-24.39-4.55-31.95-.91-.68-1.83-1.28-2.81-1.8l68.01-90.58c.77.8,1.61,1.52,2.51,2.2,10.06,7.55,24.39,5.51,31.95-4.55.47-.62.93-1.3,1.34-1.96l37.43,28.1c-.52.58-1.04,1.21-1.51,1.83-7.55,10.06-5.51,24.39,4.55,31.95,1.33,1,2.77,1.86,4.23,2.51Zm-51.69,37.62c9.36-12.47,6.81-30.2-5.63-39.54-12.47-9.36-30.18-6.84-39.54,5.63-9.34,12.44-6.84,30.18,5.63,39.54,12.44,9.34,30.2,6.81,39.54-5.63Z"/>
    <path class="cls-1" d="m169.85,118.95c12.44,9.34,14.99,27.07,5.63,39.54-9.34,12.44-27.1,14.96-39.54,5.63-12.47-9.36-14.96-27.1-5.63-39.54,9.36-12.47,27.07-14.99,39.54-5.63Zm2.79,37.41c8.17-10.88,5.96-26.41-4.92-34.58-10.88-8.17-26.41-5.96-34.58,4.92-8.17,10.88-5.96,26.41,4.92,34.58,10.88,8.17,26.41,5.96,34.58-4.92Z"/>
    <circle class="cls-2" cx="152.89" cy="141.53" r="24.7"/>
    <path class="cls-2" d="m182.47,56.47c-.41.67-.87,1.34-1.34,1.96-7.55,10.06-21.89,12.1-31.95,4.55-.91-.68-1.74-1.4-2.51-2.2l-2.83-2.13,17.1-22.78,23.66,17.76-2.13,2.83Z"/>
    <path class="cls-2" d="m86.01,185.11c-.96,1.27-2.06,2.44-3.2,3.44l-2.13,2.83-23.35-17.53,86.5-115.2,2.83,2.13-68.01,90.58c.98.52,1.91,1.12,2.81,1.8,10.06,7.55,12.1,21.89,4.55,31.95Z"/>
  </g>
  <g>
    <path class="cls-1" d="m249.72,231.21l-115.37,153.65-99.14-74.44,115.65-154.02,98.82,74.2c.03.2.04.43.04.6Zm-116.08,148.69l.38-.51,111.01-147.84-93.47-70.18-111.39,148.35,92.9,69.76.57.43Z"/>
    <path class="cls-1" d="m249.99,230.84l-.28.37c0-.18,0-.4-.04-.6l.31.23Z"/>
    <path class="cls-1" d="m134.02,379.39l-.38.51-.57-.43c.3,0,.63-.01.95-.08Z"/>
    <path class="cls-1" d="m245.03,231.55l-111.01,147.84c-.32.07-.64.09-.95.08l-92.9-69.76,111.39-148.35,93.47,70.18Zm-111.24,140.36l86.67-115.43,16.93-22.55-62.33-46.8-23.66-17.76-17.1,22.78-86.5,115.2,23.35,17.53,62.64,47.04Z"/>
    <path class="cls-2" d="m220.47,256.48l-86.67,115.43-62.64-47.04,2.13-2.83,38.05,28.57c.64-1.38,1.45-2.76,2.41-4.04,7.55-10.06,21.89-12.1,31.95-4.55,1.33,1,2.56,2.14,3.59,3.36l68.35-91.03,2.83,2.13Z"/>
    <path class="cls-2" d="m237.4,233.93l-16.93,22.55-2.83-2.13c-1.46-.65-2.9-1.51-4.23-2.51-10.06-7.55-12.1-21.89-4.55-31.95.47-.62.99-1.25,1.51-1.83l-37.43-28.1,2.13-2.83,62.33,46.8Z"/>
    <path class="cls-1" d="m217.63,254.35l-68.35,91.03c-1.03-1.22-2.26-2.36-3.59-3.36-10.06-7.55-24.39-5.51-31.95,4.55-.96,1.27-1.77,2.66-2.41,4.04l-38.05-28.57c1.15-1,2.25-2.17,3.2-3.44,7.55-10.06,5.51-24.39-4.55-31.95-.91-.68-1.83-1.28-2.81-1.8l68.01-90.58c.77.8,1.61,1.52,2.51,2.2,10.06,7.55,24.39,5.51,31.95-4.55.47-.62.93-1.3,1.34-1.96l37.43,28.1c-.52.58-1.04,1.21-1.51,1.83-7.55,10.06-5.51,24.39,4.55,31.95,1.33,1,2.77,1.86,4.23,2.51Zm-51.69,37.62c9.36-12.47,6.81-30.2-5.63-39.54s-30.18-6.84-39.54,5.63c-9.34,12.44-6.84,30.18,5.63,39.54,12.44,9.34,30.2,6.81,39.54-5.63Z"/>
    <path class="cls-1" d="m160.32,252.44c12.44,9.34,14.99,27.07,5.63,39.54-9.34,12.44-27.1,14.96-39.54,5.63-12.47-9.36-14.96-27.1-5.63-39.54,9.36-12.47,27.07-14.99,39.54-5.63Zm2.79,37.41c8.17-10.88,5.96-26.41-4.92-34.58-10.88-8.17-26.41-5.96-34.58,4.92-8.17,10.88-5.96,26.41,4.92,34.58,10.88,8.17,26.41,5.96,34.58-4.92Z"/>
    <circle class="cls-2" cx="143.37" cy="275.02" r="24.7"/>
    <path class="cls-2" d="m172.94,189.96c-.41.67-.87,1.34-1.34,1.96-7.55,10.06-21.89,12.1-31.95,4.55-.91-.68-1.74-1.4-2.51-2.2l-2.83-2.13,17.1-22.78,23.66,17.76-2.13,2.83Z"/>
    <path class="cls-2" d="m76.48,318.59c-.96,1.27-2.06,2.44-3.2,3.44l-2.13,2.83-23.35-17.53,86.5-115.2,2.83,2.13-68.01,90.58c.98.52,1.91,1.12,2.81,1.8,10.06,7.55,12.1,21.89,4.55,31.95Z"/>
  </g>
  <g>
    <path class="cls-1" d="m329.75,67.89v103.69h147.04v-103.69h-147.04Zm136.18,93.3h-125.32v-82.92h125.32v82.92Z"/>
    <polygon class="cls-1" points="357 143.61 352.87 134.01 449.9 95.84 454.03 105.44 357 143.61"/>
  </g>
  <g>
    <path class="cls-1" d="m430.8,297.77c.12,2.59-.99,4.63-2.6,6.49-2.53,2.89-5.65,5-8.98,6.8-8.51,4.59-17.67,7.34-27.03,9.47-6.76,1.55-13.6,2.66-20.49,3.41-5.12.57-10.24,1.07-15.4,1.22-2.09.06-4.2.14-6.3.22-1.15.04-2.22-.13-3.29-.53-10.61-3.9-21.59-6.23-32.75-7.82-5.96-.85-11.94-1.51-17.95-1.9-5.68-.36-11.38-.61-17.07-.47-1.89.05-3.63-.22-5.36-1.05-4.7-2.24-9.29-4.6-13.08-8.29-2.53-2.45-3.9-5.28-3.74-8.9.15-3.7.03-7.4.04-11.1,0-.28-.11-.65.15-.82.34-.23.58.16.83.33,5.64,3.93,11.84,6.74,18.29,9.05,7.15,2.57,14.49,4.44,21.94,5.9,7.84,1.53,15.74,2.52,23.69,3.24,10.28.92,20.58,1.07,30.88.77,12.01-.33,23.95-1.53,35.77-3.77,9.39-1.78,18.62-4.16,27.51-7.74,4.92-1.98,9.66-4.35,14.04-7.39.23-.16.44-.51.75-.33.27.16.15.53.15.81,0,2.28,0,4.57,0,6.86,0,1.85-.08,3.71.02,5.55Z"/>
    <path class="cls-1" d="m430.75,316.97c.27.78,0,1.49,0,2.19.03,3.74-.06,7.47.04,11.21.07,2.58-.91,4.65-2.55,6.51-2.8,3.19-6.3,5.45-10.02,7.38-7.98,4.14-16.5,6.73-25.22,8.75-4.91,1.14-9.87,2.05-14.86,2.76-1.58.23-1.68.25-1.57-1.31.52-7.32-2.91-12.82-8-17.56-.35-.33-.69-.65-1.02-.98-.05-.05-.05-.13-.1-.31,1.67-.2,3.31-.42,4.95-.58,4.44-.42,8.84-1.13,13.24-1.86,6.45-1.08,12.8-2.54,19.07-4.39,8.93-2.64,17.58-5.95,25.28-11.37.2-.14.42-.26.74-.44Z"/>
    <path class="cls-1" d="m430.58,349.88c.32.12.23.51.22.78,0,4.6.03,9.22-.08,13.83-.05,2.01-1.22,3.62-2.51,5.07-3.03,3.43-6.84,5.82-10.89,7.84-9.44,4.69-19.5,7.44-29.8,9.41-3.03.58-6.07,1.08-9.1,1.6-1.74.3-1.85.19-1.85-1.58v-9.04c0-3.12.03-6.24-.02-9.37-.02-.92.32-1.27,1.22-1.4,12.58-1.68,24.94-4.33,36.82-8.92,5.37-2.07,10.53-4.55,15.23-7.89.24-.17.47-.47.75-.35Z"/>
    <path class="cls-1" d="m430.58,382.57c.29.11.19.44.19.68,0,4.6.06,9.22-.04,13.83-.05,2.13-1.29,3.82-2.67,5.35-3.72,4.1-8.48,6.65-13.41,8.91-6.25,2.89-12.81,4.89-19.48,6.53-5.68,1.4-11.42,2.43-17.2,3.29-1.38.2-1.39.17-1.39-1.19v-9.37c0-3.16.03-6.32-.03-9.48,0-.92.32-1.3,1.21-1.41,7.28-.9,14.49-2.25,21.58-4.09,9.15-2.38,18.1-5.33,26.35-10.08,1.44-.84,2.82-1.78,4.24-2.67.21-.13.39-.42.65-.3Z"/>
    <path class="cls-1" d="m428.74,260.5c2.9,3.76,2.71,7.45-.48,11.02-2.74,3.09-6.13,5.31-9.73,7.23-6.84,3.62-14.14,6.03-21.6,7.96-7.18,1.86-14.46,3.19-21.8,4.12-4.93.62-9.88,1.08-14.84,1.43-5.47.39-10.94.41-16.42.45-4.9-.03-9.8.03-14.7-.31-9.99-.69-19.94-1.75-29.77-3.74-7.67-1.55-15.21-3.51-22.49-6.39-5.79-2.28-11.39-4.95-16.03-9.25-1.82-1.7-3.36-3.6-3.93-6.14-.48-2.12.28-3.94,1.42-5.62,2.01-2.98,4.82-5.1,7.84-6.95,6.3-3.86,13.17-6.38,20.22-8.47,7.98-2.37,16.14-3.91,24.36-5.08,4.45-.64,8.93-1.05,13.41-1.42,9.53-.8,19.07-.8,28.61-.59,7.51.17,14.99.84,22.44,1.82,6.66.88,13.27,2.01,19.79,3.62,9.43,2.34,18.66,5.26,26.98,10.48,2.53,1.59,4.87,3.43,6.71,5.83Z"/>
    <path class="cls-1" d="m365.6,416.37c.14,3.62-1.31,6.44-3.85,8.87-3.57,3.41-7.81,5.76-12.23,7.81-5.45,2.52-11.14,4.38-16.93,5.9-6.21,1.64-12.51,2.88-18.87,3.81-7.87,1.15-15.77,1.85-23.7,2.24-3.99.2-7.99.31-11.97.29-7.03-.05-14.06-.34-21.08-.94-10.83-.93-21.53-2.56-32.05-5.29-8.35-2.16-16.48-4.92-23.9-9.43-2.96-1.79-5.67-3.89-7.77-6.72-1.33-1.79-1.76-3.76-1.74-5.92.04-3.89.04-7.76.07-11.65,0-.34-.18-.81.22-.98.3-.12.57.25.83.42,4.6,3.16,9.57,5.59,14.74,7.65,7.52,2.99,15.29,5.05,23.18,6.72,7.04,1.48,14.14,2.45,21.28,3.25,12.07,1.35,24.19,1.48,36.31,1.19,6.85-.16,13.68-.8,20.49-1.59,9.46-1.09,18.8-2.77,27.99-5.27,8.11-2.21,16-5.02,23.35-9.16,1.39-.78,2.7-1.7,4.06-2.55.44-.28.83-.7,1.41-.82.27.57.16,1.16.16,1.73,0,3.48-.1,6.97.04,10.45Z"/>
    <path class="cls-1" d="m365.38,371.62c.34.19.17.66.17,1.01,0,4.1,0,8.21,0,12.31,0,2.01-.66,3.79-1.86,5.35-2.88,3.79-6.76,6.31-10.92,8.47-8.34,4.33-17.27,6.94-26.4,8.99-6.63,1.48-13.32,2.56-20.06,3.31-4.94.56-9.89,1.06-14.86,1.2-4.32.12-8.63.42-12.94.38-8.78-.07-17.54-.46-26.28-1.41-9.57-1.05-19.04-2.61-28.35-5.1-7.18-1.91-14.17-4.33-20.7-7.9-3.78-2.06-7.31-4.46-9.95-7.97-1.31-1.75-1.82-3.74-1.73-5.92.08-1.67.02-3.34.02-5.01h.04c0-2.25,0-4.51,0-6.75,0-.3-.16-.72.2-.89.28-.14.51.19.75.35,5.56,3.85,11.65,6.64,17.99,8.91,8.91,3.2,18.08,5.36,27.4,6.9,6.88,1.14,13.79,1.94,20.73,2.49,9.06.71,18.13.8,27.19.61,6.35-.12,12.69-.52,19-1.19,8.02-.86,15.98-2.02,23.85-3.76,9.72-2.17,19.23-5.02,28.2-9.46,2.63-1.31,5.17-2.8,7.57-4.5.28-.2.57-.62.92-.42Z"/>
    <path class="cls-1" d="m365.55,437.68c0,4.32.05,8.64,0,12.96-.03,2.41-1.16,4.39-2.73,6.13-2.98,3.32-6.68,5.66-10.62,7.65-8.39,4.23-17.34,6.81-26.46,8.83-7.09,1.57-14.27,2.64-21.48,3.41-4.04.42-8.09.67-12.15.93-4.49.28-8.99.32-13.99.26-5.57.16-11.63-.06-17.67-.52-13.44-1.03-26.74-2.91-39.71-6.76-7.65-2.27-15.07-5.04-21.72-9.56-1.91-1.29-3.59-2.83-5.13-4.53-1.89-2.09-2.47-4.59-2.41-7.35.08-3.56.05-7.11.06-10.67,0-.25,0-.51,0-.76,0-.77.24-.88.88-.42,6.43,4.48,13.55,7.52,20.95,9.98,7.9,2.62,16,4.49,24.19,5.88,5.5.93,11.05,1.63,16.6,2.15,7.2.66,14.4.98,21.62,1.1,7.22.12,14.41-.19,21.61-.66,9.13-.6,18.2-1.76,27.17-3.54,11.64-2.3,23.02-5.48,33.62-10.98,2.25-1.18,4.41-2.51,6.49-3.97.23-.15.44-.48.75-.27.24.15.14.46.14.71Z"/>
    <path class="cls-1" d="m363.84,348.18c2.45,3.35,2.14,7.01-.86,10.39-2.84,3.21-6.35,5.5-10.1,7.46-7.74,4.04-16.03,6.57-24.48,8.58-9.48,2.25-19.11,3.58-28.8,4.45-7.01.62-14.05.89-19.31.78-6.68-.02-11.57.02-16.47-.31-4.95-.34-9.89-.77-14.84-1.37-7.9-.95-15.72-2.29-23.41-4.29-9.59-2.5-18.93-5.62-27.18-11.34-1.71-1.19-3.23-2.6-4.57-4.19-3.16-3.73-3.03-7.81.31-11.45,3.02-3.28,6.69-5.65,10.63-7.65,8.97-4.57,18.57-7.22,28.36-9.24,7.68-1.58,15.44-2.62,23.25-3.33,7.16-.65,14.33-.84,21.52-.91,5.19-.05,10.37.04,15.54.35,9.16.56,18.27,1.56,27.3,3.29,7.03,1.35,13.98,2.98,20.74,5.34,5.73,2,11.29,4.39,16.35,7.8,2.29,1.56,4.36,3.38,6.01,5.63Z"/>
  </g>
</svg>