<?xml version="1.0" encoding="UTF-8"?>
<svg id="Layer_1" data-name="Layer 1" xmlns="http://www.w3.org/2000/svg" viewBox="0 0 512 512">
  <defs>
    <style>
      .cls-1 {
        stroke-width: 0px;
      }
    </style>
  </defs>
  <path class="cls-1" d="m341.67,243.65h-140.39v-40.51h74.29v-83.53H74v83.53h80.93v40.51h-38.37c-37.96,0-62.54,81.05-62.54,109.1v96.36h350.19v-96.36c0-28.05-24.56-109.1-62.54-109.1Zm-76.55,28.59c9.73,0,17.65,7.58,17.65,16.9s-7.93,16.9-17.65,16.9-17.68-7.6-17.68-16.9,7.93-16.9,17.68-16.9Zm-18.33,65.38c0,9.32-7.93,16.9-17.68,16.9s-17.68-7.58-17.68-16.9,7.93-16.9,17.68-16.9,17.68,7.58,17.68,16.9Zm-29.69-48.48c0,9.3-7.93,16.9-17.68,16.9s-17.68-7.6-17.68-16.9,7.93-16.9,17.68-16.9,17.68,7.58,17.68,16.9Zm-102.32-125.01v-11.88h116.68v11.88h-116.68Zm18.98,141.91c-9.75,0-17.68-7.6-17.68-16.9s7.93-16.9,17.68-16.9,17.68,7.58,17.68,16.9-7.95,16.9-17.68,16.9Zm14.59,31.58c0-9.32,7.93-16.9,17.68-16.9s17.68,7.58,17.68,16.9-7.93,16.9-17.68,16.9-17.68-7.58-17.68-16.9Zm147.1,83.96h-132.68v-24.77h132.68v24.77Zm-3.26-67.06c-9.75,0-17.68-7.58-17.68-16.9s7.93-16.9,17.68-16.9,17.68,7.58,17.68,16.9-7.93,16.9-17.68,16.9Zm38.59-48.48c-9.75,0-17.68-7.6-17.68-16.9s7.93-16.9,17.68-16.9,17.68,7.58,17.68,16.9-7.93,16.9-17.68,16.9Z"/>
  <g>
    <path class="cls-1" d="m310.94,62.89v103.69h147.04V62.89h-147.04Zm136.18,93.3h-125.32v-82.92h125.32v82.92Z"/>
    <polygon class="cls-1" points="338.19 138.61 334.06 129.01 431.09 90.84 435.22 100.44 338.19 138.61"/>
  </g>
</svg>