<?xml version="1.0" encoding="UTF-8"?>
<svg id="Layer_1" data-name="Layer 1" xmlns="http://www.w3.org/2000/svg" viewBox="0 0 512 512">
  <defs>
    <style>
      .cls-1 {
        stroke-width: 0px;
      }
    </style>
  </defs>
  <path class="cls-1" d="m430.67,331.04c0,10.28,0,20.56,0,30.84,0,2.82-.17,2.97-3.04,2.98-3.53.02-7.06.08-10.59-.02-1.82-.05-2.43.65-2.38,2.43.1,3.37.11,6.75,0,10.13-.06,1.87.59,2.64,2.51,2.59,3.6-.09,7.21.05,10.82-.05,2.01-.06,2.74.74,2.71,2.7-.08,4.06-.11,8.13,0,12.2.06,2.07-.6,2.91-2.76,2.83-3.68-.13-7.36.02-11.05-.05-1.51-.03-2.28.37-2.25,2.05.07,4.14.07,8.29,0,12.43-.02,1.6.77,1.93,2.14,1.92,3.76-.04,7.52.05,11.28-.04,1.88-.05,2.64.67,2.61,2.55-.06,3.91-.06,7.83,0,11.74.03,1.82-.78,2.44-2.5,2.43-9.51-.03-19.03-.04-28.54,0-1.95,0-2.71-.68-2.69-2.71.08-9.13-.02-18.26.09-27.39.03-2.3-.62-3.12-2.99-3.01-3.75.18-7.52.08-11.27.02-1.57-.03-2.06.42-2.03,2.12.14,9.43.11,18.87.16,28.3,0,1.77-.63,2.7-2.57,2.67-3.99-.08-7.98-.06-11.97,0-1.78.03-2.49-.74-2.47-2.48.04-3.76-.05-7.52.02-11.28.03-1.67-.58-2.32-2.28-2.31-9.59.05-19.18.05-28.77.01-1.66,0-2.11.75-2.1,2.25.04,3.68-.07,7.37.02,11.05.05,1.94-.57,2.82-2.62,2.78-3.91-.09-7.83-.06-11.74-.02-1.63.02-2.36-.59-2.35-2.3.04-9.67.06-19.33,0-29-.01-2.02.93-2.44,2.68-2.43,9.05.04,18.11-.06,27.16.06,2.34.03,3.11-.69,2.99-3.02-.17-3.44-.02-6.9-.02-10.35,0-3.01-.01-3.03-3.12-3.03-8.82,0-17.65.01-26.47,0-3.11,0-3.18-.09-3.18-3.27,0-3.38-.08-6.75.03-10.13.05-1.84-.68-2.41-2.44-2.37-3.83.09-7.67.03-11.51.02-2.9-.01-3.09-.21-3.09-3.19,0-3.76-.07-7.52.03-11.28.05-1.85-.51-2.64-2.48-2.58-3.83.12-7.67.09-11.51,0-1.74-.04-2.4.39-2.29,2.36.24,4.05.1,8.13.15,12.19.02,1.87-.86,2.56-2.7,2.52-3.53-.09-7.06.07-10.59-.07-2.12-.08-2.79.68-2.78,2.78.07,13.58.04,27.16.04,40.74,0,1.23-.09,2.46,0,3.68.14,2.01-.72,2.65-2.71,2.63-9.21-.08-18.41.02-27.62-.06-2.04-.02-2.81.46-2.71,2.7.16,3.67-.16,7.36.16,11.03.13,1.52-.48,2.35-2.07,2.34-4.53,0-9.05-.02-13.58,0-1.67,0-2.27-.82-2.26-2.44.03-15.27.05-30.53,0-45.8,0-1.97.82-2.53,2.62-2.49,3.99.07,7.98-.05,11.97.06,1.94.05,2.55-.69,2.48-2.56-.11-3.3-.15-6.6.01-9.89.11-2.23-.82-2.75-2.84-2.7-3.91.11-7.83-.01-11.74.04-1.98.03-2.58-.74-2.57-2.77.09-20.71.05-41.43.11-62.14,0-1.96-.88-2.22-2.54-2.22-14.73.05-29.46,0-44.19.06-2.26.01-3.35-.45-3.19-3.03.23-3.82.03-7.66.13-11.49.05-1.84-.56-2.64-2.51-2.56-3.98.16-7.96.23-11.94.16-1.64-.03-1.97.67-1.96,2.04.02,3.91.02,7.83,0,11.74-.02,2.99-.07,3.06-3.15,3.09-3.61.04-7.21-.04-10.82.03-1.93.04-2.74-.62-2.72-2.67.08-9.44.08-18.87,0-28.31-.02-2.11.78-2.87,2.85-2.8,3.76.12,7.52,0,11.28.11,1.41.04,1.95-.44,1.94-1.83-.04-3.91-.03-7.82-.02-11.74,0-1.76-.65-2.62-2.6-2.61-8.98.07-17.95.08-26.93,0-2.08-.02-2.65.8-2.6,2.73.1,3.91-.01,7.83.04,11.74.02,1.83-.65,2.63-2.57,2.62-9.59-.06-19.18-.07-28.77,0-2,.01-2.71-.73-2.7-2.7.05-15.11.05-30.23,0-45.34,0-2.14.84-2.76,2.88-2.76,15.11.05,30.23.05,45.34,0,2.09,0,2.91.72,2.85,2.81-.11,4.06.02,8.13-.13,12.19-.06,1.58.47,2.06,1.93,2.04,3.45-.04,6.91-.11,10.36.03,2.01.08,2.83-.75,2.84-2.63.03-3.91.19-7.83.02-11.73-.1-2.21.68-2.72,2.74-2.71,20.17.06,40.34.03,60.51.03q3.59,0,3.6-3.69c0-8.75,0-17.49,0-26.24,0-2.85.2-2.94,3.01-2.91,4.14.05,8.28.03,12.42-.09,1.81-.05,2.45.55,2.39,2.39-.12,3.98,0,7.97-.05,11.96-.01,1.13.47,1.53,1.49,1.54,3.91,0,7.82-.02,11.74.01,1.45.01,1.79-.9,1.92-2.06.34-3.06.24-6.13.08-9.19-.23-4.51-.27-4.5,4.16-4.5,3.68,0,7.37.06,11.04-.11,1.83-.08,2.55.54,2.54,2.3-.02,3.76.06,7.52-.02,11.28-.04,1.7.63,2.34,2.29,2.31,3.6-.06,7.21-.05,10.82,0,1.48.02,2.04-.62,2.04-2.07-.03-15.04-.03-30.07-.01-45.11,0-1.33-.48-1.98-1.88-1.96-3.76.04-7.52.05-11.28,0-1.56-.02-1.96.75-1.95,2.14.04,3.99-.06,7.98.04,11.97.05,2.17-.75,3.02-2.96,2.96-4.22-.12-8.44-.06-12.66-.03-1.62.01-2.3-.48-2.21-2.3.19-3.9.09-7.82.11-11.73,0-2.11-.76-3.19-3.16-3.05-3.44.2-6.9,0-10.35.07-1.94.04-2.74-.55-2.63-2.67.2-3.67.04-7.36.11-11.04.03-1.6-.32-2.33-2.2-2.23-4.13.22-8.27.2-12.41-.09-1.73-.12-2.48-.66-2.45-2.47.08-4.29.08-8.59,0-12.89-.04-1.87.82-2.39,2.51-2.37,4.07.05,8.13-.05,12.2.04,1.81.04,2.39-.65,2.37-2.43-.07-9.13-.03-18.26-.03-27.39,0-3.08.19-3.27,3.25-3.28,3.45-.01,6.9,0,10.36,0,2.8,0,3.07.24,3.1,2.97.04,3.61.07,7.21,0,10.82-.03,1.7.65,2.31,2.32,2.28,3.76-.07,7.52-.08,11.28,0,1.69.03,2.4-.49,2.59-2.31.39-3.84.15-7.66.05-11.49-.04-1.62.47-2.27,2.04-2.27,9.82.01,19.64.01,29.46,0,1.55,0,2.17.68,2.14,2.26-.06,4.14-.08,8.29.03,12.43.05,1.8-.8,2.3-2.34,2.3-4.07,0-8.13.07-12.2-.01-1.83-.04-2.54.38-2.4,2.46.25,3.74.22,7.52,0,11.27-.11,1.94.56,2.41,2.3,2.38,4.07-.06,8.13.04,12.2-.04,1.87-.03,2.55.54,2.45,2.54-.19,4.06-.21,8.14-.03,12.19.1,2.22-.29,3.23-2.8,3.08-4.12-.25-8.26.42-12.38.02-1.47-.14-1.84.39-1.79,1.82.14,3.6.32,7.22.07,10.8-.17,2.34.71,2.72,2.69,2.67,3.91-.1,7.83.02,11.74-.07,1.88-.05,2.49.54,2.48,2.52-.08,20.48-.03,40.97-.1,61.45,0,2.24.79,2.92,2.94,2.9,8.98-.08,17.95-.04,26.93-.03,2.99,0,3.16.18,3.18,3.09.02,3.84.06,7.67-.01,11.51-.03,1.75.58,2.48,2.41,2.44,3.99-.09,7.98.05,11.97-.05,2.03-.05,2.73.77,2.68,2.72-.08,3.37.1,6.76-.05,10.12-.11,2.37.82,3.08,3.09,2.98,3.68-.15,7.37.05,11.04-.08,2.22-.08,2.96.79,2.94,2.96-.08,8.98-.04,17.95-.03,26.93,0,3.15.1,3.25,3.2,3.27,3.45.02,6.91.06,10.36-.02,1.73-.04,2.57.55,2.55,2.36-.05,4.3-.05,8.59,0,12.89.02,1.79-.83,2.44-2.54,2.42-3.76-.05-7.52.06-11.28-.03-1.72-.04-2.29.63-2.29,2.28.04,14.81.05,29.61,0,44.42,0,1.95.82,2.52,2.64,2.48,3.53-.08,7.06.04,10.59-.04,2.09-.05,2.89.85,2.88,2.88-.05,9.21.03,18.41-.12,27.62-.03,1.96.48,2.63,2.39,2.59,3.68-.08,7.37-.11,11.05.02,2.09.07,2.82-.62,2.8-2.75-.09-8.98-.04-17.95-.03-26.93,0-3.29.11-3.4,3.33-3.4,3.76,0,7.52-.06,11.28.02,1.8.04,2.46-.65,2.42-2.43-.08-3.68-.11-7.37.02-11.05.07-2.01-.62-2.68-2.64-2.66-9.36.08-18.72.04-28.08.04-3.26,0-3.36-.12-3.36-3.37,0-3.68.05-7.37-.02-11.05-.03-1.67.61-2.34,2.31-2.3,3.99.08,7.98-.03,11.97.08,2.04.06,2.89-.58,2.81-2.76-.15-3.91.02-7.83-.07-11.74-.04-1.82.46-2.61,2.46-2.59,9.59.08,19.18.07,28.77-.03,2.26-.02,2.48,1.15,2.47,2.89-.02,10.36-.01,20.71-.01,31.07Zm-198.67-17.42h.12c0,4.75.09,9.51-.05,14.26-.05,1.61.5,2.03,1.93,2.02,3.38-.03,6.75-.02,10.13.03,2.62.04,3.09-.26,3.16-2.96.09-3.6.1-7.21-.06-10.81-.07-1.65.35-2.13,2.02-2.08,4.22.13,8.44.03,12.66.06,1.41.01,2.07-.5,2.13-2,.19-4.29.54-8.58.19-12.87-.14-1.66.41-2.2,2.02-2.16,3.76.08,7.52,0,11.28.06,1.85.03,2.62-.7,2.58-2.6-.09-3.83.1-7.68-.07-11.51-.11-2.39.82-3.07,3.07-2.99,4.06.14,8.13.13,12.2.03,1.85-.04,2.6.46,2.52,2.46-.15,4.06,0,8.13-.08,12.2-.03,1.67.63,2.38,2.29,2.37,3.61-.03,7.21.04,10.82.02,3.14-.02,3.26-.15,3.26-3.23,0-9.05.04-18.11-.03-27.16-.01-1.96.68-2.79,2.68-2.75,3.76.08,7.52.09,11.28,0,1.96-.05,2.79.66,2.75,2.67-.08,3.6.07,7.21-.05,10.82-.07,2.04.74,2.71,2.7,2.65,3.53-.11,7.06-.16,10.59-.03,2.22.08,2.91-.73,2.88-2.92-.09-8.75-.09-17.49.03-26.24.03-2.31-.68-3.06-3.01-3.03-9.05.11-18.11,0-27.16.08-1.99.02-2.74-.68-2.69-2.68.11-3.76-.02-7.52.05-11.28.03-1.6-.58-2.18-2.16-2.15-3.99.06-7.98-.07-11.97.05-2.15.06-3.03-.63-2.95-2.89.14-3.98,0-7.98.06-11.97.02-1.52-.43-2.24-2.1-2.2-4.06.08-8.13.05-12.2.01-1.43-.01-2.03.41-1.96,2.02.17,3.91.14,7.82.15,11.73,0,3.05-.23,3.28-3.25,3.28-9.13,0-18.26.04-27.39-.02-1.78-.01-2.47.56-2.42,2.38.1,3.68.07,7.37,0,11.05-.02,1.41.45,1.82,1.89,1.78,4.06-.12,8.13,0,12.2-.1,2.01-.05,2.96.58,2.95,2.73-.06,9.51-.05,19.03-.01,28.54,0,1.7-.53,2.46-2.37,2.53-9.66.37-19.32.35-28.98-.01-1.76-.07-2.45-.71-2.41-2.49.08-3.68-.01-7.37.04-11.05.02-1.49-.38-2.26-2.06-2.25-14.96.04-29.92.04-44.88,0-1.72,0-2.29.7-2.26,2.35.07,3.22,0,6.44.02,9.66.01,3.04.08,3.12,3.08,3.13,9.05.02,18.11.07,27.16-.03,2.26-.02,2.98.81,2.91,2.96-.11,3.76.14,7.53-.1,11.27-.16,2.37.74,2.9,2.84,2.85,3.91-.1,7.83,0,11.74-.06,1.63-.03,2.36.45,2.32,2.24-.1,4.75-.03,9.51-.03,14.27Zm-33.72-81.7c-10.27,0-20.54.03-30.81-.03-1.78-.01-2.46.56-2.42,2.38.09,4.67.03,9.35.03,14.02,0,4.6,0,9.2.01,13.8,0,.95-.25,2.07,1.39,2.03,4.21-.08,8.43-.11,12.64-.08,1.66,0,2.08-.86,2.09-2.31.04-3.9.13-7.79.24-11.69.08-3.01.11-3.02,3.08-3.02,14.94,0,29.89,0,44.83.06,1.43,0,1.91-.41,1.89-1.81-.06-3.6-.12-7.21.02-10.8.08-2.07-.69-2.6-2.66-2.59-10.12.08-20.23.04-30.35.04Zm148.64,98.97h-.01c0-4.44-.07-8.89.03-13.33.05-2.03-.51-2.92-2.71-2.82-3.67.16-7.35.13-11.03.02-1.81-.05-2.46.6-2.42,2.38.08,3.68-.05,7.36.04,11.03.05,2-.74,2.74-2.72,2.69-3.75-.09-7.51,0-11.26-.04-1.44-.02-2.09.5-2.07,2,.05,3.98.06,7.97,0,11.95-.03,1.62.66,2.15,2.19,2.14,9.19-.03,18.39-.04,27.58,0,1.81,0,2.42-.74,2.4-2.48-.07-4.52-.02-9.04-.02-13.56Zm-98.94-199.82c0,4.75.04,9.49-.02,14.24-.02,1.58.57,2.19,2.15,2.16,3.52-.07,7.04-.01,10.56-.02,3.38,0,3.62-.18,3.65-3.65.05-6.66.03-13.32,0-19.98,0-2.06-.13-4.12-.16-6.17-.02-1.74-.84-2.4-2.59-2.36-3.83.08-7.66.12-11.48-.02-1.83-.07-2.18.63-2.15,2.26.09,4.52.03,9.03.03,13.55Zm32.95,182.68s-.04,0-.07,0c0,4.91.05,9.81-.03,14.72-.02,1.36.59,1.48,1.67,1.48,4.29,0,8.59.03,12.88.13,1.39.03,1.72-.66,1.72-1.83,0-9.51-.01-19.03,0-28.54,0-1.31-.42-1.97-1.86-1.95-4.22.05-8.44.04-12.66,0-1.25-.01-1.73.34-1.7,1.73.1,4.75.04,9.51.04,14.26Zm-32.96-107.81c0,2.07.04,4.14-.01,6.2-.04,1.41.44,2.14,1.97,2.12,4.06-.05,8.12-.04,12.18-.02,1.19,0,1.79-.43,1.97-1.69.61-4.28.03-8.55.07-12.83.01-1.26-.66-1.89-2.04-1.87-4.06.06-8.12.07-12.18.01-1.54-.02-2.01.68-1.97,2.09.06,1.99.01,3.98.01,5.97Zm158.07,174.69c-2.07,0-4.14.06-6.2-.02-1.54-.06-2.34.43-2.16,2.09.45,4.12.14,8.25,0,12.37-.05,1.4.62,1.92,1.94,1.92,4.14-.02,8.27-.01,12.41,0,1.32,0,1.99-.56,1.99-1.92-.01-4.21-.02-8.42.01-12.64.01-1.43-.7-1.85-2.01-1.81-1.99.06-3.98.02-5.97.01Zm-158.07-42.01c0,2.07.04,4.14-.01,6.2-.04,1.44.53,2.12,2.01,2.1,3.98-.03,7.96-.04,11.94.01,1.42.02,2.12-.57,2.25-1.97.41-4.13.07-8.25-.08-12.37-.05-1.22-.67-1.76-1.91-1.75-4.13.03-8.27.03-12.4,0-1.43,0-1.85.74-1.82,2.03.04,1.91.01,3.83.02,5.74Zm115.93-49.72h.01c0-1.99-.06-3.98.02-5.96.07-1.73-.67-2.22-2.34-2.18-3.96.1-7.93.58-11.9.08-1.25-.16-1.87.37-1.87,1.65.01,4.21.03,8.41,0,12.62-.01,1.47.66,2.06,2.08,2.05,3.98-.04,7.95-.07,11.93-.03,1.63.02,2.14-.75,2.09-2.25-.07-1.99-.02-3.98-.02-5.96Zm-7.94,58.98c-2.07,0-4.14.03-6.21,0-1.37-.02-1.94.61-1.93,1.95.03,4.07.04,8.13.02,12.2,0,1.35.61,1.94,1.96,1.93,3.99-.02,7.98-.03,11.97.01,1.58.02,2.19-.67,2.17-2.22-.05-3.91-.06-7.82,0-11.74.02-1.6-.67-2.2-2.22-2.15-1.92.06-3.84.02-5.75.02Zm-124.02,40.79c0,1.92.09,3.84-.02,5.75-.11,1.85.52,2.66,2.47,2.6,3.45-.1,6.9-.1,10.34,0,1.69.05,2.28-.67,2.42-2.26.37-4.14.07-8.27.14-12.4.02-1.47-.91-1.74-2.13-1.73-3.76.02-7.51.05-11.27,0-1.53-.03-2.02.64-1.97,2.08.07,1.99.02,3.98.02,5.98Zm97.96-82.38s.04,0,.06,0c0-2.22-.1-4.44.04-6.65.1-1.5-.51-1.87-1.84-1.86-3.82.03-7.65.05-11.47-.03-1.61-.03-1.92.78-1.91,2.14.04,3.98.06,7.96-.01,11.93-.03,1.69.65,2.36,2.29,2.34,3.67-.04,7.34-.05,11.01-.03,1.32,0,1.95-.41,1.86-1.88-.12-1.98-.03-3.98-.03-5.96Zm34.94,82.5h.03c0,2.07.04,4.14-.01,6.2-.04,1.49.64,2.03,2.08,2.01,3.6-.05,7.2-.04,10.8,0,1.52.02,2.26-.56,2.25-2.16-.04-4.06-.03-8.12.02-12.18.02-1.45-.51-2.07-2.02-2.05-3.67.07-7.35.07-11.03,0-1.63-.03-2.18.67-2.13,2.2.06,1.99.01,3.98.01,5.97Zm-132.9-32.99c0,1.99.06,3.98-.02,5.96-.06,1.57.57,2.22,2.14,2.2,3.59-.05,7.19-.04,10.78,0,1.37.02,2.21-.46,2.29-1.91.22-4.04.27-8.09.09-12.14-.06-1.33-.7-2.07-2.18-2.05-3.75.05-7.49.04-11.24,0-1.4-.01-1.89.65-1.86,1.97.04,1.99.01,3.98.01,5.96Zm-126.11-108.67s0-.07,0-.11c2.14,0,4.29-.04,6.43.01,1.43.03,2.12-.52,2.11-2.01-.03-3.75-.02-7.51,0-11.26,0-1.22-.46-1.84-1.76-1.83-4.29.03-8.58.03-12.87,0-1.19,0-1.56.42-1.54,1.64.07,4.06.03,8.12-.04,12.17-.02,1.14.35,1.46,1.46,1.42,2.06-.08,4.13-.02,6.2-.02Z"/>
  <path class="cls-1" d="m139.61,314.16c18.56,0,37.12.04,55.68-.05,2.31-.01,2.98.86,2.9,2.97-.09,2.45-.01,4.91-.01,7.36,0,34.2,0,68.41,0,102.61,0,3.54-.08,3.62-3.59,3.62-36.51,0-73.01,0-109.52,0-3.7,0-3.75-.05-3.75-3.7,0-36.51,0-73.01,0-109.52,0-3.32.02-3.3,3.32-3.3,18.33.01,36.66,0,54.99,0h0Zm-41.32,58.51c0,12.73.01,25.47,0,38.2,0,3.11-.05,3.13,3.11,3.13,25.08,0,50.17,0,75.25,0q4.79,0,4.79-4.84c0-19.02.02-38.04.02-57.06,0-5.9-.03-11.79-.05-17.69,0-3.25-.32-3.58-3.49-3.58-25.54,0-51.09.02-76.63-.04-2.28,0-3.07.63-3.05,2.99.1,12.96.05,25.93.04,38.89Z"/>
  <path class="cls-1" d="m139.56,197.88c-18.26,0-36.51,0-54.77,0-3.37,0-3.48-.12-3.48-3.5,0-36.59,0-73.18,0-109.77,0-3.19.13-3.31,3.42-3.31,36.59,0,73.18,0,109.77,0,3.4,0,3.67.26,3.67,3.67,0,36.51,0,73.02,0,109.54,0,3.23-.14,3.37-3.38,3.37-18.41,0-36.82,0-55.23,0Zm-41.28-58.15h.01c0,12.5,0,25.01,0,37.51q0,4.22,4.16,4.23c25.08,0,50.17,0,75.25,0,.46,0,.92-.03,1.38,0,1.5.09,2.28-.47,2.25-2.11-.04-2.22.11-4.44.11-6.66,0-21.71,0-43.42,0-65.13,0-2.3-.05-4.59-.1-6.89-.04-1.66-.76-2.42-2.57-2.42-26.16.04-52.32.04-78.48,0-1.59,0-2.09.46-2.08,2.11.07,13.12.04,26.24.04,39.35Z"/>
  <path class="cls-1" d="m372.44,197.88c-18.26,0-36.52,0-54.78,0-3.53,0-3.53-.03-3.53-3.62,0-36.44,0-72.89,0-109.33,0-3.53.1-3.63,3.6-3.63,36.44,0,72.89,0,109.33,0,3.55,0,3.62.06,3.63,3.58.02,36.37.03,72.73.04,109.1,0,3.89-.02,3.9-3.96,3.9-18.11,0-36.21,0-54.32,0Zm-.17-16.53s0,.09,0,.13c12.8,0,25.61,0,38.41,0,3.32,0,3.34,0,3.34-3.31,0-25.54,0-51.07,0-76.61,0-3.24-.01-3.25-3.15-3.25-25.61,0-51.23,0-76.84,0-3.19,0-3.24.04-3.25,3.19-.01,13.96,0,27.91,0,41.87,0,11.81.03,23.62-.01,35.43,0,1.75.33,2.62,2.4,2.61,13.03-.09,26.06-.04,39.09-.04Z"/>
  <path class="cls-1" d="m397.42,247.08c4.9,0,9.81-.07,14.71.04,1.48.03,1.9-.5,1.89-1.83-.02-3.83.07-7.67-.03-11.49-.05-1.9.64-2.6,2.53-2.56,3.98.09,7.97.06,11.95.01,1.57-.02,2.2.64,2.2,2.19-.02,9.73-.03,19.47.01,29.2,0,1.82-.8,2.41-2.53,2.38-3.68-.07-7.36.07-11.03-.06-1.96-.07-2.53.69-2.47,2.55.1,3.52-.04,7.05.05,10.57.05,1.79-.49,2.56-2.42,2.75-4.46.45-8.88-.13-13.32-.09-1.49.02-2-.76-1.98-2.16.04-3.45.03-6.9.03-10.35,0-3.22-.01-3.23-3.13-3.24-3.76,0-7.51-.07-11.26.02-2.02.05-2.71-.77-2.66-2.73.09-4.21.1-8.43,0-12.64-.05-2.04.83-2.68,2.75-2.66,4.9.07,9.81.02,14.71.02,0,.02,0,.04,0,.06Z"/>
  <path class="cls-1" d="m389.01,231.9c-2.22,0-4.45-.04-6.67.01-1.6.04-2.4-.51-2.38-2.26.07-4.45.04-8.9,0-13.34-.01-1.48.65-2.07,2.08-2.06,4.6.02,9.2.01,13.8,0,1.12,0,1.95.27,1.95,1.65.02,4.44.05,8.89.16,13.33.05,1.98-.77,2.79-2.74,2.7-2.07-.09-4.14-.02-6.21-.02h0Z"/>
  <path class="cls-1" d="m297.81,388.9c0,2.22-.08,4.45.03,6.66.08,1.53-.54,2.09-1.98,2.08-4.52-.03-9.04-.04-13.56-.01-1.53,0-2.24-.6-2.22-2.18.04-4.44.04-8.89,0-13.33-.02-1.58.67-2.18,2.22-2.17,4.44.04,8.89.03,13.33,0,1.62-.01,2.38.5,2.25,2.3-.16,2.21-.04,4.44-.04,6.66,0,0-.02,0-.03,0Z"/>
  <path class="cls-1" d="m81.31,288.93c0-2.14.03-4.29,0-6.43-.03-1.59.54-2.41,2.27-2.38,4.13.06,8.27.05,12.41,0,1.7-.02,2.32.77,2.31,2.37-.03,4.29-.04,8.58,0,12.87.02,1.77-.79,2.46-2.52,2.44-3.98-.05-7.97-.07-11.95,0-1.91.03-2.6-.82-2.53-2.64.07-2.07.02-4.14.02-6.2Z"/>
  <path class="cls-1" d="m288.95,414c2.3,0,4.6.03,6.89-.01,1.46-.03,2.02.53,2,2.05-.08,4.21-.04,8.43.02,12.64.02,1.38-.56,1.99-1.89,1.99-4.6,0-9.19,0-13.79,0-1.41,0-2.11-.66-2.1-2.11.02-4.21.02-8.43,0-12.64,0-1.36.63-1.94,1.97-1.92,2.3.03,4.6,0,6.89,0h0Z"/>
  <path class="cls-1" d="m297.83,256.15c0,2.22-.08,4.45.03,6.67.07,1.63-.63,2.2-2.16,2.19-4.37-.03-8.74-.05-13.11,0-1.73.02-2.53-.63-2.51-2.42.06-4.37.06-8.74,0-13.11-.02-1.77.71-2.49,2.46-2.47,4.37.05,8.74.03,13.11.02,1.53,0,2.23.63,2.17,2.23-.08,2.3-.02,4.6-.02,6.9.01,0,.02,0,.04,0Z"/>
  <path class="cls-1" d="m139.97,397.63c-7.6,0-15.19-.05-22.79.03-2.05.02-2.85-.6-2.84-2.76.07-15.04.07-30.08,0-45.11-.01-2.25.84-2.91,2.99-2.9,14.96.06,29.92.06,44.88,0,2.07,0,2.88.7,2.87,2.8-.05,15.27-.05,30.54,0,45.8,0,1.74-.65,2.21-2.33,2.19-7.59-.08-15.19-.03-22.79-.03h0Z"/>
  <path class="cls-1" d="m114.38,139.6c0-7.51.05-15.03-.03-22.54-.02-1.96.59-2.72,2.63-2.71,15.03.06,30.06.06,45.08-.02,2.35-.01,3.05.86,3.04,3.1-.06,14.87-.02,29.75-.03,44.62,0,2.82-.24,3.06-3,3.06-14.87.01-29.75,0-44.62,0-2.89,0-3.06-.2-3.06-3.2,0-7.44,0-14.87,0-22.31Z"/>
  <path class="cls-1" d="m372.29,165.12c-7.52,0-15.04-.05-22.55.03-2.09.02-2.85-.73-2.85-2.81.05-15.04.06-30.07,0-45.11,0-2.22.84-2.91,3-2.9,15.03.07,30.07.07,45.11,0,2.18,0,3.03.7,2.98,2.92-.2,9.89.08,19.78-.2,29.68-.15,5.12.13,10.26.07,15.4-.03,2.42-.97,2.84-3,2.82-7.52-.06-15.03-.02-22.55-.02Z"/>
</svg>