<?xml version="1.0" encoding="UTF-8"?>
<svg id="Layer_1" data-name="Layer 1" xmlns="http://www.w3.org/2000/svg" viewBox="0 0 512 512">
  <defs>
    <style>
      .cls-1 {
        stroke-width: 0px;
      }
    </style>
  </defs>
  <circle class="cls-1" cx="252.51" cy="156.6" r="69.77"/>
  <circle class="cls-1" cx="371.4" cy="205.72" r="49.12"/>
  <circle class="cls-1" cx="133.62" cy="205.72" r="49.12"/>
  <g>
    <path class="cls-1" d="m130.53,319.91c0,2.33,0,4.66,0,6.98s0,4.53,0,6.8c0,.69-.07,1.06-.97.75-1.31-.47-2.59-.99-3.79-1.67-2.16-1.23-3.11-3.15-3.06-5.64.07-3.34,1.63-5.64,4.67-6.98.71-.32,1.45-.61,2.16-.92.72-.32.99-.05.99.68Z"/>
    <path class="cls-1" d="m144.71,320.04c.41.21.81.44,1.19.68v17.7c-1.06-.24-1.18-.5-1.18-1.73-.01-5.5-.01-11.01-.01-16.65Z"/>
    <path class="cls-1" d="m145.25,353.47c.22.09.43.18.65.26v15.83c-1.25.38-1.2-.1-1.19-2.15.01-2.05,0-4.09,0-6.13h-.02v-7.26c0-.37-.14-.85.56-.55Z"/>
    <path class="cls-1" d="m145.9,269.95v36.19c-.05-.01-.11-.03-.16-.04-.78-.19-1.04-.55-1.03-1.29.02-3.06.02-6.11.02-9.17h-14.17c-.01,2.87-.02,5.74-.04,8.6-.01,1.27-.06,1.22-1.31,1.42-5.5.92-10.55,2.77-14.64,6.8-3.47,3.42-5.76,7.47-6.34,12.26-.7,5.89-.23,11.67,3.73,16.57,2.09,2.59,4.78,4.35,7.84,5.56,3.2,1.26,6.5,2.17,9.84,2.95.64.15.88.51.88,1.13-.01,5.95-.01,11.91,0,17.86,0,.67-.28.73-.82.54-3.38-1.18-5.8-3.33-6.93-6.8-.29-.9-.63-1.79-.77-2.71-.15-.92-.62-1.09-1.42-1.09-3.12.03-6.24.01-9.36.02-1.13,0-2.27.01-3.4,0-.67,0-.96.28-.96.97.04,6.36,2.24,11.8,6.96,16.14,3.31,3.04,7.22,4.95,11.57,6.08,1.28.33,2.54.7,3.86.86.89.11,1.31.52,1.28,1.49-.05,1.95.01,3.91.02,5.86h14.17c0-1.89.02-3.78-.03-5.67-.03-.89.28-1.27,1.18-1.43h.02v42.12h-57.55c-16.78,0-30.39-13.6-30.39-30.38v-36.9c0-48.57,39.37-87.94,87.94-87.94Z"/>
  </g>
  <g>
    <path class="cls-1" d="m366.65,374c-.18-.06-.36-.13-.54-.2v-19.44c.16.04.31.07.47.11.65.15.88.5.88,1.13,0,5.95-.01,11.9.01,17.86,0,.67-.28.73-.82.54Z"/>
    <path class="cls-1" d="m366.51,339.1c-.13-.05-.27-.09-.4-.15v-14.9c.13-.05.25-.1.38-.16.71-.31.98-.04.98.69-.01,2.32-.01,4.65-.01,6.98s0,4.53.01,6.79c0,.7-.07,1.07-.96.75Z"/>
    <path class="cls-1" d="m381.66,372.07v-6.12h-.03v-7.26c0-.37-.13-.86.56-.56,1.49.65,3.09,1.05,4.5,1.92,2.46,1.52,3.46,3.66,3.22,6.59-.32,3.83-2.6,5.88-5.9,7.15-2.44.95-2.36.84-2.35-1.72Z"/>
    <path class="cls-1" d="m454.04,357.89v36.9c0,16.78-13.6,30.38-30.38,30.38h-57.55v-37.71s.06.01.09.01c.9.11,1.31.52,1.29,1.49-.06,1.95,0,3.9.01,5.85h14.18c-.01-1.88.02-3.77-.04-5.66-.03-.89.28-1.27,1.19-1.43,3.76-.67,7.43-1.67,10.78-3.57,5.59-3.18,9.5-7.75,11.02-14.07,1.34-5.62.99-11.14-1.93-16.28-1.77-3.09-4.41-5.28-7.61-6.83-3.82-1.84-7.85-3.02-12-3.84-1.29-.25-1.43-.45-1.43-1.77-.01-5.51,0-11.02,0-16.66,2.27,1.19,4.12,2.69,5.08,5.07.46,1.14.84,2.31.94,3.55.05.58.39.82.94.82,4.47,0,8.94.01,13.42.01.71,0,1.02-.34.95-1.07-.37-3.76-1.1-7.39-3.04-10.71-2.28-3.9-5.55-6.68-9.49-8.79-2.46-1.32-5.1-2.14-7.78-2.81-.77-.2-1.04-.55-1.03-1.3.02-3.05.02-6.1.03-9.16h-14.18c-.01,2.87-.02,5.73-.04,8.6-.01,1.27-.06,1.21-1.31,1.42-.01,0-.03,0-.04.01v-40.39c48.57,0,87.93,39.37,87.93,87.94Z"/>
  </g>
  <g>
    <path class="cls-1" d="m299.26,243.95h-91.87c-23.4,0-42.38,18.97-42.38,42.38v138.84h176.63v-138.84c0-23.41-18.97-42.38-42.38-42.38Zm1.12,71.36h-26.56v-30.17h10.12l16.44,18.39v11.78Zm0,86h-88.51v-116.17h56.64v35.48h31.87v80.69Z"/>
    <path class="cls-1" d="m259.74,391.05h-7.24c0-1-.03-1.99,0-2.99.01-.5-.2-.7-.66-.76-.67-.08-1.32-.27-1.97-.44-2.22-.57-4.22-1.55-5.91-3.11-2.41-2.21-3.53-4.99-3.55-8.24,0-.35.15-.5.49-.5.58,0,1.16,0,1.74,0,1.59,0,3.18,0,4.78,0,.41,0,.65.09.72.55.07.47.25.93.4,1.39.57,1.77,1.81,2.87,3.54,3.47.27.1.42.07.42-.28,0-3.04,0-6.08,0-9.12,0-.32-.12-.5-.45-.58-1.7-.4-3.39-.86-5.02-1.51-1.56-.62-2.94-1.52-4-2.84-2.02-2.5-2.26-5.45-1.9-8.46.29-2.45,1.47-4.51,3.24-6.26,2.09-2.06,4.67-3,7.47-3.47.64-.11.67-.08.67-.73,0-1.46.01-2.93.02-4.39h7.24c0,1.56,0,3.12-.01,4.68,0,.38.13.56.52.66,1.37.34,2.71.76,3.97,1.44,2.01,1.08,3.68,2.5,4.84,4.49.99,1.69,1.36,3.55,1.55,5.46.04.37-.12.55-.49.55-2.28,0-4.56,0-6.85,0-.28,0-.45-.12-.48-.42-.05-.63-.25-1.23-.48-1.81-.49-1.22-1.44-1.98-2.6-2.59,0,2.88,0,5.69,0,8.5,0,.67.07.77.73.9,2.12.42,4.17,1.02,6.12,1.96,1.63.79,2.98,1.91,3.88,3.49,1.49,2.62,1.67,5.44.99,8.31-.77,3.23-2.77,5.56-5.62,7.18-1.71.97-3.58,1.48-5.5,1.82-.46.08-.62.28-.61.73.03.96.01,1.93.02,2.89Zm-.02-14.74h.01c0,1.04,0,2.09,0,3.13,0,1.3-.05,1.36,1.2.88,1.68-.65,2.85-1.7,3.01-3.65.12-1.49-.39-2.59-1.64-3.37-.72-.44-1.53-.65-2.3-.98-.35-.15-.28.1-.28.28,0,1.24,0,2.47,0,3.71Zm-7.23-17.55c0-1.19,0-2.38,0-3.56,0-.37-.13-.51-.5-.35-.37.16-.74.31-1.11.47-1.55.68-2.35,1.86-2.38,3.57-.03,1.27.46,2.25,1.57,2.88.61.35,1.27.61,1.93.85.46.16.49-.03.49-.38,0-1.16,0-2.31,0-3.47Z"/>
    <path class="cls-1" d="m273.22,315.91v-35.49h-66.06v125.6h97.93v-90.11h-31.87Zm27.16,85.4h-88.51v-116.17h56.64v35.48h31.87v80.69Z"/>
    <path class="cls-1" d="m286.05,280.42h-16.94v39.6h35.98v-18.29l-19.04-21.31Zm14.33,34.89h-26.56v-30.17h10.12l16.44,18.39v11.78Z"/>
    <rect class="cls-1" x="224.86" y="297.87" width="21.35" height="4.71"/>
    <rect class="cls-1" x="224.86" y="315.31" width="21.35" height="4.71"/>
  </g>
</svg>