<?xml version="1.0" encoding="UTF-8"?>
<svg id="Layer_1" data-name="Layer 1" xmlns="http://www.w3.org/2000/svg" viewBox="0 0 512 512">
  <defs>
    <style>
      .cls-1 {
        stroke-width: 0px;
      }
    </style>
  </defs>
  <path class="cls-1" d="m363.24,54.52H98.5c-19.17,0-34.7,15.53-34.7,34.7v286.25c0,19.13,15.53,34.67,34.7,34.67h18.9v45.92c0,16.91,13.77,30.65,30.65,30.65h136.29c16.91,0,30.65-13.74,30.65-30.65v-45.92h48.25c19.13,0,34.67-15.53,34.67-34.67V89.23c0-19.17-15.53-34.7-34.67-34.7Zm-234.36,401.53v-35.28h35.78v54.45h-16.61c-10.56,0-19.17-8.61-19.17-19.17Zm174.63,0c0,10.56-8.61,19.17-19.17,19.17h-72.78v-54.45h91.95v35.28ZM99.08,179.84h72.05v46.87h-72.05v-46.87Zm163.27,65.93v46.91h-72.01v-46.91h72.01Zm-72.01-19.05v-46.87h72.01v46.87h-72.01Zm72.01,85.02v46.87h-72.01v-46.87h72.01Zm-163.27-65.97h72.05v46.91h-72.05v-46.91Zm0,112.84v-46.87h72.05v46.87h-72.05Zm255.6,0h-72.05v-46.87h72.05v46.87Zm0-65.93h-72.05v-46.91h72.05v46.91Zm0-65.97h-72.05v-46.87h72.05v46.87Zm5.13-82.3H102.86v-54.68h256.94v54.68Z"/>
  <rect class="cls-1" x="430.15" y="124.88" width="41.03" height="246.19" rx="5.36" ry="5.36"/>
</svg>