<?xml version="1.0" encoding="UTF-8"?>
<svg id="Layer_1" data-name="Layer 1" xmlns="http://www.w3.org/2000/svg" viewBox="0 0 512 512">
  <defs>
    <style>
      .cls-1 {
        stroke-width: 0px;
      }
    </style>
  </defs>
  <circle class="cls-1" cx="251.46" cy="204.74" r="69.77"/>
  <circle class="cls-1" cx="370.35" cy="253.86" r="49.12"/>
  <circle class="cls-1" cx="132.57" cy="253.86" r="49.12"/>
  <g>
    <path class="cls-1" d="m278.49,439.24c.28.82.2,1.74.01,2.61-.05.23-.3.28-.52.28-.32.01-.64.02-.95.02h-59.95c-1.52,0-1.52-.01-1.52-1.48,0-.32.02-.64,0-.96-.04-.59.24-.84.82-.81.25.02.49,0,.74,0,19.95,0,39.89,0,59.84.02.52,0,1.3-.33,1.53.32Z"/>
    <path class="cls-1" d="m278.55,447.42c.2.84-.05,1.61-.79,2.16-.58.43-1.24.43-1.92.43-10.38-.01-20.76-.01-31.14-.01-8.82,0-17.65.01-26.48,0-1.51,0-2.29-.57-2.58-1.83-.23-1.01-.05-1.26,1.02-1.26,4.13-.01,8.26-.01,12.39-.01h18.12c9.95,0,19.91,0,29.86.02.53,0,1.32-.35,1.52.5Z"/>
    <path class="cls-1" d="m215.55,430.24c-.09-1,.24-1.35,1.29-1.33,3.38.06,6.77.02,10.16.02,6.08,0,12.15.04,18.22-.03,3.05-.03,5.38-1.49,6.7-4.24,1.3-2.74,1-5.44-.83-7.89-1.15-1.54-2.72-2.44-4.6-2.78-5.83-1.08-11.66-2.14-17.49-3.19-1.69-.31-3.15-1.02-4.29-2.31-.16-.18-.43-.34-.27-.62.12-.21.38-.15.58-.16.18-.01.36-.01.53-.01,16.78,0,33.55,0,50.32.01.42,0,.86-.01,1.26.08.98.22,1.47,1.04,1.47,2.39.01,5.65.01,11.3.01,16.95,0,1.91-.05,3.82.02,5.72.03,1.04-.35,1.32-1.35,1.31-10.06-.02-20.13-.01-30.19-.01h-30.08c-1.45,0-1.45-.01-1.45-1.47,0-.82.06-1.63-.01-2.44Z"/>
    <path class="cls-1" d="m298.21,292.1h-91.87c-23.4,0-42.38,18.98-42.38,42.39v138.83h176.63v-138.83c0-23.41-18.97-42.39-42.38-42.39Zm-14.92,157.33c-.91,2.81-2.68,4.69-5.67,5.24-.51.1-1.05.11-1.58.11-19.28.01-38.56.01-57.84.01-4.42-.01-7.37-2.94-7.39-7.39-.03-5.83-.03-11.65.01-17.48.01-.92-.2-1.38-1.2-1.56-3.02-.56-5.68-2.09-8.45-3.32-1.67-.75-3.35-1.51-4.99-2.32-.71-.34-1.01-.29-1.29.53-1.05,3.13-3.49,4.83-6.82,4.84-2.04.01-4.09.01-6.14,0-4.29-.01-7.2-2.9-7.2-7.17v-28.92c0-3.94,2.4-6.75,6.36-7.12,2.7-.25,5.43-.25,8.14.05,2.49.29,4.26,1.66,5.3,3.89.38.82.8.95,1.61.8,8.85-1.61,17.71-3.19,26.56-4.78,4.62-.82,9.23-1.64,13.86-2.43,3.27-.56,6.4,0,9.38,1.39,5.18,2.42,10.34,4.89,15.51,7.33,2.41,1.14,4.24,2.9,5.52,5.23,1.04,1.89,2.13,3.75,3.12,5.66.39.74.87.99,1.67.95,1.31-.06,2.62.06,3.92-.03,4.11-.28,6.75,2.23,7.61,5.39v41.1Z"/>
  </g>
  <g>
    <path class="cls-1" d="m144.44,412.29c.15.04.28.1.4.18v15.68c-.09.01-.19.02-.31.02-6.06-.02-12.11-.01-18.17-.01h-18.11c-.87,0-.87-.01-.87-.89,0-.49.03-.98-.01-1.46-.05-.61.15-.82.78-.81,2.04.04,4.08.02,6.12.01,3.65,0,7.31.03,10.96-.01,1.84-.02,3.24-.9,4.03-2.56.79-1.64.61-3.27-.5-4.74-.69-.93-1.63-1.47-2.77-1.68-3.5-.64-7.01-1.28-10.52-1.92-1.02-.18-1.9-.61-2.59-1.39-.09-.1-.25-.2-.15-.37.07-.13.22-.09.35-.1h30.6c.25,0,.52,0,.76.05Z"/>
    <path class="cls-1" d="m144.34,431.03c.15,0,.34-.05.5-.05v1.98c-.15,0-.31,0-.46,0h-36.08q-.92,0-.92-.89c0-.19.01-.38,0-.57-.02-.36.14-.51.49-.49.15,0,.3,0,.45,0,12,0,24.01,0,36.02,0Z"/>
    <path class="cls-1" d="m144.38,435.84c.14,0,.31-.03.46-.03v1.62s-.01.01-.02.02c-.35.26-.75.25-1.16.25h-34.68c-.91,0-1.38-.34-1.55-1.1-.14-.61-.03-.76.61-.76,2.49-.01,4.98,0,7.46,0h10.9c6,0,11.99-.01,17.98,0Z"/>
    <path class="cls-1" d="m144.84,318.09v91.36c-.4-.09-.82-.11-1.27-.08-.79.05-1.58-.02-2.36.02-.49.02-.77-.13-1.01-.58-.59-1.15-1.25-2.27-1.87-3.4-.78-1.41-1.88-2.46-3.33-3.15-3.11-1.47-6.21-2.96-9.33-4.41-1.8-.84-3.68-1.18-5.65-.84-2.78.47-5.56.97-8.34,1.46-5.33.96-10.66,1.91-15.99,2.88-.49.09-.74.01-.97-.48-.63-1.34-1.69-2.17-3.19-2.34-1.63-.19-3.28-.18-4.9-.03-2.38.22-3.83,1.91-3.83,4.28v17.41c.01,2.57,1.75,4.31,4.34,4.32h3.69c2.01-.01,3.47-1.03,4.11-2.92.16-.49.35-.52.77-.32.99.49,2,.94,3.01,1.4,1.66.74,3.27,1.66,5.09,2,.6.11.72.38.72.94-.03,3.5-.03,7.01-.01,10.52.01,2.68,1.79,4.44,4.45,4.44,11.6.01,23.21.01,34.82,0,.31,0,.64-.01.95-.06.03-.01.07-.01.1-.02v32.82h-57.55c-16.78,0-30.38-13.6-30.38-30.38v-36.91c0-48.56,39.37-87.93,87.93-87.93Z"/>
  </g>
  <g>
    <path class="cls-1" d="m416.62,437.63c.12.5-.03.96-.47,1.29-.35.26-.75.26-1.16.26h-34.68c-.91,0-1.38-.35-1.55-1.1-.15-.61-.03-.76.61-.77h18.36c5.99,0,11.99,0,17.98.01.32,0,.79-.21.91.31Z"/>
    <path class="cls-1" d="m416.59,434.27c-.03.14-.18.17-.31.17-.19.01-.38.01-.58.01h-36.08q-.91,0-.91-.89c0-.19.01-.39,0-.58-.02-.35.14-.51.49-.48.15.01.3,0,.45,0,12,0,24.01,0,36.01.01.32,0,.79-.2.92.19.18.49.12,1.05.01,1.57Z"/>
    <path class="cls-1" d="m416.66,425.41c0,1.15-.03,2.3.01,3.44.02.63-.21.8-.81.79-6.06-.01-12.12-.01-18.17-.01h-18.11q-.87,0-.87-.88c0-.49.03-.98-.01-1.47-.06-.6.14-.81.77-.8,2.04.03,4.08.01,6.12.01,3.66,0,7.32.03,10.97-.01,1.83-.02,3.24-.9,4.03-2.56.79-1.65.6-3.27-.5-4.75-.69-.92-1.64-1.46-2.77-1.67-3.51-.65-7.01-1.29-10.52-1.92-1.02-.18-1.9-.61-2.59-1.39-.09-.11-.26-.21-.16-.38.07-.12.23-.08.35-.09.11,0,.22,0,.32,0h30.29c.25,0,.51,0,.76.05.58.13.88.62.88,1.44.01,3.4.01,6.8.01,10.2Z"/>
    <path class="cls-1" d="m452.99,406.02v36.91c0,16.78-13.6,30.38-30.38,30.38h-57.55v-48.36c.53-.47.94-1.1,1.21-1.88.16-.5.35-.53.77-.32.99.49,2,.94,3.01,1.39,1.66.75,3.27,1.67,5.08,2,.61.11.73.39.72.94-.02,3.51-.02,7.02,0,10.52.01,2.68,1.79,4.45,4.45,4.45h34.81c.32,0,.64-.01.95-.07,1.8-.33,2.87-1.46,3.42-3.15v-24.74c-.52-1.9-2.11-3.42-4.59-3.25-.78.06-1.57-.01-2.35.02-.49.03-.78-.13-1.01-.57-.6-1.15-1.25-2.27-1.88-3.41-.77-1.4-1.87-2.46-3.32-3.14-3.11-1.47-6.22-2.96-9.34-4.41-1.79-.84-3.67-1.18-5.64-.85-2.79.48-5.57.97-8.35,1.47-5.33.95-10.65,1.91-15.98,2.88-.49.09-.74.01-.97-.49-.26-.55-.59-1.01-.99-1.36v-82.89c48.56,0,87.93,39.37,87.93,87.93Z"/>
  </g>
  <path class="cls-1" d="m480.57,112.5c-4.58-2.93-7.11-7.9-7.11-13.01,0-2.47.6-4.99,1.84-7.31,5.76-10.76-2.52-22.82-13.52-22.82-1.63,0-3.34.27-5.08.86-1.63.55-3.31.82-4.95.82-6.04,0-11.71-3.55-14.22-9.37-2.69-6.28-8.44-9.38-14.19-9.38-6.07,0-12.11,3.45-14.57,10.21-2.26,6.26-8.16,10.22-14.54,10.22-1.35,0-2.74-.18-4.1-.56-10.55-2.89-19.62,5.45-19.62,14.95,0,2.66.72,5.43,2.34,8.07,1.54,2.51,2.29,5.31,2.29,8.08,0,4.8-2.23,9.5-6.37,12.51-4.37,3.19-6.38,7.81-6.38,12.4,0,7.26,5.05,14.4,13.6,15.45,7.79.96,13.58,7.56,13.58,15.33,0,.24,0,.47-.01.71-.42,9.61,7.38,16.17,15.56,16.17,3.75,0,7.57-1.38,10.72-4.46,5.76-5.65,14.9-5.92,20.99-.6,10.14,8.83,25.64,1.39,25.64-11.55,0-.55-.03-1.12-.09-1.69-.06-.54-.08-1.06-.08-1.59,0-7.38,5.27-13.85,12.69-15.21,8.11-1.48,12.69-8.36,12.69-15.32,0-4.87-2.24-9.78-7.11-12.91Zm-55.52,24.98c-12.94,0-23.42-10.48-23.42-23.42s10.48-23.42,23.42-23.42,23.42,10.48,23.42,23.42-10.5,23.42-23.42,23.42Z"/>
</svg>