<?xml version="1.0" encoding="UTF-8"?>
<svg id="Layer_1" data-name="Layer 1" xmlns="http://www.w3.org/2000/svg" viewBox="0 0 512 512">
  <defs>
    <style>
      .cls-1 {
        stroke-width: 0px;
      }
    </style>
  </defs>
  <path class="cls-1" d="m365.19,103.35l-27.95-27.72-23.71-23.56H77.72c-23.09,0-41.85,18.77-41.85,41.85v349.58c0,24.34,19.79,44.13,44.13,44.13h260.85c26.38,0,47.9-21.52,47.9-47.9V126.67l-23.56-23.32Zm-64.15-30.47l2.75,2.75,53.55,53.08h-56.3v-55.83Zm64.15,366.86c0,13.43-10.91,24.34-24.34,24.34H80c-11.31,0-20.57-9.27-20.57-20.57V93.93c0-10.13,8.24-18.3,18.3-18.3h199.76v76.64h87.71v287.47Z"/>
  <g>
    <path class="cls-1" d="m319.49,368.68c-4.4,0-7.93-3.53-7.93-7.85,0-2.28.94-4.4,2.51-5.81h-94.78c1.49,1.49,2.43,3.53,2.43,5.81,0,4.32-3.53,7.85-7.85,7.85-1.81,0-3.53-.63-4.87-1.65v40.28c1.34-1.02,3.06-1.65,4.87-1.65,4.32,0,7.85,3.53,7.85,7.85,0,1.88-.63,3.61-1.73,4.95h93.36c-1.18-1.34-1.81-3.06-1.81-4.95,0-4.32,3.53-7.85,7.93-7.85,1.65,0,3.14.47,4.4,1.33v-39.65c-1.26.86-2.75,1.33-4.4,1.33Zm-53.08,38.71c-10.68,0-19.32-8.64-19.32-19.32s8.64-19.4,19.32-19.4,19.4,8.64,19.4,19.4-8.64,19.32-19.4,19.32Z"/>
    <path class="cls-1" d="m200.69,346.77v79.46h131.53v-79.46h-131.53Zm127.13,75.62h-122.73v-71.3h122.73v71.3Z"/>
  </g>
  <rect class="cls-1" x="107.81" y="168.08" width="97.19" height="13.03"/>
  <rect class="cls-1" x="107.81" y="236.24" width="127.31" height="13.03"/>
  <rect class="cls-1" x="202.8" y="305.91" width="127.31" height="13.03"/>
  <rect class="cls-1" x="224.59" y="168.08" width="97.19" height="13.03"/>
  <rect class="cls-1" x="107.81" y="202.16" width="48.6" height="13.03"/>
  <rect class="cls-1" x="107.81" y="270.33" width="48.6" height="13.03"/>
  <rect class="cls-1" x="107.81" y="340.26" width="48.6" height="13.03"/>
  <rect class="cls-1" x="184.71" y="202.16" width="48.6" height="13.03"/>
  <rect class="cls-1" x="257.61" y="202.16" width="48.6" height="13.03"/>
  <path class="cls-1" d="m471.9,136.88c-5.58,8.64-15.7,13.27-24.89,14.45v18.53h-15.7v-19.63c-19-5.57-28.03-24.73-28.43-25.6l14.29-6.6c.08.16,8.32,17.28,23.71,17.98,6.83.39,14.84-3.06,17.82-7.62,1.81-2.83,2.2-7.07,1.1-11.46-1.33-5.5-4.71-10.21-8.95-12.64-3.22-1.81-7.77-2.04-12.56-2.2-7.3-.31-16.33-.79-23.01-7.62-3.06-3.14-10.44-14.37-7.22-27.56,2.67-11.07,12.01-19.94,23.24-22.77v-19.79h15.7v20.02c12.56,3.46,22.85,14.76,24.89,29.21l-15.47,2.28c-1.41-9.58-9.03-16.96-17.51-16.96h-.24c-7.07.08-13.82,5.18-15.39,11.62-1.73,7.07,3.3,13.03,3.3,13.03,2.12,2.2,6.12,2.51,12.33,2.83,6.2.24,13.19.55,19.71,4.24,7.93,4.55,14.06,12.96,16.41,22.54,2.2,8.64,1.02,17.28-3.14,23.71Z"/>
</svg>