<?xml version="1.0" encoding="UTF-8"?>
<svg id="Layer_1" data-name="Layer 1" xmlns="http://www.w3.org/2000/svg" viewBox="0 0 512 512">
  <defs>
    <style>
      .cls-1 {
        stroke-width: 0px;
      }
    </style>
  </defs>
  <path class="cls-1" d="m333.98,106.16h-188.09c-22.06,0-40.01,17.94-40.01,40v246.19c0,4.49,2.3,8.54,6.16,10.84,3.86,2.3,8.52,2.39,12.46.25l51.57-27.93c.99-.54,2.18-.54,3.17,0l50.81,27.72c3.19,1.74,6.75,2.61,10.3,2.61,3.13,0,6.26-.67,9.15-2.03l55.27-26.01c.95-.45,2.06-.42,2.98.08l47.65,25.61c3.95,2.12,8.6,2.01,12.45-.29,3.84-2.3,6.14-6.35,6.14-10.83v-246.21c0-22.06-17.95-40-40.01-40Zm21.82,276.89l-39.44-21.2c-5.98-3.2-13.2-3.39-19.34-.51l-55.26,26.01c-.96.45-2.07.41-3-.09l-50.81-27.72c-3.22-1.75-6.76-2.63-10.3-2.63s-7.03.87-10.24,2.6l-43.34,23.48v-236.83c0-12.03,9.79-21.81,21.82-21.81h188.09c12.03,0,21.82,9.78,21.82,21.81v236.89Z"/>
  <path class="cls-1" d="m316.33,306.35v.16c-.09,1.07-1.03,1.87-2.11,1.78l-14.27-1.2c-1.06-.09-1.85-1.02-1.77-2.08h0c1.32-18.15-4.69-35.58-16.92-49.07-12.25-13.51-29.05-21.2-47.28-21.66l-33.05-.83,26.3,27.86c3.45,3.65,3.28,9.41-.37,12.85h0c-3.65,3.45-9.41,3.29-12.86-.37l-40.68-43.08c-1.78-1.89-1.84-4.81-.14-6.77l44.77-51.63c3.29-3.8,9.04-4.2,12.83-.91h0c3.79,3.29,4.2,9.03.91,12.83l-26.98,31.12,29.72.74c23.26.58,44.68,10.39,60.3,27.62,15.61,17.21,23.28,39.45,21.59,62.62Z"/>
</svg>