<?xml version="1.0" encoding="utf-8"?>
<!-- Generator: Adobe Illustrator 28.0.0, SVG Export Plug-In . SVG Version: 6.00 Build 0)  -->
<svg version="1.1" id="Layer_1" xmlns="http://www.w3.org/2000/svg" xmlns:xlink="http://www.w3.org/1999/xlink" x="0px" y="0px"
	 viewBox="0 0 512 512" style="enable-background:new 0 0 512 512;" xml:space="preserve">
<style type="text/css">
	.st0{opacity:0.74;}
	.st1{fill:none;}
	.st2{fill:#FFFFFF;}
	.st3{fill:#121212;}
	.st4{fill:none;stroke:#000000;stroke-width:4;stroke-miterlimit:10;}
</style>
<g class="st0">
	<g>
		<polygon points="2027.7,-448.3 2028.1,-445 2023.3,-444.1 2022.7,-437.2 2028.4,-437.2 2036.1,-438 2040,-442.7 2035.8,-444.3 
			2033.5,-446.9 2030.1,-452.5 2028.4,-460.5 2021.9,-459.1 2020.1,-456.3 2020.1,-453.2 2023.2,-451.1 		"/>
		<polygon points="2022.2,-445.6 2022.5,-449.9 2018.7,-451.6 2013.4,-450.3 2009.4,-444 2009.4,-439.9 2014,-439.9 		"/>
		<path d="M1912.4-427.4l-1.2,3h-5.7v2.9h1.4c0,0,0.1,0.6,0.2,1.4l3.5-0.3l2.2-1.4l0.6-2.7l2.8-0.2l1.1-2.3l-2.6-0.5L1912.4-427.4z"
			/>
		<polygon points="1902.1,-422.5 1901.6,-419.6 1901.6,-419.6 1897.5,-419.2 1897.7,-422.1 1899.6,-424.4 1902,-422.5 		"/>
		<path d="M1960.6-282.5c-0.7,4.6-1.3,9.2-2,13.9l4.5-5.7l1.5-6.9L1960.6-282.5z M1925.8-437.3l7.2-2.5l0.2-4.4l0.1-2.6l-0.8-0.5
			l-6.8-4.1l-0.5-11.7l-10.4,5.1h-3.8l1-8.9l-2.5-0.6c-0.7,1.1-1.1,2.5-1.3,4c-1.3,8-2.5,16-3.8,24h2.7l2,0.9l1.7,3.5l2.1-0.3v-0.3
			l0.6,0.2l6.1-0.9l0.9-3l3.5,0.9v3.2l-3.2,2.2l0.5,3.5l11,3.4c0,0,0,0,0,0.1l2.5-0.2l0.2-4.8l-8.7-4L1925.8-437.3z M1914.5-236
			c-3.7,3.1-7.7,6.1-11.5,9c-10.5,8.1-20.8,16.6-30.5,25.7l-1,5.6l6.9,9.2l-1.3,15.5l9.2,16.1l11.7,10.3l11.8,0.2l1.2-3.8l-8.7-7.3
			l0.5-3.6l1.6-4.4l0.3-4.5l-5.9-0.2l-3-3.7l4.9-4.7l0.7-3.5l-5.4-1.6l0.3-3.3l7.8-1.2l11.8-5.7l3.9-7.2l5.8-7.4
			c-2.3-9.3-4.6-18.6-6.7-27.9C1918.1-237.8,1917-238.2,1914.5-236z M1907.5-432.1l0.8-0.4l-3.7-0.5l-1-0.3
			c-0.2,1.2-0.4,2.4-0.5,3.6l1.1,1.3L1907.5-432.1z M1895.3-327l-6.4-3.1l-0.3,3.5l-11.7,0.7l-4.3-6l-12.2-2.5l-9.5,11
			c0.9,0,1.8,0.1,2.7,0.2c15.5,1.2,31,2.5,46.5,3.7L1895.3-327z M1827.3-491.5c4.9-3,10-5.7,15.2-8.2h-4.2L1827.3-491.5z
			 M2144.9-330.5c-0.1-6.3-0.4-12.6-1-18.8c-2-20.6-6.9-40.3-14.3-58.8c-0.6-1.4-1.1-2.8-1.6-4.1c-9.8-23.2-23.6-44.4-40.5-62.6
			c-1.1-1.2-2.2-2.4-3.4-3.5c-3.2-3.3-6.5-6.6-9.9-9.7c-38.4-35-89.4-56.3-145.4-56.3c-56.4,0-107.8,21.7-146.3,57.2
			c-9,8.3-17.2,17.3-24.7,27c-28.2,36.5-45.1,82.2-45.1,131.9c0,119.2,96.9,216.1,216.1,216.1c48.5,0,93.4-16.1,129.5-43.2
			c-7.4-1.7-14.6-3.8-21.8-6.4c-31,20.2-68,31.9-107.7,31.9c-30,0-58.5-6.7-84-18.7c-2.6-1.2-5.2-2.5-7.7-3.8
			c-63.3-33.2-106.6-99.5-106.6-175.8c0-27.5,5.6-53.8,15.8-77.6v-6.2l7.1-8.6c2.5-4.6,5.1-9.2,7.9-13.6l0.3,3.6l-8.2,10
			c-2.6,4.8-4.9,9.8-7.1,14.8v11.3l2.3,1.1l5.9,2.8v15.7l7.9,13.5l6.4,1l0.8-4.6l-7.6-11.7l-1.5-11.4h4.4l1.9,11.7l11,16l-2.8,5.2
			l7,10.7l17.3,4.3v-2.8l6.9,1l-0.7,4.9l5.4,1l8.4,2.3l11.9,13.5l6.4,0.5l8.8,0.7l1.5,12.4l-5.4,3.8l-5,3.5l-0.5,11l-1.5,6.8
			l15,18.8l0.1,0.3l1.1,6.1c0,0,5.4,1.5,6.1,1.5c0.7,0,12.2,8.7,12.2,8.7v34l4.1,1.1l-1.8,10l-1,5.6l6.9,9.2l-1.3,15.5l9.2,16.1
			l11.7,10.3l11.8,0.2l1.2-3.8l-8.7-7.3l0.5-3.6l1.6-4.4l0.3-4.5l-5.9-0.2l-3-3.7l4.9-4.7l0.7-3.5l-5.4-1.6l0.3-3.3l7.8-1.2
			l11.8-5.7l3.9-7.2l5.8-7.4l6.6-8.4l-2.8-12.4l3.8-6.6l11.4,0.3l7.7-6.1l2.5-23.9l4-5.1l4.5-5.7l1.5-6.9l-3.9-1.3l-3.8-1.2
			l-5.1-8.4l-17.5-0.2l-13.8-5.3l-0.7-9.9l-4.6-8.1l-12.5-0.2l-2.5-3.9l-4.7-7.4l-6.4-3.1l-0.3,3.5l-11.7,0.7l-4.3-6l-12.2-2.5
			l-9.5,11l-0.6,0.7l-3.8-0.6l-12-2l-1.2-17.8l-11.5-2l4.6-8.8l-1.3-5L1810-349l-9.6-1.2l-3.4-7.5l2.1-7.7l5.3-9.7l12.1-6.1l23.4,0
			l-0.1,7.1l8.4,3.9l-0.7-12.2l6.1-6.1l12.2-8l0.8-5.7l12.2-12.7l13-7.2l-1.2-0.9l8.8-8.3l3.2,0.8l0.4,0.5l1.1,1.3l3.3-3.7l0.8-0.4
			l-3.7-0.5l-1-0.3l-2.7-0.9v-3.6l2-1.6h4.3l2,0.9l1.7,3.5l2.1-0.3v-0.3l0.6,0.2l6.1-0.9l0.9-3l3.5,0.9v3.2l-3.2,2.2l0.5,3.5l11,3.4
			c0,0,0,0,0,0.1l2.5-0.2l0.2-4.8l-8.7-4l-0.5-2.3l7.2-2.5l0.2-4.4l0.1-2.6l-0.8-0.5l-6.8-4.1l-0.5-11.7l-10.4,5.1h-3.8l1-8.9
			l-2.5-0.6l-11.7-2.8l-5.9,4.4v13.5l-10.5,3.3l-4.2,8.8l-4.6,0.7v-11.2l-9.9-1.4l-4.9-3.2l-2-7.3l17.7-10.3l8.7-2.6l0.9,5.8
			l4.8-0.2l0.4-2.9l5-0.7l0.1-1l-2.2-0.9l-0.5-3.1l6.2-0.5l3.7-3.9l0.2-0.3l0,0l1.1-1.2l13-1.6l5.8,4.9l-15.1,8.1l8.1,1.9l11.1,2.6
			l0.2-0.6l2.3-5.9h8.4l3-5.6l-5.9-1.5v-7.1l-18.6-8.2l-12.8,1.5l-7.2,3.8l0.5,9.2l-7.6-1.1l-1.2-5.1l7.3-6.6l-13.2-0.7l-3.8,1.2
			l-1.6,4.4l4.9,0.8l-1,4.9l-8.4,0.5l-1.3,3.3l-12.2,0.3c0,0-0.3-6.9-0.8-6.9c0.5,0,9.6-0.2,9.6-0.2l7.3-7.1l-4-2l-5.3,5.1l-8.8-0.5
			l-5.3-7.2h-11.2l-11,8.2l-0.7,0.5h10.7l1,3.1l-2.8,2.6l11.9,0.3l1.8,4.3l-13.4-0.5l-0.7-3.3l-8.4-1.8l-4.2-2.3l-0.3-0.2l-10,0.1
			c32.7-23.8,73-38,116.5-38c50.2,0,96,18.7,130.9,49.5l-2.4,4.2l-9.1,3.6l-3.9,4.2l0.9,4.9l4.7,0.7l2.8,7.1l8.1-3.3l1.3,9.5h-2.5
			l-6.7-1l-7.4,1.2l-7.2,10.1l-10.3,1.6l-1.5,8.8l4.3,1l-1.2,5.6l-10.2-2l-9.3,2l-2,5.2l1.6,10.9l0.6,0.3l4.9,2.3l9.2-0.1l6.2-0.6
			l1.9-4.9l9.7-12.6l6.4,1.3l6.3-5.7l1.2,4.4l15.5,10.4l-1.9,2.5l-7-0.4l2.7,3.8l4.3,0.9l5-2.1l-0.1-6.1l2.2-1.1l-1.8-1.9l-10.3-5.8
			l-2.7-7.7h8.6l2.8,2.7l7.4,6.4l0.3,7.7l7.7,8.2l2.8-11.2l4.5-2.5l0.8-0.4l0.3,2.7l0.7,6.4l4.2,4.6l1,1.1l10.3-0.2
			c2,5.1,3.8,10.4,5.4,15.7l-1.1,1h-15.8l-9.6-7.2l-10.1,1v6.2h-3.2l-3.5-2.5l-17.6-4.5v-11.4l-22.3,1.7l-6.9,3.7h-8.8l-4.3-0.4
			l-10.7,6v11.2l-16.4,11.8l-5.5,4l1.8,6.8h4.4l-1.2,6.4l-3.1,1.1l-0.1,13.4l0,3.5l18.9,21.6h8.2l0.5-1.3h14.8l4.3-4h8.4l4.6,4.6
			l12.5,1.3l-1.7,16.7l13.9,24.6l-7.3,14l0.5,6.6l5.8,5.8v15.9l7.6,10.2v13.2h6.6c-1.5,1.9-3,3.7-4.6,5.5c0.5,3.6,1.6,7.3,3.4,11.2
			c1.2,2.6,2.3,5.2,3.3,7.9c14.6-15.2,26.9-32.4,36.6-51.3c7.7-14.9,13.6-30.9,17.6-47.6c1-4.2,1.9-8.5,2.7-12.8
			c2.2-12.3,3.4-24.9,3.4-37.8C2144.9-329,2144.9-329.8,2144.9-330.5z M1862.1-413.9l-2.8,2.8h-6.3l1-4.3l3-0.3l0.6-1.5l4.6-0.6
			V-413.9z M1863.6-421.7l-3,1.9l-3.7,0.7c0,0,0-5.9,0-6.6h6.7V-421.7z M1869.2-426.3l3,1.9l-2.4,2l-2.4-2L1869.2-426.3z
			 M1865.2-421.3h0.5l7.5,2.2v3.8h-6.3l-1.7-2.5V-421.3z M1860.3-432l4.1,3.7l-4.1,1V-432z M1843-431.4l5.7-2.4h7.8v2.4h1.7v4.1
			h-11.9l-4.4-1.2L1843-431.4z M1841.9-420.7l4.6-4.9h6.6l-8.4,11.7l-3.5-1.9L1841.9-420.7z M1835.8-448.7l4.7,1.1l-1.6,6.3
			l-5.1,1.6l-3.2-6.6L1835.8-448.7z M1823.9-465.4l-9.8,0.6l-1.9-2.2l6.9-2c0,0,4.3-0.7,4.7-0.7
			C1824.3-469.7,1823.9-465.4,1823.9-465.4z M1824.1-480.4v3.1l-2,2.7h-9.8l0-4v-0.4h4.3l0.4-1.5H1824.1z M2073-454.6l0-9.7
			c3.4,3.6,6.7,7.3,9.8,11.2l-3.9,5.8l-13.6-0.1l-0.9-2.8L2073-454.6z M2108.1-408.6l-3.9,0.5v-8.8l1.2-1.4c1.6,3.2,3.2,6.4,4.6,9.7
			L2108.1-408.6z M2121.2-373.1l0.6-0.7c0.2,1.1,0.5,2.2,0.8,3.4L2121.2-373.1z"/>
		<path d="M1746.4-412.1v6.2c2.2-5,4.5-10,7.1-14.8L1746.4-412.1z"/>
	</g>
</g>
<line class="st1" x1="489.8" y1="-1807.2" x2="489.7" y2="-1807"/>
<line class="st1" x1="489.8" y1="-2367.9" x2="489.7" y2="-2367.7"/>
<g>
	<path d="M176.9-2625.5H40.6v-136.3h136.3L176.9-2625.5L176.9-2625.5z M60.3-2645.2h96.9v-96.9H60.3V-2645.2z"/>
	<rect x="81.6" y="-2720.8" width="54.3" height="54.3"/>
	<path d="M465.3-2625.5H329.1v-136.3h136.3V-2625.5z M348.8-2645.2h96.9v-96.9h-96.9V-2645.2z"/>
	<rect x="370.1" y="-2720.8" width="54.3" height="54.3"/>
	<path d="M471.4-2331.5H335.1v-136.3h136.3V-2331.5z M354.8-2351.2h96.9v-96.9h-96.9V-2351.2z"/>
	<rect x="376.1" y="-2426.8" width="54.3" height="54.3"/>
	<path d="M184.9-2331.5H48.7v-136.3h136.3L184.9-2331.5L184.9-2331.5z M68.4-2351.2h96.9v-96.9H68.4
		C68.4-2448.1,68.4-2351.2,68.4-2351.2z"/>
	<rect x="89.7" y="-2426.8" width="54.3" height="54.3"/>
	<polygon points="351.2,-2564.4 293.1,-2564.4 293.1,-2628.5 204.2,-2628.5 204.2,-2756.7 223.9,-2756.7 223.9,-2648.2 
		312.8,-2648.2 312.8,-2584.1 351.2,-2584.1 	"/>
	<polygon points="312.1,-2675.2 247.2,-2675.2 247.2,-2694.9 292.4,-2694.9 292.4,-2756.7 312.1,-2756.7 	"/>
	<rect x="43.7" y="-2584.1" width="123.4" height="19.7"/>
	<rect x="376.1" y="-2584.1" width="92.7" height="19.7"/>
	<rect x="204.2" y="-2584.1" width="64.1" height="19.7"/>
	<rect x="50.5" y="-2534.4" width="17.3" height="19.7"/>
	<polygon points="271.4,-2457.9 251.7,-2457.9 251.7,-2517.7 97.2,-2517.7 97.2,-2537.4 271.4,-2537.4 	"/>
	<rect x="289.4" y="-2541.1" width="24.1" height="19.7"/>
	<rect x="338.9" y="-2541.1" width="129.9" height="19.7"/>
	<polygon points="312.1,-2336.8 261.5,-2336.8 261.5,-2356.5 292.4,-2356.5 292.4,-2486.8 312.1,-2486.8 	"/>
	<polygon points="223.9,-2346.6 204.2,-2346.6 204.2,-2426.6 272.6,-2426.6 272.6,-2406.9 223.9,-2406.9 	"/>
</g>
<image style="overflow:visible;" width="1512" height="850" xlink:href="../../Image (1).png"  transform="matrix(2.1028 0 0 2.1028 2286.2786 -1935.8733)">
</image>
<g transform="translate(0, 0)">
	<g transform="translate(0.000010000000000509601, 8.881784197001252e-16) rotate(0)">
		<path vector-effect="non-scaling-stroke" d="M181.6-2191.7c0,7.6-6.2,13.8-13.8,13.8H79.6c-8.6,0-15.6,7-15.6,15.6v88.2
			c0,7.6-6.2,13.8-13.8,13.8s-13.8-6.2-13.8-13.8v-88.2c0-23.8,19.4-43.2,43.2-43.2h88.2C175.4-2205.5,181.6-2199.3,181.6-2191.7z
			 M475.5-2162.3v88.2c0,7.6-6.2,13.8-13.8,13.8c-7.6,0-13.8-6.2-13.8-13.8v-88.2c0-8.6-7-15.6-15.6-15.6h-88.2
			c-7.6,0-13.8-6.2-13.8-13.8c0-7.6,6.2-13.8,13.8-13.8h88.2C456.2-2205.5,475.5-2186.1,475.5-2162.3z M475.5-1897.8v88.2
			c0,23.8-19.4,43.2-43.2,43.2h-88.2c-7.6,0-13.8-6.2-13.8-13.8c0-7.6,6.2-13.8,13.8-13.8h88.2c8.6,0,15.6-7,15.6-15.6v-88.2
			c0-7.6,6.2-13.8,13.8-13.8S475.5-1905.4,475.5-1897.8z M181.6-1780.2c0,7.6-6.2,13.8-13.8,13.8H79.6c-23.8,0-43.2-19.4-43.2-43.2
			v-88.2c0-7.6,6.2-13.8,13.8-13.8s13.8,6.2,13.8,13.8v88.2c0,8.6,7,15.6,15.6,15.6h88.2C175.4-1794,181.6-1787.8,181.6-1780.2z
			 M461.8-1993.3H50.2c-4,0-7.3,3.3-7.3,7.3s3.3,7.3,7.3,7.3h411.5c4,0,7.3-3.3,7.3-7.3S465.8-1993.3,461.8-1993.3z"/>
	</g>
</g>
<g>
	<line class="st1" x1="465.7" y1="-1259.5" x2="465.6" y2="-1259.2"/>
	<path d="M468.9-1470.2v-0.4H361.1c-17,0-33.1,8.2-44.2,22.5l-0.2,0.3c-13.1,16.9-20.2,38.7-20.2,61.4s7.2,44.5,20.2,61.4l0.2,0.3
		c11.1,14.3,27.2,22.6,44.3,22.6h113.5c9.5-3.1,16.4-12,16.4-22.6v-121.8C490.9-1459.1,481.2-1469.4,468.9-1470.2z M411.5-1356.8
		c-8,7.9-18.8,12.4-30.1,12.3c-23.3-0.2-42-19.2-41.8-42.5c0.1-23.3,19.1-42.1,42.4-42c23.3,0.1,42.1,19,42.1,42.2
		C424-1375.5,419.5-1364.7,411.5-1356.8z M308.9-1318.6l-0.2-0.3c-14.4-18.6-22.3-42.6-22.3-67.5s7.9-48.8,22.3-67.5l0.3-0.4
		c13-16.8,32-26.4,52.1-26.4h107.8c-1-28.8-22.7-52.8-51.4-56.5v-31.2c-0.3-32.5-26.7-58.6-59.2-58.7H83.9
		c-34.1-0.1-62.1,27.1-62.8,61.3v288.2c0.3,32.5,26.7,58.6,59.2,58.6h329.4c32.5,0,58.9-26.2,59.2-58.6v-14.6H361.1
		C340.9-1292.2,321.9-1301.8,308.9-1318.6z M57.1-1564.7c0.2-14.7,12.1-26.5,26.8-26.5h273.8c6.1,0,12,2.4,16.4,6.7
		c4.4,4.3,6.8,10.2,6.8,16.3v30.6h-297C69.1-1537.9,57.2-1549.9,57.1-1564.7z"/>
</g>
<g>
	<line class="st1" x1="256" y1="-880.8" x2="256" y2="-880.6"/>
	<path d="M401.1-649.6H110.9c-47.5,0-86.1-38.5-86.1-86.1v-290.1c0-47.5,38.5-86.1,86.1-86.1h290.1c47.5,0,86.1,38.5,86.1,86.1
		v290.1C487.1-688.1,448.6-649.6,401.1-649.6z"/>
	<g>
		<path class="st2" d="M196.6-939.9H94.3v-102.3h102.3L196.6-939.9L196.6-939.9z M109.1-954.7h72.7v-72.7h-72.7V-954.7z"/>
		<rect x="125.1" y="-1011.4" class="st2" width="40.7" height="40.7"/>
		<path class="st2" d="M413.2-939.9H310.9v-102.3h102.3V-939.9z M325.6-954.7h72.7v-72.7h-72.7V-954.7z"/>
		<rect x="341.6" y="-1011.4" class="st2" width="40.7" height="40.7"/>
		<path class="st2" d="M417.7-719.2H315.4v-102.3h102.3V-719.2z M330.2-734h72.7v-72.7h-72.7V-734z"/>
		<rect x="346.2" y="-790.7" class="st2" width="40.7" height="40.7"/>
		<path class="st2" d="M202.7-719.2H100.4v-102.3h102.3L202.7-719.2L202.7-719.2z M115.1-734h72.7v-72.7h-72.7
			C115.1-806.7,115.1-734,115.1-734z"/>
		<rect x="131.1" y="-790.7" class="st2" width="40.7" height="40.7"/>
		<polygon class="st2" points="327.5,-894 283.9,-894 283.9,-942.1 217.1,-942.1 217.1,-1038.4 231.9,-1038.4 231.9,-956.9 
			298.7,-956.9 298.7,-908.8 327.5,-908.8 		"/>
		<polygon class="st2" points="298.1,-977.2 249.4,-977.2 249.4,-992 283.3,-992 283.3,-1038.4 298.1,-1038.4 		"/>
		<rect x="96.6" y="-908.8" class="st2" width="92.6" height="14.8"/>
		<rect x="346.2" y="-908.8" class="st2" width="69.6" height="14.8"/>
		<rect x="217.1" y="-908.8" class="st2" width="48.1" height="14.8"/>
		<rect x="101.7" y="-871.5" class="st2" width="13" height="14.8"/>
		<polygon class="st2" points="267.5,-814.1 252.8,-814.1 252.8,-859 136.8,-859 136.8,-873.7 267.5,-873.7 		"/>
		<rect x="281.1" y="-876.6" class="st2" width="18.1" height="14.8"/>
		<rect x="318.2" y="-876.6" class="st2" width="97.5" height="14.8"/>
		<polygon class="st2" points="298.1,-723.1 260.1,-723.1 260.1,-737.9 283.3,-737.9 283.3,-835.8 298.1,-835.8 		"/>
		<polygon class="st2" points="231.9,-730.5 217.1,-730.5 217.1,-790.6 268.5,-790.6 268.5,-775.8 231.9,-775.8 		"/>
	</g>
</g>
<g>
	<polygon points="952.9,-748.9 952.9,-808.5 800.3,-808.5 800.3,-822.5 966.9,-822.5 966.9,-776.3 1057.3,-841.9 967.5,-917 
		967.5,-875.3 693.8,-875.3 693.8,-829.7 577.9,-910 694.3,-1014.4 694.3,-956.7 847.6,-956.7 847.6,-942.7 680.3,-942.7 
		680.3,-983.1 600.5,-911.4 679.8,-856.4 679.8,-889.3 953.5,-889.3 953.5,-946.9 1080,-841.1 	"/>
</g>
<g>
	<g>
		<rect x="1249.5" y="-1074.9" width="74" height="74"/>
		<path d="M1425.4-1074.9v47.7c-2.4-8-7.8-14.8-15.4-19.1c-10.3-5.8-22.4-5.7-32.4,0.2c-11,6.5-16.8,17.1-16.9,30.7
			c0,4.8,0,9.6,0,14.4h-9.3v-74H1425.4z"/>
		<rect x="1453.3" y="-1074.9" width="74" height="74"/>
		<path d="M1323.4-975.4v61.3c-0.5,0.1-1,0.2-1.5,0.2c-9.8,1.8-17.2,7.7-22.8,12.4h-49.6v-74H1323.4z"/>
		<path d="M1319-901.4c1.4-0.6,2.9-1.1,4.5-1.4v1.4H1319z"/>
		<path d="M1352.8-901.4h-1.4v-1.1C1351.9-902.2,1352.4-901.8,1352.8-901.4z"/>
		<path d="M1351.4-975.4h9.2c0,12,0,24,0,36c0,12.5,0,24.9,0,37.4c-2.9-2.9-6-5.2-9.2-7.1V-975.4z"/>
		<path d="M1527.3-975.4v33.3c-6.7-0.8-13.4,0.4-19.4,3.7c-4.8-7.8-12.1-13.1-20.6-15c-8.4-1.9-17-0.2-24.5,4.6
			c-2.7-3.5-5.8-6.3-9.4-8.4v-18.2H1527.3z"/>
		<path d="M1323.4-824.4v22.4h-74v-74h47.2l17.2,33C1317-836.8,1320.2-830.6,1323.4-824.4z"/>
	</g>
	<g>
		<g>
			<rect x="1377.7" y="-710.3" width="170.7" height="71.7"/>
		</g>
		<g>
			<g>
				<path d="M1545.8-800c-0.3,23.3-10.2,41.7-29.5,54.5c-5.8,3.9-12.7,6.4-22.3,8.3h-85.5c-9.2-1.9-16.8-4.9-23.1-9.1
					c-9.1-6-16.2-14.3-22-25.3c-13.2-25.5-26.5-51-39.8-76.5l-0.2-0.4l-14.3-27.5l-5.4-10.4c-0.9-1.8-1.2-2.7-1.4-3
					c0.2-0.3,0.9-1.1,2.6-2.5c4.8-4.1,9.1-7.5,14-9.5c1.4-0.6,2.9-1.1,4.5-1.4c0.2-0.1,0.3-0.1,0.5-0.1c11.8-2.2,21.7,1.1,30.2,10.1
					c1.7,1.8,3.2,3.7,4.9,5.7c0.8,1,1.6,2,2.4,3l5.2,6.2l3.9-7.1c1.4-2.6,1.2-5,1.2-6.2c0-0.2,0-0.4,0-0.5v-9.7c0-12.6,0-25.3,0-38
					c0-12,0-24,0-36c0-8.5,0-17,0-25.5c0-4.8,0-9.6,0-14.4c0-9.8,3.8-16.7,11.4-21.2c6.6-3.9,14.6-3.9,21.3-0.1
					c7,3.9,11.2,11.1,11.3,19.1c0.1,5.5,0.1,11.1,0.1,16.6c0,8.6,0,17.1,0,25.5v0.8c0,6.3,0,12.7,0,19v12.8l8-3.9
					c0.5-0.2,1-0.5,1.5-0.7c3.7-1.7,6.5-2.9,9.5-3c7.9-0.4,13.9,2,18.5,7.6c0.6,0.7,1.2,1.4,1.7,2.2c0.7,1.1,2.4,3.5,5.5,4.1
					c3.2,0.6,5.7-1.3,6.6-2c5.4-4,11.7-5.5,17.7-4.2c6,1.3,11.1,5.4,14.4,11.4c0.8,1.5,2.2,4.2,5.5,5c3.3,0.8,6.1-1,7.2-1.7
					c4.7-3,10.2-4.1,15.5-3.1c1.6,0.3,3.2,0.8,4.8,1.5c7,3.1,11.9,9.5,13.2,17.2c0.4,2.1,0.6,4,0.6,5.7c0,9.8,0,19.6,0.1,29.4
					C1546-851.8,1546.1-825.7,1545.8-800z"/>
			</g>
		</g>
	</g>
</g>
<g>
	<path d="M1776.1-780.8c11.7,18.6,26.6,33.8,44.3,45.9c43.8,30,92,41.2,144.3,30.9c50.5-10,90.6-36.5,119.6-79.2
		c11.7-17.2,20.1-35.8,25.7-55.8c2.8-10.1,8.8-17.4,19.7-19.4c9.6-1.7,17.4,1.7,23.4,9.1c5.6,6.9,6,14.8,3.6,23
		c-5.9,20.2-13.6,39.5-24.4,57.7c-13.4,22.5-29.5,42.7-49.7,59.3c-66.3,54.4-141,70.5-223.4,46.4c-52.4-15.3-93.5-46.9-124.9-91.4
		c-3.7-5.2-3.6-5.2-6.9,0c-7.7,12.3-22,16.7-33.3,10.3c-11.7-6.6-15.9-20.7-9.4-33.6c10.3-20.4,20.8-40.6,31.5-60.7
		c7.1-13.1,20.6-17.5,33.9-10.9c20.6,10.3,41,20.9,61.2,31.8c12.7,6.8,17.2,21.2,11.1,33c-6.1,11.9-20.6,16.2-33.9,10
		C1784.4-776.3,1780.3-778.6,1776.1-780.8z"/>
	<path d="M2081.6-995.6c-6.5-11.2-14.7-20.7-23.9-29.3c-66.2-61.4-163.3-68.3-237.3-16.5c-36.7,25.7-60,60.9-72.7,103.6
		c-4.1,13.8-17.4,20.8-30.8,16.7c-12.5-3.9-19.2-17.4-15.3-30.7c19.5-66.8,60.1-116.5,122.2-147.6c57.8-28.9,118.2-32.9,179.6-12.8
		c50.2,16.4,90.2,47.2,120.3,90.6c2.7,3.8,3.8,4.4,6.5-0.1c8.7-14.9,26-18.1,37.9-7.4c8.2,7.3,10.6,19,5.1,29.8
		c-10.3,20.5-20.9,41-31.8,61.2c-7.1,13.1-20.7,17.4-34,10.7c-20.6-10.3-41-20.9-61.2-31.8c-12.6-6.8-17.1-21.3-11-33.1
		c6.1-11.7,20.4-16.1,33.4-10.1C2073-1000.3,2077.2-997.8,2081.6-995.6z"/>
	<path d="M1912.7-857.3c8.6,0,17.2,0.1,25.9,0c7.1-0.1,11.4-4.1,11.3-10.2c-0.1-5.9-4.3-9.6-11.2-9.8c-8.8-0.3-17.6,0.4-26.3-0.6
		c-25.4-3-45.7-22.6-48.5-47.2c-3-26,11.6-50,36.4-58.5c5.4-1.8,6.6-4.3,6.4-9.4c-0.2-6.2-0.7-12.5,0.5-18.7
		c2.2-11.1,10.7-18.2,21.7-18.2c11.1,0,19.6,7,21.8,18.1c1.3,6.5,0.6,13.2,0.6,19.7c0,3.7,1.3,5.2,5.1,5.1c4.9-0.2,9.8-0.1,14.7,0
		c13.8,0.4,23.1,9.6,23.1,22.4c0,12.7-9.5,22.1-23.2,22.3c-17.2,0.2-34.5,0.1-51.7,0.1c-4.2,0-7.7,1.1-9.9,4.9
		c-3.9,6.6,0.4,14.6,8.3,15.1c9.3,0.6,18.6-0.4,27.9,0.7c25.5,3,45.6,22.6,48.5,47.2c3,26-11.6,50-36.4,58.5
		c-5.4,1.8-6.7,4.4-6.4,9.4c0.3,5.6,0.4,11.2-0.2,16.7c-1.5,12.8-11,20.7-23.6,20.2c-11.4-0.4-20.2-9.6-20.8-22.1
		c-0.3-5.4-0.2-10.8-0.1-16.2c0.1-3.3-1.3-4.6-4.5-4.5c-4.9,0.1-9.8,0.1-14.7,0c-14.1-0.3-23.6-9.4-23.6-22.5
		c0-13,9.6-22.1,23.8-22.3C1895.8-857.4,1904.2-857.3,1912.7-857.3C1912.7-857.3,1912.7-857.3,1912.7-857.3z"/>
</g>
<g>
	<polygon vector-effect="non-scaling-stroke" class="st3" points="2.3,-112.2 472.9,-313.9 2.3,-515.6 2.3,-358.7 217.1,-313.9 
		2.3,-269.1 	"/>
</g>
<g>
	<g id="XMLID_00000022533213154863807590000014343384099264157824_">
		<g>
			<path d="M685.4-399.3c119.2,0,238.4,0,357.6,0c9.3,0,11.9,2.5,11.9,11.8c0,74.9,0,149.7,0,224.6c0,9.4-2.5,11.8-11.8,11.8
				c-59.8,0-119.5,0-179.3,0c-59.4,0-118.9,0-178.3,0c-10.6,0-12.1-1.5-12.1-12.2c0-74.7,0-149.4,0-224.1
				C673.4-397.5,675.3-399.3,685.4-399.3z M1014.6-241.8c-0.1,0-0.2,0-0.3,0c0-2.6,0-5.2,0-7.8c0-0.6-0.2-1.3-0.3-1.9
				c-1.2-4.7-4.6-7.5-9-7.2c-4.7,0.2-8.1,3.5-8.3,8.5c-0.2,5.7-0.2,11.4,0,17c0.2,4.8,3.5,8,7.9,8.4c4.6,0.4,8.5-2.4,9.4-7.3
				C1014.5-235.3,1014.4-238.6,1014.6-241.8z M980.6-231.8c0.8-3.2,0.6-6.4,0.8-9.7c-0.3-3.4-0.3-6.8-0.9-10.1
				c-0.8-4.7-4.5-7.4-9-7.1c-4.5,0.3-7.9,3.4-8.1,8.1c-0.2,5.8-0.2,11.7,0,17.5c0.2,4.8,3.5,8,7.9,8.3
				C975.9-224.5,979.5-227.2,980.6-231.8z M947.3-232.3c0.3-6.3,0.3-12.6,0-18.9c-0.2-4.4-4.2-7.7-8.5-7.7c-4.4,0-8.1,3.3-8.5,7.7
				c-0.2,3.1,0,6.1,0,9.2c0,0,0,0,0,0c0,2.9,0,5.8,0,8.8c0,0.3,0,0.6,0.1,1c0.7,4.3,4,7.3,8.3,7.4
				C943.1-224.7,947-227.7,947.3-232.3z M897.6-232.9c0.2-2.9,0-5.8,0-8.8c0,0,0,0,0,0c0-3.1,0.2-6.2,0-9.2c-0.4-4.5-3.7-7.4-8-7.8
				c-4.3-0.4-8.2,2.1-9,6.5c-1.4,6.9-1.3,13.9,0,20.8c0.8,4.6,4.9,7.1,9.4,6.6C894.2-225.3,897.3-228.4,897.6-232.9z M885.7-183
				c7.6,0,12-3.4,12-9.1c-0.1-5.6-4.4-8.8-12.2-8.9c-7.3,0-14.6,0-21.9,0c-13,0-26-0.1-39,0c-6.8,0.1-11.1,3.7-11,9.1
				c0.1,5.1,4.2,8.7,10.3,8.8c10.5,0.1,21.1,0,31.7,0C865.6-183,875.6-183,885.7-183z M864.5-241.8c0-2.8,0.2-5.5,0-8.3
				c-0.3-5.1-3.5-8.3-8.2-8.7c-4.9-0.3-8.9,2.6-9.3,7.9c-0.5,6-0.5,12,0,18c0.3,4.9,4.3,8.1,8.8,8c4.8-0.1,8.3-3.5,8.7-8.7
				C864.7-236.3,864.5-239,864.5-241.8C864.5-241.8,864.5-241.8,864.5-241.8z M831.3-233.7c0.2-2.6,0-5.2,0-7.8c0,0,0,0,0,0
				c0-2.9,0.2-5.9,0-8.8c-0.5-5.3-4.1-8.5-8.9-8.5c-4.8,0-8.4,3.3-8.7,8.6c-0.3,5.5-0.3,11,0,16.5c0.3,5.2,4,8.7,8.7,8.8
				C827.1-224.7,830.8-228.3,831.3-233.7z M789.5-316c0.2-8.8,0.2-17.5,0-26.3c-0.2-12.9-9.7-23.4-22.6-24.4
				c-15.7-1.2-31.4-1.2-47.1,0c-12.7,0.9-22.3,11.6-22.5,24.5c-0.1,8.4-0.1,16.9,0,25.3c0.1,14.9,10.8,25.6,25.8,25.8
				c6.8,0.1,13.6,0,20.4,0c0,0,0,0,0,0c7.1,0,14.3,0.2,21.4,0C778.5-291.6,789.3-302.6,789.5-316z M781-231.9
				c1.1-6.6,1.1-13.3,0-19.9c-0.8-4.8-4.6-7.3-9.1-7c-4.5,0.3-7.8,3.5-8.1,8.2c-0.2,2.9,0,5.8,0,8.8c0,0,0,0,0,0
				c0,2.8-0.1,5.5,0,8.3c0.3,4.9,3.3,8.2,7.7,8.6C776-224.4,780.1-227.1,781-231.9z M779.3-186.6c2.1-2.8,2.7-5.9,1-9.1
				c-2-4-5.6-5.2-9.7-5.2c-20.8,0-41.5-0.1-62.3,0c-6.9,0-11,3.5-10.9,9.1c0,5.6,3.9,8.8,11,8.8c10.2,0.1,20.5,0,30.7,0
				c10.5,0,21.1,0,31.6,0C774.1-183,777.2-183.7,779.3-186.6z M747.7-231.5c0.9-3.3,0.7-6.8,0.7-10.6c-0.1-3.1,0.3-6.7-0.7-10.2
				c-1.2-4.3-4.8-6.8-9.1-6.5c-4.3,0.3-7.7,3.3-7.9,7.8c-0.3,6.1-0.3,12.3,0,18.5c0.2,4.4,3.8,7.4,8,7.7
				C743.1-224.6,746.6-227.2,747.7-231.5z M714.6-241.9c0-2.9,0.1-5.8,0-8.7c-0.3-4.8-3.9-8.2-8.5-8.3c-4.6,0-8.4,3.4-8.6,8.1
				c-0.2,6-0.2,12,0,18c0.2,4.9,4,8.1,8.7,8c4.5-0.1,8-3.1,8.4-7.8C714.7-235.7,714.5-238.8,714.6-241.9
				C714.5-241.9,714.6-241.9,714.6-241.9z"/>
			<path class="st2" d="M1014.3-241.8c0.1,0,0.2,0,0.3,0c-0.2,3.2-0.1,6.5-0.7,9.7c-0.9,4.9-4.7,7.7-9.4,7.3
				c-4.4-0.4-7.7-3.6-7.9-8.4c-0.2-5.7-0.2-11.4,0-17c0.2-5,3.6-8.3,8.3-8.5c4.4-0.2,7.9,2.5,9,7.2c0.1,0.6,0.3,1.3,0.3,1.9
				C1014.3-247,1014.3-244.4,1014.3-241.8z"/>
			<path class="st2" d="M981.4-241.5c-0.2,3.3,0,6.5-0.8,9.7c-1.1,4.6-4.7,7.3-9.2,7c-4.5-0.3-7.7-3.5-7.9-8.3
				c-0.2-5.8-0.2-11.7,0-17.5c0.2-4.8,3.6-7.9,8.1-8.1c4.5-0.3,8.2,2.4,9,7.1C981.1-248.3,981.2-244.9,981.4-241.5z"/>
			<path d="M980-430.7c4.4,13.5,4.5,13.5-9.6,13.5c-17.1,0-34.3,0-51.4,0c0-0.3-0.1-0.5-0.1-0.8c5.5-1.5,11.1-3.1,16.6-4.6
				c13.1-3.6,26.2-7.1,39.3-10.9C977.9-434.4,979.1-433.6,980-430.7z"/>
			<path d="M973-456.2c1.1,3.4,0.2,4.8-3.3,5.8c-18.6,5-37.2,10.2-55.8,15.4c-20.2,5.6-40.3,11.1-60.5,16.7c-1.6,0.4-3.2,1-4.7,1
				c-25.9,0.1-51.9,0-77.8,0c0-0.2-0.1-0.4-0.1-0.6c9.9-2.8,19.8-5.6,29.7-8.3c54.1-14.9,108.2-29.8,162.2-44.9
				c4.7-1.3,6.5-0.3,7.3,4.2C970.7-463.3,971.8-459.7,973-456.2z"/>
			<path d="M962.5-494.3c1.3,3.8,0,5-3.6,6c-23.8,6.4-47.5,13.1-71.3,19.7c-60.2,16.6-120.4,33.2-180.6,50
				c-6.3,1.8-12.5,1.6-18.8,1.4c-10.7-0.2-20.4,1.4-27.5,10.5c-1,1.3-2.8,1.6-4.3,2c-18.4,5.1-36.9,10.1-55.3,15.4
				c-3.8,1.1-5.6,0.4-6.4-3.6c-1.1-5.7-3.4-11.2-3.9-15.2c-0.4-7.1,2.9-9.2,7.4-10.5c21.9-6,43.8-12,65.7-18.1
				c93.2-25.8,186.4-51.5,279.6-77.3c1.9-0.5,3.8-1,5.7-1.3c4.7-0.7,7.9,1.4,9.2,6C959.7-504.3,960.8-499.2,962.5-494.3z"/>
			<path class="st2" d="M947.3-251.2c0.3,6.3,0.3,12.6,0,18.9c-0.2,4.5-4.2,7.5-8.7,7.4c-4.3-0.1-7.6-3-8.3-7.4c0-0.3-0.1-0.6-0.1-1
				c0-2.9,0-5.8,0-8.8c0,0,0,0,0,0c0-3.1-0.2-6.2,0-9.2c0.4-4.5,4.1-7.7,8.5-7.7C943.2-258.9,947.1-255.6,947.3-251.2z"/>
			<path class="st2" d="M897.7-241.7c0,2.9,0.2,5.9,0,8.8c-0.4,4.5-3.5,7.7-7.7,8.1c-4.5,0.5-8.5-2.1-9.4-6.6
				c-1.3-6.9-1.3-13.9,0-20.8c0.9-4.4,4.8-6.8,9-6.5c4.3,0.4,7.5,3.3,8,7.8C897.9-247.9,897.6-244.8,897.7-241.7
				C897.6-241.7,897.7-241.7,897.7-241.7z"/>
			<path class="st2" d="M897.7-192c0.1,5.7-4.3,9-12,9.1c-10.1,0-20.1,0-30.2,0c-10.6,0-21.1,0.1-31.7,0c-6.1-0.1-10.2-3.7-10.3-8.8
				c-0.1-5.3,4.2-9,11-9.1c13-0.1,26,0,39,0c7.3,0,14.6,0,21.9,0C893.2-200.9,897.6-197.7,897.7-192z"/>
			<path class="st2" d="M864.5-250.1c0.2,2.7,0,5.5,0,8.3c0,0,0,0,0,0c0,2.8,0.2,5.5,0,8.3c-0.4,5.2-4,8.6-8.7,8.7
				c-4.6,0-8.5-3.1-8.8-8c-0.4-6-0.5-12,0-18c0.4-5.3,4.5-8.2,9.3-7.9C860.9-258.4,864.1-255.1,864.5-250.1z"/>
			<path class="st2" d="M831.3-241.5c0,2.6,0.2,5.2,0,7.8c-0.5,5.4-4.2,9-9.1,8.9c-4.7-0.1-8.4-3.6-8.7-8.8c-0.3-5.5-0.3-11,0-16.5
				c0.3-5.3,4-8.6,8.7-8.6c4.8,0,8.4,3.3,8.9,8.5C831.5-247.4,831.3-244.4,831.3-241.5C831.3-241.5,831.3-241.5,831.3-241.5z"/>
			<path class="st2" d="M789.5-342.3c0.1,8.8,0.1,17.5,0,26.3c-0.2,13.4-11,24.4-24.5,24.8c-7.1,0.2-14.3,0-21.4,0c0,0,0,0,0,0
				c-6.8,0-13.6,0.1-20.4,0c-15-0.2-25.8-10.9-25.8-25.8c-0.1-8.4-0.1-16.9,0-25.3c0.2-12.8,9.8-23.5,22.5-24.5
				c15.7-1.2,31.4-1.2,47.1,0C779.8-365.7,789.3-355.1,789.5-342.3z M771.7-317.4c0.1-7.8,0.1-15.6,0-23.3c-0.1-5.8-2.8-8.7-8.7-8.8
				c-13-0.1-25.9-0.1-38.9,0c-5.6,0-8.9,2.6-9.1,8c-0.4,8.2-0.4,16.5,0.1,24.8c0.3,5.3,3.3,7.5,8.8,7.6c6.5,0.1,13,0,19.4,0
				c6.7,0,13.3,0.1,19.9,0C769-309.2,771.6-311.6,771.7-317.4z"/>
			<path class="st2" d="M781-251.8c1.1,6.6,1.1,13.3,0,19.9c-0.8,4.8-5,7.5-9.6,7c-4.4-0.5-7.4-3.8-7.7-8.6c-0.2-2.8,0-5.5,0-8.3
				c0,0,0,0,0,0c0-2.9-0.2-5.9,0-8.8c0.4-4.7,3.6-7.9,8.1-8.2C776.5-259.1,780.2-256.5,781-251.8z"/>
			<path class="st2" d="M780.3-195.7c1.7,3.2,1.1,6.3-1,9.1c-2.1,2.9-5.2,3.6-8.6,3.6c-10.5,0-21.1,0-31.6,0
				c-10.2,0-20.5,0.1-30.7,0c-7.1,0-11-3.2-11-8.8c0-5.6,4-9,10.9-9.1c20.8-0.1,41.5,0,62.3,0C774.7-200.9,778.3-199.7,780.3-195.7z
				"/>
			<path d="M771.7-340.7c0.1,7.8,0.1,15.6,0,23.3c-0.1,5.8-2.6,8.2-8.5,8.3c-6.6,0.1-13.3,0-19.9,0c-6.5,0-13,0.1-19.4,0
				c-5.5-0.1-8.5-2.2-8.8-7.6c-0.5-8.2-0.5-16.5-0.1-24.8c0.3-5.4,3.5-8,9.1-8c13-0.1,25.9-0.1,38.9,0
				C768.8-349.4,771.6-346.6,771.7-340.7z"/>
			<path class="st2" d="M748.3-242.1c0,3.8,0.2,7.3-0.7,10.6c-1.1,4.3-4.6,6.9-9,6.6c-4.3-0.2-7.8-3.2-8-7.7
				c-0.3-6.1-0.3-12.3,0-18.5c0.2-4.5,3.6-7.5,7.9-7.8c4.3-0.3,7.8,2.2,9.1,6.5C748.7-248.8,748.2-245.2,748.3-242.1z"/>
			<path class="st2" d="M714.5-250.6c0.2,2.9,0,5.8,0,8.7c0,0,0,0,0,0c0,3.1,0.2,6.2,0,9.2c-0.4,4.7-3.8,7.7-8.4,7.8
				c-4.7,0.1-8.5-3.1-8.7-8c-0.3-6-0.2-12,0-18c0.2-4.7,4.1-8.1,8.6-8.1C710.6-258.8,714.2-255.4,714.5-250.6z"/>
			<path d="M651.2-385c3.5-1,4.4,0.3,4.3,3.5c-0.1,2.3,0,4.5,0,6.8c-0.2,13,2,10.5-10.7,14.1c-11.2,3.1-22.5,6.2-33.7,9.5
				c-3.3,0.9-5.1,0.6-5.9-3.2c-0.8-4.3-2.1-8.5-3.5-12.7c-1-3.1,0-4.3,3-5.1C620.3-376.3,635.8-380.6,651.2-385z"/>
			<path d="M655.5-218.7c0,11.1,0,22.1,0,33.1c0,1.6,0.5,3.2-0.7,5c-2.3-1.6-2.5-3.8-3-5.8c-13.1-47.2-26.1-94.5-39.3-141.7
				c-1.1-3.8-0.5-5.4,3.6-6.4c11.2-2.8,22.2-6,33.3-9.1c5.9-1.6,6.1-1.6,6.1,4.5C655.5-298.9,655.5-258.8,655.5-218.7z"/>
		</g>
		<g>
			<path class="st4" d="M863.8-151.1c59.8,0,119.5,0,179.3,0c9.3,0,11.8-2.4,11.8-11.8c0-74.9,0-149.7,0-224.6
				c0-9.2-2.6-11.7-11.9-11.8c-119.2,0-238.4,0-357.6,0c-10.1,0-11.9,1.8-11.9,11.9c0,74.7,0,149.4,0,224.1
				c0,10.7,1.5,12.2,12.1,12.2C744.9-151.1,804.4-151.1,863.8-151.1z"/>
			<path class="st4" d="M590.6-408.1c0.5,4,2.8,9.5,3.9,15.2c0.8,4,2.5,4.7,6.4,3.6c18.4-5.3,36.9-10.3,55.3-15.4
				c1.6-0.4,3.3-0.7,4.3-2c7.1-9,16.8-10.7,27.5-10.5c6.3,0.1,12.5,0.3,18.8-1.4c60.2-16.8,120.4-33.3,180.6-50
				c23.8-6.6,47.5-13.2,71.3-19.7c3.6-1,4.9-2.2,3.6-6c-1.7-4.9-2.8-10-4.2-15c-1.3-4.5-4.5-6.6-9.2-6c-1.9,0.3-3.8,0.8-5.7,1.3
				c-93.2,25.8-186.4,51.5-279.6,77.3c-21.9,6.1-43.8,12.1-65.7,18.1C593.5-417.4,590.2-415.3,590.6-408.1z"/>
			<path class="st4" d="M654.8-180.6c1.1-1.8,0.7-3.5,0.7-5c0-11,0-22.1,0-33.1c0-40.1,0-80.2,0-120.3c0-6.1-0.2-6.1-6.1-4.5
				c-11.1,3.1-22.2,6.3-33.3,9.1c-4.1,1-4.6,2.6-3.6,6.4c13.2,47.2,26.2,94.4,39.3,141.7C652.3-184.4,652.6-182.2,654.8-180.6z"/>
			<path class="st4" d="M770.8-417.9c0,0.2,0.1,0.4,0.1,0.6c25.9,0,51.9,0,77.8,0c1.6,0,3.2-0.6,4.7-1c20.2-5.5,40.3-11.1,60.5-16.7
				c18.6-5.1,37.2-10.4,55.8-15.4c3.5-0.9,4.4-2.4,3.3-5.8c-1.2-3.5-2.3-7.1-3-10.8c-0.8-4.5-2.7-5.5-7.3-4.2
				c-54,15.1-108.1,30-162.2,44.9C790.6-423.5,780.7-420.7,770.8-417.9z"/>
			<path class="st4" d="M655.5-374.7c0-2.3-0.1-4.5,0-6.8c0.1-3.2-0.8-4.5-4.3-3.5c-15.4,4.4-30.9,8.7-46.4,12.8c-3,0.8-4,2-3,5.1
				c1.3,4.2,2.6,8.4,3.5,12.7c0.8,3.8,2.6,4.1,5.9,3.2c11.2-3.2,22.5-6.3,33.7-9.5C657.5-364.2,655.3-361.7,655.5-374.7z"/>
			<path class="st4" d="M918.9-418c0,0.3,0.1,0.5,0.1,0.8c17.1,0,34.3,0,51.4,0c14,0,14,0,9.6-13.5c-0.9-3-2.1-3.7-5.2-2.8
				c-13.1,3.8-26.2,7.3-39.3,10.9C929.9-421.1,924.4-419.5,918.9-418z"/>
			<path class="st4" d="M743.6-291.1c-6.8,0-13.6,0.1-20.4,0c-15-0.2-25.8-10.9-25.8-25.8c-0.1-8.4-0.1-16.9,0-25.3
				c0.2-12.8,9.8-23.5,22.5-24.5c15.7-1.2,31.4-1.2,47.1,0c12.8,1,22.4,11.6,22.6,24.4c0.1,8.8,0.1,17.5,0,26.3
				c-0.2,13.4-11,24.4-24.5,24.8C757.9-291,750.8-291.1,743.6-291.1C743.6-291.1,743.6-291.1,743.6-291.1z"/>
			<path class="st4" d="M743.3-309.1c6.7,0,13.3,0.1,19.9,0c5.8-0.1,8.4-2.5,8.5-8.3c0.1-7.8,0.1-15.6,0-23.3
				c-0.1-5.8-2.8-8.7-8.7-8.8c-13-0.1-25.9-0.1-38.9,0c-5.6,0-8.9,2.6-9.1,8c-0.4,8.2-0.4,16.5,0.1,24.8c0.3,5.3,3.3,7.5,8.8,7.6
				C730.3-309,736.8-309.1,743.3-309.1z"/>
			<path class="st4" d="M855.5-183c-10.6,0-21.1,0.1-31.7,0c-6.1-0.1-10.2-3.7-10.3-8.8c-0.1-5.3,4.2-9,11-9.1c13-0.1,26,0,39,0
				c7.3,0,14.6,0,21.9,0c7.7,0,12.1,3.2,12.2,8.9c0.1,5.7-4.3,9-12,9.1C875.6-183,865.6-183,855.5-183z"/>
			<path class="st4" d="M739.1-183c-10.2,0-20.5,0.1-30.7,0c-7.1,0-11-3.2-11-8.8c0-5.6,4-9,10.9-9.1c20.8-0.1,41.5,0,62.3,0
				c4.1,0,7.7,1.2,9.7,5.2c1.7,3.2,1.1,6.3-1,9.1c-2.1,2.9-5.2,3.6-8.6,3.6C760.2-183,749.6-183,739.1-183z"/>
			<path class="st4" d="M763.7-241.8c0-2.9-0.2-5.9,0-8.8c0.4-4.7,3.6-7.9,8.1-8.2c4.6-0.3,8.3,2.2,9.1,7c1.1,6.6,1.1,13.3,0,19.9
				c-0.8,4.8-5,7.5-9.6,7c-4.4-0.5-7.4-3.8-7.7-8.6C763.6-236.3,763.7-239,763.7-241.8C763.7-241.8,763.7-241.8,763.7-241.8z"/>
			<path class="st4" d="M864.5-241.8c0,2.8,0.2,5.5,0,8.3c-0.4,5.2-4,8.6-8.7,8.7c-4.6,0-8.5-3.1-8.8-8c-0.4-6-0.5-12,0-18
				c0.4-5.3,4.5-8.2,9.3-7.9c4.6,0.3,7.8,3.6,8.2,8.7C864.7-247.3,864.5-244.5,864.5-241.8C864.5-241.8,864.5-241.8,864.5-241.8z"/>
			<path class="st4" d="M748.3-242.1c0,3.8,0.2,7.3-0.7,10.6c-1.1,4.3-4.6,6.9-9,6.6c-4.3-0.2-7.8-3.2-8-7.7
				c-0.3-6.1-0.3-12.3,0-18.5c0.2-4.5,3.6-7.5,7.9-7.8c4.3-0.3,7.8,2.2,9.1,6.5C748.7-248.8,748.2-245.2,748.3-242.1z"/>
			<path class="st4" d="M897.7-241.7c0,2.9,0.2,5.9,0,8.8c-0.4,4.5-3.5,7.7-7.7,8.1c-4.5,0.5-8.5-2.1-9.4-6.6
				c-1.3-6.9-1.3-13.9,0-20.8c0.9-4.4,4.8-6.8,9-6.5c4.3,0.4,7.5,3.3,8,7.8C897.9-247.9,897.6-244.8,897.7-241.7
				C897.6-241.7,897.7-241.7,897.7-241.7z"/>
			<path class="st4" d="M1014.6-241.8c-0.2,3.2-0.1,6.5-0.7,9.7c-0.9,4.9-4.7,7.7-9.4,7.3c-4.4-0.4-7.7-3.6-7.9-8.4
				c-0.2-5.7-0.2-11.4,0-17c0.2-5,3.6-8.3,8.3-8.5c4.4-0.2,7.9,2.5,9,7.2c0.1,0.6,0.3,1.3,0.3,1.9c0,2.6,0,5.2,0,7.8
				C1014.4-241.8,1014.5-241.8,1014.6-241.8z"/>
			<path class="st4" d="M831.3-241.5c0,2.6,0.2,5.2,0,7.8c-0.5,5.4-4.2,9-9.1,8.9c-4.7-0.1-8.4-3.6-8.7-8.8c-0.3-5.5-0.3-11,0-16.5
				c0.3-5.3,4-8.6,8.7-8.6c4.8,0,8.4,3.3,8.9,8.5C831.5-247.4,831.3-244.4,831.3-241.5C831.3-241.5,831.3-241.5,831.3-241.5z"/>
			<path class="st4" d="M981.4-241.5c-0.2,3.3,0,6.5-0.8,9.7c-1.1,4.6-4.7,7.3-9.2,7c-4.5-0.3-7.7-3.5-7.9-8.3
				c-0.2-5.8-0.2-11.7,0-17.5c0.2-4.8,3.6-7.9,8.1-8.1c4.5-0.3,8.2,2.4,9,7.1C981.1-248.3,981.2-244.9,981.4-241.5z"/>
			<path class="st4" d="M714.5-241.9c0,3.1,0.2,6.2,0,9.2c-0.4,4.7-3.8,7.7-8.4,7.8c-4.7,0.1-8.5-3.1-8.7-8c-0.3-6-0.2-12,0-18
				c0.2-4.7,4.1-8.1,8.6-8.1c4.6,0,8.2,3.5,8.5,8.3C714.7-247.7,714.6-244.8,714.5-241.9C714.6-241.9,714.5-241.9,714.5-241.9z"/>
			<path class="st4" d="M930.3-241.9c0-3.1-0.2-6.2,0-9.2c0.4-4.5,4.1-7.7,8.5-7.7c4.4,0,8.3,3.2,8.5,7.7c0.3,6.3,0.3,12.6,0,18.9
				c-0.2,4.5-4.2,7.5-8.7,7.4c-4.3-0.1-7.6-3-8.3-7.4c0-0.3-0.1-0.6-0.1-1C930.2-236.1,930.2-239,930.3-241.9
				C930.3-241.9,930.3-241.9,930.3-241.9z"/>
		</g>
	</g>
</g>
<g>
	<path d="M1373.6-178.7c57.1,16.6,114.2,33.2,171.4,49.7c1.8,0.5,3.6,1.1,5.4,1.4c7.2,1.4,11.2-0.7,13.3-6.9
		c15.7-47.5,31.4-95,47-142.5c2.3-7-2-12.5-10.2-13.5c-1.8-0.2-2.7,0.4-3.3,1.7c-0.5,1.3-1,2.6-1.4,4c-13.3,40.3-26.7,80.6-39.9,121
		c-2.4,7.2-7,11.6-15.6,12.4c-2.9,0.3-5.7-0.6-8.4-1.4c-12.8-3.7-25.5-7.4-38.3-11.1c-98-28.5-196.1-56.9-294.1-85.4
		c-7.4-2.1-8-1.8-9.5,4.7c-2.2,9.7-0.4,12.3,10.6,15.5C1258.2-212.2,1315.9-195.5,1373.6-178.7z"/>
	<path d="M1358.2-210.1c58.1,16.9,116.1,33.7,174.2,50.6c10,2.9,13.8,1.1,16.7-7.8c15.3-46.3,30.4-92.6,45.9-138.7
		c3.2-9.5-1.9-13.6-10.7-15.8c-2.3-0.6-3.9-0.2-4.5,2.1c-0.6,2.1-1.3,4.1-2,6.2c-13,39.5-26.1,78.9-39.1,118.4
		c-1.7,5.2-4.4,9.6-10.2,11.8c-3.6,1.4-7.3,1.9-11.2,0.8c-2.2-0.6-4.4-1.2-6.6-1.8c-108.9-31.6-217.7-63.2-326.6-94.8
		c-7.8-2.3-8.7-1.8-9.8,5.4c-1.3,8.1,0.4,10.4,9.3,13C1241.8-243.9,1300-227,1358.2-210.1z"/>
	<path d="M1577.1-336.7c3-8.9,0.7-12.7-9.4-15.6c-35.7-10.4-71.4-20.7-107.1-31.1c-79.8-23.1-159.5-46.3-239.3-69.5
		c-5.7-1.7-11.2-2.7-15.8,1.8c-16.6,50.3-33.2,100.6-49.8,150.9c1.3,4.7,4.7,7.3,9.9,8.8c116.6,33.8,233.1,67.6,349.7,101.5
		c9,2.6,13.1,0.7,15.7-7.2C1546.4-243.7,1561.8-290.2,1577.1-336.7z M1351.1-272c-26.6-6.7-50.1-34.3-40.1-65.9
		c8.7-27.4,42.1-42.5,72.8-33.6c30.5,8.9,49.1,39,39.9,66C1412.9-273.8,1377-263.7,1351.1-272z"/>
	<g id="XMLID_00000009584493922836324850000007061528302586932393_">
		<g>
			<path class="st2" d="M1383.8-371.5c30.5,8.9,49.1,39,39.9,66c-10.8,31.7-46.7,41.9-72.6,33.5c-26.6-6.7-50.1-34.3-40.1-65.9
				C1319.7-365.3,1353.1-380.5,1383.8-371.5z M1381.9-299.4c0.8-1.8,1.1-3.9-1.2-5.2c-2.4-1.3-4,0.2-5.3,1.8
				c-2.1,2.6-4.1,5.1-8.1,5.6c-2.4,0.3-4.1-0.2-3.2-2.9c1.7-5.1,3.4-10.2,5-15.3c0.7-2.2,2.5-2.4,4.6-2.4c6.8-0.1,12.6-2.2,16.4-7.3
				c5.5-7.6,3.3-17.6-5.3-23.2c-2.7-1.8-4.1-3.3-2.9-6.3c0.8-1.9,0.1-3.6-2.3-4.3c-2.4-0.7-4.1,0.3-4.6,2.2
				c-0.8,3.4-3.2,3.8-6.6,3.8c-7.3,0-14.1,4.1-15.8,9c-0.7,1.9-1.1,3.8,1.4,5.1c2.5,1.3,4-0.1,5.3-1.8c2-2.7,4.2-5,8.2-5.4
				c2.4-0.3,3.7,0.5,3,2.8c-0.8,2.7-1.8,5.3-2.6,8l0,0c-0.3,0.8-0.7,1.7-0.8,2.6c-0.7,5.2-3.4,7.6-10,7.5
				c-7.5-0.1-12.7,4.9-14.7,12.1c-2.1,7.2,0.5,13.2,7.1,17.8c2.9,2,4.6,3.7,3.1,6.9c-0.8,1.9,0.2,3.5,2.6,4.1
				c2.2,0.5,3.9-0.3,4.2-2.2c0.7-3.7,3.4-4.1,7-4.2C1373.4-290.8,1379.2-293.3,1381.9-299.4z"/>
			<path d="M1380.7-304.6c2.3,1.3,2,3.3,1.2,5.2c-2.8,6.1-8.5,8.6-15.4,8.8c-3.7,0.1-6.3,0.4-7,4.2c-0.4,1.8-2.1,2.7-4.2,2.2
				c-2.4-0.6-3.4-2.2-2.6-4.1c1.4-3.3-0.2-4.9-3.1-6.9c-6.6-4.5-9.1-10.6-7.1-17.8c2.1-7.2,7.3-12.2,14.7-12.1
				c6.6,0.1,9.2-2.3,10-7.5c0.1-0.9,0.5-1.7,0.8-2.6l0,0c0.9-2.7,1.8-5.3,2.6-8c0.7-2.3-0.5-3-3-2.8c-3.9,0.4-6.2,2.8-8.2,5.4
				c-1.3,1.7-2.8,3-5.3,1.8c-2.5-1.2-2-3.2-1.4-5.1c1.7-4.9,8.5-9,15.8-9c3.4,0,5.8-0.4,6.6-3.8c0.5-2,2.2-3,4.6-2.2
				c2.4,0.7,3.1,2.4,2.3,4.3c-1.2,3,0.2,4.5,2.9,6.3c8.6,5.6,10.8,15.6,5.3,23.2c-3.8,5.1-9.6,7.2-16.4,7.3c-2.1,0-3.9,0.2-4.6,2.4
				c-1.6,5.1-3.3,10.2-5,15.3c-0.9,2.7,0.8,3.1,3.2,2.9c3.9-0.5,6-3,8.1-5.6C1376.7-304.4,1378.3-305.9,1380.7-304.6z"/>
		</g>
		<g>
		</g>
	</g>
	<path class="st2" d="M1359.2-309.1c0.8-2.3,1.5-4.6,2.3-6.9c0.7-2.1-0.4-2.9-2.7-2.5c-4.3,0.7-7.6,2.5-9,6.4
		c-1.4,3.8-0.1,7.9,3.1,10.5c2.2,1.8,3.5,1.4,4.2-1C1357.8-304.7,1358.5-306.9,1359.2-309.1C1359.3-309.1,1359.3-309.1,1359.2-309.1
		z"/>
	<path class="st2" d="M1384.9-331.5c1.2-3.8,0.2-7.4-3.2-10.4c-1.8-1.6-3.3-1.6-4,0.7c-1.5,4.5-3,8.9-4.4,13.4
		c-0.9,2.6,0.6,3.2,3.1,2.9C1380.6-325.5,1383.5-327.6,1384.9-331.5z"/>
</g>
<g>
	<path d="M2015.9-353.8c-9-4.6-18.1-9.2-27.2-13.6l-5.5,4l1.8,6.8h4.4l-1.2,6.4l-3.1,1.1l-0.1,13.4c5.6,0.4,11.1,0.8,16.6,1.1
		c3.2,0.2,6.4,0.3,9.6,0.2c5.3-0.1,9.1-2.4,10.3-7.8C2022.8-347.5,2020.7-351.4,2015.9-353.8z M1951.8-315.6
		c-15.5-1.4-31.1-2.4-46.6-3.6c-1.7-0.1-3.4-0.3-5.1-0.4c-15.5-1.2-31-2.5-46.5-3.7c-0.9-0.1-1.8-0.1-2.7-0.2
		c-1.4-0.1-2.9-0.1-4.3,0c-0.7,0.1-1.3,0.1-2,0.2c-2.9,0.5-5.2,1.5-6.8,3.3c-1.2,1.3-2.1,3-2.4,5.2c-0.8,5.1,1.5,8.7,6.1,11
		c0.4,0.2,0.8,0.4,1.2,0.6c9.7,4.9,19.3,9.8,29.1,14.5c4.2,2,4.9,3.2,0.9,6.6c-7.3,6.4-14.7,12.8-21.9,19.2l1.1,6.1
		c0,0,5.4,1.5,6.1,1.5c0.7,0,12.2,8.7,12.2,8.7v34l4.1,1.1l-1.8,10c9.7-9,19.9-17.5,30.5-25.7c3.9-3,7.8-5.9,11.5-9
		c2.6-2.2,3.6-1.8,4.4,1.5c2.1,9.3,4.4,18.6,6.7,27.9c0.3,1.3,0.6,2.5,0.9,3.8c0.8,3.1,1.6,6.2,2.9,9.1c1.8,3.9,5,6.1,9.5,5.6
		c4.6-0.5,7.7-3,8.5-7.7c2.1-12.8,4.2-25.6,6.1-38.4c1.7-11.5,3.4-23.1,5.1-34.6c0.7-4.6,1.3-9.2,2-13.9c0.9-6.1,1.8-12.3,2.6-18.4
		C1964.6-310.7,1961.5-314.7,1951.8-315.6z M1925.4-469.1c-2-2.2-4.6-3.3-8-2.9c-1.2,0.1-2.3,0.4-3.3,0.9l11.1,2.6L1925.4-469.1z
		 M2127.2-166.5c-2.6-6.5-4.9-13.1-8.1-19.2c-5.3-10.2-4.1-19.6,1.5-29.3c20.3-35.1,31.8-72.9,31.8-113.7c0-27.9-5.6-54.8-15.1-81
		c-2.5-7-3.3-14-2-21.6c5.4-32.7-14.2-59.4-47-64.1c-8.1-1.2-14.8-4.1-21.2-9.2c-39.6-31.5-84.1-49.7-143.5-49.4
		c-14.4-0.3-36.5,2.5-58.2,8.5c-40.6,11.2-74.4,33.7-102.6,64.6c-47.5,51.9-65.7,113-56.1,182.5c7.1,51.4,29.1,95.1,67.2,130.6
		c6.2,5.7,9.9,12.4,11.6,20.7c2.4,11.6,8.2,21.5,18.6,27.8c12.4,7.6,26.1,10.3,40.6,8.6c9.8-1.1,19.1-4.1,29.4-1
		c16.6,5,33.9,6.8,51.2,6.9c31.8,0.2,62.3-6.3,91.6-18.5c6.9-2.9,13.8-3.5,20.8-1.1c29.4,10.3,59.8,12.3,90.5,10.9
		c7.3-0.3,13.2-3.4,16.1-10.3c3-7.1,2.3-14.1-3.2-19.9C2134.9-150.3,2130.6-158.1,2127.2-166.5z M2090.1-149.5
		c-10.7-1.7-21.3-3.5-31.8-5.9c-7.4-1.7-14.6-3.8-21.8-6.4c-0.6-0.2-1.1-0.4-1.7-0.6c-6.2-2.4-12.5-1.4-18.6,1.4
		c-20.7,9.6-42.2,16.6-65.1,19.2c-29.8,3.3-58.8,0.3-87-10.1c-2.3-0.8-4.6-1.8-6.9-2.5c-7.5-2.5-10.8-1.2-12.5,5.8
		c-0.1,0.5-0.2,0.9-0.3,1.4c-0.5,2.7-0.4,5.6-0.5,8.4c-0.1,2.6,0,5.2,0,8.7c-4.2-2-5-5.3-5.8-8.3c-1.3-4.9-1.6-9.6-1.1-14
		c1-9.1,5.5-17.2,12.1-24.8c7.4-8.4,15.1-16.4,23.3-24c9.7-9,19.9-17.5,30.5-25.7c3.9-3,7.8-5.9,11.5-9c2.6-2.2,3.6-1.8,4.4,1.5
		c2.1,9.3,4.4,18.6,6.7,27.9c0.3,1.3,0.6,2.5,0.9,3.8c0.8,3.1,1.6,6.2,2.9,9.1c1.8,3.9,5,6.1,9.5,5.6c4.6-0.5,7.7-3,8.5-7.7
		c2.1-12.8,4.2-25.6,6.1-38.4c1.7-11.5,3.4-23.1,5.1-34.6c0.7-4.6,1.3-9.2,2-13.9c0.9-6.1,1.8-12.3,2.6-18.4
		c1.4-9.8-1.7-13.9-11.4-14.7c-15.5-1.4-31.1-2.4-46.6-3.6c-1.7-0.1-3.4-0.3-5.1-0.4c-15.5-1.2-31-2.5-46.5-3.7
		c-0.9-0.1-1.8-0.1-2.7-0.2c-1.4-0.1-2.9-0.1-4.3,0c-0.7,0.1-1.3,0.1-2,0.2c-2.9,0.5-5.2,1.5-6.8,3.3c-1.2,1.3-2.1,3-2.4,5.2
		c-0.8,5.1,1.5,8.7,6.1,11c0.4,0.2,0.8,0.4,1.2,0.6c9.7,4.9,19.3,9.8,29.1,14.5c4.2,2,4.9,3.2,0.9,6.6c-7.3,6.4-14.7,12.8-21.9,19.2
		c-19,17.1-37.2,35.1-52.7,55.7c-5.8,7.8-5.8,7.8-12.1,0.5c-24-27.8-41-59.1-45.4-95.9c-3.8-32.1-1.5-62.6,8.1-91.1
		c7.4-22,19.2-42.7,35.8-61.8c11.5-13.3,24.3-24.3,38.2-33.3c1.6-1,3.1-2,4.7-3c4.9-3,10-5.7,15.2-8.2c19.3-9.3,40.4-15.3,62.8-18.4
		c44.2-6.1,85.1,4.1,122.4,28.6c5.7,3.7,5.6,4-0.3,6.9c-29.4,14.6-56.6,32.7-82.4,53c-0.3,0.2-0.6,0.5-0.9,0.7
		c-6.3,4.9-6.3,4.9-8-2.8c-1-4.1-1.9-8.2-2.8-12.3c-0.2-1-0.5-2-0.7-3.1c-0.8-3.7-1.7-7.3-2.6-11c-0.6-2.5-1.3-5.1-2.4-7.5
		c-0.6-1.3-1.4-2.5-2.3-3.5c-2-2.2-4.6-3.3-8-2.9c-1.2,0.1-2.3,0.4-3.3,0.9c-1.9,0.8-3.4,2.1-4.3,3.8c-0.7,1.1-1.1,2.5-1.3,4
		c-1.3,8-2.5,16-3.8,24c-0.3,2-0.6,4-0.9,6.1c-0.2,1.2-0.4,2.4-0.5,3.6c-0.4,2.4-0.7,4.8-1.1,7.3c-0.1,0.8-0.2,1.7-0.4,2.5
		c0,0.1,0,0.3-0.1,0.4c-2.9,19.5-5.6,39.1-8.4,58.7c-0.3,1.9-0.6,3.7-0.6,5.6c-0.4,9.8,3.2,13.5,13.1,14.2c26.5,1.8,53,3.6,79.4,5.4
		c5.6,0.4,11.1,0.8,16.6,1.1c3.2,0.2,6.4,0.3,9.6,0.2c5.3-0.1,9.1-2.4,10.3-7.8c1.2-5.3-0.9-9.2-5.7-11.6c-9-4.6-18.1-9.2-27.2-13.6
		c-2.5-1.3-5.1-2.5-7.6-3.7c-3.9-1.9-4.2-3.2-0.8-6.1c9.9-8.7,20-17.1,30.4-25c17.5-13.3,35.8-25.4,55.6-35.4
		c9.3-4.7,18.7-8.8,29.5-8.2c6.6,0.4,12.4,2.6,17.6,9.3c-7.9-2.6-14.7-3-21.5-0.8c-4.4,1.4-5.5,3.5-3.2,7.9
		c2.6,5.1,5.3,10.2,7.8,15.4c0.4,0.8,0.7,1.5,1.1,2.3c1.7,3.6,3.4,7.3,4.9,11c1.7,4.2,3.3,8.5,4.7,12.9c0.5,1.6,1,3.1,1.4,4.7
		c16,54.9,9,107.1-22,155.6c-5.3,8.3-8.6,16.1-8.8,24.3c-0.1,1.8,0.1,3.6,0.3,5.5c0.5,3.6,1.6,7.3,3.4,11.2c1.2,2.6,2.3,5.2,3.3,7.9
		c3.2,8.2,5.8,16.6,9,24.8C2095.2-150.1,2095.2-148.7,2090.1-149.5z"/>
</g>
<g>
	<path d="M218.2,394.2c-0.1,0.4-0.1,0.9-0.1,1.3c0,7,1.7,13.6,4.7,19.5c0.2-1.3,0.3-2.5,0.3-3.9C223,404.9,221.3,399.1,218.2,394.2z
		 M218.2,394.2c-0.1,0.4-0.1,0.9-0.1,1.3c0,7,1.7,13.6,4.7,19.5c0.2-1.3,0.3-2.5,0.3-3.9C223,404.9,221.3,399.1,218.2,394.2z
		 M58.2,247.8v227.3h395.6V247.8H58.2z M346.5,410.9c-13.8,0-25.7-7.4-31.5-18.3c0.2,1,0.2,1.9,0.2,2.8c0,25.1-21.8,45.6-48.6,45.6
		c-19.4,0-36.1-10.7-43.8-26.1c-2,16.4-16.8,29.2-34.9,29.2c-19.5,0-35.3-14.9-35.3-33.1c0-8.8,3.5-16.6,9.5-22.5
		c-0.7,0.1-1.3,0.1-2,0.1c-19.5,0-35.2-14.9-35.2-33.1c0-18.3,15.7-33.1,35.2-33.1c19.5,0,35.2,14.9,35.2,33.1
		c0,8.7-3.5,16.5-9.4,22.5c0.7-0.1,1.3-0.1,2-0.1c12.9,0,24.2,6.5,30.3,16.2c0.2-10.4,4.3-19.9,10.8-27.5
		c-14.2-6-24.1-19.4-24.1-34.9c0-21.2,18.3-38.4,40.8-38.4c22.6,0,40.9,17.2,40.9,38.4c0,7.3-2.2,14.2-6.1,20
		c13.9,3.8,25.2,13.3,30.8,25.7c0.1-5.2,1.4-10.1,3.6-14.4c-12.1-5.2-20.5-16.7-20.5-30c0-18.3,15.8-33.1,35.3-33.1
		c19.5,0,35.2,14.8,35.2,33.1c0,5.3-1.3,10.3-3.6,14.7c12.1,5.2,20.4,16.7,20.4,30C381.7,396.2,365.9,410.9,346.5,410.9z
		 M311.2,377.9c0,5.3,1.4,10.4,3.7,14.8c-0.3-5.3-1.6-10.4-3.7-15.1V377.9z M218.2,394.2c-0.1,0.4-0.1,0.9-0.1,1.3
		c0,7,1.7,13.6,4.7,19.5c0.2-1.3,0.3-2.5,0.3-3.9C223,404.9,221.3,399.1,218.2,394.2z"/>
	<path d="M354.6,121.8h-30.9c1.6-5.5,2.3-11.1,2.3-17c0-37.5-32.5-67.9-72.6-67.9c-40,0-72.6,30.4-72.6,67.9c0,5.9,0.8,11.5,2.3,17
		h-30.9c-52,0-94.2,42.1-94.2,94.3v18.1h390.7v-18.1C448.8,163.9,406.7,121.8,354.6,121.8z M223,103.6c0-19.6,13.7-35.3,30.4-35.3
		c16.8,0,30.5,15.7,30.5,35.3c0,6.6-1.6,12.9-4.4,18.2h-52.1C224.6,116.5,223,110.2,223,103.6z"/>
</g>
<g>
	<path class="st2" d="M4165.5-1442.5c0,0.1,0,0.3,0,0.4c-0.3-0.6-0.5-1.3-0.5-2c0,0,0-0.1,0-0.1
		C4165.3-1443.7,4165.5-1443.1,4165.5-1442.5z"/>
	<path class="st2" d="M4174.9-1444.4c-0.2-0.4-0.4-1-0.4-1.5v0C4174.7-1445.4,4174.8-1444.9,4174.9-1444.4z"/>
	<path class="st2" d="M4165-1444.2c0.3,0.5,0.5,1.1,0.5,1.7c0,0.1,0,0.3,0,0.4c-0.3-0.6-0.5-1.3-0.5-2
		C4164.9-1444.1,4164.9-1444.2,4165-1444.2z"/>
	<path class="st2" d="M4174.9-1444.4c-0.2-0.4-0.4-1-0.4-1.5v0C4174.7-1445.4,4174.8-1444.9,4174.9-1444.4z"/>
</g>
</svg>
