<?xml version="1.0" encoding="UTF-8"?>
<svg id="Layer_1" data-name="Layer 1" xmlns="http://www.w3.org/2000/svg" viewBox="0 0 512 512">
  <defs>
    <style>
      .cls-1 {
        stroke-width: 0px;
      }
    </style>
  </defs>
  <g>
    <circle class="cls-1" cx="197.71" cy="175.24" r="55.88"/>
    <circle class="cls-1" cx="305.26" cy="175.24" r="55.88"/>
  </g>
  <circle class="cls-1" cx="388.78" cy="215.94" r="39.35"/>
  <circle class="cls-1" cx="453.96" cy="257.87" r="22.63"/>
  <circle class="cls-1" cx="44.64" cy="260.61" r="22.63"/>
  <circle class="cls-1" cx="118.86" cy="214.59" r="39.35"/>
  <path class="cls-1" d="m325.98,247.5h-139.96c-24.4,0-44.19,19.79-44.19,44.19v100.95h61.7v-9.85c0-15.72,12.75-28.5,28.5-28.5h23.24c13.51,0,24.81,9.4,27.73,22,4.76-12.84,17.1-22,31.59-22h12.94c18.55,0,33.61,15.06,33.61,33.63v4.71h9.04v-100.95c0-24.4-19.79-44.19-44.19-44.19Zm-82.35,102.45c-12.32,0-22.33-9.99-22.33-22.33s10.01-22.33,22.33-22.33,22.36,9.99,22.36,22.33-10.01,22.33-22.36,22.33Zm77.4,0c-12.34,0-22.33-9.99-22.33-22.33s9.99-22.33,22.33-22.33,22.34,9.99,22.34,22.33-9.99,22.33-22.34,22.33Z"/>
  <g>
    <g>
      <path class="cls-1" d="m398.55,268.31h56.14v124.33h-12.96c-31.72,0-57.47-25.75-57.47-57.47v-52.57c0-7.89,6.4-14.29,14.29-14.29Z" transform="translate(838.95 660.96) rotate(-180)"/>
      <path class="cls-1" d="m435.6,294.1h26.96c23.11,0,41.87,18.76,41.87,41.87v3.29h-68.83v-45.17h0Z"/>
    </g>
    <g>
      <path class="cls-1" d="m111.7,268.31h18.73v124.33h-56.14c-7.89,0-14.29-6.4-14.29-14.29v-58.34c0-28.53,23.17-51.7,51.7-51.7Z"/>
      <path class="cls-1" d="m7.57,294.1h77.04v5.68c0,21.8-17.7,39.49-39.49,39.49H7.57v-45.17h0Z" transform="translate(92.19 633.36) rotate(-180)"/>
    </g>
  </g>
</svg>