<?xml version="1.0" encoding="UTF-8"?>
<svg id="Layer_1" data-name="Layer 1" xmlns="http://www.w3.org/2000/svg" viewBox="0 0 512 512">
  <defs>
    <style>
      .cls-1 {
        stroke-width: 0px;
      }
    </style>
  </defs>
  <path class="cls-1" d="m159.33,114.89l-.03,6.73c-.03,1.74-.08,13.95-.16,31.73H39.89v207.44l.33,1c.27.84,6.95,21.12,32.25,33.36,12.6,6.11,27.34,9.15,44.11,9.15h.87l-.76.68,15.85,1.03c18.73,1.19,84.39,5.13,136.81,5.13,31.92,0,58.93-1.47,67.48-5.89,8.44-4.37,16.1-12.87,22.72-25.27,8.55-15.99,13.06-34.69,13.06-54.1V114.89h-213.28Zm-80.51,268.28c-17.7-8.42-23.97-21.23-25.35-24.65v-191.59h105.62c-.14,50.98-.11,130.08,1.22,157.79,1.41,29.4-18.49,54.94-27.55,64.96-21.5,2.42-39.69.24-53.94-6.51Zm280.22-57.28c0,17.18-3.96,33.69-11.46,47.69-5.21,9.8-11.1,16.59-16.99,19.63-12.16,6.3-90.58,4.72-156.14,1.55-9.28-.43-18.32-.92-26.87-1.41,1.71-2.09,3.56-4.48,5.46-7.09,10.42-14.58,22.07-36.75,20.85-62.19-1.33-27.09-1.36-106.25-1.22-157.14l.03-13.57c.05-10.7.11-19.35.14-24.89h186.22v197.43Z"/>
  <polygon class="cls-1" points="165.71 341.69 90.71 341.69 90.71 166.93 109.71 166.93 109.71 322.69 165.71 322.69 165.71 341.69"/>
  <rect class="cls-1" x="206.25" y="166.93" width="116.26" height="43.45"/>
  <rect class="cls-1" x="206.25" y="236.92" width="116.26" height="21.73"/>
  <rect class="cls-1" x="206.25" y="285.2" width="116.26" height="21.73"/>
  <rect class="cls-1" x="206.25" y="337.87" width="116.26" height="21.73"/>
  <path class="cls-1" d="m484.96,224.98c-.52,2.82-1.41,5.5-3.19,7.79-4.12,5.3-9.51,7.61-16.21,6.77-1.51-.19-2.96-.6-4.33-1.25-.48-.22-.84-.19-1.28.11-4.28,3.02-8.57,6.02-12.87,9.02-.54.38-.55.61,0,.99,4.3,2.99,8.59,5.99,12.87,9.02.53.37.94.25,1.45.04,6.52-2.72,13.71-1.34,18.7,3.62,2.54,2.53,4.07,5.61,4.72,9.14.04.21.1.42.14.63,0,1.48,0,2.96,0,4.44-.05.24-.11.48-.16.72-1.64,9.09-10.21,15.29-19.23,13.91-11.51-1.77-17.87-14.03-12.68-24.48.32-.65.19-.94-.37-1.33-3.33-2.29-6.64-4.6-9.92-6.95-.67-.48-1.11-.45-1.78.01-10.29,7.24-20.59,14.45-30.9,21.66-6.15,4.29-14.29,3.26-19.01-2.38-.85-1.01-.84-1.03.18-1.75,4.98-3.48,9.95-6.96,14.93-10.44,7.53-5.27,15.05-10.54,22.58-15.79.63-.44.63-.67,0-1.1-1.97-1.33-3.9-2.71-5.84-4.07-10.61-7.42-21.21-14.85-31.83-22.26-.69-.48-.76-.87-.19-1.44.15-.15.27-.33.42-.49,5.09-5.52,12.78-6.31,18.92-2,10.29,7.23,20.6,14.43,30.89,21.66.54.38.92.4,1.47.01,3.37-2.39,6.75-4.76,10.15-7.11.5-.34.61-.61.33-1.19-3.2-6.82-2.43-13.19,2.39-18.97,6.58-7.88,19.56-7.58,25.91.49,1.99,2.54,3.19,5.39,3.73,8.54v4.44Zm-8.35-2.24c-.02-4.76-3.85-8.66-8.58-8.6-5,.07-8.65,3.84-8.65,8.64,0,5.07,4.01,8.62,8.65,8.63,4.79,0,8.61-3.86,8.59-8.67Zm-8.69,41.69c-4.61.05-8.55,3.62-8.54,8.64,0,4.83,3.68,8.57,8.66,8.63,4.77.05,8.6-3.9,8.57-8.7-.03-4.8-3.88-8.61-8.69-8.56Z"/>
  <g>
    <path class="cls-1" d="m466.26,361.48c.13.06.09.22.09.33,0,1.96.01,3.92-.03,5.88-.02.86-.52,1.54-1.07,2.16-1.29,1.46-2.91,2.47-4.63,3.33-4.01,1.99-8.29,3.16-12.66,4-1.29.25-2.58.46-3.87.69-.74.12-.79.08-.79-.68v-3.84c0-1.33.02-2.65,0-3.98,0-.39.14-.54.51-.59,5.35-.71,10.6-1.84,15.65-3.79,2.28-.88,4.47-1.94,6.47-3.36.1-.07.2-.2.32-.15Z"/>
    <path class="cls-1" d="m466.35,353.19c.03,1.09-.39,1.98-1.08,2.77-1.19,1.35-2.68,2.32-4.26,3.14-3.39,1.76-7.01,2.86-10.72,3.72-2.09.49-4.19.87-6.31,1.17-.67.1-.71.1-.67-.56.22-3.11-1.24-5.45-3.4-7.46-.15-.14-.29-.28-.44-.42-.02-.02-.02-.06-.04-.13.71-.08,1.4-.17,2.1-.24,1.89-.18,3.76-.49,5.63-.79,2.74-.45,5.44-1.08,8.1-1.86,3.8-1.12,7.48-2.53,10.75-4.83.08-.06.18-.11.31-.19.12.33,0,.63,0,.93.01,1.59-.02,3.18.02,4.76Z"/>
    <path class="cls-1" d="m466.35,339.34c.06,1.1-.42,1.97-1.11,2.75-1.07,1.23-2.4,2.13-3.81,2.89-3.62,1.95-7.51,3.12-11.49,4.02-2.87.65-5.78,1.13-8.71,1.45-2.17.24-4.35.45-6.54.51-.89.03-1.79.06-2.68.09-.49.02-.94-.06-1.4-.22-4.51-1.66-9.18-2.65-13.92-3.32-2.53-.36-5.07-.64-7.63-.8-2.41-.16-4.83-.26-7.26-.2-.8.02-1.54-.1-2.28-.44-2-.95-3.95-1.96-5.56-3.52-1.07-1.05-1.66-2.25-1.59-3.79.06-1.57.01-3.14.02-4.72,0-.12-.05-.28.06-.35.15-.09.25.07.36.14,2.4,1.68,5.03,2.87,7.77,3.85,3.04,1.09,6.16,1.89,9.33,2.51,3.33.65,6.69,1.07,10.07,1.38,4.37.4,8.75.46,13.12.33,5.1-.14,10.18-.65,15.2-1.61,3.99-.76,7.91-1.76,11.69-3.29,2.09-.85,4.1-1.85,5.96-3.14.09-.06.18-.21.31-.14.12.07.07.22.07.34,0,.97,0,1.94,0,2.91,0,.79-.03,1.58,0,2.36Z"/>
    <path class="cls-1" d="m466.26,375.38c.12.05.08.19.08.29,0,1.96.02,3.92-.02,5.88-.02.91-.55,1.62-1.13,2.27-1.58,1.74-3.6,2.83-5.7,3.79-2.66,1.22-5.45,2.07-8.28,2.77-2.41.59-4.85,1.03-7.31,1.4-.59.09-.59.07-.59-.51,0-1.33,0-2.65,0-3.98s.02-2.69,0-4.02c0-.39.14-.55.51-.6,3.09-.38,6.16-.96,9.17-1.74,3.89-1.01,7.69-2.26,11.2-4.29.62-.35,1.2-.76,1.8-1.13.09-.06.16-.18.28-.13Z"/>
    <path class="cls-1" d="m465.48,323.5c1.23,1.6,1.15,3.17-.2,4.69-1.17,1.31-2.61,2.26-4.14,3.07-2.91,1.54-6.01,2.56-9.18,3.38-3.05.79-6.14,1.36-9.26,1.75-2.09.26-4.19.46-6.3.61-2.32.16-4.65.17-6.98.19-2.08,0-4.17.01-6.25-.13-4.24-.29-8.47-.75-12.65-1.59-3.25-.66-6.46-1.49-9.55-2.71-2.46-.97-4.84-2.11-6.81-3.94-.78-.72-1.43-1.53-1.67-2.61-.2-.91.12-1.68.61-2.39.85-1.27,2.04-2.17,3.33-2.95,2.68-1.64,5.6-2.71,8.59-3.6,3.4-1.01,6.86-1.66,10.36-2.16,1.89-.27,3.8-.44,5.7-.61,4.05-.34,8.11-.34,12.16-.25,3.19.07,6.37.36,9.53.77,2.83.37,5.64.85,8.41,1.54,4.01.99,7.93,2.24,11.46,4.46,1.07.67,2.07,1.46,2.85,2.47Z"/>
    <path class="cls-1" d="m438.64,389.74c.06,1.54-.56,2.74-1.64,3.77-1.52,1.45-3.32,2.45-5.2,3.32-2.32,1.07-4.74,1.86-7.2,2.51-2.64.7-5.32,1.22-8.02,1.62-3.34.49-6.7.79-10.07.95-1.69.08-3.39.13-5.08.12-2.99-.02-5.98-.14-8.96-.4-4.6-.39-9.15-1.09-13.62-2.24-3.55-.92-7-2.1-10.16-4.01-1.25-.76-2.41-1.65-3.3-2.85-.57-.77-.75-1.6-.74-2.52.02-1.65.02-3.3.03-4.95,0-.14-.08-.34.09-.41.13-.06.24.1.35.18,1.96,1.34,4.06,2.38,6.27,3.25,3.19,1.27,6.5,2.15,9.85,2.85,2.99.63,6.01,1.04,9.04,1.38,5.13.57,10.28.63,15.43.51,2.91-.07,5.81-.34,8.71-.68,4.02-.47,7.99-1.18,11.89-2.24,3.44-.94,6.8-2.13,9.92-3.89.59-.33,1.15-.73,1.72-1.09.19-.12.35-.29.6-.35.12.24.07.49.07.73,0,1.48-.04,2.96.02,4.44Z"/>
    <path class="cls-1" d="m438.55,370.72c.14.08.07.28.07.43,0,1.74,0,3.49,0,5.23,0,.85-.28,1.61-.79,2.28-1.23,1.61-2.87,2.68-4.64,3.6-3.55,1.84-7.34,2.95-11.22,3.82-2.82.63-5.66,1.09-8.53,1.41-2.1.23-4.2.44-6.31.51-1.83.05-3.66.18-5.5.16-3.73-.03-7.46-.19-11.17-.6-4.07-.44-8.09-1.11-12.05-2.17-3.05-.81-6.02-1.84-8.8-3.35-1.61-.88-3.11-1.9-4.23-3.39-.56-.75-.78-1.59-.73-2.52.03-.71,0-1.42,0-2.13h.02c0-.96,0-1.91,0-2.87,0-.13-.07-.3.08-.38.12-.06.22.08.32.15,2.36,1.64,4.95,2.82,7.65,3.79,3.78,1.36,7.68,2.28,11.64,2.93,2.92.49,5.86.83,8.81,1.06,3.85.3,7.7.34,11.56.26,2.7-.06,5.39-.22,8.07-.51,3.41-.36,6.79-.86,10.13-1.6,4.14-.92,8.18-2.13,11.99-4.02,1.12-.56,2.2-1.19,3.22-1.91.12-.08.24-.26.39-.18Z"/>
    <path class="cls-1" d="m438.62,398.79c0,1.84.02,3.67,0,5.51-.01,1.02-.49,1.87-1.16,2.61-1.27,1.41-2.84,2.41-4.52,3.25-3.56,1.8-7.36,2.89-11.24,3.75-3.01.67-6.06,1.12-9.13,1.45-1.71.18-3.44.28-5.16.4-1.91.12-3.82.14-5.94.12-2.36.06-4.94-.03-7.51-.22-5.71-.44-11.37-1.23-16.88-2.87-3.25-.97-6.41-2.14-9.23-4.06-.81-.55-1.53-1.2-2.18-1.92-.8-.89-1.05-1.95-1.03-3.12.03-1.51.02-3.02.02-4.53,0-.11,0-.22,0-.32,0-.33.1-.37.37-.18,2.73,1.91,5.75,3.19,8.9,4.24,3.36,1.11,6.79,1.91,10.28,2.5,2.34.4,4.69.69,7.05.91,3.06.28,6.12.42,9.19.47,3.07.05,6.12-.08,9.18-.28,3.88-.26,7.73-.75,11.54-1.5,4.95-.98,9.78-2.32,14.28-4.67.96-.5,1.88-1.07,2.76-1.69.09-.06.19-.2.32-.12.1.06.06.2.06.3Z"/>
    <path class="cls-1" d="m437.9,360.76c1.04,1.42.91,2.98-.36,4.42-1.21,1.36-2.7,2.34-4.29,3.17-3.29,1.72-6.81,2.79-10.4,3.65-4.03.95-8.12,1.52-12.24,1.89-2.98.27-5.97.38-8.21.33-2.84,0-4.92,0-7-.13-2.1-.14-4.21-.33-6.31-.58-3.36-.4-6.68-.97-9.95-1.82-4.07-1.06-8.04-2.39-11.55-4.82-.73-.51-1.37-1.11-1.94-1.78-1.34-1.59-1.29-3.32.13-4.87,1.28-1.39,2.84-2.4,4.52-3.25,3.81-1.94,7.89-3.07,12.05-3.93,3.26-.67,6.56-1.11,9.88-1.41,3.05-.28,6.09-.36,9.14-.38,2.2-.02,4.41.01,6.61.14,3.89.24,7.77.66,11.6,1.4,2.99.57,5.94,1.27,8.81,2.27,2.44.85,4.8,1.86,6.95,3.32.97.66,1.85,1.44,2.55,2.39Z"/>
  </g>
</svg>